<svg width="343" height="240" viewBox="0 0 343 240" fill="none" xmlns="http://www.w3.org/2000/svg">
<mask id="mask0_4392_15899" style="mask-type:alpha" maskUnits="userSpaceOnUse" x="0" y="0" width="343" height="240">
<rect width="343" height="240" fill="#D9D9D9"/>
</mask>
<g mask="url(#mask0_4392_15899)">
<path d="M219.195 2.90405C194.45 2.90405 174.389 22.8992 174.389 47.5656C174.389 63.6174 182.889 77.6857 195.644 85.5578L188.051 103.219L208.641 90.9683C212.027 91.7834 215.558 92.2263 219.195 92.2263C243.939 92.2263 264 72.2312 264 47.5656C264 22.9 243.939 2.90405 219.195 2.90405Z" fill="#D0D602"/>
<path d="M106.626 135.844C107.021 136.9 107.816 138.744 107.948 139.404C108.081 140.063 108.741 141.513 108.741 141.513V144.281C108.741 144.281 109.27 147.181 108.741 147.708C108.213 148.236 106.494 152.192 106.626 152.586C106.758 152.98 105.685 154.167 106.619 159.967C107.551 165.769 109.666 175.524 109.799 175.789L112.181 167.484L125.01 174.602C125.01 174.602 127.16 197.269 125.01 199.781C122.858 202.295 123.734 204.78 122.917 205.444C122.101 206.108 120.246 210.987 119.456 211.515C118.661 212.04 115.751 214.15 115.356 214.546C114.957 214.942 112.051 218.765 107.551 213.096C103.056 207.429 102.923 204.923 102.791 203.999C102.658 203.076 99.2203 196.103 98.1616 187.33C97.1021 178.557 96.5761 168.142 95.912 165.109C95.2511 162.078 92.6069 157.201 92.0784 156.674C91.5499 156.146 87.5816 152.453 86.2582 150.872C84.9349 149.292 81.7614 145.864 81.7614 145.864C81.7614 145.864 80.7019 144.94 80.5712 144.282C80.4389 143.622 78.5871 141.645 78.5871 141.645C78.5871 141.645 77.2662 139.931 78.5871 139.273C79.9112 138.613 80.7019 139.405 80.7019 139.405L84.2741 143.358L81.1014 137.823L80.4389 135.844L79.7764 134.803C79.7764 134.803 78.8517 133.076 80.175 132.417C81.4959 131.758 82.5554 133.603 82.5554 133.603L84.2733 137.144L87.0506 140.985L85.0672 137.144L83.4801 134.501L81.8945 132.275C81.8945 132.275 80.4381 130.968 81.6299 130.439C82.82 129.912 84.9349 130.439 85.8604 132.153C86.7876 133.867 87.8454 134.803 87.8454 134.803C87.8454 134.803 88.7701 136.109 89.0356 136.504C89.3011 136.9 91.4159 140.063 91.4159 140.063L89.3002 136.9L89.0356 134.803L87.8454 132.812L86.7876 131.495C86.7876 131.495 85.3327 129.517 86.7876 129.386C88.2408 129.254 89.9603 130.439 90.8858 132.153C90.8858 132.153 92.6053 134.29 92.7401 134.803C92.8708 135.318 92.3414 135.185 92.8708 135.318C93.4001 135.45 95.2511 138.218 95.2511 138.218C95.2511 138.218 96.4413 139.798 96.7059 140.194C96.9706 140.591 98.557 141.777 98.9548 142.303C99.3501 142.831 101.043 144.546 101.984 144.414C102.923 144.282 104.773 143.358 104.641 141.909C104.641 141.909 102.394 136.504 104.51 135.45C106.626 134.396 106.626 135.844 106.626 135.844Z" fill="#F7BCA3"/>
<path d="M207.389 143.221C206.993 144.276 206.199 146.121 206.066 146.78C205.934 147.441 205.273 148.892 205.273 148.892V151.658C205.273 151.658 204.744 154.559 205.273 155.087C205.802 155.612 207.521 159.569 207.389 159.964C207.258 160.359 208.33 161.546 207.397 167.347C206.463 173.144 204.348 182.902 204.215 183.166L201.834 174.859L189.006 181.978C189.006 181.978 186.854 204.646 189.006 207.159C191.158 209.671 190.282 212.156 191.098 212.819C191.915 213.484 193.768 218.365 194.561 218.891C195.354 219.418 198.264 221.527 198.66 221.923C199.058 222.317 201.967 226.143 206.464 220.473C210.96 214.805 211.092 212.298 211.225 211.376C211.357 210.453 214.798 203.483 215.854 194.708C216.913 185.933 217.441 175.521 218.104 172.486C218.764 169.456 221.41 164.577 221.939 164.051C222.467 163.523 226.434 159.832 227.757 158.25C229.079 156.668 232.254 153.239 232.254 153.239C232.254 153.239 233.313 152.317 233.444 151.659C233.578 151 235.429 149.023 235.429 149.023C235.429 149.023 236.749 147.309 235.429 146.649C234.104 145.99 233.313 146.781 233.313 146.781L229.742 150.737L232.914 145.2L233.578 143.221L234.238 142.181C234.238 142.181 235.164 140.454 233.84 139.795C232.519 139.135 231.46 140.98 231.46 140.98L229.742 144.521L226.964 148.365L228.948 144.521L230.535 141.877L232.123 139.651C232.123 139.651 233.578 138.345 232.385 137.817C231.195 137.291 229.079 137.817 228.154 139.531C227.228 141.244 226.169 142.181 226.169 142.181C226.169 142.181 225.243 143.486 224.978 143.882C224.715 144.276 222.598 147.442 222.598 147.442L224.715 144.276L224.978 142.181L226.169 140.191L227.228 138.873C227.228 138.873 228.683 136.893 227.228 136.763C225.773 136.629 224.053 137.817 223.127 139.531C223.127 139.531 221.409 141.666 221.274 142.181C221.143 142.695 221.673 142.563 221.143 142.695C220.614 142.825 218.763 145.595 218.763 145.595C218.763 145.595 217.573 147.177 217.308 147.573C217.043 147.967 215.457 149.154 215.058 149.682C214.663 150.21 212.971 151.924 212.032 151.79C211.092 151.66 209.241 150.737 209.373 149.288C209.373 149.288 211.621 143.882 209.505 142.826C207.389 141.77 207.389 143.221 207.389 143.221Z" fill="#F7BCA3"/>
<path d="M153.605 89.3081C153.605 89.3081 146.433 95.7674 145.773 96.9554C145.11 98.1417 138.63 110.534 138.63 110.534L139.291 124.244L139.82 141.909L156.22 159.969L164.817 158.783C164.817 158.783 173.28 155.488 173.149 154.302C173.017 153.116 176.324 132.812 176.455 131.231C176.589 129.648 177.514 113.962 177.514 113.435C177.514 112.907 176.324 94.8457 176.324 94.8457L161.907 90.2339L153.605 89.3081Z" fill="#F7BCA3"/>
<path d="M144.905 134.804C144.905 134.804 149.756 141.13 158.9 137.144C168.046 133.157 168.542 132.669 168.542 132.669L171.536 129.374C171.536 129.374 171.371 135.476 171.536 136.14C171.701 136.803 170.539 145.749 170.539 146.414C170.539 147.075 170.044 155.646 170.044 155.646L161.727 162.695L142.776 153.075L144.905 134.804Z" fill="#E4AE98"/>
<path d="M140.615 135.318C140.615 135.318 147.095 153.791 156.615 153.98C166.139 154.168 174.074 145.864 173.944 142.832C173.81 139.799 173.944 135.318 173.944 135.318C173.944 135.318 191.269 138.087 194.574 139.799C197.88 141.513 199.494 143.695 199.89 143.827C200.287 143.96 202.271 150.022 202.271 150.42C202.271 150.677 205.575 160.481 207.357 167.588L204.445 182.641C198.529 185.266 191.014 188.675 189.55 189.368C187.036 190.554 187.962 203.869 188.226 205.715C188.491 207.56 189.232 214.453 189.232 216.826C189.232 219.199 189.366 221.84 188.837 224.21C188.307 226.579 189.761 230.422 189.761 230.422L191.666 239.858H124.054C124.054 239.858 124.804 225.27 125.597 223.03C126.391 220.789 127.876 214.905 127.876 211.873C127.876 208.841 127.876 197.234 127.876 196.048C127.876 194.861 121.946 193.656 121.12 188.129C120.879 186.507 120.449 180.462 120.882 179.169C121.215 178.169 120.882 179.169 120.882 179.169C120.882 179.169 111.894 170.772 107.983 167.369L106.867 161.456C107.192 160.962 107.537 160.602 107.816 160.496C108.873 160.1 113.357 145.683 115.739 143.442C118.119 141.203 118.63 139.154 119.555 138.494C120.481 137.836 121.92 137.147 122.712 136.752C123.505 136.355 135.986 134.131 140.615 135.318Z" fill="#E11031"/>
<path d="M167.596 84.432C164.941 83.9492 160.713 82.1896 157.009 83.2457C153.308 84.2985 151.195 84.8261 148.946 87.5969C146.698 90.3629 143.343 90.5388 140.698 94.8917C138.053 99.2388 137.572 102.624 136.911 105.26C136.25 107.897 134.266 108.689 135.06 112.641C135.855 116.598 135.721 117.124 133.605 120.814C131.49 124.505 129.9 126.486 130.431 128.461C130.96 130.439 131.093 132.707 131.225 134.803C131.356 136.9 133.269 134.789 130.328 141.38C127.39 147.972 126.066 150.661 126.463 153.074C126.86 155.487 128.409 159.317 128.516 160.981C128.758 164.694 123.066 165.43 126.394 169.986C128.122 172.352 135.305 175.635 138.763 171.172C140.824 168.514 141.188 169.905 142.776 164.764C144.363 159.624 144.98 163.659 145.111 158.387C145.243 153.114 147.17 153.857 148.223 148.286C148.996 144.192 153.27 139.184 147.163 136.752C146.796 136.606 143.173 131.342 142.775 122.775C142.377 114.208 141.805 113.3 142.597 111.719C143.392 110.139 145.507 108.555 145.904 104.996C146.3 101.437 145.772 101.305 148.814 97.7472C151.855 94.1865 153.045 92.3415 156.749 92.6061C160.452 92.8699 161.036 95.9143 161.565 96.3109C162.093 96.7066 166.151 95.9151 168.002 96.3109C169.852 96.7066 172.089 99.1965 173.016 101.174C173.943 103.151 176.324 102.493 175 106.052C173.679 109.611 174.074 111.72 172.752 114.357C171.429 116.993 171.164 121.607 171.429 123.716C171.694 125.825 170.504 134.132 168.519 136.373C166.536 138.614 164.817 140.327 164.684 143.887C164.552 147.446 166.932 151.401 166.932 153.905C166.932 156.411 168.258 156.25 165.348 160.994C162.439 165.741 158.759 171.904 163.123 175.859C167.489 179.813 170.206 171.865 174.389 168.315C178 165.252 186.785 166.399 184.932 156.116C183.081 145.833 179.984 152.73 183.819 141.918C187.654 131.108 194.057 146.036 186.904 132.682C182.504 124.471 186.887 119.835 186.489 116.409C186.093 112.981 183.464 111.59 183.729 104.733C183.993 97.8799 179.761 90.8921 176.719 89.1782C173.678 87.4642 171.298 86.4098 169.973 86.2779C168.653 86.1451 169.051 84.6966 167.596 84.432Z" fill="#D0BD89"/>
<path d="M206.377 69.475C205.308 69.475 204.392 69.1045 203.626 68.3635C202.859 67.6218 202.476 66.7196 202.476 65.6546V29.615H199.69V27.4621H210.418V25.657H227.973V27.4621H238.703V29.615H235.916V65.6546C235.916 66.7196 235.533 67.6218 234.765 68.3635C233.999 69.1045 233.083 69.475 232.015 69.475H206.377ZM233.755 29.615H204.635V65.6546C204.635 66.0715 204.809 66.4534 205.159 66.8002C205.508 67.1479 205.913 67.3213 206.377 67.3213H232.014C232.478 67.3213 232.886 67.1479 233.234 66.8002C233.581 66.4534 233.756 66.0715 233.756 65.6546V29.615H233.755ZM213.274 61.5582H215.433V35.3097H213.274V61.5582ZM222.958 61.5582H225.118V35.3097H222.958V61.5582ZM204.635 29.615V67.3221V65.6554V29.615Z" fill="#363E6A"/>
<path d="M171.142 123.023C173.829 124.504 175.158 121.741 176.178 119.284C177.03 117.54 176.332 114.259 176.26 114.29C176.241 114.237 176.229 114.189 176.211 114.121C176.1 114.312 174.873 114.569 174.437 114.494C174.443 114.479 174.458 114.421 174.458 114.421C174.458 114.421 174.402 114.465 174.374 114.486C172.624 114.317 172.271 113.943 172.018 113.526L171.142 123.023Z" fill="#F7BCA3"/>
</g>
</svg>
