<svg width="286" height="291" viewBox="0 0 286 291" fill="none" xmlns="http://www.w3.org/2000/svg">
<g clip-path="url(#clip0_6083_14755)">
<path d="M142.7 285.4C221.51 285.4 285.4 221.51 285.4 142.7C285.4 63.89 221.51 0 142.7 0C63.89 0 0 63.89 0 142.7C0 221.51 63.89 285.4 142.7 285.4Z" fill="#CBE0EB"/>
<path d="M270.14 61.27C266.68 42.52 248.68 30.12 229.92 33.57C211.17 37.03 198.77 55.03 202.22 73.79C202.35 74.48 202.5 75.15 202.66 75.82L194.85 84.99C194.21 85.74 194.69 86.89 195.67 86.97L208.37 88.01C215.97 98.31 229.01 103.96 242.44 101.49C261.19 98.03 273.59 80.03 270.14 61.27Z" fill="#6880AB"/>
<path d="M160.51 45.67C160.01 44.42 159.36 43.01 158.54 41.51C137.28 47.17 96.6199 38.78 96.6199 38.78C96.0699 49.13 87.3999 60.6 87.3999 60.6V86.25L90.8099 114.52L137.62 119.13C148.29 119.87 153.08 115.18 155.5 112.11C160.36 105.94 160.42 96.15 160.42 96.15L161.98 54.21C162.09 51.29 161.59 48.38 160.5 45.66L160.51 45.67Z" fill="#F1ADA0"/>
<path d="M161.11 47.39C157.34 32.94 141.17 19.33 113.59 22.54C104.79 23.56 96.7897 28.41 92.3397 36.08C89.7397 40.57 87.7497 46.57 87.4097 54.57V67.54C87.4097 67.54 98.5897 55.04 96.6297 38.79C96.6297 38.79 139.85 53.06 161.12 47.4L161.11 47.39Z" fill="#540127"/>
<path d="M185.28 136.15H66.0999L54.3599 273.79C65.2699 279.71 76.9499 284.39 89.1899 287.68C92.2599 287.93 95.3399 288.1 98.4499 288.22C110.87 288.73 123.3 288.58 135.73 288.38C134.06 279.71 136.45 270.47 136.45 270.47L143.34 258.81C143.34 258.81 156.85 257.64 167.76 261.68L144.96 169.84L185.27 253.93V136.14L185.28 136.15Z" fill="#80B176"/>
<path d="M186.09 274.27L186.43 251.52L185.27 249.11V273.2C185.55 273.55 185.81 273.92 186.08 274.28L186.09 274.27Z" fill="#AF5D8E"/>
<path d="M163.52 257.5C170.8 260.19 178.8 264.93 185.28 273.19V249.1L141.98 158.78L163.52 257.5Z" fill="#597F50"/>
<path d="M186.02 278.92C186.88 278.61 187.74 278.29 188.6 277.97C187.8 276.66 186.96 275.45 186.09 274.28L186.02 278.92Z" fill="#F1ADA0"/>
<path d="M163.52 257.5C152.61 253.46 143.35 253.98 143.35 253.98L136.46 265.64C136.46 265.64 133.08 278.66 137.15 288.29C148.18 287.9 158.93 286.41 169.29 283.92L163.53 257.5H163.52Z" fill="#F1ADA0"/>
<path d="M185.28 279.19C185.53 279.1 185.77 279.01 186.02 278.92L186.09 274.28C185.82 273.92 185.55 273.55 185.28 273.2V279.2V279.19Z" fill="#F1ADA0"/>
<path d="M163.52 257.5L169.28 283.92C174.72 282.61 180.06 281.03 185.27 279.18V273.18C178.79 264.92 170.79 260.19 163.51 257.49L163.52 257.5Z" fill="#F1ADA0"/>
<path d="M113.99 56.83L100.18 106.04L133.33 115.02L148.85 63.92L113.99 56.83Z" fill="#F1ADA0"/>
<path d="M211.02 209.58L172.77 133.39L138.1 151.74C138.1 151.74 172.44 235.41 179.78 246.75C187.12 258.09 194.9 268.69 209.69 261.6C229.37 252.17 223.74 234.6 223.74 234.6C210.28 166.76 202.83 152.53 199.47 139.56C193.71 117.29 153.41 125.03 153.41 125.03" fill="#80B176"/>
<path d="M65.4501 196.77L54.1901 247.3L121.94 250.92L127.49 290.88L47.0901 288.91H39.7101C24.6701 288.91 12.4901 274.38 13.5801 257.78C14.9601 236.95 26.8901 186.89 33.6501 159.8C36.4601 148.55 44.4201 139.98 54.6501 137.21L84.6501 129.2" fill="#80B176"/>
<path d="M87.4102 86.25L90.5901 133.4L132.11 134.31L129.64 87.46L87.4102 86.25Z" fill="#F1ADA0"/>
<path d="M81.4302 134.79L114.75 153.26L121.36 134.15L130.08 150.86L143.63 127.8L121.36 134.15L81.4302 134.79Z" fill="#597F50"/>
<path d="M121.36 134.15L114.85 147.26L81.4302 134.79L86.7302 119.51L121.36 134.15Z" fill="white"/>
<path d="M134.94 115.85L121.36 134.15L130.17 144.65L143.63 127.8L134.94 115.85Z" fill="white"/>
<path d="M78.2502 97.29C85.0653 97.29 90.5901 91.7652 90.5901 84.95C90.5901 78.1348 85.0653 72.61 78.2502 72.61C71.435 72.61 65.9102 78.1348 65.9102 84.95C65.9102 91.7652 71.435 97.29 78.2502 97.29Z" fill="#F1ADA0"/>
<path d="M87.4102 67.54C87.4102 67.54 99.4302 85.66 114.25 87.04L160.64 90.39L159.69 102.32C159.69 102.32 156.94 121.03 137.63 119.13L104.43 115.86C104.43 115.86 87.4102 113.77 87.8302 85.44L87.4102 67.54Z" fill="#D0857C"/>
<path d="M182.58 96.39L171.46 62.39L165.64 66.68C151.43 78.15 154.84 87.57 154.84 87.57L158.79 105.71L137.96 124.07C137.96 124.07 128.93 129.04 134.01 140.48C136.33 145.71 137.26 147.88 137.59 148.7L165.1 135.48L160.34 125.26L174.61 115.18C181.35 110.41 182.75 105.35 182.75 105.35C184.49 100.82 182.59 96.39 182.59 96.39H182.58Z" fill="#F1ADA0"/>
<path d="M137.58 148.7L137.51 148.73C137.51 148.73 137.97 149.67 137.58 148.7Z" fill="#F1ADA0"/>
<path d="M63.4902 203.74L60.1802 237.38C59.8402 240.85 62.2602 244 65.7102 244.55L95.1402 249.27L54.2002 247.21L63.5002 203.73L63.4902 203.74Z" fill="#597F50"/>
<path d="M189.53 166.68L211.02 209.58L208.56 199.45C206.71 191.83 203.29 184.69 198.54 178.46L189.54 166.68H189.53Z" fill="#597F50"/>
<path d="M234.87 75.26C234.48 74.81 234.28 74.19 234.28 73.41C234.28 71.35 234.65 69.61 235.4 68.18C236.15 66.76 237.24 65.2 238.66 63.51C239.78 62.16 240.61 61.04 241.13 60.14C241.65 59.24 241.92 58.23 241.92 57.1C241.92 55.86 241.46 54.88 240.54 54.15C239.62 53.42 238.38 53.05 236.8 53.05C235.45 53.05 234.16 53.34 232.92 53.92C231.68 54.5 230.24 55.33 228.59 56.42C227.65 56.95 226.88 57.21 226.29 57.21C225.65 57.21 225.1 56.92 224.63 56.34C224.16 55.76 223.93 55.08 223.93 54.29C223.93 53.2 224.38 52.32 225.28 51.65C226.85 50.3 228.71 49.24 230.84 48.47C232.98 47.7 235.13 47.32 237.3 47.32C239.59 47.32 241.62 47.71 243.4 48.5C245.18 49.29 246.57 50.37 247.56 51.76C248.55 53.15 249.05 54.74 249.05 56.54C249.05 58.49 248.58 60.18 247.64 61.63C246.7 63.07 245.34 64.69 243.54 66.49C242 68.06 240.85 69.38 240.08 70.45C239.31 71.52 238.83 72.73 238.65 74.08C238.54 74.68 238.28 75.14 237.89 75.46C237.5 75.78 237 75.94 236.4 75.94C235.76 75.94 235.25 75.72 234.85 75.27L234.87 75.26ZM233.55 86.53C232.76 85.72 232.37 84.72 232.37 83.52C232.37 82.32 232.76 81.32 233.55 80.51C234.34 79.7 235.33 79.3 236.53 79.3C237.73 79.3 238.72 79.7 239.51 80.51C240.3 81.32 240.69 82.32 240.69 83.52C240.69 84.72 240.29 85.72 239.48 86.53C238.67 87.34 237.69 87.74 236.53 87.74C235.37 87.74 234.34 87.34 233.55 86.53Z" fill="white"/>
<path d="M143.4 253.99H121.07V290.88H143.4V253.99Z" fill="white"/>
<path d="M180.604 149.069L171.642 131.101L136.143 148.808L145.105 166.776L180.604 149.069Z" fill="white"/>
<path d="M103.1 103.26L130.5 107.83" stroke="#8E473D" stroke-width="3" stroke-miterlimit="10" stroke-linecap="round"/>
</g>
<defs>
<clipPath id="clip0_6083_14755">
<rect width="285.4" height="290.88" fill="white"/>
</clipPath>
</defs>
</svg>
