<?xml version="1.0" encoding="UTF-8"?>
<svg width="94px" height="138px" viewBox="0 0 94 138" version="1.1" xmlns="http://www.w3.org/2000/svg" xmlns:xlink="http://www.w3.org/1999/xlink">
    <!-- Generator: sketchtool 59.1 (101010) - https://sketch.com -->
    <title>DB57F025-CF25-4895-B0F2-8E3C1B844D32</title>
    <desc>Created with sketchtool.</desc>
    <g id="#150-|-LOGIN-" stroke="none" stroke-width="1" fill="none" fill-rule="evenodd">
        <g id="150.4-|-Lost-pincode" transform="translate(-130.000000, -84.000000)">
            <g id="illustration/prullenbak" transform="translate(130.000000, 83.000000)">
                <ellipse id="Oval" fill="#173F63" cx="46.5" cy="130" rx="36.5" ry="6"></ellipse>
                <g id="bin" transform="translate(0.168199, 26.207112)">
                    <path d="M46.6391202,95.1165005 C26.1280938,95.1165005 9.49953079,98.2837732 9.49953079,102.190635 L9.49953079,105.171105 C9.49953079,101.264242 26.1280938,98.0969697 46.6391202,98.0969697 C67.1501466,98.0969697 83.7787097,101.264242 83.7787097,105.171105 L83.7787097,102.190635 C83.7787097,98.2837732 67.1501466,95.1165005 46.6391202,95.1165005" id="Fill-37" fill="#143853"></path>
                    <path d="M46.6391202,17.4096677 C20.8815836,17.4096677 8.52651283e-14,20.5769404 8.52651283e-14,24.4838026 L8.52651283e-14,27.4642718 C8.52651283e-14,23.5574096 20.8815836,20.3893744 46.6391202,20.3893744 C72.3974194,20.3893744 93.2782405,23.5574096 93.2782405,27.4642718 L93.2782405,24.4838026 C93.2782405,20.5769404 72.3974194,17.4096677 46.6391202,17.4096677" id="Fill-38" fill="#143853"></path>
                    <path d="M46.6391202,20.3895269 C20.8815836,20.3895269 8.52651283e-14,23.5567996 8.52651283e-14,27.4636618 L9.49953079,102.191169 C9.50105572,106.098031 26.1288563,109.264542 46.6391202,109.264542 C67.1509091,109.264542 83.7787097,106.098031 83.7787097,102.191169 L93.2782405,27.4636618 C93.2782405,23.5567996 72.3974194,20.3895269 46.6391202,20.3895269" id="Fill-39" fill-opacity="0.2" fill="#3D4B5A"></path>
                    <path d="M57.148305,24.8198964 L22.431824,33.9519199 C21.2103578,34.2729169 19.9599179,33.5432395 19.6381584,32.3217732 L14.2932903,12.0021252 C13.9715308,10.7798964 14.7012082,9.52945653 15.923437,9.207697 L50.6391554,0.0756735401 C51.8606217,-0.245323527 53.111824,0.484353892 53.4335836,1.70658263 L58.7784516,22.0254683 C59.1002111,23.247697 58.3705337,24.4988993 57.148305,24.8198964" id="Fill-40" fill="#D34554"></path>
                    <path d="M57.5668211,26.4103187 L22.8503402,35.5423422 C21.6288739,35.8633392 20.378434,35.1336618 20.0566745,33.9121955 L14.711044,13.5925474 C14.3900469,12.3703187 15.1197243,11.1198788 16.3419531,10.7981193 L51.0576716,1.66609583 C52.2791378,1.34509876 53.5303402,2.07477618 53.8520997,3.29700492 L59.1969677,23.616653 C59.5187273,24.8381193 58.7882874,26.0893216 57.5668211,26.4103187" id="Fill-41" fill="#08B0E5"></path>
                    <path d="M57.9889971,28.0163715 L23.2732786,37.1483949 C22.0510499,37.469392 20.80061,36.7397146 20.4788504,35.5182483 L15.1339824,15.1986002 C14.8122229,13.9763715 15.5419003,12.7259316 16.764129,12.4041721 L51.48061,3.27214861 C52.7013138,2.95115155 53.9525161,3.68082897 54.2742757,4.9030577 L59.6191437,25.2219433 C59.9409032,26.4441721 59.2112258,27.6953744 57.9889971,28.0163715" id="Fill-42" fill="#054C90"></path>
                    <path d="M57.1855894,6.22997266 L12.525824,17.9780079 C12.3870557,18.0146061 12.3039472,18.1556618 12.3405455,18.2944301 C12.4068798,18.5468055 12.6653548,18.6985357 12.9184927,18.6314389 L57.7193138,6.8468055 C57.818434,6.82088175 57.8786686,6.71871166 57.8519824,6.61882897 C57.7749736,6.32756797 57.4776129,6.15296386 57.1855894,6.22997266" id="Fill-43" fill="#142238"></path>
                    <path d="M58.4171202,29.643697 L23.7014018,38.7757205 C22.479173,39.0967175 21.2287331,38.3670401 20.9069736,37.1448114 L15.5621056,16.8251633 C15.240346,15.603697 15.9700235,14.3532571 17.1922522,14.0314976 L51.9079707,4.89947413 C53.129437,4.5777146 54.3806393,5.30815448 54.7023988,6.52962075 L60.0472669,26.8492688 C60.3690264,28.0707351 59.639349,29.3219375 58.4171202,29.643697" id="Fill-44" fill="#F9B95A"></path>
                    <path d="M58.4602757,29.8078554 L23.7445572,38.9398788 C22.5223284,39.2608759 21.2718886,38.5311985 20.950129,37.3097322 L15.9895425,18.4509639 C15.667783,17.2294976 16.3982229,15.9782952 17.6196891,15.6565357 L52.3361701,6.52527471 C53.5568739,6.20351518 54.8080762,6.93395507 55.1298358,8.15542134 L60.0904223,27.0134272 C60.4121818,28.2356559 59.6825044,29.4868583 58.4602757,29.8078554" id="Fill-45" fill="#41B38F"></path>
                    <path d="M57.3717067,6.93807237 L41.4674839,11.1217087 C42.2352845,14.52687 40.1804457,17.9541427 36.7775718,18.8492747 C33.3754604,19.7444067 29.9001525,17.7711515 28.8929384,14.4292747 L12.9185689,18.6312102 C12.7226158,18.6830577 12.4191554,18.5938495 12.3680704,18.3978964 L26.1480704,70.7837029 C26.3386862,71.5103304 27.082088,71.9441721 27.809478,71.7535562 L70.6172199,60.4927351 C71.3438475,60.3013568 71.7776891,59.5579551 71.5870733,58.8313275 L57.8063109,6.44552105 C57.8581584,6.64071166 57.5676598,6.88698732 57.3717067,6.93807237" id="Fill-46" fill="#193F61"></path>
                    <path d="M9.49953079,105.171028 L9.49953079,102.190559 C9.49953079,106.097421 26.1280938,109.264694 46.6391202,109.264694 C67.1501466,109.264694 83.7787097,106.097421 83.7787097,102.190559 L83.7787097,105.171028 C83.7787097,109.077891 67.1501466,112.245163 46.6391202,112.245163 C26.1280938,112.245163 9.49953079,109.077891 9.49953079,105.171028 Z" id="Fill-47" fill="#275475"></path>
                    <path d="M46.6391202,34.5379492 C20.883871,34.5379492 0.00457478006,31.3714389 8.52651283e-14,27.4653392 L9.49953079,102.190559 C9.50105572,106.098184 26.1280938,109.265457 46.6391202,109.265457 C67.1501466,109.265457 83.7787097,106.098184 83.7787097,102.190559 L93.2782405,27.4638143 C93.2782405,31.3706765 72.3966569,34.5379492 46.6391202,34.5379492" id="Fill-48" fill-opacity="0.2" fill="#3D4B5A"></path>
                    <path d="M46.6391202,34.5379492 C20.8815836,34.5379492 8.52651283e-14,31.3706765 8.52651283e-14,27.4638143 L8.52651283e-14,24.4833451 C8.52651283e-14,28.3902073 20.8815836,31.55748 46.6391202,31.55748 C72.3974194,31.55748 93.2782405,28.3902073 93.2782405,24.4833451 L93.2782405,27.4638143 C93.2782405,31.3706765 72.3974194,34.5379492 46.6391202,34.5379492" id="Fill-49" fill="#275475"></path>
                </g>
                <polygon id="Rectangle" fill="#E8ECF0" points="6 15.7158203 10.6425781 15 22.4506836 32.9272461"></polygon>
                <polygon id="Rectangle" fill="#E8ECF0" transform="translate(42.225342, 12.963623) rotate(40.000000) translate(-42.225342, -12.963623) " points="34 4.71582031 38.6425781 4 50.4506836 21.9272461"></polygon>
            </g>
        </g>
    </g>
</svg>