<svg width="302" height="320" viewBox="0 0 302 320" fill="none" xmlns="http://www.w3.org/2000/svg">
<g clip-path="url(#clip0_6238_14679)">
<path d="M100.58 180.99C100.58 180.99 96.76 170.03 98.68 151.84L57.35 124.58C50.81 119.25 45.34 112.74 41.2 105.4L38.61 99.4702C24.14 121.79 15.73 148.41 15.73 176.99C15.73 238.23 54.31 290.46 108.5 310.7L133.72 204.75L100.58 181V180.99Z" fill="#C9DEE9"/>
<path d="M112.05 115.24C112.05 115.24 169.04 140.09 200.56 157.5C239.57 179.05 268.18 194.93 290.94 229.98C297.5 213.59 301.12 195.71 301.12 176.98C301.12 98.1698 237.23 34.2798 158.42 34.2798C120.22 34.2798 85.52 49.2898 59.91 73.7398C67.11 86.3398 72.63 96.0598 72.63 96.0598L112.05 115.23V115.24Z" fill="#C9DEE9"/>
<path d="M59.9 73.75C47.8 52.59 30.95 23.3 27.5 18.2C21.98 10.07 16.54 1.72998 16.54 1.72998C16.54 1.72998 9.04999 4.74998 9.39999 5.47998C12 11.01 18.27 20.75 18.27 20.75C18.27 20.75 -0.620008 25.56 0.0199922 41.01C0.589992 54.88 9.61999 54.27 18.85 54.2L18.5 53.39L8.01999 46.46L20.98 54.2C20.27 54.2 19.57 54.2 18.86 54.2L38.62 99.46C44.71 90.07 51.86 81.44 59.92 73.75H59.9Z" fill="#EB9780"/>
<path d="M20.96 54.2L8 46.46L18.48 53.39L18.83 54.2C19.54 54.2 20.25 54.2 20.95 54.2H20.96Z" fill="#EB9780"/>
<path d="M57.35 124.58L98.68 151.84C98.77 151 98.86 150.16 98.98 149.29C101.56 129.58 112.05 115.24 112.05 115.24L72.63 96.07C72.63 96.07 67.11 86.35 59.91 73.75C51.85 81.44 44.7 90.07 38.61 99.46L41.2 105.39C45.34 112.74 50.82 119.25 57.35 124.57V124.58Z" fill="#EB9780"/>
<path d="M98.68 151.84L108.67 158.43C105.94 132.99 112.05 115.24 112.05 115.24C112.05 115.24 101.57 129.58 98.98 149.29C98.87 150.16 98.77 151 98.68 151.84Z" fill="#E1032E"/>
<path d="M252.73 266.81C254.54 270.98 256.18 275.21 257.68 279.49C258.42 278.77 259.16 278.04 259.89 277.3C260.24 272.95 260.72 266.89 261.04 262.26L252.73 266.81Z" fill="#E1032E"/>
<path d="M279.85 251.95L262.37 261.53C263.13 264.17 264.16 267.99 264.97 271.88C270.48 265.69 275.47 259.03 279.85 251.95Z" fill="#E1032E"/>
<path d="M266.3 281.53C266.28 281.53 266.27 281.53 266.25 281.54H266.3V281.53Z" fill="#970025"/>
<path d="M261.31 257.99C261.25 259.13 261.16 260.61 261.04 262.26L262.37 261.53C261.75 259.37 261.31 257.99 261.31 257.99Z" fill="#970025"/>
<path d="M262.37 261.53L261.04 262.26C260.72 266.89 260.24 272.95 259.89 277.3C261.63 275.54 263.32 273.73 264.97 271.88C264.15 267.98 263.13 264.17 262.37 261.53Z" fill="#970025"/>
<path d="M233.25 176.2C221.63 172.3 186.04 157.97 186.04 157.97C186.96 155.85 187.6 153.32 188.05 150.86C155.99 134.4 112.05 115.23 112.05 115.23C112.05 115.23 105.95 132.98 108.67 158.42L98.68 151.83C96.76 170.01 100.58 180.98 100.58 180.98L133.72 204.73L108.5 310.68C124.04 316.49 140.86 319.67 158.43 319.67C197.01 319.67 232.01 304.35 257.69 279.48C256.19 275.21 254.56 270.98 252.74 266.8L261.05 262.25C261.16 260.6 261.26 259.12 261.32 257.98C261.32 257.98 261.76 259.36 262.38 261.52L279.86 251.94C284.16 244.99 287.88 237.65 290.95 229.98C275.08 205.54 256.36 190.42 233.26 176.2H233.25Z" fill="#E1032E"/>
<path d="M233.25 176.2C234.5 176.62 235.63 177.92 236.25 178.07C236.25 178.07 235.44 161.11 237.8 155.65C240.16 150.18 270.99 132.22 265.01 108.15C261.28 93.1002 252.84 81.2302 240.31 74.9302C227.74 68.6102 212.8 69.3802 200.41 76.0502C186.81 83.3802 166.64 97.7802 160.68 120.88C156.42 137.37 171.4 143.17 188.83 144.62C189.03 142.09 189.04 140.35 189.04 140.35L233.22 142.04C233.22 142.04 209.33 146.33 188.83 144.62C188.69 146.42 188.45 148.61 188.04 150.86C192.49 153.14 196.71 155.38 200.55 157.5C212.36 164.02 223.21 170.03 233.24 176.2H233.25Z" fill="#EB9780"/>
<path d="M233.23 142.04L189.05 140.35C189.05 140.35 189.05 142.1 188.84 144.62C209.34 146.33 233.23 142.04 233.23 142.04Z" fill="#EB9780"/>
<path d="M233.25 176.2C223.22 170.03 212.37 164.02 200.56 157.5C196.72 155.38 192.5 153.15 188.05 150.86C187.61 153.32 186.97 155.85 186.04 157.97C186.04 157.97 221.63 172.3 233.25 176.2Z" fill="#E1032E"/>
<path d="M188.93 144.63C188.93 144.63 199.44 145.13 210.47 143.46C210.47 143.46 201.08 150.68 188.07 150.73L188.93 144.62V144.63Z" fill="#DA806D"/>
<path d="M13.21 8.14C15.4578 8.14 17.28 6.3178 17.28 4.07C17.28 1.8222 15.4578 0 13.21 0C10.9622 0 9.14001 1.8222 9.14001 4.07C9.14001 6.3178 10.9622 8.14 13.21 8.14Z" fill="#EB9780"/>
<path d="M18.87 54.1901L12.87 40.5801L12.92 54.1701C12.92 54.1701 15.23 54.3701 18.87 54.1901Z" fill="#DA806D"/>
<path d="M206.01 73.9701C206.01 73.9701 207.94 81.5001 217.51 90.5201L201.13 105.05C201.13 105.05 220.8 97.6101 222.5 110.74C223.53 127.43 199.93 123.01 199.93 123.01L203.15 127.87C206.26 132.57 210.63 136.3 215.76 138.63L216.35 138.9L216.09 139.53C214.1 144.41 216.24 150 220.98 152.3L236.72 159.95L237.8 155.65C237.8 155.65 267.07 138.26 265.77 115.15C264.47 92.0401 244.21 60.0801 206.01 73.9801V73.9701Z" fill="#6E2F4C"/>
<path d="M210.74 127.7C218.119 127.7 224.1 121.718 224.1 114.34C224.1 106.961 218.119 100.98 210.74 100.98C203.361 100.98 197.38 106.961 197.38 114.34C197.38 121.718 203.361 127.7 210.74 127.7Z" fill="#EB9780"/>
<path d="M133.71 204.73L149.5 215.96L130.64 217.65L133.71 204.73Z" fill="#970025"/>
</g>
<defs>
<clipPath id="clip0_6238_14679">
<rect width="301.12" height="319.68" fill="white"/>
</clipPath>
</defs>
</svg>
