<svg width="343" height="241" viewBox="0 0 343 241" fill="none" xmlns="http://www.w3.org/2000/svg">
<mask id="mask0_4402_6733" style="mask-type:alpha" maskUnits="userSpaceOnUse" x="0" y="0" width="343" height="241">
<rect y="0.00268555" width="343" height="240" fill="#D9D9D9"/>
</mask>
<g mask="url(#mask0_4402_6733)">
<path d="M211.769 82.0461L202.028 104.776L228.787 88.8039L211.769 82.0461Z" fill="#00973A"/>
<path d="M142.874 239.445C147.729 236.709 153.485 233.421 156.359 232.42C160.407 231.03 163.459 225.956 163.459 225.956C163.459 225.956 167.376 223.18 170.882 220.724C165.603 215.83 159.476 209.579 156.552 206.378C151.088 208.796 144.91 210.636 141.931 213.061C137.231 216.921 120.738 230.911 117.72 233.922C115.63 236.004 112.271 237.149 108.353 239.427L142.874 239.445Z" fill="#A15B33"/>
<path d="M290.605 239.445H312.132C310.205 232.037 307.957 225.397 303.287 220.918C297.297 223.198 292.57 224.96 286.657 225.445C286.942 229.016 287.817 234.87 289.182 237.041C289.764 237.952 289.958 238.176 290.605 239.445Z" fill="#864B2D"/>
<path d="M254.974 104.666C252.717 103.298 247.189 103.579 245.607 103.384C245.458 103.488 245.227 103.479 244.842 103.235C236.998 101.426 216.765 98.6491 209.181 102.564C206.969 103.791 202.179 106.515 201.491 107C200.545 107.901 198.894 109.098 195.854 110.484C189.673 113.27 189.609 113.765 189.791 115.042C190.905 122.877 202.026 125.696 208.401 126.756C221.878 128.66 236.717 125.732 248.299 118.659C248.299 118.712 248.318 118.749 248.322 118.795C252.613 117.666 256.437 116.098 257.606 114.1C259.601 110.662 257.589 106.145 254.974 104.666Z" fill="#D5B76C"/>
<path d="M216.557 96.2565C221.201 95.4049 227.998 95.9758 229.784 96.1072C232.004 96.3838 243.028 99.2661 244.619 99.5553C243.763 95.287 242.644 88.9422 242.327 88.1949C241.883 87.0888 239.087 82.8299 235.131 80.8815C231.167 78.9195 212.819 80.0197 210.467 81.0528C208.116 82.0868 206.008 87.0074 204.803 90.1433C204.019 92.191 203.326 98.0327 202.937 101.852C202.937 101.839 202.937 101.839 202.95 101.821C204.938 99.9234 211.922 97.1132 216.557 96.2565Z" fill="#D5B76C"/>
<path d="M209.176 102.555C216.733 98.6501 237.025 101.418 244.837 103.221C245.222 103.476 245.454 103.488 245.602 103.371C245.992 103.063 245.629 101.649 245.539 101.114C245.413 100.371 245.249 99.8148 244.619 99.5467C243.069 99.266 231.972 96.3701 229.783 96.0987C227.999 95.9672 221.201 95.3963 216.557 96.253C211.921 97.1047 204.939 99.914 202.949 101.813C202.934 101.831 202.934 101.831 202.934 101.85C200.968 103.73 201.421 104.613 201.226 105.425C201.059 106.204 200.887 107.31 201.466 106.984C201.466 106.984 201.493 107.002 201.519 106.984C202.179 106.506 206.964 103.788 209.176 102.555Z" fill="#D5B76C"/>
<path d="M247.923 113.15C249.64 112.279 247.931 111.659 247.347 111.165C246.541 110.48 246.404 110.843 245.947 109.978C245.344 108.854 242.948 106.661 241.583 106.121C241.469 106.071 241.379 106.071 241.275 106.035C241.244 106.017 241.185 105.972 241.172 105.963C240.818 105.776 240.206 105.46 239.545 105.582C239.545 105.582 237.56 105.568 236.794 105.945L236.808 105.949C237.261 106.067 237.664 106.307 238.032 106.593C238.027 106.797 238 107.009 238.004 107.264C238.082 107.69 238.557 107.953 238.938 108.238C239.169 108.401 239.356 108.645 239.418 108.886C239.269 108.868 239.115 108.849 238.92 108.818C239.033 108.981 239.119 109.222 239.187 109.479C239.069 109.569 238.932 109.638 238.86 109.755C238.56 110.19 239.267 110.765 238.982 111.196C238.887 111.327 238.716 111.419 238.602 111.532C238.167 111.989 238.656 112.57 239.214 112.964C239.228 113.132 239.232 113.286 239.237 113.417C239.123 113.468 238.997 113.512 238.91 113.567C238.892 113.576 238.906 113.604 238.887 113.621C238.779 113.521 238.68 113.417 238.68 113.417C238.68 113.417 238.73 113.567 238.806 113.798C238.779 113.947 238.814 114.11 238.919 114.246C238.928 114.26 238.946 114.273 238.96 114.292C239.078 114.663 239.214 115.112 239.328 115.529C239.138 115.923 238.843 116.317 238.979 116.712C239.115 117.106 239.088 117.469 239.55 117.586C239.364 118.003 239.654 118.973 239.949 119.339C240.031 118.981 240.709 120.046 240.86 120.382C241.005 120.722 241.38 119.657 241.789 119.757C242.097 119.834 242.419 119.612 242.542 119.354C242.664 119.095 242.664 118.813 242.736 118.538C242.912 117.804 243.593 117.21 244.381 116.889C245.169 116.562 246.057 116.458 246.927 116.417C247.367 116.399 247.856 116.363 248.147 116.081C248.437 115.8 248.662 114.476 248.242 114.549C249.036 114.776 248.82 113.277 247.923 113.15Z" fill="#281713"/>
<path d="M208.101 108.754C206.964 109.044 205.379 109.311 204.245 109.933C204.209 109.943 204.173 109.96 204.146 109.969C204.037 109.987 203.919 110.015 203.834 110.078C203.761 110.137 203.331 110.264 203.282 110.35C202.914 110.926 202.624 110.377 202.117 110.834C202.044 110.907 201.931 111.745 201.931 111.848C201.931 112.03 202.17 112.152 202.148 112.334C202.126 112.488 201.926 112.551 201.854 112.692C201.745 112.9 201.968 113.127 202.157 113.268C202.351 113.399 202.564 113.648 202.433 113.848C202.33 114.002 202.039 114.047 202.049 114.237C202.053 114.364 202.216 114.455 202.216 114.587C202.216 114.682 202.135 114.754 202.143 114.853C202.153 114.935 202.221 114.976 202.275 115.016C202.461 115.135 202.674 115.215 202.887 115.261C202.914 115.374 202.933 115.542 202.955 115.641C202.977 115.687 202.986 115.76 202.992 115.791C203.042 115.623 203.154 115.437 203.277 115.27C203.459 115.216 203.63 115.129 203.712 114.967C203.835 114.686 203.726 114.324 203.911 114.088C204.043 113.916 204.322 113.807 204.296 113.594C204.287 113.499 204.205 113.417 204.192 113.318C204.133 113.083 204.414 112.914 204.649 112.841C204.93 112.747 205.201 112.647 205.483 112.551C205.546 112.533 205.609 112.506 205.646 112.457C205.736 112.325 205.569 112.161 205.423 112.094C205.274 112.026 205.079 111.944 205.093 111.781C205.31 111.695 205.532 111.604 205.681 111.432C205.831 111.256 205.885 110.96 205.727 110.793C205.636 110.698 205.477 110.608 205.513 110.481C205.541 110.404 205.627 110.373 205.704 110.345C206.049 110.25 206.411 110.168 206.711 109.974C207.183 109.666 207.259 109.321 207.011 109.204L207.922 108.85L208.101 108.754Z" fill="#281713"/>
<path d="M209.415 143.268C209.681 143.753 209.962 144.242 210.269 144.739C210.291 144.767 210.315 144.8 210.335 144.824C211.355 146.007 214.033 148.852 214.518 149.188C214.518 149.197 214.545 149.21 214.545 149.224C214.547 149.234 214.546 149.241 214.548 149.251C214.624 149.338 217.278 152.289 224.29 149.242C231.409 146.149 241.819 133.323 241.819 133.323C241.964 132.943 242.063 132.634 242.063 132.449C242.852 133.536 244.143 133.581 244.596 131.796C244.65 131.61 244.71 131.424 244.787 131.238C245.19 131.044 252.086 115.157 245.529 116.285C245.529 116.285 245.529 116.195 245.552 116.063L245.312 115.841L245.103 116.257C245.103 116.257 244.152 116.534 243.952 116.769C243.827 116.955 243.241 116.751 242.992 116.656C243.01 116.691 243.055 116.691 243.068 116.728C242.525 116.919 242.597 117.086 242.597 117.086C242.543 117.054 242.503 117.054 242.448 117.041C242.068 117.457 241.573 118.115 241.732 118.69C241.341 118.418 240.93 117.883 240.93 117.883C240.93 117.883 241.056 119.387 241.147 119.764C240.305 119.161 239.893 118.309 239.707 117.548C239.653 117.566 239.603 117.575 239.539 117.594C239.476 117.39 239.417 117.195 239.312 117C239.407 116.982 239.502 116.955 239.593 116.928C239.593 116.86 239.566 116.796 239.566 116.737C239.525 115.926 238.669 113.425 238.669 113.425C238.669 113.425 239.262 114.023 239.221 113.819C239.221 113.593 239.316 112.383 238.742 111.418C239.131 111.577 239.407 111.5 239.407 111.5C239.407 111.5 239.407 109.515 238.913 108.826C239.434 108.917 239.855 108.921 239.855 108.921C239.855 108.921 238.692 106.462 236.801 105.959C233.688 106.357 229.555 107.118 227.684 107.322C221.53 107.848 214.413 106.801 207.91 108.826L204.678 110.072C204.678 110.072 205.961 109.655 206.36 109.755C204.193 110.983 203.432 112.261 203.432 112.261C203.432 112.261 204.406 112.142 204.864 112.157C203.259 113.488 203.296 114.739 203.296 114.739L203.672 114.762C203.672 114.762 203.114 115.355 202.983 115.8C202.979 115.768 202.968 115.691 202.946 115.655C203.064 116.452 203.196 117.308 203.322 118.143C203.436 121.356 204.264 124.169 204.831 126.929C205.84 132.903 206.433 137.439 208.948 142.393C208.957 142.385 208.964 142.378 208.972 142.371C209.127 142.69 209.274 142.99 209.415 143.268Z" fill="#864B2D"/>
<path d="M214.544 149.224C214.544 149.21 214.517 149.197 214.517 149.188C214.033 148.852 211.354 146.007 210.335 144.824C210.314 144.801 210.291 144.768 210.269 144.739C210.29 144.774 210.308 144.807 210.33 144.842C211.349 146.029 214.023 148.87 214.512 149.206C214.512 149.215 214.539 149.233 214.539 149.242C214.539 149.242 214.545 149.249 214.547 149.251C214.545 149.24 214.546 149.233 214.544 149.224Z" fill="#864B2D"/>
<path d="M208.976 142.372C208.967 142.381 208.96 142.387 208.952 142.394C209.099 142.684 209.254 142.976 209.415 143.268C209.274 142.99 209.128 142.69 208.976 142.372Z" fill="#864B2D"/>
<path d="M249.06 142.947L249.056 142.948C249.06 142.955 251.622 147.379 251.12 148.629C251.12 148.627 251.121 148.626 251.121 148.625C251.642 147.412 249.06 142.947 249.06 142.947Z" fill="#CE73A7"/>
<path d="M243.437 142.428C243.483 142.604 243.519 142.77 243.567 142.947C244.265 143.107 245.064 143.166 245.832 143.173C245.065 143.165 244.268 143.107 243.572 142.947C243.523 142.771 243.483 142.602 243.437 142.428Z" fill="#CE73A7"/>
<path d="M242.528 138.42C242.506 138.297 242.48 138.174 242.459 138.049C242.48 138.172 242.505 138.298 242.528 138.42Z" fill="#CE73A7"/>
<path d="M243.054 140.914C242.993 140.657 242.935 140.402 242.879 140.147C242.934 140.399 242.993 140.658 243.054 140.914Z" fill="#CE73A7"/>
<path d="M250.713 149.67C250.232 151.023 249.771 153.007 250.434 154.992C250.436 154.988 250.44 154.982 250.442 154.978C249.774 153.001 250.233 151.025 250.713 149.67Z" fill="#CE73A7"/>
<path d="M212.13 153.936C212.141 153.941 212.153 153.949 212.164 153.954C213.25 153.936 214.079 153.213 214.438 151.961C214.071 153.215 213.227 153.936 212.13 153.936Z" fill="#CE73A7"/>
<path d="M224.29 149.242C217.277 152.289 214.624 149.337 214.547 149.251C214.704 150.313 214.652 151.228 214.437 151.961C214.078 153.213 213.25 153.936 212.163 153.954C218.365 156.936 232.574 174.219 232.574 174.219C232.574 174.219 248.182 159.99 250.434 154.993C249.771 153.007 250.232 151.023 250.713 149.671C250.857 149.263 251.003 148.907 251.12 148.63C251.622 147.379 249.059 142.956 249.055 142.949C249.025 142.954 247.502 143.188 245.831 143.174C245.063 143.167 244.264 143.108 243.566 142.948C243.517 142.771 243.481 142.605 243.436 142.429C243.298 141.917 243.17 141.411 243.052 140.915C242.992 140.659 242.933 140.401 242.878 140.148C242.75 139.572 242.633 138.998 242.527 138.422C242.505 138.299 242.479 138.174 242.458 138.051C242.368 137.537 242.284 137.02 242.207 136.492C242.21 136.492 242.213 136.492 242.215 136.492C242.063 135.463 241.928 134.421 241.818 133.324C241.819 133.323 231.408 146.15 224.29 149.242Z" fill="#7C4628"/>
<path d="M243.437 142.428C243.301 141.917 243.172 141.411 243.054 140.914C243.171 141.411 243.3 141.917 243.437 142.428Z" fill="#CE73A7"/>
<path d="M214.437 151.961C214.651 151.228 214.703 150.313 214.547 149.251C214.545 149.249 214.539 149.242 214.539 149.242C214.699 150.308 214.648 151.224 214.437 151.961Z" fill="#CE73A7"/>
<path d="M242.879 140.148C242.752 139.569 242.634 138.995 242.528 138.421C242.634 138.996 242.751 139.572 242.879 140.148Z" fill="#CE73A7"/>
<path d="M245.832 143.173C247.503 143.188 249.026 142.953 249.056 142.948L249.055 142.947C249.055 142.947 247.517 143.187 245.832 143.173Z" fill="#CE73A7"/>
<path d="M251.121 148.63C251.003 148.906 250.857 149.262 250.714 149.67C250.856 149.269 251.001 148.916 251.118 148.645C251.119 148.639 251.119 148.633 251.121 148.63Z" fill="#CE73A7"/>
<path d="M232.569 174.242C232.569 174.242 248.208 159.982 250.436 155.002C250.434 154.998 250.434 154.996 250.434 154.992C248.182 159.989 232.573 174.218 232.573 174.218C232.573 174.218 218.364 156.936 212.162 153.953C212.149 153.953 212.138 153.958 212.124 153.958C218.305 156.886 232.569 174.242 232.569 174.242Z" fill="#CE73A7"/>
<path d="M242.208 136.491C242.284 137.019 242.367 137.536 242.458 138.05C242.367 137.534 242.292 137.012 242.216 136.491C242.213 136.491 242.211 136.491 242.208 136.491Z" fill="#CE73A7"/>
<path d="M145.388 207.632C149.847 211.126 165.058 223.333 171.04 225.254C174.828 225.599 180.501 215.467 181.18 212.712C182.241 209.001 184.72 207.913 187.601 206.889C187.904 210.351 189.042 228.209 188.403 233.325C188.161 235.259 188.326 236.929 188.893 239.445H279.846C279.754 239.034 279.846 239.445 279.846 239.445C279.846 239.445 280.685 232.981 279.139 228.681C280.865 225.246 279.651 219.228 280.344 214.425C280.344 214.425 285.664 225.07 286.353 225.413C286.39 225.436 286.562 225.418 286.653 225.431C292.616 224.928 297.247 223.197 303.283 220.904C307.107 219.522 311.48 217.873 311.779 217.171C312.3 215.979 310.754 210.478 309.549 208.761C303.527 197.751 295.629 172.846 290.477 161.331C289.448 159.278 287.042 157.385 280.177 153.261C273.299 149.138 257.317 146.383 257.317 146.383C257.317 146.383 255.59 142.776 254.566 141.914C251.603 139.821 248.977 136.9 244.765 136.461C243.972 136.379 243.132 136.373 242.216 136.49C242.292 137.01 242.367 137.532 242.458 138.049C242.479 138.173 242.506 138.296 242.528 138.42C242.633 138.994 242.752 139.569 242.878 140.146C242.934 140.401 242.993 140.657 243.053 140.913C243.171 141.41 243.3 141.917 243.436 142.427C243.483 142.601 243.524 142.77 243.572 142.946C244.267 143.106 245.065 143.164 245.832 143.172C247.517 143.186 249.055 142.946 249.055 142.946L249.056 142.947L249.06 142.946C249.06 142.946 251.642 147.411 251.121 148.624C251.121 148.625 251.12 148.626 251.12 148.628C251.119 148.632 251.119 148.638 251.117 148.643C250.999 148.915 250.855 149.267 250.712 149.669C250.233 151.024 249.773 153 250.442 154.978C250.439 154.982 250.436 154.988 250.434 154.992C250.435 154.995 250.435 154.998 250.437 155.001C248.207 159.981 232.57 174.242 232.57 174.242C232.57 174.242 218.306 156.886 212.125 153.959C212.138 153.959 212.149 153.954 212.163 153.954C212.152 153.949 212.14 153.941 212.129 153.936C213.226 153.936 214.07 153.214 214.437 151.961C214.648 151.223 214.7 150.307 214.54 149.242C214.54 149.233 214.512 149.215 214.512 149.205C214.023 148.87 211.349 146.03 210.33 144.841C210.309 144.807 210.29 144.773 210.269 144.739C210.047 144.455 209.751 143.931 209.415 143.268C209.254 142.975 209.098 142.684 208.951 142.394C206.234 144.812 205.251 147.23 205.251 147.23C205.251 147.23 202.491 148.267 201.63 148.44C200.778 148.616 190.637 153.764 190.637 153.764C187.497 154.597 181.733 155.314 178.779 159.355C177.456 159.895 176.364 160.329 175.68 161.149C174.32 162.867 167.614 171.984 166.576 174.39C165.558 176.777 157.985 187.622 157.305 189.162C154.509 193.53 148.51 199.064 145.791 202.729C145.619 203.241 143.04 204.967 143.39 205.838C143.453 205.983 144.201 206.663 145.388 207.632Z" fill="#AC95B6"/>
<path d="M67.2638 0.00268555C67.2638 0.00268555 65.4494 0.187602 65.2781 1.96634C65.1067 3.74508 65.8761 5.07596 65.8761 5.07596C65.8761 5.07596 66.1594 9.59278 66.2688 10.3223C66.3782 11.0517 65.977 13.3462 65.977 13.3462L65.9015 14.9553C65.9015 14.9553 65.4257 13.4726 64.0439 14.7755C62.6613 16.0792 60.4406 16.7637 60.4406 16.7637L58.6398 18.6807C58.6398 18.6807 58.4659 20.4841 57.5397 20.7742C56.6143 21.0643 55.4233 22.2399 55.017 22.7225C54.6116 23.2052 54.5836 25.3571 54.7108 25.9085C54.8364 26.459 57.2954 32.6222 57.6754 34.2754C58.0545 35.9278 57.5269 37.6726 57.3895 39.0968C57.253 40.5201 56.1766 47.9583 55.8958 49.0092C55.615 50.0602 55.308 51.3843 55.308 51.3843C55.308 51.3843 67.598 54.2878 68.5234 54.0078C69.448 53.7271 70.5693 43.9589 70.9018 42.3744C71.2344 40.7907 72.6721 35.1822 72.7578 34.2933C72.8435 33.4035 74.1591 29.0673 74.2651 26.1011C74.3711 23.1356 71.5474 20.7597 71.6271 19.9336C71.7068 19.1074 70.5922 15.7679 70.5922 15.7679C70.5922 15.7679 70.1885 12.4971 70.2402 11.9627C70.292 11.4292 69.8136 7.07354 69.7389 5.98866C69.6643 4.90292 68.939 1.24195 67.2638 0.00268555Z" fill="#FAD1B1"/>
<path d="M79.282 176.451C79.2643 176.58 79.2483 176.706 79.2314 176.831C79.2483 176.706 79.2643 176.581 79.282 176.451Z" fill="#CE73A7"/>
<path d="M73.8737 193.906C73.3749 195.321 72.8694 196.763 72.374 198.207C72.8694 196.764 73.3749 195.321 73.8737 193.906Z" fill="#CE73A7"/>
<path d="M67.4641 216.327C67.3988 216.917 67.3225 217.518 67.2334 218.13C67.3225 217.518 67.3988 216.917 67.4641 216.327Z" fill="#CE73A7"/>
<path d="M79.2049 177.029C79.1805 177.214 79.1553 177.393 79.1309 177.565C79.1553 177.393 79.1797 177.214 79.2049 177.029Z" fill="#CE73A7"/>
<path d="M79.3616 175.824C79.3456 175.949 79.3304 176.072 79.3145 176.195C79.3304 176.072 79.3464 175.949 79.3616 175.824Z" fill="#CE73A7"/>
<path d="M75.8053 188.441C75.5008 189.31 75.1835 190.205 74.8604 191.118C75.1835 190.205 75.5008 189.311 75.8053 188.441Z" fill="#CE73A7"/>
<path d="M87.1353 137.181C87.601 138.955 90.1219 146.786 98.8002 148.735C106.028 150.358 112.761 147.198 115.804 145.424C116.026 144.281 116.307 143.466 116.762 142.786C117.293 143.051 117.782 143.325 118.235 143.603C119.151 142.885 120.408 142.364 121.199 141.462L121.194 141.461C121.205 141.453 121.214 141.455 121.224 141.448C121.847 140.961 122.198 140.265 122.494 139.525C122.976 138.686 123.414 137.795 123.825 136.881C124.239 136.553 124.649 136.652 125.307 135.881C126.501 134.484 129.467 129.219 130.027 127.465C130.19 126.902 130.334 126.246 130.088 125.687C129.836 125.136 129.028 124.793 128.586 125.23C130.208 121.391 130.328 119.463 131.004 115.347C131.248 113.889 131.382 112.38 131.08 110.926C130.711 109.124 129.701 107.534 128.688 106.006C127.891 104.801 127.068 103.605 125.98 102.664C124.686 101.555 123.077 100.896 121.484 100.3C116.603 98.4812 111.411 97.1597 106.232 97.6941C101.057 98.2404 95.889 100.924 93.436 105.517C92.3638 107.513 91.8481 109.771 91.5648 112.026C91.4358 113.059 91.3434 114.113 90.9388 115.071C90.5291 116.028 90.3569 113.804 89.3339 113.963C88.9768 114.015 88.5883 113.989 88.2618 114.158C87.8487 114.369 87.6425 114.854 87.5034 115.303C86.835 117.359 86.3295 121.321 86.3787 124.435C86.0708 125.551 85.8384 126.679 85.8511 127.537C86.2642 128.024 86.7952 128.347 87.1311 128.512C87.1412 128.532 87.1489 128.563 87.1557 128.573L87.4517 128.731C87.411 128.95 86.9818 133.6 87.0267 136.222C87.0344 136.221 87.0429 136.219 87.0496 136.217C87.0768 136.557 87.1039 136.87 87.1353 137.181Z" fill="#FAD1B1"/>
<path d="M115.804 145.424C116.888 144.791 117.509 144.333 117.509 144.333C117.702 144.06 117.953 143.823 118.235 143.603C117.782 143.325 117.293 143.052 116.762 142.786C116.307 143.467 116.026 144.282 115.804 145.424Z" fill="#FAD1B1"/>
<path d="M87.1343 137.181C87.1031 136.87 87.0762 136.557 87.0501 136.216C87.0425 136.218 87.0341 136.22 87.0273 136.222C87.0316 136.433 87.0374 136.635 87.0467 136.817C87.0475 136.818 87.0745 136.951 87.1343 137.181Z" fill="#FAD1B1"/>
<path d="M81.227 158.249C81.2244 158.35 81.2176 158.463 81.2168 158.555C81.5366 158.719 82.9608 159.436 85.0762 160.328C88.0798 161.349 91.4185 162.481 94.4865 163.517C96.2559 163.96 98.0932 164.324 99.933 164.541C103.386 164.949 106.84 164.843 109.828 163.789L109.847 163.791C109.847 163.791 109.853 163.782 109.854 163.781C109.845 163.785 109.824 163.787 109.824 163.787C110.672 162.155 111.402 160.343 111.819 159.13C111.824 159.089 111.852 159.025 111.878 158.973C111.925 158.774 111.977 158.63 112.036 158.478C112.075 158.332 112.116 158.146 112.148 158.055C112.455 157.687 112.731 157.3 112.986 156.929C113.036 156.832 113.115 156.729 113.182 156.638C113.389 156.282 113.545 155.924 113.715 155.569C115.225 152.443 115.261 149.025 115.601 146.651C115.665 146.203 115.731 145.796 115.804 145.423C112.762 147.198 106.028 150.357 98.8006 148.734C90.1232 146.785 87.6014 138.955 87.1357 137.18C87.1408 137.233 87.1451 137.294 87.151 137.347C86.2417 139.307 81.5968 155.342 81.227 158.249Z" fill="#F0CAAC"/>
<path d="M104.261 239.445C103.998 233.671 104.149 228.21 105.889 222.254C109.649 209.348 104.309 188.106 105.337 183.443C106.187 179.749 107.928 171.42 109.119 166.618C109.421 165.397 109.689 164.401 109.897 163.771C109.896 163.771 109.896 163.771 109.896 163.771C109.892 163.77 109.892 163.773 109.889 163.773C109.87 163.772 109.864 163.776 109.854 163.781C109.853 163.783 109.848 163.792 109.848 163.792L109.829 163.79C106.841 164.844 103.387 164.95 99.9334 164.542C98.0936 164.325 96.2563 163.96 94.4869 163.518C91.4189 162.482 88.0802 161.35 85.0766 160.329C82.9611 159.437 81.537 158.721 81.2172 158.556C81.218 158.464 81.2248 158.351 81.2274 158.25C81.2121 158.37 81.2019 158.476 81.2019 158.549C81.1994 158.547 81.1943 158.545 81.1917 158.542C81.1646 158.523 81.1281 158.502 81.1154 158.494C81.1129 158.494 81.1052 158.489 81.1052 158.489C81.1052 158.489 81.1018 158.522 81.0976 158.573C81.0908 158.651 81.0798 158.78 81.0637 158.964C81.0628 158.975 81.062 158.982 81.0611 158.992C81.0484 159.135 81.034 159.308 81.0162 159.505C81.0085 159.59 80.9983 159.699 80.9907 159.793C80.9788 159.925 80.9687 160.051 80.9542 160.201C80.9093 160.713 80.855 161.319 80.7922 162.003C80.7854 162.077 80.7787 162.149 80.7727 162.225C80.7634 162.328 80.754 162.435 80.7439 162.542C80.7354 162.63 80.7269 162.72 80.7193 162.811C80.7082 162.93 80.6972 163.051 80.6853 163.174C80.676 163.275 80.6675 163.376 80.6574 163.479C80.6506 163.556 80.6429 163.634 80.6361 163.711C80.6226 163.856 80.609 164.005 80.5946 164.153C80.5853 164.251 80.5768 164.348 80.5674 164.448C80.5573 164.554 80.5471 164.663 80.5369 164.771C80.525 164.891 80.514 165.01 80.503 165.131C80.436 165.832 80.3656 166.559 80.2926 167.302C80.2884 167.343 80.2841 167.383 80.2799 167.424C80.2595 167.634 80.2383 167.845 80.2171 168.057C80.212 168.114 80.2061 168.172 80.2002 168.23C80.1806 168.421 80.1611 168.612 80.1425 168.806C80.134 168.882 80.1264 168.958 80.1196 169.035C80.1018 169.21 80.084 169.387 80.0661 169.562C80.0568 169.646 80.0483 169.73 80.0398 169.814C80.022 169.987 80.0042 170.16 79.9864 170.332C79.9779 170.416 79.9686 170.499 79.961 170.583C79.9414 170.769 79.9219 170.954 79.9024 171.139C79.8956 171.2 79.8889 171.263 79.8829 171.324C79.8575 171.567 79.8303 171.81 79.8049 172.05L79.8023 172.072C79.7752 172.323 79.7481 172.572 79.7201 172.818C79.7133 172.871 79.7073 172.925 79.7022 172.977C79.6819 173.163 79.6607 173.348 79.6403 173.53C79.631 173.611 79.6217 173.69 79.6123 173.77C79.5945 173.929 79.5759 174.086 79.5589 174.242C79.5496 174.317 79.5411 174.392 79.5318 174.467C79.5139 174.622 79.4953 174.775 79.4775 174.926C79.4681 175.004 79.4597 175.082 79.4503 175.158C79.4325 175.3 79.4155 175.439 79.3977 175.577C79.3876 175.66 79.3774 175.742 79.3672 175.825C79.3511 175.949 79.3358 176.073 79.3197 176.195C79.3087 176.282 79.2976 176.368 79.2866 176.452C79.2688 176.582 79.2527 176.708 79.2357 176.832C79.2264 176.899 79.2179 176.966 79.2094 177.03C79.1848 177.215 79.1594 177.394 79.1348 177.566C79.1339 177.572 79.1331 177.578 79.1322 177.583C79.1051 177.772 79.0695 177.977 79.0262 178.196C78.938 178.636 78.8184 179.134 78.6699 179.688C78.5215 180.241 78.3451 180.847 78.1449 181.501C77.5435 183.46 76.7267 185.836 75.8097 188.444C75.5052 189.312 75.188 190.207 74.8648 191.121C74.5408 192.034 74.2108 192.966 73.8783 193.909C73.3795 195.324 72.874 196.766 72.3786 198.209C71.7178 200.136 71.0715 202.066 70.476 203.946C70.0299 205.356 69.6108 206.737 69.2351 208.066C68.8593 209.395 68.526 210.672 68.2494 211.874C67.8805 213.476 67.6141 214.943 67.4826 216.221C67.4792 216.256 67.4733 216.293 67.4691 216.329C67.4038 216.919 67.3274 217.519 67.2383 218.132C66.2349 225.057 64.0558 232.356 62.2363 239.43L104.261 239.445Z" fill="#D4C9DA"/>
<path d="M115.6 146.652C115.26 149.026 115.225 152.444 113.714 155.57C113.544 155.925 113.388 156.283 113.181 156.638C113.114 156.729 113.035 156.833 112.985 156.93C112.73 157.302 112.454 157.689 112.147 158.056C112.115 158.147 112.074 158.333 112.035 158.479C111.977 158.631 111.924 158.775 111.877 158.974C111.851 159.025 111.823 159.09 111.818 159.131C111.402 160.344 110.671 162.156 109.823 163.788C109.823 163.788 109.844 163.786 109.853 163.781C109.917 163.668 112.274 159.545 113.606 157.072C113.623 157.068 113.642 157.064 113.658 157.059C113.986 156.492 114.253 155.917 114.478 155.342L114.479 155.341C116.013 151.423 115.538 147.38 117.507 144.333C117.507 144.333 116.887 144.791 115.802 145.424C115.73 145.797 115.664 146.204 115.6 146.652Z" fill="#CE73A7"/>
<path d="M83.9604 144.516C83.9604 144.516 82.9341 147.072 82.504 149.521C82.4845 149.631 82.4887 149.759 82.504 149.894C81.7491 153.348 81.2808 156.447 81.2266 158.249C81.5972 155.342 86.2413 139.307 87.1498 137.348C87.1438 137.295 87.1396 137.234 87.1345 137.181C87.0743 136.951 87.0463 136.817 87.0463 136.817C86.0606 138.655 84.9656 141.486 83.9604 144.515V144.516Z" fill="#CE73A7"/>
<path d="M41.2873 169.84C43.6581 175.103 42.6462 180.967 42.5385 186.603C42.5359 186.719 43.3053 180.611 43.3036 180.727C41.9176 198.233 33.0264 227.791 31 239.445L62.231 239.428C63.8791 233.017 65.7783 226.579 66.9132 220.101C66.9141 220.101 66.9158 220.102 66.9175 220.102C67.0345 219.435 67.1406 218.777 67.2339 218.13C67.3229 217.518 67.3993 216.917 67.4646 216.327C67.4688 216.291 67.4748 216.255 67.4782 216.219C67.6096 214.942 67.8768 213.474 68.245 211.872C68.5215 210.67 68.8548 209.393 69.2306 208.064C69.6064 206.735 70.0254 205.354 70.4716 203.944C71.067 202.065 71.7134 200.134 72.3741 198.208C72.8695 196.764 73.3751 195.322 73.8738 193.907C74.2072 192.964 74.5363 192.032 74.8603 191.119C75.1835 190.206 75.5007 189.311 75.8052 188.442C76.7222 185.836 77.539 183.458 78.1404 181.499C78.3406 180.845 78.517 180.24 78.6655 179.687C78.8139 179.134 78.9335 178.634 79.0217 178.195C79.065 177.975 79.1006 177.771 79.1278 177.581C79.1286 177.576 79.1295 177.57 79.1303 177.564C79.1549 177.392 79.1804 177.213 79.2049 177.028C79.2134 176.964 79.2228 176.897 79.2312 176.831C79.2482 176.706 79.2643 176.58 79.2821 176.451C79.2932 176.366 79.3042 176.279 79.3152 176.194C79.3313 176.071 79.3466 175.949 79.3627 175.823C79.3729 175.741 79.3831 175.658 79.3933 175.575C79.4111 175.437 79.428 175.298 79.4458 175.156C79.4552 175.079 79.4637 175.002 79.473 174.925C79.4908 174.773 79.5095 174.62 79.5273 174.465C79.5366 174.39 79.5451 174.316 79.5544 174.24C79.5722 174.084 79.59 173.927 79.6079 173.769C79.6172 173.688 79.6265 173.609 79.6358 173.529C79.6562 173.345 79.6774 173.16 79.6978 172.976C79.7037 172.923 79.7096 172.869 79.7156 172.816C79.7427 172.57 79.7699 172.322 79.7979 172.07L79.8004 172.048C79.8259 171.808 79.853 171.566 79.8784 171.322C79.8852 171.261 79.892 171.198 79.898 171.137C79.9175 170.952 79.937 170.767 79.9565 170.581C79.965 170.498 79.9743 170.415 79.9819 170.331C79.9997 170.159 80.0184 169.985 80.0354 169.812C80.0447 169.728 80.0532 169.645 80.0617 169.561C80.0795 169.385 80.0973 169.209 80.1151 169.033C80.1227 168.957 80.1304 168.88 80.138 168.804C80.1567 168.611 80.1762 168.42 80.1957 168.228C80.2016 168.17 80.2076 168.113 80.2126 168.056C80.2338 167.844 80.2551 167.633 80.2754 167.422C80.2797 167.381 80.2839 167.342 80.2881 167.301C80.3611 166.558 80.4315 165.831 80.4985 165.129C80.5095 165.008 80.5206 164.889 80.5324 164.77C80.5426 164.661 80.5528 164.553 80.563 164.447C80.5723 164.347 80.5808 164.25 80.5901 164.151C80.6045 164.003 80.6181 163.854 80.6317 163.709C80.6393 163.631 80.6469 163.553 80.6529 163.477C80.6631 163.374 80.6715 163.273 80.6809 163.173C80.6927 163.05 80.7038 162.928 80.7148 162.809C80.7233 162.719 80.7318 162.629 80.7394 162.541C80.7496 162.434 80.7589 162.326 80.7682 162.223C80.775 162.147 80.7818 162.075 80.7877 162.001C80.9116 160.645 81.0066 159.576 81.0566 158.991C81.0575 158.98 81.0583 158.973 81.0592 158.963C81.0855 158.662 81.1007 158.487 81.1007 158.487C81.1007 158.487 81.1084 158.492 81.1109 158.493C81.1236 158.5 81.1601 158.521 81.1873 158.54C81.1898 158.543 81.1949 158.545 81.1974 158.547C81.1974 158.474 81.2085 158.368 81.2229 158.249C81.2763 156.446 81.7454 153.348 82.5003 149.893C82.4851 149.758 82.4808 149.63 82.5003 149.52C82.9304 147.071 83.9567 144.515 83.9567 144.515H83.9584C84.9636 141.486 86.0587 138.655 87.0443 136.817C87.0341 136.635 87.0282 136.433 87.0248 136.222C82.4655 137.006 74.2199 142.187 74.2199 142.187C74.2199 142.187 69.0627 101.669 69.4791 99.6697C73.884 78.5437 68.5673 74.6741 71.5853 50.4673C67.7114 50.0152 63.8605 49.3705 60.0553 48.5384C56.6751 47.7987 53.2856 47.3788 53.2856 47.3788C50.8079 53.6541 49.779 63.7582 49.2022 70.399C48.7034 76.1339 48.8332 81.9714 47.3106 87.5383C46.3954 90.8821 44.8974 94.0714 44.0543 97.4321C43.4537 99.8207 43.1908 102.273 42.9295 104.718C41.6495 116.682 39.2677 136.014 37.9877 147.978C37.6018 151.587 38.7494 157.65 39.4467 162.333C39.7868 164.602 40.3399 167.739 41.2873 169.84Z" fill="#CE73A7"/>
<path d="M153.76 239.445C153.76 239.445 153.397 227.161 153.557 226.039C153.718 224.918 151.571 217.117 150.088 212.694C148.609 208.258 150.504 196.449 151.974 194.173C153.456 191.881 151.275 185.623 150.733 182.863C150.137 180.077 148.758 171.068 144.601 165.099C140.473 159.139 123.217 153.785 123.217 153.785C123.217 153.785 124.848 151.73 120.71 145.746C120.202 145.007 119.343 144.285 118.235 143.603C117.954 143.824 117.702 144.06 117.509 144.333C115.54 147.38 116.014 151.422 114.481 155.341L114.48 155.342C114.254 155.918 113.987 156.492 113.66 157.059C113.643 157.064 113.624 157.068 113.607 157.072C112.276 159.546 109.919 163.668 109.855 163.782C109.86 163.776 109.872 163.772 109.889 163.773C109.893 163.773 109.892 163.771 109.896 163.771C109.896 163.771 109.896 163.771 109.897 163.771C109.689 164.401 109.421 165.397 109.119 166.618C107.928 171.42 106.188 179.75 105.338 183.443C104.309 188.106 106.205 211.003 102.445 223.91C100.87 229.3 100.586 234.125 100.748 239.443L153.76 239.445Z" fill="#CE73A7"/>
<path d="M99.7182 88.4942C99.412 88.9726 99.2109 89.5189 98.8114 89.9362C97.4356 91.3833 94.4803 90.5486 93.4905 92.279C93.1647 92.8499 93.163 93.5531 92.839 94.1205C91.833 95.8797 88.5631 95.1833 87.7462 97.0367C87.5435 97.5092 87.5554 98.0572 87.3713 98.5466C86.9192 99.7112 85.5035 100.114 84.3856 100.688C82.1301 101.849 80.6449 104.346 80.7025 106.875C80.7526 109.217 81.9935 111.614 81.1691 113.805C80.9392 114.432 80.5448 114.976 80.3556 115.621C80.169 116.258 80.2487 117.043 80.7899 117.427C81.1648 117.694 81.6627 117.704 82.0716 117.918C83.0657 118.441 83.0089 119.859 82.9308 120.986C82.7841 123.181 83.0929 125.414 83.841 127.487C84.6383 128.216 86.0218 127.677 86.585 126.762C87.1465 125.832 88.3926 124.647 88.5512 123.584C89.2688 118.656 91.8551 114.527 92.0069 109.558C94.8417 112.241 99.0464 113.412 102.858 112.559C106.673 111.715 109.999 108.906 111.449 105.272C114.39 107.394 114.294 111.774 116.086 114.938C117.595 117.607 120.38 119.267 123.128 120.623C124.388 121.244 125.817 122.01 126.118 123.381C126.243 123.939 126.151 124.526 126.273 125.083C126.575 126.445 128.058 127.291 128.421 128.648C128.934 130.566 127.065 132.181 125.626 133.555C123.199 135.864 121.508 138.953 120.864 142.243C123.365 142.901 125.769 141.023 127.675 139.268C129.45 137.639 131.297 135.877 131.86 133.546C132.033 132.837 132.087 132.062 132.514 131.465C132.99 130.795 133.825 130.49 134.402 129.91C135.318 128.989 135.406 127.554 135.74 126.29C136.92 121.814 141.606 118.351 141.144 113.759C140.852 110.794 138.426 108.439 137.776 105.53C137.51 104.328 137.533 103.024 136.888 101.975C136.576 101.467 136.122 101.068 135.836 100.547C135.326 99.6043 135.43 98.4643 135.505 97.4066C135.686 94.8441 135.323 91.7947 133.076 90.5554C132.362 90.1533 131.538 90.0032 130.812 89.6181C129.718 89.0413 128.966 87.9988 128.062 87.1557C125.609 84.8655 121.834 84.0987 118.68 85.2633C117.626 85.6425 116.632 86.2252 115.513 86.355C113.694 86.5594 111.977 85.5118 110.162 85.2735C107.809 84.9698 106.174 86.2388 104.023 86.7121C102.341 87.0768 100.843 86.7596 99.7182 88.4942Z" fill="#C8CDD3"/>
</g>
</svg>
