<svg width="286" height="295" viewBox="0 0 286 295" fill="none" xmlns="http://www.w3.org/2000/svg">
<g clip-path="url(#clip0_6083_15676)">
<path d="M285.4 142.7C285.4 63.89 221.51 0 142.7 0C63.89 0 0 63.89 0 142.7C0 165.63 5.42 187.29 15.02 206.48L34.08 167C39.86 153.33 61.45 156.55 61.45 156.55L78.08 158.48V158.6L86.58 165.64C97.52 174.7 114.15 168.22 116.08 154.15L128.71 147.6L152.28 149.3C152.28 149.3 160.17 227.67 159.16 235.67L153.35 285.01C227.18 279.56 285.39 217.93 285.39 142.71L285.4 142.7Z" fill="#CBE0EB"/>
<path d="M152.28 149.29L128.71 147.59L116.08 154.14C114.15 168.21 97.52 174.69 86.58 165.63L78.08 158.59V158.47L61.46 156.54C61.46 156.54 39.87 153.32 34.09 166.99L15.03 206.47C23.9 224.19 36.34 239.8 51.42 252.37L62.16 240.3L54.87 255.16C79.09 274.1 109.57 285.39 142.7 285.39C146.29 285.39 149.84 285.25 153.36 284.99L159.17 235.65C160.17 227.65 152.29 149.28 152.29 149.28L152.28 149.29Z" fill="#00949D"/>
<path d="M62.1599 240.31L51.4199 252.38C52.5599 253.33 53.7099 254.26 54.8799 255.17L62.1699 240.31H62.1599Z" fill="#005E5E"/>
<path d="M88.3299 67.52C82.2199 71.15 69.7399 70.14 65.3099 67.12C65.3099 67.12 61.5899 48.64 72.5599 36.22C77.5599 30.57 82.8999 27.72 89.6499 24.75C109.52 16.01 133.11 19.59 153.77 35.18C153.77 35.18 182.08 59.09 141.32 83.97L88.3299 67.51V67.52Z" fill="#C89200"/>
<path d="M85.7601 101.52L76.8201 167.43L114.32 165.35L123.24 108.7L85.7601 101.52Z" fill="#ED9980"/>
<path d="M91.75 128.5L117.74 143.97L120.43 127.63L91.75 128.5Z" fill="#DC826D"/>
<path d="M128.71 147.6L140.69 142.34C140.69 142.34 161.97 135.29 163 154.15L159.17 230.49C159.17 230.49 147.18 286.91 144.6 272.52L128.72 147.6H128.71Z" fill="#00949D"/>
<path d="M87.21 130.56L127.05 135.83C136.14 136.76 140.36 132.9 142.52 130.35C146.85 125.22 147.17 116.87 147.17 116.87L146.64 74.66C146.64 74.66 145.52 47.06 104.19 53.28C104.19 53.28 75.13 39.74 73.3 65.75L83.23 106.48L87.23 130.56H87.21Z" fill="#ED9980"/>
<path d="M83.5601 113.06L85.6701 124.99L95.7501 119.2L93.8701 104.4L83.5601 113.06Z" fill="#ED9980"/>
<path d="M76.8201 167.43L88.2301 175.99C99.5101 184.45 115.55 176.05 115.02 161.96L76.8201 167.43Z" fill="#ED9980"/>
<path d="M88.33 67.52L86.75 98.99L70.72 96.75C70.72 96.75 66.78 81.22 65.3 67.13L88.32 67.53L88.33 67.52Z" fill="#C89200"/>
<path d="M77.33 115.5C83.1511 115.5 87.87 110.781 87.87 104.96C87.87 99.1389 83.1511 94.42 77.33 94.42C71.509 94.42 66.79 99.1389 66.79 104.96C66.79 110.781 71.509 115.5 77.33 115.5Z" fill="#ED9980"/>
<path d="M223.09 176.3C223.09 176.3 214.48 166.57 218.13 142.08L221.49 114.51C221.49 114.51 222.7 106.43 229.94 107.31C229.94 107.31 235.96 108.61 234.92 117.08L231.23 147.34C231.23 147.34 226.89 168.96 223.08 176.3H223.09Z" fill="#ED9980"/>
<path d="M218.72 135.94L202.15 130.4C202.15 130.4 188.39 124.09 186.95 139.85C186.95 139.85 179.9 183.28 214.32 190.37L227.79 185C227.79 185 229.44 171.04 231.88 139.63L218.71 135.94H218.72Z" fill="#ED9980"/>
<path d="M88.3301 67.52C88.3301 67.52 94.2501 45.11 145.86 68.89L148.36 49.76L88.3401 31.04L73.2901 48.84L71.1201 67.23L88.3401 67.53L88.3301 67.52Z" fill="#C89200"/>
<path d="M168.65 177.2L193.92 248.42L209.12 186.42L230.95 185.01L215.04 275.76C215.04 275.76 210.88 293.02 201.04 294.29C201.04 294.29 192.17 298.84 180.84 283.05L145.85 222.15L168.64 177.2H168.65Z" fill="#ED9980"/>
<path d="M96.9299 102.61C96.9299 102.61 99.0599 118.8 120.47 118.84L122.54 107.14L96.9299 102.61Z" fill="white"/>
<path d="M162.2 149.47L188.41 215.25L168.26 277.5L131.9 218.6L162.2 149.47Z" fill="#00949D"/>
<path d="M230.96 129.16C230.96 129.16 236.32 154.43 230.96 185L220.05 186.41" fill="#ED9980"/>
<path d="M252.37 30.06C264.51 47.68 260.06 71.81 242.43 83.94C224.81 96.08 200.68 91.63 188.55 74C188.11 73.36 187.69 72.7 187.29 72.04L173.81 70.96C172.71 70.87 172.18 69.58 172.89 68.74L182.15 57.84C180.01 43.64 185.87 28.81 198.49 20.12C216.11 7.98001 240.24 12.43 252.37 30.06Z" fill="#80B176"/>
<path d="M204.25 52.07L217.29 67.51L235.84 35.32" stroke="white" stroke-width="7" stroke-linecap="round" stroke-linejoin="round"/>
<path d="M156.48 258.43L160.15 227.63L163.69 270.1L156.48 258.43Z" fill="#005E5E"/>
</g>
<defs>
<clipPath id="clip0_6083_15676">
<rect width="285.4" height="294.89" fill="white"/>
</clipPath>
</defs>
</svg>
