<svg width="286" height="297" viewBox="0 0 286 297" fill="none" xmlns="http://www.w3.org/2000/svg">
<g clip-path="url(#clip0_6093_14938)">
<path d="M132.91 232.67L111.23 185.59L130.02 174.28C141.64 167.29 154.36 162.32 167.63 159.58L202.05 152.47L260.99 161.43C269.53 162.73 277.54 166.27 284.22 171.66C285.08 164.93 285.48 158.04 285.37 151.05C284.13 72.44 218.65 9.24999 140.04 10.68C62.46 12.09 0 75.43 0 153.35C0 231.27 63.89 296.05 142.7 296.05C148.29 296.05 153.81 295.72 159.24 295.09L163.2 218L132.91 232.67Z" fill="#CADFEA"/>
<path d="M284.23 171.66C277.55 166.27 269.53 162.72 261 161.43L202.06 152.47L165.97 159.92C153.8 162.43 142.14 166.99 131.49 173.4L111.23 185.59L132.91 232.67L163.2 218L159.24 295.09C224.24 287.59 275.94 236.42 284.23 171.66Z" fill="#F4A300"/>
<path d="M95.0802 243.18L130.74 227.96L114.05 191.71L80.1802 209.12L95.0802 243.18Z" fill="#B45C49"/>
<path d="M43.1401 134.99C21.2101 118.3 24.5401 96.87 26.6801 89.74C28.8201 82.61 40.8101 72.82 44.8901 72.17C48.9701 71.52 49.7401 77.41 50.0201 80.21C50.3001 83.01 52.1001 98.26 52.1001 98.26C52.1001 98.26 55.2401 84.92 69.8801 84.98C80.1101 85.02 85.4901 93.92 85.7401 99.14C85.8501 101.39 84.0201 102.19 82.8401 102.56C81.7401 102.91 80.6101 102.59 79.6101 101.4C77.0601 98.36 74.3601 92.01 67.7301 94.22C61.1001 96.43 59.9301 104.63 61.9501 110.7C64.5001 118.34 76.9501 121.93 81.3501 107.44C81.6101 106.6 82.7401 105.33 83.5401 104.96C84.3401 104.59 87.3201 105.5 88.0201 106.84C90.1601 110.96 86.1101 119.69 81.9801 123.14C77.2501 127.08 72.3601 129.49 66.3201 128.31" fill="#B45C49"/>
<path d="M43.1401 134.99L63.9201 225.86C64.6401 229.35 66.0301 232.7 68.1401 235.58C69.2201 237.05 72.3501 239.52 76.2101 242.26C86.8801 249.84 101.79 243.49 103.7 230.54C104.7 223.76 105.09 217.52 103.9 214.54L66.3301 128.3" fill="#B45C49"/>
<path d="M231.62 74.1L228.51 93.47L220.51 100.51L207.81 90.57L218.18 69.12L231.62 74.1Z" fill="#281713"/>
<path d="M227.98 112.68C227.98 112.68 230.85 124.84 221.16 126.51C211.47 128.18 221.86 109.67 221.86 109.67L227.98 112.68Z" fill="#281713"/>
<path d="M222.28 130L186.83 144.22C178.46 147.2 173.57 144.53 170.95 142.62C165.67 138.78 163.43 130.95 163.43 130.95L156.22 86.86C156.22 86.86 148.86 64.6 189.36 60.93C189.36 60.93 213.69 41.42 221.44 65.57L221.47 106.35L222.28 130Z" fill="#B45C49"/>
<path d="M222.66 112.65L222.7 130.82L212.56 121.26L210.92 106.84L222.66 112.65Z" fill="#B45C49"/>
<path d="M186.52 100.04L186.2 152.52L186.18 157.8L187.06 159.18C194.66 171.03 211.8 171.53 220.07 160.14L222.03 157.45L223.62 99.05L186.51 100.05L186.52 100.04Z" fill="#B45C49"/>
<path d="M226.68 113.8C232.341 113.8 236.93 109.211 236.93 103.55C236.93 97.8891 232.341 93.3 226.68 93.3C221.019 93.3 216.43 97.8891 216.43 103.55C216.43 109.211 221.019 113.8 226.68 113.8Z" fill="#B45C49"/>
<path d="M209.39 114.56C209.39 114.56 207.11 129.64 183.49 131.36L181.16 120.75L209.38 114.56H209.39Z" fill="white"/>
<path d="M208.1 136.07L186.18 155.94L186.33 144.39L208.1 136.07Z" fill="#A24538"/>
<path d="M91.2421 244.839C101.374 241.173 106.528 229.743 102.753 219.31C98.9785 208.876 87.7046 203.39 77.5723 207.056C67.4399 210.722 62.2862 222.151 66.061 232.585C69.8358 243.018 81.1098 248.505 91.2421 244.839Z" fill="#B45C49"/>
<path d="M220.78 60.95L190.61 89.48C188.48 92.11 185.3 93.33 182.17 92.72C173.81 91.1 156.63 88.43 144.17 90.99C140.78 91.69 137.73 92.45 135.02 93.22C132.53 93.93 131.04 90.23 133.16 88.61L153.95 67.42C153.95 67.42 204.24 49.58 220.78 60.96V60.95Z" fill="#757375"/>
<path d="M218.17 71.63L231.63 74.1C231.63 74.1 235.96 31.4 190.98 31.4C156.44 31.4 153.96 67.41 153.96 67.41C153.96 67.41 158.56 65.88 175.19 65.78C191.82 65.68 204.57 69.14 218.17 71.63Z" fill="#9E9999"/>
<path d="M177.44 60.41C182.687 60.41 186.94 56.1567 186.94 50.91C186.94 45.6633 182.687 41.41 177.44 41.41C172.193 41.41 167.94 45.6633 167.94 50.91C167.94 56.1567 172.193 60.41 177.44 60.41Z" fill="#757375"/>
<path d="M70.5802 9.32003C54.3302 23.24 52.4502 47.7 66.3702 63.95C80.2902 80.2 104.75 82.08 121 68.16C121.59 67.65 122.16 67.12 122.72 66.59L136.02 69C137.1 69.2 137.95 68.08 137.48 67.09L131.33 54.18C137.04 41.01 135.18 25.16 125.21 13.53C111.29 -2.71997 86.8302 -4.59997 70.5802 9.32003Z" fill="#80B076"/>
<path d="M80.1699 39.45L93.2099 54.88L111.76 22.7" stroke="white" stroke-width="7" stroke-linecap="round" stroke-linejoin="round"/>
<path d="M97.21 200.36L104.01 214.88L103.02 197.38L97.21 200.36Z" fill="#A24538"/>
<path d="M66.3202 128.3C66.3202 128.3 61.2602 127.89 55.9702 125.91C55.9702 125.91 58.5902 132.73 68.0302 132.27L66.3202 128.3Z" fill="#A24538"/>
<path d="M82.25 102.61C84.172 102.61 85.73 101.052 85.73 99.13C85.73 97.2081 84.172 95.65 82.25 95.65C80.3281 95.65 78.77 97.2081 78.77 99.13C78.77 101.052 80.3281 102.61 82.25 102.61Z" fill="#B45C49"/>
<path d="M84.7798 111.57C86.7018 111.57 88.2598 110.012 88.2598 108.09C88.2598 106.168 86.7018 104.61 84.7798 104.61C82.8578 104.61 81.2998 106.168 81.2998 108.09C81.2998 110.012 82.8578 111.57 84.7798 111.57Z" fill="#B45C49"/>
</g>
<defs>
<clipPath id="clip0_6093_14938">
<rect width="285.4" height="296.05" fill="white"/>
</clipPath>
</defs>
</svg>
