<svg width="286" height="286" viewBox="0 0 286 286" fill="none" xmlns="http://www.w3.org/2000/svg">
<g clip-path="url(#clip0_5858_24256)">
<path d="M142.7 285.4C221.51 285.4 285.4 221.51 285.4 142.7C285.4 63.89 221.51 0 142.7 0C63.89 0 0 63.89 0 142.7C0 221.51 63.89 285.4 142.7 285.4Z" fill="#CCE1EC"/>
<path d="M244.13 243.06L192.68 117.61C192.68 117.61 181.77 94.6301 165.46 93.3801L157.85 127.85L119.85 219.74C128.78 240.74 148.7 249.19 158.93 249.19L173.42 249.02L180.47 280.33C204.95 273.63 226.79 260.58 244.14 243.06H244.13Z" fill="#EE9A80"/>
<path d="M79.0799 109.58C79.0799 109.58 67.0799 162.3 68.2899 172.56C68.2899 172.56 66.4799 183.72 83.3799 193.38L98.1599 136.48L79.0899 109.59L79.0799 109.58Z" fill="#EE9A80"/>
<path d="M171.99 231.26L97.3999 235.62C89.6899 236.07 83.0699 230.19 82.6199 222.48L72.4099 54.1701C71.9599 46.4601 77.8399 39.8401 85.5499 39.3901L160.14 35.0301C167.85 34.5801 174.47 40.4601 174.92 48.1701L185.13 216.48C185.58 224.19 179.7 230.81 171.99 231.26Z" fill="#484747"/>
<path d="M96.57 228.15C93.14 228.15 90.3 225.46 90.1 222.03L79.89 53.7C79.79 51.98 80.37 50.31 81.52 49.02C82.67 47.72 84.26 46.95 85.99 46.85L160.58 42.49C160.71 42.49 160.85 42.48 160.97 42.48C164.4 42.48 167.24 45.17 167.44 48.6L177.66 216.93C177.87 220.49 175.13 223.57 171.55 223.78L96.96 228.14C96.83 228.14 96.69 228.15 96.57 228.15Z" fill="#E7E2DF"/>
<path d="M155.12 79.16L95.3299 83.03C92.2999 83.23 89.9999 85.85 90.1899 88.88L91.5899 110.44C91.7899 113.47 94.4099 115.78 97.4399 115.58L157.23 111.71C160.26 111.51 162.57 108.89 162.37 105.86L160.97 84.3C160.77 81.27 158.15 78.96 155.12 79.16Z" fill="white"/>
<path d="M107.6 109.59C113.8 109.62 118.85 104.61 118.88 98.4C118.91 92.2 113.9 87.15 107.69 87.12C101.48 87.09 96.4399 92.1 96.4099 98.31C96.3799 104.52 101.39 109.56 107.6 109.59Z" fill="#F7B336"/>
<path d="M103.68 102.8C103.48 102.81 103.31 102.75 103.15 102.61C102.99 102.47 102.91 102.3 102.9 102.11L102.49 95.7C102.48 95.5 102.54 95.33 102.68 95.17C102.82 95.01 102.99 94.93 103.18 94.92L111.56 94.38C111.76 94.37 111.93 94.43 112.09 94.57C112.25 94.71 112.33 94.88 112.34 95.07L112.75 101.48C112.76 101.68 112.7 101.85 112.56 102.01C112.42 102.17 112.25 102.25 112.06 102.26L103.68 102.8ZM107.62 98.73C107.62 98.73 107.69 98.72 107.72 98.71C107.75 98.7 107.78 98.68 107.81 98.66L111.52 95.89C111.52 95.89 111.59 95.83 111.61 95.79C111.63 95.75 111.63 95.7 111.64 95.65C111.64 95.55 111.58 95.46 111.48 95.4C111.38 95.34 111.28 95.35 111.19 95.42L107.59 98.07L103.69 95.91C103.59 95.85 103.49 95.85 103.4 95.91C103.31 95.98 103.26 96.06 103.27 96.17C103.27 96.22 103.29 96.27 103.32 96.31C103.35 96.35 103.38 96.38 103.41 96.41L107.44 98.68C107.44 98.68 107.51 98.7 107.54 98.72C107.57 98.74 107.61 98.73 107.64 98.73H107.62Z" fill="white"/>
<path d="M152.03 89.9L123.88 91.72C123.56 91.74 123.31 92.02 123.33 92.34L123.49 94.77C123.51 95.09 123.79 95.34 124.11 95.32L152.26 93.5C152.58 93.48 152.83 93.2 152.81 92.88L152.65 90.45C152.63 90.13 152.35 89.88 152.03 89.9Z" fill="#D5D0CB"/>
<path d="M144.56 97.0802L124.36 98.3902C124.01 98.4102 123.74 98.7202 123.77 99.0702L123.92 101.4C123.94 101.75 124.25 102.02 124.6 101.99L144.79 100.68C145.14 100.66 145.41 100.35 145.38 100L145.23 97.6702C145.21 97.3202 144.9 97.0502 144.55 97.0802H144.56Z" fill="#D5D0CB"/>
<path d="M162.35 174.33L102.56 178.2C99.5299 178.4 97.2299 181.02 97.4199 184.05L97.9899 192.8C98.1899 195.83 100.81 198.14 103.84 197.94L163.63 194.07C166.66 193.87 168.97 191.25 168.77 188.22L168.2 179.47C168 176.44 165.38 174.13 162.35 174.33Z" fill="#DF2747"/>
<path d="M157.56 116.84L97.77 120.71C94.74 120.91 92.43 123.53 92.63 126.56L94.03 148.12C94.23 151.15 96.85 153.46 99.88 153.26L159.67 149.39C162.7 149.19 165.01 146.57 164.81 143.54L163.41 121.98C163.21 118.95 160.59 116.65 157.56 116.84Z" fill="white"/>
<path d="M110.04 147.26C116.24 147.29 121.29 142.28 121.32 136.07C121.35 129.86 116.34 124.82 110.13 124.79C103.92 124.76 98.88 129.77 98.85 135.98C98.82 142.19 103.83 147.23 110.04 147.26Z" fill="#80B476"/>
<path d="M109.6 140.54L111.16 140.44C111.23 140.44 111.28 140.4 111.33 140.36C111.38 140.31 111.4 140.24 111.39 140.18C111.39 140.11 111.35 140.06 111.31 140.01C111.26 139.96 111.19 139.94 111.13 139.95L109.57 140.05C109.5 140.05 109.45 140.09 109.4 140.13C109.35 140.18 109.33 140.25 109.34 140.31C109.34 140.38 109.38 140.43 109.42 140.48C109.47 140.53 109.54 140.55 109.6 140.54ZM107.68 141.74C107.47 141.75 107.29 141.69 107.13 141.55C106.97 141.41 106.89 141.24 106.88 141.03L106.26 131.47C106.25 131.26 106.31 131.08 106.45 130.92C106.59 130.76 106.76 130.68 106.97 130.67L112.5 130.31C112.71 130.3 112.89 130.36 113.05 130.5C113.21 130.64 113.29 130.81 113.3 131.02L113.92 140.58C113.93 140.79 113.87 140.97 113.73 141.13C113.59 141.29 113.42 141.37 113.21 141.38L107.68 141.74ZM107.51 139.1L113.04 138.74L112.61 132.2L107.08 132.56L107.51 139.1Z" fill="white"/>
<path d="M147.2 128.04L126.24 129.4C125.96 129.42 125.75 129.66 125.77 129.94L125.94 132.53C125.96 132.81 126.2 133.02 126.48 133L147.44 131.64C147.72 131.62 147.93 131.38 147.91 131.1L147.74 128.51C147.72 128.23 147.48 128.02 147.2 128.04Z" fill="#D5D0CB"/>
<path d="M154.3 134.28L126.9 136.05C126.5 136.08 126.19 136.43 126.21 136.83L126.35 138.97C126.38 139.37 126.73 139.68 127.13 139.66L154.53 137.89C154.93 137.86 155.24 137.51 155.22 137.11L155.08 134.97C155.05 134.56 154.7 134.26 154.3 134.28Z" fill="#D5D0CB"/>
<path d="M141.8 196.87C149.16 196.87 155.12 190.91 155.12 183.55C155.12 176.19 149.16 170.23 141.8 170.23C134.44 170.23 128.48 176.2 128.48 183.55C128.48 190.9 134.45 196.87 141.8 196.87Z" fill="#EE9A80"/>
<path d="M154.61 161.26L194.21 196.26L208.03 161.3L172.28 138.56L154.61 161.26Z" fill="#EE9A80"/>
<path d="M175.94 157.09L153.22 190.44L130.4 176.68L151.27 142.09L175.94 157.1V157.09Z" fill="#EE9A80"/>
<path d="M163.56 164.09C171.54 164.09 178 157.62 178 149.65C178 141.68 171.53 135.21 163.56 135.21C155.59 135.21 149.12 141.68 149.12 149.65C149.12 157.62 155.59 164.09 163.56 164.09Z" fill="#EE9A80"/>
</g>
<defs>
<clipPath id="clip0_5858_24256">
<rect width="285.4" height="285.4" fill="white"/>
</clipPath>
</defs>
</svg>
