<svg width="286" height="286" viewBox="0 0 286 286" fill="none" xmlns="http://www.w3.org/2000/svg">
<g clip-path="url(#clip0_6249_15337)">
<path d="M142.7 285.4C221.51 285.4 285.4 221.51 285.4 142.7C285.4 63.89 221.51 0 142.7 0C63.89 0 0 63.89 0 142.7C0 221.51 63.89 285.4 142.7 285.4Z" fill="#C9DEE9"/>
<path d="M244.13 243.06L192.68 117.61C192.68 117.61 181.77 94.6299 165.46 93.3799L157.85 127.85L119.85 219.74C128.78 240.74 148.7 249.19 158.93 249.19L173.42 249.02L180.47 280.33C204.95 273.63 226.79 260.58 244.14 243.06H244.13Z" fill="#EB9780"/>
<path d="M79.0799 109.58C79.0799 109.58 67.0799 162.3 68.2899 172.56C68.2899 172.56 66.4799 183.72 83.3799 193.38L98.1599 136.48L79.0899 109.59L79.0799 109.58Z" fill="#EB9780"/>
<path d="M171.99 231.26L97.3999 235.62C89.6899 236.07 83.0699 230.19 82.6199 222.48L72.4099 54.1701C71.9599 46.4601 77.8399 39.8401 85.5499 39.3901L160.14 35.0301C167.85 34.5801 174.47 40.4601 174.92 48.1701L185.13 216.48C185.58 224.19 179.7 230.81 171.99 231.26Z" fill="#484747"/>
<path d="M96.57 228.15C93.14 228.15 90.3 225.46 90.1 222.03L79.89 53.7C79.79 51.98 80.37 50.31 81.52 49.02C82.67 47.72 84.26 46.95 85.99 46.85L160.58 42.49C160.71 42.49 160.85 42.48 160.97 42.48C164.4 42.48 167.24 45.17 167.44 48.6L177.66 216.93C177.87 220.49 175.13 223.57 171.55 223.78L96.96 228.14C96.83 228.14 96.69 228.15 96.57 228.15Z" fill="white"/>
<path d="M165.421 145.879L148.071 146.888C146.411 146.985 145.144 148.408 145.241 150.068L146.061 164.164C146.157 165.824 147.581 167.091 149.24 166.994L166.591 165.985C168.251 165.888 169.518 164.464 169.421 162.805L168.601 148.709C168.504 147.049 167.081 145.782 165.421 145.879Z" fill="#E3DEDB"/>
<path d="M110.84 125.504L93.4895 126.514C91.83 126.61 90.5629 128.034 90.6595 129.693L91.4796 143.79C91.5762 145.449 92.9998 146.716 94.6594 146.62L112.01 145.61C113.67 145.514 114.937 144.09 114.84 142.43L114.02 128.334C113.923 126.675 112.5 125.408 110.84 125.504Z" fill="#E3DEDB"/>
<path d="M137.365 123.956L120.015 124.965C118.355 125.062 117.088 126.485 117.185 128.145L118.005 142.241C118.101 143.901 119.525 145.168 121.185 145.071L138.535 144.062C140.195 143.965 141.462 142.542 141.365 140.882L140.545 126.786C140.449 125.126 139.025 123.859 137.365 123.956Z" fill="#E3DEDB"/>
<path d="M163.771 122.414L146.421 123.424C144.761 123.52 143.494 124.944 143.591 126.604L144.411 140.7C144.507 142.359 145.931 143.626 147.591 143.53L164.941 142.52C166.601 142.424 167.868 141 167.771 139.34L166.951 125.244C166.855 123.585 165.431 122.318 163.771 122.414Z" fill="#E3DEDB"/>
<path d="M112.49 148.968L95.1394 149.978C93.4799 150.074 92.2128 151.498 92.3094 153.157L93.1295 167.253C93.2261 168.913 94.6497 170.18 96.3093 170.083L113.66 169.074C115.32 168.977 116.587 167.554 116.49 165.894L115.67 151.798C115.573 150.138 114.15 148.871 112.49 148.968Z" fill="#E3DEDB"/>
<path d="M139.025 147.42L121.675 148.429C120.015 148.526 118.748 149.949 118.845 151.609L119.665 165.705C119.761 167.365 121.185 168.632 122.844 168.535L140.195 167.526C141.855 167.429 143.122 166.005 143.025 164.346L142.205 150.25C142.108 148.59 140.685 147.323 139.025 147.42Z" fill="#E3DEDB"/>
<path d="M113.945 172.854L96.5946 173.863C94.9351 173.96 93.668 175.383 93.7646 177.043L94.5847 191.139C94.6813 192.799 96.1049 194.066 97.7645 193.969L115.115 192.96C116.775 192.863 118.042 191.44 117.945 189.78L117.125 175.684C117.028 174.024 115.605 172.757 113.945 172.854Z" fill="#E3DEDB"/>
<path d="M140.471 171.315L123.12 172.325C121.461 172.421 120.194 173.845 120.29 175.504L121.111 189.601C121.207 191.26 122.631 192.527 124.29 192.431L141.641 191.421C143.3 191.325 144.568 189.901 144.471 188.241L143.651 174.145C143.554 172.486 142.131 171.219 140.471 171.315Z" fill="#E3DEDB"/>
<path d="M166.887 169.783L149.536 170.793C147.877 170.889 146.61 172.313 146.706 173.973L147.527 188.069C147.623 189.728 149.047 190.995 150.706 190.899L168.057 189.889C169.717 189.793 170.984 188.369 170.887 186.71L170.067 172.613C169.97 170.954 168.547 169.687 166.887 169.783Z" fill="#E3DEDB"/>
<path d="M120.87 65.28L128.15 82.35L134.61 82.05L127.33 64.98L120.87 65.28Z" fill="#3EA0D8"/>
<path d="M139.67 59.4802C139.59 57.6102 140.99 55.9602 143.14 55.8602C145.29 55.7602 146.84 57.2702 146.92 59.1402C147 61.0102 145.6 62.6902 143.45 62.7902C141.3 62.8902 139.75 61.3402 139.66 59.4702H139.67V59.4802Z" fill="#DA2146"/>
<path d="M146.75 64.07L147.56 81.45L153.22 63.77L146.76 64.07H146.75Z" fill="#91C0D7"/>
<path d="M146.75 64.0703L140.29 64.3703L141.1 81.7503L146.76 64.0703H146.75Z" fill="#DA2146"/>
<path d="M141.09 81.7503L147.55 81.4503L146.74 64.0703L141.08 81.7503H141.09Z" fill="#6A2E4A"/>
<path d="M120.87 65.28L121.68 82.66L127.34 64.98L120.88 65.28H120.87Z" fill="#91C0D7"/>
<path d="M120.87 65.2803L114.41 65.5803L115.22 82.9603L120.88 65.2803H120.87Z" fill="#DA2146"/>
<path d="M115.21 82.9603L121.67 82.6603L120.86 65.2803L115.2 82.9603H115.21Z" fill="#6A2E4A"/>
<path d="M102.28 83.56C101.77 85.15 100.96 85.6 99.59 85.67C98.71 85.71 98.01 85.6 97.33 85.42L97.43 90.06C98.35 90.26 99.51 90.32 100.53 90.27C105.04 90.06 107.08 88.4 108.28 84.68L108.74 83.25L102.28 83.55V83.56Z" fill="#DA2146"/>
<path d="M120.87 65.28L128.15 82.35L134.61 82.05L127.33 64.98L120.87 65.28Z" fill="#DA2146"/>
<path d="M113.79 60.6901C113.71 58.8201 115.11 57.1701 117.26 57.0701C119.41 56.9701 120.96 58.4801 121.04 60.3501C121.12 62.2201 119.72 63.9001 117.57 64.0001C115.42 64.1001 113.87 62.5501 113.78 60.6801H113.79V60.6901Z" fill="#DA2146"/>
<path d="M133.81 64.6701L130.98 73.5101L134.62 82.0501L140.28 64.3701L133.82 64.6701H133.81Z" fill="#6A2E4A"/>
<path d="M107.94 65.8801L105.11 74.7201L108.75 83.2601L114.41 65.5801L107.95 65.8801H107.94Z" fill="#6A2E4A"/>
<path d="M95 66.4899L102.28 83.5599L108.74 83.2599L101.46 66.1899L95 66.4899Z" fill="#DA2146"/>
<path d="M101.46 66.1899L95 66.4899L98.64 75.0299L101.47 66.1899H101.46Z" fill="#6A2E4A"/>
<path d="M127.35 64.98L120.89 65.28L124.53 73.82L127.36 64.98H127.35Z" fill="#B43353"/>
<path d="M161.407 97.2946L91.3736 101.333C89.9345 101.416 88.8352 102.65 88.9182 104.089L89.8789 120.751C89.9619 122.19 91.1958 123.289 92.6348 123.206L162.669 119.168C164.108 119.085 165.207 117.851 165.124 116.412L164.163 99.75C164.08 98.3109 162.846 97.2116 161.407 97.2946Z" fill="#E3DEDB"/>
<path d="M99.1604 107.053L98.9706 107.06C98.6671 107.072 98.4308 107.328 98.4429 107.632L98.7807 116.115C98.7927 116.418 99.0486 116.655 99.3521 116.643L99.542 116.635C99.8455 116.623 100.082 116.367 100.07 116.064L99.7319 107.58C99.7198 107.277 99.4639 107.041 99.1604 107.053Z" fill="#9E9999"/>
<path d="M104.057 111.76L104.05 111.571C104.038 111.267 103.782 111.031 103.478 111.043L94.9949 111.381C94.6913 111.393 94.4551 111.649 94.4672 111.952L94.4747 112.142C94.4868 112.445 94.7427 112.682 95.0462 112.67L103.529 112.332C103.833 112.32 104.069 112.064 104.057 111.76Z" fill="#9E9999"/>
<path d="M102.579 108.395L102.439 108.266C102.216 108.06 101.868 108.074 101.662 108.297L95.9024 114.535C95.6963 114.758 95.7102 115.106 95.9333 115.312L96.0729 115.441C96.2961 115.647 96.6441 115.633 96.8501 115.41L102.61 109.172C102.816 108.949 102.802 108.601 102.579 108.395Z" fill="#9E9999"/>
<path d="M102.715 115.189L102.844 115.049C103.05 114.826 103.036 114.478 102.813 114.272L96.5753 108.512C96.3521 108.306 96.0042 108.32 95.7981 108.543L95.6692 108.683C95.4631 108.906 95.477 109.254 95.7002 109.46L101.938 115.22C102.161 115.426 102.509 115.412 102.715 115.189Z" fill="#9E9999"/>
<path d="M111.533 106.351L111.343 106.358C111.039 106.371 110.803 106.626 110.815 106.93L111.153 115.413C111.165 115.717 111.421 115.953 111.724 115.941L111.914 115.933C112.218 115.921 112.454 115.665 112.442 115.362L112.104 106.879C112.092 106.575 111.836 106.339 111.533 106.351Z" fill="#9E9999"/>
<path d="M116.419 111.052L116.411 110.863C116.399 110.559 116.143 110.323 115.84 110.335L107.356 110.673C107.053 110.685 106.817 110.941 106.829 111.244L106.836 111.434C106.848 111.737 107.104 111.974 107.408 111.962L115.891 111.624C116.195 111.612 116.431 111.356 116.419 111.052Z" fill="#9E9999"/>
<path d="M114.949 107.686L114.809 107.557C114.586 107.351 114.238 107.365 114.032 107.588L108.272 113.825C108.066 114.048 108.08 114.396 108.303 114.602L108.443 114.731C108.666 114.937 109.014 114.923 109.22 114.7L114.98 108.463C115.186 108.24 115.172 107.892 114.949 107.686Z" fill="#9E9999"/>
<path d="M115.084 114.468L115.213 114.329C115.419 114.106 115.406 113.758 115.182 113.552L108.945 107.792C108.722 107.586 108.374 107.6 108.168 107.823L108.039 107.962C107.833 108.186 107.847 108.534 108.07 108.74L114.307 114.499C114.53 114.705 114.878 114.692 115.084 114.468Z" fill="#9E9999"/>
<path d="M123.904 105.64L123.715 105.647C123.411 105.659 123.175 105.915 123.187 106.219L123.525 114.702C123.537 115.005 123.793 115.242 124.096 115.229L124.286 115.222C124.589 115.21 124.826 114.954 124.814 114.65L124.476 106.167C124.464 105.864 124.208 105.627 123.904 105.64Z" fill="#9E9999"/>
<path d="M128.79 110.334L128.783 110.144C128.771 109.841 128.515 109.605 128.211 109.617L119.728 109.954C119.425 109.966 119.188 110.222 119.2 110.526L119.208 110.716C119.22 111.019 119.476 111.255 119.779 111.243L128.263 110.906C128.566 110.894 128.802 110.638 128.79 110.334Z" fill="#9E9999"/>
<path d="M127.318 106.976L127.179 106.847C126.956 106.641 126.608 106.655 126.402 106.878L120.642 113.115C120.436 113.338 120.45 113.686 120.673 113.892L120.812 114.021C121.035 114.227 121.383 114.213 121.59 113.99L127.349 107.753C127.555 107.53 127.541 107.182 127.318 106.976Z" fill="#9E9999"/>
<path d="M127.454 113.758L127.583 113.618C127.789 113.395 127.775 113.047 127.552 112.841L121.315 107.081C121.091 106.875 120.743 106.889 120.537 107.112L120.408 107.252C120.202 107.475 120.216 107.823 120.439 108.029L126.677 113.789C126.9 113.995 127.248 113.981 127.454 113.758Z" fill="#9E9999"/>
<path d="M136.276 104.918L136.086 104.926C135.783 104.938 135.546 105.194 135.558 105.497L135.896 113.981C135.908 114.284 136.164 114.52 136.468 114.508L136.657 114.501C136.961 114.489 137.197 114.233 137.185 113.929L136.847 105.446C136.835 105.142 136.579 104.906 136.276 104.918Z" fill="#9E9999"/>
<path d="M141.172 109.626L141.164 109.436C141.152 109.133 140.896 108.897 140.593 108.909L132.109 109.246C131.806 109.258 131.57 109.514 131.582 109.818L131.589 110.008C131.601 110.311 131.857 110.547 132.161 110.535L140.644 110.198C140.948 110.185 141.184 109.93 141.172 109.626Z" fill="#9E9999"/>
<path d="M139.695 106.259L139.555 106.13C139.332 105.924 138.984 105.938 138.778 106.161L133.018 112.399C132.812 112.622 132.826 112.97 133.049 113.176L133.189 113.305C133.412 113.511 133.76 113.497 133.966 113.274L139.726 107.037C139.932 106.813 139.918 106.465 139.695 106.259Z" fill="#9E9999"/>
<path d="M139.831 113.045L139.96 112.906C140.166 112.682 140.152 112.334 139.929 112.128L133.691 106.369C133.468 106.163 133.12 106.176 132.914 106.4L132.785 106.539C132.579 106.762 132.593 107.11 132.816 107.316L139.054 113.076C139.277 113.282 139.625 113.268 139.831 113.045Z" fill="#9E9999"/>
<path d="M155.58 103.35C154.25 103.4 153.23 104.56 153.28 105.89L153.45 108.89L154.31 108.84L154.14 105.84C154.14 105.84 154.14 105.83 154.14 105.82C154.09 104.99 154.7 104.29 155.52 104.22C156.38 104.15 157.12 104.83 157.17 105.69L157.33 108.51L158.2 108.46L158.03 105.59C157.96 104.29 156.87 103.3 155.57 103.34L155.58 103.35Z" fill="#9E9999"/>
<path d="M158.77 107.76L155.84 107.93L154.27 108.02L153.37 108.07L152.9 108.1C152.66 108.11 152.48 108.3 152.49 108.52L152.75 112.97C152.76 113.19 152.97 113.35 153.2 113.34L159.07 113C159.31 112.99 159.49 112.8 159.48 112.58L159.22 108.13C159.21 107.91 159 107.75 158.77 107.76Z" fill="#9E9999"/>
<path d="M156.29 110.59L156.34 111.38C156.34 111.49 156.26 111.59 156.14 111.6H155.95C155.84 111.62 155.74 111.53 155.73 111.41L155.68 110.62C155.49 110.54 155.36 110.34 155.35 110.13C155.33 109.8 155.59 109.51 155.92 109.49C156.25 109.47 156.54 109.73 156.56 110.06C156.57 110.27 156.46 110.49 156.29 110.59Z" fill="#E3DEDB"/>
<path d="M167.259 197.417L98.2559 201.432C96.0726 201.559 94.4056 203.432 94.5326 205.615L95.0165 213.931C95.1435 216.114 97.0165 217.781 99.1998 217.654L168.203 213.639C170.386 213.512 172.053 211.639 171.926 209.456L171.443 201.14C171.316 198.957 169.443 197.29 167.259 197.417Z" fill="#E1032E"/>
<path d="M137.55 183.01C144.91 183.01 150.87 177.05 150.87 169.69C150.87 162.33 144.91 156.37 137.55 156.37C130.19 156.37 124.23 162.34 124.23 169.69C124.23 177.04 130.2 183.01 137.55 183.01Z" fill="#EB9780"/>
<path d="M150.35 147.4L189.95 182.4L203.77 147.44L168.02 124.7L150.35 147.4Z" fill="#EB9780"/>
<path d="M171.68 143.22L148.96 176.57L126.14 162.81L147.01 128.22L171.68 143.23V143.22Z" fill="#EB9780"/>
<path d="M159.3 150.23C167.28 150.23 173.74 143.76 173.74 135.79C173.74 127.82 167.27 121.35 159.3 121.35C151.33 121.35 144.86 127.82 144.86 135.79C144.86 143.76 151.33 150.23 159.3 150.23Z" fill="#EB9780"/>
</g>
<defs>
<clipPath id="clip0_6249_15337">
<rect width="285.4" height="285.4" fill="white"/>
</clipPath>
</defs>
</svg>
