<svg width="341" height="247" viewBox="0 0 341 247" fill="none" xmlns="http://www.w3.org/2000/svg">
<g clip-path="url(#clip0)">
<mask id="mask0" mask-type="alpha" maskUnits="userSpaceOnUse" x="0" y="201" width="341" height="2">
<path fill-rule="evenodd" clip-rule="evenodd" d="M0 201.461H340.3V202.461H0V201.461Z" fill="white"/>
</mask>
<g mask="url(#mask0)">
<path d="M0 201.961H340.3" stroke="#D4DBE1" stroke-width="3"/>
</g>
<path fill-rule="evenodd" clip-rule="evenodd" d="M126.5 40.5001C126.1 40.4001 125.9 39.9001 126 39.5001C126.6 37.9001 127.9 34.5001 128.3 34.1001C128.8 33.6001 133.3 32.4001 133.9 28.2001C134.6 24.0001 131.9 15.4001 132.4 14.6001C132.9 13.8001 135.6 9.80006 133.6 6.30006C131.6 2.80006 127 3.10006 127 3.10006C127 3.10006 118.9 4.00006 116.4 7.00006C113.9 10.0001 113.3 18.1001 114.3 22.0001C115.4 25.9001 118.8 31.4001 118.5 32.3001C118.2 33.2001 117.3 37.2001 116.7 37.7001C116.1 38.2001 109.7 36.2001 102.6 40.3001C95.5 44.4001 87.2 55.5001 86 67.7001C84.8 79.8001 88.3 93.0001 88.9 96.2001C89.6 99.4001 92.6 180 92.6 180C92.6 180 91.8 180 91.6 180.2C91.4 180.4 91.5 183.1 91.5 184.9C91.5 186.7 91.9 189 92.3 189.3C92.7 189.6 94.1 189.5 94.1 189.5L94 197.9C94 199.3 95.1 200.4 96.5 200.4H123.1C123.5 200.4 123.8 200.2 124 199.9C124.6 199 125.4 197.1 124.4 195C122.7 191.6 118.2 193.8 117.4 193.8C116.6 193.8 114.9 193.4 114.4 191.4C114 189.4 114.4 188.8 114.4 188.8C114.4 188.8 115.8 188.9 116.2 188.6C116.5 188.4 116.7 186.8 116.9 184.6C117.1 182.6 117 180.3 116.9 180.2C116.7 180 115.8 180.1 115.8 180.1C115.8 180.1 118.1 117.5 123.6 101.3C129.2 85.0001 144.8 59.9001 140.2 51.5001C136.8 44.5001 128.9 41.3001 126.5 40.5001Z" fill="#71808F"/>
<path fill-rule="evenodd" clip-rule="evenodd" d="M177.5 189.2C177.5 124.7 165.4 91.8001 165.4 91.8001C165.4 91.8001 171.5 75.6001 170.6 59.7001C169.7 43.8001 164.7 42.5001 164.7 42.5001C164.7 42.5001 159.6 40.8001 158.2 39.4001C157.1 38.3001 156.8 35.7001 156.7 34.5001C160.6 33.4001 163.6 28.5001 163.6 22.7001C163.6 22.5001 163.6 22.3001 163.6 22.1001C163.6 22.1001 164.3 26.1001 164 29.4001C163.8 32.6001 163.1 36.7001 163.1 36.7001C163.1 36.7001 165.8 32.1001 166.1 27.7001C166.4 23.3001 165.9 13.1001 165.9 13.1001C165.8 7.10006 162.4 2.20006 157.8 0.80006C151.6 -0.99994 144.6 4.40006 142.1 12.8001C141 16.7001 141 20.6001 142 23.8001C139.9 24.8001 138.4 27.0001 138.4 29.5001C138.4 33.0001 141.3 35.9001 144.8 35.9001C145.7 35.9001 146.6 35.7001 147.3 35.4001C147.5 36.5001 147.5 37.9001 147 39.0001C146 41.1001 138.1 41.7001 135 45.1001C131.9 48.5001 132.7 70.6001 132.7 72.8001C132.8 82.0001 138.3 89.5001 138.4 91.7001C138.6 93.9001 127.2 160.7 128.5 188.7C128.5 188.7 130.1 190.5 141.1 191.4V198.9C141.1 199.9 141.9 200.7 142.9 200.7H167.6C170.5 200.7 171.8 196.9 169.4 195.2L169.3 195.1C165.4 192.3 161.1 191.7 161.1 191.7C176.8 191.1 177.5 189.2 177.5 189.2Z" fill="#71808F"/>
<path fill-rule="evenodd" clip-rule="evenodd" d="M98.3 22.3001C98.2 22.3001 98.2 22.2001 98.1 22.1001C96.6 17.8001 92.3 14.8001 87.3 14.8001C86.5 14.8001 79.1 15.2001 74.3 22.9001C69.1 31.1001 68.7 37.9001 68.4 40.5001C68.1 43.1001 67 49.8001 68.4 51.5001C69.3 52.6001 71.1 53.2001 72.2 53.5001C72.5 53.6001 72.5 53.9001 72.3 54.1001C71.6 54.4001 70.7 55.0001 69.8 55.9001C68.1 57.5001 44.9 86.0001 44.4 90.1001C43.9 93.9001 49 102.2 49.7 103.4C49.8 103.5 49.8 103.6 49.7 103.7C49 104.7 44.7 110.9 46 116.5C47.4 122.6 51.5 127.9 53.7 130.5C55.7 133 64.5 142.1 65.6 143.2C65.7 143.3 65.7 143.4 65.7 143.5C65.1 145.2 59 160.9 58.2 163.8C57.3 166.9 51.2 182 51.2 182C51.2 182 50.7 181.7 50.4 181.9C50.1 182.1 48.6 185.1 48.6 185.1C48.3 185.6 48.5 186.3 49.1 186.6L49.3 186.7C48.3 188.8 45 196.1 44.9 197C44.9 197.7 44.9 199 44.9 199.9C44.9 200.3 45.2 200.6 45.6 200.6H61.4C61.4 200.6 62.6 197.7 61 196C59.4 194.3 58 194.7 57.2 194.9C56.4 195 53.1 196.7 52.5 194.5C52.1 192.9 53.8 190.6 54.7 189.5L55.4 189.9C55.9 190.2 56.6 190 56.9 189.4C56.9 189.4 58.5 186.5 58.3 185.9C58.3 185.7 57.7 185.4 57.7 185.4L76 160C76.2 159.7 76.6 159.9 76.6 160.2L71.8 184.9C71.8 184.9 71.2 184.8 70.8 184.9C70.4 185 69.4 188.5 69.4 188.5C69.2 189 69.5 189.5 70 189.7L71.1 190.1C70.3 192.1 69 195.3 68.9 195.8C68.8 197.2 68.8 199.3 68.9 200.3C68.9 200.6 69.1 200.8 69.4 200.8H86.5C86.5 200.8 87.7 196.3 84.5 195.3C81.2 194.3 79.6 196.5 78.5 196C77.3 195.5 75.7 194.1 75.9 193C76 192.6 76.1 192.2 76.2 191.7L77.2 192C77.7 192.2 78.2 191.9 78.4 191.4C78.4 191.4 79.6 188 79.4 187.6C79.2 187.2 78.6 187.1 78.6 187.1C78.6 187.1 87.4 169.3 88.6 166.6C89.9 164 95.2 151.7 95.2 148.7C95.2 147.2 90.4 137.9 85 129C79.6 120.1 73.7 111.2 73.3 108.7C72.6 104.5 89.3 84.7001 89.3 70.0001C89.3 62.6001 85.9 59.2001 87 53.5001C87.9 48.7001 89 47.3001 89.4 46.9001C89.5 46.8001 89.5 46.8001 89.6 46.8001L90.9 46.7001C91 46.7001 91.1 46.7001 91.2 46.7001C95.6 45.6001 98.9 40.7001 98.9 34.9001C98.9 34.0001 98.8 33.2001 98.7 32.4001C98.5 31.3001 98.9 30.1001 99.8 29.5001C100.8 28.7001 101.4 27.6001 101.4 26.4001C101.3 24.4001 100.1 22.9001 98.3 22.3001Z" fill="#71808F"/>
<mask id="mask1" mask-type="alpha" maskUnits="userSpaceOnUse" x="168" y="-1" width="47" height="202">
<path fill-rule="evenodd" clip-rule="evenodd" d="M168.7 -0.0389404H214.5V200.461H168.7V-0.0389404Z" fill="white"/>
</mask>
<g mask="url(#mask1)">
<path fill-rule="evenodd" clip-rule="evenodd" d="M212.7 45.0611C211.2 42.6611 197.9 35.9611 196.8 35.1611C195.7 34.3611 196.1 30.9611 196.1 29.6611C196.1 28.3611 196.8 28.0611 196.8 28.0611C200.1 26.9611 202.7 23.9611 203.5 20.2611V20.1611V20.0611C203.5 19.9611 203.5 19.8611 203.6 19.7611C204.6 14.3611 205.1 7.56106 201.5 3.76106C197.8 -0.138939 188.7 -0.138939 188.7 -0.138939H188.4C184.1 -0.138939 180.7 3.56106 180.7 8.26106C180.7 10.6611 181.6 12.7611 183.1 14.2611C182.7 15.6611 182.5 17.2611 182.5 18.8611C182.5 23.7611 184.4 27.8611 187.1 29.5611C187.1 30.8611 187.5 34.2611 186.4 35.0611C185.2 35.9611 171.9 42.6611 170.4 45.0611C168.9 47.4611 168.1 76.9611 169.1 80.8611C170.1 84.7611 177.4 94.1611 177.4 94.1611L181.8 191.261H184.3C184.3 191.361 184.3 191.461 184.2 191.561C183.8 193.561 182.3 193.961 181.5 193.961C180.7 193.961 179.2 193.861 178.7 195.161C177.8 197.361 178.5 199.161 179.1 200.061C179.3 200.361 179.7 200.561 180 200.561H190.4H192.3H202.7C203.1 200.561 203.4 200.361 203.6 200.061C204.2 199.161 204.9 197.361 204 195.161C203.5 193.961 202 193.961 201.2 193.961C200.4 193.961 199 193.561 198.5 191.561C198.5 191.461 198.5 191.361 198.4 191.261H201.2L205.6 94.1611C205.6 94.1611 212.9 84.7611 213.9 80.8611C215 76.9611 214.2 47.3611 212.7 45.0611Z" fill="#71808F"/>
</g>
<path fill-rule="evenodd" clip-rule="evenodd" d="M245 63.7001L251.2 68.9001L258.5 59.0001C258.5 59.0001 242 40.8001 239.8 38.9001C237.6 37.0001 235.3 37.2001 235.3 37.2001C235.3 37.2001 236.8 36.6001 237.4 35.9001C238 35.2001 242.2 16.8001 234.7 8.90006C227.2 1.00006 217.1 3.10006 217.1 3.10006C212.7 3.50006 209.2 7.20006 209.2 11.7001C209.2 14.4001 210.4 16.8001 212.4 18.4001C212 19.8001 211.7 21.3001 211.7 22.9001C211.7 29.3001 215.7 34.5001 220.8 35.0001C221.2 36.3001 221.5 38.1001 220.6 39.5001C219.1 41.8001 211.7 46.6001 211.7 46.6001L214.2 79.5001C214.2 79.5001 209 139.7 210.1 141C211.1 142.3 225.6 144.1 236.6 144.1C247.6 144.1 264.1 138.9 263.9 137.3C263.7 135.6 245 63.7001 245 63.7001Z" fill="#71808F"/>
<path fill-rule="evenodd" clip-rule="evenodd" d="M220.5 119.1C219.4 124.9 222.3 186.2 222.4 187.9C222.4 188.3 228.1 188.6 228.3 188.1C230.3 182.8 232.1 153 232.7 140.5C233.2 128 220.5 119.1 220.5 119.1Z" fill="#71808F"/>
<path fill-rule="evenodd" clip-rule="evenodd" d="M227.3 188.2L227.6 200.4C227.6 200.4 212.9 200.6 212.5 200.4C212 200.2 212.1 197.1 214.6 196.6C217 196.1 217.5 197.5 220.8 195.8C222.7 194.9 223.3 187.7 223.3 187.7L227.3 188.2Z" fill="#D4DBE1"/>
<path fill-rule="evenodd" clip-rule="evenodd" d="M232.8 120.5C232.7 126.4 243.5 186.7 243.9 188.4C244 188.8 249.5 188.9 249.6 188.4C250.2 185 249.1 163.3 249.5 150.6C249.7 142.3 251.9 141.8 251.3 136.9C249.6 124.4 232.8 120.5 232.8 120.5Z" fill="#71808F"/>
<path fill-rule="evenodd" clip-rule="evenodd" d="M248.9 187.6V200.4C248.9 200.4 234.2 200.6 233.8 200.4C233.3 200.2 233.4 197.1 235.9 196.6C238.3 196.1 238.8 197.5 242.1 195.8C244 194.9 244.6 188.1 244.6 188.1L248.9 187.6Z" fill="#E7EBEF"/>
<path fill-rule="evenodd" clip-rule="evenodd" d="M294.2 89.1001C294 80.5001 268.5 50.4001 268.5 50.4001C268.5 50.4001 271.4 50.7001 273.2 49.5001C274.9 48.3001 277.2 38.0001 276.3 28.9001C275.4 19.8001 269.7 14.8001 263.1 13.8001C258 13.0001 255.8 15.5001 255 16.8001C254.5 16.7001 253.9 16.6001 253.4 16.6001C249.1 16.6001 245.7 20.0001 245.7 24.1001C245.7 27.2001 247.7 29.9001 250.5 31.1001C249.7 33.0001 249.2 35.2001 249.2 37.5001C249.2 43.0001 251.9 47.7001 255.5 49.3001L254.1 53.8001L251.1 62.7001L248.9 79.8001L248.6 154.6C248.6 154.6 248.4 188.5 249.1 189.4C249.8 190.2 258 189.5 261.6 189.1C265.2 188.7 265.4 187.7 265.4 187.7C265.4 187.7 270 189.1 273.1 188.7C276.2 188.2 287.7 187.8 288.5 183.9C289.3 180 275.9 153.5 275.9 153.5C275.9 153.5 274.9 151 275.2 144.4C275.6 137.8 291.1 128.1 293.2 119.2C295.4 110.3 288.4 100.4 288.4 100.4C288.4 100.4 294.2 92.2001 294.2 89.1001Z" fill="#71808F"/>
<path fill-rule="evenodd" clip-rule="evenodd" d="M282.2 185.5L287.3 198.5C287.7 199.5 287 200.5 285.9 200.5H248.2C248.2 200.5 247.2 194.2 251.3 193.3C255.4 192.3 258.2 194.1 258.2 194.1L256.1 186.8L263.2 186.7L266.1 194.1C266.1 194.1 267.8 192.4 271.2 192.2C274.6 192 277.7 194.1 277.7 194.1L274.6 186.8L282.2 185.5Z" fill="#71808F"/>
<path fill-rule="evenodd" clip-rule="evenodd" d="M280 150.9V230.9C280 239.2 273.3 245.9 265 245.9H72.5C64.2 245.9 57.5 239.2 57.5 230.9V150.9C57.5 142.6 64.2 135.9 72.5 135.9H265C273.3 135.9 280 142.7 280 150.9Z" fill="#193F61"/>
<path fill-rule="evenodd" clip-rule="evenodd" d="M62.7 153.3V161.2C62.7 162.1 63.3 162.9 64.1 163.2L67.2 164.3C69.2 165 70.6 166.9 70.6 169.1V213C70.6 215.3 69.1 217.2 66.9 217.9L64.2 218.7C63.3 219 62.6 219.8 62.6 220.8V228.6C62.6 235.2 68 240.6 74.6 240.6H262.7C269.3 240.6 274.7 235.2 274.7 228.6V153.3C274.7 146.7 269.3 141.3 262.7 141.3H74.7C68.1 141.3 62.7 146.7 62.7 153.3Z" fill="#FEFEFE"/>
<path fill-rule="evenodd" clip-rule="evenodd" d="M178.2 206.3H159.3C158 206.3 156.9 205.2 156.9 203.9V191.1C156.9 189.8 158 188.7 159.3 188.7H178.2C179.5 188.7 180.6 189.8 180.6 191.1V204C180.6 205.3 179.5 206.3 178.2 206.3Z" fill="#D34554"/>
<path fill-rule="evenodd" clip-rule="evenodd" d="M169.2 197.4C169.8 197.2 170.3 196.6 170.3 195.9C170.3 195 169.6 194.3 168.7 194.3C167.8 194.3 167.1 195 167.1 195.9C167.1 196.6 167.6 197.2 168.2 197.4L167.3 200.3C167.2 200.6 167.4 200.8 167.7 200.8H169.7C170 200.8 170.2 200.5 170.1 200.3L169.2 197.4Z" fill="#FEFEFE"/>
<path fill-rule="evenodd" clip-rule="evenodd" d="M154.5 176C159.8 176 164 180.153 164 185.273V190.102H154.45H144.9V185.273C145 180.057 149.3 176 154.5 176ZM154.5 178.898C150.9 178.898 147.9 181.699 147.9 185.273V190.102H161V185.273C161.1 181.699 158.2 178.898 154.5 178.898Z" fill="#D34554"/>
<path fill-rule="evenodd" clip-rule="evenodd" d="M144.7 139.1C144.6 138.1 145.1 136.9 145.9 136H139.9C139.9 136.9 142.9 138 142.9 138C142.9 138 141.9 139.5 142.5 140.5C142.7 140.8 143 141.1 143.3 141.4H146.4C145.4 140.8 144.7 140 144.7 139.1Z" fill="#143853"/>
<path fill-rule="evenodd" clip-rule="evenodd" d="M192.4 138.7C192.5 137.7 193.8 136.9 193.1 135.9H199.1C199.1 136.8 196.1 137.9 196.1 137.9C196.1 137.9 197.1 139.4 196.5 140.4C196.3 140.7 196 141 195.7 141.3H189C190 140.8 192.3 139.7 192.4 138.7Z" fill="#143853"/>
<path fill-rule="evenodd" clip-rule="evenodd" d="M189.1 141.3C184.7 141.2 174.1 138.2 174.1 138.2L174.7 136H163.6L164.3 138.8C164.3 138.8 158.9 140.4 154.2 141.4H189.1V141.3Z" fill="#153449"/>
<path d="M40.3 246.2H298.7" stroke="#193F61"/>
<path fill-rule="evenodd" clip-rule="evenodd" d="M190.1 76.5001C190 76.5001 189.9 76.3001 189.8 76.3001C186.2 73.6001 183.9 69.3001 183.9 64.4001C183.9 63.9001 183.9 62.9001 183.9 62.8001C183.8 54.7001 177.4 48.3001 169.6 48.3001C161.9 48.3001 155.7 54.6001 155.3 62.5001C155.3 62.7001 155.3 62.9001 155.2 63.1001C154.9 65.7001 153.6 67.8001 151.6 69.4001C145.9 73.7001 142.2 80.7001 142.2 88.6001C142.2 101.3 151.9 111.7 164 112.4C167.6 115.2 172 116.8 176.9 116.8C188.8 116.8 198.5 106.8 198.5 94.4001C198.5 87.0001 195.2 80.6001 190.1 76.5001Z" fill="#193F61"/>
<path fill-rule="evenodd" clip-rule="evenodd" d="M195.1 119.7C195.1 119.7 187 119.4 183.7 119.9C183.7 119.9 181.6 115.5 180.9 114.1C179.7 115 159.3 115 158.1 114.1C157.8 114.7 156.4 118.1 155.5 119.9C149.3 119.3 143.8 119.7 143.8 119.7C143.8 119.7 137.6 119.6 136.4 119.8L168.8 126.9H168.9H169L203.4 120C202.2 119.7 195.1 119.7 195.1 119.7Z" fill="#143853"/>
<path fill-rule="evenodd" clip-rule="evenodd" d="M172.7 74.5001C172.6 73.0001 172.7 71.7001 172.7 71.7001H169.5H166.3C166.3 71.7001 166.4 73.0001 166.3 74.5001C166.2 76.0001 163.8 76.4001 163.8 76.4001V80.0001H169.6H169.8H175.3V76.5001C175.2 76.4001 172.9 76.0001 172.7 74.5001Z" fill="#E17981"/>
<path fill-rule="evenodd" clip-rule="evenodd" d="M176.9 61.4001C173.6 61.4001 170.8 59.2001 169.7 56.0001C169.6 55.7001 169.2 55.7001 169.2 56.0001C168.1 59.1001 165.3 61.4001 162 61.4001C162 61.7001 162 62.0001 162 62.2001C162 67.9001 166.6 73.3001 169.6 73.3001C172.6 73.3001 177.2 67.9001 177.2 62.2001C177.2 61.9001 177.2 61.6001 177.2 61.4001C177 61.4001 176.9 61.4001 176.9 61.4001Z" fill="#EF888B"/>
<path fill-rule="evenodd" clip-rule="evenodd" d="M212.1 117.5C210.2 111.2 198 112.8 190.5 114.5C182.9 116.2 177.1 120.6 169.5 120.6C161.9 120.6 156.2 116.2 148.5 114.5C140.8 112.9 128.8 111.2 126.9 117.5C125 123.8 144.3 136.5 169.5 137.9C194.8 136.6 214 123.8 212.1 117.5Z" fill="#143853"/>
<path fill-rule="evenodd" clip-rule="evenodd" d="M149.3 133.9C149.4 133.9 159.5 133.9 160.2 133.9C160.9 133.9 163.3 134.6 163.3 134.6L164.4 138.8C164.4 138.8 153.6 142.1 149.3 142.1C147 142.1 144.7 140.9 144.6 139.2C144.5 136.9 147.1 133.9 149.3 133.9Z" fill="#D34554"/>
<path fill-rule="evenodd" clip-rule="evenodd" d="M212.1 117.6C209.7 110.5 199.5 115.1 186.8 120.4C174.1 125.7 163.6 132.2 161.6 133.4C161.5 133.5 161.5 133.5 161.5 133.7C161.5 134 161.3 135.1 161.8 136.7C162.3 138.1 162.9 138.6 163.2 138.9C163.4 139.1 163.6 139.1 163.9 139.1C169.5 139.1 182.5 137.5 196 132.2C209.4 126.8 212.8 120.8 212.1 117.6Z" fill="#193F61"/>
<path fill-rule="evenodd" clip-rule="evenodd" d="M189.3 133.6C189.2 133.6 179.1 133.6 178.5 133.6C177.8 133.6 175.4 134.2 175.4 134.2L174.3 138.2C174.3 138.2 185.1 141.3 189.4 141.3C191.7 141.3 194 140.2 194.1 138.6C194.1 136.5 191.4 133.6 189.3 133.6Z" fill="#D34554"/>
<path fill-rule="evenodd" clip-rule="evenodd" d="M205.3 112.3C205.3 112.3 207.2 113.2 208.9 113.8C210.4 114.3 212.1 116.1 212.2 116.2C212.7 117 212.7 119.2 212.6 119.2C212.3 119.2 212.6 118.6 212.1 118C211.7 117.5 211.7 117.3 211.7 117.3C211.7 117.3 212 117.6 212.2 118.1C212.4 118.9 212.4 120.4 212.2 120.4C212 120.4 212 118.9 211.5 118.2C211 117.5 210.6 117.2 210.6 117.2C210.6 117.2 211.1 117.6 211.5 118.4C212 119.4 211.6 121 211.4 121C211 120.9 211.4 119.7 210.8 118.8C210.3 118 209.2 116.7 208.5 117.4C208 117.9 209.3 119.6 209.2 119.7C209 120 208 119.1 207 117.6C206 116.2 205.1 114.2 204.6 114.1L205.3 112.3Z" fill="#EF888B"/>
<path fill-rule="evenodd" clip-rule="evenodd" d="M126.8 117.6C129.2 110.5 139.4 115.1 152.1 120.4C164.8 125.7 175.3 132.2 177.3 133.4C177.4 133.5 177.4 133.5 177.4 133.7C177.4 134 177.6 135.1 177.1 136.7C176.6 138.1 176 138.6 175.7 138.9C175.5 139.1 175.3 139.1 175 139.1C169.4 139.1 156.4 137.5 142.9 132.2C129.6 126.8 126.1 120.8 126.8 117.6Z" fill="#193F61"/>
<path fill-rule="evenodd" clip-rule="evenodd" d="M133.2 112C133.2 112 131.4 113.1 129.8 113.8C128.3 114.4 126.8 116.4 126.8 116.5C126.4 117.3 126.6 119.5 126.8 119.5C127.1 119.5 126.8 118.9 127.1 118.3C127.4 117.7 127.4 117.5 127.4 117.5C127.4 117.5 127.1 117.9 127 118.4C126.9 119.2 127 120.7 127.2 120.6C127.4 120.6 127.3 119.1 127.7 118.4C128.1 117.7 128.5 117.3 128.5 117.3C128.5 117.3 128 117.8 127.7 118.6C127.3 119.6 127.9 121.2 128.1 121.1C128.4 120.9 127.9 119.9 128.4 118.9C128.8 118.1 129.8 116.7 130.5 117.3C131 117.8 129.9 119.5 130 119.7C130.2 119.9 131.1 119 132 117.4C132.8 116 133.5 113.9 134 113.7L133.2 112Z" fill="#EF888B"/>
<path fill-rule="evenodd" clip-rule="evenodd" d="M206 112.1C206 112.1 196.5 105.3 193.4 100.8C189.9 95.8001 190.4 84.7001 185.5 80.2001C181.9 76.9001 174.8 76.3001 174.8 76.3001C174.8 76.3001 173.7 79.8001 169.3 79.9001C164.9 79.8001 163.8 76.4001 163.8 76.4001C163.8 76.4001 156.6 76.9001 153 80.2001C148.1 84.7001 148.6 95.8001 145.1 100.8C142 105.3 132.5 112.1 132.5 112.1C132.5 112.1 132.2 112.9 133.1 113.8C134 114.7 134.6 114.7 134.6 114.7C134.6 114.7 146.2 110.9 151.3 104.6C156.4 98.3001 156.6 91.8001 156.6 91.8001C156.6 91.8001 158.1 102.4 158.2 108.3C158.2 108.9 158 112.9 157.6 114C157.4 114.7 163.9 116.5 169.3 116.6C174.7 116.6 181.2 114.7 181 114C180.6 112.9 180.4 108.9 180.4 108.3C180.5 102.4 182 91.8001 182 91.8001C182 91.8001 183.7 98.9001 188.7 105.2C193.8 111.5 204 114.7 204 114.7C204 114.7 204.7 114.7 205.5 113.8C206.3 112.9 206 112.1 206 112.1Z" fill="#D34554"/>
<path fill-rule="evenodd" clip-rule="evenodd" d="M170.3 57.3001C170.1 56.9001 169.9 56.5001 169.7 56.0001C169.6 55.7001 169.3 55.7001 169.2 56.0001C168.1 59.1001 165.3 61.4001 162 61.4001C162 61.5001 162 61.6001 162 61.6001C162.2 61.6001 168 61.4001 170.3 57.3001Z" fill="#E17981"/>
<path fill-rule="evenodd" clip-rule="evenodd" d="M172.7 71.7001C171.6 72.7001 170.4 73.3001 169.5 73.3001C168.6 73.3001 167.5 72.8001 166.4 71.8001C166.9 72.5001 169 74.7001 172.8 74.6001C172.8 74.6001 172.8 74.5001 172.8 74.4001C172.6 73.1001 172.7 72.0001 172.7 71.7001Z" fill="#D77480"/>
<path fill-rule="evenodd" clip-rule="evenodd" d="M156.6 92.0001C156.6 91.9001 156.6 91.5001 156.5 91.6001C156.5 91.6001 156.2 93.8001 155.5 96.1001C154.3 100 151.9 103.8 151.6 104.3C156 98.5001 156.5 92.8001 156.6 92.0001Z" fill="#C53549"/>
<path fill-rule="evenodd" clip-rule="evenodd" d="M181.9 91.6001C181.7 91.6001 180.1 107.4 179.4 110.9C178.9 113.5 177.9 115.4 177.9 115.4C179.8 114.9 181.1 114.3 181 114C180.6 112.9 180.4 108.9 180.4 108.3C180.5 102.4 182 91.8001 182 91.8001C182 91.8001 182 91.6001 181.9 91.6001Z" fill="#C53549"/>
<path fill-rule="evenodd" clip-rule="evenodd" d="M178.2 118.8C179.6 118.3 181 117.7 182.4 117.2L180.9 114.2C180.7 114.5 179.5 115 177.8 115.5C177.8 115.5 178.8 117.4 179 118.4C179 118.3 178.2 118.7 178.2 118.8Z" fill="#153449"/>
<path fill-rule="evenodd" clip-rule="evenodd" d="M160.6 118.8C160.5 118.7 159.8 118.3 159.8 118.3C158.2 117.3 157.5 116.1 157.2 115.7C157 116.1 156.8 116.6 156.6 117.2C158 117.7 159.3 118.3 160.6 118.8Z" fill="#153449"/>
<path fill-rule="evenodd" clip-rule="evenodd" d="M162.2 137.6C162.6 138.3 163 138.6 163.2 138.8C163.4 139 163.6 139 163.9 139C165.3 139 167.2 138.9 169.5 138.7C167.3 138.5 164.9 138.1 162.2 137.6Z" fill="#143853"/>
<path fill-rule="evenodd" clip-rule="evenodd" d="M148.4 134C148.2 134.1 148.1 134.1 148 134.2C148 134.2 151.6 137.7 156.5 139C158.8 139.6 161 139.7 161.1 139.7C163.1 139.2 164.5 138.7 164.5 138.7L164.3 137.9C159.6 137.2 154.1 135.9 148.4 134Z" fill="#C53549"/>
<path fill-rule="evenodd" clip-rule="evenodd" d="M177.1 136.7C176.7 137.8 176.2 138.4 175.9 138.7C177.9 139.2 181.3 140.1 184.4 140.7C178 138.3 177.7 133.8 177.7 133.7C177.5 133.7 177.7 133.7 177.5 133.7C177.5 134.1 177.7 135.1 177.1 136.7Z" fill="#C53549"/>
<path fill-rule="evenodd" clip-rule="evenodd" d="M133 113.9C132.7 113.6 132.6 113.3 132.5 113C132.7 113.5 133 115.2 132.1 117.3C132.6 116.3 133.1 115 133.5 114.3C133.4 114.2 133.2 114.1 133 113.9Z" fill="#E17981"/>
<path fill-rule="evenodd" clip-rule="evenodd" d="M212.2 116.2C212.1 116.1 210.4 114.3 208.9 113.8C207.8 113.5 206.8 113 206.1 112.7C206.1 113 205.9 113.4 205.5 113.9C205.3 114.1 205.1 114.3 204.9 114.4C205 114.5 205 114.5 205.1 114.6C205.1 114.6 205.6 114 206.3 114C207 114 211.2 114 212.2 118.1C212.2 118.2 212.3 118.3 212.3 118.5C212.3 118.4 212.3 118.3 212.3 118.3C212.5 118.8 212.4 119.3 212.6 119.2C212.8 119.2 212.7 117 212.2 116.2Z" fill="#E17981"/>
</g>
<defs>
<clipPath id="clip0">
<rect width="341" height="247" fill="white"/>
</clipPath>
</defs>
</svg>
