<?xml version="1.0" encoding="UTF-8" standalone="no"?><!DOCTYPE svg PUBLIC "-//W3C//DTD SVG 1.1//EN" "http://www.w3.org/Graphics/SVG/1.1/DTD/svg11.dtd"><svg width="100%" height="100%" viewBox="0 0 167 184" version="1.1" xmlns="http://www.w3.org/2000/svg" xmlns:xlink="http://www.w3.org/1999/xlink" xml:space="preserve" xmlns:serif="http://www.serif.com/" style="fill-rule:evenodd;clip-rule:evenodd;stroke-linejoin:round;stroke-miterlimit:2;"><g id="Symbols"><g id="btn-menu-qr-normal" serif:id="btn/menu/qr/normal"><g id="Group-2"><g><g id="qr-scan-klein-2" serif:id="qr-scan/klein/2"><path id="Combined-Shape" d="M77.342,2.083l-0,51.563l-51.563,-0l0,-51.563l51.563,0Zm-9.375,9.375l-32.813,0l0,32.813l32.813,-0l-0,-32.813Zm-9.375,9.375l-0,14.063l-14.063,-0l0,-14.063l14.063,0Z" style="fill:#3c4b5a;"/><path id="Combined-Shape1" serif:id="Combined-Shape" d="M138.279,2.083l0,51.563l-51.562,-0l-0,-51.563l51.562,0Zm-18.75,18.75l-14.062,0l-0,14.063l14.062,-0l0,-14.063Z" style="fill:#3c4b5a;"/><path id="Combined-Shape2" serif:id="Combined-Shape" d="M25.779,63.021l9.375,-0l-0.004,42.187l42.192,0l-0,9.375l-51.563,0l0,-51.562Z" style="fill:#3c4b5a;"/><path id="Combined-Shape3" serif:id="Combined-Shape" d="M138.279,63.021l0,51.562l-51.562,0l-0,-42.187l9.375,-0l-0,32.812l32.812,0l0,-32.816l-42.187,0.004l-0,-9.375l51.562,-0Z" style="fill:#3c4b5a;"/></g></g></g><g transform="matrix(4.16667,0,0,4.16667,-11.1029,10.1852)"><g transform="matrix(11,0,0,11,2.0192,39.5556)"><path d="M0.436,-0.476c-0.011,-0.061 -0.056,-0.092 -0.135,-0.092c-0.042,0 -0.074,0.009 -0.097,0.028c-0.023,0.018 -0.034,0.04 -0.034,0.066c0,0.025 0.007,0.045 0.021,0.058c0.014,0.013 0.037,0.025 0.068,0.035l0.131,0.045c0.045,0.015 0.08,0.036 0.106,0.063c0.027,0.027 0.04,0.064 0.04,0.113c0,0.048 -0.021,0.089 -0.062,0.122c-0.041,0.033 -0.097,0.049 -0.166,0.049c-0.069,0 -0.126,-0.017 -0.171,-0.052c-0.044,-0.035 -0.067,-0.085 -0.068,-0.148l0.077,0c-0,0.041 0.014,0.073 0.043,0.095c0.029,0.022 0.067,0.033 0.112,0.033c0.046,0 0.082,-0.01 0.109,-0.03c0.027,-0.021 0.04,-0.045 0.04,-0.072c0,-0.028 -0.008,-0.05 -0.025,-0.066c-0.016,-0.016 -0.04,-0.029 -0.072,-0.04l-0.111,-0.041c-0.052,-0.017 -0.091,-0.038 -0.118,-0.062c-0.027,-0.024 -0.04,-0.059 -0.04,-0.106c0,-0.046 0.019,-0.085 0.056,-0.116c0.037,-0.03 0.09,-0.046 0.157,-0.046c0.067,0 0.119,0.015 0.155,0.044c0.035,0.03 0.056,0.07 0.061,0.12l-0.077,-0Z" style="fill:#3c4b5a;fill-rule:nonzero;"/></g><g transform="matrix(11,0,0,11,8.6742,39.5556)"><path d="M0.26,-0.49c0.057,0 0.102,0.015 0.135,0.043c0.033,0.03 0.055,0.066 0.065,0.109l-0.08,0.007c-0.009,-0.028 -0.023,-0.05 -0.042,-0.066c-0.019,-0.015 -0.041,-0.023 -0.064,-0.023c-0.043,0 -0.077,0.016 -0.104,0.048c-0.026,0.032 -0.039,0.076 -0.039,0.131c0,0.055 0.013,0.099 0.039,0.132c0.025,0.033 0.057,0.05 0.096,0.05c0.038,0 0.067,-0.009 0.086,-0.026c0.018,-0.018 0.028,-0.043 0.028,-0.076l0.081,0c-0,0.051 -0.018,0.093 -0.054,0.125c-0.035,0.031 -0.082,0.047 -0.139,0.047c-0.061,0 -0.112,-0.023 -0.155,-0.069c-0.042,-0.046 -0.063,-0.107 -0.063,-0.183c-0,-0.077 0.021,-0.137 0.063,-0.182c0.042,-0.045 0.091,-0.067 0.147,-0.067Z" style="fill:#3c4b5a;fill-rule:nonzero;"/></g><g transform="matrix(11,0,0,11,14.3392,39.5556)"><path d="M0.397,-0.31c0,-0.043 -0.009,-0.074 -0.027,-0.093c-0.018,-0.019 -0.044,-0.028 -0.079,-0.028c-0.034,0 -0.061,0.007 -0.082,0.021c-0.021,0.013 -0.032,0.035 -0.032,0.064l-0.087,0c0,-0.073 0.039,-0.119 0.118,-0.136c0.024,-0.005 0.05,-0.008 0.078,-0.008c0.059,0 0.106,0.015 0.139,0.045c0.033,0.03 0.05,0.076 0.05,0.137l0,0.308l-0.068,0l-0.008,-0.08c-0.029,0.061 -0.082,0.091 -0.159,0.091c-0.051,0 -0.092,-0.014 -0.123,-0.043c-0.031,-0.029 -0.047,-0.064 -0.047,-0.107c0,-0.043 0.017,-0.076 0.052,-0.1c0.034,-0.024 0.077,-0.036 0.128,-0.036c0.051,0 0.1,0.009 0.147,0.026l0,-0.061Zm0,0.111c-0.047,-0.013 -0.089,-0.02 -0.124,-0.02c-0.035,0 -0.064,0.006 -0.086,0.019c-0.022,0.013 -0.033,0.033 -0.033,0.06c0,0.06 0.034,0.09 0.102,0.09c0.039,0 0.072,-0.014 0.1,-0.041c0.027,-0.028 0.041,-0.064 0.041,-0.108Z" style="fill:#3c4b5a;fill-rule:nonzero;"/></g><g transform="matrix(11,0,0,11,20.4992,39.5556)"><path d="M0.177,-0.386c0.031,-0.069 0.085,-0.104 0.161,-0.104c0.057,0 0.101,0.019 0.133,0.056c0.031,0.037 0.047,0.088 0.047,0.153l0,0.281l-0.078,-0l0,-0.281c0,-0.046 -0.011,-0.081 -0.032,-0.104c-0.022,-0.023 -0.053,-0.035 -0.093,-0.035c-0.04,0 -0.072,0.016 -0.097,0.049c-0.025,0.033 -0.038,0.078 -0.039,0.136l-0,0.235l-0.079,0l-0,-0.478l0.068,0l0.009,0.092Z" style="fill:#3c4b5a;fill-rule:nonzero;"/></g><g transform="matrix(11,0,0,11,29.2742,39.5556)"><path d="M0.596,0.148c-0.027,0.013 -0.055,0.019 -0.084,0.019c-0.057,0 -0.105,-0.03 -0.146,-0.089l-0.047,-0.067c-0.081,-0.001 -0.146,-0.03 -0.195,-0.085c-0.049,-0.055 -0.073,-0.136 -0.073,-0.241c0,-0.105 0.025,-0.186 0.075,-0.242c0.049,-0.055 0.115,-0.083 0.197,-0.083c0.081,-0 0.147,0.028 0.197,0.083c0.051,0.056 0.076,0.137 0.076,0.243c0,0.088 -0.018,0.159 -0.053,0.212c-0.035,0.054 -0.083,0.089 -0.144,0.104l0.031,0.044c0.019,0.026 0.042,0.04 0.069,0.041c0.029,-0 0.061,-0.008 0.097,-0.025l0,0.086Zm-0.273,-0.717c-0.059,-0 -0.105,0.022 -0.139,0.066c-0.034,0.044 -0.051,0.107 -0.051,0.19c0,0.083 0.017,0.145 0.051,0.188c0.034,0.043 0.08,0.064 0.139,0.064c0.059,-0 0.105,-0.021 0.14,-0.064c0.034,-0.043 0.051,-0.105 0.051,-0.188c0,-0.083 -0.017,-0.146 -0.051,-0.19c-0.035,-0.044 -0.081,-0.066 -0.14,-0.066Z" style="fill:#3c4b5a;fill-rule:nonzero;"/></g><g transform="matrix(11,0,0,11,36.4462,39.5556)"><path d="M0.539,-0.449c0,0.052 -0.014,0.094 -0.042,0.126c-0.027,0.032 -0.068,0.053 -0.122,0.062l0.18,0.261l-0.102,-0l-0.163,-0.257l-0.11,0l-0,0.257l-0.079,-0l-0,-0.629l0.219,0c0.071,0 0.125,0.017 0.162,0.051c0.038,0.034 0.057,0.077 0.057,0.129Zm-0.225,0.137c0.047,-0 0.083,-0.012 0.107,-0.035c0.025,-0.023 0.037,-0.053 0.037,-0.091c-0,-0.037 -0.012,-0.067 -0.036,-0.09c-0.023,-0.022 -0.057,-0.033 -0.102,-0.033l-0.14,-0l-0,0.249l0.134,-0Z" style="fill:#3c4b5a;fill-rule:nonzero;"/></g></g></g></g></svg>