<?xml version="1.0" encoding="UTF-8" standalone="no"?><!DOCTYPE svg PUBLIC "-//W3C//DTD SVG 1.1//EN" "http://www.w3.org/Graphics/SVG/1.1/DTD/svg11.dtd"><svg width="100%" height="100%" viewBox="0 0 92 180" version="1.1" xmlns="http://www.w3.org/2000/svg" xmlns:xlink="http://www.w3.org/1999/xlink" xml:space="preserve" xmlns:serif="http://www.serif.com/" style="fill-rule:evenodd;clip-rule:evenodd;stroke-linejoin:round;stroke-miterlimit:2;"><g id="Symbols"><g id="btn-menu-help-normal" serif:id="btn/menu/help/normal"><g id="Group"><g><path id="Help" d="M5.981,137.838l0,12.695l14.163,0l-0,-12.695l3.621,-0l-0,28.829l-3.621,-0l-0,-13.017l-14.163,0l0,13.017l-3.621,-0l0,-28.829l3.621,-0Zm34.604,26.4c3.025,-0 4.752,-1.33 5.18,-3.988l3.712,0c-0.336,2.2 -1.306,3.903 -2.91,5.11c-1.605,1.207 -3.598,1.811 -5.982,1.811c-2.933,-0 -5.316,-1.047 -7.15,-3.14c-1.833,-2.093 -2.75,-4.881 -2.75,-8.364c0,-3.484 0.925,-6.264 2.773,-8.342c1.849,-2.078 4.309,-3.117 7.379,-3.117c3.071,0 5.363,1.192 6.875,3.575c1.513,2.384 2.04,5.286 1.582,8.709l-14.988,-0c0,2.261 0.55,4.117 1.65,5.568c1.1,1.452 2.643,2.177 4.629,2.177Zm2.659,-16.591c-0.703,-0.367 -1.559,-0.55 -2.567,-0.55c-1.864,-0 -3.338,0.634 -4.423,1.902c-1.085,1.268 -1.719,2.849 -1.902,4.744l11.688,-0c-0,-3.056 -0.932,-5.088 -2.796,-6.096Zm36.048,-3.438c2.857,0 5.24,1.054 7.15,3.163c1.909,2.108 2.864,4.889 2.864,8.341c0,3.453 -0.962,6.226 -2.887,8.319c-1.925,2.093 -4.293,3.14 -7.104,3.14c-2.812,-0 -4.889,-1.054 -6.234,-3.163l0,13.43l-3.621,-0l0,-32.68l2.98,0l0.412,3.346c1.436,-2.597 3.583,-3.896 6.44,-3.896Zm-19.044,-8.754l-0,31.213l-3.621,-0l0,-31.213l3.621,0Zm18.975,11.963c-1.772,-0 -3.224,0.557 -4.354,1.673c-1.131,1.115 -1.727,2.62 -1.788,4.514l0,4.171c0,1.925 0.581,3.437 1.742,4.538c1.161,1.1 2.597,1.65 4.308,1.65c1.711,-0 3.216,-0.734 4.515,-2.2c1.298,-1.467 1.948,-3.476 1.948,-6.028c-0,-2.551 -0.619,-4.575 -1.857,-6.073c-1.237,-1.497 -2.742,-2.245 -4.514,-2.245Z" style="fill:#3c4b5a;fill-rule:nonzero;"/><path id="_-" serif:id="?" d="M78.488,27.692c-0,5.005 -1.228,9.184 -3.684,12.537c-2.251,3.074 -5.692,5.849 -10.324,8.328l-1.293,0.668c-4.438,2.267 -7.343,4.203 -8.712,5.808c-1.369,1.606 -2.243,3.093 -2.621,4.463c-0.378,1.369 -0.567,2.951 -0.567,4.746l0,4.108l-16.716,0l-0,-5.667c-0,-8.5 2.55,-14.544 7.65,-18.133c1.794,-1.322 4.439,-2.881 7.933,-4.675c3.495,-1.794 6.021,-3.612 7.579,-5.454c1.559,-1.842 2.338,-4.203 2.338,-7.084c-0,-2.88 -1.181,-5.288 -3.542,-7.225c-2.361,-1.936 -5.855,-2.904 -10.483,-2.904c-4.628,0 -8.264,1.11 -10.909,3.329c-2.644,2.22 -4.155,5.124 -4.533,8.713l-17.425,-0c0.472,-8.217 3.495,-14.804 9.067,-19.763c5.572,-4.958 13.387,-7.437 23.446,-7.437c10.058,-0 18.039,2.456 23.941,7.367c5.903,4.911 8.855,11.002 8.855,18.275Zm-46.751,58.933c0,-3.211 1.063,-5.856 3.188,-7.933c2.125,-2.078 4.911,-3.117 8.358,-3.117c3.448,0 6.304,1.039 8.571,3.117c2.267,2.077 3.4,4.722 3.4,7.933c0,3.211 -1.133,5.879 -3.4,8.004c-2.267,2.125 -5.123,3.188 -8.571,3.188c-3.447,-0 -6.233,-1.063 -8.358,-3.188c-2.125,-2.125 -3.188,-4.793 -3.188,-8.004Z" style="fill:#3c4b5a;fill-rule:nonzero;"/></g></g></g></g></svg>