<?xml version="1.0" encoding="UTF-8"?>
<svg width="22px" height="43px" viewBox="0 0 22 43" version="1.1" xmlns="http://www.w3.org/2000/svg" xmlns:xlink="http://www.w3.org/1999/xlink">
    <!-- Generator: Sketch 59.1 (86144) - https://sketch.com -->
    <title>Group</title>
    <desc>Created with Sketch.</desc>
    <g id="Symbols" stroke="none" stroke-width="1" fill="none" fill-rule="evenodd">
        <g id="btn/menu/help/normal" transform="translate(-20.000000, -14.000000)" fill="#3C4B5A" fill-rule="nonzero">
            <g id="Group">
                <g transform="translate(20.292000, 14.492000)">
                    <path d="M0.869,32.589 L0.869,35.636 L4.268,35.636 L4.268,32.589 L5.137,32.589 L5.137,39.508 L4.268,39.508 L4.268,36.384 L0.869,36.384 L0.869,39.508 L1.00541797e-12,39.508 L1.00541797e-12,32.589 L0.869,32.589 Z M9.174,38.925 C9.90000363,38.925 10.3143328,38.6060032 10.417,37.968 L11.308,37.968 C11.2273329,38.4960026 10.9945019,38.9048319 10.6095,39.1945 C10.2244981,39.4841681 9.74600286,39.629 9.174,39.629 C8.46999648,39.629 7.8980022,39.3778358 7.458,38.8755 C7.0179978,38.3731642 6.798,37.7040042 6.798,36.868 C6.798,36.0319958 7.01983112,35.3646692 7.4635,34.866 C7.90716889,34.3673308 8.49749632,34.118 9.2345,34.118 C9.97150369,34.118 10.5214982,34.4039971 10.8845,34.976 C11.2475018,35.5480029 11.3740006,36.2446626 11.264,37.066 L7.667,37.066 C7.667,37.6086694 7.79899868,38.0541649 8.063,38.4025 C8.32700132,38.7508351 8.69733095,38.925 9.174,38.925 Z M9.812,34.943 C9.64333249,34.8549996 9.43800121,34.811 9.196,34.811 C8.74866443,34.811 8.39483464,34.9631651 8.1345,35.2675 C7.87416537,35.5718349 7.72200022,35.9513311 7.678,36.406 L10.483,36.406 C10.483,35.672663 10.2593356,35.1850012 9.812,34.943 Z M18.4635,34.118 C19.1491701,34.118 19.7211644,34.3709975 20.1795,34.877 C20.6378356,35.3830025 20.867,36.0503292 20.867,36.879 C20.867,37.7076708 20.6360023,38.3731642 20.174,38.8755 C19.7119977,39.3778358 19.14367,39.629 18.469,39.629 C17.79433,39.629 17.2956683,39.3760025 16.973,38.87 L16.973,42.093 L16.104,42.093 L16.104,34.25 L16.819,34.25 L16.918,35.053 C17.2626684,34.4296636 17.7778299,34.118 18.4635,34.118 Z M13.893,32.017 L13.893,39.508 L13.024,39.508 L13.024,32.017 L13.893,32.017 Z M18.447,34.888 C18.0216645,34.888 17.6733347,35.021832 17.402,35.2895 C17.1306653,35.557168 16.9876667,35.9183311 16.973,36.373 L16.973,36.373 L16.973,37.374 C16.973,37.8360023 17.1123319,38.1989987 17.391,38.463 C17.6696681,38.7270013 18.0143313,38.859 18.425,38.859 C18.8356687,38.859 19.1968318,38.6830018 19.5085,38.331 C19.8201682,37.9789982 19.976,37.4968364 19.976,36.8845 C19.976,36.2721636 19.8275015,35.7863351 19.5305,35.427 C19.2334985,35.0676649 18.8723355,34.888 18.447,34.888 Z" id="Help"></path>
                    <path d="M17.198,6.154 C17.198,7.35533934 16.9033363,8.35832931 16.314,9.163 C15.7737751,9.9006148 14.947866,10.5667966 13.8362513,11.1615619 L13.526,11.322 C12.4606613,11.8660027 11.7636683,12.3306647 11.435,12.716 C11.1063317,13.1013353 10.8966671,13.4583317 10.806,13.787 C10.7153329,14.1156683 10.67,14.4953312 10.67,14.926 L10.67,15.912 L6.658,15.912 L6.658,14.552 C6.658,12.5119898 7.26999388,11.0613376 8.494,10.2 C8.92466882,9.88266508 9.55932914,9.50866882 10.398,9.078 C11.2366709,8.64733118 11.8429981,8.21100221 12.217,7.769 C12.5910019,7.32699779 12.778,6.76033679 12.778,6.069 C12.778,5.37766321 12.4946695,4.79966899 11.928,4.335 C11.3613305,3.87033101 10.5226722,3.638 9.412,3.638 C8.30132778,3.638 7.42866984,3.90433067 6.794,4.437 C6.15933016,4.96966933 5.79666712,5.66666236 5.706,6.528 L1.524,6.528 C1.6373339,4.55599014 2.36265998,2.97500595 3.7,1.785 C5.03734002,0.59499405 6.91298793,-1.42108547e-14 9.327,-1.42108547e-14 C11.7410121,-1.42108547e-14 13.6563263,0.58932744 15.073,1.768 C16.4896738,2.94667256 17.198,4.40865794 17.198,6.154 Z M5.978,20.298 C5.978,19.5273295 6.23299745,18.8926692 6.743,18.394 C7.25300255,17.8953308 7.92166253,17.646 8.749,17.646 C9.57633747,17.646 10.2619973,17.8953308 10.806,18.394 C11.3500027,18.8926692 11.622,19.5273295 11.622,20.298 C11.622,21.0686705 11.3500027,21.7089975 10.806,22.219 C10.2619973,22.7290026 9.57633747,22.984 8.749,22.984 C7.92166253,22.984 7.25300255,22.7290026 6.743,22.219 C6.23299745,21.7089975 5.978,21.0686705 5.978,20.298 Z" id="?"></path>
                </g>
            </g>
        </g>
    </g>
</svg>