<?xml version="1.0" encoding="UTF-8"?>
<svg width="40px" height="44px" viewBox="0 0 40 44" version="1.1" xmlns="http://www.w3.org/2000/svg" xmlns:xlink="http://www.w3.org/1999/xlink">
    <!-- Generator: Sketch 59.1 (86144) - https://sketch.com -->
    <title>Group 2</title>
    <desc>Created with Sketch.</desc>
    <g id="Symbols" stroke="none" stroke-width="1" fill="none" fill-rule="evenodd">
        <g id="btn/menu/qr/normal" transform="translate(-10.000000, -12.000000)" fill="#3C4B5A">
            <g id="Group-2">
                <g transform="translate(10.000000, 8.000000)">
                    <g id="qr-scan/klein/2" transform="translate(2.000000, 0.000000)">
                        <path d="M16.875,4.5 L16.875,16.875 L4.5,16.875 L4.5,4.5 L16.875,4.5 Z M14.625,6.75 L6.75,6.75 L6.75,14.625 L14.625,14.625 L14.625,6.75 Z M12.375,9 L12.375,12.375 L9,12.375 L9,9 L12.375,9 Z" id="Combined-Shape"></path>
                        <path d="M31.5,4.5 L31.5,16.875 L19.125,16.875 L19.125,4.5 L31.5,4.5 Z M27,9 L23.625,9 L23.625,12.375 L27,12.375 L27,9 Z" id="Combined-Shape"></path>
                        <path d="M4.5,19.125 L6.75,19.125 L6.749,29.25 L16.875,29.25 L16.875,31.5 L4.5,31.5 L4.5,19.125 Z" id="Combined-Shape"></path>
                        <path d="M31.5,19.125 L31.5,31.5 L19.125,31.5 L19.125,21.375 L21.375,21.375 L21.375,29.25 L29.25,29.25 L29.25,21.374 L19.125,21.375 L19.125,19.125 L31.5,19.125 Z" id="Combined-Shape"></path>
                    </g>
                    <path d="M6.6675,47.628 C6.3741652,47.767334 6.06616828,47.837 5.7435,47.837 C5.12016355,47.837 4.58483557,47.5106699 4.1375,46.858 L3.6205,46.121 C2.73316223,46.1063333 2.0200027,45.7946697 1.481,45.186 C0.941997305,44.5773303 0.6725,43.6936725 0.6725,42.535 C0.6725,41.3763275 0.945663935,40.4908364 1.492,39.8785 C2.03833607,39.2661636 2.76249549,38.96 3.6645,38.96 C4.55917114,38.96 5.28333057,39.2661636 5.837,39.8785 C6.39066944,40.4908364 6.6675,41.3799942 6.6675,42.546 C6.6675,43.5140048 6.47316861,44.2931637 6.0845,44.8835 C5.69583139,45.4738363 5.16783667,45.8533325 4.5005,46.022 L4.8415,46.506 C5.05416773,46.7920014 5.3071652,46.9423333 5.6005,46.957 C5.91583491,46.957 6.27149802,46.8653343 6.6675,46.682 L6.6675,47.628 Z M3.6645,39.741 C3.01916344,39.741 2.50950187,39.9829976 2.1355,40.467 C1.76149813,40.9510024 1.5745,41.6476621 1.5745,42.557 C1.5745,43.4663379 1.76149813,44.1556643 2.1355,44.625 C2.50950187,45.0943357 3.01916344,45.329 3.6645,45.329 C4.30983656,45.329 4.82133145,45.0943357 5.199,44.625 C5.57666856,44.1556643 5.7655,43.4663379 5.7655,42.557 C5.7655,41.6476621 5.57666856,40.9510024 5.199,40.467 C4.82133145,39.9829976 4.30983656,39.741 3.6645,39.741 Z M13.2125,41.061 C13.2125,41.6330029 13.0603349,42.0949982 12.756,42.447 C12.4516651,42.7990018 12.002503,43.0263328 11.4085,43.129 L13.3885,46 L12.2665,46 L10.4735,43.173 L9.2635,43.173 L9.2635,46 L8.3945,46 L8.3945,39.081 L10.8035,39.081 C11.5808372,39.081 12.1766646,39.2679981 12.591,39.642 C13.0053354,40.0160019 13.2125,40.4889971 13.2125,41.061 Z M10.7375,42.568 C11.2581693,42.568 11.652332,42.4415013 11.92,42.1885 C12.187668,41.9354987 12.3215,41.6018354 12.3215,41.1875 C12.3215,40.7731646 12.1913346,40.4431679 11.931,40.1975 C11.6706654,39.9518321 11.2948358,39.829 10.8035,39.829 L9.2635,39.829 L9.2635,42.568 L10.7375,42.568 Z M17.4805,42.029 C17.4805,41.5963312 17.6656648,41.2516679 18.036,40.995 C18.4063352,40.738332 18.9068302,40.61 19.5375,40.61 C20.1681698,40.61 20.6613316,40.7419987 21.017,41.006 C21.3726684,41.2700013 21.5578333,41.6036646 21.5725,42.007 L20.7255,42.007 C20.6594997,41.5303309 20.2561704,41.292 19.5155,41.292 C19.1561649,41.292 18.8793343,41.3726659 18.685,41.534 C18.4906657,41.6953341 18.3935,41.8694991 18.3935,42.0565 C18.3935,42.2435009 18.4668326,42.401166 18.6135,42.5295 C18.7357228,42.636445 18.9190546,42.7319304 19.1634995,42.8159582 L20.3735,43.217 C20.8208356,43.356334 21.1636655,43.5341656 21.402,43.7505 C21.6403345,43.9668344 21.7595,44.2638314 21.7595,44.6415 C21.7595,45.0191686 21.5651686,45.3601651 21.1765,45.6645 C20.7878314,45.9688349 20.2451702,46.121 19.5485,46.121 C18.8518299,46.121 18.3091686,45.9651682 17.9205,45.6535 C17.5318314,45.3418318 17.3265001,44.9403358 17.3045,44.449 L18.1405,44.449 C18.1551667,44.7790016 18.2889987,45.0264992 18.542,45.1915 C18.7950013,45.3565008 19.1121648,45.439 19.4935,45.439 C19.8748352,45.439 20.1901654,45.3583341 20.4395,45.197 C20.6888346,45.0356659 20.8135,44.8431678 20.8135,44.6195 C20.8135,44.3958322 20.7401674,44.2253339 20.5935,44.108 C20.4468326,43.9906661 20.2085017,43.8880004 19.8785,43.8 L18.8555,43.459 C17.9388288,43.1876653 17.4805,42.7110034 17.4805,42.029 Z M25.2905,40.61 C25.9138365,40.61 26.4088315,40.7694984 26.7755,41.0885 C27.1421685,41.4075016 27.3804995,41.8053309 27.4905,42.282 L26.6105,42.359 C26.5151662,42.0509985 26.3611677,41.8108342 26.1485,41.6385 C25.9358323,41.4661658 25.701168,41.38 25.4445,41.38 C24.9751643,41.38 24.5956681,41.5559982 24.306,41.908 C24.0163319,42.2600018 23.8715,42.738497 23.8715,43.3435 C23.8715,43.948503 24.0126653,44.4343315 24.295,44.801 C24.5773347,45.1676685 24.9293312,45.351 25.351,45.351 C25.7726688,45.351 26.087999,45.2538343 26.297,45.0595 C26.506001,44.8651657 26.6105,44.5883351 26.6105,44.229 L27.5015,44.229 C27.5015,44.7936695 27.3053353,45.2501649 26.913,45.5985 C26.5206647,45.9468351 26.0091698,46.121 25.3785,46.121 C24.7111633,46.121 24.144669,45.8680025 23.679,45.362 C23.213331,44.8559975 22.9805,44.1831709 22.9805,43.3435 C22.9805,42.5038291 23.2114977,41.8383358 23.6735,41.347 C24.1355023,40.8556642 24.6744969,40.61 25.2905,40.61 Z M32.4625,42.59 C32.4625,42.1133309 32.363501,41.7723344 32.1655,41.567 C31.967499,41.3616656 31.6796686,41.259 31.302,41.259 C30.9243314,41.259 30.6200012,41.3341659 30.389,41.4845 C30.1579988,41.6348341 30.0425,41.8713317 30.0425,42.194 L29.0855,42.194 C29.0855,41.3873293 29.5181623,40.8886676 30.3835,40.698 C30.6475013,40.639333 30.9334985,40.61 31.2415,40.61 C31.8941699,40.61 32.4038315,40.7749983 32.7705,41.105 C33.1371685,41.4350017 33.3205,41.93733 33.3205,42.612 L33.3205,46 L32.5725,46 L32.4845,45.12 C32.1618317,45.7873367 31.5788376,46.121 30.7355,46.121 C30.1708305,46.121 29.7180017,45.9633349 29.377,45.648 C29.0359983,45.3326651 28.8655,44.9403357 28.8655,44.471 C28.8655,44.0016643 29.0543314,43.6350013 29.432,43.371 C29.8096686,43.1069987 30.2808305,42.975 30.8455,42.975 C31.4101695,42.975 31.9491641,43.0703324 32.4625,43.261 L32.4625,42.59 Z M32.4625,43.811 C31.9418307,43.6643326 31.4871686,43.591 31.0985,43.591 C30.7098314,43.591 30.3945012,43.660666 30.1525,43.8 C29.9104988,43.939334 29.7895,44.1593318 29.7895,44.46 C29.7895,45.1200033 30.1634963,45.45 30.9115,45.45 C31.3368355,45.45 31.7016651,45.2978349 32.006,44.9935 C32.3103349,44.6891651 32.4625,44.2950024 32.4625,43.811 Z M36.2025,41.754 C36.5471684,40.9913295 37.1374958,40.61 37.9735,40.61 C38.5968365,40.61 39.0826649,40.8153313 39.431,41.226 C39.7793351,41.6366687 39.9535,42.1976631 39.9535,42.909 L39.9535,46 L39.0955,46 L39.0955,42.909 C39.0955,42.4029975 38.9763345,42.021668 38.738,41.765 C38.4996655,41.508332 38.1605022,41.38 37.7205,41.38 C37.2804978,41.38 36.9248347,41.5596649 36.6535,41.919 C36.3821653,42.2783351 36.2391667,42.7769968 36.2245,43.415 L36.2245,46 L35.3555,46 L35.3555,40.742 L36.1035,40.742 L36.2025,41.754 Z" id="QRscan" fill-rule="nonzero"></path>
                </g>
            </g>
        </g>
    </g>
</svg>