<?xml version="1.0" encoding="UTF-8"?>
<svg width="160px" height="141px" viewBox="0 0 160 141" version="1.1" xmlns="http://www.w3.org/2000/svg" xmlns:xlink="http://www.w3.org/1999/xlink">
    <!-- Generator: Sketch 61.2 (89653) - https://sketch.com -->
    <title>wallet_illustration</title>
    <desc>Created with Sketch.</desc>
    <defs>
        <path d="M2.89601564,0.3729045 C2.81458847,0.381253108 2.75130792,0.44989722 2.75130792,0.533383302 L2.75130792,0.533383302 L2.75130792,2.78936277 L0.487632454,2.78936277 C0.39829521,2.78936277 0.326173998,2.86171737 0.326173998,2.95076919 L0.326173998,2.95076919 L0.326639296,2.96746641 C0.335014663,3.04816962 0.403878788,3.1117118 0.487632454,3.1117118 L0.487632454,3.1117118 L2.75130792,3.1117118 L2.75130792,5.36815508 C2.75130792,5.4572069 2.82342913,5.5295615 2.91323167,5.5295615 L2.91323167,5.5295615 L2.92951711,5.52817007 C3.01094428,5.52028527 3.07422483,5.45164116 3.07422483,5.36815508 L3.07422483,5.36815508 L3.07422483,3.1117118 L5.33836559,3.1117118 C5.42677224,3.1117118 5.49982405,3.0393572 5.49982405,2.95076919 L5.49982405,2.95076919 L5.49889345,2.93453579 C5.49051808,2.85290495 5.42165396,2.78936277 5.33836559,2.78936277 L5.33836559,2.78936277 L3.07422483,2.78936277 L3.07422483,0.533383302 C3.07422483,0.44386767 3.00210362,0.371976877 2.91323167,0.371976877 L2.91323167,0.371976877 L2.89601564,0.3729045 Z" id="path-1"></path>
        <path d="M3.03700098,0.847847545 L0.0809618768,13.7659273 C-0.0818924731,14.4737038 0.362932551,15.1786973 1.07344282,15.3401038 L1.07344282,15.3401038 L9.68471554,17.2978524 C10.3947605,17.4597226 11.1020137,17.0167826 11.2634721,16.3085423 L11.2634721,16.3085423 L14.0785259,4.00918719 C14.2404497,3.30094692 13.7960899,2.59641715 13.086045,2.43501073 L13.086045,2.43501073 L3.85499511,0.335799575 C3.80334702,0.324204285 3.75216422,0.318638547 3.70191202,0.318638547 L3.70191202,0.318638547 C3.39016227,0.318638547 3.10912219,0.532455679 3.03700098,0.847847545" id="path-3"></path>
        <path d="M3.03700098,0.847847545 L0.0809618768,13.7659273 C-0.0818924731,14.4737038 0.362932551,15.1786973 1.07344282,15.3401038 L1.07344282,15.3401038 L9.68471554,17.2978524 C10.3947605,17.4597226 11.1020137,17.0167826 11.2634721,16.3085423 L11.2634721,16.3085423 L14.0785259,4.00918719 C14.2404497,3.30094692 13.7960899,2.59641715 13.086045,2.43501073 L13.086045,2.43501073 L3.85499511,0.335799575 C3.80334702,0.324204285 3.75216422,0.318638547 3.70191202,0.318638547 L3.70191202,0.318638547 C3.39016227,0.318638547 3.10912219,0.532455679 3.03700098,0.847847545" id="path-5"></path>
        <path d="M3.03700098,0.847847545 L0.0809618768,13.7659273 C-0.0818924731,14.4737038 0.362932551,15.1786973 1.07344282,15.3401038 L1.07344282,15.3401038 L9.68471554,17.2978524 C10.3947605,17.4597226 11.1020137,17.0167826 11.2634721,16.3085423 L11.2634721,16.3085423 L14.0785259,4.00918719 C14.2404497,3.30094692 13.7960899,2.59641715 13.086045,2.43501073 L13.086045,2.43501073 L3.85499511,0.335799575 C3.80334702,0.324204285 3.75216422,0.318638547 3.70191202,0.318638547 L3.70191202,0.318638547 C3.39016227,0.318638547 3.10912219,0.532455679 3.03700098,0.847847545" id="path-7"></path>
        <path d="M3.03700098,0.847847545 L0.0809618768,13.7659273 C-0.0818924731,14.4737038 0.362932551,15.1786973 1.07344282,15.3401038 L1.07344282,15.3401038 L9.68471554,17.2978524 C10.3947605,17.4597226 11.1020137,17.0167826 11.2634721,16.3085423 L11.2634721,16.3085423 L14.0785259,4.00918719 C14.2404497,3.30094692 13.7960899,2.59641715 13.086045,2.43501073 L13.086045,2.43501073 L3.85499511,0.335799575 C3.80334702,0.324204285 3.75216422,0.318638547 3.70191202,0.318638547 L3.70191202,0.318638547 C3.39016227,0.318638547 3.10912219,0.532455679 3.03700098,0.847847545" id="path-9"></path>
        <path d="M3.03700098,0.847847545 L0.0809618768,13.7659273 C-0.0818924731,14.4737038 0.362932551,15.1786973 1.07344282,15.3401038 L1.07344282,15.3401038 L9.68471554,17.2978524 C10.3947605,17.4597226 11.1020137,17.0167826 11.2634721,16.3085423 L11.2634721,16.3085423 L14.0785259,4.00918719 C14.2404497,3.30094692 13.7960899,2.59641715 13.086045,2.43501073 L13.086045,2.43501073 L3.85499511,0.335799575 C3.80334702,0.324204285 3.75216422,0.318638547 3.70191202,0.318638547 L3.70191202,0.318638547 C3.39016227,0.318638547 3.10912219,0.532455679 3.03700098,0.847847545" id="path-11"></path>
        <path d="M3.03700098,0.847847545 L0.0809618768,13.7659273 C-0.0818924731,14.4737038 0.362932551,15.1786973 1.07344282,15.3401038 L1.07344282,15.3401038 L9.68471554,17.2978524 C10.3947605,17.4597226 11.1020137,17.0167826 11.2634721,16.3085423 L11.2634721,16.3085423 L14.0785259,4.00918719 C14.2404497,3.30094692 13.7960899,2.59641715 13.086045,2.43501073 L13.086045,2.43501073 L3.85499511,0.335799575 C3.80334702,0.324204285 3.75216422,0.318638547 3.70191202,0.318638547 L3.70191202,0.318638547 C3.39016227,0.318638547 3.10912219,0.532455679 3.03700098,0.847847545" id="path-13"></path>
        <path d="M3.03700098,0.847847545 L0.0809618768,13.7659273 C-0.0818924731,14.4737038 0.362932551,15.1786973 1.07344282,15.3401038 L1.07344282,15.3401038 L9.68471554,17.2978524 C10.3947605,17.4597226 11.1020137,17.0167826 11.2634721,16.3085423 L11.2634721,16.3085423 L14.0785259,4.00918719 C14.2404497,3.30094692 13.7960899,2.59641715 13.086045,2.43501073 L13.086045,2.43501073 L3.85499511,0.335799575 C3.80334702,0.324204285 3.75216422,0.318638547 3.70191202,0.318638547 L3.70191202,0.318638547 C3.39016227,0.318638547 3.10912219,0.532455679 3.03700098,0.847847545" id="path-15"></path>
        <path d="M3.03700098,0.847847545 L0.0809618768,13.7659273 C-0.0818924731,14.4737038 0.362932551,15.1786973 1.07344282,15.3401038 L1.07344282,15.3401038 L9.68471554,17.2978524 C10.3947605,17.4597226 11.1020137,17.0167826 11.2634721,16.3085423 L11.2634721,16.3085423 L14.0785259,4.00918719 C14.2404497,3.30094692 13.7960899,2.59641715 13.086045,2.43501073 L13.086045,2.43501073 L3.85499511,0.335799575 C3.80334702,0.324204285 3.75216422,0.318638547 3.70191202,0.318638547 L3.70191202,0.318638547 C3.39016227,0.318638547 3.10912219,0.532455679 3.03700098,0.847847545" id="path-17"></path>
        <path d="M3.03700098,0.847847545 L0.0809618768,13.7659273 C-0.0818924731,14.4737038 0.362932551,15.1786973 1.07344282,15.3401038 L1.07344282,15.3401038 L9.68471554,17.2978524 C10.3947605,17.4597226 11.1020137,17.0167826 11.2634721,16.3085423 L11.2634721,16.3085423 L14.0785259,4.00918719 C14.2404497,3.30094692 13.7960899,2.59641715 13.086045,2.43501073 L13.086045,2.43501073 L3.85499511,0.335799575 C3.80334702,0.324204285 3.75216422,0.318638547 3.70191202,0.318638547 L3.70191202,0.318638547 C3.39016227,0.318638547 3.10912219,0.532455679 3.03700098,0.847847545" id="path-19"></path>
        <path d="M3.03700098,0.847847545 L0.0809618768,13.7659273 C-0.0818924731,14.4737038 0.362932551,15.1786973 1.07344282,15.3401038 L1.07344282,15.3401038 L9.68471554,17.2978524 C10.3947605,17.4597226 11.1020137,17.0167826 11.2634721,16.3085423 L11.2634721,16.3085423 L14.0785259,4.00918719 C14.2404497,3.30094692 13.7960899,2.59641715 13.086045,2.43501073 L13.086045,2.43501073 L3.85499511,0.335799575 C3.80334702,0.324204285 3.75216422,0.318638547 3.70191202,0.318638547 L3.70191202,0.318638547 C3.39016227,0.318638547 3.10912219,0.532455679 3.03700098,0.847847545" id="path-21"></path>
        <path d="M3.03700098,0.847847545 L0.0809618768,13.7659273 C-0.0818924731,14.4737038 0.362932551,15.1786973 1.07344282,15.3401038 L1.07344282,15.3401038 L9.68471554,17.2978524 C10.3947605,17.4597226 11.1020137,17.0167826 11.2634721,16.3085423 L11.2634721,16.3085423 L14.0785259,4.00918719 C14.2404497,3.30094692 13.7960899,2.59641715 13.086045,2.43501073 L13.086045,2.43501073 L3.85499511,0.335799575 C3.80334702,0.324204285 3.75216422,0.318638547 3.70191202,0.318638547 L3.70191202,0.318638547 C3.39016227,0.318638547 3.10912219,0.532455679 3.03700098,0.847847545" id="path-23"></path>
        <path d="M3.03700098,0.847847545 L0.0809618768,13.7659273 C-0.0818924731,14.4737038 0.362932551,15.1786973 1.07344282,15.3401038 L1.07344282,15.3401038 L9.68471554,17.2978524 C10.3947605,17.4597226 11.1020137,17.0167826 11.2634721,16.3085423 L11.2634721,16.3085423 L14.0785259,4.00918719 C14.2404497,3.30094692 13.7960899,2.59641715 13.086045,2.43501073 L13.086045,2.43501073 L3.85499511,0.335799575 C3.80334702,0.324204285 3.75216422,0.318638547 3.70191202,0.318638547 L3.70191202,0.318638547 C3.39016227,0.318638547 3.10912219,0.532455679 3.03700098,0.847847545" id="path-25"></path>
        <path d="M37.9790303,33.376808 L1.23536657,25.0147493 C0.483910068,24.8436028 0.0134936461,24.0977938 0.185188661,23.3482743 L5.25973021,1.19153192 C5.43189052,0.442476235 6.18008993,-0.0259734478 6.93154643,0.145173021 L43.6752102,8.50676795 C44.4266667,8.67837823 44.8970831,9.42418723 44.7253881,10.1732429 L39.6508465,32.3299853 C39.4791515,33.079041 38.7304868,33.5479545 37.9790303,33.376808 Z" id="path-27"></path>
    </defs>
    <g id="#109-|-Dashboard-(including-wallet-on-bottom)" stroke="none" stroke-width="1" fill="none" fill-rule="evenodd">
        <g id="109.2-|-Wallet-5-cards" transform="translate(-100.000000, -91.000000)">
            <g id="Group" transform="translate(20.000000, 91.000000)">
                <g id="wallet_illustration" transform="translate(80.000000, 0.000000)">
                    <g id="netherlands" transform="translate(0.000000, 61.000000)">
                        <line x1="-0.000140762463" y1="57.6352031" x2="159.657806" y2="57.6352031" id="Stroke-89" stroke="#E7EBEF" stroke-width="2.46334311"></line>
                        <polygon id="Fill-3" fill="#D4DBE1" points="92.6723754 57.1930109 100.332199 57.1930109 100.332199 17.1625419 92.6723754 17.1625419"></polygon>
                        <polygon id="Fill-5" fill="#D4DBE1" points="100.349466 16.2317556 101.023718 14.976062 101.02278 14.9718732 91.9820762 14.9718732 91.9806686 14.976062 92.6727507 16.2317556"></polygon>
                        <path d="M96.9715425,1.68884116 L96.5788152,0.385675099 C96.5562933,0.310277634 96.4488446,0.310277634 96.4258534,0.385675099 L96.0331261,1.68884116 L96.9715425,1.68884116 Z" id="Fill-6" fill="#D4DBE1"></path>
                        <polygon id="Fill-7" fill="#D4DBE1" points="95.9167155 2.07518336 92.2146628 14.3575235 100.789912 14.3575235 97.0883284 2.07518336"></polygon>
                        <polygon id="Fill-8" fill="#D4DBE1" points="133.425924 57.1930109 141.085748 57.1930109 141.085748 17.1625419 133.425924 17.1625419"></polygon>
                        <polygon id="Fill-9" fill="#D4DBE1" points="141.10278 16.2317556 141.777032 14.976062 141.776094 14.9718732 132.73539 14.9718732 132.733982 14.976062 133.426065 16.2317556"></polygon>
                        <path d="M137.725279,1.68884116 L137.332082,0.385675099 C137.30956,0.310277634 137.202111,0.310277634 137.17912,0.385675099 L136.786393,1.68884116 L137.725279,1.68884116 Z" id="Fill-10" fill="#D4DBE1"></path>
                        <polygon id="Fill-11" fill="#D4DBE1" points="136.670029 2.07518336 132.967977 14.3575235 141.543226 14.3575235 137.841642 2.07518336"></polygon>
                        <polygon id="Fill-12" fill="#D4DBE1" points="101.270944 37.520928 101.270944 57.1931505 112.932645 57.1931505 112.932645 47.7479891 116.956575 39.9890314 120.980035 47.7479891 120.980035 57.1931505 132.641736 57.1931505 132.641736 37.520928"></polygon>
                        <path d="M117.011425,35.546771 C114.268903,35.546771 112.045795,33.3416279 112.045795,30.6212687 C112.045795,27.9004441 114.268903,25.695301 117.011425,25.695301 C119.754416,25.695301 121.977525,27.9004441 121.977525,30.6212687 C121.977525,33.3416279 119.754416,35.546771 117.011425,35.546771 L117.011425,35.546771 Z M130.026323,25.9298709 L116.956528,6.22693082 L103.886264,25.9298709 L101.270897,25.9298709 L101.270897,36.5902347 L132.642158,36.5902347 L132.642158,25.9298709 L130.026323,25.9298709 Z" id="Fill-13" fill="#D4DBE1"></path>
                        <path d="M119.942569,49.3210967 C119.942569,45.8784112 116.956528,44.5701255 116.956528,44.5701255 C116.956528,44.5701255 113.970018,45.8663104 113.970018,49.3210967 L113.970018,57.1931505 L119.942569,57.1931505 L119.942569,49.3210967 Z" id="Fill-14" fill="#D4DBE1"></path>
                        <path d="M118.810792,30.7273837 C118.810792,31.7233749 117.997185,32.530407 116.993079,32.530407 C115.988974,32.530407 115.175367,31.7233749 115.175367,30.7273837 C115.175367,29.7318579 115.988974,28.9243603 116.993079,28.9243603 C117.997185,28.9243603 118.810792,29.7318579 118.810792,30.7273837" id="Fill-15" fill="#D4DBE1"></path>
                        <path d="M118.112938,27.8137836 C118.112938,28.4272025 117.611824,28.9247327 116.992938,28.9247327 C116.374522,28.9247327 115.873408,28.4272025 115.873408,27.8137836 C115.873408,27.2003647 116.374522,26.7028345 116.992938,26.7028345 C117.611824,26.7028345 118.112938,27.2003647 118.112938,27.8137836" id="Fill-16" fill="#D4DBE1"></path>
                        <path d="M118.112938,33.6410303 C118.112938,34.2544491 117.611824,34.7519793 116.992938,34.7519793 C116.374522,34.7519793 115.873408,34.2544491 115.873408,33.6410303 C115.873408,33.0276114 116.374522,32.5305466 116.992938,32.5305466 C117.611824,32.5305466 118.112938,33.0276114 118.112938,33.6410303" id="Fill-17" fill="#D4DBE1"></path>
                        <path d="M121.050088,30.7153294 C121.050088,31.3287483 120.548974,31.8262784 119.930557,31.8262784 C119.312141,31.8262784 118.811026,31.3287483 118.811026,30.7153294 C118.811026,30.1019105 119.312141,29.6043803 119.930557,29.6043803 C120.548974,29.6043803 121.050088,30.1019105 121.050088,30.7153294" id="Fill-18" fill="#D4DBE1"></path>
                        <path d="M115.183578,30.7273837 C115.183578,31.3408025 114.682463,31.8383327 114.063578,31.8383327 C113.44563,31.8383327 112.944047,31.3408025 112.944047,30.7273837 C112.944047,30.1139648 113.44563,29.6164346 114.063578,29.6164346 C114.682463,29.6164346 115.183578,30.1139648 115.183578,30.7273837" id="Fill-19" fill="#D4DBE1"></path>
                        <path d="M120.195519,32.7797306 C120.195519,33.3931495 119.694405,33.8902142 119.075519,33.8902142 C118.457103,33.8902142 117.955988,33.3931495 117.955988,32.7797306 C117.955988,32.1663117 118.457103,31.6687815 119.075519,31.6687815 C119.694405,31.6687815 120.195519,32.1663117 120.195519,32.7797306" id="Fill-20" fill="#D4DBE1"></path>
                        <path d="M116.020739,32.7797306 C116.020739,33.3931495 115.519625,33.8902142 114.900739,33.8902142 C114.282323,33.8902142 113.781208,33.3931495 113.781208,32.7797306 C113.781208,32.1663117 114.282323,31.6687815 114.900739,31.6687815 C115.519625,31.6687815 116.020739,32.1663117 116.020739,32.7797306" id="Fill-21" fill="#D4DBE1"></path>
                        <path d="M120.195519,28.6587006 C120.195519,29.2721195 119.694405,29.7696497 119.075519,29.7696497 C118.457103,29.7696497 117.955988,29.2721195 117.955988,28.6587006 C117.955988,28.0452817 118.457103,27.548217 119.075519,27.548217 C119.694405,27.548217 120.195519,28.0452817 120.195519,28.6587006" id="Fill-22" fill="#D4DBE1"></path>
                        <path d="M116.020739,28.6587006 C116.020739,29.2721195 115.519625,29.7696497 114.900739,29.7696497 C114.282323,29.7696497 113.781208,29.2721195 113.781208,28.6587006 C113.781208,28.0452817 114.282323,27.548217 114.900739,27.548217 C115.519625,27.548217 116.020739,28.0452817 116.020739,28.6587006" id="Fill-23" fill="#D4DBE1"></path>
                        <polygon id="Fill-24" fill="#D4DBE1" points="142.024164 47.6287028 154.035894 47.6287028 154.035894 42.2140478 142.024164 42.2140478"></polygon>
                        <polygon id="Fill-25" fill="#D4DBE1" points="154.035801 41.0628868 154.035801 48.5546954 142.02407 48.5546954 142.02407 57.1932902 154.727413 57.1932902 154.727413 46.4966239 154.727413 41.0628868"></polygon>
                        <polygon id="Fill-26" fill="#D4DBE1" points="79.7226979 36.5085076 91.7344282 36.5085076 91.7344282 31.0938526 79.7226979 31.0938526"></polygon>
                        <polygon id="Fill-27" fill="#D4DBE1" points="79.722651 29.9679171 79.722651 37.4597257 91.7343812 37.4597257 91.7343812 57.1933833 79.0305689 57.1933833 79.0305689 35.4016542 79.0305689 29.9679171"></polygon>
                        <path d="M72.9252786,51.2235795 L74.2015249,51.2235795 L74.2015249,47.4723229 L72.9252786,47.4723229 L72.9252786,51.2235795 Z M74.2015249,55.6748225 L72.1660997,55.6748225 L72.1660997,52.7375792 C72.1660997,52.7375792 72.477654,52.4401781 73.1838123,52.4401781 C73.8899707,52.4401781 74.2015249,52.7375792 74.2015249,52.7375792 L74.2015249,55.6748225 Z M72.2538416,44.7668571 L74.1883871,44.7668571 L74.1883871,41.0156005 L72.2538416,41.0156005 L72.2538416,44.7668571 Z M72.2538416,38.5070058 L74.1883871,38.5070058 L74.1883871,35.6186313 L72.2538416,35.6186313 L72.2538416,38.5070058 Z M68.8309677,38.4786154 L71.3829912,38.4786154 L71.3829912,35.5902409 L68.8309677,35.5902409 L68.8309677,38.4786154 Z M68.8309677,44.7300892 L71.3829912,44.7300892 L71.3829912,40.9788326 L68.8309677,40.9788326 L68.8309677,44.7300892 Z M68.8309677,51.2235795 L71.3829912,51.2235795 L71.3829912,47.4723229 L68.8309677,47.4723229 L68.8309677,51.2235795 Z M70.1072141,30.5497807 C70.6209971,30.5497807 71.0381232,30.9630705 71.0381232,31.473167 C71.0381232,31.982798 70.6209971,32.3965532 70.1072141,32.3965532 C69.5929619,32.3965532 69.176305,31.982798 69.176305,31.473167 C69.176305,30.9630705 69.5929619,30.5497807 70.1072141,30.5497807 L70.1072141,30.5497807 Z M68.0365982,55.6748225 L66.001173,55.6748225 L66.001173,52.7375792 C66.001173,52.7375792 66.3127273,52.4401781 67.0188856,52.4401781 C67.725044,52.4401781 68.0365982,52.7375792 68.0365982,52.7375792 L68.0365982,55.6748225 Z M66.001173,51.2235795 L67.2774194,51.2235795 L67.2774194,47.4723229 L66.001173,47.4723229 L66.001173,51.2235795 Z M66.001173,44.7300892 L67.9357185,44.7300892 L67.9357185,40.9788326 L66.001173,40.9788326 L66.001173,44.7300892 Z M66.001173,38.4786154 L67.9357185,38.4786154 L67.9357185,35.5902409 L66.001173,35.5902409 L66.001173,38.4786154 Z M72.5414663,31.3009629 C72.4157185,30.077383 71.3740762,29.1228139 70.1072141,29.1228139 C68.8403519,29.1228139 67.7991789,30.077383 67.6724927,31.3009629 L65.1495601,31.3009629 L65.1495601,57.1930109 L69.0895015,57.1930109 L69.0895015,52.7375792 C69.0895015,52.7375792 69.4015249,52.4401781 70.1072141,52.4401781 C70.8133724,52.4401781 71.1249267,52.7375792 71.1249267,52.7375792 L71.1249267,57.1930109 L75.0643988,57.1930109 L75.0643988,31.3009629 L72.5414663,31.3009629 Z" id="Fill-28" fill="#D4DBE1"></path>
                        <path d="M37.521173,51.2235795 L38.7978886,51.2235795 L38.7978886,47.4723229 L37.521173,47.4723229 L37.521173,51.2235795 Z M38.7978886,55.6748225 L36.7619941,55.6748225 L36.7619941,52.7375792 C36.7619941,52.7375792 37.0740176,52.4401781 37.7797067,52.4401781 C38.4858651,52.4401781 38.7978886,52.7375792 38.7978886,52.7375792 L38.7978886,55.6748225 Z M36.8497361,44.7668571 L38.7842815,44.7668571 L38.7842815,41.0156005 L36.8497361,41.0156005 L36.8497361,44.7668571 Z M36.8497361,38.5070058 L38.7842815,38.5070058 L38.7842815,35.6186313 L36.8497361,35.6186313 L36.8497361,38.5070058 Z M33.4273314,38.4786154 L35.9793548,38.4786154 L35.9793548,35.5902409 L33.4273314,35.5902409 L33.4273314,38.4786154 Z M33.4273314,44.7300892 L35.9793548,44.7300892 L35.9793548,40.9788326 L33.4273314,40.9788326 L33.4273314,44.7300892 Z M33.4273314,51.2235795 L35.9793548,51.2235795 L35.9793548,47.4723229 L33.4273314,47.4723229 L33.4273314,51.2235795 Z M34.7035777,30.5497807 C35.2173607,30.5497807 35.6340176,30.9630705 35.6340176,31.473167 C35.6340176,31.982798 35.2173607,32.3965532 34.7035777,32.3965532 C34.1893255,32.3965532 33.7721994,31.982798 33.7721994,31.473167 C33.7721994,30.9630705 34.1893255,30.5497807 34.7035777,30.5497807 L34.7035777,30.5497807 Z M32.6324927,55.6748225 L30.5970674,55.6748225 L30.5970674,52.7375792 C30.5970674,52.7375792 30.9090909,52.4401781 31.6147801,52.4401781 C32.3204692,52.4401781 32.6324927,52.7375792 32.6324927,52.7375792 L32.6324927,55.6748225 Z M30.5970674,51.2235795 L31.8733138,51.2235795 L31.8733138,47.4723229 L30.5970674,47.4723229 L30.5970674,51.2235795 Z M30.5970674,44.7300892 L32.5316129,44.7300892 L32.5316129,40.9788326 L30.5970674,40.9788326 L30.5970674,44.7300892 Z M30.5970674,38.4786154 L32.5316129,38.4786154 L32.5316129,35.5902409 L30.5970674,35.5902409 L30.5970674,38.4786154 Z M37.1378299,31.3009629 C37.0120821,30.077383 35.9699707,29.1228139 34.7035777,29.1228139 C33.4367155,29.1228139 32.3950733,30.077383 32.2688563,31.3009629 L29.7459238,31.3009629 L29.7459238,57.1930109 L33.6858651,57.1930109 L33.6858651,52.7375792 C33.6858651,52.7375792 33.9974194,52.4401781 34.7035777,52.4401781 C35.4092669,52.4401781 35.7212903,52.7375792 35.7212903,52.7375792 L35.7212903,57.1930109 L39.6607625,57.1930109 L39.6607625,31.3009629 L37.1378299,31.3009629 Z" id="Fill-29" fill="#D4DBE1"></path>
                        <path d="M60.7896774,44.0952611 L62.8321408,44.0952611 L62.8321408,41.1463825 L60.7896774,41.1463825 L60.7896774,44.0952611 Z M60.7896774,49.9194826 L62.8321408,49.9194826 L62.8321408,46.2194218 L60.7896774,46.2194218 L60.7896774,49.9194826 Z M60.7896774,55.1721727 L62.8321408,55.1721727 L62.8321408,52.1865262 L60.7896774,52.1865262 L60.7896774,55.1721727 Z M56.8126686,44.0952611 L59.826393,44.0952611 L59.826393,41.1463825 L56.8126686,41.1463825 L56.8126686,44.0952611 Z M56.8126686,49.9194826 L59.826393,49.9194826 L59.826393,46.2194218 L56.8126686,46.2194218 L56.8126686,49.9194826 Z M57.4930205,39.1311293 L59.1422874,39.1311293 L59.1422874,36.7495933 L57.4930205,36.7495933 L57.4930205,39.1311293 Z M53.782522,44.0952611 L55.8249853,44.0952611 L55.8249853,41.1463825 L53.782522,41.1463825 L53.782522,44.0952611 Z M53.782522,49.9194826 L55.8249853,49.9194826 L55.8249853,46.2194218 L53.782522,46.2194218 L53.782522,49.9194826 Z M53.782522,55.1721727 L55.8249853,55.1721727 L55.8249853,52.1865262 L53.782522,52.1865262 L53.782522,55.1721727 Z M63.6509091,39.6826478 L63.6509091,38.3031534 L62.5853372,38.3031534 L62.5853372,36.8338337 L61.6741349,36.8338337 L61.6741349,35.4464272 L60.8075073,35.4464272 L60.8075073,34.0427312 L59.9042815,34.0427312 L59.9042815,32.6199531 L59.0676833,32.6199531 L59.0676833,31.2409242 L57.5666862,31.2409242 L57.5666862,32.6199531 L56.7310264,32.6199531 L56.7310264,34.0427312 L55.8273314,34.0427312 L55.8273314,35.4464272 L54.9607038,35.4464272 L54.9607038,36.8338337 L54.0490323,36.8338337 L54.0490323,38.3031534 L52.9843988,38.3031534 L52.9843988,39.6826478 L52.4232258,39.6826478 L52.4232258,57.1930109 L56.8126686,57.1930109 L56.8126686,52.1865262 L59.8226393,52.1865262 L59.8226393,57.1930109 L64.2111437,57.1930109 L64.2111437,39.6826478 L63.6509091,39.6826478 Z" id="Fill-30" fill="#D4DBE1"></path>
                        <path d="M25.3855718,44.0952611 L27.4280352,44.0952611 L27.4280352,41.1463825 L25.3855718,41.1463825 L25.3855718,44.0952611 Z M25.3855718,49.9194826 L27.4280352,49.9194826 L27.4280352,46.2194218 L25.3855718,46.2194218 L25.3855718,49.9194826 Z M25.3855718,55.1721727 L27.4280352,55.1721727 L27.4280352,52.1865262 L25.3855718,52.1865262 L25.3855718,55.1721727 Z M21.408563,44.0952611 L24.4218182,44.0952611 L24.4218182,41.1463825 L21.408563,41.1463825 L21.408563,44.0952611 Z M21.408563,49.9194826 L24.4218182,49.9194826 L24.4218182,46.2194218 L21.408563,46.2194218 L21.408563,49.9194826 Z M22.088915,39.1311293 L23.7381818,39.1311293 L23.7381818,36.7495933 L22.088915,36.7495933 L22.088915,39.1311293 Z M18.3784164,44.0952611 L20.4208798,44.0952611 L20.4208798,41.1463825 L18.3784164,41.1463825 L18.3784164,44.0952611 Z M18.3784164,49.9194826 L20.4208798,49.9194826 L20.4208798,46.2194218 L18.3784164,46.2194218 L18.3784164,49.9194826 Z M18.3784164,55.1721727 L20.4208798,55.1721727 L20.4208798,52.1865262 L18.3784164,52.1865262 L18.3784164,55.1721727 Z M28.2468035,39.6826478 L28.2468035,38.3031534 L27.1817009,38.3031534 L27.1817009,36.8338337 L26.2704985,36.8338337 L26.2704985,35.4464272 L25.4034018,35.4464272 L25.4034018,34.0427312 L24.500176,34.0427312 L24.500176,32.6199531 L23.6640469,32.6199531 L23.6640469,31.2409242 L22.1630499,31.2409242 L22.1630499,32.6199531 L21.3269208,32.6199531 L21.3269208,34.0427312 L20.423695,34.0427312 L20.423695,35.4464272 L19.5565982,35.4464272 L19.5565982,36.8338337 L18.6453959,36.8338337 L18.6453959,38.3031534 L17.5802933,38.3031534 L17.5802933,39.6826478 L17.0195894,39.6826478 L17.0195894,57.1930109 L21.4090323,57.1930109 L21.4090323,52.1865262 L24.4185337,52.1865262 L24.4185337,57.1930109 L28.8075073,57.1930109 L28.8075073,39.6826478 L28.2468035,39.6826478 Z" id="Fill-31" fill="#D4DBE1"></path>
                        <path d="M50.5378065,36.5092057 L48.3024985,36.5092057 L48.3024985,34.4222783 C48.3024985,33.8102557 48.8031437,33.3141218 49.4201525,33.3141218 C50.0376305,33.3141218 50.5378065,33.8102557 50.5378065,34.4222783 L50.5378065,36.5092057 Z M48.3024985,48.8487921 L50.5378065,48.8487921 L50.5378065,45.5778452 L48.3024985,45.5778452 L48.3024985,48.8487921 Z M45.2596833,55.8309697 L50.5378065,55.8309697 L50.5378065,51.5039929 L45.2596833,51.5039929 L45.2596833,55.8309697 Z M44.9246686,48.8487921 L47.1595073,48.8487921 L47.1595073,45.5778452 L44.9246686,45.5778452 L44.9246686,48.8487921 Z M42.3257243,42.9296256 L44.560563,42.9296256 L44.560563,38.8860875 L42.3257243,38.8860875 L42.3257243,42.9296256 Z M41.5332317,48.8487921 L43.7680704,48.8487921 L43.7680704,45.5778452 L41.5332317,45.5778452 L41.5332317,48.8487921 Z M41.5337009,34.4222783 C41.5337009,33.8102557 42.0338768,33.3141218 42.6508856,33.3141218 C43.2683636,33.3141218 43.7680704,33.8102557 43.7680704,34.4222783 L43.7680704,36.5092057 L41.5337009,36.5092057 L41.5337009,34.4222783 Z M44.9246686,34.4222783 C44.9246686,33.8102557 45.4253138,33.3141218 46.0418534,33.3141218 C46.6588622,33.3141218 47.1595073,33.8102557 47.1595073,34.4222783 L47.1595073,36.5092057 L44.9246686,36.5092057 L44.9246686,34.4222783 Z M45.4379824,30.3936335 L46.6654311,30.3936335 L46.6654311,27.1482846 L45.4379824,27.1482846 L45.4379824,30.3936335 Z M47.5062522,42.9300911 L49.7410909,42.9300911 L49.7410909,38.8865529 L47.5062522,38.8865529 L47.5062522,42.9300911 Z M50.1835543,32.521983 L50.1835543,32.0668057 C48.8275425,31.5492626 47.8060762,29.2510361 47.8060762,26.4939091 C47.8060762,26.2909875 47.8131144,26.0913238 47.8243754,25.8935218 L44.2851378,25.8935218 C44.2954604,26.0857388 44.3024985,26.2798175 44.3024985,26.4766887 C44.3024985,29.2338157 43.280563,31.5320422 41.9250205,32.0495853 L41.9250205,32.5047625 L40.5990381,32.5047625 L40.5990381,57.1932436 L41.5337009,57.1932436 L41.5337009,51.5035275 L43.7680704,51.5035275 L43.7680704,57.1932436 L51.4851378,57.1932436 L51.4851378,32.521983 L50.1835543,32.521983 Z" id="Fill-32" fill="#D4DBE1"></path>
                        <path d="M6.09726686,36.5092057 L8.33210557,36.5092057 L8.33210557,34.4222783 C8.33210557,33.8102557 7.83146041,33.3141218 7.21445161,33.3141218 C6.59744282,33.3141218 6.09726686,33.8102557 6.09726686,34.4222783 L6.09726686,36.5092057 Z M6.09726686,48.8487921 L8.33210557,48.8487921 L8.33210557,45.5778452 L6.09726686,45.5778452 L6.09726686,48.8487921 Z M6.09726686,55.8309697 L11.37539,55.8309697 L11.37539,51.5039929 L6.09726686,51.5039929 L6.09726686,55.8309697 Z M9.47509677,48.8487921 L11.7104047,48.8487921 L11.7104047,45.5778452 L9.47509677,45.5778452 L9.47509677,48.8487921 Z M12.0740411,42.9296256 L14.309349,42.9296256 L14.309349,38.8860875 L12.0740411,38.8860875 L12.0740411,42.9296256 Z M12.8665337,48.8487921 L15.1018416,48.8487921 L15.1018416,45.5778452 L12.8665337,45.5778452 L12.8665337,48.8487921 Z M15.1013724,34.4222783 C15.1013724,33.8102557 14.6011965,33.3141218 13.9841877,33.3141218 C13.3667097,33.3141218 12.8665337,33.8102557 12.8665337,34.4222783 L12.8665337,36.5092057 L15.1013724,36.5092057 L15.1013724,34.4222783 Z M11.7104047,34.4222783 C11.7104047,33.8102557 11.2097595,33.3141218 10.5927507,33.3141218 C9.97574194,33.3141218 9.47509677,33.8102557 9.47509677,34.4222783 L9.47509677,36.5092057 L11.7104047,36.5092057 L11.7104047,34.4222783 Z M9.96917302,30.3936335 L11.1966217,30.3936335 L11.1966217,27.1482846 L9.96917302,27.1482846 L9.96917302,30.3936335 Z M6.8935132,42.9300911 L9.12882111,42.9300911 L9.12882111,38.8865529 L6.8935132,38.8865529 L6.8935132,42.9300911 Z M6.45151906,32.521983 L6.45151906,32.0668057 C7.80753079,31.5492626 8.82899707,29.2510361 8.82899707,26.4939091 C8.82899707,26.2909875 8.82195894,26.0913238 8.81069795,25.8935218 L12.3494663,25.8935218 C12.3396129,26.0857388 12.3321056,26.2798175 12.3321056,26.4766887 C12.3321056,29.2338157 13.3545103,31.5320422 14.7095836,32.0495853 L14.7095836,32.5047625 L16.0360352,32.5047625 L16.0360352,57.1932436 L15.1013724,57.1932436 L15.1013724,51.5035275 L12.8665337,51.5035275 L12.8665337,57.1932436 L5.14946628,57.1932436 L5.14946628,32.521983 L6.45151906,32.521983 Z" id="Fill-33" fill="#D4DBE1"></path>
                    </g>
                    <g id="phone" transform="translate(30.000000, 0.000000)">
                        <path d="M44.5747801,104.509627 L7.03812317,104.509627 C3.15120235,104.509627 0,101.356089 0,97.4652375 L0,7.04438976 C0,3.15353848 3.15120235,-1.42108547e-14 7.03812317,-1.42108547e-14 L44.5747801,-1.42108547e-14 C48.4617009,-1.42108547e-14 51.6129032,3.15353848 51.6129032,7.04438976 L51.6129032,97.4652375 C51.6129032,101.356089 48.4617009,104.509627 44.5747801,104.509627" id="Fill-34" fill="#1A3F61"></path>
                        <path d="M43.4677771,2.4503675 L39.7554018,2.4503675 C39.3265455,2.4503675 38.9441408,2.72040244 38.8000938,3.12475041 L38.2797419,4.58153021 C37.9423812,5.52782657 37.0466628,6.15900389 36.0430264,6.15900389 L15.4227331,6.15900389 C14.3623226,6.15900389 13.4300059,5.45550417 13.1386276,4.43500691 L12.7829677,3.18674104 C12.6581584,2.75092813 12.2598006,2.4503675 11.8065455,2.4503675 L8.14484457,2.4503675 C5.03540176,2.4503675 2.51434604,4.97366791 2.51434604,8.08587931 L2.51434604,96.4239358 C2.51434604,99.5361472 5.03540176,102.059448 8.14484457,102.059448 L43.4677771,102.059448 C46.5776891,102.059448 49.0982757,99.5361472 49.0982757,96.4239358 L49.0982757,8.08587931 C49.0982757,4.97366791 46.5776891,2.4503675 43.4677771,2.4503675" id="Fill-35" fill="#FEFEFE"></path>
                        <path d="M45.0439883,96.3340494 L7.03812317,96.3340494 C6.26064516,96.3340494 5.63049853,95.7033417 5.63049853,94.9251714 L5.63049853,71.9134982 C5.63049853,71.135328 6.26064516,70.5046203 7.03812317,70.5046203 L45.0439883,70.5046203 C45.8209971,70.5046203 46.4516129,71.135328 46.4516129,71.9134982 L46.4516129,94.9251714 C46.4516129,95.7033417 45.8209971,96.3340494 45.0439883,96.3340494" id="Fill-36" fill="#D44454"></path>
                        <path d="M45.0439883,100.618259 L7.03812317,100.618259 C6.26064516,100.618259 5.63049853,99.9875517 5.63049853,99.2093814 L5.63049853,77.7230534 C5.63049853,76.9448832 6.26064516,76.3141755 7.03812317,76.3141755 L45.0439883,76.3141755 C45.8209971,76.3141755 46.4516129,76.9448832 46.4516129,77.7230534 L46.4516129,99.2093814 C46.4516129,99.9875517 45.8209971,100.618259 45.0439883,100.618259" id="Fill-37" fill="#FFBB58"></path>
                        <path d="M32.3634487,81.9496873 C32.2386393,85.4709429 29.3548856,88.2896381 25.8062639,88.2896381 C22.2576422,88.2896381 19.3734194,85.4709429 19.2495484,81.9496873 L2.11124927,81.9496873 L2.11124927,96.5080928 C2.11124927,99.6203042 4.63183578,102.143605 7.7417478,102.143605 L43.8707801,102.143605 C46.9802229,102.143605 49.5012786,99.6203042 49.5012786,96.5080928 L49.5012786,81.9496873 L32.3634487,81.9496873 Z" id="Fill-38" fill="#1A3F61"></path>
                        <path d="M44.8093842,39.4485357 L6.80351906,39.4485357 C6.02604106,39.4485357 5.39589443,38.817828 5.39589443,38.0396578 L5.39589443,15.0279845 C5.39589443,14.2498143 6.02604106,13.6191066 6.80351906,13.6191066 L44.8093842,13.6191066 C45.586393,13.6191066 46.2170088,14.2498143 46.2170088,15.0279845 L46.2170088,38.0396578 C46.2170088,38.817828 45.586393,39.4485357 44.8093842,39.4485357" id="Fill-39" fill="#E7EBEF"></path>
                        <path d="M44.8093842,39.4485357 L6.80351906,39.4485357 C6.02604106,39.4485357 5.39589443,38.817828 5.39589443,38.0396578 L5.39589443,15.0279845 C5.39589443,14.2498143 6.02604106,13.6191066 6.80351906,13.6191066 L44.8093842,13.6191066 C45.586393,13.6191066 46.2170088,14.2498143 46.2170088,15.0279845 L46.2170088,38.0396578 C46.2170088,38.817828 45.586393,39.4485357 44.8093842,39.4485357 Z" id="Stroke-40" stroke="#3E4C5A" stroke-width="0.5" stroke-dasharray="2.488797580873644,2.488797580873644"></path>
                    </g>
                    <g id="ID-card" transform="translate(53.000000, 15.000000)">
                        <path d="M44.0277666,33.3842409 L7.28410283,25.0221821 C6.53264633,24.8510357 6.06222991,24.1052267 6.23392493,23.3557072 L11.3089318,1.19896479 C11.4806268,0.449909113 12.2288262,-0.0185405701 12.9802827,0.152605898 L49.7239464,8.51420083 C50.4754029,8.68581111 50.9458194,9.43162011 50.7741243,10.1806758 L45.6995828,32.3374182 C45.5283531,33.0864738 44.7792231,33.5553873 44.0277666,33.3842409" id="Fill-41" fill="#004C92"></path>
                        <g id="plus" transform="translate(0.000000, 9.283664)">
                            <mask id="mask-2" fill="white">
                                <use xlink:href="#path-1"></use>
                            </mask>
                            <g id="Clip-44"></g>
                            <polygon id="Fill-43" fill="#020203" mask="url(#mask-2)" points="-0.347577713 6.20116065 6.17357576 6.20116065 6.17357576 -0.299158461 -0.347577713 -0.299158461"></polygon>
                        </g>
                        <path d="M19.9049892,19.6209573 L11.3262874,17.6701658 C10.6069365,17.5064404 10.1569932,16.7926344 10.3207781,16.0760455 L13.1283871,3.80869334 C13.292172,3.09164066 14.0082659,2.64313487 14.7276168,2.80686035 L23.306784,4.75765181 C24.0252043,4.92091348 24.4756129,5.63471948 24.311828,6.35177216 L21.504219,18.6191243 C21.3399687,19.3357132 20.6238749,19.7846828 19.9049892,19.6209573" id="Fill-47" fill="#F1F4F7"></path>
                        <g id="Group-51" transform="translate(10.236559, 2.326491)">
                            <mask id="mask-4" fill="white">
                                <use xlink:href="#path-3"></use>
                            </mask>
                            <g id="Clip-50"></g>
                            <path d="M12.6574123,13.0755438 C12.6420575,13.0565275 12.6090213,13.0115378 12.5838952,12.98139 C11.6728414,11.8881862 11.2675668,10.4025977 11.6090956,8.91051592 C11.6463195,8.74679044 11.7109959,8.45505296 11.7161142,8.42722427 C12.2423664,5.93933902 10.7441064,3.49783493 8.33339668,2.94960966 C5.96037615,2.41019681 3.58782092,3.90691674 2.93454233,6.30946065 C2.91825689,6.35584181 2.8898737,6.43515359 2.87544946,6.47782425 C2.60325005,7.25841912 2.03558631,7.8228778 1.32088837,8.15264782 L1.32088837,8.15311163 C-0.747361877,9.08398145 -2.38567664,10.973086 -2.94170792,13.4016033 C-3.83880274,17.3212749 -1.58722502,21.2005948 2.11933998,22.2464899 C3.03365083,23.3471148 4.29135171,24.1615679 5.77704868,24.4992227 C9.45988348,25.3368664 13.1506283,22.9338587 14.0207359,19.1324591 C14.529772,16.9061635 13.9579206,14.69471 12.6574123,13.0755438" id="Fill-49" fill="#193F61" mask="url(#mask-4)"></path>
                        </g>
                        <g id="Group-54" transform="translate(10.236559, 2.326491)">
                            <mask id="mask-6" fill="white">
                                <use xlink:href="#path-5"></use>
                            </mask>
                            <g id="Clip-53"></g>
                            <path d="M11.2038209,26.7179117 C11.2038209,26.7179117 8.71680235,26.0472402 7.66476325,25.9864809 C7.66476325,25.9864809 7.3246303,24.4985734 7.19713861,24.0004397 C6.75138299,24.1970958 0.467066276,22.7680924 0.151128837,22.3984346 C0.00316402737,22.574683 -0.657094037,23.4985956 -1.05492395,24.0036864 C-2.92356129,23.4002676 -4.64283793,23.1145596 -4.64283793,23.1145596 C-4.64283793,23.1145596 -6.55660919,22.6595605 -6.93536188,22.6224556 L2.57160978,27.0806124 L2.60511124,27.0829314 L2.63582092,27.0949905 L13.7550506,27.3765241 C13.398167,27.2461931 11.2038209,26.7179117 11.2038209,26.7179117" id="Fill-52" fill="#143853" mask="url(#mask-6)"></path>
                        </g>
                        <g id="Group-57" transform="translate(10.236559, 2.326491)">
                            <mask id="mask-8" fill="white">
                                <use xlink:href="#path-7"></use>
                            </mask>
                            <g id="Clip-56"></g>
                            <path d="M7.48734506,11.2549443 C7.55993157,10.7702612 7.68649267,10.3852976 7.68649267,10.3852976 L6.68610166,10.1580299 L5.68617595,9.93029842 C5.68617595,9.93029842 5.63220137,10.3319592 5.48702835,10.7999451 C5.34185533,11.2683948 4.57830108,11.2196946 4.57830108,11.2196946 L4.32983187,12.3054775 L6.12913978,12.7145593 L6.17799609,12.7256907 L7.87493842,13.111582 L8.12340762,12.0262629 C8.12340762,12.0262629 7.41475855,11.7396273 7.48734506,11.2549443" id="Fill-55" fill="#E17981" mask="url(#mask-8)"></path>
                        </g>
                        <g id="Group-60" transform="translate(10.236559, 2.326491)">
                            <mask id="mask-10" fill="white">
                                <use xlink:href="#path-9"></use>
                            </mask>
                            <g id="Clip-59"></g>
                            <path d="M9.69113666,7.51843189 C8.67120313,7.2865261 7.96208876,6.39693552 7.8527437,5.35243187 C7.84297243,5.26013336 7.73362737,5.23555135 7.68477107,5.31486313 C7.13711515,6.20909183 6.11392454,6.7049064 5.0967828,6.47392824 C5.09352571,6.47300061 5.09073392,6.47207299 5.08747683,6.47114537 C5.06328133,6.55602288 5.03862053,6.6409004 5.01861271,6.72856079 C4.6193869,8.47481134 5.65141818,10.4501848 6.57131261,10.6593638 C7.49074174,10.8685428 9.28120899,9.53462077 9.6809001,7.78883403 C9.70090792,7.70070983 9.71626276,7.61304944 9.730687,7.52538906 C9.71765865,7.52260619 9.704165,7.52167857 9.69113666,7.51843189" id="Fill-58" fill="#EF888B" mask="url(#mask-10)"></path>
                        </g>
                        <g id="Group-63" transform="translate(10.236559, 2.326491)">
                            <mask id="mask-12" fill="white">
                                <use xlink:href="#path-11"></use>
                            </mask>
                            <g id="Clip-62"></g>
                            <path d="M16.6192864,27.2619163 C16.4773705,25.1868233 12.6042287,24.8153103 10.1558299,24.8069617 C7.67579081,24.7981493 5.58008798,25.7369039 3.24243011,25.2053758 C0.905237537,24.6738478 -0.549284457,22.9025514 -2.81389052,21.8575839 C-5.06407234,20.8191098 -8.67525122,19.4670991 -9.70542131,21.2759642 C-10.7355914,23.0843655 -5.68571065,28.3528011 2.02195308,30.5378174 C9.91852786,31.9009596 16.760737,29.3370092 16.6192864,27.2619163" id="Fill-61" fill="#143853" mask="url(#mask-12)"></path>
                        </g>
                        <g id="Group-66" transform="translate(10.236559, 2.326491)">
                            <mask id="mask-14" fill="white">
                                <use xlink:href="#path-13"></use>
                            </mask>
                            <g id="Clip-65"></g>
                            <path d="M-3.91925279,27.8772087 C-3.90389795,27.8804554 -0.779420919,28.5822023 -0.570967351,28.6397149 C-0.344832454,28.7018657 0.342878201,29.0664216 0.342878201,29.0664216 L0.396852786,30.4267809 C0.396852786,30.4267809 -3.16733099,30.6716734 -4.49017361,30.3706597 C-5.21464282,30.2060066 -5.81255093,29.6911758 -5.72740137,29.1526905 C-5.6194522,28.4704237 -4.59440039,27.7236871 -3.91925279,27.8772087" id="Fill-64" fill="#D34554" mask="url(#mask-14)"></path>
                        </g>
                        <g id="Group-69" transform="translate(10.236559, 2.326491)">
                            <mask id="mask-16" fill="white">
                                <use xlink:href="#path-15"></use>
                            </mask>
                            <g id="Clip-68"></g>
                            <path d="M16.6119812,27.2917858 C16.3663038,24.9226363 12.8937838,25.6387613 8.61304086,26.3882808 C4.33229795,27.1382641 0.623406452,28.376641 -0.0889650049,28.6122573 C-0.121070577,28.622925 -0.14526608,28.647507 -0.151314956,28.6809014 C-0.171788074,28.7815485 -0.323940567,29.0839537 -0.262055914,29.6219751 C-0.209477224,30.0727999 -0.0512758553,30.276877 0.0147964809,30.3840175 C0.0557427175,30.4498787 0.129725122,30.4610102 0.205568719,30.478635 C1.94299198,30.884934 6.05157458,31.2940158 10.5840438,30.6136042 C15.116513,29.9331926 16.5980223,28.302895 16.6119812,27.2917858" id="Fill-67" fill="#193F61" mask="url(#mask-16)"></path>
                        </g>
                        <g id="Group-72" transform="translate(10.236559, 2.326491)">
                            <mask id="mask-18" fill="white">
                                <use xlink:href="#path-17"></use>
                            </mask>
                            <g id="Clip-71"></g>
                            <path d="M8.4252,30.5932893 C8.40984516,30.5900426 5.28909052,29.8715985 5.07644927,29.8326383 C4.84612669,29.7908952 4.07000938,29.8117668 4.07000938,29.8117668 L3.44371808,30.9481051 C3.44371808,30.9481051 6.56075034,32.6577145 7.88405826,32.9587283 C8.60852747,33.1233814 9.36649814,32.9364653 9.51865064,32.4415784 C9.70988817,31.8149689 9.10034761,30.7468109 8.4252,30.5932893" id="Fill-70" fill="#D34554" mask="url(#mask-18)"></path>
                        </g>
                        <g id="Group-75" transform="translate(10.236559, 2.326491)">
                            <mask id="mask-20" fill="white">
                                <use xlink:href="#path-19"></use>
                            </mask>
                            <g id="Clip-74"></g>
                            <path d="M14.8730225,25.1767586 C14.8730225,25.1767586 15.3834545,25.5914062 15.8869071,25.8780417 C16.3317322,26.1317467 16.7235132,26.8056649 16.7379374,26.8483355 C16.8314624,27.1275501 16.6928035,27.8074978 16.6383636,27.8000769 C16.5429775,27.7866263 16.6653509,27.6140884 16.5774096,27.410939 C16.4931906,27.2156743 16.518782,27.1586255 16.518782,27.1586255 C16.518782,27.1586255 16.5909032,27.2847822 16.6011398,27.4424781 C16.6160293,27.6920088 16.5029619,28.149327 16.4447996,28.1372679 C16.386172,28.1252088 16.4815582,27.6655715 16.3833803,27.4178961 C16.2852023,27.1702207 16.1726002,27.0463831 16.1726002,27.0463831 C16.1726002,27.0463831 16.3052102,27.2156743 16.368956,27.492106 C16.4443343,27.8214122 16.2102893,28.3135163 16.1521271,28.2736285 C16.052088,28.2049844 16.254958,27.8886649 16.1335152,27.5714178 C16.0264966,27.2912756 15.7757009,26.8149411 15.5290929,26.9856237 C15.3457654,27.1127081 15.6375073,27.7091698 15.5853939,27.7476662 C15.5007097,27.8098169 15.2601505,27.4860764 15.0400645,26.9489826 C14.8427781,26.465691 14.7022581,25.7848156 14.5556891,25.7194182 L14.8730225,25.1767586" id="Fill-73" fill="#EF888B" mask="url(#mask-20)"></path>
                        </g>
                        <g id="Group-78" transform="translate(10.236559, 2.326491)">
                            <mask id="mask-22" fill="white">
                                <use xlink:href="#path-21"></use>
                            </mask>
                            <g id="Clip-77"></g>
                            <path d="M-9.72775562,21.3023087 C-8.47517302,19.2740607 -5.65779277,21.4201168 -2.12664516,23.9460346 C1.40403715,26.4719524 4.20745846,29.1912797 4.7462737,29.7116762 C4.77046921,29.7353306 4.78210166,29.7677974 4.773261,29.8007281 C4.7476696,29.9004475 4.75325318,30.2385662 4.46337243,30.6963482 C4.22002151,31.0803842 3.98876833,31.1954094 3.88221505,31.2631259 C3.81660802,31.304869 3.7454174,31.2830698 3.6695738,31.2659088 C1.92749756,30.881409 -1.95308895,29.4737409 -5.74108113,26.9014419 C-9.52907331,24.3286792 -10.154434,22.219728 -9.72775562,21.3023087" id="Fill-76" fill="#193F61" mask="url(#mask-22)"></path>
                        </g>
                        <g id="Group-81" transform="translate(10.236559, 2.326491)">
                            <mask id="mask-24" fill="white">
                                <use xlink:href="#path-23"></use>
                            </mask>
                            <g id="Clip-80"></g>
                            <path d="M-7.3603652,20.0214003 C-7.3603652,20.0214003 -7.98014233,20.2426384 -8.55106315,20.3460684 C-9.05498104,20.4369755 -9.65009736,20.9425301 -9.67754995,20.9782436 C-9.85901623,21.2101493 -9.95579824,21.8970543 -9.90182366,21.9081858 C-9.80783343,21.927202 -9.8650651,21.7240526 -9.7147738,21.5617185 C-9.57006608,21.4058778 -9.57518436,21.3432633 -9.57518436,21.3432633 C-9.57518436,21.3432633 -9.68546002,21.4383446 -9.74734467,21.5835177 C-9.84505728,21.8135682 -9.8906565,22.2824817 -9.83202893,22.2908303 C-9.77340137,22.2987151 -9.70919022,21.8335121 -9.53377283,21.6326817 C-9.35835543,21.4318513 -9.21085591,21.3525395 -9.21085591,21.3525395 C-9.21085591,21.3525395 -9.39278749,21.4680286 -9.54447468,21.7073553 C-9.72640626,21.9930633 -9.67010518,22.5347952 -9.60170635,22.5162427 C-9.48445122,22.4847035 -9.57006608,22.11922 -9.34904946,21.8604132 C-9.15455484,21.6317541 -8.75951672,21.2662705 -8.58409932,21.5093078 C-8.45381584,21.6897305 -8.92795464,22.1553973 -8.89166139,22.2087357 C-8.83256852,22.2954684 -8.49755386,22.070056 -8.1108911,21.636856 C-7.7623828,21.2472543 -7.40317263,20.6512564 -7.24264477,20.6387335 L-7.3603652,20.0214003" id="Fill-79" fill="#EF888B" mask="url(#mask-24)"></path>
                        </g>
                        <g id="Group-84" transform="translate(10.236559, 2.326491)">
                            <mask id="mask-26" fill="white">
                                <use xlink:href="#path-25"></use>
                            </mask>
                            <g id="Clip-83"></g>
                            <path d="M15.1174901,25.1695232 C15.1174901,25.1695232 12.6542018,22.4195844 12.016278,20.8212897 C11.3020454,19.0309771 12.2158909,15.6414421 11.0293806,13.9169907 C10.1597384,12.6531042 7.97330244,11.9917089 7.97330244,11.9917089 C7.97330244,11.9917089 7.39074917,12.9722066 6.02789091,12.6888177 C4.6771304,12.3548734 4.57848719,11.2199265 4.57848719,11.2199265 C4.57848719,11.2199265 2.32039531,10.8702126 0.986850831,11.6336464 C-0.832464907,12.6744396 -1.48388231,16.1238062 -2.90583343,17.4280443 C-4.17656266,18.5926752 -7.59278162,20.0054452 -7.59278162,20.0054452 C-7.59278162,20.0054452 -7.73469756,20.2359595 -7.53601525,20.5810353 C-7.33686764,20.926575 -7.12655288,20.9646075 -7.12655288,20.9646075 C-7.12655288,20.9646075 -3.27295367,20.6246336 -1.26426158,19.0342238 C0.744895797,17.4438139 1.28650283,15.4647299 1.28650283,15.4647299 C1.28650283,15.4647299 0.991038514,18.8241171 0.609028739,20.6441137 C0.57366608,20.8412336 0.208872336,22.0573476 0.022287781,22.3667099 C-0.101946823,22.5717146 1.77460059,23.5893172 3.44362502,23.9803103 C5.11776774,24.3495043 7.25115973,24.2437553 7.22882542,24.0053561 C7.19532395,23.6459022 7.39493685,22.3926833 7.44984203,22.1992739 C7.89699355,20.3950469 9.09187918,17.239273 9.09187918,17.239273 C9.09187918,17.239273 9.1123523,19.5346764 10.2304637,21.8361094 C11.3485752,24.1380062 14.2799535,25.8323099 14.2799535,25.8323099 C14.2799535,25.8323099 14.4865458,25.8888949 14.8159769,25.6634825 C15.145408,25.4389977 15.1174901,25.1695232 15.1174901,25.1695232" id="Fill-82" fill="#D44454" mask="url(#mask-26)"></path>
                        </g>
                        <g id="BZK" opacity="0.2" transform="translate(6.048876, 0.007433)">
                            <mask id="mask-28" fill="white">
                                <use xlink:href="#path-27"></use>
                            </mask>
                            <g id="Clip-87"></g>
                            <path d="M40.5448704,22.6654509 C40.5118342,22.8124792 40.5555722,23.0504145 40.7644911,23.031862 C40.7737971,23.0258325 40.7798459,23.0355725 40.7779848,23.0429935 C40.7100512,23.1988342 40.3801548,23.2874222 40.2912829,23.0643289 C40.1172614,23.2934518 40.0884129,23.5313871 40.3131519,23.728507 C40.3266456,23.7396385 40.3229232,23.7549443 40.3043112,23.7670034 C40.1247062,23.8407494 39.8888,23.7632929 39.8287765,23.5221109 C39.5826338,23.6375999 39.5384305,23.9775738 39.6366084,24.1218192 C39.6366084,24.1218192 38.9670444,24.3379554 38.4947668,23.9715443 C38.1834823,23.7224775 37.9447844,23.4409438 37.477625,23.3769378 C37.6832868,22.7558942 38.0401705,22.6566385 38.6520375,22.6965263 C39.1359476,22.7234273 39.2466886,22.5207417 39.2136524,22.3421742 C39.0591734,22.2670368 38.7399789,22.3417104 38.7399789,22.3417104 C38.7050815,22.24431 38.8037247,22.1687087 38.8037247,22.1687087 C38.7813904,22.1232552 38.791627,22.0035918 38.791627,22.0035918 C39.1187316,22.0764102 39.1964364,22.0207528 39.1964364,22.0207528 C39.3350952,21.6942295 38.994497,21.5768852 38.6883308,21.7035057 C38.5882917,21.5671451 38.6450581,21.4252188 38.6450581,21.4252188 C38.6096954,21.4011006 38.5999241,21.3338479 38.6055077,21.3106573 C38.6231891,21.2332008 39.0619652,21.0954487 39.1685185,21.0949849 C39.2178401,20.984134 39.3927922,20.8607601 39.8036504,20.9934102 C39.8753064,20.895546 39.8883347,20.4753327 39.8641392,20.3640179 C39.8557638,20.3296959 39.884147,20.3116072 39.9176485,20.3436102 C40.0446749,20.4697669 40.108886,20.8343228 40.2084598,20.8644706 C40.2084598,20.8644706 40.7291284,20.7290376 40.7505322,20.7420243 C40.7700747,20.762432 40.7170307,21.2879305 40.7170307,21.2879305 C40.7616993,21.3793014 41.1367296,21.3820843 41.2763191,21.4864419 C41.3116817,21.5110239 41.3047022,21.5416355 41.2642213,21.5407079 C41.1423132,21.537925 40.7342467,21.609352 40.6477013,21.7035057 C40.7826377,22.0838312 40.5741842,22.5337284 40.5448704,22.6654509 L40.5448704,22.6654509 Z M36.3436935,21.9994175 C36.3018166,22.0388415 36.1957286,21.9664869 36.1543171,21.9326286 C36.1487335,21.9228886 36.1389623,21.9293819 36.1450111,21.9386582 C36.1622272,22.0077661 36.2292301,22.2178727 36.3920845,22.2545139 C36.4697892,22.2716749 36.5809955,22.2480205 36.6228723,22.2085965 C36.6228723,22.2085965 37.2203152,22.5624847 37.5120571,22.7173978 C37.3482721,22.8551498 37.2277599,23.0374278 37.1649447,23.2419687 C36.9439281,23.029543 36.0421803,22.2494119 36.0421803,22.2494119 L35.6257384,22.6116488 C35.5554784,22.6691614 35.348886,22.4275156 35.411236,22.3681477 L35.7271734,22.0889331 C35.6690111,21.9864308 35.4624188,21.9970984 35.4042565,22.0003451 C35.3968117,21.9989537 35.3889017,21.9970984 35.4000688,21.9831841 C35.4452027,21.9279905 35.6075918,21.7531336 35.8909584,21.9061914 C35.9333005,21.7202029 35.6471421,21.7211306 35.573625,21.7206667 C35.565715,21.7192753 35.565715,21.7192753 35.5750209,21.7132458 C35.670407,21.6529503 35.9281822,21.5240106 36.1436152,21.7266963 L36.2859965,21.6037862 L36.1208156,21.3227164 L36.3027472,21.1682672 L36.4106964,21.412232 L37.9559515,20.0662509 C37.9955019,20.0342479 38.2444364,20.0170869 38.3333083,20.0207973 C38.32028,20.1154149 38.2737501,20.3570607 38.2416446,20.390919 L36.7089525,21.7559164 L36.9402057,21.8890303 L36.7657189,22.0453348 L36.5079437,21.8491425 L36.3436935,21.9994175 Z M43.2449955,32.4755294 C43.2603503,32.4792399 43.2640727,32.4634703 43.2580239,32.454194 C43.1254139,32.3187611 43.039799,32.1531803 43.0737658,32.0061521 C43.1342545,31.7348223 43.7354197,31.4954955 43.9843543,31.5511529 C44.1318538,31.5840835 44.2002526,31.7867692 44.4882721,31.851239 C44.6357717,31.8841696 44.820495,31.860979 45.0084755,31.715806 C45.0196426,31.7018917 45.0215038,31.6940069 44.9982389,31.6889049 C44.878192,31.6782373 44.5324755,31.6902964 44.51619,31.0762099 C44.4971128,30.4370775 44.542712,29.9834698 44.8670248,29.8123233 C45.1359672,29.6690056 46.2238342,29.5145563 46.8231382,29.429215 C46.8575703,29.4204026 46.8533826,29.4032415 46.8319789,29.3902548 C46.6849447,29.3165088 46.5583836,29.190352 46.5863015,28.9936959 C46.5974686,28.8735687 46.6574921,28.7163366 46.8068528,28.668564 C46.6016563,28.3132844 46.1107668,27.9913991 45.8232125,27.9269293 C44.7353455,27.6829644 43.4785752,28.946851 43.0356113,28.8480591 C42.9807062,28.8355362 42.916495,28.796576 42.8671734,28.6880441 C42.8569369,28.661143 42.841582,28.6578964 42.8327413,28.6963927 C42.7327022,29.1379413 42.9574413,29.2288484 43.0895859,29.2585323 C43.1593806,29.2743019 43.2422037,29.2687362 43.3040884,29.2497199 C43.3213044,29.2455456 43.326888,29.2552856 43.3236309,29.2705914 L43.3026925,29.3633537 C43.1835761,29.8902437 43.6060669,30.5873525 43.6060669,30.5873525 C43.2994354,30.7872553 42.5800845,31.0813118 42.4614334,30.8109096 C42.4046671,30.7000587 42.2176172,30.0479396 41.6774061,30.4148146 C41.6583288,30.4268737 41.6606553,30.4519195 41.6918303,30.4588767 C41.9323894,30.5126788 42.0901255,30.719075 41.9700786,30.9607208 C41.6834549,30.6035859 41.1837247,30.5405075 41.0385517,31.1828865 C41.0334334,31.2065409 41.0548371,31.2190638 41.0739144,31.2074685 C41.3819417,30.9268625 41.6969486,31.2329782 41.7402213,31.2918822 C41.4833767,31.2747212 40.9910913,31.4653478 41.2563112,32.0622733 C41.2665478,32.0887105 41.2837638,32.0845362 41.2874862,32.0692304 C41.4014843,31.7445623 41.6178479,31.7283289 41.7886123,31.7663615 C42.1301412,31.8433542 42.3153298,32.2181139 42.6484833,31.9347251 C42.6266143,32.3938985 43.1249486,32.4648617 43.2449955,32.4755294 L43.2449955,32.4755294 Z M31.2859026,29.3939653 C31.4748137,29.7863499 31.7930776,29.5321812 32.1350717,29.6087101 C32.3063015,29.6472064 32.4956778,29.7469259 32.4579887,30.096176 C32.4542663,30.1119456 32.4682252,30.1230771 32.4891636,30.1031332 C32.9772614,29.6759627 32.6147941,29.2933182 32.3826104,29.2005559 C32.4477521,29.1662338 32.8632633,29.0233799 33.0214647,29.4088073 C33.0330972,29.4278236 33.0563621,29.4329255 33.0638068,29.4018501 C33.2085146,28.7590073 32.7297228,28.6027028 32.3170033,28.8030694 C32.3049056,28.5317396 32.5356935,28.4130038 32.784628,28.4686612 C32.8158029,28.4756184 32.8288313,28.4542831 32.8167335,28.4352668 C32.4863718,27.8726634 32.0285185,28.380537 31.9377853,28.4579936 C31.7144422,28.6518668 31.1905165,28.0785957 30.9997443,27.7673781 C30.9997443,27.7673781 31.6809408,27.3174809 31.8000571,26.7910548 L31.8209955,26.6978287 C31.8242526,26.6825229 31.8335586,26.6764933 31.8479828,26.6876248 C31.8949779,26.7312231 31.9675644,26.7715747 32.0373591,26.7873443 C32.1615937,26.815173 32.4114588,26.8304788 32.5110326,26.3889302 C32.5180121,26.3578548 32.5026573,26.3546081 32.4835801,26.3662034 C32.4002917,26.4455152 32.3174686,26.4515447 32.2630287,26.4390218 C31.8200649,26.3397661 31.2277404,24.6603045 30.1398733,24.4163396 C29.8523191,24.3518698 29.2706964,24.4330368 28.9319593,24.666334 C29.046888,24.7734745 29.0333943,24.9413743 28.9915175,25.0540805 C28.9259105,25.234967 28.7574725,25.2943349 28.5992712,25.3077854 C28.5741451,25.3105683 28.5629779,25.3240188 28.5908958,25.3467456 C29.095279,25.6797623 30.0119163,26.2841087 30.1938479,26.5285374 C30.4134686,26.8216664 30.2594549,27.2511559 29.9672477,27.8202527 C29.6885341,28.3680141 29.3795761,28.2172754 29.2683699,28.1681113 C29.2525498,28.1644008 29.2432438,28.1704304 29.2474315,28.1880552 C29.3470053,28.3972342 29.5117208,28.4992728 29.6592203,28.5326672 C29.9472399,28.597137 30.0961353,28.4436154 30.2436348,28.476546 C30.4925693,28.5322034 30.9327413,29.0052912 30.871322,29.276621 C30.8364246,29.431534 30.6898557,29.5368193 30.5121118,29.6026805 C30.5023406,29.6087101 30.5004794,29.6165949 30.513973,29.6277263 C30.6135468,29.6583379 31.0941998,29.8067576 31.2859026,29.3939653 L31.2859026,29.3939653 Z M38.4063601,21.7948766 C38.6031812,21.7902385 38.8079124,21.8607378 38.8293161,21.8732607 C38.8586299,21.8881027 38.8483934,21.9349477 38.8079124,21.9335562 C38.3993806,21.8992342 38.3435449,22.0736273 38.0871656,22.0161147 C37.9238459,21.9794736 37.7758811,21.7670479 37.8996504,21.5430269 C37.9150053,21.5138068 37.9378049,21.5189087 37.9387355,21.5518393 C37.948972,21.6515588 38.0778596,21.8027614 38.4063601,21.7948766 L38.4063601,21.7948766 Z M39.5514588,21.3519365 C39.2829818,21.2754076 39.0982585,21.299062 39.086626,21.3857948 C39.1871304,21.555086 39.3616172,21.5778128 39.5514588,21.3519365 L39.5514588,21.3519365 Z M35.7067003,27.8221079 C35.5168587,27.9747019 35.4247296,27.7673781 35.2227902,27.7214608 C35.0362057,27.6801816 34.9705986,27.8276736 34.9561744,27.8898244 C34.9543132,27.8977092 34.9450072,27.9032749 34.9408196,27.8861139 C34.7961118,27.5526334 35.0641236,27.450131 35.2088313,27.4580158 C35.1906847,27.4297233 35.0185243,27.2525473 34.8445028,27.4088518 C34.8333357,27.4227661 34.8193767,27.4111709 34.8230991,27.3958651 C34.8956856,27.0378025 35.1809134,27.0772265 35.3321353,27.2743464 C35.3930893,27.1495811 35.3284129,27.0373387 35.1827746,26.9965233 C35.1669544,26.9932766 35.1627668,26.9756518 35.1720727,26.9696222 C35.2502428,26.9139649 35.3195722,26.8972676 35.3814569,26.9107182 C35.5754862,26.9547803 35.5512907,27.2094128 35.67506,27.2372415 C35.8695546,27.2808398 36.2008469,27.078618 36.2371402,27.0619207 C36.2329525,27.0447597 36.1585048,26.5072021 36.2655234,26.2140732 C36.2692457,26.1983036 36.2613357,26.1969122 36.2515644,26.2024779 C36.146407,26.2358723 35.9053826,26.1820702 35.9719202,25.8875499 C35.9770385,25.8643593 35.9849486,25.8662145 35.9970463,25.8852308 C36.0645146,26.0549858 36.2720375,25.9306843 36.380452,25.8490535 C36.4967765,25.7692779 37.1449369,25.1742077 37.7903054,25.3189169 C37.9303601,25.3504561 38.0992633,25.4696556 38.2244285,25.6032334 C37.9373396,25.8240077 38.103451,26.1380081 38.2732848,26.1435738 C38.2970151,26.1486758 38.2932927,26.1644454 38.2760766,26.1686197 C37.3398968,26.3003422 36.9308997,26.3388385 36.768976,27.0596017 C36.684757,27.4311148 36.7699065,27.6699777 36.9979026,27.6722968 C37.0151187,27.6681225 37.0211675,27.6773987 37.0020903,27.6894578 C36.9034471,27.7650591 36.8029427,27.7752629 36.7252379,27.7576381 C36.5465634,27.7177503 36.5381881,27.6096822 36.4446631,27.5888107 C36.3441587,27.5660839 35.9830874,27.6806454 35.9463288,27.8434432 C35.9328352,27.9051302 35.9542389,27.9913991 36.0454373,28.0934377 C36.0514862,28.1027139 36.0435761,28.1013225 36.041715,28.1087435 C35.9663367,28.1161644 35.7141451,28.0762766 35.7067003,27.8221079 L35.7067003,27.8221079 Z M35.2362839,24.5179143 L34.9208117,24.3578993 L34.8812614,24.3894385 L34.5308919,24.1320231 L34.8807961,24.2104072 C34.9119711,24.2173644 34.9170893,24.1941738 34.9049916,24.1751576 L34.6765302,23.814776 C34.6765302,23.814776 34.8175155,23.9117126 35.0334139,24.041116 C35.0548176,24.0541027 35.0738948,24.0420436 35.0622624,24.0234912 C34.9901412,23.8361113 34.8896368,23.5940017 34.8896368,23.5940017 L35.2125537,23.9349032 C35.2320962,23.9557747 35.2511734,23.9437156 35.2488469,23.9186698 L35.1697462,23.4372334 L35.4382233,23.839358 C35.450321,23.8579104 35.467537,23.8541999 35.4731206,23.8305456 C35.4763777,23.6686753 35.4791695,23.3681254 35.4791695,23.3681254 L35.6517951,23.7976149 C35.6620317,23.824516 35.6792477,23.8198779 35.6848313,23.7966873 C35.7001861,23.7271156 35.7834745,23.3954903 35.7834745,23.3954903 C35.7834745,23.3954903 35.8379144,23.6603267 35.8625752,23.8041083 C35.8649017,23.8291541 35.8881666,23.8342561 35.9109662,23.8068912 C35.9351617,23.7716415 36.1133709,23.526749 36.1133709,23.526749 L36.0342702,23.9483537 L35.9779691,23.9437156 L35.7941763,24.4316454 C36.3260121,24.4288625 37.1416798,23.7085631 37.6232633,23.8166312 C38.1904618,23.9437156 38.2500199,24.6570578 39.3839515,24.553164 C39.5589036,25.0076993 39.5751891,25.3694723 39.5691402,25.8643593 C39.8878694,26.335128 40.4908958,26.3397661 40.5816289,25.9371777 C40.7044676,25.394982 40.1302897,25.1524085 40.2582467,24.5870222 C40.3159437,24.3309982 40.5765107,24.0072578 41.0660043,24.1171811 C41.3228489,24.1746937 41.6792673,24.368567 41.8965615,24.4172672 C42.1529408,24.4747798 42.2492575,24.3008505 42.2981138,24.2308149 C42.3334764,24.1816509 42.4000141,24.2127263 42.3814022,24.257716 C42.3613943,24.3101267 42.3846252,24.3885109 42.3572066,24.5123486 C42.2762448,24.8685558 41.7374295,24.7966651 41.6839202,24.7437905 C41.6639124,24.7233828 41.6355292,24.7414715 41.655537,24.7618792 C41.7188176,24.841191 41.6546065,25.0545443 41.5317677,25.1653952 C41.5206006,25.1793096 41.5047804,25.1755991 41.5005928,25.1584381 C41.5043152,24.8908188 41.2721314,24.5049276 41.0003973,24.4441683 C40.8998929,24.4214415 40.6928352,24.4321092 40.6407218,24.6644788 C40.5672047,24.9896107 41.1534804,25.4306955 41.0027238,26.0967289 C40.845453,26.7938377 40.1172614,26.8012586 39.4560727,26.4738077 C39.3309075,27.1379858 40.2284676,27.7543914 40.3587511,27.2868694 C40.3657306,27.255794 40.3778283,27.2748103 40.3899261,27.2938265 C40.4918264,27.5285152 40.3871343,27.6676587 40.1833337,27.7033721 C40.3364168,27.8188612 40.2889564,28.1746047 40.2977971,28.387958 C40.3052418,28.715409 40.6705009,28.6180086 40.6877169,28.6142981 C40.7049329,28.6096599 40.7109818,28.6194 40.6998147,28.6328505 C40.502063,28.9306176 40.1958968,28.7316424 40.1958968,28.7316424 C39.9967492,28.8169837 40.1824031,28.9728244 40.3271109,29.0539914 C40.3485146,29.0669782 40.3447922,29.0822839 40.3201314,29.0850668 C40.1949662,29.0975897 39.9288156,29.1193889 39.8571597,28.8916574 C39.7226886,29.0897049 39.5384305,29.0400771 39.4686358,29.0238437 C39.3439359,28.996015 39.2290072,29.1087212 39.2210972,29.2858972 C39.2178401,29.3016668 39.2085341,29.3076964 39.1964364,29.2886801 C38.9386612,29.0192056 39.1620043,28.8253323 39.3006631,28.7914741 C39.2085341,28.7093794 39.0675488,28.717728 38.9856563,28.8095627 C38.9703015,28.8267238 38.9582037,28.8462038 38.9484325,28.8670754 C38.9372653,28.8805259 38.927494,28.8865555 38.9256328,28.8615096 C38.8716583,28.4835032 39.1838733,28.4394411 39.3727844,28.5795122 C39.3681314,28.5294205 39.2992673,28.3271987 39.0131089,28.3276625 C38.9977541,28.3244158 38.989844,28.3225606 39.0014764,28.3086462 C39.0722018,28.2112458 39.2392438,28.0855529 39.4528156,28.2965871 C39.5598342,28.4018724 39.8115605,28.3360111 39.8287765,28.3318368 C39.5835644,27.3573687 38.562235,27.9014197 38.5236152,27.1681336 C38.5273376,27.1528278 38.5059339,27.1398411 38.4910444,27.1690612 C38.4110131,27.3058856 38.0364481,27.2298205 38.0313298,26.9274154 C38.0290033,26.9023696 38.0364481,26.9042248 38.0485458,26.9232411 C38.090888,26.9895661 38.1951148,27.0702694 38.4012418,26.8801066 C38.535713,26.7558051 38.5948059,26.5656424 38.6259808,26.4260351 C38.7469584,25.8917242 38.4119437,24.8806149 37.5804559,24.6941627 C37.0518772,24.5754269 36.4390796,24.6496368 35.9495859,24.8653092 L36.3171715,25.0452681 C36.1892145,25.4316231 35.7555566,25.5786514 35.4289173,25.3996201 L35.592237,24.9645648 C35.5270952,24.9654925 35.3591226,24.9849726 35.2553611,25.0837644 C35.2455898,25.0902578 35.2381451,25.0884025 35.2316309,25.0786625 C35.2199984,24.8073327 35.4591617,24.722919 35.5359359,24.7076132 C35.5457071,24.7015837 35.5457071,24.7015837 35.5303523,24.6978732 C35.3451636,24.6482454 35.2051089,24.7632706 35.1636974,24.8026946 C35.1539261,24.809188 35.146016,24.8073327 35.1478772,24.7994479 C35.1232164,24.7289486 35.1218205,24.5898051 35.2362839,24.5179143 L35.2362839,24.5179143 Z M36.327408,33.4629842 C39.6528938,34.209257 42.9872203,35.1359525 43.3161861,35.7389075 C43.3464305,35.7866801 43.3631812,35.7495752 43.3696954,35.7184998 L43.76706,33.9601902 C43.882454,33.4490698 40.4694921,32.365606 36.7624618,31.5339919 C33.0554315,30.7023777 29.5079984,30.2158394 29.3907433,30.7348445 L28.993844,32.4931542 C28.9868645,32.5242296 28.993844,32.5664364 29.0333943,32.5344334 C29.5898909,32.1304536 33.0009916,32.7167114 36.327408,33.4629842 L36.327408,33.4629842 Z M41.5745752,35.462012 L41.4033455,36.2212716 C41.1111382,37.514842 43.5223132,36.7783093 45.6194119,37.1103984 C47.3535781,37.3854386 47.7374491,37.9271705 47.7374491,37.9271705 L47.8165498,36.1299007 C47.8221333,36.0334279 47.5085224,35.6864968 46.3271304,35.4216604 C44.9051793,35.1025581 44.129062,35.213409 43.851279,35.2486587 L43.6470131,36.1549465 C43.5995527,36.3641255 43.4762487,36.4420459 43.2989701,36.4675555 C43.3082761,36.3882437 43.1910209,35.8247127 41.5745752,35.462012 L41.5745752,35.462012 Z M28.7439789,33.2023221 C28.6025283,33.1053855 28.5159828,32.9801563 28.5634432,32.7709773 L28.7681744,31.8646895 C28.5248235,31.7125593 27.8789896,31.282606 26.4570385,30.9639675 C25.2761118,30.6986672 24.8433846,30.8786261 24.8070913,30.967678 L24.105887,32.6253405 C24.105887,32.6253405 24.6856485,32.2997448 26.3709584,32.7918488 C28.4080336,33.3873829 30.2706221,35.0826142 30.5628293,33.7890437 L30.734059,33.030248 C29.1101685,32.6656921 28.7616602,33.1248656 28.7439789,33.2023221 L28.7439789,33.2023221 Z M36.0552086,19.1191477 C35.5331441,19.115901 35.1529955,19.1363087 34.9873494,19.147904 C35.0441157,18.9326954 35.1748645,18.7504175 35.3791304,18.7476346 C35.4047218,18.7448517 35.419146,18.7156316 35.3996035,18.6947601 C35.0231773,18.3014479 34.662106,18.8144235 34.6509388,18.8283378 C34.4992516,18.7777823 34.2461294,18.7782462 34.198669,18.9869614 C34.0553572,19.6223832 32.5310405,19.6465014 32.1788098,19.6163537 C32.7190209,19.9734886 32.7995175,20.7730997 32.7995175,20.7730997 C33.3229779,20.4428659 33.9139065,20.176638 34.022321,20.20122 C34.1391109,20.2271935 34.1465556,20.3756132 34.1353885,20.462346 C34.1279437,20.4934213 34.1572575,20.5082633 34.1781959,20.4883194 C34.4787785,20.2058582 34.3875801,20.1038196 34.3945595,19.999462 C34.3964207,19.9187588 34.4862233,19.6298042 34.8040219,19.7415828 L33.8524872,23.9553109 L33.674278,23.9478899 C33.5937814,23.9460346 33.0982389,23.2818565 32.4938166,22.6334479 C31.8968391,21.9864308 31.4492223,22.1956098 30.5432868,22.4479233 C29.3572418,22.7841867 28.4098948,22.0263186 28.4098948,22.0263186 C27.3532027,22.4729691 26.6194276,24.2776599 26.6194276,24.2776599 C26.4230717,24.3152286 26.1010854,24.3323897 25.8135312,24.2679199 C25.1220981,24.112543 25.0839437,23.664501 25.1416407,23.4094047 C25.3831304,22.340319 26.8306729,22.1844783 27.0684403,21.1311622 C27.1261372,20.8756021 27.244323,19.8116183 25.9545165,19.5221999 L24.7963894,19.2624654 C24.3143406,19.1543973 24.2692066,18.7777823 24.2361705,18.6321455 C24.2236074,18.5801986 24.1700981,18.6010701 24.1766123,18.643277 C24.1961548,18.7369669 24.0719202,18.8557027 24.0123621,19.1191477 C23.9160454,19.5449267 24.1072829,19.8566081 24.5809564,19.9628209 C24.7987159,20.0115211 25.0067042,19.9934325 25.0853396,19.9702419 C25.137453,19.9572552 25.1518772,20.0013173 25.1230287,20.0194059 C24.8671148,20.2142068 24.7521861,20.6520449 24.8052301,20.7782016 C24.8233767,20.8064941 24.8485028,20.8041751 24.8517599,20.7884055 C25.0695195,20.3654093 25.5873963,20.0258993 26.1625048,20.1548389 C26.8618479,20.3116072 26.7273767,20.9080689 26.6952712,21.0476762 C26.5012418,21.9075828 24.8447804,22.1946822 24.5790952,23.3722997 C24.3078264,24.5731079 25.516671,25.1125207 26.2983718,25.084692 C25.9805732,26.2748325 24.5144188,26.3689863 24.6679672,25.508152 C24.6763425,25.4696556 24.6488899,25.4473927 24.6135273,25.4960929 C24.3464461,25.8838394 24.3245771,26.2697306 24.8345439,26.5058107 C24.8713024,26.5225079 24.8429193,26.5405965 24.806626,26.55683 C24.207322,26.7887357 24.1956895,28.1773876 24.1319437,28.570236 C24.0444676,29.1365499 23.4991382,28.94917 23.4558655,28.9231966 C23.4344618,28.9102098 23.4093357,28.9125289 23.4377189,28.9677225 C23.7257384,29.5368193 24.3148059,29.2056578 24.3148059,29.2056578 C24.661453,29.4050968 24.3566827,29.6708608 24.0714549,29.7770737 C24.0272516,29.7919156 24.0202721,29.822991 24.066802,29.8336587 C24.1212418,29.845254 24.6842526,30.0289233 24.8885185,29.5943319 C25.0764989,29.9542497 25.4738635,29.9292039 25.560409,29.9078685 C25.6818518,29.8781846 26.2616133,29.8049024 26.1811167,30.4134231 C26.1704149,30.4598043 26.2085693,30.4356861 26.2295077,30.416206 C26.7492457,29.9955289 26.3835214,29.5883024 26.1513376,29.49554 C26.1820473,29.4695666 26.5598694,29.2775486 26.7711148,29.7158505 C26.7897267,29.744143 26.8032203,29.7557383 26.8153181,29.7010086 C26.9916661,29.0651229 26.4849564,28.8865555 26.080147,29.0887773 C26.0806123,29.0154951 26.0443191,28.6328505 26.5556817,28.7557606 C26.5710366,28.7594711 26.5975586,28.7492672 26.5738283,28.7112347 C26.2718499,28.2038248 25.8521509,28.508549 25.7614178,28.5860056 C25.5348176,28.754833 25.1113963,28.570236 25.0723112,28.5614235 C25.7181451,26.3541443 27.5132653,27.5869554 28.0302115,26.5637871 C28.0581294,26.5127679 28.0776719,26.5336394 28.0804637,26.5586852 C28.0986104,26.839755 28.7579378,27.0280625 28.9998929,26.5373499 C29.0143171,26.5081297 29.0119906,26.4826201 28.9831421,26.5011726 C28.279146,26.9450402 27.3908919,24.8741216 29.482407,23.8212693 C31.2603112,22.926113 32.4579887,23.9112488 32.8707081,24.434892 C32.8539574,24.6185614 32.7390287,24.6575216 32.6650463,24.6575216 C32.6403855,24.6598406 32.6268919,24.6816398 32.6627198,24.705758 C32.7902115,24.7910993 32.995408,24.8212471 33.1266221,24.7122513 C33.4020786,25.0100184 33.057758,25.2340394 32.9083973,25.281812 C32.872104,25.2980454 32.8837365,25.3170616 32.9056055,25.3300484 C33.1880414,25.4501756 33.4974647,25.2025002 33.5519046,25.035528 L33.5914549,25.0768072 L33.304366,26.3471871 C32.8953689,28.1597627 34.9370972,28.8786707 36.8908841,30.928254 C39.5374999,29.9106514 41.6936915,30.1253961 42.1012927,28.3207053 L42.3879163,27.0503255 L42.4414256,27.0299177 C42.418626,27.2038471 42.5912516,27.5600544 42.8988137,27.5721135 C42.9318499,27.5711858 42.9425517,27.5572715 42.9174256,27.5271237 C42.802497,27.4199833 42.594974,27.0725884 42.9644207,26.9190668 C43.0281666,27.0716608 43.2268489,27.1328839 43.3864461,27.1115486 C43.4287883,27.1050552 43.4259965,27.0800094 43.4045928,27.0670227 C43.3399163,27.0280625 43.2435996,26.9492145 43.3147902,26.7780681 C43.9187472,26.4905049 45.4188684,26.1027584 46.6407413,27.6709053 C48.0696719,29.5131649 46.3773826,31.0052467 45.939537,30.3048912 C45.9213904,30.2765987 45.9083621,30.2979341 45.9088274,30.3308647 C45.9144109,30.8855833 46.5914197,30.9964343 46.7305439,30.7431932 C46.7435722,30.721394 46.7705595,30.7111902 46.7738166,30.7687028 C46.8008039,31.9143174 48.9607179,31.5687777 48.5870835,33.8368163 C48.5466025,33.8358887 48.0864227,33.8140895 47.9547433,33.5650227 C47.8984422,33.4546356 47.6574178,33.0019555 47.1665283,33.3312617 C47.1381451,33.3493504 47.1562917,33.3776429 47.1642018,33.3794981 C47.6802174,33.4787538 47.4894452,33.8187277 47.4503601,33.8831975 C47.1711812,33.527454 46.6384149,33.4648394 46.5225556,34.1225242 C46.5099926,34.1767902 46.535584,34.1740073 46.5560571,34.1545272 C46.9352751,33.8488754 47.1925849,34.1916322 47.2107316,34.2199247 C46.9613318,34.2046189 46.456018,34.4170446 46.7445028,35.0186082 C46.7552047,35.0455093 46.7714901,35.0816866 46.7896368,35.0371606 C46.980409,34.4448733 47.4712985,34.7667585 47.5680805,34.8451427 C47.6364794,34.9012639 47.9849877,35.0937457 48.3097658,34.849317 C48.3079046,35.3288981 48.8946456,35.4035718 48.9490854,35.4156309 C48.9881705,35.4244433 49.00306,35.3952232 48.9690933,35.3632202 C48.7573826,35.1447649 48.6038342,34.7764985 48.99515,34.7426403 C48.99515,34.7426403 49.3850698,35.2941123 49.8899183,34.9026553 C49.9317951,34.8627675 49.9178362,34.851636 49.8927101,34.8544189 C49.8424579,34.8595208 49.2673494,34.8033996 49.4339261,34.2468257 C49.5446671,33.864645 50.131408,32.604469 49.6782076,32.1531803 C49.6521509,32.1225688 49.6321431,32.102161 49.6744852,32.0952039 C50.2370307,32.0993782 50.3910444,31.7431709 50.3082213,31.2770403 C50.2975195,31.2176724 50.2644833,31.2181362 50.2537814,31.2649812 C50.0211324,32.1160754 48.7383054,31.3967037 48.9630444,30.1856917 C49.6591304,30.5372608 50.9833689,30.5660171 51.2527765,29.37263 C51.5184618,28.1954762 50.1467629,27.2205443 50.338931,26.3680586 C50.3724325,26.2210304 50.5050424,25.6324535 51.2043855,25.7892218 C51.7799593,25.9181614 52.1033415,26.438558 52.1163699,26.9218497 C52.1191617,26.9464317 52.1405654,26.9594184 52.163365,26.9320535 C52.2731754,26.8430017 52.3592555,26.3903216 52.2015195,26.1106432 C52.1838381,26.0823507 52.2154784,26.0484925 52.2568899,26.0823507 C52.3103992,26.1347614 52.4983797,26.2423657 52.7161392,26.2910659 C53.1823679,26.3958873 53.4964442,26.1978398 53.5927609,25.771597 C53.653715,25.500731 53.5904344,25.348137 53.6485967,25.2716081 C53.6727922,25.2358946 53.6332418,25.1946154 53.5978792,25.2437794 C53.4978401,25.3597323 53.3024149,25.6820813 52.8208313,25.5740132 L51.6631695,25.3142788 C50.3728978,25.0248603 50.022063,26.0368972 49.964366,26.2924574 C49.7261333,27.3457734 50.9675488,28.1045692 50.7265243,29.173191 C50.6702233,29.4213302 50.4496719,29.8192805 49.7503288,29.6625122 C49.4627746,29.5980424 49.1849916,29.4542608 49.0179496,29.3271764 C49.0179496,29.3271764 49.1300864,27.3828784 48.3679281,26.5285374 C48.3679281,26.5285374 47.1860708,26.8086796 46.2587316,25.9984008 C45.5486866,25.3829229 45.2341451,25.003525 44.4166162,25.3323674 C43.5990874,25.6616736 42.8592633,26.0489563 42.7922604,26.0183447 L42.6284755,25.948773 L43.5795449,21.7350449 C43.9131636,21.7767879 43.8717521,22.0689892 43.8387159,22.1431991 C43.8005615,22.2401357 43.6744657,22.2930102 43.824757,22.6765824 C43.8345283,22.7034835 43.8675644,22.7030196 43.8745439,22.6719443 C43.9015312,22.5879944 43.9797013,22.4595186 44.088581,22.4836368 C44.1974608,22.5082188 44.6166944,23.0012505 44.9479867,23.5230385 C44.9479867,23.5230385 45.3644285,22.8352059 46.0056094,22.7429074 C45.6840884,22.6139678 44.3095977,21.939122 44.4515136,21.3120487 C44.4985087,21.1024059 44.269582,20.9943378 44.1109153,20.9748577 C44.1062624,20.9576967 44.001105,20.3398997 43.4916035,20.5351644 C43.4646162,20.5453682 43.4655468,20.577835 43.4869505,20.5908218 C43.6712086,20.6808012 43.7112242,20.9015755 43.6698127,21.1200308 C43.2798929,20.8946183 41.5908606,19.9864753 39.4616563,19.5087494 C38.4277638,19.2768436 37.4459848,19.1785155 36.6531167,19.1474402 L36.3222897,20.6112295 L35.7471812,20.481826 L36.0552086,19.1191477 L36.0552086,19.1191477 Z M39.7022154,18.5129459 C41.5285107,18.9224916 42.4758577,19.5013284 42.4758577,19.5013284 C42.6898948,18.589011 42.7997052,18.0681506 43.3101372,18.2643429 C43.1975351,17.4253078 44.5096759,17.4021172 44.7348802,16.4030671 C44.8833103,15.7444547 44.4347629,15.5626406 44.2951734,15.5311014 C43.8829193,15.4383391 43.8843152,15.7235832 43.5344109,15.645199 C43.4874158,15.6345314 43.4506573,15.618298 43.4432125,15.6493733 C43.4176211,15.7653262 43.4748528,15.9814624 43.6302624,16.0167121 C43.8480219,16.0654123 43.8964129,15.8483485 44.0597326,15.8849896 C44.1295273,15.9007592 44.2188645,15.9777519 44.1676817,16.2022367 C44.071365,16.6284795 43.6851675,17.0380252 43.2673298,17.3348646 C43.2138205,17.2091716 43.1268098,17.1242941 43.0025752,17.0964654 C42.8080805,17.0528671 42.5917169,17.2161288 42.5340199,17.471689 C42.5126162,17.5644513 42.5126162,17.6377335 42.5265752,17.7221472 C42.4037365,17.759716 42.2957873,17.7680646 42.2255273,17.752295 C42.0780278,17.7193644 41.8667824,17.6066581 41.9402995,17.2815262 C42.1045498,16.5533421 43.2291754,16.1298821 43.4371636,15.2082885 C43.5367374,14.7667399 43.3413122,14.2588662 42.7271187,14.1211142 C42.0668606,13.9731583 42.0542976,14.6053335 41.4796543,14.4759301 C41.4563894,14.4708281 41.430798,14.4731472 41.4261451,14.4968016 C41.4173044,14.5352979 41.4428958,14.8910414 41.7378948,14.9573665 C42.0570893,15.0287934 42.2664735,14.498193 42.546583,14.5608076 C42.6549975,14.5853896 42.7964481,14.6823262 42.7122291,15.0538393 C42.648018,15.3404748 42.4028059,15.7741386 42.0915214,16.1762633 C42.0314979,16.0811819 41.942626,16.0041892 41.8342115,15.9796072 C41.585277,15.9239498 41.3600727,16.1257078 41.2972575,16.4044586 C41.2567765,16.583026 41.2884168,16.7690144 41.3865947,16.9132598 C41.1967531,17.0658539 41.0162174,17.1799515 40.8217228,17.1363532 C40.4252888,17.0473014 40.3047765,16.7843202 40.3596817,16.5440658 C40.4187746,16.2810847 40.9217619,16.2959267 41.0162174,15.8775686 C41.0790326,15.5988179 40.9371167,15.3961322 40.7584422,15.3562444 C40.5718577,15.3140376 40.4425048,15.4156123 40.42715,15.4119018 C40.403885,15.4067999 40.3387433,15.2620907 40.1521587,15.2198838 C39.973019,15.179996 39.7599124,15.2945575 39.695236,15.5816568 C39.6026416,15.9916663 40.0614256,16.2008453 40.0018674,16.4638264 C39.9478929,16.7040808 39.7259457,16.8905331 39.3299769,16.8014813 C39.1275722,16.7560277 39.0131089,16.5760688 38.9153963,16.3585412 C39.0656876,16.270417 39.1745674,16.115504 39.214583,15.9374003 C39.2792594,15.6507648 39.1531636,15.3785074 38.9121392,15.3242414 C38.7953494,15.298268 38.6822819,15.3298072 38.5952712,15.3914941 C38.4943015,14.8966072 38.451494,14.3989373 38.5166358,14.1123018 C38.5999241,13.7407887 38.769758,13.7134238 38.8786377,13.7380059 C39.1582819,13.8006204 39.1271069,14.3715725 39.4379261,14.441608 C39.7333904,14.5074692 39.9097384,14.1971793 39.9181138,14.1582191 C39.9236974,14.1350286 39.9018283,14.1225056 39.8785634,14.1169399 C39.3034549,13.9880003 39.5644872,13.4114825 38.9042291,13.2635266 C38.2900356,13.1257746 37.8949975,13.5009981 37.7954237,13.9425468 C37.5874354,14.8641403 38.4212497,15.7268299 38.2565341,16.455014 C38.1834823,16.7806097 37.9438538,16.7917412 37.7963543,16.7588106 C37.7186495,16.7411858 37.6339652,16.6818179 37.5376485,16.6029699 C37.5860395,16.5324705 37.6172145,16.4661455 37.6386182,16.3733832 C37.6963152,16.117823 37.5702194,15.8780324 37.37619,15.8344341 C37.2519554,15.8061416 37.1370268,15.8455656 37.0346612,15.9369365 C36.7829349,15.4977069 36.6117052,14.9545836 36.7075566,14.5288046 C36.7564129,14.3117408 36.8713415,14.2723168 36.9416016,14.2880864 C37.1044559,14.3247275 37.0560649,14.5417913 37.2733591,14.5904915 C37.4366788,14.6271326 37.5753376,14.4467099 37.5999984,14.338178 C37.6069779,14.3071027 37.5585869,14.3043198 37.5195019,14.2959712 C37.170063,14.2171232 37.293367,13.9601716 36.8815781,13.8678731 C36.7415234,13.8363339 36.2576133,13.808969 36.1091832,14.4675815 C35.8821177,15.4745164 37.0569955,16.0556723 36.5963503,16.757883 C37.1421451,16.7991622 37.0188411,17.3084273 36.8182976,18.2318761 C36.772233,18.2216723 37.8763855,18.1034003 39.7022154,18.5129459 L39.7022154,18.5129459 Z M40.6872516,14.1521896 C40.4308723,14.1099827 40.188452,14.2829844 40.1465752,14.5385446 C40.1074901,14.7736971 40.2512673,15.0005009 40.4806592,15.0658984 C40.7375038,15.1081052 40.9799241,14.9351035 41.021801,14.6790795 C41.0604207,14.4443909 40.9171089,14.217587 40.6872516,14.1521896 L40.6872516,14.1521896 Z M41.0864774,11.3359258 C41.0618166,11.4444577 41.087408,11.5478876 41.1143953,11.610966 C41.1674393,11.7366589 41.1376602,11.7950992 41.0995058,11.8192174 C41.0520454,11.8493652 40.9962096,11.844727 40.9045458,11.7426885 C40.8421959,11.6721891 40.7593728,11.6225613 40.6677091,11.6002983 C40.4806592,11.5580915 40.3596817,11.6610577 40.3368821,11.7621686 C40.3126866,11.8707005 40.3796895,12.0075249 40.5658088,12.0492679 C40.6746886,12.07385 40.77845,12.0483403 40.8417306,12.0219031 C40.9678264,11.9685647 41.026454,11.9977849 41.0506495,12.0362812 C41.0808938,12.08359 40.942235,12.443044 40.8291675,12.7268966 C40.5043894,12.7194757 40.3010542,12.9342204 40.2675527,13.0812487 C40.183799,13.4527617 40.5313767,13.7588774 40.744018,13.936981 C41.0050502,13.8650902 41.4582506,13.7389335 41.5424696,13.3669566 C41.5755058,13.2199283 41.483842,12.9388585 41.1869818,12.807136 C41.2144344,12.5042671 41.2456094,12.1123463 41.2837638,12.0882281 C41.3312242,12.0580804 41.3879906,12.0627185 41.4791891,12.164757 C41.524323,12.2157763 41.607146,12.283029 41.7164911,12.3071472 C41.9026104,12.349354 42.0240532,12.2463879 42.0468528,12.1452769 C42.0710483,12.036745 42.0040454,11.8999206 41.8174608,11.8581776 C41.708581,11.8335956 41.6048196,11.8591052 41.5420043,11.8855425 C41.4154432,11.9388808 41.3568156,11.9096607 41.3326201,11.8716281 C41.3028411,11.8238555 41.307494,11.7677343 41.4093943,11.6772911 C41.4605771,11.6313737 41.5280454,11.5488153 41.5527062,11.4407472 C41.594583,11.2547587 41.4912868,11.1337039 41.3898518,11.1109771 C41.2660825,11.0831484 41.1283543,11.1499373 41.0864774,11.3359258 L41.0864774,11.3359258 Z M48.5982506,20.6631764 C48.4065478,21.0759687 48.0045302,21.0509228 47.8305087,20.7350672 C47.9016993,20.5314539 48.12132,20.5319177 48.5982506,20.6631764 L48.5982506,20.6631764 Z M50.858669,23.7419576 C50.8689056,23.6955764 50.8516895,23.6997507 50.8270287,23.7025336 C50.4115175,23.8045721 50.3007765,23.3565301 50.4864305,22.9669284 C50.5934491,22.7466179 50.9354432,22.1724192 50.5362174,21.5541584 C49.9741372,21.7285515 49.7466065,21.1812539 49.8829388,20.9757854 C49.9201627,20.9192004 49.9606436,20.920128 49.9429623,20.9975845 C49.9085302,21.1524976 50.0453279,21.3050916 50.1537423,21.3296736 C50.356147,21.3751271 50.7716583,21.2322732 50.8800727,20.8983288 C50.4422272,20.4502869 49.5423406,20.3867447 49.227799,20.9836702 C49.1868528,21.0560248 49.0956543,21.0272684 49.1212457,20.9516672 C49.1333435,20.8969374 49.2422233,20.5226415 49.6651793,20.4224582 C50.0453279,20.3287682 49.976929,20.0528003 49.9048078,19.9391665 C49.8745634,19.8918577 49.8029075,19.8835091 49.8177971,19.9275712 C49.8992242,20.1822038 49.5963152,20.2197725 49.2184931,20.0861948 C48.4265556,19.7949211 48.086888,20.0361031 47.9928978,20.2346145 C47.8039867,20.240644 47.0167022,20.4711584 46.9836661,20.6181866 C46.9729642,20.6650316 46.9892497,20.7744911 47.0520649,20.8208723 C47.0520649,20.8208723 46.9701724,21.1116822 47.1441939,21.3542556 C48.1334178,21.0226303 48.2623054,21.5727109 48.099451,21.8941323 C48.099451,21.8941323 47.9165889,21.9831841 47.3335703,21.852853 C47.3335703,21.852853 47.3177501,22.0685254 47.3498557,22.1413438 C47.3498557,22.1413438 47.1795566,22.2818787 47.2377189,22.4576633 C47.2377189,22.4576633 47.5918108,22.300895 48.1068958,22.4414299 C48.1068958,22.4414299 48.3274471,23.0198029 47.0376407,22.982698 C45.7478342,22.9455931 45.0894373,24.0183892 44.943799,24.6612321 C44.9368196,24.6923075 44.9489173,24.7113237 44.9726475,24.7164257 C46.0167765,24.7553858 46.2405849,25.8963623 47.5666847,26.0637983 C47.5182936,25.7354197 47.7141842,25.4460012 47.7141842,25.4460012 C47.7541998,25.739594 47.9607922,25.9812398 48.1110835,26.1125239 C48.5922018,26.1148175 48.9458283,25.9580492 49.0454022,25.8420963 C49.0454022,25.8420963 48.6466416,25.3295845 49.1296211,24.6728274 C49.1296211,24.6728274 49.3306299,25.2303289 50.0271812,25.1102017 C50.0867394,25.0990702 50.08767,25.0587186 50.0527726,25.0341366 C49.2529251,24.5619764 49.9750678,23.96737 50.0467238,23.9019725 C50.4003503,24.2173644 50.800972,23.9979815 50.858669,23.7419576 L50.858669,23.7419576 Z M46.2433767,21.4372779 C45.9869975,21.3797652 45.7706338,21.2169674 45.7697032,21.0050055 C45.7720297,20.9567691 45.7310835,20.9233747 45.697582,20.9971207 C45.4756348,21.4034196 45.7389935,21.6821704 46.0419026,21.7498869 C46.376452,21.8250243 46.6170111,21.6269768 47.108366,21.6557331 C47.3270561,21.6640817 47.4582702,21.7341173 47.4740903,21.6645455 C47.4880493,21.6023948 47.1772301,21.5328231 47.1381451,21.5240106 C46.6486514,21.4140873 46.562106,21.5087049 46.2433767,21.4372779 L46.2433767,21.4372779 Z M31.3952477,17.0477652 C31.1025752,17.2587995 30.7280102,17.109916 30.7326631,16.6553806 C31.2277404,16.7421134 31.426888,16.8353395 31.3952477,17.0477652 L31.3952477,17.0477652 Z M28.0395175,18.9646984 C28.0781372,19.0463292 28.4736407,19.9002063 27.5476974,19.9855477 C27.5058205,19.992041 27.4830209,20.0198697 27.5379261,20.0648594 C28.1158264,20.4711584 28.5369212,20.0528003 28.5369212,20.0528003 C28.6909349,20.8524115 28.1102428,21.1455404 28.1102428,21.1455404 C28.1507238,21.2925687 28.4047765,21.577349 28.8388997,21.788847 C29.0310678,21.7341173 29.3195527,21.6121348 29.4838029,21.355647 C29.4838029,21.355647 29.5363816,21.7011867 29.351193,21.9771545 C30.6233181,22.3843811 31.3142858,21.4572218 32.2746612,21.867695 C32.303975,21.882537 32.3170033,21.8612016 32.3239828,21.8301263 C32.4677599,21.1951682 32.34306,19.9382389 31.153758,19.4187699 C29.972366,18.90162 30.4199828,18.4730581 30.4199828,18.4730581 C30.946235,18.5667481 31.1984266,18.8594132 31.1984266,18.8594132 C31.3263836,18.7253716 31.2328587,18.5254689 31.2328587,18.5254689 C31.2938127,18.4739858 31.3719828,18.2717639 31.3719828,18.2717639 C30.7889642,18.1409691 30.6619378,17.9818817 30.6619378,17.9818817 C30.6475136,17.6126877 31.0062585,17.1804153 31.7572497,17.9021061 C32.0187472,17.7573969 32.0694647,17.4596299 32.0694647,17.4596299 C32.1392594,17.4424688 32.2081236,17.3524894 32.2183601,17.3061082 C32.2523269,17.1586162 31.6399945,16.6145652 31.4720219,16.5282962 C31.4724872,16.3084496 31.2765967,15.9471404 30.4283582,15.8706114 C30.0291324,15.829796 29.7722878,15.6665344 29.9546847,15.4717335 C29.9872555,15.4378753 29.9188567,15.4146847 29.8713963,15.4448324 C29.7569329,15.5167232 29.5843073,15.7384251 29.880237,15.9837815 C30.2110639,16.253256 30.148714,16.6382196 30.144061,16.693877 C30.134755,16.7731888 30.0319241,16.7583468 30.0337853,16.6771798 C30.0063327,16.0037254 29.165539,15.677202 28.5774022,15.8947296 C28.5318029,16.2425883 28.8458792,16.5491678 29.0482839,16.5946213 C29.1646084,16.6205947 29.34654,16.5394277 29.3814373,16.3845147 C29.3991187,16.3070581 29.4358772,16.3237553 29.4456485,16.391008 C29.4800805,16.6345091 29.0408391,17.0241108 28.6067159,16.6340453 C27.9878694,17.0241108 28.0483582,17.6971014 28.0441705,17.93179 C28.0446358,18.3635986 27.7519632,18.7207335 27.420671,18.451259 C27.4071773,18.4401275 27.3853083,18.4271408 27.3746065,18.473522 C27.3169095,18.7290821 27.5844559,19.09874 28.0395175,18.9646984 L28.0395175,18.9646984 Z M31.6818714,18.0560915 C31.6353415,18.0458877 31.3319672,17.9781712 31.3184735,18.0398581 C31.3045146,18.1020089 31.4510835,18.1024727 31.6525576,18.1882778 C32.1085498,18.3719472 32.2406944,18.6539447 32.5752438,18.7286183 C32.8781529,18.7967986 33.2345713,18.6650761 33.2099105,18.1956988 C33.2024657,18.1205614 33.1601236,18.1275185 33.1419769,18.1720444 C33.0517091,18.3557138 32.7841627,18.4174008 32.5282487,18.3598881 C32.2169642,18.2903164 32.171365,18.1660149 31.6818714,18.0560915 L31.6818714,18.0560915 Z M42.0454569,23.3602406 L41.4549935,23.2275905 L41.8258362,21.5852338 L42.4158342,21.7178839 L42.0454569,23.3602406 Z M37.728886,30.0010946 L37.138888,29.8689084 L37.5097306,28.2265516 L38.0997286,28.3587379 L37.728886,30.0010946 Z" id="Fill-86" fill="#FEFEFE" mask="url(#mask-28)"></path>
                        </g>
                    </g>
                    <g id="Irma" transform="translate(68.000000, 22.000000)">
                        <path d="M35.490889,108.260209 L34.8537887,115.197284 C34.8537887,115.197284 26.528418,115.329974 26.264871,115.197284 C26.001324,115.064594 26.0448584,113.320326 27.4290654,113.033771 C28.8128042,112.746275 29.0651166,113.532066 30.9328832,112.602762 C32.0203072,112.062119 33.1395628,107.959068 33.1395628,107.959068 L35.490889,108.260209" id="Fill-1" fill="#D44454"></path>
                        <path d="M35.5347511,15.6110387 C35.5347511,15.6110387 35.4654706,13.1219166 35.341889,11.6077399 C35.2183075,10.0930926 35.208009,9.25789571 35.0694479,8.51021802 C34.9313548,7.76254033 34.8082414,8.36011784 34.8082414,8.36011784 L34.5123947,9.78536373 C34.4609023,9.51386592 33.9422343,8.75348382 33.794311,8.83629771 C33.6197052,8.93369814 34.1051373,10.0196894 34.0920301,10.7085504 C34.0756462,11.5771552 33.995131,12.0091049 33.8046094,12.0674511 C33.6136198,12.1257972 32.983073,11.040747 32.7387186,11.0143972 C32.4948322,10.9885178 33.3374337,13.289897 33.6585585,13.6517373 C33.9801514,14.0135775 34.2736576,16.4692917 34.2736576,16.4692917 L35.5347511,15.6110387" id="Fill-92" fill="#EF888B"></path>
                        <path d="M44.8092187,41.3417382 C44.4319205,37.7346286 39.9848572,30.6154571 38.7345302,26.8140172 C37.8277974,24.0576321 36.9889408,19.4191131 35.7821483,14.1557257 C35.6239264,13.464512 33.7730119,14.7490684 33.7959494,15.0911462 C34.1156698,19.9268187 34.5018621,23.8058967 35.0771717,27.7414387 C35.6323525,31.5419376 37.1345236,40.923434 39.3379265,44.7653398" id="Fill-94" fill="#C6394E"></path>
                        <path d="M43.4112961,26.1992182 C43.4112961,26.1992182 40.696715,29.465191 40.5871768,29.5757664 C40.4771705,29.6863417 40.696715,30.3262673 40.696715,30.3262673 C40.696715,30.3262673 39.5329887,34.7426945 41.8829106,34.6763492 C44.2337687,34.610004 45.0913498,27.433898 45.0913498,27.433898 L43.4112961,26.1992182 Z" id="Fill-96" fill="#EF888B"></path>
                        <line x1="44.4010251" y1="118.315086" x2="58.0474241" y2="118.315086" id="Stroke-98" stroke="#193F61" stroke-width="0.82111437"></line>
                        <path d="M43.3985166,26.020933 C43.4429873,25.3480702 46.4084763,24.0997449 49.0448827,26.7493189 C51.6803529,29.3993634 49.577126,33.2412692 51.4523824,35.2283321 C53.3281069,37.2158654 60.5515421,37.2497439 60.5515421,43.6532339 C60.5515421,48.8742733 56.1302249,48.9730854 54.8752168,51.6264236 C53.2621031,55.0349681 56.2055909,58.6063172 52.6881979,60.6305522 C49.1567615,62.6627863 45.3467985,59.545502 44.0323402,51.5271411 C43.3652807,47.4560854 41.2681392,36.5533543 41.5316862,34.1357533 C41.7952333,31.7176818 42.1065277,31.7576771 42.9598957,31.2099762 C44.1240901,30.7460302 43.5745267,29.5979285 43.0034302,29.6863888 C42.9486611,29.4652381 44.2476717,27.9280052 44.2041373,27.2659646 C44.1601347,26.6034535 43.3545141,26.6937959 43.3985166,26.020933" id="Fill-101" fill="#1A3F61"></path>
                        <path d="M36.7210404,68.7016129 C35.7983918,71.9195913 32.6348913,106.762595 32.6348913,107.755891 C32.6348913,107.993511 35.8260104,108.434871 35.9631672,108.1869 C37.3576726,105.261123 39.994079,95.3027523 40.9607301,88.2372216 C41.9269131,81.1712205 36.7210404,68.7016129 36.7210404,68.7016129" id="Fill-103" fill="#143853"></path>
                        <path d="M51.1173079,107.721872 L53.2621967,114.936561 C53.2621967,114.936561 49.8351493,118.050081 49.3520578,118.314992 C48.8684982,118.579902 45.7054658,118.314992 45.7054658,118.314992 C45.7054658,118.314992 45.0435556,116.5232 47.023669,116.140186 C49.934389,115.576957 49.2303487,111.472494 49.2303487,111.472494 L48.6138453,108.354739 L51.1173079,107.721872" id="Fill-105" fill="#D44454"></path>
                        <path d="M35.3450722,58.1146097 C36.2508687,67.2838955 38.6677306,81.9151339 40.7409984,87.7953907 C43.2009266,94.7729316 47.5946252,107.92199 48.187723,108.352528 C48.5828094,108.465926 51.1536802,107.959162 51.4167591,107.491451 C51.7790777,106.729187 49.3079148,88.8112725 47.1082569,83.0707641 C46.7127023,78.4341272 50.099024,65.0963854 43.6409518,56.1760118 C38.9832381,58.4284555 35.3450722,58.1146097 35.3450722,58.1146097" id="Fill-107" fill="#1A3F61"></path>
                        <path d="M20.3005633,26.1760209 C20.3005633,26.1760209 19.7350841,25.5897362 18.5456116,24.9215786 C17.3561392,24.2538916 17.413717,24.1527269 17.1412759,23.7494797 C16.9498181,23.4657481 16.9423283,23.4690418 16.9423283,23.4690418 L19.5010281,24.048739 C19.5010281,24.048739 18.9650399,22.7646532 19.0352567,22.5538542 C19.1050054,22.3430552 20.6680311,23.8986389 20.8426369,24.2985923 C21.0177107,24.6990163 21.6885151,25.7972414 21.6885151,25.7972414 L20.3005633,26.1760209" id="Fill-109" fill="#EF888B"></path>
                        <path d="M27.1362614,35.9846676 C25.0990382,33.9265541 23.4147715,31.7465726 20.0279817,26.6544593 C19.636172,26.0648809 21.5905393,25.2259197 21.83583,25.4644801 C25.269431,28.8057383 26.9345051,30.9720745 30.5441162,33.2099317 C33.7263411,35.182408 43.4649417,36.5685996 44.6071348,40.5427253 C45.749796,44.5173216 44.5654729,47.3899284 44.1680458,50.0465604 C43.7612566,52.7657734 43.7069556,56.2684246 43.7069556,56.2684246 C43.7069556,56.2684246 41.5995157,57.6009754 39.4312212,57.9863423 C37.2633949,58.3717092 35.3450722,58.1147979 35.3450722,58.1147979 C35.3450722,58.1147979 34.7613366,50.2926494 35.4644407,47.1400752 C36.1675448,43.9875009 36.2184754,44.0653271 36.6636967,42.7700896 C33.6865048,40.7218574 29.8602047,38.7372884 27.1362614,35.9846676 Z" id="Fill-111" fill="#D44454"></path>
                        <path d="M39.1301784,43.9972409 C38.3395374,43.7102155 36.6636967,42.7700896 36.6636967,42.7700896 L36.6632285,42.7705602 C36.4535144,43.4175437 36.1918398,44.2743851 35.9282928,45.2554474 C36.6814849,45.4309564 38.3198767,44.7176277 39.1301784,43.9972409" id="Fill-113" fill="#C6394E"></path>
                        <path d="M18.9579246,24.1838292 C19.4854868,24.2332352 19.5009345,24.0487861 19.5009345,24.0487861 L17.7010441,23.6408336 C17.7010441,23.6408336 18.4308306,24.1339526 18.9579246,24.1838292" id="Fill-115" fill="#E17981"></path>
                        <path d="M21.0511807,25.2038987 C21.0184129,25.4937473 20.9496005,25.6240851 20.9496005,25.6240851 L20.9514729,25.6245556 C21.140122,25.5422123 21.3245581,25.4805724 21.4790351,25.4490467 C21.2917903,25.1328482 21.0235621,24.6721959 20.8882778,24.3931695 L20.885001,24.3894053 C20.885001,24.3894053 21.0844167,24.9140501 21.0511807,25.2038987" id="Fill-117" fill="#E17981"></path>
                        <path d="M34.3750038,14.4609137 C34.0571558,13.9193297 33.6587926,13.6515961 33.6587926,13.6515961 C33.7847147,13.7936972 33.9059557,14.2581138 34.0070678,14.7695837 C34.1067757,14.6703011 34.2322297,14.5639605 34.3750038,14.4609137" id="Fill-119" fill="#E17981"></path>
                        <path d="M34.8193357,10.8379471 C34.8277617,10.6807889 34.7884403,9.59244501 34.6554965,9.09509112 L34.7420972,8.67913953 L34.5127223,9.78536373 C34.5127223,9.78536373 34.7097975,10.5975045 34.7013714,10.920761 C34.6924773,11.243547 34.8109096,10.9951053 34.8193357,10.8379471" id="Fill-121" fill="#E17981"></path>
                        <path d="M3.41976182,1.008644 C3.42161734,1.00770293 3.26760852,0.664213497 3.21892488,0.229911101 C3.20862641,0.13627494 3.09908822,0.111336665 3.05040458,0.191797889 C2.49850062,1.09851589 1.46912248,1.60198671 0.445829802,1.36766104 C0.443489243,1.36671997 0.440680571,1.36577891 0.437403788,1.36483784 C0.431318333,1.38648238 0.426169101,1.40859745 0.420083646,1.43024199 C0.434127004,1.43353573 2.14788478,1.77420196 3.41976182,1.008644" id="Fill-123" fill="#E17981"></path>
                        <path d="M1.92988505,5.61384922 C1.62608041,5.54421026 1.31010486,5.27788832 1.03672749,4.8925214 C1.03345071,4.91322487 1.02549281,4.96592462 1.00864078,5.05767865 L1.00864078,5.05814918 C1.00864078,5.05814918 1.36768263,6.00203933 2.86423647,6.13614137 L2.86517269,6.13614137 C2.92977214,5.74277539 3.02292641,5.42845903 3.04633201,5.35364421 C2.63345729,5.58138241 2.23415781,5.68348817 1.92988505,5.61384922" id="Fill-125" fill="#D77480"></path>
                        <path d="M44.2172444,49.7474894 C43.943867,51.253667 43.0961163,55.7185591 42.4496537,56.9499452 C43.2084632,56.5829291 43.7070024,56.2686128 43.7070024,56.2686128 C43.7070024,56.2686128 43.7608353,52.7659616 44.1680926,50.0462781 C44.1826041,49.9474661 44.2003924,49.8472424 44.2172444,49.7474894" id="Fill-127" fill="#C6394E"></path>
                        <path d="M44.2944829,49.3169042 C44.2986959,49.2947891 44.3029089,49.2731446 44.3066538,49.2510295 L44.3071219,49.244442 C44.3071219,49.244442 44.3029089,49.2693803 44.2944829,49.3169042" id="Fill-129" fill="#C6394E"></path>
                        <path d="M43.7043341,56.2701655 C43.6916951,56.2781646 43.1983051,56.5877756 42.4493261,56.9500864 C42.4497942,56.9500864 45.6788303,59.0754861 47.1856826,65.1947739 C46.6660783,62.0619621 45.6306147,58.9677339 43.7043341,56.2701655" id="Fill-131" fill="#143853"></path>
                        <path d="M47.1274026,80.640694 C47.1274026,80.640694 47.1264664,80.668926 47.1236577,80.7169204 C47.1255302,80.6924526 47.1269345,80.6670438 47.1283389,80.6421056 L47.1274026,80.640694 Z" id="Fill-133" fill="#143853"></path>
                        <path d="M51.1145928,107.722577 C50.5313253,108.021837 49.2973823,108.291923 48.614407,108.354974 L48.6139389,108.354974 L48.7520319,109.053246 C50.1301534,108.836801 51.1880864,107.959256 51.1880864,107.959256 L51.1880864,107.959256 L51.1174015,107.722107 L51.1145928,107.722577 Z" id="Fill-135" fill="#C6394E"></path>
                        <path d="M33.1397969,107.959444 L33.1393287,107.959444 C33.1393287,107.959444 33.1299665,107.993322 33.1159232,108.041787 L33.1163913,108.041787 C33.1163913,108.041787 34.0830424,108.757939 35.4400989,108.810639 L35.490655,108.260115 L35.4766116,108.258233 C34.8512141,108.250234 33.7740885,108.108133 33.1397969,107.959444" id="Fill-137" fill="#C6394E"></path>
                    </g>
                </g>
            </g>
        </g>
    </g>
</svg>