<?xml version="1.0" encoding="utf-8"?>
<!-- Dark mode final: lifted cool-blue shadows -->
<!DOCTYPE svg PUBLIC "-//W3C//DTD SVG 1.1//EN" "http://www.w3.org/Graphics/SVG/1.1/DTD/svg11.dtd">
<svg version="1.1" xmlns="http://www.w3.org/2000/svg" xmlns:xlink="http://www.w3.org/1999/xlink"
	 x="0px" y="0px" width="1190.55px" height="841.89px" viewBox="0 0 1190.55 841.89"
	 enable-background="new 0 0 1190.55 841.89" xml:space="preserve">

<g id="Layer_1"></g>

<g id="Laag_1">
	<g>
		<!-- primary blue -->
		<polygon fill="#6FA6C4" points="552.844,309.725 637.883,538.174 722.922,538.174 637.883,309.725"/>

		<!-- bright red -->
		<path fill="#F04563" d="M802.842,245.254c0-24.512,19.426-45.326,47.639-45.326s47.639,20.814,47.639,45.326
			s-19.426,45.789-47.639,45.789S802.842,269.766,802.842,245.254z"/>

		<g>
			<!-- lifted cool shadow -->
			<polygon fill="#343D45" points="893,309.725 893,538.174 978.041,309.725"/>
			<!-- bright red -->
			<polygon fill="#F04563" points="893,309.725 807.961,309.725 807.961,538.174 893,309.727"/>
			<!-- dark red -->
			<polygon fill="#B04A6B" points="807.961,538.174 893,538.174 893,309.727"/>
		</g>

		<g>
			<!-- lifted cool shadow -->
			<polygon fill="#343D45" points="552.844,309.725 552.842,538.174 637.885,309.725"/>
			<!-- bright red -->
			<polygon fill="#F04563" points="552.842,309.725 467.803,309.725 467.803,538.174 552.842,309.727"/>
			<!-- dark red -->
			<polygon fill="#B04A6B" points="467.805,538.174 552.842,538.174 552.842,309.727"/>
		</g>

		<!-- bright red -->
		<path fill="#F04563" d="M297.725,538.174c-7.635,20.516-18.471,25.9-36.51,25.9c-11.562,0-20.77-1.85-29.49-4.625l-1.441,61.051
			c11.947,3.238,27.178,4.625,40.59,4.625c59.201,0,87.168-20.521,105.021-68.488l6.871-18.463H297.725z"/>

		<polygon fill="#F04563" points="552.844,309.725 637.883,538.174 722.922,538.174 637.883,309.725"/>

		<path fill="#F04563" d="M462.686,245.254c0-24.512,19.424-45.326,47.637-45.326s47.639,20.814,47.639,45.326
			s-19.426,45.789-47.639,45.789S462.686,269.766,462.686,245.254z"/>
	</g>

	<g>
		<!-- dark red -->
		<polygon fill="#B04A6B" points="722.922,309.725 680.402,423.963 722.922,538.174 807.963,309.725"/>
	</g>

	<g>
		<!-- dark red -->
		<polygon fill="#B04A6B" points="382.764,309.725 340.246,423.963 382.766,538.174 467.805,309.725"/>
	</g>

	<polygon fill="#F04563" points="212.686,309.725 297.725,538.174 382.766,538.174 297.727,309.725"/>

	<g>
		<!-- lifted cool shadow -->
		<polygon fill="#343D45" points="297.727,309.727"/>
		<polygon fill="#F04563" points="212.686,309.727"/>
		<polygon fill="#B04A6B" points="297.727,309.725 212.686,309.725 255.205,423.967"/>
		<!-- lifted secondary reds -->
		<polygon fill="#E0556F" points="637.883,309.725 552.844,309.725 595.363,423.967"/>
		<polygon fill="#E0556F" points="637.883,538.178 722.924,538.178 680.402,423.967"/>
		<polygon fill="#E0556F" points="297.725,538.178 382.766,538.178 340.246,423.967"/>
	</g>
</g>
</svg>
