<svg width="343" height="240" viewBox="0 0 343 240" fill="none" xmlns="http://www.w3.org/2000/svg">
<mask id="mask0_4392_16022" style="mask-type:alpha" maskUnits="userSpaceOnUse" x="0" y="0" width="343" height="240">
<rect opacity="0.23" width="343" height="240" fill="#D9D9D9"/>
</mask>
<g mask="url(#mask0_4392_16022)">
</g>
<g clip-path="url(#clip0_4392_16022)">
<path d="M226.191 4C201.429 4 181.458 25.0227 181.458 50.9027C181.458 67.7883 189.967 82.5134 202.715 90.803L195.124 109.359L215.708 96.4571C219.12 97.3305 222.625 97.8055 226.267 97.8055C250.952 97.8055 271 76.7828 271 50.9027C270.924 25.0227 250.876 4 226.191 4" fill="#F0E2E5"/>
<path d="M226.956 65.0762C227.491 65.0762 227.874 64.9229 228.088 64.6012C228.394 64.2794 228.547 63.881 228.547 63.3294C228.547 62.7778 228.394 62.3794 228.088 62.1342C227.782 61.8124 227.415 61.7358 226.956 61.7358C226.42 61.7358 226.038 61.889 225.823 62.1342C225.517 62.456 225.441 62.8544 225.441 63.3294C225.441 63.881 225.594 64.2794 225.823 64.6012C226.053 64.9229 226.436 65.0762 226.956 65.0762ZM225.9 54.81H228.257V35.2276H225.9V54.81ZM226.956 79.5714C223.161 79.5714 219.595 78.8513 216.32 77.3343C213.045 75.8174 210.168 73.7488 207.658 71.1286C205.148 68.4931 203.25 65.4746 201.812 62.0576C200.358 58.6406 199.685 54.8866 199.685 50.9027C199.685 46.9188 200.373 43.1801 201.812 39.7631C203.25 36.2542 205.225 33.2356 207.658 30.6921C210.168 28.1485 213.045 26.0799 216.32 24.563C219.595 23.046 223.161 22.2493 226.956 22.2493C230.751 22.2493 234.332 23.046 237.592 24.563C240.928 26.0799 243.821 28.1485 246.254 30.6921C248.687 33.2356 250.661 36.2695 252.1 39.7631C253.538 43.272 254.304 46.9341 254.304 50.9027C254.304 54.8713 253.615 58.6253 252.1 62.0576C250.661 65.4746 248.687 68.5085 246.254 71.1286C243.821 73.7488 240.944 75.7408 237.592 77.3343C234.332 78.8513 230.766 79.5714 226.956 79.5714ZM227.032 77.1045C233.95 77.1045 239.796 74.5609 244.647 69.4585C249.498 64.356 251.947 58.1503 251.947 50.8261C251.947 43.5018 249.514 37.4494 244.647 32.3469C239.78 27.2445 233.934 24.7009 226.956 24.7009C219.977 24.7009 214.116 27.2445 209.265 32.3469C204.398 37.4494 201.98 43.6551 201.98 50.9027C201.98 58.1503 204.413 64.356 209.265 69.4585C214.116 74.5609 220.054 77.1045 227.032 77.1045Z" fill="#363E6A"/>
<path d="M139.464 141.123C139.464 141.123 141.056 141.674 138.852 146.93C136.648 152.186 138.087 157.916 138.699 158.79C139.311 159.663 153.207 177.1 154.263 177.667C155.242 178.311 171.663 175.675 171.663 173.453C171.663 171.232 173.638 160.705 173.867 159.433C174.097 158.085 173.485 154.576 173.041 153.136C172.658 151.787 169.919 148.83 169.704 141.107C169.475 133.385 164.991 145.413 164.624 146.286C164.241 147.16 155.503 150.592 155.503 150.592L139.48 141.123H139.464Z" fill="#DDA58F"/>
<path d="M158.227 94.4652C157.615 94.22 148.968 92.795 143.948 95.8135C138.944 98.8321 133.083 107.918 134.766 115.243C136.434 122.567 135.975 122.736 135.975 122.736C135.975 122.736 133.159 119.395 133.159 123.609C133.159 127.823 134.674 131.577 134.827 132.45C135.057 133.247 134.751 136.511 136.419 136.434C138.087 136.357 138.01 135.714 138.01 135.714L138.623 139.054C138.623 139.054 140.291 143.666 143.703 146.7C147.116 149.734 149.32 153.779 155.778 152.829C162.236 151.879 166.797 144.785 166.797 144.785C166.797 144.785 170.822 143.268 171.051 137.461C171.281 131.653 171.051 135.714 171.051 135.714C171.051 135.714 172.566 137.461 173.025 134.519C173.561 131.577 173.025 130.611 173.025 130.611C173.025 130.611 172.872 125.202 173.255 123.287C173.638 121.372 171.801 118.828 170.822 121.54C171.051 121.54 173.546 99.6442 158.211 94.4652" fill="#EDB097"/>
<path d="M199.608 201.004C199.608 201.004 205.148 216.372 208.193 217.813C208.193 217.813 209.479 219.253 209.708 220.831C209.938 222.425 211.224 239.632 211.224 239.632H226.344L228.547 221.153C228.547 221.153 229.083 218.043 226.344 213.752C223.604 209.447 223.528 206.03 223.528 206.03C223.681 205.953 224.966 198.951 218.141 188.914C211.377 179.031 195.736 193.848 199.608 201.019" fill="#EDB097"/>
<path d="M138.852 146.945L134.521 147.589C134.521 147.589 131.108 145.842 129.961 147.589C129.961 147.589 126.318 144.969 125.109 145.199C119.875 146.072 115.697 149.183 113.723 149.581L100.807 153.09C100.807 153.09 108.857 156.829 111.979 166.068C115.085 175.308 104.908 176.426 104.908 176.426C104.908 176.426 110.984 180.732 112.958 180.563C114.932 180.487 114.779 180.64 116.157 181.513C117.519 182.31 120.028 184.547 119.799 185.651C119.569 186.769 122.309 188.838 122.232 189.466C122.156 190.109 122.768 194.17 122.844 194.798C122.921 195.442 122.538 202.444 123.074 203.563C123.609 204.681 124.145 208.895 124.145 210.243C124.145 211.592 123.763 214.227 124.069 215.744C124.375 217.261 124.757 217.66 124.298 220.356C123.763 223.069 122.783 239.065 122.707 239.709C122.63 240.353 196.608 239.709 196.608 239.709C196.608 239.709 196.379 221.23 196.226 220.28C196.149 219.33 197.282 217.491 196.914 215.269C196.532 213.032 194.711 212.557 196.149 208.573C197.511 204.589 196.991 204.911 197.052 202.843C197.052 200.774 197.741 197.434 197.741 197.434L199.715 201.096C199.715 201.096 206.556 187.244 219.61 191.213C219.61 191.213 215.202 175.369 215.126 174.174C215.049 173.055 212.769 168.443 212.769 167.8C212.769 167.156 205.699 152.676 203.572 150.991C201.444 149.32 197.879 145.735 194.007 145.888C190.135 145.965 183.371 142.701 182.162 142.87C180.953 143.023 169.934 144.31 169.934 144.31C169.934 144.31 171.908 162.866 157.553 163.586C143.198 164.137 138.867 146.945 138.867 146.945" fill="#D6D1CC"/>
<path d="M166.047 138.978C166.812 139.529 167.026 138.732 167.638 138.104C168.251 137.461 168.924 135.79 169 135.07C169.077 134.273 168.924 121.295 170.362 122.72C170.669 125.754 170.822 142.394 170.898 145.413C170.898 146.133 170.898 146.93 170.669 147.635C170.056 149.382 167.944 150.822 167.638 152.645C167.562 153.197 167.638 153.764 167.332 154.239C166.95 154.959 165.894 155.434 164.899 155.756C163.154 156.307 161.333 156.706 159.436 156.951C158.38 157.104 157.232 157.104 156.176 157.028C154.952 156.874 153.819 156.553 152.763 156.231C149.947 155.357 147.147 154.484 144.637 153.197C142.204 151.925 140.076 150.086 139.326 147.941C138.944 146.823 138.867 145.628 138.867 144.524C138.791 141.582 136.511 128.436 135.898 125.57C135.439 123.425 134.613 121.035 136.817 122.23C137.949 124.145 139.923 134.013 141.071 135.928C141.454 136.572 142.739 138.242 143.657 138.319C144.729 138.319 147.682 140.065 148.294 139.514C149.672 138.165 151.263 137.997 153.544 137.69C156.206 137.292 160.231 137.767 162.665 138.319C163.736 138.564 163.95 138.487 164.715 139.115C165.251 139.437 165.481 138.564 166.093 138.962" fill="#502113"/>
<path d="M150.774 139.927C150.315 140.004 149.412 141.276 149.106 141.598C148.876 141.843 148.723 143.268 148.723 143.513C148.493 145.336 147.728 146.302 148.264 148.125C148.34 148.523 148.57 148.922 148.876 149.152C149.412 149.55 150.238 149.627 150.927 149.55C151.462 149.55 152.136 149.55 152.595 149.228C153.36 148.753 154.952 147.711 154.875 146.915C156.62 146.838 156.773 146.838 158.517 146.669C158.824 146.669 159.13 146.669 159.344 146.823C159.497 146.976 159.573 147.144 159.65 147.298C159.956 148.018 160.339 148.723 160.859 149.366C161.088 149.611 161.318 149.841 161.624 149.918C162.16 150.071 162.757 149.765 162.986 149.366C163.292 148.968 163.063 148.416 163.369 148.018C164.363 146.501 163.292 143.881 163.139 142.211C162.986 140.77 162.527 140.372 161.012 139.897C157.752 138.855 155.242 138.947 150.758 139.897" fill="#EDB097"/>
<path d="M138.852 108.24C139.235 106.723 139.694 105.222 141.056 104.333C142.953 103.138 145.157 104.256 147.055 104.808C149.335 105.528 151.539 107.827 153.896 107.827C157.002 107.827 159.068 104.486 161.869 103.919C165.894 103.123 167.944 105.666 168.924 109.42C169.995 113.404 168.388 117.388 169.613 124.314C170.148 124.544 170.592 122.077 171.051 121.448C171.051 121.448 171.663 120.422 172.122 120.805C172.581 121.203 172.811 120.33 172.811 119.763C173.041 114.752 170.225 108.93 170.454 103.598C170.837 94.0362 159.145 88.0756 151.692 94.1281C141.591 90.3128 136.954 95.7983 136.128 99.7822C135.516 100.426 134.919 101.207 134.46 102.004C132.103 105.589 132.715 109.803 132.409 114.186C131.95 118.399 133.174 122.307 133.251 123.18C133.48 121.188 134.383 121.832 134.46 121.832C135.822 123.578 134.766 122.782 136.204 123.655C138.714 118.246 139.097 114.094 138.791 109.956L138.867 108.21L138.852 108.24Z" fill="#502113"/>
<path d="M141.056 82.2837L138.316 86.5894C138.316 86.5894 138.01 87.8611 136.648 88.6579C135.286 89.5313 134.368 90.7265 133.909 91.5233C133.45 92.2434 126.471 105.145 126.471 105.145C126.471 105.145 122.829 110.324 120.013 112.868C117.197 115.411 93.5836 133.814 91.6094 135.806C89.6352 137.798 81.815 146.961 80.0703 149.826C78.3257 152.691 75.3568 156.032 74.6834 157.074C74.0713 158.116 73.1684 159.066 73.0153 159.939C72.9388 160.812 73.5509 167.033 74.0101 167.187C74.4692 167.355 76.0608 170.772 77.6524 171.416C79.1674 172.059 84.7074 176.518 87.5998 176.671C90.4922 176.917 94.211 177.943 99.8275 177.867C105.444 177.79 111.673 176.993 113.8 175.553C117.366 173.086 113.647 172.289 115.774 169.899C121.773 163.203 118.131 142.67 105.827 150.945C110.387 143.145 110.234 140.587 115.621 133.906C120.181 128.252 125.721 121.157 127.16 120.131C128.599 119.089 134.598 113.205 134.751 112.331C135.669 106.126 140.138 100.303 140.138 98.8782C140.138 97.4531 140.887 94.4193 140.887 94.4193L142.096 92.9023C142.096 92.9023 143.612 92.6571 144.912 91.5539C144.912 91.5539 145.907 93.9443 146.81 94.1894C147.713 94.4346 148.708 94.266 148.708 93.9443C148.708 93.9443 149.549 94.4959 150.376 93.6991C150.376 93.6991 150.835 94.3426 151.661 94.0975C152.503 93.8523 152.564 87.1716 152.564 87.1716L150.973 84.8579L147.698 82.866L146.412 81.6708C146.412 81.6708 145.05 80.1538 144.132 81.6708C144.208 81.7474 142.54 79.8321 141.01 82.3143" fill="#EDB097"/>
</g>
<defs>
<clipPath id="clip0_4392_16022">
<rect width="198" height="236" fill="white" transform="translate(73 4)"/>
</clipPath>
</defs>
</svg>
