<svg width="286" height="286" viewBox="0 0 286 286" fill="none" xmlns="http://www.w3.org/2000/svg">
<g clip-path="url(#clip0_6083_14225)">
<path d="M195.59 273.02C195.43 273.03 195.39 273.03 195.59 273.02V273.02Z" fill="#F2A100"/>
<path d="M285.4 142.7C285.4 63.89 221.51 0 142.7 0C63.89 0 0 63.89 0 142.7C0 206.88 42.37 261.16 100.67 279.1L87.92 164.75C87.92 164.75 83 153.59 93.83 146.33L115.57 140.89L150.29 138.76L169.41 132.37L191.28 136.03C191.28 136.03 202.39 137.01 200.75 144.4L198.06 274.26C249.38 252.64 285.4 201.88 285.4 142.7Z" fill="#CBE0EB"/>
<path d="M191.27 136.02L169.4 132.37L150.28 138.76L115.56 140.89L93.82 146.33C83 153.59 87.91 164.75 87.91 164.75L100.66 279.1C113.95 283.19 128.06 285.39 142.69 285.39C162.32 285.39 181.02 281.42 198.05 274.25L200.74 144.39C202.38 137 191.27 136.01 191.27 136.01V136.02Z" fill="#F2A100"/>
<path d="M161.38 122.32C161.38 122.32 143.12 119.51 119.58 127.39L150.28 138.77L161.38 122.32Z" fill="#D3CEC9"/>
<path d="M124.86 89.01L120.7 139.18L163.51 143.02L158.33 89.57L124.86 89.01Z" fill="#90473D"/>
<path d="M137.09 112.82L161.38 128.32L160.99 108.49L137.09 112.81V112.82Z" fill="#90473D"/>
<path d="M129.96 118.37L163.52 113.88C172.11 112.71 175.13 108.24 176.53 105.44C179.35 99.8 177.74 92.11 177.74 92.11L169.41 52.55C169.41 52.55 164.68 29.23 127.98 44.13C127.98 44.13 98.09 38.27 102.34 62.39L120.79 97.3L129.97 118.35L129.96 118.37Z" fill="#90473D"/>
<path d="M100 273.04L98.08 256.15C98.71 240.85 100.9 208.05 101.91 202.56L105.35 221.02L100.01 273.04H100Z" fill="#B15D90"/>
<path d="M115.57 140.9L145.29 155.66L150.29 138.77L158.53 152.96L169.41 132.38L150.29 138.77L115.57 140.9Z" fill="#DF8D00"/>
<path d="M150.28 138.77L145.12 150.43L115.56 140.9L119.57 127.4L150.27 138.77H150.28Z" fill="white"/>
<path d="M100 273.04L98.08 256.15L117.09 206.13L116.1 227.84C116.1 227.84 115.38 246.4 112.86 253.98C108.25 267.91 100 273.04 100 273.04Z" fill="#DF8D00"/>
<path d="M161.38 122.32L150.28 138.77L158.35 147.57L169.4 132.38L161.38 122.32Z" fill="white"/>
<path d="M68.41 224.52L70.86 242.2C75.75 269.67 92.49 267.91 92.49 267.91C106.85 267.91 110.57 243.59 110.57 243.59L113.08 219.96L68.4 224.53L68.41 224.52Z" fill="#F2A100"/>
<path d="M119.03 184.48L113.65 179.88L111.31 202.14L119.03 184.48Z" fill="#D3CEC9"/>
<path d="M80.04 133.82L84.73 109.98C97.82 110.72 117.85 174.91 117.85 174.91C117.85 174.91 114.5 211.46 92.7 216.93C85.25 218.81 82.73 217.28 82.73 217.28C75.7 217.44 61.85 211.95 55.37 197.64" fill="#90473D"/>
<path d="M96.94 204.3L45.67 208.14C40.37 208.54 35.75 204.56 35.35 199.26L26.43 83.56C26.03 78.26 30.01 73.64 35.31 73.24L86.58 69.4C91.88 69 96.5 72.98 96.9 78.28L105.82 193.98C106.22 199.28 102.24 203.9 96.94 204.3Z" fill="#484747"/>
<path d="M45.01 203.01C42.65 203.05 40.67 201.23 40.49 198.88L31.57 83.17C31.48 81.99 31.86 80.84 32.64 79.93C33.42 79.02 34.5 78.48 35.7 78.39L86.97 74.55C87.06 74.55 87.15 74.54 87.24 74.54C89.6 74.5 91.58 76.32 91.76 78.67L100.69 194.38C100.87 196.83 99.02 198.98 96.56 199.16L45.29 203C45.2 203 45.11 203.01 45.02 203.01H45.01Z" fill="#E6E1DE"/>
<path d="M42.46 172.63L37.84 125.66C37.08 115.85 28.05 115.74 28.05 115.74C19.18 115.9 18.97 125.77 18.97 125.77L19.09 176.61C19.09 176.61 18.39 190.07 32.19 189.8C45.46 189.54 42.46 172.64 42.46 172.64V172.63Z" fill="#90473D"/>
<path d="M94.77 111.32C99.84 111.32 103.94 107.21 103.94 102.15C103.94 97.09 99.83 92.98 94.77 92.98C89.71 92.98 85.6 97.09 85.6 102.15C85.6 107.21 89.71 111.32 94.77 111.32Z" fill="#90473D"/>
<path d="M95.86 133.25L86.26 105.57L103.28 98.73L113.65 124.52L95.86 133.25Z" fill="#90473D"/>
<path d="M63.8101 214.44L66.5701 209.79L69.3301 221.46L63.8101 214.44Z" fill="#D3CEC9"/>
<path d="M95.86 133.25C95.86 133.25 83.39 162.61 106.39 182.78L114.34 185.64C120.29 174.97 118.89 155.04 118.89 155.04L116.67 137.05C116.67 137.05 115.74 129.72 113.62 124.45L95.87 133.25H95.86Z" fill="#90473D"/>
<path d="M65.2 208.77L66.74 223.7H78.1L82.27 211.61L65.2 208.77Z" fill="#90473D"/>
<path d="M63.8101 214.44L68.68 237.19C68.68 237.19 91.58 250.07 114.63 227.7L119.02 184.49C119.02 184.49 101.79 225.68 63.8 214.45L63.8101 214.44Z" fill="white"/>
<path d="M169.4 132.38L188.43 127.01C188.43 127.01 202.6 123.2 215.99 135.23C215.99 135.23 261.17 187.63 265.48 193.51C272.77 203.48 265.14 212.18 265.14 212.18L240.83 240.03L231 215.29L236.57 209.13L196.24 174.03L169.42 132.39L169.4 132.38Z" fill="#F2A100"/>
<path d="M222.07 225.81L204.22 238.79C204.22 238.79 200.19 241.46 198.76 245.45C198.76 245.45 197.24 247.64 197.45 254.61L198.29 275.25C198.29 275.25 198.04 281.02 203.85 280.13C203.85 280.13 208.46 279.73 208.17 274.07L207.95 265.21C207.95 265.21 207.93 262.21 209.99 260.55C209.99 260.55 212.1 258.08 216.2 257.67C216.2 257.67 223.8 257.03 228.23 247.26L234.23 242.14L223.26 225.98L222.08 225.79L222.07 225.81Z" fill="#90473D"/>
<path d="M230.99 215.27L220.4 225.86L230.45 251.18L242.25 239.53L231 215.27H230.99Z" fill="white"/>
<path d="M115.68 62.81C115.68 62.81 117.3 77.23 116.26 86.89L111.17 89.18C111.17 89.18 102.86 72.5 101.29 56.24L115.69 62.81H115.68Z" fill="#281713"/>
<path d="M101.27 56.24L115.78 63.84C115.78 63.84 155.73 65.69 174.96 56.45C174.96 56.45 191.73 48.63 185.55 22.94C185.55 22.94 184.49 16.77 177.71 18.47L126.3 30.76C126.3 30.76 107.56 35.18 103.38 44.58C103.38 44.58 100.68 49.85 101.28 56.24H101.27Z" fill="#281713"/>
<path d="M116.16 106.41C121.62 106.41 126.05 101.98 126.05 96.52C126.05 91.06 121.62 86.63 116.16 86.63C110.7 86.63 106.27 91.06 106.27 96.52C106.27 101.98 110.7 106.41 116.16 106.41Z" fill="#90473D"/>
<path d="M119.58 88.55C119.58 88.55 131.52 94.27 143.38 92.9L176.84 87.85L177.74 92.11C177.74 92.11 182.44 112.48 162.43 114.38L140.41 117.31C140.41 117.31 122.14 121.2 120.04 92.62L119.58 88.54V88.55Z" fill="#6B2F2B"/>
<path d="M134.1 106.41C134.1 106.41 137.2 100.41 143.85 100.32C150.5 100.23 153.75 105.42 153.75 105.42" stroke="#330F0E" stroke-width="2" stroke-miterlimit="10" stroke-linecap="round"/>
<path d="M65.59 157.85C78.4361 157.85 88.85 147.436 88.85 134.59C88.85 121.744 78.4361 111.33 65.59 111.33C52.7438 111.33 42.33 121.744 42.33 134.59C42.33 147.436 52.7438 157.85 65.59 157.85Z" fill="#DE2747"/>
<path d="M65.4 123.243L63.5562 123.394C63.1489 123.428 62.8459 123.785 62.8794 124.192L64.0445 138.365C64.078 138.772 64.4354 139.075 64.8427 139.041L66.6864 138.89C67.0938 138.856 67.3968 138.499 67.3633 138.092L66.1982 123.919C66.1647 123.512 65.8073 123.209 65.4 123.243Z" fill="white"/>
<path d="M66.04 144.81C65.96 144.81 65.89 144.81 65.81 144.8C65.21 144.74 64.67 144.45 64.29 143.99C63.91 143.53 63.73 142.94 63.79 142.34C63.85 141.74 64.14 141.2 64.6 140.83C65.07 140.45 65.66 140.27 66.25 140.33C67.48 140.45 68.39 141.56 68.26 142.79C68.2 143.39 67.91 143.93 67.45 144.31C67.05 144.64 66.55 144.82 66.03 144.82L66.04 144.81Z" fill="white"/>
<path d="M152.52 142.62L150.28 138.77L149.16 142.56L151.18 142.87L152.52 142.62Z" fill="#F2A100"/>
</g>
<defs>
<clipPath id="clip0_6083_14225">
<rect width="285.4" height="285.4" fill="white"/>
</clipPath>
</defs>
</svg>
