<?xml version="1.0" encoding="UTF-8"?>
<svg width="341px" height="199px" viewBox="0 0 341 199" version="1.1" xmlns="http://www.w3.org/2000/svg" xmlns:xlink="http://www.w3.org/1999/xlink">
    <!-- Generator: sketchtool 59.1 (101010) - https://sketch.com -->
    <title>8F2445FD-017D-43F1-9F6A-1075F160C663</title>
    <desc>Created with sketchtool.</desc>
    <defs>
        <polygon id="path-1" points="0.0001 0.769 340.271 0.769 340.271 1.769 0.0001 1.769"></polygon>
        <path d="M18.0000006,1.12541994 C19.228623,1.12541994 20.3601872,1.7930859 20.9542507,2.86854003 L20.9542507,2.86854003 L20.9587041,2.87668145 L35.5793671,29.8687495 C36.1565527,30.9141756 36.1383155,32.1867866 35.53141,33.2152441 C34.9244733,34.2437545 33.8191995,34.8749994 32.625001,34.8749994 L32.625001,34.8749994 L3.37500011,34.8749994 C2.1808016,34.8749994 1.07552787,34.2437545 0.468591104,33.2152441 C-0.138314415,32.1867866 -0.156551603,30.9141756 0.416296551,29.8766809 L0.416296551,29.8766809 L15.0457505,2.86854003 C15.639814,1.7930859 16.7713781,1.12541994 18.0000006,1.12541994 Z M18.0000001,3.37541994 C17.5904593,3.37541994 17.2132713,3.59797526 17.0197036,3.94831855 L17.0197036,3.94831855 L2.39036588,30.9562494 C2.19797066,31.3047248 2.20404972,31.7289284 2.40635156,32.0717476 C2.60867506,32.4146035 2.97706624,32.6249994 3.37499995,32.6249994 L3.37499995,32.6249994 L32.6250003,32.6249994 C33.022934,32.6249994 33.3913252,32.4146035 33.5936487,32.0717476 C33.7959505,31.7289284 33.8020296,31.3047248 33.6052968,30.948318 L33.6052968,30.948318 L18.9828845,3.95309612 C18.7843663,3.59658355 18.4082584,3.37541994 18.0000001,3.37541994 Z M17.9999999,25.8749994 L18.1456039,25.8811935 C19.009416,25.9550166 19.6874999,26.6795705 19.6874999,27.5624994 C19.6874999,28.4944799 18.9319805,29.2499994 17.9999999,29.2499994 C17.0680194,29.2499994 16.3124999,28.4944799 16.3124999,27.5624994 C16.3124999,27.5436409 16.312964,27.5248907 16.3138812,27.5062598 C16.3430759,26.6003227 17.0868337,25.8749994 17.9999999,25.8749994 L17.9999999,25.8749994 Z M17.9999999,11.2500001 C18.6213203,11.2500001 19.1249999,11.7536797 19.1249999,12.3750001 L19.1249999,12.3750001 L19.1249999,22.5000001 C19.1249999,23.1213204 18.6213203,23.6250001 17.9999999,23.6250001 C17.3786796,23.6250001 16.8749999,23.1213204 16.8749999,22.5000001 L16.8749999,22.5000001 L16.8749999,12.3750001 C16.8749999,11.7536797 17.3786796,11.2500001 17.9999999,11.2500001 Z" id="path-3"></path>
    </defs>
    <g id="#118-|-Error-screen" stroke="none" stroke-width="1" fill="none" fill-rule="evenodd">
        <g id="#118-|-Error-optie-4" transform="translate(-10.000000, -78.000000)">
            <g id="ErrorIMG/Standard" transform="translate(10.000000, 78.000000)">
                <g id="illustration-safety">
                    <g id="Group-3" transform="translate(0.000000, 152.661000)">
                        <mask id="mask-2" fill="white">
                            <use xlink:href="#path-1"></use>
                        </mask>
                        <g id="Clip-2"></g>
                        <line x1="0.0001" y1="1.269" x2="340.2711" y2="1.269" id="Stroke-1" stroke="#E7EBEF" stroke-width="3" mask="url(#mask-2)"></line>
                    </g>
                    <path d="M227.3146,140.2455 L227.5846,152.4005 C227.5846,152.4005 212.9196,152.6325 212.4566,152.4005 C211.9926,152.1685 212.0696,149.1125 214.5066,148.6095 C216.9446,148.1065 217.3886,149.4825 220.6776,147.8545 C222.5926,146.9065 223.1726,139.7185 223.1726,139.7185 L227.3146,140.2455" id="Fill-17" fill="#E7EBEF"></path>
                    <path d="M248.8947,139.5521 L248.8807,152.4011 C248.8807,152.4011 234.2167,152.6331 233.7527,152.4011 C233.2887,152.1691 233.3657,149.1121 235.8027,148.6091 C238.2407,148.1061 238.6857,149.4821 241.9747,147.8551 C243.8897,146.9061 244.4627,140.1151 244.4627,140.1151 L248.8947,139.5521" id="Fill-21" fill="#E7EBEF"></path>
                    <path d="M280.0275,102.9452 L280.0275,182.9452 C280.0275,191.2292 273.3115,197.9452 265.0275,197.9452 L72.4895,197.9452 C64.2055,197.9452 57.4895,191.2292 57.4895,182.9452 L57.4895,102.9452 C57.4895,94.6612 64.2055,87.9452 72.4895,87.9452 L265.0275,87.9452 C273.3115,87.9452 280.0275,94.6612 280.0275,102.9452" id="Fill-27" fill="#193F61"></path>
                    <path d="M62.7072,105.3041 L62.7072,113.2161 C62.7072,114.1301 63.2812,114.9451 64.1432,115.2521 L67.2452,116.3611 C69.2602,117.0801 70.6042,118.9891 70.6042,121.1281 L70.6042,165.0751 C70.6042,167.3351 69.1062,169.3221 66.9332,169.9431 L64.2752,170.7021 C63.3472,170.9671 62.7072,171.8161 62.7072,172.7821 L62.7072,180.5861 C62.7072,187.2141 68.0792,192.5861 74.7072,192.5861 L262.8102,192.5861 C269.4362,192.5861 274.8102,187.2141 274.8102,180.5861 L274.8102,105.3041 C274.8102,98.6771 269.4362,93.3041 262.8102,93.3041 L74.7072,93.3041 C68.0792,93.3041 62.7072,98.6771 62.7072,105.3041" id="Fill-29" fill="#FEFEFE"></path>
                    <path d="M169.2404,149.3656 C169.8784,149.1606 170.3424,148.5706 170.3424,147.8646 C170.3424,146.9906 169.6334,146.2816 168.7584,146.2816 C167.8844,146.2816 167.1754,146.9906 167.1754,147.8646 C167.1754,148.5706 167.6384,149.1606 168.2754,149.3656 L167.3484,152.2506 C167.2624,152.5186 167.4624,152.7926 167.7434,152.7926 L169.7734,152.7926 C170.0544,152.7926 170.2544,152.5186 170.1684,152.2506 L169.2404,149.3656 Z" id="Fill-33" fill="#FEFEFE"></path>
                    <path d="M144.6593,91.0765 C144.5923,90.0855 145.1003,88.9215 145.8773,87.9455 L139.8713,87.9455 C139.8713,88.8555 142.8973,89.9125 142.8973,89.9125 C142.8973,89.9125 141.9123,91.4455 142.5463,92.3745 C142.7503,92.6755 143.0443,92.9995 143.3463,93.3045 L146.4303,93.3045 C145.4293,92.7935 144.7233,92.0235 144.6593,91.0765" id="Fill-37" fill="#143853"></path>
                    <path d="M192.3585,90.7323 C192.4255,89.7413 193.8045,88.9213 193.0285,87.9453 L199.0345,87.9453 C199.0345,88.8553 196.0075,89.9133 196.0075,89.9133 C196.0075,89.9133 196.9935,91.4453 196.3595,92.3753 C196.1545,92.6753 195.8615,92.9993 195.5585,93.3043 L189.0035,93.3043 C190.0045,92.7933 192.2945,91.6793 192.3585,90.7323" id="Fill-39" fill="#143853"></path>
                    <path d="M189.1437,93.3041 L189.1437,93.2711 C184.7837,93.2191 174.1697,90.1811 174.1697,90.1811 L174.8077,87.9451 L163.6717,87.9451 L164.4187,90.7111 C164.4187,90.7111 158.9857,92.3501 154.2957,93.3041 L189.1437,93.3041 Z" id="Fill-41" fill="#153449"></path>
                    <line x1="37.3048" y1="78.1151" x2="37.3048" y2="75.1511" id="Fill-43" fill="#E7EBEF"></line>
                    <line x1="40.3243" y1="198.161" x2="298.6643" y2="198.161" id="Stroke-45" stroke="#193F61"></line>
                    <path d="M190.0704,28.5267 C190.0094,28.4787 189.8754,28.3627 189.7764,28.2877 C186.2004,25.5507 183.9054,21.2457 183.9054,16.3947 C183.9054,15.8627 183.8994,14.9167 183.8934,14.8257 C183.7624,6.7707 177.4264,0.2797 169.6164,0.2797 C161.9284,0.2797 155.6754,6.5717 155.3574,14.4527 C155.3404,14.6077 155.3084,14.8727 155.2934,15.0147 C155.0054,17.6177 153.6544,19.7607 151.6854,21.2817 C151.6864,21.2827 151.6864,21.2827 151.6864,21.2827 C145.9724,25.6117 142.2584,32.6007 142.2584,40.4937 C142.2584,53.2347 151.9254,63.6377 164.0794,64.2657 C167.6714,67.0237 172.1174,68.6567 176.9324,68.6567 C188.8644,68.6567 198.5374,58.6397 198.5374,46.2827 C198.5374,39.0467 195.2164,32.6167 190.0704,28.5267" id="Fill-47" fill="#193F61"></path>
                    <path d="M195.087,71.6595 C195.087,71.6595 186.956,71.3345 183.671,71.8865 C183.671,71.8865 181.577,67.5275 180.832,66.0785 C179.599,67.0005 159.236,67.0005 158.002,66.0785 C157.671,66.7275 156.289,70.0465 155.421,71.8865 C149.238,71.3345 143.743,71.6595 143.743,71.6595 C143.743,71.6595 137.528,71.5985 136.337,71.7505 L168.758,78.8445 L168.862,78.8285 L168.966,78.8445 L203.409,71.9025 C202.218,71.7495 195.087,71.6595 195.087,71.6595" id="Fill-49" fill="#143853"></path>
                    <path d="M172.7433,26.496 C172.6263,24.947 172.7433,23.669 172.7433,23.669 L169.5023,23.669 L166.2623,23.669 C166.2623,23.669 166.3793,24.947 166.2623,26.496 C166.1433,28.044 163.7593,28.432 163.7593,28.432 L163.7593,31.96 L169.5893,31.96 L169.7453,31.96 L175.2463,31.96 L175.2463,28.432 C175.2463,28.432 172.8603,28.044 172.7433,26.496" id="Fill-51" fill="#E17981"></path>
                    <path d="M176.8956,13.4032 C173.5916,13.4032 170.7816,11.1532 169.7086,8.0022 C169.6126,7.7232 169.2576,7.7242 169.1646,8.0032 C168.1066,11.1522 165.3046,13.4032 162.0096,13.4032 C161.9996,13.4032 161.9906,13.4022 161.9806,13.4022 C161.9636,13.6802 161.9496,13.9602 161.9496,14.2452 C161.9496,19.9212 166.5216,25.2992 169.5016,25.2992 C172.4826,25.2992 177.0546,19.9212 177.0546,14.2452 C177.0546,13.9582 177.0406,13.6772 177.0236,13.3962 C176.9806,13.3972 176.9386,13.4032 176.8956,13.4032" id="Fill-53" fill="#EF888B"></path>
                    <path d="M212.1486,69.5355 C210.2506,63.2245 198.0596,64.7975 190.5126,66.4915 C182.8696,68.2065 177.0766,72.5795 169.5026,72.5795 C161.9276,72.5795 156.2006,68.1295 148.4916,66.4915 C140.8286,64.8635 128.7536,63.2245 126.8556,69.5355 C124.9586,75.8475 144.2226,88.5765 169.5026,89.9125 C194.7816,88.5765 214.0456,75.8475 212.1486,69.5355" id="Fill-55" fill="#143853"></path>
                    <path d="M149.3282,85.8661 C149.3792,85.8661 159.4962,85.8381 160.1792,85.8691 C160.9182,85.9041 163.2932,86.5461 163.2932,86.5461 L164.4202,90.7111 C164.4202,90.7111 153.6142,93.9711 149.3282,93.9711 C146.9802,93.9711 144.7762,92.8011 144.6592,91.0761 C144.5112,88.8941 147.1402,85.8661 149.3282,85.8661" id="Fill-57" fill="#D34554"></path>
                    <path d="M212.1486,69.6332 C209.7206,62.4862 199.5316,67.1372 186.8766,72.4622 C174.2206,77.7852 163.6706,84.2172 161.6446,85.4462 C161.5526,85.5022 161.4966,85.5952 161.4996,85.7022 C161.5076,86.0282 161.2516,87.0692 161.8226,88.6872 C162.3006,90.0442 162.9326,90.5632 163.2116,90.8462 C163.3836,91.0222 163.6196,91.0042 163.8656,91.0052 C169.5026,91.0402 182.4446,89.4182 195.9236,84.1312 C209.4036,78.8442 212.8166,72.7672 212.1486,69.6332" id="Fill-59" fill="#193F61"></path>
                    <path d="M189.2609,85.5853 C189.2099,85.5853 179.0939,85.5583 178.4109,85.5883 C177.6719,85.6213 175.2959,86.2313 175.2959,86.2313 L174.1699,90.1813 C174.1699,90.1813 184.9749,93.2733 189.2609,93.2733 C191.6099,93.2733 193.8129,92.1633 193.9309,90.5273 C194.0789,88.4573 191.4489,85.5853 189.2609,85.5853" id="Fill-61" fill="#D34554"></path>
                    <path d="M126.8058,69.6332 C129.2338,62.4862 139.4228,67.1372 152.0778,72.4622 C164.7338,77.7852 175.2838,84.2172 177.3098,85.4462 C177.4018,85.5022 177.4578,85.5952 177.4548,85.7022 C177.4468,86.0282 177.7028,87.0692 177.1318,88.6872 C176.6538,90.0442 176.0218,90.5632 175.7428,90.8462 C175.5708,91.0222 175.3348,91.0042 175.0888,91.0052 C169.4518,91.0402 156.5098,89.4182 143.0308,84.1312 C129.5508,78.8442 126.1378,72.7672 126.8058,69.6332" id="Fill-65" fill="#193F61"></path>
                    <g id="Group" transform="translate(124.500000, 28.500000)">
                        <path d="M7.55237958,5.89012171 C7.55237958,5.89012171 5.83089379,7.01582026 4.17775763,7.74259313 C2.71887456,8.38456957 1.26482081,10.3692344 1.20452368,10.4973838 C0.814003656,11.343336 0.985469244,13.5314592 1.15684703,13.5266893 C1.45455938,13.5173528 1.14381035,12.9323192 1.48823493,12.3243466 C1.81884902,11.7394144 1.76093257,11.5508572 1.76093257,11.5508572 C1.76093257,11.5508572 1.4929498,11.9227111 1.40460499,12.4146378 C1.26406848,13.1945238 1.44258982,14.6732965 1.62577107,14.6564848 C1.81091514,14.6386652 1.68821708,13.1576424 2.08122818,12.4125819 C2.47521405,11.6685162 2.86745361,11.3190792 2.86745361,11.3190792 C2.86745361,11.3190792 2.39627674,11.804742 2.09877636,12.6512734 C1.74473648,13.6619025 2.27998519,15.2929168 2.47335192,15.1871446 C2.80609229,15.006814 2.30163851,13.9401185 2.7925233,12.9838187 C3.22514011,12.1396744 4.1704139,10.7297568 4.86581192,11.3530154 C5.38175324,11.8152397 4.26448045,13.5915826 4.40976681,13.7297933 C4.64572536,13.9565091 5.50469231,13.0205263 6.38036113,11.4081178 C7.16719011,9.95695587 7.85013337,7.86288102 8.32571766,7.70887965 L7.55237958,5.89012171" id="Fill-67" fill="#EF888B" transform="translate(4.646611, 10.541083) scale(-1, 1) rotate(168.000000) translate(-4.646611, -10.541083) "></path>
                        <path d="M87.7649385,5.89012171 C87.7649385,5.89012171 86.0434527,7.01582026 84.3903165,7.74259313 C82.9314335,8.38456957 81.4773797,10.3692344 81.4170826,10.4973838 C81.0265626,11.343336 81.1980281,13.5314592 81.3694059,13.5266893 C81.6671183,13.5173528 81.3563692,12.9323192 81.7007938,12.3243466 C82.0314079,11.7394144 81.9734915,11.5508572 81.9734915,11.5508572 C81.9734915,11.5508572 81.7055087,11.9227111 81.6171639,12.4146378 C81.4766274,13.1945238 81.6551487,14.6732965 81.83833,14.6564848 C82.023474,14.6386652 81.900776,13.1576424 82.2937871,12.4125819 C82.687773,11.6685162 83.0800125,11.3190792 83.0800125,11.3190792 C83.0800125,11.3190792 82.6088356,11.804742 82.3113353,12.6512734 C81.9572954,13.6619025 82.4925441,15.2929168 82.6859108,15.1871446 C83.0186512,15.006814 82.5141974,13.9401185 83.0050822,12.9838187 C83.437699,12.1396744 84.3829728,10.7297568 85.0783708,11.3530154 C85.5943121,11.8152397 84.4770393,13.5915826 84.6223257,13.7297933 C84.8582843,13.9565091 85.7172512,13.0205263 86.59292,11.4081178 C87.379749,9.95695587 88.0626923,7.86288102 88.5382766,7.70887965 L87.7649385,5.89012171" id="Fill-67" fill="#EF888B" transform="translate(84.859170, 10.541083) rotate(168.000000) translate(-84.859170, -10.541083) "></path>
                        <path d="M44.8360641,3.52 C40.5356293,3.437 39.4566076,0 39.4566076,0 C39.4566076,0 32.4131293,0.506 28.9197598,3.801 C24.1575859,8.294 21.6385641,14.409 18.2528033,19.438 C15.2280206,23.929 8.25718092,13.695293 8.25718092,13.695293 C8.25718092,13.695293 5.76256793,14.241209 5.76256793,15.427 C5.76256793,16.612791 16.6030754,33.0804386 24.308238,23.247 C32.0134006,13.4135614 32.4669337,15.427 32.4669337,15.427 C32.4669337,15.427 33.8912815,26.015 33.9959554,31.905 C34.0253033,32.54 33.7650859,36.553 33.4148685,37.639 C33.1839989,38.361 39.5387815,40.187 44.8360641,40.221 C50.134325,40.187 49.1364989,3.437 44.8360641,3.52 Z" id="Fill-69" fill="#D34554"></path>
                        <path d="M80.0534554,3.52 C75.7530206,3.437 74.6739989,0 74.6739989,0 C74.6739989,0 67.6305206,0.506 64.1371511,3.801 C59.3749772,8.294 56.8559554,14.409 53.4701946,19.438 C50.4454119,23.929 43.4745722,13.695293 43.4745722,13.695293 C43.4745722,13.695293 40.9799592,14.241209 40.9799592,15.427 C40.9799592,16.612791 51.8204667,33.0804386 59.5256293,23.247 C67.2307919,13.4135614 67.684325,15.427 67.684325,15.427 C67.684325,15.427 69.1086728,26.015 69.2133467,31.905 C69.2426946,32.54 68.9824772,36.553 68.6322598,37.639 C68.4013902,38.361 74.7561728,40.187 80.0534554,40.221 C85.3517163,40.187 84.3538902,3.437 80.0534554,3.52 Z" id="Fill-69" fill="#D34554" transform="translate(62.321299, 20.110500) scale(-1, 1) translate(-62.321299, -20.110500) "></path>
                    </g>
                    <path d="M170.2677,9.2855 C170.2697,9.2825 170.2707,9.2795 170.2727,9.2765 C170.0547,8.8695 169.8597,8.4485 169.7077,8.0015 C169.6127,7.7235 169.2577,7.7245 169.1647,8.0025 C168.1067,11.1515 165.3047,13.4035 162.0097,13.4035 C161.9997,13.4035 161.9907,13.4015 161.9807,13.4015 C161.9767,13.4815 161.9767,13.5625 161.9717,13.6425 C162.2087,13.6335 168.0167,13.3595 170.2677,9.2855" id="Fill-71" fill="#E17981"></path>
                    <path d="M172.7384,23.7269 C171.6334,24.7089 170.4824,25.2989 169.5024,25.2989 C168.5604,25.2989 167.4614,24.7609 166.3964,23.8479 C166.9174,24.5019 168.9894,26.7739 172.7644,26.6629 C172.7714,26.6629 172.7474,26.5539 172.7434,26.4959 C172.6404,25.1409 172.7174,23.9929 172.7384,23.7269" id="Fill-73" fill="#D77480"></path>
                    <path d="M178.2198,70.8368 C179.6088,70.3388 180.9868,69.7818 182.3818,69.2208 C182.3808,69.2178 182.3798,69.2148 182.3778,69.2118 L180.8998,66.2148 C180.6808,66.5468 179.4918,67.0228 177.8138,67.4658 C177.8138,67.4658 178.8238,69.3208 179.0338,70.3418 C179.0338,70.3418 178.2078,70.7398 178.2198,70.8368" id="Fill-79" fill="#153449"></path>
                    <path d="M160.631,70.7513 C160.542,70.6253 159.834,70.2833 159.834,70.2833 C158.257,69.2403 157.521,68.1183 157.265,67.7263 C157.07,68.1723 156.855,68.6713 156.633,69.1793 C157.977,69.7213 159.3,70.2623 160.631,70.7513" id="Fill-81" fill="#153449"></path>
                    <path d="M162.2306,89.6048 C162.6146,90.3018 163.0076,90.6388 163.2116,90.8468 C163.3836,91.0218 163.6196,91.0038 163.8656,91.0048 C165.2986,91.0148 167.2096,90.9148 169.4776,90.6758 C167.3486,90.4518 164.9026,90.1038 162.2306,89.6048" id="Fill-83" fill="#143853"></path>
                    <path d="M148.3527,86.0472 C148.1617,86.1152 148.0977,86.1432 147.9397,86.2222 C147.9697,86.2632 151.5027,89.7052 156.4177,91.0052 C158.7637,91.6272 160.9527,91.6932 161.0027,91.6812 C163.0057,91.1372 164.4187,90.7112 164.4187,90.7112 L164.2147,89.9552 C159.5747,89.1852 154.0897,87.9332 148.3527,86.0472" id="Fill-85" fill="#C53549"></path>
                    <path d="M177.132,88.6874 C176.738,89.8014 176.245,90.3464 175.926,90.6644 C177.926,91.2014 181.314,92.0704 184.376,92.6564 C178,90.3024 177.64,85.7114 177.64,85.7014 C177.484,85.7254 177.64,85.7014 177.457,85.7364 C177.462,86.0924 177.687,87.1144 177.132,88.6874" id="Fill-87" fill="#C53549"></path>
                    <path d="M132.4738,64.8368 L132.4698,64.8318 C132.4698,64.8318 132.4768,64.8508 132.4778,64.8548 C132.4768,64.8488 132.4758,64.8428 132.4738,64.8368" id="Fill-91" fill="#E17981"></path>
                </g>
                <g id="Icon/warning" transform="translate(152.000000, 126.000000)">
                    <g id="Shape-+-Shape-+-Shape-+-Shape-+-Shape-+-Colour/Primary/Dark-Mask">
                        <mask id="mask-4" fill="white">
                            <use xlink:href="#path-3"></use>
                        </mask>
                        <use id="Mask" fill="#000000" fill-rule="nonzero" xlink:href="#path-3"></use>
                        <g id="Colour/Primary/Dark-Colours/Grayscale/40" mask="url(#mask-4)" fill="#C8192C">
                            <rect id="Rectangle" x="0" y="0" width="36" height="36" rx="2"></rect>
                        </g>
                    </g>
                </g>
            </g>
        </g>
    </g>
</svg>