<svg width="343" height="240" viewBox="0 0 343 240" fill="none" xmlns="http://www.w3.org/2000/svg">
<mask id="mask0_4405_12127" style="mask-type:alpha" maskUnits="userSpaceOnUse" x="0" y="0" width="343" height="240">
<rect width="343" height="240" fill="#D9D9D9"/>
</mask>
<g mask="url(#mask0_4405_12127)">
<path d="M205.012 61.0429C205.012 61.0429 207.399 70.5757 206.008 77.7298C206.008 77.7298 213.952 92.0284 214.546 93.8154C215.145 95.6032 223.684 122.024 224.284 123.214C224.877 124.407 228.454 131.758 228.651 144.669C228.855 157.577 228.651 170.888 228.651 170.888C228.651 170.888 230.834 181.018 233.019 185.984C235.206 190.95 242.157 208.031 243.746 209.821C244.23 210.368 247.812 217.22 253.857 229L180.627 228.998C179.784 225.477 177.902 221.804 172.046 218.859C160.05 212.823 157.537 206.837 155.152 204.062C152.766 201.277 140.057 186.972 137.078 185.389C134.098 183.796 106.29 165.724 105.492 165.124C104.7 164.532 98.9381 162.543 98.9381 162.543C98.9381 162.543 94.7724 158.971 95.5615 154.997C95.5615 154.997 92.9823 149.234 99.3353 148.24C99.3353 148.24 103.905 146.651 105.492 146.853C107.081 147.051 124.762 145.062 124.762 145.062L124.565 137.794H106.089C106.089 137.794 105.097 141.088 99.93 140.296C94.7724 139.499 95.1666 136.717 95.9587 135.525C95.9587 135.525 92.1188 134.573 95.0434 124.6C96.0954 121.002 100.127 119.435 100.127 119.435C100.127 119.435 94.4517 119.038 94.2122 115.067C93.9689 111.099 94.2122 114.073 94.2122 114.073C94.2122 114.073 90.5984 111.491 95.1666 105.533C95.1666 105.533 98.5431 96.3938 105.294 97.1927L114.234 97.3917L106.088 95.01C106.088 95.01 95.5059 92.4286 92.8502 90.4403C90.1996 88.4536 88.6071 83.6841 89.602 80.707C90.5969 77.7276 98.5424 75.9376 98.5424 75.9376C98.5424 75.9376 105.893 75.1402 107.678 75.9376C109.465 76.7327 189.767 110.697 189.767 110.697C189.767 110.697 195.677 113.085 196.272 114.073C196.272 114.073 194.282 104.734 194.482 103.346C194.686 101.958 194.087 100.765 194.087 99.9724C194.087 99.175 189.767 94.4108 189.767 94.4108V70.3745C189.767 70.3745 193.886 61.0421 199.449 61.0421C205.012 61.0421 204.018 62.034 204.018 62.034L205.012 61.0429Z" fill="#F7B1A1"/>
<path d="M188.516 180.67C188.516 180.67 186.713 182.482 184.294 182.482C181.889 182.482 149.637 182.482 149.637 182.482C149.637 182.482 164.707 191.822 174.956 190.013C185.2 188.207 188.516 180.67 188.516 180.67Z" fill="#BA8A80"/>
<path d="M184.293 182.482H110.653C107.38 182.482 104.701 179.803 104.701 176.53V16.9505C104.701 13.6738 107.38 11 110.653 11H184.293C187.566 11 190.248 13.6738 190.248 16.9505V176.53C190.248 179.803 187.568 182.482 184.293 182.482Z" fill="#1D1D1B"/>
<path d="M190.255 110.893L196.276 113.729V118.703C196.276 118.703 198.355 124.923 198.355 126.584C198.355 128.238 193.772 136.116 190.258 141.097L190.255 110.893Z" fill="#BA8A80"/>
<path d="M184.443 17.5948H110.669V176.718H184.443V17.5948Z" fill="#E9F4FF"/>
<path d="M120.325 20.7235H113.806V22.9077H120.325V20.7235Z" fill="#484747"/>
<path d="M171.728 20.7235H167.318V22.9077H171.728V20.7235Z" fill="#484747"/>
<path d="M176.618 20.7235H172.206V22.9077H176.618V20.7235Z" fill="#484747"/>
<path d="M181.536 20.7235H177.125V22.9077H181.536V20.7235Z" fill="#484747"/>
<path d="M147.988 49.7516C129.274 49.7516 114.18 65.6401 114.18 85.1996C114.18 97.9614 120.611 109.09 130.246 115.355L124.509 129.379L140.066 119.629C142.645 120.289 145.293 120.648 148.046 120.648C166.703 120.648 181.854 104.759 181.854 85.1996C181.796 65.6401 166.645 49.7516 147.988 49.7516Z" fill="#F0E2E5"/>
<path d="M149.527 75.0448H147.608V88.1009H149.527V75.0448Z" fill="#363E6A"/>
<path d="M125.517 99.1769H171.43L148.474 59.5765L125.517 99.1769ZM128.797 97.2587L148.474 63.4118L168.151 97.2587H128.797Z" fill="#363E6A"/>
<path d="M148.596 90.886C148.226 90.886 147.926 91.0092 147.699 91.2563C147.472 91.5034 147.358 91.792 147.358 92.1227C147.358 92.4943 147.472 92.7932 147.699 93.0196C147.926 93.2472 148.226 93.3613 148.596 93.3613C148.926 93.3613 149.215 93.2374 149.463 92.9885C149.71 92.7426 149.835 92.4534 149.835 92.1233C149.835 91.7517 149.71 91.4528 149.463 91.2252C149.214 90.9989 148.926 90.886 148.596 90.886Z" fill="#363E6A"/>
</g>
</svg>
