<svg width="343" height="240" viewBox="0 0 343 240" fill="none" xmlns="http://www.w3.org/2000/svg">
<path d="M109.834 235.422C109.817 234.036 109.735 232.6 109.584 231.164C110.195 232.514 110.637 233.969 111.086 235.422H114.079C113.259 228.658 112.233 221.892 112.893 215.091C113.63 217.877 114.544 220.627 115.641 223.339C115.692 223.483 115.96 223.543 115.991 223.339C117.104 216.162 117.662 208.615 119.596 201.616C120.621 197.901 122.858 194.963 124.591 191.589C126.11 188.617 126.936 185.587 129.003 182.863C133.437 177.96 131.926 170.83 135.922 165.74C137.055 164.36 138.4 163.244 139.843 162.199C137.204 158.535 143.515 150.013 141.868 146.101C131.554 141.47 127.409 131.833 128.208 122.442C128.212 122.436 128.212 122.436 128.212 122.427C130.121 114.29 135.914 104.864 145.049 104.325C146.689 101.174 152.143 100.515 154.957 102.656C158.503 105.359 159.523 115.728 159.714 120.514C159.416 120.917 159.125 121.612 159.161 122.659C159.221 124.369 155.519 122.479 155.576 124.216C155.628 126.619 152.861 128.159 150.271 129.325C150.544 133.953 150.616 143.938 154.02 145.275C162.466 141.508 169.903 129.302 169.799 120.629C171.082 115.9 170.636 110.916 168.342 106.486C167.183 104.259 165.608 102.394 163.736 100.765C161.914 92.9915 155.319 87.2237 148.066 83.8329C138.978 79.6103 129.606 83.2944 121.45 87.942C111.247 93.653 102.866 103.386 102.311 115.368C96.5005 129.328 93.0138 144.41 96.2768 159.358C91.4718 173.53 85.6161 189.745 91.4166 204.414C91.1178 210.121 92.0071 215.92 92.8955 221.554C92.9203 221.77 92.9562 221.989 93.0042 222.204C94.066 226.715 95.5897 231.12 97.4201 235.424H109.834V235.422Z" fill="#EA5B25"/>
<path d="M207.033 0C181.094 0 160.068 21.0832 160.068 47.0889C160.068 64.0135 168.977 78.8464 182.346 87.147L174.386 105.769L195.97 92.8524C199.519 93.7121 203.221 94.1787 207.034 94.1787C232.973 94.1787 254 73.0962 254 47.0889C253.999 21.0832 232.972 0 207.033 0Z" fill="#F0E2E5"/>
<path d="M221.945 53.1604L220.351 51.5625C221.572 50.0173 222.542 48.2595 223.259 46.2885C223.975 44.3182 224.336 42.4007 224.336 40.5367C224.336 38.6183 223.911 36.5282 223.061 34.2648C222.212 32.0005 221.067 30.1229 219.635 28.632L221.227 27.0333C222.98 28.7918 224.321 30.8955 225.252 33.3467C226.182 35.7956 226.647 38.2189 226.647 40.615C226.647 42.8537 226.248 45.0628 225.451 47.2472C224.654 49.4316 223.486 51.4019 221.945 53.1604ZM212.54 43.7326L204.572 35.7428C204.89 35.476 205.343 35.2363 205.925 35.0238C206.51 34.8105 207.121 34.7034 207.759 34.7034C209.353 34.7034 210.721 35.277 211.864 36.422C213.007 37.5669 213.575 38.9387 213.575 40.5359C213.575 41.2286 213.471 41.8406 213.257 42.3727C213.045 42.9064 212.808 43.3594 212.54 43.7326ZM229.277 60.5109L227.601 58.9122C229.941 56.302 231.734 53.4001 232.98 50.2026C234.229 47.0075 234.855 43.7853 234.855 40.5359C234.855 37.1802 234.177 33.8117 232.822 30.4289C231.467 27.0452 229.462 24.0507 226.805 21.4405L228.479 19.7618C231.401 22.6381 233.579 25.8468 235.014 29.3894C236.448 32.9321 237.166 36.6465 237.166 40.5351C237.166 44.3166 236.487 47.912 235.132 51.3212C233.778 54.7312 231.826 57.7936 229.277 60.5109ZM233.578 76.2515L208.956 51.7215V72.8942H206.566V49.2439L192.061 34.7841C191.798 35.6366 191.582 36.5953 191.424 37.6596C191.265 38.7254 191.185 39.685 191.185 40.5367C191.185 42.4542 191.57 44.5044 192.342 46.6888C193.11 48.8723 194.319 50.7643 195.967 52.3614L194.291 54.0401C192.592 52.2815 191.264 50.2034 190.308 47.8081C189.353 45.4112 188.873 42.9871 188.873 40.5375C188.873 39.3119 189.021 38.0071 189.311 36.6225C189.604 35.2379 189.962 34.0666 190.388 33.1078L184.411 26.9558C183.137 29.0315 182.195 31.2838 181.584 33.7063C180.972 36.1303 180.667 38.4074 180.667 40.5375C180.667 43.8932 181.358 47.2752 182.738 50.6844C184.121 54.0936 186.114 57.0754 188.714 59.6329L187.041 61.3107C184.014 58.329 181.809 55.066 180.427 51.5233C179.046 47.9815 178.355 44.319 178.355 40.5375C178.355 37.8745 178.687 35.2515 179.351 32.6676C180.017 30.0845 181.118 27.6205 182.659 25.2771L178.514 21.0426L180.269 19.3647L235.253 74.4937L233.578 76.2515Z" fill="#363E6A"/>
<path d="M132.181 142.835C132.181 142.835 134.017 147.472 128.903 149.373C123.715 151.302 136.624 169.261 136.624 169.261L154.085 164.213C154.085 164.213 156.463 157.088 158.241 156.048C160.018 155.01 161.499 151.297 161.499 151.297L159.385 148.375C159.385 148.375 158.575 148.292 156.759 147.243C153.348 145.275 154.225 140.312 154.084 139.719C153.948 139.123 132.181 142.835 132.181 142.835Z" fill="#DFBCA1"/>
<path d="M124.48 117.595C124.48 119.058 122.407 117.299 122.11 119.378C121.817 121.458 123.054 122.199 123.027 123.981C122.999 125.762 121.816 129.92 125.813 131.402C125.813 131.402 126.471 134.433 127.455 137.437C128.087 139.366 128.852 141.286 129.663 142.389C131.737 145.212 135.824 150.999 141.331 150.109C146.84 149.219 152.762 148.476 155.132 141.054C157.5 133.63 158.538 130.81 158.538 130.215C158.538 130.215 161.5 128.877 161.5 127.57C161.5 126.265 161.283 126.145 161.875 124.216C162.467 122.284 162.273 122.157 163.137 120.642C164.065 119.017 161.903 116.039 160.166 118.636C160.166 118.636 157.79 107.031 156.463 103.047C154.837 98.146 145.017 95.7722 142.449 101.86C142.449 101.86 139.196 103.501 135.457 105.898C130.411 109.136 124.48 113.759 124.48 117.595Z" fill="#F0CAAC"/>
<path d="M134.017 106.846C128.861 109.367 128.084 116.248 124.777 121.309C123.592 123.121 126.22 133.33 126.873 135.936C132.02 156.464 113.968 136.749 113.968 136.749C113.968 136.749 107.75 117.746 109.081 116.856C110.414 115.966 114.441 101.118 114.856 100.97C115.274 100.821 134.017 106.846 134.017 106.846Z" fill="#EA5B25"/>
<path d="M187.426 235.423C188.066 233.197 189.027 229.829 189.561 229.114C190.346 228.066 191.261 209.456 191.654 207.623C192.042 205.789 189.561 192.028 189.561 192.028C183.419 192.028 173.746 194.256 173.746 194.256C173.746 194.256 172.178 205.658 171.394 208.801C170.61 211.946 171.132 219.285 171.394 221.512C171.633 223.547 126.172 231.474 124.861 231.603C124.364 231.653 123.041 233.342 121.586 235.422H187.426V235.423Z" fill="#EAE5E2"/>
<path d="M99.6 235.423H190.979C192.343 231.1 193.425 221.324 193.425 219.085C193.425 216.445 195.12 205.509 195.871 202.114C196.623 198.72 190.23 176.471 189.854 174.962C189.476 173.454 189.102 167.985 186.844 162.14C184.587 156.294 179.322 153.655 177.336 153.655C175.349 153.655 169.542 151.393 166.157 150.825C163.044 150.307 159.561 147.996 159.017 147.628C158.944 147.578 158.864 147.54 158.778 147.524C158.546 147.483 157.446 147.091 157.313 147.884L158.197 148.31C157.628 150.857 154.214 156.516 143.423 157.237C132.135 157.993 129.504 151.844 128.903 149.374L129.699 148.492C129.699 148.492 129.4 148.189 128.501 148.469C127.171 148.887 120.847 151.677 119.357 152.524C117.689 153.466 106.915 158.181 105.087 159.312C103.259 160.443 99.5809 166.477 99.1366 170.059C98.6948 173.642 97.3238 175.339 97.1831 177.226C97.0425 179.111 94.6919 190.991 94.0727 194.195C93.4527 197.401 93.9377 201.737 94.0727 204.378C94.207 207.019 93.9377 214.748 94.0727 217.652C94.207 220.555 97.3238 228.326 97.5483 230.775C97.6657 232.077 98.7052 233.79 99.6 235.423Z" fill="#B89012"/>
<path d="M99.3164 233.44C99.3164 233.44 99.7295 234.304 100.318 235.422H115.118C118.334 230.877 127.524 216.003 128.263 213.781C129.047 211.424 137.543 192.421 137.543 191.373C137.543 190.326 139.632 185.347 140.286 184.298C140.94 183.248 143.032 179.974 143.424 179.188C143.817 178.401 147.633 172.896 147.686 171.847C147.739 170.8 149.433 168.048 149.172 165.821C148.913 163.594 149.172 159.922 149.172 159.922C149.172 159.922 149.247 157.04 149.472 156.646C149.697 156.254 150.318 152.846 150.268 151.797C150.22 150.751 150.268 147.998 150.268 147.998C150.268 147.998 148.808 145.902 147.686 147.475C147.686 147.475 147.633 143.541 147.686 142.494C147.739 141.447 146.168 139.874 144.863 140.66C144.863 140.66 144.992 138.301 143.555 138.301C142.118 138.301 141.202 139.087 140.81 140.267C140.81 140.267 139.112 138.695 138.326 140.267C137.544 141.841 136.104 145.378 136.104 145.378L134.536 149.44C134.536 149.44 133.622 153.108 133.622 153.501C133.622 153.895 132.706 156.384 132.706 156.384L131.401 160.971L130.615 162.413C130.615 162.413 129.569 159.661 129.569 159.267C129.569 158.873 129.569 155.6 129.569 154.551C129.569 153.501 129.832 151.669 128.654 151.669C127.479 151.669 127.085 154.289 127.085 154.289C127.085 154.289 126.694 156.124 126.303 156.647C125.911 157.173 125.257 159.004 125.257 159.923C125.257 160.84 126.172 163.332 126.172 163.726C126.172 164.117 126.041 165.691 126.172 166.475C126.303 167.261 128.917 173.421 129.31 174.077C129.701 174.731 131.009 176.696 129.701 178.269C128.393 179.844 117.415 198.449 117.154 198.845C116.892 199.237 114.848 202.12 115.217 201.465C115.585 200.81 115.844 195.174 115.844 195.174C115.844 195.174 107.613 191.504 98.4631 192.422C98.4631 192.422 97.6793 201.203 96.8947 205.133C96.1117 209.065 94.9676 215.748 96.6526 222.824C98.3321 229.898 99.3164 233.44 99.3164 233.44Z" fill="#FAD1B1"/>
<path d="M99.9159 235.423H120.581L141.331 186.275C136.817 186.086 127.039 179.487 127.039 179.487L105.442 187.406L97.3241 189.411L94.8521 202.679V221.345L97.7459 231.681C97.7459 231.681 98.8821 233.464 99.9159 235.423Z" fill="#B89012"/>
<path d="M99.9159 235.423H120.581L141.331 186.275C136.817 186.086 127.039 179.487 127.039 179.487L94.8521 221.346L97.7459 231.682C97.7459 231.681 98.8821 233.464 99.9159 235.423Z" fill="#BF9517"/>
</svg>
