<?xml version="1.0" encoding="UTF-8"?>
<svg width="88px" height="88px" viewBox="0 0 88 88" version="1.1" xmlns="http://www.w3.org/2000/svg" xmlns:xlink="http://www.w3.org/1999/xlink">
    <!-- Generator: sketchtool 61.2 (101010) - https://sketch.com -->
    <title>F33DD72B-1FFA-48DD-99F0-254752876953</title>
    <desc>Created with sketchtool.</desc>
    <defs>
        <path d="M44,0.875 C67.8172798,0.875 87.125,20.1827202 87.125,44 C87.125,67.8172798 67.8172798,87.125 44,87.125 C20.1827202,87.125 0.875,67.8172798 0.875,44 C0.875,20.1827202 20.1827202,0.875 44,0.875 Z M44,6.625 C23.3583575,6.625 6.625,23.3583575 6.625,44 C6.625,64.6416425 23.3583575,81.375 44,81.375 C64.6416425,81.375 81.375,64.6416425 81.375,44 C81.375,23.3583575 64.6416425,6.625 44,6.625 Z M41.4280072,45.2864537 L41.4237213,45.2775257 C41.3741306,45.1777126 41.3301698,45.0746085 41.2922541,44.9686289 C41.2848845,44.9476511 41.277801,44.9270562 41.2709581,44.9063991 C41.2407932,44.816069 41.2150257,44.7232036 41.1939221,44.6285795 C41.1888523,44.6047016 41.183759,44.5804027 41.1789827,44.5560539 C41.1735105,44.5294087 41.1686732,44.5027234 41.1642069,44.4759125 C41.159761,44.4479185 41.1555002,44.4198535 41.1516554,44.3917425 C41.1466843,44.3566509 41.1425303,44.3213024 41.1390235,44.2857637 C41.1376598,44.2707314 41.1363189,44.2560686 41.1350901,44.2413981 C41.1283909,44.1622005 41.125,44.0814963 41.125,44 L41.1273223,44.1158959 C41.1263462,44.0915503 41.1256778,44.0671947 41.1253171,44.0428353 L41.125,44 L41.125,29.625 C41.125,28.0371813 42.4121813,26.75 44,26.75 C45.5878187,26.75 46.875,28.0371813 46.875,29.625 L46.875,29.625 L46.875,42.809 L63.9999822,59.9379515 C65.0777142,61.0159135 65.1206446,62.7366659 64.1289048,63.8658393 L63.9995485,64.0038155 C62.8766714,65.1264531 61.0563221,65.1262589 59.9336845,64.0033818 L59.9336845,64.0033818 L41.9668512,46.0327151 C41.9515573,46.017418 41.9364718,46.0019914 41.9215946,45.9864388 C41.8951325,45.9587457 41.86919,45.9305077 41.8438135,45.9017582 C41.8278884,45.8838315 41.812217,45.8656466 41.7968106,45.8473147 C41.7769561,45.8234906 41.7576303,45.7997022 41.7386815,45.7756034 C41.7206247,45.7529326 41.7028679,45.7296571 41.685514,45.7061773 C41.6677608,45.681782 41.6503827,45.657461 41.6333782,45.6328619 C41.6213478,45.61589 41.6096122,45.5985191 41.5980872,45.58105 C41.5748464,45.5453562 41.552225,45.5093491 41.5303911,45.472817 C41.5205986,45.456905 41.511035,45.4405304 41.5016469,45.4240828 C41.4980794,45.4173731 41.4946282,45.4112768 41.4911986,45.4051667 L41.4280072,45.2864537 L41.4280072,45.2864537 Z" id="path-1"></path>
    </defs>
    <g id="#150-|-LOGIN-" stroke="none" stroke-width="1" fill="none" fill-rule="evenodd">
        <g id="150.1.2.2-|-Login-ERROR" transform="translate(-136.000000, -77.000000)">
            <g id="Icon/time" transform="translate(136.000000, 77.000000)">
                <g id="Shape-+-Shape-+-Colour/Primary/Dark-Mask">
                    <mask id="mask-2" fill="white">
                        <use xlink:href="#path-1"></use>
                    </mask>
                    <use id="Mask" fill="#000000" fill-rule="nonzero" xlink:href="#path-1"></use>
                    <g id="Colour/Primary/Dark" mask="url(#mask-2)" fill="#C8192C">
                        <g transform="translate(-5.833333, -5.833333)" id="Rectangle">
                            <rect x="0" y="0" width="99.6666667" height="99.6666667" rx="1.66666667"></rect>
                        </g>
                    </g>
                </g>
            </g>
        </g>
    </g>
</svg>