<svg width="313" height="286" viewBox="0 0 313 286" fill="none" xmlns="http://www.w3.org/2000/svg">
<g clip-path="url(#clip0_6080_14957)">
<path d="M169.43 285.4C248.24 285.4 312.13 221.51 312.13 142.7C312.13 63.89 248.24 0 169.43 0C90.62 0 26.74 63.89 26.74 142.7C26.74 221.51 90.63 285.4 169.44 285.4H169.43Z" fill="#CBE0EB"/>
<path d="M301.79 195.97L267.89 103C267.89 103 256.23 78.4501 238.81 77.1101L230.68 113.94L190.08 212.13C199.62 234.57 220.91 243.6 231.84 243.6L247.32 243.42L253.07 257.9C274.65 242.38 291.69 220.95 301.81 195.96L301.79 195.97Z" fill="#ED9980"/>
<path d="M146.51 94.4299C146.51 94.4299 133.69 150.77 134.98 161.73C134.98 161.73 133.05 173.66 151.1 183.97L166.89 123.16L146.51 94.4199V94.4299Z" fill="#ED9980"/>
<path d="M245.78 224.45L166.08 229.11C157.84 229.59 150.77 223.3 150.29 215.06L139.38 35.2101C138.9 26.9701 145.19 19.9001 153.43 19.4201L233.13 14.7601C241.37 14.2801 248.44 20.5701 248.92 28.8101L259.83 208.66C260.31 216.9 254.02 223.97 245.78 224.45Z" fill="#484747"/>
<path d="M165.2 221.13C161.53 221.13 158.5 218.26 158.28 214.6L147.37 34.73C147.26 32.89 147.88 31.11 149.11 29.72C150.34 28.33 152.04 27.51 153.89 27.4L233.59 22.74C233.73 22.74 233.87 22.73 234.01 22.73C237.67 22.73 240.71 25.6 240.93 29.26L251.85 209.13C252.07 212.94 249.15 216.22 245.32 216.45L165.62 221.11C165.48 221.11 165.34 221.12 165.2 221.12V221.13Z" fill="#E6E1DE"/>
<path d="M230.58 65.4499L161.41 70.2099C157.9 70.4499 155.25 73.4899 155.49 76.9999L157.21 101.94C157.45 105.45 160.49 108.1 164 107.86L233.17 103.1C236.68 102.86 239.33 99.8199 239.09 96.3099L237.37 71.3699C237.13 67.8599 234.09 65.2099 230.58 65.4499Z" fill="white"/>
<path d="M175.74 100.88C182.92 100.88 188.74 95.0599 188.74 87.8799C188.74 80.6999 182.92 74.8799 175.74 74.8799C168.56 74.8799 162.74 80.6999 162.74 87.8799C162.74 95.0599 168.56 100.88 175.74 100.88Z" fill="#F6B236"/>
<path d="M171.17 93.05C170.94 93.06 170.74 92.99 170.55 92.84C170.37 92.68 170.27 92.49 170.25 92.26L169.74 84.85C169.73 84.62 169.8 84.42 169.95 84.23C170.11 84.05 170.3 83.95 170.53 83.93L180.23 83.26C180.46 83.25 180.66 83.32 180.85 83.47C181.03 83.63 181.13 83.82 181.15 84.05L181.66 91.46C181.67 91.69 181.6 91.89 181.45 92.08C181.29 92.26 181.1 92.36 180.87 92.38L171.17 93.05ZM175.72 88.32C175.72 88.32 175.8 88.31 175.84 88.29C175.88 88.28 175.9 88.25 175.95 88.23L180.23 85C180.23 85 180.31 84.93 180.33 84.88C180.35 84.83 180.36 84.78 180.36 84.72C180.36 84.6 180.29 84.5 180.18 84.44C180.07 84.38 179.95 84.38 179.85 84.47L175.69 87.55L171.17 85.07C171.05 85 170.94 85.01 170.83 85.07C170.72 85.15 170.67 85.24 170.68 85.37C170.68 85.43 170.7 85.48 170.74 85.53C170.78 85.58 170.81 85.61 170.85 85.64L175.53 88.25C175.53 88.25 175.61 88.28 175.64 88.29C175.67 88.3 175.72 88.3 175.76 88.3H175.74L175.72 88.32Z" fill="white"/>
<path d="M227.06 77.8901L194.49 80.1301C194.12 80.1601 193.83 80.4801 193.86 80.8501L194.05 83.6601C194.08 84.0301 194.4 84.3201 194.77 84.2901L227.34 82.0501C227.71 82.0201 228 81.7001 227.97 81.3301L227.78 78.5201C227.75 78.1501 227.43 77.8601 227.06 77.8901Z" fill="#D4CFCA"/>
<path d="M218.45 86.2401L195.09 87.8501C194.68 87.8801 194.38 88.2301 194.41 88.6401L194.6 91.3401C194.63 91.7501 194.98 92.0501 195.39 92.0201L218.75 90.4101C219.16 90.3801 219.46 90.0301 219.43 89.6201L219.24 86.9201C219.21 86.5101 218.86 86.2101 218.45 86.2401Z" fill="#D4CFCA"/>
<path d="M239.4 175.54L170.23 180.3C166.72 180.54 164.07 183.58 164.31 187.09L165.01 197.22C165.25 200.73 168.29 203.38 171.8 203.14L240.97 198.38C244.48 198.14 247.13 195.1 246.89 191.59L246.19 181.46C245.95 177.95 242.91 175.3 239.4 175.54Z" fill="#DE2747"/>
<path d="M233.58 109.04L164.41 113.8C160.9 114.04 158.25 117.08 158.49 120.59L160.21 145.53C160.45 149.04 163.49 151.69 167 151.45L236.17 146.69C239.68 146.45 242.33 143.41 242.09 139.9L240.37 114.96C240.13 111.45 237.09 108.8 233.58 109.04Z" fill="white"/>
<path d="M178.74 144.47C185.92 144.47 191.74 138.65 191.74 131.47C191.74 124.29 185.92 118.47 178.74 118.47C171.56 118.47 165.74 124.29 165.74 131.47C165.74 138.65 171.56 144.47 178.74 144.47Z" fill="#80B376"/>
<path d="M178.19 136.69L180 136.56C180.08 136.56 180.14 136.52 180.2 136.46C180.26 136.4 180.28 136.33 180.27 136.25C180.27 136.17 180.23 136.11 180.17 136.05C180.11 135.99 180.04 135.97 179.96 135.98L178.15 136.11C178.07 136.11 178.01 136.15 177.95 136.21C177.89 136.27 177.87 136.34 177.88 136.42C177.88 136.5 177.92 136.56 177.98 136.62C178.04 136.68 178.11 136.7 178.19 136.69ZM175.97 138.08C175.73 138.09 175.52 138.02 175.33 137.87C175.15 137.71 175.05 137.51 175.03 137.27L174.27 126.21C174.26 125.97 174.33 125.76 174.48 125.57C174.64 125.39 174.84 125.29 175.08 125.27L181.48 124.83C181.72 124.82 181.93 124.89 182.12 125.04C182.3 125.2 182.4 125.4 182.42 125.64L183.18 136.7C183.19 136.94 183.12 137.15 182.97 137.34C182.81 137.52 182.61 137.62 182.37 137.64L175.97 138.08ZM175.76 135.02L182.16 134.58L181.64 127.01L175.24 127.45L175.76 135.02Z" fill="white"/>
<path d="M221.65 122.05L197.4 123.72C197.08 123.74 196.83 124.02 196.85 124.35L197.06 127.34C197.08 127.66 197.36 127.91 197.69 127.89L221.94 126.22C222.26 126.2 222.51 125.92 222.49 125.59L222.28 122.6C222.26 122.28 221.98 122.03 221.65 122.05Z" fill="#D4CFCA"/>
<path d="M229.89 129.23L198.19 131.41C197.72 131.44 197.37 131.85 197.4 132.32L197.57 134.79C197.6 135.26 198.01 135.61 198.48 135.58L230.18 133.4C230.65 133.37 231 132.96 230.97 132.49L230.8 130.02C230.77 129.55 230.36 129.2 229.89 129.23Z" fill="#D4CFCA"/>
<path d="M213.53 187.7C221.39 187.7 227.77 181.33 227.77 173.46C227.77 165.59 221.4 159.22 213.53 159.22C205.66 159.22 199.29 165.59 199.29 173.46C199.29 181.33 205.66 187.7 213.53 187.7Z" fill="#ED9980"/>
<path d="M250 145.19L225.72 180.82L201.33 166.12L223.63 129.16L249.99 145.2L250 145.19Z" fill="#ED9980"/>
<path d="M236.78 152.67C245.3 152.67 252.21 145.76 252.21 137.24C252.21 128.72 245.3 121.81 236.78 121.81C228.26 121.81 221.35 128.72 221.35 137.24C221.35 145.76 228.26 152.67 236.78 152.67Z" fill="#ED9980"/>
<path d="M227.21 149.65L269.52 187.05L284.29 149.69L246.09 125.39L227.21 149.65Z" fill="#ED9980"/>
<path d="M9.51996 40.8599C-7.98004 67.3899 -0.670038 103.07 25.85 120.58C52.37 138.08 88.06 130.77 105.56 104.25C106.2 103.28 106.8 102.29 107.37 101.3L127.35 99.2999C128.98 99.1399 129.73 97.1999 128.65 95.9799L114.59 80.0699C117.36 58.9299 108.22 37.0699 89.23 24.5399C62.71 7.02989 27.02 14.3399 9.51996 40.8599Z" fill="#80B176"/>
<path d="M26.74 72.1C27.02 72.1 27.25 71.88 27.26 71.6C27.74 64.22 30.64 57.9 35.99 52.65C41.86 46.88 49 44 57.4 44C61.64 44 65.67 44.88 69.49 46.66C72.92 48.25 76.02 50.36 78.78 52.99C79.12 53.32 78.88 53.9 78.41 53.9H70.13C69.84 53.9 69.6 54.14 69.6 54.43V56.6C69.6 56.89 69.84 57.13 70.13 57.13H84.8C85.09 57.13 85.33 56.89 85.33 56.6V41.83C85.33 41.54 85.09 41.3 84.8 41.3H82.74C82.45 41.3 82.21 41.54 82.21 41.83V50.53C82.21 51 81.64 51.23 81.3 50.9C78.25 47.93 74.78 45.54 70.9 43.74C66.63 41.76 62.13 40.77 57.41 40.77C52.69 40.77 48.5 41.64 44.44 43.37C40.38 45.11 36.84 47.48 33.82 50.51C30.8 53.53 28.4 57.06 26.63 61.09C25.18 64.38 24.33 67.86 24.07 71.53C24.05 71.84 24.3 72.1 24.61 72.1H26.76H26.74Z" fill="white" stroke="white" stroke-width="3" stroke-miterlimit="10"/>
<path d="M87.54 73.01C87.24 73.01 87 73.24 86.98 73.54C86.5 80.91 83.59 87.21 78.25 92.46C72.38 98.23 65.24 101.11 56.84 101.11C52.6 101.11 48.57 100.23 44.75 98.45C41.35 96.87 38.27 94.78 35.53 92.18C35.16 91.83 35.42 91.21 35.93 91.21H44.08C44.39 91.21 44.65 90.96 44.65 90.64V88.55C44.65 88.24 44.4 87.98 44.08 87.98H29.48C29.17 87.98 28.91 88.23 28.91 88.55V103.25C28.91 103.56 29.16 103.82 29.48 103.82H31.47C31.78 103.82 32.04 103.57 32.04 103.25V94.67C32.04 94.16 32.65 93.92 33.01 94.27C36.04 97.22 39.49 99.58 43.34 101.37C47.61 103.35 52.11 104.34 56.83 104.34C61.55 104.34 65.74 103.47 69.8 101.74C73.86 100 77.4 97.63 80.42 94.6C83.44 91.58 85.84 88.05 87.61 84.02C89.05 80.74 89.9 77.27 90.17 73.62C90.19 73.29 89.93 73.01 89.6 73.01H87.52H87.54Z" fill="white" stroke="white" stroke-width="3" stroke-miterlimit="10"/>
</g>
<defs>
<clipPath id="clip0_6080_14957">
<rect width="312.13" height="285.4" fill="white"/>
</clipPath>
</defs>
</svg>
