<svg width="343" height="241" viewBox="0 0 343 241" fill="none" xmlns="http://www.w3.org/2000/svg">
<path d="M217.262 0C190.864 0 169.462 21.4024 169.462 47.7999C169.462 64.9808 178.531 80.0377 192.136 88.4635L184.035 107.369L206.002 94.2559C209.615 95.1286 213.382 95.6022 217.262 95.6022C243.663 95.6022 265.063 74.2015 265.063 47.8007C265.063 21.4024 243.662 0 217.262 0Z" fill="#F0E2E5"/>
<path d="M217.426 74.6249C213.857 74.6249 210.49 73.9347 207.327 72.5559C204.166 71.1788 201.408 69.3264 199.056 67.0003C196.704 64.6751 194.84 61.9176 193.46 58.7278C192.081 55.538 191.392 52.1584 191.392 48.5899C191.392 45.0221 192.081 41.6685 193.46 38.5331C194.84 35.3976 196.704 32.6539 199.056 30.3011C201.408 27.9482 204.166 26.0967 207.327 24.7455C210.49 23.3935 213.857 22.7179 217.426 22.7179C221.102 22.7179 224.603 23.4867 227.928 25.0293C231.254 26.5695 234.186 28.6652 236.727 31.3132V23.1226H239.16V35.4495H226.914V32.9361H234.781C232.456 30.5565 229.806 28.6782 226.834 27.2994C223.86 25.9207 220.724 25.2321 217.425 25.2321C210.883 25.2321 205.325 27.4754 200.757 31.9637C196.189 36.4519 193.905 41.9386 193.905 48.426C193.905 55.023 196.189 60.6183 200.757 65.2152C205.325 69.8114 210.882 72.109 217.425 72.109C223.589 72.109 228.872 70.0157 233.28 65.8251C237.687 61.6337 240.134 56.4837 240.621 50.3733H243.134C242.756 57.2412 240.092 62.9979 235.146 67.6483C230.199 72.2996 224.293 74.6249 217.426 74.6249ZM228.05 60.9176L216.129 49.1576V32.3692H218.562V48.1032L229.832 59.1349L228.05 60.9176Z" fill="#363E6A"/>
<path d="M123.107 119.001C123.126 119.001 123.133 118.987 123.152 118.987C124.237 118.773 125.097 119.683 125.658 120.722C126.553 116.344 128.407 111.834 131.781 109.546C133.443 108.412 134.887 108.506 136.794 108.946C140.947 109.946 144.026 111.903 148.531 111.825C153.798 111.732 159.086 110.356 161.51 116.281C163.214 120.446 163.598 125.76 162.953 130.601C164.074 129.561 165.393 128.756 166.555 129.27C166.59 129.288 166.618 129.301 166.649 129.328C166.721 129.356 166.78 129.401 166.845 129.437C170.555 122.865 174.129 116.316 171.091 108.424C167.665 99.5186 161.681 93.7644 152.288 91.6711C144.119 89.8365 135.381 91.5754 129.214 97.3694C123.036 103.165 122.051 111.113 122.933 119.042C122.995 119.037 123.049 119.02 123.107 119.001Z" fill="#AC5919"/>
<path d="M99.3894 240.333C99.6376 238.083 99.9393 235.896 100.236 233.683C100.236 233.657 100.255 233.63 100.255 233.601C100.646 231.939 101.072 230.154 101.372 228.398C101.476 227.828 101.586 227.252 101.649 226.694C101.949 224.51 102.007 222.411 101.586 220.662C101.608 219.205 101.589 217.733 101.513 216.248C101.497 216.153 101.42 216.074 101.315 216.074C96.6108 216.111 92.1647 215.621 87.674 214.408C87.674 214.408 87.674 214.408 87.6553 214.408C87.3723 214.282 84.1355 213.177 83.7721 213.282C81.7145 213.941 83.8767 213.209 82.6375 214.688C82.5199 214.816 82.4242 215.14 82.3512 215.581C82.3066 215.793 82.2741 216.037 82.2482 216.29C81.8711 219.481 82.0073 226.126 81.8556 227.038C81.4599 229.523 80.9343 231.989 80.5264 234.462C80.3268 235.704 79.9173 237.15 79.6626 238.605C79.4193 239.185 79.2149 239.746 79 240.331H99.3894V240.333Z" fill="#FAD1B1"/>
<path d="M125.85 165.6C126.323 165.983 126.867 166.292 127.466 166.54C130.477 168.148 134.338 169.302 137.89 169.781C144.231 170.637 154.448 169.293 159.458 165.314C162.732 162.585 160.833 160.087 160.198 158.285C160.13 158.238 156.697 157.627 154.911 155.595C153.971 154.53 155.823 149.946 156.075 148.624C157.791 146.605 159.302 144.437 160.316 141.971C161.461 141.794 162.57 141.314 163.245 140.504C164.148 139.406 164.476 137.721 165.211 136.481C165.888 135.337 166.716 134.264 167.241 133.029C167.724 131.903 168.04 130.207 166.854 129.436C166.791 129.391 166.733 129.347 166.66 129.327C166.624 129.295 166.598 129.287 166.566 129.269C165.403 128.755 164.086 129.559 162.965 130.6C163.609 125.758 163.223 120.445 161.521 116.28C159.095 110.349 153.808 111.726 148.541 111.825C144.037 111.911 140.956 109.946 136.806 108.945C134.893 108.496 133.453 108.411 131.792 109.546C128.422 111.833 126.569 116.344 125.668 120.722C125.106 119.683 124.252 118.773 123.162 118.986C123.144 118.986 123.136 118.996 123.118 118.996C123.055 119.018 123.003 119.038 122.949 119.054C121.711 119.532 121.587 121.835 121.604 122.825C121.618 123.905 121.91 124.954 121.995 126.024C122.11 127.683 121.714 129.226 121.538 130.862C121.393 132.169 121.183 133.547 121.842 134.768C122.564 136.117 124.111 137.02 125.677 137.56C124.967 140.898 126.019 143.813 127.819 146.573C127.568 149.254 129.617 155.225 127.092 156.13C124.716 156.983 123.547 157.015 123.547 157.015C123.471 157.11 123.394 157.202 123.316 157.292C120.677 160.356 122.372 163.317 125.85 165.6Z" fill="#FAD1B1"/>
<path d="M184.541 240.333C185.007 232.404 184.804 225.14 185.757 217.259C186.167 217.187 186.558 217.112 186.969 217.038C186.952 216.943 186.952 216.852 186.952 216.767C186.952 216.531 186.969 216.307 187.016 216.103C187.588 213.628 191.054 212.262 193.714 211.053C192.46 209.955 190.268 208.634 189.586 207.971C188.404 206.794 187.365 205.53 186.47 204.166C185.319 202.406 184.485 200.552 183.927 198.62C182.477 198.529 181.039 198.456 179.603 198.369C177.435 198.251 173.235 198.696 171.313 197.855C169.94 197.256 169.666 195.882 169.652 194.53C169.558 194.503 169.452 194.49 169.365 194.462C166.78 193.846 165.524 192.055 166.64 189.925C166.082 189.53 165.674 189.012 165.552 188.367C165.386 187.564 165.524 186.418 166.114 185.737C165.083 184.343 165.552 182.259 167.277 181.206C167.807 180.897 168.456 180.642 169.198 180.47C169.215 177.269 169.229 174.066 169.244 170.864C169.244 168.163 168.456 163.979 169.198 161.115C169.229 160.952 169.275 160.788 169.335 160.643C165.238 159.789 160.084 157.976 160.197 158.294C160.833 160.093 162.73 162.599 159.456 165.324C154.447 169.302 144.225 170.656 137.89 169.793C134.339 169.321 130.479 168.158 127.466 166.547C126.862 166.304 126.316 165.986 125.849 165.607C122.37 163.317 120.676 160.365 123.305 157.314C123.382 157.223 123.46 157.136 123.537 157.036C121.404 156.858 119.436 157.314 117.457 157.959C114.082 158.739 110.499 160.105 107.247 161.384C103.827 162.453 100.392 163.558 97.069 164.844C90.3383 167.401 85.4299 171.333 82.85 177.614C79.5669 185.576 80.0657 195.135 79.8727 203.763C79.644 205.604 79.4753 207.555 79.5994 209.346C79.3723 212.783 79.4169 215.101 82.2409 216.29C82.2733 216.031 82.3058 215.793 82.3463 215.582C82.4234 215.136 82.515 214.818 82.631 214.689C83.8727 213.219 81.7097 213.942 83.7673 213.283C84.1306 213.178 87.3691 214.282 87.6505 214.409C87.6691 214.409 87.6691 214.409 87.6691 214.409C92.1598 215.631 96.6059 216.112 101.313 216.075C101.415 216.075 101.494 216.162 101.508 216.249C101.583 217.733 101.602 219.206 101.571 220.663C101.994 222.415 101.933 224.514 101.634 226.703C101.571 227.261 101.466 227.828 101.356 228.406C101.424 230.672 102.295 235.3 103.368 240.333H184.541Z" fill="#F6A505"/>
<path d="M208.95 203.183C207.588 194.38 206.074 183.981 202.175 175.797C200.028 171.263 195.943 168.322 190.967 166.208C185.775 163.911 174.844 161.986 169.336 160.627C166.674 159.974 168.872 163.848 167.306 166.208C165.94 168.267 164.389 167.045 162.845 168.957C158.159 174.786 153.908 180.97 150.135 187.418C149.231 188.968 148.337 190.882 149.153 192.47C149.472 193.097 150.012 193.56 150.543 194.023C153.392 196.479 156.262 198.955 159.526 200.817C164.522 203.674 170.217 204.987 175.73 206.599C179.554 207.724 183.327 209.011 187.102 210.292C188.491 210.763 189.909 211.235 191.37 211.188C192.933 211.144 192.22 211.466 193.719 211.014C196.634 210.153 202.393 210.131 205.244 209.919C205.406 209.904 205.507 209.885 205.584 209.867C206.179 209.776 206.723 209.782 207.207 209.885C207.207 209.885 207.207 209.885 207.224 209.885C209.744 208.809 209.671 207.896 208.95 203.183Z" fill="#F6A505"/>
<path d="M179.861 157.726C176.031 157.621 170.938 156.555 169.438 160.315C169.393 160.409 169.362 160.519 169.335 160.619C169.27 160.77 169.229 160.933 169.198 161.096C168.456 163.971 169.244 168.152 169.244 170.848C169.229 174.048 169.216 177.251 169.198 180.451C169.215 180.451 169.244 180.436 169.275 180.436C172.585 179.671 177.549 180.151 180.12 180.32C183.601 180.56 187.022 181.173 190.348 182.105C190.378 182.105 190.391 182.105 190.423 182.13C190.438 181.4 190.438 180.65 190.454 179.916C190.423 179.856 190.411 179.809 190.378 179.756C188.172 175.845 182.09 176.761 177.689 175.109C176.386 174.624 175.405 174.655 175.159 173.182C174.686 170.408 178.776 170.255 180.635 170.382C184.383 170.614 187.608 171.378 190.432 172.729C190.463 172.729 190.497 172.745 190.529 172.762C190.529 172.686 190.529 172.621 190.529 172.558C190.543 170.909 190.801 168.824 190.936 166.74C190.95 166.562 190.966 166.386 190.966 166.208C191.072 164.125 191.015 162.093 190.39 160.523C188.895 156.705 183.674 157.831 179.861 157.726Z" fill="#363E6A"/>
<path d="M183.568 197.165C182.481 196.26 181.239 195.526 179.458 195.163C176.297 194.521 172.952 195.192 169.789 194.558C169.742 194.548 169.699 194.548 169.657 194.53C169.669 195.899 169.944 197.264 171.319 197.855C173.24 198.701 177.444 198.25 179.607 198.369C181.043 198.455 182.482 198.528 183.931 198.62C183.931 198.605 183.931 198.578 183.916 198.545C183.781 198.107 183.674 197.619 183.568 197.165Z" fill="#363E6A"/>
<path d="M165.532 188.35C165.656 188.993 166.064 189.513 166.623 189.908C165.504 192.032 166.759 193.828 169.347 194.446C169.438 194.472 169.541 194.486 169.634 194.513C169.68 194.53 169.725 194.53 169.766 194.541C172.926 195.176 176.272 194.504 179.436 195.144C181.219 195.508 182.46 196.242 183.545 197.148C183.649 197.611 183.758 198.083 183.894 198.533C183.908 198.569 183.908 198.594 183.908 198.608C184.468 200.545 185.303 202.397 186.451 204.159C187.344 205.517 188.387 206.783 189.567 207.957C190.25 208.624 192.442 209.946 193.697 211.027C191.034 212.245 187.569 213.595 186.999 216.08C186.952 216.285 186.934 216.5 186.934 216.738C186.934 216.822 186.934 216.917 186.952 217.01C187.103 219.586 189.387 223.891 190.004 225.763C191.236 229.451 192.502 233.133 193.833 236.803C194.258 237.981 194.363 238.235 195.029 240.333L219.829 240.349C219.792 237.057 219.373 235.564 218.865 233.492C217.357 227.176 214.772 220.009 211.47 214.238C210.309 212.245 209.187 210.35 207.216 209.892C207.198 209.892 207.198 209.892 207.198 209.892C206.671 209.79 206.082 209.776 205.413 209.892C205.349 209.892 205.295 209.909 205.232 209.928C203.6 204.16 201.465 198.632 200.481 192.746C201.103 187.869 201.799 183.067 198.333 178.941C196.048 176.212 193.502 174.172 190.512 172.766C190.481 172.748 190.448 172.735 190.417 172.735C187.594 171.38 184.369 170.617 180.622 170.385C178.759 170.267 174.671 170.413 175.145 173.186C175.389 174.658 176.371 174.617 177.674 175.114C182.075 176.763 188.156 175.847 190.362 179.761C190.393 179.813 190.408 179.859 190.44 179.919C190.786 180.577 191.03 181.372 191.133 182.326C190.889 182.257 190.654 182.199 190.407 182.134C190.376 182.109 190.361 182.109 190.331 182.109C187.005 181.181 183.585 180.564 180.103 180.324C177.537 180.155 172.572 179.674 169.257 180.442C169.225 180.442 169.199 180.457 169.182 180.457C168.44 180.629 167.79 180.882 167.261 181.191C165.533 182.246 165.072 184.33 166.098 185.723C165.504 186.402 165.369 187.546 165.532 188.35Z" fill="#FAD1B1"/>
<path d="M145.929 153.225C145.929 153.225 145.929 153.225 139.147 152.722C132.367 152.22 127.827 146.576 127.827 146.576C127.578 149.257 129.626 155.229 127.102 156.132C124.727 156.986 123.56 157.019 123.56 157.019C123.481 157.113 123.404 157.205 123.328 157.295C120.688 160.356 122.383 163.318 125.862 165.601C126.334 165.984 126.877 166.293 127.479 166.541C130.488 168.149 134.349 169.303 137.9 169.782C144.241 170.637 154.459 169.294 159.468 165.315C162.742 162.585 160.845 160.087 160.208 158.285C160.141 158.239 156.708 157.628 154.921 155.596C153.982 154.531 155.835 149.947 156.084 148.625C156.464 148.181 156.828 147.728 157.183 147.268C155.402 149.541 145.929 153.225 145.929 153.225Z" fill="#F0CAAC"/>
<path d="M197.75 240.333C197.75 240.333 193.778 211.052 193.758 211.026C191.096 212.241 187.631 213.595 187.058 216.079C187.013 216.284 186.993 216.499 186.993 216.737C186.993 216.821 186.993 216.917 187.013 217.009C187.162 219.585 189.448 223.89 190.065 225.762C191.296 229.45 192.563 233.132 193.894 236.802C194.21 237.677 194.584 238.9 195.027 240.332H197.75V240.333Z" fill="#F0CAAC"/>
<path d="M211.533 214.237C210.368 212.241 209.246 210.35 207.277 209.891C207.258 209.891 207.258 209.891 207.258 209.891C206.732 209.789 205.911 209.805 205.245 209.919L216.19 240.333L219.828 240.349C219.703 237.663 219.352 235.236 218.927 233.492C217.417 227.175 214.834 220.008 211.533 214.237Z" fill="#F0CAAC"/>
</svg>
