<svg width="286" height="286" viewBox="0 0 286 286" fill="none" xmlns="http://www.w3.org/2000/svg">
<g clip-path="url(#clip0_6080_15281)">
<path d="M0 142.7C0 178.37 13.09 210.98 34.72 235.99L9.88 90.4299C3.5 106.62 0 124.25 0 142.7Z" fill="#CBE0EB"/>
<path d="M144.4 229.2L116.29 64.4801C115.51 59.9301 111.19 56.8701 106.64 57.6401L22.38 72.0201C17.83 72.8001 14.77 77.1201 15.54 81.6701L43.45 245.2C43.81 245.55 44.16 245.89 44.52 246.23L144.4 229.18V229.2Z" fill="#CBE0EB"/>
<path d="M142.7 0C93.36 0 49.88 25.04 24.25 63.1L107.48 48.89C114.61 47.67 121.38 52.47 122.6 59.6L155.01 249.47C156.23 256.6 151.43 263.37 144.3 264.59L87.44 274.29C104.44 281.44 123.11 285.39 142.7 285.39C221.51 285.39 285.4 221.5 285.4 142.69C285.4 63.88 221.51 0 142.7 0Z" fill="#CBE0EB"/>
<path d="M18.66 64.0501C11.53 65.2701 6.73002 72.0401 7.95002 79.1701L9.87002 90.4301C13.68 80.7601 18.52 71.6001 24.24 63.0901L18.65 64.0401L18.66 64.0501Z" fill="#484747"/>
<path d="M155.01 249.48L122.6 59.5999C121.38 52.4699 114.61 47.6699 107.48 48.8899L24.25 63.0999C18.52 71.6099 13.69 80.7599 9.88 90.4399L34.72 236C37.49 239.2 40.4 242.28 43.44 245.22L15.53 81.6799C14.75 77.1299 17.81 72.8099 22.37 72.0299L106.63 57.6499C111.18 56.8699 115.5 59.9299 116.28 64.4899L144.39 229.21L147.42 246.98C148.2 251.53 145.14 255.85 140.58 256.63L74.25 267.95C78.51 270.29 82.91 272.41 87.43 274.31L144.29 264.61C151.42 263.39 156.22 256.62 155 249.49L155.01 249.48Z" fill="#484747"/>
<path d="M74.26 267.94L140.59 256.62C145.14 255.84 148.2 251.52 147.43 246.97L144.4 229.2L44.52 246.25C53.43 254.7 63.42 262.01 74.27 267.95L74.26 267.94Z" fill="#49B5BD"/>
<path d="M273.03 53.9699C269.37 22.4499 240.84 -0.130121 209.33 3.53988C177.81 7.20988 155.24 35.7299 158.9 67.2499C159.03 68.3999 159.21 69.5399 159.41 70.6699L145.42 85.0399C144.28 86.2099 144.95 88.1699 146.56 88.4099L167.54 91.5299C179.01 109.46 200.04 120.3 222.61 117.67C254.13 114 276.7 85.4799 273.04 53.9599L273.03 53.9699Z" fill="#DE2747"/>
<path d="M190.56 83.7399C188.8 83.5899 187.25 82.5999 186.37 81.0399C185.41 79.3599 185.43 77.3499 186.4 75.6799L212.7 30.6599C213.69 28.9599 215.46 27.9599 217.43 27.9999C219.4 28.0299 221.13 29.0899 222.07 30.8199L246.62 76.3199C247.53 78.0099 247.48 79.9999 246.49 81.6499C245.5 83.2899 243.76 84.2699 241.84 84.2499L190.98 83.7699C190.84 83.7699 190.69 83.7699 190.55 83.7499L190.56 83.7399Z" fill="white"/>
<path d="M213.998 46.4486L213.913 66.5984C213.911 67.1783 214.379 67.6504 214.959 67.6528L217.579 67.6638C218.159 67.6662 218.631 67.1981 218.633 66.6182L218.718 46.4684C218.72 45.8885 218.252 45.4164 217.672 45.414L215.052 45.403C214.472 45.4006 214 45.8687 213.998 46.4486Z" fill="#DE2747"/>
<path d="M215.93 75.9298C215.82 75.9298 215.72 75.9098 215.61 75.8898C214.77 75.7298 214.05 75.2598 213.57 74.5598C213.09 73.8598 212.91 73.0098 213.07 72.1698C213.23 71.3298 213.7 70.6098 214.4 70.1298C215.1 69.6498 215.96 69.4698 216.79 69.6298C218.52 69.9598 219.66 71.6298 219.33 73.3498C219.17 74.1798 218.7 74.9098 218 75.3898C217.39 75.8098 216.66 75.9998 215.93 75.9298Z" fill="#DE2747"/>
<path d="M44.6206 77.7975L27.4195 80.7347C24.986 81.1502 23.3502 83.4598 23.7657 85.8933L26.7028 103.094C27.1183 105.528 29.4279 107.164 31.8614 106.748L49.0625 103.811C51.496 103.396 53.1318 101.086 52.7163 98.6524L49.7792 81.4514C49.3636 79.0179 47.0541 77.382 44.6206 77.7975Z" fill="#49B5BD"/>
<path d="M74.6504 72.676L57.4493 75.6131C55.0158 76.0286 53.3799 78.3382 53.7955 80.7717L56.7326 97.9727C57.1481 100.406 59.4577 102.042 61.8912 101.627L79.0922 98.6895C81.5257 98.2739 83.1616 95.9643 82.7461 93.5308L79.809 76.3298C79.3934 73.8963 77.0838 72.2604 74.6504 72.676Z" fill="#49B5BD"/>
<path d="M104.756 67.5314L87.5545 70.4686C85.1211 70.8841 83.4852 73.1937 83.9007 75.6272L86.8378 92.8282C87.2534 95.2617 89.5629 96.8976 91.9964 96.4821L109.197 93.5449C111.631 93.1294 113.267 90.8198 112.851 88.3863L109.914 71.1853C109.499 68.7518 107.189 67.1159 104.756 67.5314Z" fill="#49B5BD"/>
<path d="M50.1236 110.002L32.9225 112.94C30.489 113.355 28.8531 115.665 29.2687 118.098L32.2058 135.299C32.6213 137.733 34.9309 139.369 37.3644 138.953L54.5655 136.016C56.9989 135.6 58.6348 133.291 58.2193 130.857L55.2822 113.656C54.8666 111.223 52.557 109.587 50.1236 110.002Z" fill="#49B5BD"/>
<path d="M55.6266 142.217L38.4256 145.154C35.9921 145.57 34.3562 147.879 34.7717 150.313L37.7089 167.514C38.1244 169.947 40.434 171.583 42.8675 171.168L60.0685 168.23C62.502 167.815 64.1379 165.505 63.7224 163.072L60.7852 145.871C60.3697 143.437 58.0601 141.801 55.6266 142.217Z" fill="#49B5BD"/>
<path d="M110.415 99.1603L64.026 107.081C61.5925 107.497 59.9567 109.806 60.3722 112.24L68.9008 162.187C69.3164 164.621 71.6259 166.256 74.0594 165.841L120.448 157.92C122.882 157.504 124.517 155.195 124.102 152.761L115.573 102.814C115.158 100.381 112.848 98.7448 110.415 99.1603Z" fill="#49B5BD"/>
</g>
<defs>
<clipPath id="clip0_6080_15281">
<rect width="285.4" height="285.4" fill="white"/>
</clipPath>
</defs>
</svg>
