<svg width="286" height="286" viewBox="0 0 286 286" fill="none" xmlns="http://www.w3.org/2000/svg">
<g clip-path="url(#clip0_6080_15029)">
<path d="M191.93 273.27C191.77 273.28 191.74 273.28 191.93 273.27V273.27Z" fill="#F2A100"/>
<path d="M285.4 142.7C285.4 63.89 221.51 0 142.7 0C63.89 0 0 63.89 0 142.7C0 206.23 41.52 260.05 98.9 278.54L86.49 167.24C86.49 167.24 81.67 156.31 92.27 149.2L113.56 143.88L147.56 141.8L166.29 135.54L187.71 139.12C187.71 139.12 198.59 140.07 196.98 147.32L194.09 275.87C247.51 255.24 285.4 203.41 285.4 142.71V142.7Z" fill="#CBE0EB"/>
<path d="M187.71 139.1L166.29 135.53L147.56 141.79L113.56 143.87L92.27 149.19C81.67 156.3 86.49 167.23 86.49 167.23L98.9 278.53C112.7 282.98 127.42 285.39 142.69 285.39C160.81 285.39 178.13 282.01 194.08 275.85L196.97 147.3C198.58 140.06 187.7 139.1 187.7 139.1H187.71Z" fill="#A68FB0"/>
<path d="M123.16 114.55C122.17 115.55 88.04 123.23 85.53 75.81C85.53 75.81 80.21 44.33 106.78 33.43C106.78 33.43 143.57 16.63 168.04 38.42C168.04 38.42 195.55 60.9 165.84 86.63L123.16 114.55Z" fill="#E55B25"/>
<path d="M112.19 39.7499C112.19 39.7499 115.18 24.1499 103.77 22.7799C103.77 22.7799 68.3 19.3199 67.91 55.6099C67.91 55.6099 67.24 72.0299 76.95 73.6299C76.95 73.6299 91.27 76.1399 102.02 63.3699C102.02 63.3699 110.59 54.0599 112.18 39.7499H112.19Z" fill="#E55B25"/>
<path d="M122.67 93.0701L123.83 144.24L160.17 142.3L155.46 93.6201L122.68 93.0701H122.67Z" fill="#F1ADA0"/>
<path d="M134.65 116.38L158.43 131.56L158.05 112.14L134.65 116.37V116.38Z" fill="#F1ADA0"/>
<path d="M127.66 121.82L160.52 117.43C168.94 116.28 171.89 111.91 173.26 109.16C176.03 103.64 174.45 96.0999 174.45 96.0999L166.29 57.3599C166.29 57.3599 161.65 34.5199 125.71 49.1199C125.71 49.1199 105.4 42.8499 109.55 66.4699L118.66 101.19L127.65 121.81L127.66 121.82Z" fill="#F1ADA0"/>
<path d="M98.3199 273.29L96.4399 256.75C97.0599 241.77 99.2099 209.65 100.19 204.27L103.56 222.34L98.3299 273.28L98.3199 273.29Z" fill="#B15D90"/>
<path d="M98.3199 273.29L96.4399 256.75L115.05 207.77L114.08 229.03C114.08 229.03 113.37 247.2 110.91 254.63C106.39 268.27 98.3099 273.29 98.3099 273.29H98.3199Z" fill="#8F7C9A"/>
<path d="M67.38 225.77L69.78 243.08C74.57 269.98 90.97 268.25 90.97 268.25C105.03 268.25 108.68 244.43 108.68 244.43L111.14 221.29L67.39 225.76L67.38 225.77Z" fill="#A68FB0"/>
<path d="M116.96 186.56L111.69 182.05L109.4 203.85L116.96 186.56Z" fill="#D3CEC9"/>
<path d="M78.77 136.95L83.36 113.61C96.18 114.33 115.79 177.19 115.79 177.19C115.79 177.19 112.51 212.98 91.16 218.34C83.86 220.18 81.4 218.69 81.4 218.69C74.51 218.85 60.96 213.47 54.61 199.46" fill="#F1ADA0"/>
<path d="M95.33 205.97L45.12 209.73C39.93 210.12 35.4 206.22 35.01 201.03L26.27 87.7299C25.88 82.5399 29.78 78.0099 34.97 77.6199L85.18 73.8599C90.37 73.4699 94.9 77.3699 95.29 82.5599L104.03 195.86C104.42 201.05 100.52 205.58 95.33 205.97Z" fill="#484747"/>
<path d="M44.47 204.71C42.16 204.75 40.22 202.97 40.04 200.66L31.3 87.3501C31.21 86.1901 31.59 85.0701 32.35 84.1801C33.11 83.2901 34.17 82.7601 35.34 82.6701L85.55 78.9101C85.64 78.9101 85.72 78.9001 85.82 78.9001C88.13 78.8601 90.07 80.6401 90.25 82.9501L98.99 196.26C99.17 198.66 97.35 200.76 94.95 200.94L44.74 204.7C44.65 204.7 44.57 204.71 44.48 204.71H44.47Z" fill="#E6E1DE"/>
<path d="M41.97 174.96L37.44 128.96C36.69 119.35 27.86 119.24 27.86 119.24C19.17 119.4 18.97 129.06 18.97 129.06L19.09 178.85C19.09 178.85 18.41 192.03 31.92 191.77C44.92 191.52 41.98 174.97 41.98 174.97L41.97 174.96Z" fill="#F1ADA0"/>
<path d="M93.2 114.92C98.16 114.92 102.18 110.9 102.18 105.94C102.18 100.98 98.16 96.96 93.2 96.96C88.24 96.96 84.22 100.98 84.22 105.94C84.22 110.9 88.24 114.92 93.2 114.92Z" fill="#F1ADA0"/>
<path d="M94.27 136.39L84.87 109.29L101.53 102.59L111.69 127.84L94.27 136.39Z" fill="#F1ADA0"/>
<path d="M62.88 215.9L65.59 211.34L68.3 222.77L62.89 215.9H62.88Z" fill="#D3CEC9"/>
<path d="M94.2699 136.39C94.2699 136.39 82.0599 165.14 104.58 184.89L112.36 187.69C118.18 177.24 116.81 157.73 116.81 157.73L114.63 140.11C114.63 140.11 113.72 132.93 111.64 127.77L94.2499 136.39H94.2699Z" fill="#F1ADA0"/>
<path d="M64.24 210.34L65.75 224.96H76.87L80.96 213.12L64.24 210.34Z" fill="#F1ADA0"/>
<path d="M62.88 215.9L67.65 238.17C67.65 238.17 90.08 250.78 112.65 228.87L116.95 186.55C116.95 186.55 100.08 226.89 62.87 215.89L62.88 215.9Z" fill="white"/>
<path d="M166.29 135.54L184.92 130.28C184.92 130.28 198.79 126.55 211.91 138.33C211.91 138.33 256.16 189.65 260.37 195.4C267.51 205.16 260.04 213.68 260.04 213.68L236.23 240.96L226.6 216.73L232.06 210.7L192.57 176.32L166.3 135.54H166.29Z" fill="#A68FB0"/>
<path d="M217.87 227.03L200.39 239.74C200.39 239.74 196.44 242.36 195.04 246.27C195.04 246.27 193.55 248.41 193.76 255.24L194.58 275.46C194.58 275.46 194.33 281.11 200.02 280.24C200.02 280.24 204.54 279.85 204.25 274.31L204.04 265.63C204.04 265.63 204.02 262.69 206.04 261.07C206.04 261.07 208.1 258.65 212.12 258.25C212.12 258.25 219.57 257.62 223.9 248.06L229.78 243.04L219.03 227.22L217.87 227.03Z" fill="#F1ADA0"/>
<path d="M226.6 216.71L216.23 227.08L226.07 251.87L237.62 240.46L226.6 216.7V216.71Z" fill="white"/>
<path d="M114.14 110.11C119.49 110.11 123.82 105.77 123.82 100.43C123.82 95.09 119.48 90.75 114.14 90.75C108.8 90.75 104.46 95.09 104.46 100.43C104.46 105.77 108.8 110.11 114.14 110.11Z" fill="#F1ADA0"/>
<path d="M136.91 108.18C136.91 108.18 139.95 102.3 146.46 102.21C152.97 102.12 156.16 107.21 156.16 107.21" stroke="#4C3938" stroke-width="2" stroke-miterlimit="10" stroke-linecap="round"/>
<path d="M47.62 155.53C46.4 155.53 45.27 154.94 44.57 153.92C43.81 152.82 43.7 151.44 44.27 150.23L59.7 117.67C60.28 116.44 61.44 115.65 62.8 115.56C64.16 115.46 65.41 116.09 66.16 117.23L85.77 147.1C86.5 148.21 86.58 149.58 86 150.77C85.42 151.96 84.28 152.73 82.95 152.84L47.91 155.54C47.81 155.54 47.71 155.55 47.61 155.55L47.62 155.53Z" fill="#DE2747"/>
<path d="M63.9856 127.525L62.1917 127.673C61.7898 127.706 61.4909 128.058 61.5239 128.46L62.6645 142.333C62.6975 142.735 63.0501 143.034 63.4519 143.001L65.2458 142.854C65.6476 142.821 65.9466 142.468 65.9136 142.066L64.773 128.193C64.7399 127.791 64.3874 127.492 63.9856 127.525Z" fill="white"/>
<path d="M64.62 148.64C64.55 148.64 64.47 148.64 64.4 148.63C63.81 148.57 63.29 148.29 62.91 147.83C62.53 147.37 62.37 146.8 62.42 146.22C62.48 145.64 62.76 145.11 63.22 144.74C63.68 144.37 64.25 144.19 64.83 144.25C66.04 144.37 66.92 145.45 66.8 146.66C66.74 147.24 66.46 147.77 66 148.14C65.6 148.46 65.12 148.64 64.61 148.64H64.62Z" fill="white"/>
<path d="M101.54 54.2399C101.54 54.2399 103.03 78.1899 144.4 67.8999C144.4 67.8999 164.64 60.1899 169.05 55.3999L149.89 35.3899L93.96 43.8599L95 57.7299L101.54 54.2399Z" fill="#E55B25"/>
<path d="M162.64 146.44H123.48V128.76H158.86L162.64 146.44Z" fill="#A68FB0"/>
<path d="M136.46 119.18L158.43 123.65L158.16 117.84L136.46 119.18Z" fill="#E4A295"/>
</g>
<defs>
<clipPath id="clip0_6080_15029">
<rect width="285.4" height="285.4" fill="white"/>
</clipPath>
</defs>
</svg>
