<svg width="343" height="288" viewBox="0 0 343 288" fill="none" xmlns="http://www.w3.org/2000/svg">
<path d="M122.332 175.018C120.247 175.704 118.971 177.951 118.842 180.144C118.712 182.336 119.516 184.474 120.473 186.451C121.128 187.802 122.137 189.294 123.638 189.316C124.213 189.324 124.766 189.102 125.268 188.824C127.352 187.659 128.765 185.475 130.946 184.501C131.6 184.212 132.334 184.015 132.803 183.48C133.188 183.039 133.329 182.437 133.413 181.858C133.648 180.192 133.502 178.473 132.99 176.867C132.76 176.16 132.449 175.449 131.911 174.935C130.55 173.628 129.165 174.584 127.635 174.777C125.875 174.995 124.061 174.448 122.332 175.018Z" fill="white"/>
<path d="M205.1 193.705C205.326 194.871 205.716 196.087 206.624 196.855C207.96 197.981 210.05 197.76 211.518 196.813C212.988 195.862 213.979 194.35 214.928 192.883C215.607 191.83 216.286 190.776 216.966 189.723C217.55 188.814 218.164 187.776 217.929 186.722C217.791 186.107 217.387 185.594 216.989 185.104C215.655 183.459 214.322 181.81 212.99 180.163C212.573 179.648 212.113 179.104 211.473 178.923C210.922 178.766 210.333 178.907 209.785 179.067C208.224 179.511 206.696 180.068 205.214 180.73C203.152 181.65 202.59 181.427 203.154 183.466C204.042 186.684 204.465 190.445 205.1 193.705Z" fill="white"/>
<path d="M205.746 194.276C206.028 194.476 206.393 194.513 206.744 194.517C210.092 194.543 213.161 191.51 213.176 188.16C213.178 187.566 213.1 186.962 213.242 186.387C213.57 185.046 215.027 184.247 216.406 184.178C217.785 184.107 219.12 184.588 220.444 184.975C225.661 186.495 231.291 186.585 236.552 185.227C238.228 184.794 240.513 184.481 241.226 186.057C241.813 187.348 240.713 188.749 239.66 189.699C231.038 197.455 219.793 201.49 208.857 205.348C207.937 205.673 206.768 205.943 206.106 205.225C205.884 204.987 205.764 204.671 205.655 204.364C204.655 201.59 203.911 198.724 203.427 195.815C203.284 194.942 202.699 192.011 203.882 191.61C205.292 191.133 204.999 193.743 205.746 194.276Z" fill="#96714C"/>
<path d="M123.026 175.665C122.399 176.018 122.109 176.761 121.94 177.462C121.278 180.211 121.837 183.232 123.443 185.56C124.238 184.529 125.827 184.215 126.955 184.863C128.084 185.511 128.612 187.041 128.124 188.249C127.864 188.888 127.373 189.406 127.061 190.022C126.689 190.763 126.593 191.613 126.504 192.44C126.128 195.894 125.686 199.352 125.312 202.805C125.194 203.87 124.961 205.511 124.198 206.262C123.104 207.337 121.11 206.792 119.758 205.827C117.421 204.155 116.197 200.691 116.333 197.817C116.432 195.729 117.13 193.166 117.334 191.083C117.899 185.318 114.154 184.671 114.936 175.401C114.968 175.042 115.063 174.667 115.318 174.409C115.583 174.136 115.986 174.057 116.364 174.002C118.621 173.667 120.525 172.958 122.778 173.325C123.421 173.432 125.136 173.465 125.273 174.272C125.453 175.318 123.602 175.339 123.026 175.665Z" fill="#96714C"/>
<path d="M141.411 115.955C142.87 118.539 145.128 120.609 147.646 122.177C149.872 123.563 152.57 124.9 153.171 127.45C153.414 128.482 153.255 129.557 153.221 130.616C153.094 134.341 154.473 137.924 155.436 141.524C156.985 147.308 157.481 153.371 156.895 159.328C156.827 160.02 156.723 160.759 156.249 161.267C155.69 161.861 154.798 161.961 153.986 162.046C150.28 162.444 146.594 163.392 143.337 165.205C138.43 167.94 134.27 172.676 128.666 173.094C128.649 177.893 129.856 182.692 132.14 186.913C136.724 185.59 142.312 186.186 146.529 183.539C148.064 182.576 149.423 181.339 151.039 180.516C154.361 178.826 158.308 179.094 161.935 178.234C166.162 177.228 169.982 174.594 172.427 170.999C173.772 169.018 174.72 166.754 176.312 164.959C176.795 164.414 177.34 163.904 177.655 163.247C177.914 162.71 177.998 162.107 178.075 161.514C179.034 154.163 179.374 144.369 179.259 136.955C182.308 138.862 186.448 138.85 188.421 141.616C190.351 144.321 190.199 147.919 190.77 151.193C191.372 154.647 192.844 157.893 193.568 161.323C194.072 163.728 194.202 166.193 194.538 168.627C195.299 174.223 197.119 179.616 198.928 184.963C202.271 183.781 205.613 182.597 208.957 181.412C210.13 180.996 213.172 180.572 213.78 179.486C214.336 178.479 212.4 177.171 212.226 176.036C209.963 161.54 208.424 146.932 207.618 132.283C207.532 130.795 207.451 129.274 206.89 127.894C206.445 126.811 205.725 125.87 204.981 124.969C201.119 120.314 196.356 116.498 191.501 112.887C186.737 109.341 181.845 105.962 176.844 102.758C175.617 101.97 174.32 101.127 173.694 99.8107C173.412 99.2151 173.269 98.5337 172.821 98.0525C172.479 97.6878 171.996 97.4875 171.524 97.3118C162.838 94.0733 153.348 95.6599 144.337 96.0134C142.214 96.0951 141.41 95.8581 140.61 97.8594C139.894 99.6564 139.746 102.05 139.543 103.956C139.107 108.038 139.355 112.306 141.411 115.955Z" fill="#ED766A"/>
<path d="M95.7059 57.12C95.7794 57.2416 95.8714 57.356 95.9122 57.4929C96.0256 57.8698 95.7335 58.3408 95.9899 58.6412C96.0685 58.7321 96.185 58.7821 96.278 58.8598C96.8858 59.3726 96.1421 60.5955 96.7653 61.0869C97.034 61.2963 97.4416 61.2534 97.6939 61.4751C97.9994 61.7417 97.9289 62.2311 98.0954 62.5999C98.3171 63.0872 98.9158 63.2803 99.4511 63.2946C100.33 63.3181 101.182 63.0085 101.992 62.6612C102.452 62.464 102.931 62.2341 103.215 61.8194C103.366 61.6028 103.466 61.33 103.698 61.2013C103.902 61.0899 104.154 61.1237 104.383 61.1747C104.843 61.28 105.297 61.4434 105.768 61.4598C106.241 61.4761 106.759 61.3086 106.997 60.8999C107.145 60.6476 107.164 60.3411 107.16 60.0469C107.155 59.8221 107.134 59.5902 107.024 59.3941C106.938 59.2449 106.809 59.1285 106.701 58.9957C105.895 57.9832 106.678 56.3476 105.983 55.2555C105.708 54.8234 105.241 54.5537 104.795 54.3003C104.219 53.9744 103.643 53.6485 103.064 53.3237C102.748 53.1459 102.433 52.9671 102.086 52.864C101.77 52.77 101.441 52.7393 101.116 52.7107C99.8894 52.6004 98.1639 52.0487 97.1668 52.9978C96.1922 53.9234 94.8569 55.7357 95.7059 57.12Z" fill="#F8BCA3"/>
<path d="M114.716 250.771C134.515 250.771 150.566 245.542 150.566 239.092C150.566 232.642 134.515 227.413 114.716 227.413C94.916 227.413 78.8652 232.642 78.8652 239.092C78.8652 245.542 94.916 250.771 114.716 250.771Z" fill="#C1BEBE"/>
<path d="M30.7861 234.041C45.9647 234.041 58.2694 230.032 58.2694 225.086C58.2694 220.141 45.9647 216.132 30.7861 216.132C15.6075 216.132 3.30273 220.141 3.30273 225.086C3.30273 230.032 15.6075 234.041 30.7861 234.041Z" fill="#C1BEBE"/>
<path d="M223.73 274.478C251.25 274.478 273.558 267.211 273.558 258.247C273.558 249.283 251.25 242.016 223.73 242.016C196.211 242.016 173.902 249.283 173.902 258.247C173.902 267.211 196.211 274.478 223.73 274.478Z" fill="#C1BEBE"/>
<path d="M171.867 37.2413C170.983 37.511 170.157 37.9493 169.269 38.2088C167.356 38.7666 165.314 38.4591 163.348 38.1454C163.807 41.9581 164.255 45.7799 164.341 49.6201C164.493 56.5773 163.446 63.5089 163.362 70.4681C163.338 72.399 163.393 74.3472 163.847 76.2249C165.654 83.6837 173.255 88.4383 175.898 95.6416C176.753 97.9719 176.531 103.85 178.271 105.618C178.967 106.324 179.829 106.831 180.684 107.333C181.102 107.577 181.545 107.831 182.031 107.856C182.538 107.881 183.023 107.654 183.462 107.397C185.736 106.063 187.378 103.825 188.412 101.397C189.445 98.9721 190.518 93.1182 190.893 90.508C192.237 81.1726 192.381 71.6655 191.323 62.2932C191.104 60.344 190.844 58.2885 191.618 56.4843C191.824 56.0042 193.494 46.3929 193.436 45.8729C193.299 44.6337 189.74 50.5641 188.498 50.4507C185.713 50.1994 183.633 51.6675 181.772 49.5813C179.915 47.4962 179.938 44.6684 179.179 41.9795C178.945 41.1408 178.676 40.5687 178.707 39.6932C178.727 39.1068 179.211 37.654 178.882 37.2628C178.521 36.8357 175.541 36.9215 174.995 36.9001C173.94 36.8561 172.877 36.9328 171.867 37.2413Z" fill="#4ABBC2"/>
<path d="M96.4746 53.4629C96.681 52.5087 97.3389 51.7129 98.0693 51.0641C98.7988 50.4164 99.6253 49.877 100.326 49.1987C100.657 48.8789 100.957 48.5285 101.304 48.2241C101.67 47.9012 102.079 47.6325 102.449 47.3189C104.127 45.905 105.011 43.6217 106.924 42.547C107.975 41.9555 109.238 41.7951 110.238 41.1239C113.303 39.0694 116.662 37.2795 120.345 37.0895C121.106 37.0507 121.871 37.0875 122.623 36.9639C123.172 36.875 123.706 36.7003 124.254 36.6002C126.233 36.2355 128.366 36.8178 130.235 36.07C130.636 35.9096 131.015 35.6889 131.436 35.5888C131.971 35.4611 132.53 35.5346 133.077 35.6041C136.578 36.0465 140.109 36.2498 143.638 36.2109C143.8 36.2089 143.886 36.1956 144.045 36.1966C144.002 35.9351 144.224 35.694 144.473 35.6062C144.724 35.5193 144.995 35.5428 145.26 35.5377C145.941 35.5265 146.603 35.3242 147.263 35.1607C148.834 34.7735 150.448 34.606 152.058 34.4395C154.726 34.1626 157.343 33.5731 159.993 33.9808C160.61 34.0748 161.227 34.2014 161.802 34.4476C162.355 34.6826 162.854 35.0238 163.399 35.2782C164.805 35.9351 166.408 35.977 167.96 36.0087C168.521 36.0199 169.086 36.0311 169.634 35.9188C170.371 35.7686 171.06 35.3937 171.585 34.8594C171.953 34.4865 172.246 34.0349 172.68 33.7407C173.151 33.4199 173.734 33.3229 174.298 33.233C176.397 32.8989 178.577 32.5689 180.62 33.1594C181.823 33.5078 182.913 34.1585 183.97 34.8287C184.385 35.0923 184.807 35.3702 185.094 35.7717C187.052 38.5392 191.395 38.8467 193.631 41.3946C193.794 41.5805 193.954 41.7787 194.018 42.0168C194.071 42.2088 194.055 42.4131 194.098 42.6072C194.196 43.023 194.555 43.3254 194.931 43.5287C195.302 43.732 195.716 43.87 196.06 44.1203C196.639 44.5432 196.969 45.2379 197.517 45.7027C197.616 45.7875 197.725 45.8682 197.788 45.9847C197.833 46.0736 197.845 46.1768 197.878 46.2718C198.047 46.7683 198.667 46.9103 199.187 46.9746L199.932 46.9072C201.54 47.5631 203.072 48.3967 204.501 49.3907C204.83 49.6206 205.16 49.8658 205.386 50.1968C205.876 50.9037 205.885 51.9713 206.627 52.4025C207.263 52.7733 208.241 52.5189 208.664 53.1247C208.827 53.3607 208.853 53.6784 209.039 53.896C209.318 54.2127 209.804 54.1903 210.223 54.223C211.205 54.3026 212.084 54.8329 213.004 55.1822C213.924 55.5337 215.051 55.6767 215.822 55.0648C216.258 54.7174 216.5 54.1913 216.766 53.7009C217.255 52.7958 217.89 51.9437 218.745 51.3696C219.6 50.7944 220.698 50.5258 221.683 50.821C222.229 50.9834 222.712 51.3052 223.174 51.6393C224.191 52.38 225.15 53.2085 226.03 54.1126C226.161 54.2454 226.245 54.5376 226.059 54.5601C226.555 55.6736 227.579 56.6074 228.747 56.967C229.377 57.1601 230.043 57.2081 230.68 57.3879C231.415 57.5963 232.09 57.9794 232.723 58.4034C234.19 59.3831 235.506 60.6172 236.43 62.1169C237.355 63.6167 237.876 65.3943 237.731 67.1504C237.655 68.0637 237.406 68.9597 237.404 69.8761C237.402 70.4308 237.487 71.0039 237.313 71.53C237.137 72.0572 236.722 72.4669 236.292 72.8183C234.844 74.0044 233.099 74.7645 231.38 75.5113C231.042 75.6584 230.697 75.8065 230.335 75.8637C229.897 75.9342 229.449 75.8709 229.007 75.9025C228.141 75.9659 227.342 76.3868 226.495 76.5942C225.283 76.8904 224.008 76.7362 222.771 76.9221C221.298 77.1438 219.921 77.8426 218.44 78.0071C216.975 78.1705 215.46 77.8038 214.033 78.1766C212.793 78.5005 211.329 78.4269 210.09 78.0847C209.742 77.9866 209.401 77.8548 209.058 77.7435C207.843 77.3553 206.562 77.2368 205.29 77.1366C203.158 76.9722 201.022 76.8598 198.883 76.7985C197.422 79.7131 195.969 82.5869 195.343 85.7866C195.13 86.8603 195.016 87.9494 194.91 89.0384C194.082 97.6077 193.73 106.219 193.851 114.825C193.854 115.246 193.833 115.733 193.5 115.989C193.212 116.212 192.806 116.172 192.451 116.11C189.312 115.567 186.366 114.254 183.457 112.952C183.265 112.869 183.063 112.773 182.956 112.595C182.803 112.339 182.893 112.015 182.857 111.721C182.775 111.052 182.09 110.663 181.614 110.186C180.314 108.889 180.492 106.765 180.841 104.963C181.877 99.6335 183.788 94.1689 187.912 90.6382C188.448 90.1795 189.038 89.7341 189.344 89.0987C190.285 87.1525 189.204 84.7732 189.097 82.6145C188.905 78.6078 189.528 74.5949 189.379 70.5871C189.254 67.2045 188.587 63.8373 188.818 60.4609C188.883 59.4771 188.401 58.5566 188.188 57.5953C187.973 56.635 187.947 55.5265 188.583 54.7757C188.77 54.554 189.003 54.3772 189.24 54.2076C189.991 53.6631 190.766 53.1564 191.566 52.6885C192.213 51.4615 192.148 50.0027 191.839 48.6521C191.529 47.3005 190.852 46.0562 190.046 44.9273C187.974 42.0229 184.995 39.7743 181.634 38.578C180.336 38.1162 178.989 37.8088 177.643 37.5207C176.215 37.2142 174.694 36.9342 173.325 37.444C171.958 37.9528 170.895 39.5649 171.505 40.8909C171.773 41.4774 172.311 41.9023 172.622 42.4683C173.086 43.3132 172.988 44.3705 172.635 45.2675C172.282 46.1645 171.702 46.9491 171.193 47.7684C170.204 49.3683 169.488 51.1193 168.779 52.8611C168.314 53.9972 167.846 55.1445 167.638 56.354C167.442 57.4747 167.47 58.623 167.5 59.7601C167.582 63.1059 167.634 66.4853 166.961 69.7637C166.496 72.0408 166.244 74.5908 167.962 76.4716C168.744 77.3287 169.898 77.7139 170.938 78.2267C174.361 79.9073 176.752 83.0916 179.015 86.1605C179.941 87.4191 180.891 88.7237 181.255 90.2439C181.519 91.3278 181.467 92.4557 181.404 93.5672C181.188 97.4013 180.777 101.399 178.696 104.623C178.154 105.462 178.447 106.406 178.38 107.4C178.209 110.041 178.037 112.68 177.863 115.322C175.879 115.044 173.891 114.765 171.907 114.487C171.218 114.39 170.521 114.294 169.833 114.373C169.057 114.466 168.324 114.778 167.561 114.945C166.773 115.12 165.96 115.137 165.154 115.158C162.786 115.213 160.418 115.268 158.049 115.322C156.287 115.364 154.282 115.305 153.115 113.985C152.676 113.49 152.416 112.869 152.081 112.298C151.369 111.074 150.336 110.072 149.315 109.09C148.801 108.592 148.264 108.08 147.596 107.822C146.835 107.527 145.99 107.59 145.176 107.657C143.591 107.791 141.855 107.992 140.759 109.147C139.859 110.095 139.47 111.61 138.251 112.08C138.399 107.533 138.442 102.779 138.594 98.2319C138.632 97.011 138.671 95.7872 138.8 94.5714C139.219 90.6321 140.564 86.7868 140.486 82.8229C140.436 80.2893 140.451 77.7946 140.599 75.264C140.661 74.2036 140.724 73.137 140.922 72.094C141.092 71.2082 141.362 70.3419 141.479 69.447C141.573 68.7472 141.573 68.0412 141.584 67.3353C141.623 65.1685 141.776 63.0006 142.048 60.8501C139.571 59.6303 137.059 58.2583 135.458 56.0057C135.119 55.5265 134.82 55.0004 134.343 54.6561C133.619 54.1341 132.656 54.1443 131.766 54.1279C130.249 54.1014 128.65 53.9083 127.447 52.9837C126.319 52.1154 125.441 50.586 124.018 50.6453C122.349 50.7148 121.625 52.902 120.094 53.5701C119.03 54.038 117.644 53.7244 116.78 54.5029C116.539 54.7195 116.363 55.0065 116.105 55.2037C115.799 55.4376 115.409 55.5224 115.028 55.5745C113.196 55.83 111.336 55.4611 109.484 55.4805C109.069 55.4846 108.641 55.5112 108.259 55.6736C107.332 56.0711 106.905 57.1345 106.173 57.8282C105.108 58.8416 103.507 58.9816 102.041 59.0674C101.74 59.0848 101.427 59.1001 101.152 58.9806C100.79 58.8222 100.561 58.4647 100.35 58.1296C99.234 56.3877 98.0132 54.8472 96.4746 53.4629Z" fill="#94C3E0"/>
<path d="M225.405 55.597C224.566 54.8676 224.191 53.7479 223.507 52.8755C222.166 51.1683 219.832 50.6136 217.669 50.4583C217.039 50.4134 216.235 50.5002 216.032 51.1009C215.978 51.2562 215.974 51.434 215.879 51.5668C215.588 51.9662 214.854 51.5719 214.494 51.9111C214.267 52.1235 214.326 52.5005 214.177 52.7713C213.843 53.3791 212.767 53.1023 212.368 53.6693C211.996 54.1944 212.517 54.982 212.207 55.5449C212.022 55.8821 211.609 56.0057 211.295 56.2304C210.674 56.6738 210.475 57.6137 210.862 58.2706C211.093 58.6629 211.489 58.9479 211.665 59.3678C211.854 59.8204 211.747 60.3444 211.856 60.8226C212.093 61.8861 213.282 62.4367 214.358 62.6104C214.656 62.6574 214.982 62.6982 215.205 62.9087C215.587 63.2693 215.45 63.9068 215.643 64.3972C215.962 65.2073 217.059 65.3759 217.906 65.1777C218.921 64.9437 219.853 64.3655 220.515 63.5615C220.822 63.1917 221.106 62.7503 221.564 62.6094C222.141 62.4295 222.751 62.8167 223.139 63.2816C223.528 63.7485 223.804 64.3134 224.271 64.7016C225.524 64.2163 226.398 63.0793 227.13 61.9504C227.84 60.8512 228.614 59.3034 228.022 57.9866C227.514 56.8516 226.285 56.3622 225.405 55.597Z" fill="#F8BCA3"/>
<path d="M181.345 31.2671C181.611 28.7826 181.349 26.2653 181.611 23.7798C181.867 21.2942 182.761 18.7044 184.781 17.2312C187.313 15.3811 190.766 15.7949 193.894 15.5415C195.277 15.4291 196.684 15.1717 198.034 15.4955C198.864 15.6937 199.628 16.1034 200.379 16.508C201.733 17.2394 203.089 17.9709 204.443 18.7013C205.253 19.1376 206.081 19.5881 206.694 20.2767C207.378 21.0449 207.734 22.0451 208.075 23.0176C208.624 24.5909 209.181 26.2112 209.109 27.8764C209.002 30.3477 207.542 32.5278 206.132 34.5598C205.486 35.4936 204.732 36.4988 203.62 36.7277C203.717 37.6328 203.814 38.5369 203.911 39.4431C203.971 39.9897 204.025 40.5618 203.823 41.0715C203.62 41.5813 203.069 42.0002 202.536 41.8582C202.247 41.7805 201.931 41.5517 201.678 41.7172C201.528 41.8163 201.486 42.0135 201.447 42.1892C201.215 43.3222 200.745 44.4398 199.904 45.2346C198.869 46.2133 199.904 45.8047 199.004 46.906C196.171 50.3713 193.188 45.9385 192.249 47.0102C191.312 48.0818 190.604 51.4276 189.182 51.4337C187.884 51.4399 187.314 51.8352 186.027 51.6891C184.925 51.5645 183.746 51.918 182.725 51.4756C181.814 51.0782 181.273 50.1434 180.843 49.2444C179.337 46.0948 178.457 42.652 178.257 39.1673C178.157 37.4407 179.177 37.1016 179.999 35.702C180.784 34.3596 181.18 32.8047 181.345 31.2671Z" fill="#F8BCA3"/>
<path d="M182.287 31.0389C182.418 29.815 182.586 28.5145 183.366 27.5582C184.253 26.4672 185.906 26.0789 187.185 26.6623C187.48 26.7951 187.758 26.9769 187.961 27.2282C188.265 27.6073 188.373 28.1048 188.433 28.587C188.627 30.1286 189.858 30.715 190.369 29.8405C190.649 29.3583 191.024 28.6943 191.356 28.2458C191.529 28.0149 191.774 27.8514 192.028 27.7156C192.9 27.2497 193.896 27.073 194.82 26.7154C195.742 26.3588 196.656 25.7367 196.942 24.7876C197.075 24.3402 197.086 23.8018 197.454 23.5147C197.674 23.3431 197.971 23.3114 198.25 23.2869C199.293 23.1949 200.382 23.1101 201.35 23.5065C202.162 23.8396 205.692 26.3813 205.874 26.7256C206.142 27.2334 208.41 27.5215 208.851 27.2231C210.658 25.9982 209.603 21.8249 209.511 21.4378C209.36 20.8054 208.901 20.2987 208.437 19.8471C203.717 15.254 197.455 11.8796 191.035 13.3476C190.168 13.5458 187.855 14.8841 187.088 15.3377C186.379 15.7566 185.778 16.3266 185.125 16.8272C183.934 17.7446 183.136 18.7908 182.356 20.076C181.667 21.2099 181.571 22.5942 181.493 23.9203C181.31 27.121 181.125 30.3227 180.938 33.5244C180.919 33.8708 180.914 34.2569 181.14 34.5174C181.779 35.2438 181.908 34.213 181.973 33.8881C182.162 32.9656 182.185 31.9736 182.287 31.0389Z" fill="#683B16"/>
</svg>
