<svg width="286" height="286" viewBox="0 0 286 286" fill="none" xmlns="http://www.w3.org/2000/svg">
<g clip-path="url(#clip0_6125_2959)">
<path d="M285.4 142.7C285.4 63.89 221.51 0 142.7 0C63.89 0 0 63.89 0 142.7C0 199.83 33.58 249.11 82.07 271.9L64.82 168.58C64.82 168.58 66.53 160.8 77.23 157.08L93.89 151.2L120.73 149.24L137.72 141.73L158.1 143.2C158.1 143.2 161.71 228.14 160.84 235.06L157.71 284.62C229.47 277.12 285.4 216.45 285.4 142.71V142.7Z" fill="#CBE0EB"/>
<path d="M158.09 143.19L137.71 141.72L120.72 149.23L93.8801 151.19L77.2201 157.07C66.5101 160.8 64.8101 168.57 64.8101 168.57L82.0601 271.89C100.46 280.54 121.01 285.39 142.69 285.39C147.76 285.39 152.76 285.12 157.7 284.61L160.83 235.05C161.7 228.13 158.09 143.19 158.09 143.19Z" fill="#00949D"/>
<path d="M97.4601 124.86C96.4201 125.9 72.6201 132.53 70.0001 83.12C70.0001 83.12 64.4601 50.32 92.1401 38.97C92.1401 38.97 130.47 21.46 155.96 44.17C155.96 44.17 184.62 67.59 153.67 94.4L97.4601 124.86Z" fill="#E55B25"/>
<path d="M100.01 106.04L93.6299 153.07L125.27 157.07L132.98 108.09L100.01 106.04Z" fill="#F1ADA0"/>
<path d="M157.12 232.98L194.3 197.16L199.17 211.18L155.85 265.13L157.12 232.98Z" fill="#F1ADA0"/>
<path d="M105.75 125.22L128.23 138.59L130.55 124.46L105.75 125.22Z" fill="#E4A295"/>
<path d="M137.71 141.72L148.07 137.17C148.07 137.17 166.47 131.07 167.36 147.38L164.04 213.39C164.04 213.39 153.68 262.17 151.44 249.73L137.71 141.71V141.72Z" fill="#00949D"/>
<path d="M101.83 126.99L136.27 131.55C144.13 132.36 147.78 129.02 149.64 126.81C153.38 122.38 153.66 115.15 153.66 115.15L153.2 78.65C153.2 78.65 152.23 54.78 116.49 60.17C116.49 60.17 91.37 48.46 89.78 70.95L98.37 106.17L101.83 126.99Z" fill="#F1ADA0"/>
<path d="M98.6699 111.86L100.49 122.18L109.21 117.17L107.58 104.37L98.6699 111.86Z" fill="#F1ADA0"/>
<path d="M102.8 72.48L101.43 99.69L91.57 97.18C91.57 97.18 87.77 80.25 89.97 65.2L102.8 72.49V72.48Z" fill="#E55B25"/>
<path d="M93.2799 113.97C98.3112 113.97 102.39 109.891 102.39 104.86C102.39 99.8287 98.3112 95.75 93.2799 95.75C88.2486 95.75 84.1699 99.8287 84.1699 104.86C84.1699 109.891 88.2486 113.97 93.2799 113.97Z" fill="#F1ADA0"/>
<path d="M170.41 221.34L177.23 238.5L155.85 265.13L156.62 228.43L170.41 221.34Z" fill="#00949D"/>
<path d="M154.77 168.58C154.77 168.58 160.99 200.71 158.26 205.12L164.56 203.02L154.76 168.57L154.77 168.58Z" fill="#006666"/>
<path d="M159.67 245.2L158.44 261.9L161.48 258.11L161.58 235.43L159.67 245.2Z" fill="#006666"/>
<path d="M140.27 245.2C156.966 245.2 170.5 231.666 170.5 214.97C170.5 198.274 156.966 184.74 140.27 184.74C123.574 184.74 110.04 198.274 110.04 214.97C110.04 231.666 123.574 245.2 140.27 245.2Z" fill="#0080C6"/>
<path d="M125.96 219.66C125.5 219.33 125.23 218.89 125.14 218.33C125.05 217.78 125.18 217.27 125.51 216.82L133.29 206.13C133.48 205.87 133.72 205.67 134.01 205.52C134.3 205.37 134.6 205.29 134.91 205.29L145.93 205.13C146.16 205.13 146.37 205.16 146.58 205.22C146.78 205.28 146.98 205.38 147.16 205.52C147.34 205.66 147.5 205.81 147.62 205.98C147.74 206.15 147.84 206.35 147.91 206.57L151.15 217.1C151.24 217.39 151.27 217.7 151.21 218.02C151.15 218.34 151.04 218.63 150.85 218.89L143.07 229.58C142.74 230.04 142.3 230.31 141.74 230.4C141.19 230.49 140.68 230.36 140.23 230.03L135.29 226.44L140.87 218.76L136.48 215.57L130.9 223.25L125.96 219.66Z" fill="white"/>
<path d="M64.8099 168.58L38.8399 253.72C35.9399 266.77 42.5699 270.69 42.5699 270.69C48.9699 275.63 56.9599 273.78 56.9599 273.78L84.1999 269.01L86.6699 248.41L68.6999 249.25L85.6199 213.36" fill="#00949D"/>
<path d="M101.61 254.95C118.305 254.95 131.84 241.416 131.84 224.72C131.84 208.024 118.305 194.49 101.61 194.49C84.9143 194.49 71.3799 208.024 71.3799 224.72C71.3799 241.416 84.9143 254.95 101.61 254.95Z" fill="#F4B036"/>
<path d="M93.32 238.44C92.8 238.57 92.3 238.49 91.82 238.2C91.34 237.91 91.03 237.51 90.9 236.99L86.65 220.24C86.52 219.72 86.6 219.22 86.89 218.74C87.18 218.26 87.58 217.95 88.1 217.82L110 212.26C110.52 212.13 111.02 212.21 111.5 212.5C111.98 212.79 112.29 213.19 112.42 213.71L116.67 230.46C116.8 230.98 116.72 231.48 116.43 231.96C116.14 232.44 115.74 232.75 115.22 232.88L93.32 238.44ZM101.75 225.74C101.86 225.71 101.94 225.67 102.01 225.62C102.08 225.57 102.15 225.51 102.22 225.45L110.66 216.28C110.75 216.19 110.81 216.08 110.84 215.96C110.87 215.84 110.86 215.71 110.84 215.59C110.77 215.31 110.59 215.12 110.3 215.02C110.01 214.92 109.76 214.99 109.55 215.23L101.32 224.01L89.93 220.22C89.63 220.11 89.37 220.17 89.15 220.38C88.93 220.6 88.86 220.84 88.93 221.12C88.96 221.25 89.03 221.36 89.12 221.47C89.21 221.57 89.31 221.64 89.41 221.69L101.2 225.72C101.3 225.74 101.39 225.76 101.47 225.77C101.55 225.78 101.65 225.77 101.76 225.75L101.75 225.74Z" fill="white"/>
<path d="M130.75 260.93L152.93 254.44C152.93 254.44 159.12 253.37 161.36 250.05C161.36 250.05 164.15 246.7 165.26 243.79L169.96 232.36C169.96 232.36 171.52 228.97 168.89 227.81C168.89 227.81 166.92 226.92 165.13 229.76L158.76 237.62C157.84 238.63 154.38 240.7 150.71 241.08C150.71 241.08 150.78 241.29 144.96 241L132.27 240.7C132.27 240.7 125.46 239.75 121.48 247.16L121 248L127.67 261.53L130.75 260.93Z" fill="#F1ADA0"/>
<path d="M86.68 248.4L84.21 269L127.29 261.46V246.5L86.68 248.4Z" fill="#F1ADA0"/>
<path d="M232.08 154.36C232.08 154.36 235.86 165.1 230.09 183.3C230.09 183.3 225 199.69 208.38 206.79L199.17 211.18L194.3 197.16L209.23 184.14L232.09 154.36H232.08Z" fill="#F1ADA0"/>
<path d="M81.1599 248.66L86.6799 248.4L85.8899 254.95L81.1599 248.66Z" fill="#00949D"/>
<path d="M212.68 181.41C229.376 181.41 242.91 167.876 242.91 151.18C242.91 134.484 229.376 120.95 212.68 120.95C195.984 120.95 182.45 134.484 182.45 151.18C182.45 167.876 195.984 181.41 212.68 181.41Z" fill="#80B176"/>
<path d="M213.08 163.39L217.2 162.53C217.38 162.49 217.52 162.39 217.62 162.23C217.73 162.07 217.76 161.9 217.72 161.72C217.68 161.54 217.58 161.4 217.42 161.3C217.26 161.2 217.09 161.16 216.91 161.2L212.79 162.06C212.61 162.1 212.47 162.2 212.37 162.36C212.26 162.52 212.23 162.69 212.27 162.87C212.31 163.05 212.41 163.19 212.57 163.29C212.73 163.4 212.9 163.43 213.08 163.39ZM208.42 167.31C207.87 167.43 207.36 167.33 206.89 167.02C206.42 166.71 206.13 166.28 206.01 165.73L200.75 140.5C200.63 139.95 200.73 139.44 201.04 138.97C201.35 138.5 201.78 138.21 202.33 138.09L216.94 135.04C217.49 134.92 218 135.02 218.47 135.33C218.94 135.64 219.23 136.07 219.35 136.62L224.61 161.85C224.73 162.4 224.63 162.91 224.32 163.38C224.01 163.85 223.58 164.14 223.03 164.26L208.42 167.31ZM206.97 160.34L221.58 157.29L217.98 140.03L203.37 143.08L206.97 160.34Z" fill="white"/>
<path d="M195.97 198.3C195.97 198.3 193.93 190.17 203.29 177.23L213.4 162.44C213.4 162.44 216.49 158.17 220.37 160.82C220.37 160.82 223.43 163.35 220.32 167.9L209.23 184.13C209.23 184.13 200.33 195.22 195.97 198.29V198.3Z" fill="#F1ADA0"/>
<path d="M93.2799 64.64C93.2799 64.64 94.8399 89.59 137.94 78.88C137.94 78.88 155.05 74.89 159.64 69.9L127.51 47.22L85.3899 53.84L86.4699 68.29L93.2799 64.66V64.64Z" fill="#E55B25"/>
<path d="M102.67 46.09C102.67 46.09 105.79 29.84 93.9001 28.42C93.9001 28.42 56.9501 24.82 56.5401 62.62C56.5401 62.62 55.8401 79.73 65.9601 81.4C65.9601 81.4 80.8801 84.01 92.0801 70.71C92.0801 70.71 101.01 61.01 102.67 46.1V46.09Z" fill="#E55B25"/>
<path d="M92.3301 162.65L96.0401 135.32L128.59 136.39L124.43 162.14L92.3301 162.65Z" fill="#00949D"/>
<path opacity="0.2" d="M179.45 114.15H243.77C245.98 114.15 247.77 115.94 247.77 118.15V143.5H175.45V118.15C175.45 115.94 177.24 114.15 179.45 114.15Z" fill="#E71C24"/>
<path d="M175.45 129.77V116.48C175.45 115.19 176.5 114.14 177.79 114.14H191.08" stroke="white" stroke-width="5" stroke-linecap="round" stroke-linejoin="round"/>
<path d="M232.15 114.15H245.44C246.73 114.15 247.78 115.2 247.78 116.49V129.78" stroke="white" stroke-width="5" stroke-linecap="round" stroke-linejoin="round"/>
<path d="M247.77 170.85V184.14C247.77 185.43 246.72 186.48 245.43 186.48H232.14" stroke="white" stroke-width="5" stroke-linecap="round" stroke-linejoin="round"/>
<path d="M191.08 186.47H177.79C176.5 186.47 175.45 185.42 175.45 184.13V170.84" stroke="white" stroke-width="5" stroke-linecap="round" stroke-linejoin="round"/>
<path d="M172.45 142.81H250.77" stroke="#E71C24" stroke-width="5" stroke-linecap="round" stroke-linejoin="round"/>
<path d="M111.82 111.23C111.82 111.23 115.11 120.49 131.47 120.95" stroke="#4C3938" stroke-width="2" stroke-miterlimit="10" stroke-linecap="round"/>
</g>
<defs>
<clipPath id="clip0_6125_2959">
<rect width="285.4" height="285.4" fill="white"/>
</clipPath>
</defs>
</svg>
