<svg width="286" height="286" viewBox="0 0 286 286" fill="none" xmlns="http://www.w3.org/2000/svg">
<g clip-path="url(#clip0_6080_14764)">
<path d="M133.92 141.1L155.77 139.52L155.96 139.62L156.05 137.52C179.99 149.28 218.19 145.39 218.19 145.39C218.19 145.39 238.15 144.84 243.51 157.51L265.08 216.11C277.97 194.66 285.39 169.55 285.39 142.7C285.4 63.89 221.51 0 142.7 0C63.89 0 0 63.89 0 142.7C0 221.51 59.55 280.95 134.57 285.16L127.53 221.18C126.6 213.76 133.91 141.1 133.91 141.1H133.92Z" fill="#CBE0EB"/>
<path d="M218.13 147.83L218.19 145.39L218.09 147.94L218.13 147.83Z" fill="#CBE0EB"/>
<path d="M231.55 232.51L237.49 187.68C237.49 187.68 232.11 159.98 220.63 155.98L217.8 154.98L215.83 203.43L231.55 232.51Z" fill="#CBE0EB"/>
<path d="M228.32 256.86C232.25 253.91 236.01 250.76 239.61 247.42L231.54 232.5L228.31 256.86H228.32Z" fill="#CBE0EB"/>
<path d="M218.19 145.39L218.13 147.83L218.09 147.94L217.8 154.99L220.63 155.99C232.11 159.99 237.49 187.69 237.49 187.69L231.55 232.52L239.62 247.44C249.51 238.28 258.11 227.74 265.09 216.12L243.52 157.52C238.15 144.85 218.2 145.4 218.2 145.4L218.19 145.39Z" fill="#F2A100"/>
<path d="M149.79 285.22L155.96 139.61L155.77 139.51L133.92 141.08C133.92 141.08 126.61 213.75 127.54 221.17L134.58 285.15C137.27 285.3 139.98 285.39 142.7 285.39C145.08 285.39 147.44 285.33 149.79 285.21V285.22Z" fill="#F2A100"/>
<path d="M215.83 203.43L213.42 266.66C218.6 263.7 223.57 260.42 228.32 256.86L231.55 232.5L215.83 203.42V203.43Z" fill="#F2A100"/>
<path d="M217.8 154.98L218.09 147.94L215.71 154.25L217.8 154.98Z" fill="#F7C16B"/>
<path d="M149.79 285.22C149.79 285.22 149.81 285.22 149.82 285.22L155.96 139.62L149.79 285.23V285.22Z" fill="#F7C16B"/>
<path d="M217.8 154.98L218.09 147.93L218.19 145.38C218.19 145.38 179.99 149.27 156.05 137.51L155.96 139.61L149.82 285.21C172.82 284.08 194.38 277.5 213.26 266.75L215.84 203.43L217.81 154.98H217.8Z" fill="#F7C16B"/>
<path d="M213.25 266.75C213.31 266.72 213.36 266.69 213.42 266.66L215.83 203.43L213.25 266.75Z" fill="#F7C16B"/>
<path d="M231.66 232.72L238.33 185.44C238.33 185.44 231.94 156.14 220.09 152.02L217.96 151.85L215.8 204.02L231.66 232.72Z" fill="#F2A100"/>
<path d="M192.6 88.3799L198.65 145.16L166.39 144.22L157.04 96.6099L192.61 88.3899L192.6 88.3799Z" fill="#CE715E"/>
<path d="M188.89 119.55L164.59 135.28L161.43 119.75L188.88 119.55H188.89Z" fill="#BE594C"/>
<path d="M156.05 137.52L141.16 133.61C141.16 133.61 117.3 129.77 116.11 154.82L124.02 214.34C124.02 214.34 135.49 268.33 137.97 254.56L156.06 137.52H156.05Z" fill="#F2A100"/>
<path d="M193.31 121.36L155.41 127.85C146.76 129.07 142.58 125.53 140.42 123.17C136.09 118.42 135.48 110.45 135.48 110.45L134.46 70.0699C134.46 70.0699 133.77 33.5499 175.35 30.3199C175.35 30.3199 209.18 28.4499 211.95 59.9099L196.26 98.1999L193.31 121.36Z" fill="#CE715E"/>
<path d="M196.16 104.5L194.58 115.98L184.73 110.81L186 96.5901L196.16 104.51V104.5Z" fill="#CE715E"/>
<path d="M189.95 61.1199L192.6 91.1499L207.84 88.4199C207.84 88.4199 211.04 73.4299 211.95 59.8999C211.95 59.8999 211.61 54.6899 205.75 54.2799C199.89 53.8699 198.86 53.8199 194.29 55.2699C189.39 56.8299 189.94 61.1099 189.94 61.1099L189.95 61.1199Z" fill="#F3F3F3"/>
<path d="M62.8501 162.48C62.8501 162.48 71.0901 153.17 67.5901 129.74L64.3801 103.36C64.3801 103.36 63.2201 95.62 56.2901 96.47C56.2901 96.47 50.5301 97.71 51.5201 105.82L55.0501 134.77C55.0501 134.77 59.2001 155.46 62.8401 162.48H62.8501Z" fill="#CE715E"/>
<path d="M67.02 123.87L82.87 118.57C82.87 118.57 96.03 112.53 97.41 127.61C97.41 127.61 104.16 169.17 71.22 175.96L55.31 170.82C55.31 170.82 56.75 157.46 54.42 127.41L67.02 123.88V123.87Z" fill="#CE715E"/>
<path d="M118.91 143.86L90.75 231.49L78.58 175.96L48.67 169.35C48.67 169.35 59.91 244.38 66.96 259.92C73.16 273.58 78.75 278.55 88.16 279.77C88.16 279.77 99.1 282.03 109.43 264.76L138.31 201.67L118.9 143.87L118.91 143.86Z" fill="#F2A100"/>
<path d="M187.87 98.0701C187.87 98.0701 186.42 113.62 165.94 114.44L163.53 103.33L187.86 98.0601L187.87 98.0701Z" fill="white"/>
<path d="M55.32 117.38C55.32 117.38 50.19 141.56 55.32 170.82L65.76 172.17" fill="#CE715E"/>
<path d="M180.32 81.1199L200.51 80.7099C200.51 80.7099 207.95 80.5699 207.85 88.4199" stroke="#484747" stroke-width="3" stroke-miterlimit="10" stroke-linecap="round"/>
<path d="M141.6 96.4501C147.71 96.4501 152.67 91.5001 152.67 85.3801C152.67 79.2601 147.72 74.3101 141.6 74.3101C135.48 74.3101 130.53 79.2601 130.53 85.3801C130.53 91.5001 135.49 96.4501 141.6 96.4501Z" stroke="#484747" stroke-width="3" stroke-miterlimit="10" stroke-linecap="round"/>
<path d="M169.32 93.4C175.43 93.4 180.39 88.45 180.39 82.33C180.39 76.21 175.44 71.26 169.32 71.26C163.2 71.26 158.25 76.21 158.25 82.33C158.25 88.45 163.21 93.4 169.32 93.4Z" stroke="#484747" stroke-width="3" stroke-miterlimit="10" stroke-linecap="round"/>
<path d="M152.52 83.4701L158.24 82.8401" stroke="#484747" stroke-width="3" stroke-miterlimit="10" stroke-linecap="round"/>
<path d="M133.45 49.3299C133.45 49.3299 146.21 58.4799 182.25 50.7499C182.25 50.7499 202.46 45.4299 209.44 49.2399C209.44 49.2399 208.15 18.3399 158.11 24.6299C158.11 24.6299 141.49 26.5899 130.99 28.7999C130.99 28.7999 121.5 30.5399 124.42 38.0799C124.42 38.0799 126.97 46.1499 133.46 49.3399L133.45 49.3299Z" fill="#F3F3F3"/>
<path d="M201.83 106.6C207.4 106.6 211.91 102.08 211.91 96.5199C211.91 90.9599 207.39 86.4399 201.83 86.4399C196.27 86.4399 191.75 90.9599 191.75 96.5199C191.75 102.08 196.27 106.6 201.83 106.6Z" fill="#CE715E"/>
<path d="M199.12 101.31L198.65 145.16L190.85 123.83L186.57 93.55L199.11 101.31H199.12Z" fill="#CE715E"/>
<path d="M41.31 19.07C27.26 31.96 26.32 53.81 39.21 67.86C52.1 81.91 73.95 82.85 88 69.96C88.51 69.49 89.01 69 89.48 68.51L101.4 70.26C102.37 70.4 103.09 69.39 102.64 68.52L96.77 57.21C101.46 45.3 99.32 31.25 90.09 21.19C77.2 7.14002 55.35 6.20002 41.3 19.09L41.31 19.07Z" fill="#80B176"/>
<path d="M48.98 44.2501L60.61 58.0101L77.14 29.3301" stroke="white" stroke-width="7" stroke-linecap="round" stroke-linejoin="round"/>
<path d="M166.39 144.21C166.39 144.21 168.69 153.43 181.58 153.43C194.47 153.43 198.66 145.15 198.66 145.15L166.4 144.21H166.39Z" fill="#CE715E"/>
</g>
<defs>
<clipPath id="clip0_6080_14764">
<rect width="285.4" height="285.4" fill="white"/>
</clipPath>
</defs>
</svg>
