<svg width="343" height="288" viewBox="0 0 343 288" fill="none" xmlns="http://www.w3.org/2000/svg">
<mask id="mask0_4392_15246" style="mask-type:alpha" maskUnits="userSpaceOnUse" x="0" y="0" width="343" height="288">
<rect width="343" height="288" fill="#D9D9D9"/>
</mask>
<g mask="url(#mask0_4392_15246)">
<path d="M112.574 254.828C132.402 254.828 148.476 249.596 148.476 243.141C148.476 236.686 132.402 231.454 112.574 231.454C92.7457 231.454 76.6718 236.686 76.6718 243.141C76.6718 249.596 92.7457 254.828 112.574 254.828Z" fill="#C1BEBE"/>
<path d="M28.523 238.085C43.7236 238.085 56.0461 234.074 56.0461 229.125C56.0461 224.176 43.7236 220.164 28.523 220.164C13.3225 220.164 1 224.176 1 229.125C1 234.074 13.3225 238.085 28.523 238.085Z" fill="#C1BEBE"/>
<path d="M271.646 262.312C271.646 271.29 249.32 278.566 221.767 278.566C194.223 278.566 171.889 271.29 171.889 262.312C171.889 253.332 194.223 246.053 221.767 246.053C249.32 246.052 271.646 253.331 271.646 262.312Z" fill="#C1BEBE"/>
<path d="M208.37 251.465C208.385 249.688 208.201 248.095 207.606 246.564C207.577 246.722 207.548 246.87 207.5 247.016C207.219 247.938 206.514 248.537 204.922 248.581C202.804 248.647 198.863 247.536 196.839 246.726C195.936 246.365 195.342 246.073 194.824 245.415C194.78 245.357 194.739 245.306 194.698 245.243C190.568 247.344 187.985 252.751 183.657 255.934C181.652 257.414 179.461 259.661 180.458 262.368C181.613 265.493 185.325 266.058 188.235 265.827C190.275 265.668 191.935 265.114 193.493 264.357C193.529 264.342 193.571 264.318 193.607 264.303C193.623 264.297 193.64 264.286 193.649 264.281C193.833 264.191 194.018 264.096 194.19 263.995C194.241 263.974 194.286 263.953 194.336 263.928C195.376 263.382 196.393 262.758 197.468 262.149C199.262 261.106 202.011 257.865 202.011 257.865C205.028 258.014 206.387 257.428 207.078 256.796C209.122 254.895 208.37 251.767 208.37 251.465Z" fill="#96714C"/>
<path d="M242.033 257.559C242.242 260.842 241.973 263.915 245.435 265.605C248.663 267.184 254.339 267.91 257.589 265.975C260.62 264.18 258.715 260.31 257.623 257.694C255.45 252.523 251.614 247.802 248.459 243.125C248.436 243.182 248.395 243.252 248.351 243.311C248.184 243.539 247.876 243.745 247.369 244.079C246.139 244.865 243.813 245.122 242.378 245.498C241.511 245.726 240.648 245.94 239.766 246.146C238.5 246.451 237.229 246.727 235.953 246.991C235.936 247.004 235.918 247.004 235.899 247.011C235.856 247.028 235.793 246.988 235.788 246.937C235.788 246.919 235.781 246.91 235.785 246.89C235.09 249.289 234.569 252.34 235.813 254.394C236.965 256.279 239.745 256.968 242.033 257.559Z" fill="#96714C"/>
<path d="M258.848 71.2874C259.49 68.6375 261.277 64.7465 262.675 62.4115C263.04 61.8011 263.318 60.8105 264.112 60.5651C264.198 60.5375 264.286 60.5212 264.387 60.5212C264.667 60.4813 264.981 60.5212 265.332 60.604C265.251 60.2891 265.113 59.9844 264.882 59.6818C263.834 58.3027 261.067 57.4777 259.623 56.7774C255.681 54.8554 251.106 52.2086 246.63 51.3089C245.646 50.4052 244.505 50.0463 243.192 49.8255C241.637 49.4432 239.948 49.3133 238.377 49.2029C238.36 49.2029 238.338 49.2029 238.323 49.2029C234.745 48.7285 231.162 48.245 227.603 48.7183C227.616 48.7285 227.616 48.7521 227.628 48.7602C227.808 49.1753 227.917 49.528 227.869 49.7601C227.837 49.9155 227.837 50.1475 227.77 50.3408C226.737 52.871 222.785 53.9149 220.46 54.2052C217.442 54.5988 213.104 54.2215 210.585 52.2167C209.532 51.3764 209.173 50.077 209.161 48.6089C209.154 48.6038 209.154 48.6028 209.15 48.5997C206.226 48.8758 203.325 49.299 200.45 49.8971C200.45 49.8971 200.439 49.8971 200.429 49.8971H200.419C196.305 49.6057 191.727 50.0566 188.497 52.3466C184.45 53.0244 180.348 55.5403 176.872 57.5942C176.854 57.6055 176.844 57.6157 176.818 57.6269C175.781 58.134 174.594 58.7484 173.55 59.4569C171.314 60.6714 169.724 61.6815 170.735 63.5963C170.83 63.5851 170.919 63.5851 171.001 63.5963C171.173 63.5963 171.351 63.6178 171.496 63.6495C172.589 63.9266 173.468 65.5204 174.039 66.4405C175.255 67.9781 176.418 69.9368 177.199 71.4622C178.09 72.8577 179.011 74.2306 180.083 75.5403C180.138 75.6088 180.124 75.7325 180.021 75.7509C179.755 75.8245 179.494 75.8827 179.234 75.9328C179.101 75.9758 178.953 76.0034 178.828 76.0269C179.234 76.6096 179.851 76.8734 180.914 76.81C182.564 76.7231 184.285 76.3479 185.968 75.8705C187.068 76.5381 188.349 76.7517 189.683 76.81C191.375 83.6085 191.436 90.5277 192.731 97.3763C193.233 99.9689 193.701 102.758 194.594 105.306C194.695 106.54 194.786 107.764 194.843 109.001C194.859 109.044 194.859 109.089 194.859 109.141C194.859 109.212 194.872 109.297 194.872 109.365C195.097 114.539 194.992 119.683 194.613 124.856C194.613 124.877 194.613 124.908 194.606 124.924C194.215 128.63 193.542 132.354 193.321 136.071C193.321 136.092 193.321 136.1 193.31 136.123C193.178 137.079 193.118 138.038 193.25 138.918C193.261 139.662 193.287 140.414 193.37 141.155C193.37 141.344 193.388 141.527 193.41 141.71C193.424 141.72 193.424 141.727 193.431 141.735H193.443C194.12 141.841 194.779 141.941 195.457 142.035C198.008 143.261 202.816 143.031 206.007 143.164C211.384 143.566 216.761 143.723 222.157 143.643C223.383 143.622 224.596 143.593 225.819 143.549C229.858 143.579 235.219 143.9 239.337 142.926C240.984 142.969 243.114 142.978 244.209 142.317C244.272 142.274 244.335 142.239 244.39 142.191C244.493 142.119 244.584 142.035 244.665 141.932C245.667 140.659 244.243 137.749 243.986 136.559C242.842 131.086 241.92 125.553 241.367 120.003C240.535 111.632 242.376 103.618 242.913 95.3725C245.252 89.5933 247.341 83.7056 246.748 77.7342C247.87 77.3774 248.978 76.9685 250.039 76.4471H250.054C250.065 76.4471 250.075 76.4471 250.094 76.4471C251.915 76.5575 254.042 76.6147 255.903 76.3234C256.023 76.3183 256.143 76.2815 256.271 76.2661C256.509 76.2354 256.74 76.1945 256.974 76.1547C258.119 75.9431 259.123 75.5341 259.802 74.7633C259.763 74.749 259.733 74.7367 259.702 74.7081C258.71 74.1018 258.416 73.103 258.848 71.2874Z" fill="#4ABBC2"/>
<path d="M337.275 74.5319C338.137 74.443 339.03 74.4777 339.748 73.9666C340.367 73.5382 340.595 72.8195 340.49 72.1315C341.32 71.6939 342.084 71.1306 342.549 70.3076C343.05 69.364 342.585 68.6474 341.855 68.0994C343.037 67.2611 344.13 66.2019 342.532 65.2471C340.678 64.1358 336.795 65.2685 334.604 64.9935C331.436 64.5877 328.572 63.4427 325.925 61.7139C326.996 60.1334 328.091 58.4997 328.761 56.7944C329.063 56.0031 329.496 54.302 328.458 53.755C327.232 53.1161 325.614 55.2282 324.994 55.9111C323.271 57.8086 321.647 59.7899 319.978 61.7466C317.963 62.9887 315.958 64.7001 314.876 66.7366C307.322 67.6782 300.224 66.3686 292.62 65.2256C288.838 64.6592 283.075 63.3343 279.234 64.9046C276.12 64.4895 273.164 63.6573 270.164 62.6125C269.1 62.2363 266.926 60.9645 265.328 60.6098C264.977 60.527 264.66 60.4881 264.382 60.527C264.282 60.527 264.194 60.5413 264.106 60.574C263.312 60.8183 263.032 61.8049 262.67 62.4173C261.265 64.7502 259.484 68.6433 258.844 71.2911C258.409 73.1057 258.704 74.1097 259.693 74.718C259.724 74.7466 259.755 74.7691 259.792 74.7773C260.375 75.1116 261.165 75.3099 262.178 75.4633C265.878 76.0194 269.636 76.0726 273.356 76.7105C275.339 77.056 277.276 77.3464 279.239 77.5008C284.146 79.2806 289.201 79.1365 294.399 78.3452C301.738 77.2114 309.018 75.5747 316.3 74.1097C320.724 77.3566 336.692 80.2917 337.275 74.5319Z" fill="#F7BCA3"/>
<path d="M230.357 29.2657C230.143 29.2085 229.908 29.2167 229.677 29.2872C229.656 29.2872 229.631 29.3036 229.624 29.3077C229.462 29.3526 229.312 29.4191 229.172 29.5121C229.502 25.7561 228.578 21.818 225.888 19.1344C223.567 16.8076 219.549 15.9877 216.522 17.3228C214.697 16.7575 212.673 17.0785 210.95 18.3871C207.723 20.8243 207.114 25.0721 206.805 28.8752C206.303 28.7065 205.814 28.7535 205.399 28.9539C205.39 28.9693 205.369 28.9734 205.349 28.9877C204.437 29.4641 203.923 30.698 204.437 31.8696C204.846 32.8265 205.674 33.5033 206.017 34.5165C206.26 35.2454 206.322 35.9549 206.783 36.5938C207.184 37.1479 207.726 37.4935 208.335 37.5487C208.428 38.8133 208.862 39.9767 209.389 41.1279C209.582 41.5532 209.813 41.9059 210.101 42.2402C209.79 44.0323 209.105 46.4818 209.135 48.6093C209.135 48.6328 209.135 48.6543 209.15 48.6655C209.172 50.1132 209.533 51.3993 210.572 52.2273C213.096 54.2301 217.433 54.6084 220.448 54.2178C222.772 53.9254 226.724 52.8806 227.759 50.3514C227.821 50.1602 227.821 49.9271 227.858 49.7707C227.906 49.5386 227.797 49.1849 227.612 48.7698C227.601 48.7627 227.601 48.7402 227.593 48.7279C227.168 47.7485 226.371 46.4277 226.291 45.4493C226.232 44.5783 226.241 43.7113 226.202 42.8525C227.438 41.1453 228.152 39.1721 228.263 37.0355C228.986 36.8514 229.585 36.5478 229.886 35.6359C230.185 34.724 230.236 33.8857 230.717 33.0024C231.041 32.392 231.268 31.796 231.288 31.0998C231.304 30.4005 231.126 29.4988 230.357 29.2657Z" fill="#F7BCA3"/>
<path d="M177.194 71.4652C176.413 69.9399 175.249 67.9811 174.033 66.4425C173.455 65.5224 172.583 63.9235 171.489 63.6526C171.343 63.6219 171.17 63.6004 170.993 63.6004C170.917 63.5882 170.825 63.5882 170.73 63.6004C168.928 63.6689 166.238 64.9581 164.867 65.3496C163.443 65.7524 162.036 66.1992 160.638 66.6848H160.627C158.458 66.6848 155.725 67.2184 153.691 67.1622C150.283 67.0804 146.98 67.4843 143.605 68.0036C135.425 69.2856 127.319 70.0779 119.13 69.3347C116.476 67.379 114.18 64.9611 111.431 63.1424C110.392 62.439 109.391 62.2816 108.15 62.0823C107.018 61.9156 103.695 60.7972 102.574 61.382C99.424 63.034 105.688 65.1912 108.812 66.1746C105.714 68.1416 100.379 68.1886 97.0279 68.9401C95.7296 69.2192 90.5272 69.762 90.2807 71.9171C90.0617 73.9209 93.5924 73.699 96.9543 73.0897C96.2003 73.33 95.4473 73.5631 94.7055 73.8064C93.4123 74.2276 91.4756 74.5609 90.737 75.8899C89.6259 77.8937 92.0639 77.8466 93.7858 77.5798C93.1678 78.4396 93.2568 79.2963 94.6267 79.7073C96.0427 80.1438 97.6234 80.06 99.2102 79.788C97.9057 80.5476 97.0146 81.4187 97.8177 82.1987C98.4817 82.855 100.861 82.167 101.623 81.9973C102.961 81.7059 104.273 81.3369 105.59 80.9423C109.811 81.4422 113.753 80.4168 117.488 78.6522C132.441 80.8891 148.503 84.3354 162.895 78.4733L162.926 78.4662C164.482 78.1595 166.047 77.8446 167.655 77.6156C169.898 77.2956 172.14 77.0829 174.364 76.7732C174.548 76.7517 174.737 76.7169 174.923 76.6934C176.229 76.5309 177.521 76.3152 178.822 76.0361C178.949 76.0177 179.096 75.9829 179.225 75.9441C179.489 75.8899 179.748 75.8367 180.013 75.7631C180.114 75.7427 180.127 75.621 180.073 75.5535C179.005 74.2347 178.086 72.8587 177.194 71.4652Z" fill="#F7BCA3"/>
<path d="M250.949 209.709C250.967 200.265 250.207 190.893 248.654 181.602C249.214 168.29 247.618 155.128 244.391 142.19C244.33 142.235 244.27 142.272 244.21 142.315C243.116 142.97 240.987 142.962 239.336 142.921C235.219 143.894 229.856 143.58 225.818 143.546C224.592 143.597 223.381 143.619 222.156 143.64C216.761 143.718 211.387 143.571 206.005 143.161C202.812 143.03 198.006 143.261 195.455 142.033C194.776 141.939 194.117 141.839 193.441 141.734H193.429C193.416 141.726 193.416 141.718 193.407 141.705C193.386 141.523 193.365 141.339 193.365 141.15C190.673 153.733 190.83 166.583 193.829 179.053C193.904 184.468 194.318 189.854 195.067 195.213C193.738 202.595 193.772 209.964 195.138 217.212C195.259 221.735 195.24 226.251 194.821 230.766C194.69 232.213 194.541 233.621 194.518 234.997C193.614 238.765 192.992 243.178 193.883 246.573C193.906 246.674 193.935 246.779 193.95 246.876C194.07 247.265 194.206 247.648 194.369 248.002C195.744 251.109 199.715 249.892 202.731 249.837C205.716 249.779 206.801 249.213 207.539 247.483C207.593 247.356 207.641 247.239 207.691 247.102C207.87 246.616 208.051 246.034 208.224 245.378C209.079 243.475 209.545 241.14 209.786 238.682C209.786 238.672 209.786 238.672 209.786 238.672C211.966 233.149 213.342 227.365 213.644 221.401C213.93 215.693 212.798 210.148 212.137 204.554C213.23 200.132 214.141 195.655 214.487 191.102C214.751 187.546 214.604 183.996 214.337 180.445C215.387 176.295 216.307 172.115 217.055 167.887C217.817 163.641 218.313 159.381 219.529 155.309C223.642 164.329 224.493 174.629 228.279 183.68C229.393 190.506 231.079 197.201 233.353 203.747C232.759 212.315 233.372 220.835 234.142 229.384C234.616 234.666 234.896 240.027 235.598 245.278C235.646 245.664 235.701 246.047 235.747 246.443C235.779 246.724 235.82 247.008 235.871 247.292C235.871 247.306 235.871 247.306 235.879 247.312C236.116 248.637 237.245 248.855 238.298 249.768C238.781 250.187 239.31 250.458 239.863 250.617C239.922 250.648 239.99 250.672 240.065 250.674C240.729 250.838 241.445 250.885 242.175 250.862C244.128 250.811 248.05 250.932 249.956 249.459C250.014 249.4 250.089 249.35 250.136 249.3C250.263 249.183 250.374 249.079 250.462 248.96C251.385 247.781 251.263 245.391 251.13 243.512C251.13 243.512 251.13 243.512 251.13 243.5C251.204 242.391 251.13 241.133 251.028 239.924C251.016 238.904 250.97 237.894 250.924 236.879C252.22 227.841 252.22 218.721 250.949 209.709Z" fill="#ED766A"/>
<path d="M208.929 22.1716C209.165 21.3027 209.454 20.402 210.278 19.8959C211.467 19.1782 212.813 19.8448 213.983 20.1832C215.382 20.588 216.729 20.9622 218.215 20.9673C220.123 20.9724 221.391 19.9982 223.113 19.6679C228.215 18.7151 229.191 25.0291 228.788 29.9291C229.028 29.7011 229.301 29.5457 229.613 29.5406C229.636 29.5406 229.661 29.5406 229.683 29.5457C229.721 29.5406 229.75 29.5457 229.784 29.5519C230.363 25.8745 229.934 21.5654 228.469 18.4892C226.624 14.6156 222.585 12.3409 218.387 12.0372C213.922 11.7213 210.579 13.4409 208.333 16.2043C207.981 16.5907 207.658 17.0038 207.363 17.4342C205.91 19.5575 205.211 22.0776 205.016 24.6498C204.844 26.1455 204.844 27.6708 205.008 29.1685C205.042 29.1419 205.077 29.1123 205.126 29.0908C205.736 28.6962 206.68 28.7933 207.585 29.3351C207.981 26.949 208.279 24.476 208.92 22.1788L208.929 22.1716Z" fill="#502011"/>
<path d="M119.914 79.7883C121.565 79.9723 123.215 80.1573 124.865 80.3434C124.935 81.0918 125.009 81.837 125.082 82.5844C128.671 81.9066 132.369 82.1877 136.013 82.4729C139.626 82.7571 143.238 83.0424 146.851 83.3235C148.596 83.4605 150.353 83.5975 152.09 83.391C153.859 83.1794 156.064 82.0119 157.77 81.5099C164.955 79.4039 170.952 79.9743 178.358 78.907C180.051 78.6606 182.746 77.3848 184.39 77.851C188.749 79.0849 190.301 84.3878 190.889 88.8799C191.649 94.652 191.107 100.189 191.463 105.993C191.724 110.25 191.97 115.331 192.082 119.596C192.19 123.65 193.068 127.261 191.657 131.066C191.273 132.109 190.782 133.126 190.6 134.223C190.429 135.267 189.599 136.804 189.623 137.861C189.701 141.225 190.85 144.331 189.221 147.276C196.248 148.675 202.499 148.541 209.551 147.271C209.972 147.196 210.417 147.107 210.723 146.81C211.004 146.54 211.125 146.146 211.231 145.771C213.023 139.535 214.796 132.762 212.451 126.716C212.072 125.742 211.59 124.794 211.446 123.76C211.222 122.108 211.891 120.47 212.033 118.805C212.335 115.269 210.238 111.961 209.912 108.427C209.723 106.401 210.128 104.367 210.181 102.336C210.276 98.5297 209.159 94.8104 208.687 91.0319C208.298 87.9117 208.363 84.7548 208.417 81.608C208.541 75.1121 208.663 68.6111 208.785 62.1111C208.821 60.1482 208.877 58.1138 209.696 56.3237C210.065 55.5191 210.589 54.7636 210.72 53.8875C210.951 52.3335 212.312 48.8136 211.496 47.4764C210.676 46.1351 208.27 43.9422 207.234 44.7999C207.749 46.6606 206.415 46.2036 206.71 48.5243C206.391 48.1113 204.995 49.0355 204.885 48.5243C198.476 46.5553 191.664 50.2408 185.522 52.9224C180.742 55.0079 178.064 56.8389 173.555 59.4561C172.353 60.1554 169.867 61.0213 167.517 63.294C166.236 64.5371 164.144 64.6751 162.359 64.6659C146.587 64.5933 142.123 67.2218 132.22 67.6787C131.13 67.7319 128.564 69.0374 127.476 69.0712C125.294 69.1458 121.723 66.8772 121.147 69.7142C120.85 71.2058 121.234 72.909 121.093 74.4405C120.926 76.2633 120.532 78.0667 119.914 79.7883Z" fill="#94C3E0"/>
<path d="M315.044 76.7263L310.093 77.2835L309.879 79.5224C306.287 78.8425 302.592 79.1267 298.944 79.4099C295.336 79.6962 291.722 79.9783 288.106 80.2595C286.367 80.3995 284.607 80.5355 282.867 80.328C281.097 80.1174 276.837 79.4058 275.126 78.9049C267.944 76.7979 263.941 78.2107 256.536 77.1424C254.844 76.8981 251.291 77.1587 249.644 77.6239C245.287 78.8579 247.42 84.2558 246.828 88.7489C246.008 94.9872 244.529 101.14 246.149 107.285C249.36 119.466 245.757 114.969 245.635 118.001C245.45 122.665 244.223 122.446 245.795 126.7C246.184 127.744 246.669 128.76 246.852 129.859C247.022 130.903 248.119 136.67 248.093 137.728C248.015 141.091 248.522 143.658 248.501 147.142C241.471 148.538 235.219 148.409 228.166 147.14C227.746 147.064 227.303 146.969 226.994 146.676C226.711 146.407 226.593 146.015 226.485 145.639C224.696 139.404 222.918 132.627 225.268 126.581C225.643 125.609 226.129 124.66 226.27 123.627C226.497 121.976 225.823 120.335 225.685 118.672C225.385 115.136 227.48 111.825 227.803 108.293C227.991 106.266 227.59 104.234 227.541 102.203C227.445 98.3988 228.562 94.6795 229.03 90.901C229.417 87.7777 229.363 84.6208 229.301 81.475C229.18 74.9761 227.005 68.4025 226.881 61.9045C226.841 59.9386 228.841 57.9777 228.018 56.1917C227.653 55.3851 226.369 50.7529 226.242 49.8778C226.008 48.3259 227.041 47.1512 226.289 45.447C225.651 44.0116 228.817 43.8072 229.849 44.669C229.339 46.5296 230.67 46.0665 230.372 48.3913C230.694 47.9803 232.724 48.9015 232.832 48.3913C241.656 45.6791 248.488 50.7601 256.043 52.1054C258.281 52.5031 259.855 54.2084 261.095 56.1058C261.893 57.3204 265.412 55.8523 267.987 58.0749C269.371 59.2577 272.091 60.0602 273.91 60.052C289.76 59.9641 292.826 64.1567 302.744 64.6137C303.835 64.6689 306.399 65.9713 307.49 66.0102C309.669 66.0818 313.244 63.8163 313.811 66.6502C314.11 68.1448 313.728 69.8439 313.871 71.3754C314.031 73.2003 314.427 75.0037 315.044 76.7263Z" fill="#94C3E0"/>
</g>
</svg>
