<svg xmlns="http://www.w3.org/2000/svg" viewBox="0 0 512 512">
    <title>
        arrow back
    </title>
    <path d="M228.69,20.69a16,16,0,0,1,22.63,22.62h0L54.63,240H496a16,16,0,0,1,16,15.69V256a16,16,0,0,1-16,16H54.63L251.32,468.69a16,16,0,0,1,.25,22.36l-.25.26a16,16,0,0,1-22.63,0h0l-224-224h0l-.21-.2,0,0L4.34,267a.52.52,0,0,0-.1-.11l-.1-.12L4,266.62a16,16,0,0,1-2.62-4.05l-.07-.15-.06-.14-.06-.16L1.16,262a16,16,0,0,1-1.1-4.59v-.08c0-.07,0-.13,0-.19V257a1,1,0,0,0,0-.17q0-.81,0-1.62A1,1,0,0,0,0,255v-.15c0-.06,0-.12,0-.19v-.08A16,16,0,0,1,1.16,250l.06-.13.06-.16.06-.14.07-.15A16,16,0,0,1,4,245.38l.11-.11.1-.12a.52.52,0,0,0,.1-.11l.35-.35-.23.23.23-.23Z" style="fill-rule:evenodd"/>
</svg>
