<svg xmlns="http://www.w3.org/2000/svg" viewBox="0 0 512 512">
    <title>
        car
    </title>
    <path d="M223.58,88c61.52,0,110.84,29.59,148.63,78.18a291.08,291.08,0,0,1,32.29,52.38c2.52,5.24,4.61,9.94,6.3,14A112.61,112.61,0,0,1,512.26,344a48,48,0,0,1-47.2,48H444.85a48,48,0,0,1-90.54,0H156.85a48,48,0,0,1-90.54,0H47.56A47.37,47.37,0,0,1,.3,342.56c1.64-36.62,7.13-69.31,16-98.07a16.79,16.79,0,0,1,.8-2.52C49.63,139.63,125.55,88,223.58,88Zm176,272a16,16,0,1,0,16,16A16,16,0,0,0,399.58,360Zm-288,0a16,16,0,1,0,16,16A16,16,0,0,0,111.58,360ZM43.87,264c-6.32,23.64-10.27,50.28-11.6,80a15.34,15.34,0,0,0,14.91,16H66.31a48,48,0,0,1,90.54,0H354.31a48,48,0,0,1,90.54,0h19.41a16,16,0,0,0,16-15.9A80.57,80.57,0,0,0,399.64,264H43.87ZM224.26,120V232H375.45l-.47-1a258.68,258.68,0,0,0-28-45.22C314.88,144.59,274.43,120.22,224.26,120ZM54.56,232h137.7V122.12C129.81,130.88,81.23,166.91,54.56,232Z" style="fill-rule:evenodd"/>
</svg>
