<svg xmlns="http://www.w3.org/2000/svg" xmlns:xlink="http://www.w3.org/1999/xlink" width="352" height="352" viewBox="0 0 352 352">
  <g fill="#000" fill-rule="evenodd" transform="translate(-16 -16)">
    <path d="M340.686292,20.6862915 C346.93468,14.4379028 357.06532,14.4379028 363.313708,20.6862915 C369.562097,26.9346802 369.562097,37.0653198 363.313708,43.3137085 L363.313708,43.3137085 L214.627,192 L363.313708,340.686292 C369.475314,346.847897 369.560892,356.784662 363.570442,363.051133 L363.313708,363.313708 C357.06532,369.562097 346.93468,369.562097 340.686292,363.313708 L340.686292,363.313708 L192,214.627 L43.3137085,363.313708 C37.152103,369.475314 27.2153379,369.560892 20.9488669,363.570442 L20.6862915,363.313708 C14.4379028,357.06532 14.4379028,346.93468 20.6862915,340.686292 L20.6862915,340.686292 L169.373,192 L20.6862915,43.3137085 C14.524686,37.152103 14.4391082,27.2153379 20.4295579,20.9488669 L20.6862915,20.6862915 C26.9346802,14.4379028 37.0653198,14.4379028 43.3137085,20.6862915 L43.3137085,20.6862915 L192,169.373 Z"/>
  </g>
</svg>
