<svg xmlns="http://www.w3.org/2000/svg" xmlns:xlink="http://www.w3.org/1999/xlink" width="416" height="512" viewBox="0 0 416 512">
  <g fill="#000" fill-rule="evenodd" transform="translate(-5.333)">
    <path d="M213.333333,0 L261.333333,0 C270.169889,0 277.333333,7.163444 277.333333,16 C277.333333,24.7313589 270.339432,31.8292047 261.648204,31.9969636 L261.333333,32 L229.333333,32 L229.334289,96.6063068 C270.734515,99.7558679 308.746992,115.025136 339.83164,138.874029 L359.198723,119.506574 C355.984032,113.458457 356.924333,105.781584 362.019625,100.686292 C368.18123,94.524686 378.117995,94.4391082 384.384466,100.429558 L384.647042,100.686292 L400.647042,116.686292 C406.895431,122.93468 406.895431,133.06532 400.647042,139.313708 C395.55175,144.409001 387.874877,145.349301 381.826759,142.13461 L363.68758,160.272003 C399.398329,197.618635 421.333333,248.24772 421.333333,304 C421.333333,418.875228 328.208561,512 213.333333,512 C98.4581054,512 5.33333333,418.875228 5.33333333,304 C5.33333333,194.508593 89.9337537,104.776674 197.332541,96.6062944 L197.333333,32 L165.333333,32 C156.601974,32 149.504129,25.006099 149.33637,16.3148707 L149.333333,16 C149.333333,7.2686411 156.327234,0.17079531 165.018463,0.00303641878 L165.333333,0 L261.333333,0 Z M213.333333,128 C116.131217,128 37.3333333,206.797884 37.3333333,304 C37.3333333,401.202116 116.131217,480 213.333333,480 C310.535449,480 389.333333,401.202116 389.333333,304 C389.333333,206.797884 310.535449,128 213.333333,128 Z M122.607635,219.572701 C129.164709,213.649061 139.282326,214.162562 145.205966,220.719635 L145.205966,220.719635 L225.205966,309.274302 C231.129605,315.831376 230.616105,325.948993 224.059031,331.872633 C217.501957,337.796272 207.38434,337.282772 201.460701,330.725698 L201.460701,330.725698 L121.460701,242.171031 C115.537061,235.613957 116.050562,225.49634 122.607635,219.572701 Z"/>
  </g>
</svg>
