<svg xmlns="http://www.w3.org/2000/svg" xmlns:xlink="http://www.w3.org/1999/xlink" width="512" height="513" viewBox="0 0 512 513">
  <g fill="#000" fill-rule="evenodd" transform="translate(0 -20.333)">
    <path d="M219.313708,313.976958 C225.475314,320.138564 225.560892,330.075329 219.570442,336.3418 L219.313708,336.604375 L54.626,501.290667 L160,501.290667 C168.731359,501.290667 175.829205,508.284568 175.996964,516.975796 L176,517.290667 C176,526.022026 169.006099,533.119871 160.314871,533.28763 L160,533.290667 L16,533.290667 C15.8862567,533.290667 15.7725135,533.289461 15.658791,533.287051 L15.4434641,533.281169 C15.4141915,533.280168 15.3849389,533.279089 15.3557064,533.277931 C15.3007051,533.275567 15.2457131,533.273082 15.1907327,533.270314 C15.1332558,533.267692 15.0759626,533.264531 15.0187505,533.26107 L14.8686797,533.250867 L14.8686797,533.250867 L14.68455,533.237367 L14.68455,533.237367 C14.6554243,533.234443 14.6264039,533.231984 14.5973891,533.229445 C12.9882211,533.090302 11.4470638,532.712299 10.0095729,532.131504 C9.9656662,532.113679 9.92229152,532.095969 9.87897952,532.078061 C9.82624497,532.056212 9.77356898,532.034049 9.72103743,532.011614 C9.67540847,531.992314 9.62977739,531.972616 9.58422015,531.952695 C9.5332934,531.930106 9.48234729,531.907462 9.43154225,531.88456 C7.9878453,531.235511 6.62082583,530.361086 5.38343515,529.261652 C5.34346353,529.225743 5.30416059,529.19051 5.26503368,529.155086 C5.22770736,529.121579 5.19000917,529.087092 5.15243689,529.052391 C5.11527562,529.017877 5.07863848,528.98375 5.04216231,528.949454 C5.00161597,528.911441 4.96102844,528.872856 4.92059472,528.834017 L4.6862915,528.604375 C4.56895545,528.487039 4.4538228,528.368334 4.34089356,528.248311 L4.23883261,528.138594 L4.23883261,528.138594 C4.20357499,528.100657 4.16908748,528.062959 4.13481304,528.025137 C4.10015659,527.986506 4.06492347,527.947203 4.02988267,527.907726 C2.92958053,526.669841 2.05515568,525.302821 1.40574044,523.859233 C1.38320497,523.808319 1.36056036,523.757373 1.33817491,523.706288 C1.31805114,523.660889 1.29835274,523.615258 1.2788768,523.569555 C1.25661736,523.517098 1.23445505,523.464422 1.21256749,523.411603 C1.19469744,523.368375 1.17698763,523.325 1.15947618,523.281564 C0.578367853,521.843603 0.200365123,520.302446 0.0606139226,518.693081 C0.0586830876,518.664263 0.0562238869,518.635242 0.0538436055,518.606217 L0.0393885043,518.422145 L0.0393885043,518.422145 L0.0299263365,518.271832 L0.0299263365,518.271832 C0.0261353283,518.214704 0.0229746559,518.157411 0.0201161871,518.100038 C0.00678408575,517.830363 -3.33066907e-16,517.560515 -3.33066907e-16,517.290667 L0,373.290667 C0,364.454111 7.163444,357.290667 16,357.290667 C24.7313589,357.290667 31.8292047,364.284568 31.9969636,372.975796 L32,373.290667 L32,478.662667 L196.686292,313.976958 C202.93468,307.728569 213.06532,307.728569 219.313708,313.976958 Z M496,21.2906667 C496.170115,21.2906667 496.340229,21.2933628 496.510274,21.2987549 C496.56337,21.3003151 496.615678,21.3022099 496.667921,21.3043552 C496.686627,21.3053033 496.705958,21.3061402 496.725289,21.3070119 C496.824408,21.3112387 496.922643,21.3165256 497.020639,21.3226947 C497.025471,21.3233589 497.030812,21.3237007 497.036153,21.3240452 C497.133569,21.3299086 497.230244,21.3369687 497.326676,21.3448839 C497.354249,21.3477068 497.381934,21.3500685 497.409614,21.3525021 C499.025854,21.4930093 500.57303,21.8743264 502.015446,22.4599625 C502.161188,22.5191068 502.305856,22.5802183 502.449781,22.6435536 C502.505834,22.6685786 502.561422,22.6934766 502.616841,22.7186814 C502.672868,22.7436483 502.729235,22.7696292 502.785481,22.7959553 C502.813266,22.8096019 502.84057,22.822502 502.86783,22.835477 C503.992699,23.369136 505.068442,24.0424529 506.068982,24.854562 C506.094542,24.8762563 506.120558,24.8974813 506.146505,24.9187864 C506.283904,25.030847 506.419346,25.1459934 506.553291,25.2637577 C506.554584,25.2653845 506.555903,25.2665428 506.557221,25.2677013 C506.664802,25.3617981 506.775275,25.4616529 506.884672,25.5633222 C506.929334,25.6049904 506.97322,25.6462066 507.016872,25.6876666 C507.116432,25.7821817 507.215549,25.8787989 507.313708,25.9769582 L507.139209,25.8050931 C507.186095,25.8505736 507.232703,25.8963386 507.27903,25.9423853 L507.313708,25.9769582 C507.320664,25.9839141 507.327613,25.9908748 507.334553,25.9978403 C507.398721,26.0622478 507.462015,26.1268578 507.524761,26.1919983 C507.549343,26.217449 507.573667,26.2428535 507.597892,26.2683182 C507.716886,26.3935865 507.833967,26.5207802 507.948987,26.6498497 C508.022466,26.731763 508.094371,26.8140375 508.165292,26.8968649 C508.193213,26.9302745 508.221533,26.9636632 508.249717,26.9971692 C508.295392,27.0505048 508.340227,27.1044518 508.384653,27.1586222 C508.390763,27.1671972 508.397344,27.1752473 508.403917,27.1833039 L508.384653,27.1586222 C509.147746,28.0890965 509.790039,29.0854945 510.311533,30.1269446 C510.324375,30.1544332 510.338154,30.1821049 510.351855,30.2098221 C510.431976,30.3704176 510.508252,30.5318221 510.581676,30.6942011 C511.304824,32.2911346 511.773784,34.0280532 511.936297,35.8531293 C511.939774,35.8987234 511.943675,35.9444204 511.947381,35.9901303 C511.96242,36.1705193 511.973949,36.351937 511.982431,36.5341512 C511.989092,36.680351 511.993968,36.8263941 511.996855,36.9724693 C511.996912,36.9731296 511.996938,36.9744628 511.996964,36.975796 L512,37.2906667 L512,181.290667 C512,190.127223 504.836556,197.290667 496,197.290667 C487.268641,197.290667 480.170795,190.296766 480.003036,181.605537 L480,181.290667 L480,75.9166667 L315.313708,240.604375 C309.152103,246.765981 299.215338,246.851559 292.948867,240.861109 L292.686292,240.604375 C286.437903,234.355986 286.437903,224.225347 292.686292,217.976958 L292.686292,217.976958 L457.372,53.2906667 L352,53.2906667 C343.163444,53.2906667 336,46.1272227 336,37.2906667 C336,28.5593078 342.993901,21.461462 351.685129,21.2937031 L352,21.2906667 Z"/>
  </g>
</svg>
