<svg xmlns="http://www.w3.org/2000/svg" viewBox="0 0 512 512">
    <title>
        filter
    </title>
    <path d="M191.83,471.32A32.06,32.06,0,0,0,244.42,496l64.13-53.44a32,32,0,0,0,11.54-24.64V273A256.59,256.59,0,0,0,511.93,42.9,32.08,32.08,0,0,0,480,8.62H32.06a32.07,32.07,0,0,0-32,34.2A256.65,256.65,0,0,0,191.83,273Zm109-226.8A16,16,0,0,0,288,260.22V417.86L223.9,471.32V260.22a16,16,0,0,0-12.83-15.7,224.54,224.54,0,0,1-179-203.84H480A224.55,224.55,0,0,1,300.86,244.52Z" style="fill-rule:evenodd"/>
</svg>
