<svg xmlns="http://www.w3.org/2000/svg" xmlns:xlink="http://www.w3.org/1999/xlink" width="512" height="512" viewBox="0 0 512 512">
  <g fill="#000" fill-rule="evenodd">
    <path d="M16,0 C24.836556,0 32,7.163444 32,16 L32,16 L32,56.106 L78.5774809,41.7962988 C138.756563,23.2689791 203.949718,31.2972568 257.806172,63.8013972 L259.434699,64.7938608 C304.636854,92.6035901 359.444052,100.140561 410.472938,85.5651952 L410.472938,85.5651952 L461.031439,71.1168742 C473.096107,67.6859143 486.071454,70.1096161 496.084055,77.6644516 C506.096656,85.2192871 511.988223,97.0312898 512,109.589333 L512,109.589333 L512,359.765333 C512,377.627605 500.16176,393.326515 482.990259,398.231606 L482.990259,398.231606 L419.252587,416.454554 C359.567809,433.455819 295.485769,424.59332 242.665491,392.037436 C196.339852,363.531146 139.978938,356.364193 87.9886625,372.370426 L87.9886625,372.370426 L32,389.589 L32,496 C32,504.731359 25.006099,511.829205 16.3148707,511.996964 L16,512 C7.163444,512 0,504.836556 0,496 L0,496 L-0.00045171677,378.112693 C-0.00540637061,377.886316 -0.00550475073,377.660424 -0.000817533501,377.435151 L1.13697434e-05,78.1224724 C-0.00542469461,77.8879358 -0.0056471922,77.6539168 -0.000734724019,77.4205636 L0,16 C0,7.163444 7.163444,0 16,0 Z M242.665491,92.0481022 C196.339852,63.5418126 139.978938,56.3748601 87.9842321,72.3824549 L87.9842321,72.3824549 L32,89.582 L32,356.11 L78.5774809,341.785632 C138.756563,323.258312 203.949718,331.28659 257.816924,363.797351 L259.44578,364.790018 C304.630522,392.639721 359.438751,400.219658 410.471075,385.683061 L410.471075,385.683061 L474.197334,367.463368 C477.631783,366.482307 480,363.341771 480,359.765333 L480,359.765333 L480.000007,109.604348 C479.997648,107.090393 478.816822,104.722956 476.810032,103.208767 C474.803242,101.694578 472.20264,101.208804 469.804396,101.890805 L469.804396,101.890805 L419.263668,116.33406 C359.598044,133.376335 295.517209,124.564073 242.665491,92.0481022 Z"/>
  </g>
</svg>
