<svg xmlns="http://www.w3.org/2000/svg" viewBox="0 0 512 512">
    <path d="M255,350.09a95.63,95.63,0,0,0,66.56-26.81l-29.49-17A64,64,0,0,1,191,254.08c0-2,.11-4,.29-6l-29.5-17a96,96,0,0,0,93.2,119Z"/>
    <path d="M144.39,156c37-19.44,75.16-30.47,110.37-29.88h.54l2.16,0h2.18c71.1.71,153.25,47.67,214.47,115a19.46,19.46,0,0,1-.05,26A425.71,425.71,0,0,1,421.51,316l29.74,17.17a462.22,462.22,0,0,0,46.54-44.57,51.5,51.5,0,0,0,0-69C429.77,144.78,337.71,92.84,255,94.12c-46.67-.72-96.32,15.52-142.94,43.23Z"/>
    <path d="M322.93,186.21a96,96,0,0,0-132.17-3.44l30,17.29A64,64,0,0,1,319,254.11c0,.89,0,1.78-.07,2.66l30,17.31a96.16,96.16,0,0,0-26-87.87Z"/>
    <path d="M368.87,350.59C331,371,291.73,382.69,255.3,382.07c-73.22,1.23-157-46.44-219.28-115a19.48,19.48,0,0,1,0-26,422,422,0,0,1,55.08-50.77L61.31,173a457,457,0,0,0-49,46.52,51.49,51.49,0,0,0-.05,69c67.92,74.8,159.61,127,243,125.55,47.71.81,98.35-16.14,145.7-44.94Z"/>
    <path d="M 1.1783087,126.7832 C 7.2283087,116.3043 13.278309,105.82539 19.328309,95.346482 183.52096,190.14315 347.71361,284.93983 511.90626,379.7365 c -6.05,10.4789 -12.1,20.95781 -18.15,31.43672 C 329.56361,316.37655 165.37096,221.57987 1.1783087,126.7832 Z"/>
</svg>
