<svg xmlns="http://www.w3.org/2000/svg" xmlns:xlink="http://www.w3.org/1999/xlink" width="512" height="512" viewBox="0 0 512 512">
  <g fill="#000" fill-rule="evenodd">
    <path d="M256,0 C397.384896,0 512,114.615104 512,256 C512,397.384896 397.384896,512 256,512 C114.615104,512 0,397.384896 0,256 C0,114.615104 114.615104,0 256,0 Z M256,32 C132.288216,32 32,132.288216 32,256 C32,379.711784 132.288216,480 256,480 C379.711784,480 480,379.711784 480,256 C480,132.288216 379.711784,32 256,32 Z M335.197264,176.804514 C341.358385,182.966603 341.443183,192.903375 335.45224,199.169376 L335.195486,199.431931 L278.629,255.988 L335.195486,312.546736 C341.357576,318.707857 341.443934,328.644616 335.453977,334.911557 L335.197264,335.174153 C329.036143,341.336242 319.099384,341.422601 312.832443,335.432644 L312.569847,335.175931 L255.999,278.614 L199.430153,335.175931 C193.268063,341.337052 183.331291,341.421849 177.065291,335.430907 L176.802736,335.174153 C170.641615,329.012063 170.556817,319.075291 176.54776,312.809291 L176.804514,312.546736 L233.37,255.988 L176.804514,199.431931 C170.642424,193.270809 170.556066,183.334051 176.546023,177.067109 L176.802736,176.804514 C182.963857,170.642424 192.900616,170.556066 199.167557,176.546023 L199.430153,176.802736 L256,233.363 L312.569847,176.802736 C318.818727,170.554838 328.949366,170.555634 335.197264,176.804514 Z"/>
  </g>
</svg>
