<svg xmlns="http://www.w3.org/2000/svg" xmlns:xlink="http://www.w3.org/1999/xlink" width="384" height="512" viewBox="0 0 384 512">
  <g fill="#000" fill-rule="evenodd">
    <path d="M189.883286,0.017148343 L192,0 C261.985523,0 318.85251,56.1671317 319.982852,125.883286 L320,128 L320,192 L336,192 C362.509668,192 384,213.490332 384,240 L384,464 C384,490.509668 362.509668,512 336,512 L48,512 C21.490332,512 0,490.509668 0,464 L0,240 C0,213.490332 21.490332,192 48,192 L64,192 L64,128 C64,58.0144765 120.167132,1.14748953 189.883286,0.017148343 L192,0 Z M336,224 L48,224 C39.163444,224 32,231.163444 32,240 L32,464 C32,472.836556 39.163444,480 48,480 L336,480 C344.836556,480 352,472.836556 352,464 L352,240 C352,231.163444 344.836556,224 336,224 Z M192,304 C200.836556,304 208,311.163444 208,320 L208,320 L208,384 C208,392.836556 200.836556,400 192,400 C183.163444,400 176,392.836556 176,384 L176,384 L176,320 C176,311.163444 183.163444,304 192,304 Z M193.587536,32.0128613 L192,32 C139.510857,32 96.8606171,74.1253488 96.0128613,126.412464 L96,128 L96,192 L288,192 L288,128 C288,75.5108574 245.874651,32.8606171 193.587536,32.0128613 L192,32 Z"/>
  </g>
</svg>
