<svg xmlns="http://www.w3.org/2000/svg" viewBox="0 0 512 512">
    <title>
        logout
    </title>
    <path d="M45.12,16l262.6,0C333.36,17.3,353.16,39.07,352,64h0v96a16,16,0,1,1-32,0h0V63.28c.37-8.06-5.85-14.9-13.11-15.28h0l-261,0c-8.05.4-14.26,7.24-13.88,16h0V448.72c-.37,8.06,5.85,14.89,13.09,15.28h0l261,0c8.06-.4,14.28-7.24,13.9-16h0V352a16,16,0,1,1,32,0h0v95.28c1.16,25.65-18.64,47.42-45.08,48.72h0L44.31,496c-25.63-1.3-45.4-23.06-44.26-48h0V64.73C-1.11,39.08,18.67,17.3,45.12,16ZM427.06,164.51l.26.26,80,80,.23.24.1.09.13.15.09.1h0l.14.15a15.9,15.9,0,0,1,2.47,3.75l0,.11h0a.77.77,0,0,1,.07.16l.06.13a1.11,1.11,0,0,1,.07.16l.06.13h0l.07.18a15.76,15.76,0,0,1,1.09,4.56.28.28,0,0,0,0,.09c0,.06,0,.13,0,.19v.14c0,.06,0,.12,0,.18v.16h0c0,.21,0,.43,0,.65v.34c0,.15,0,.31,0,.46s0,.12,0,.18v.15h0v.18h0a.28.28,0,0,0,0,.09,16.06,16.06,0,0,1-1,4.29l-.18.45-.06.13h0a1.11,1.11,0,0,1-.07.16l0,.12h0a15.61,15.61,0,0,1-2.64,4.07l-.06.08-.29.31h0l-.09.09-.21.21h0l-80,80A16,16,0,0,1,404.44,325l.26-.26,52.68-52.69H160a16,16,0,0,1-16-15.69v-.31a16,16,0,0,1,15.69-16H457.38L404.7,187.4a16,16,0,0,1-.26-22.37l.26-.26A16,16,0,0,1,427.06,164.51Zm80.46,102.68-.1.1.1-.1h0Z" style="fill-rule:evenodd"/>
</svg>
