<svg xmlns="http://www.w3.org/2000/svg" xmlns:xlink="http://www.w3.org/1999/xlink" width="288" height="512" viewBox="0 0 288 512">
  <g fill="#000" fill-rule="evenodd">
    <path d="M144,0.0853333333 C188.18278,0.0853333333 224,35.9025533 224,80.0853333 C224,109.81644 207.781602,135.759536 183.70936,149.550071 C243.927135,166.783704 288,222.244968 288,288 L288,288 L288,336 C288,362.509668 266.509668,384 240,384 L240,384 L224,384 L224,464 C224,490.509668 202.509668,512 176,512 L176,512 L112,512 C85.490332,512 64,490.509668 64,464 L64,464 L64,384 L48,384 C21.490332,384 0,362.509668 0,336 L0,336 L0,288 C0,222.244968 44.0728653,166.783704 104.289847,149.544959 C80.2183975,135.759536 64,109.81644 64,80.0853333 C64,35.9025533 99.81722,0.0853333333 144,0.0853333333 Z M144,176 C82.144108,176 32,226.144108 32,288 L32,288 L32,336 C32,344.836556 39.163444,352 48,352 L48,352 L80,352 C88.836556,352 96,359.163444 96,368 L96,368 L96,464 C96,472.836556 103.163444,480 112,480 L112,480 L176,480 C184.836556,480 192,472.836556 192,464 L192,464 L192,368 C192,359.163444 199.163444,352 208,352 L208,352 L240,352 C248.836556,352 256,344.836556 256,336 L256,336 L256,288 C256,226.144108 205.855892,176 144,176 Z M144,32.0853333 C117.490332,32.0853333 96,53.5756653 96,80.0853333 C96,106.595001 117.490332,128.085333 144,128.085333 C170.509668,128.085333 192,106.595001 192,80.0853333 C192,53.5756653 170.509668,32.0853333 144,32.0853333 Z"/>
  </g>
</svg>
