<svg xmlns="http://www.w3.org/2000/svg" xmlns:xlink="http://www.w3.org/1999/xlink" width="512" height="512" viewBox="0 0 512 512">
  <g fill="#000" fill-rule="evenodd">
    <path d="M256,0 C397.384896,0 512,114.615104 512,256 C512,397.384896 397.384896,512 256,512 C114.615104,512 0,397.384896 0,256 C0,114.615104 114.615104,0 256,0 Z M256,32 C132.288216,32 32,132.288216 32,256 C32,379.711784 132.288216,480 256,480 C379.711784,480 480,379.711784 480,256 C480,132.288216 379.711784,32 256,32 Z M255.990553,352 L256,352 C269.254834,352 280,362.745166 280,376 C280,389.254834 269.254834,400 256,400 C242.745166,400 232,389.254834 232,376 C232,362.880832 242.526334,352.220221 255.5938,352.003366 L255.990553,352 L256,352 Z M333.956769,174.047202 C343.092406,213.690061 321.021919,253.876314 282.666664,267.436945 C276.381288,269.659161 272.144471,275.539228 272.00362,282.188035 L272,282.538667 L272,304 C272,312.836556 264.836556,320 256,320 C247.268641,320 240.170795,313.006099 240.003036,304.314871 L240,304 L240,282.547055 C239.989333,262.196235 252.813062,244.050659 272,237.267055 C295.013151,229.130677 308.255443,205.018925 302.774061,181.23321 C297.292679,157.447495 274.833342,141.563129 250.580301,144.319173 C226.32726,147.075217 208.004661,167.593923 208,192.003055 C207.998312,200.839611 200.8335,208.001687 191.996945,208 C183.160389,207.998312 175.998313,200.8335 176,191.996945 C176.007769,151.315056 206.545434,117.117215 246.967169,112.523808 C287.388905,107.9304 324.821133,134.404344 333.956769,174.047202 Z"/>
  </g>
</svg>
