<svg xmlns="http://www.w3.org/2000/svg" xmlns:xlink="http://www.w3.org/1999/xlink" width="512" height="513" viewBox="0 0 512 513">
  <g fill="#000" fill-rule="evenodd" transform="translate(0 -20.333)">
    <path d="M208,309.290667 L208.013968,309.290673 C208.179427,309.290816 208.344883,309.29351 208.510274,309.298755 C208.56337,309.300315 208.615678,309.30221 208.667921,309.304355 C208.686627,309.305303 208.705958,309.30614 208.725289,309.307012 C208.824408,309.311239 208.922643,309.316526 209.020639,309.322695 C209.025471,309.323359 209.030812,309.323701 209.036153,309.324045 C209.133569,309.329909 209.230244,309.336969 209.326676,309.344884 C209.354249,309.347707 209.381934,309.350069 209.409614,309.352502 C211.025854,309.493009 212.57303,309.874326 214.015446,310.459962 C214.161188,310.519107 214.305856,310.580218 214.449781,310.643554 C214.505834,310.668579 214.561422,310.693477 214.616841,310.718681 C214.672868,310.743648 214.729235,310.769629 214.785481,310.795955 C214.813266,310.809602 214.84057,310.822502 214.86783,310.835477 C215.992699,311.369136 217.068442,312.042453 218.068982,312.854562 C218.094542,312.876256 218.120558,312.897481 218.146505,312.918786 C218.283904,313.030847 218.419346,313.145993 218.553291,313.263758 C218.554584,313.265384 218.555903,313.266543 218.557221,313.267701 C218.664802,313.361798 218.775275,313.461653 218.884672,313.563322 C218.929334,313.60499 218.97322,313.646207 219.016872,313.687667 C219.116432,313.782182 219.215549,313.878799 219.313708,313.976958 L219.139209,313.805093 C219.186095,313.850574 219.232703,313.896339 219.27903,313.942385 L219.313708,313.976958 C219.320664,313.983914 219.327613,313.990875 219.334553,313.99784 C219.398721,314.062248 219.462015,314.126858 219.524761,314.191998 C219.549343,314.217449 219.573667,314.242854 219.597892,314.268318 C219.716886,314.393586 219.833967,314.52078 219.948987,314.64985 C220.022466,314.731763 220.094371,314.814037 220.165292,314.896865 C220.193213,314.930275 220.221533,314.963663 220.249717,314.997169 C220.295392,315.050505 220.340227,315.104452 220.384653,315.158622 C220.390763,315.167197 220.397344,315.175247 220.403917,315.183304 L220.384653,315.158622 C221.147746,316.089096 221.790039,317.085495 222.311533,318.126945 C222.324375,318.154433 222.338154,318.182105 222.351855,318.209822 C222.431976,318.370418 222.508252,318.531822 222.581676,318.694201 C223.304824,320.291135 223.773784,322.028053 223.936297,323.853129 C223.939774,323.898723 223.943675,323.94442 223.947381,323.99013 C223.96242,324.170519 223.973949,324.351937 223.982431,324.534151 C223.989091,324.680329 223.993966,324.826349 223.996854,324.972402 C223.996912,324.97313 223.996938,324.974463 223.996964,324.975796 L224,325.290667 L224,469.290667 C224,478.127223 216.836556,485.290667 208,485.290667 C199.268641,485.290667 192.170795,478.296766 192.003036,469.605537 L192,469.290667 L192,363.916667 L27.3137085,528.604375 C21.152103,534.765981 11.2153379,534.851559 4.9488669,528.861109 L4.6862915,528.604375 C-1.56209717,522.355986 -1.56209717,512.225347 4.6862915,505.976958 L4.6862915,505.976958 L169.372,341.290667 L64,341.290667 C55.163444,341.290667 48,334.127223 48,325.290667 C48,316.559308 54.993901,309.461462 63.6851293,309.293703 L64,309.290667 L207.999,309.290667 L208,309.290667 Z M507.313708,25.9769582 C513.475314,32.1385637 513.560892,42.0753287 507.570442,48.3417998 L507.313708,48.6043752 L342.626,213.290667 L448,213.290667 C456.731359,213.290667 463.829205,220.284568 463.996964,228.975796 L464,229.290667 C464,238.022026 457.006099,245.119871 448.314871,245.28763 L448,245.290667 L304,245.290667 C303.814542,245.290667 303.629084,245.287462 303.443716,245.281054 C303.414192,245.280168 303.384939,245.279089 303.355706,245.277931 C303.300705,245.275567 303.245713,245.273082 303.190733,245.270314 C303.133256,245.267692 303.075963,245.264531 303.01875,245.26107 L302.86868,245.250867 L302.86868,245.250867 L302.68455,245.237367 L302.68455,245.237367 C302.655424,245.234443 302.626404,245.231984 302.597389,245.229445 C300.988221,245.090302 299.447064,244.712299 298.009573,244.131504 C297.965666,244.113679 297.922292,244.095969 297.87898,244.078061 C297.826245,244.056212 297.773569,244.034049 297.721037,244.011614 C297.675408,243.992314 297.629777,243.972616 297.58422,243.952695 C297.533293,243.930106 297.482347,243.907462 297.431542,243.88456 C295.987845,243.235511 294.620826,242.361086 293.383435,241.261652 C293.343464,241.225743 293.304161,241.19051 293.265034,241.155086 C293.227707,241.121579 293.190009,241.087092 293.152437,241.052391 C293.115276,241.017877 293.078638,240.98375 293.042162,240.949454 C293.001616,240.911441 292.961028,240.872856 292.920595,240.834017 L292.686292,240.604375 C292.568955,240.487039 292.453823,240.368334 292.340894,240.248311 L292.238833,240.138594 L292.238833,240.138594 C292.203575,240.100657 292.169087,240.062959 292.134813,240.025137 C292.100157,239.986506 292.064923,239.947203 292.029883,239.907726 C290.929581,238.669841 290.055156,237.302821 289.40574,235.859233 C289.383205,235.808319 289.36056,235.757373 289.338175,235.706288 C289.318051,235.660889 289.298353,235.615258 289.278877,235.569555 C289.256617,235.517098 289.234455,235.464422 289.212567,235.411603 C289.194697,235.368375 289.176988,235.325 289.159476,235.281564 C288.578368,233.843603 288.200365,232.302446 288.060614,230.693081 C288.058683,230.664263 288.056224,230.635242 288.053844,230.606217 L288.039389,230.422145 L288.039389,230.422145 L288.029926,230.271832 L288.029926,230.271832 C288.026135,230.214704 288.022975,230.157411 288.020116,230.100038 C288.005359,229.80204 287.998649,229.503807 288.000225,229.20561 L288,85.2906667 C288,76.4541107 295.163444,69.2906667 304,69.2906667 C312.731359,69.2906667 319.829205,76.2845677 319.996964,84.975796 L320,85.2906667 L320,190.662667 L484.686292,25.9769582 C490.93468,19.7285695 501.06532,19.7285695 507.313708,25.9769582 Z"/>
  </g>
</svg>
