<svg xmlns="http://www.w3.org/2000/svg" viewBox="0 0 512 512">
    <title>
        time
    </title>
    <path d="M256,0C397.38,0,512,114.62,512,256S397.38,512,256,512,0,397.38,0,256,114.62,0,256,0Zm0,34.13C133.47,34.13,34.13,133.47,34.13,256S133.47,477.87,256,477.87,477.87,378.53,477.87,256,378.53,34.13,256,34.13Zm0,119.47a17.07,17.07,0,0,1,17.06,16.73v78.6L374.72,350.61a17.06,17.06,0,0,1,.28,23.86l-.28.28a17.06,17.06,0,0,1-24.13,0h0L243.93,268.07h0l-.48-.5-.11-.11-.13-.15c-.24-.27-.47-.55-.69-.83l-.06-.07-.13-.18-.06-.09a17.24,17.24,0,0,1-1.85-3.14l0-.11c-.12-.26-.23-.53-.33-.8v0a17.13,17.13,0,0,1-1.1-5.48c0-.19,0-.38,0-.57V170.67A17.07,17.07,0,0,1,256,153.6Z" style="fill-rule:evenodd"/>
</svg>
