<svg xmlns="http://www.w3.org/2000/svg" viewBox="0 0 512 512">
    <title>
        warning
    </title>
    <path d="M256,16a48,48,0,0,1,41.76,24.34l.25.45.07.12L506,424.8A48,48,0,0,1,464.53,496H48A48,48,0,0,1,5.65,425.4l.27-.49L214,40.79A48,48,0,0,1,256,16Zm0,32a16,16,0,0,0-13.77,7.84l-.18.31L34,440.26A16,16,0,0,0,47.64,464H464a16,16,0,0,0,14.12-23.51l-.18-.34L270,56.22A16,16,0,0,0,256,48Zm0,320a24,24,0,0,1,24,23.67c0,.11,0,.22,0,.33a24,24,0,0,1-23.61,24H256a24,24,0,0,1-24-24v-.4A24,24,0,0,1,256,368Zm0-208a16,16,0,0,1,16,16h0V320a16,16,0,0,1-32,0h0V176A16,16,0,0,1,256,160Z" style="fill-rule:evenodd"/>
</svg>
