<svg width="65" height="64" viewBox="0 0 65 64" fill="none" xmlns="http://www.w3.org/2000/svg">
<path d="M64 32C64 49.6731 49.6731 64 32 64C14.3269 64 0 49.6731 0 32C0 14.3269 14.3269 0 32 0C49.6731 0 64 14.3269 64 32Z" fill="#E12747"/>
<path fill-rule="evenodd" clip-rule="evenodd" d="M35.1443 63.8571C39.5632 63.44 43.7205 62.1244 47.4317 60.0949L62.0361 20.6695C57.4613 8.58877 45.7836 0 32.0999 0C25.2398 0 18.8838 2.1587 13.6743 5.83387L35.1443 63.8571Z" fill="#BA3555"/>
<path fill-rule="evenodd" clip-rule="evenodd" d="M47.0249 60.3135C57.1795 54.9496 64.1001 44.2829 64.1001 31.9998C64.1001 27.9149 63.3347 24.0088 61.9395 20.417L47.0249 60.3135Z" fill="#87314F"/>
</svg>
