<svg xmlns="http://www.w3.org/2000/svg" xmlns:xlink="http://www.w3.org/1999/xlink" viewBox="0 0 341 312"><defs><mask id="a" x="0" y="265.43" width="340.27" height="3" maskUnits="userSpaceOnUse"><polygon points="0 266.43 340.27 266.43 340.27 267.43 0 267.43 0 266.43" style="fill:#fff;fill-rule:evenodd"/></mask><mask id="b" x="168.67" y="65" width="45.78" height="200.5" maskUnits="userSpaceOnUse"><polygon points="168.67 65 214.45 65 214.45 265.5 168.67 265.5 168.67 65" style="fill:#fff;fill-rule:evenodd"/></mask></defs><title>Artboard 1</title><g style="mask:url(#a)"><line y1="266.93" x2="340.27" y2="266.93" style="fill:none;stroke:#d4dbe1;stroke-width:3px"/></g><path d="M126.47,105.49a.76.76,0,0,1-.47-1,39.79,39.79,0,0,1,2.31-5.39c.52-.52,5-1.7,5.61-5.88s-2-12.79-1.53-13.58,3.23-4.81,1.22-8.29S127,68.17,127,68.17,118.92,69,116.43,72s-3.14,11.06-2.06,15,4.46,9.4,4.16,10.33-1.17,5-1.76,5.44-7-1.47-14,2.64-15.41,15.21-16.59,27.36,2.29,25.33,2.94,28.53,3.66,83.83,3.66,83.83a2.14,2.14,0,0,0-1,.15c-.24.2-.12,2.86-.09,4.66s.4,4.08.78,4.43,1.76.19,1.76.19l-.1,8.39a2.5,2.5,0,0,0,2.5,2.53H123.2a1.08,1.08,0,0,0,.93-.5,4.92,4.92,0,0,0,.39-4.9c-1.68-3.4-6.2-1.17-7-1.17a3,3,0,0,1-3-2.39c-.44-2,0-2.59,0-2.59a4.4,4.4,0,0,0,1.84-.24c.31-.24.51-1.77.73-4a20,20,0,0,0,0-4.41c-.2-.25-1.07-.12-1.07-.12s2.25-62.58,7.83-78.83S145,124.92,140.52,116.5c-3.77-7-11.58-10.17-14.05-11" style="fill:#d4dbe1;fill-rule:evenodd"/><path d="M177.47,254.16c0-64.51-12.14-97.41-12.14-97.41s6.14-16.19,5.22-32.12-5.87-17.24-5.87-17.24-5.1-1.7-6.53-3.13c-1.1-1.1-1.44-3.72-1.53-4.9,3.92-1.1,6.88-6,6.88-11.83,0-.19,0-.39,0-.58a35.53,35.53,0,0,1,.44,7.27c-.24,3.23-.93,7.34-.93,7.34a24.79,24.79,0,0,0,3-9c.34-4.36-.21-14.62-.21-14.62-.12-6-3.5-10.9-8.15-12.25-6.2-1.81-13.23,3.57-15.69,12a19.28,19.28,0,0,0-.1,11,6.35,6.35,0,0,0,5.33,11.53,6.44,6.44,0,0,1-.33,3.6c-1,2.06-8.94,2.66-12,6.13s-2.31,25.52-2.28,27.66c.09,9.17,5.55,16.75,5.71,18.9s-11.23,69-9.93,97c0,0,1.57,1.84,12.59,2.7v7.48a1.81,1.81,0,0,0,1.81,1.81h24.74a3,3,0,0,0,1.82-5.5l-.12-.08a20.5,20.5,0,0,0-8.22-3.37h0c15.84-.45,16.48-2.38,16.48-2.38" style="fill:#d4dbe1;fill-rule:evenodd"/><path d="M98.35,87.29a.27.27,0,0,1-.18-.18,11.36,11.36,0,0,0-10.8-7.31c-.84,0-8.17.35-13,8.09a37.65,37.65,0,0,0-5.88,17.63c-.26,2.61-1.37,9.27,0,11a7.57,7.57,0,0,0,3.78,2,.29.29,0,0,1,0,.56,8.94,8.94,0,0,0-2.49,1.76C68.15,122.48,44.9,151,44.38,155.08c-.48,3.8,4.57,12.11,5.33,13.32a.29.29,0,0,1,0,.3c-.74,1-5,7.19-3.75,12.75,1.37,6.07,5.55,11.36,7.7,14S64.48,207,65.56,208.11a.23.23,0,0,1,0,.26C65,210,59,225.75,58.09,228.66c-.91,3.06-7,18.21-7,18.21s-.5-.29-.84-.13A22.16,22.16,0,0,0,48.43,250a1.1,1.1,0,0,0,.47,1.48l.17.09c-1,2.12-4.31,9.45-4.36,10.34-.05.69,0,2.05,0,2.89a.74.74,0,0,0,.75.73H61.23s1.24-2.93-.36-4.63a3.54,3.54,0,0,0-3.82-1.14c-.84.14-4.15,1.82-4.7-.36-.41-1.62,1.29-3.9,2.21-5l.75.38a1.1,1.1,0,0,0,1.48-.47s1.55-2.88,1.44-3.53c0-.2-.59-.49-.59-.49l18.29-25.43a.31.31,0,0,1,.56.24l-4.85,24.68a2.89,2.89,0,0,0-1,0c-.42.08-1.37,3.64-1.37,3.64a.92.92,0,0,0,.61,1.15l1.13.35c-.83,2-2.14,5.24-2.19,5.69a33.18,33.18,0,0,0,0,4.45.49.49,0,0,0,.5.47H86.41s1.25-4.5-2-5.53-4.87,1.25-6.05.73-2.81-1.88-2.59-3c.07-.35.2-.81.34-1.27l1,.32a.92.92,0,0,0,1.16-.6s1.23-3.43,1-3.79a1.53,1.53,0,0,0-.82-.5s8.75-17.82,10-20.47,6.56-14.88,6.56-17.92c0-1.52-4.8-10.78-10.19-19.71S73.61,176,73.16,173.48c-.72-4.2,16-24,16-38.71,0-7.44-3.4-10.77-2.29-16.52.94-4.82,2-6.24,2.37-6.57a.4.4,0,0,1,.21-.09l1.31-.07a1.88,1.88,0,0,0,.33,0c4.38-1.13,7.67-6,7.67-11.82a15.87,15.87,0,0,0-.21-2.52,3,3,0,0,1,1.13-2.93,3.9,3.9,0,0,0,1.62-3.1,4.15,4.15,0,0,0-3-3.81" style="fill:#d4dbe1;fill-rule:evenodd"/><g style="mask:url(#b)"><path d="M212.69,110c-1.5-2.35-14.76-9.07-15.91-9.85s-.71-4.18-.71-5.46.71-1.55.71-1.55h0a10.49,10.49,0,0,0,6.7-7.77s0-.06,0-.09a.5.5,0,0,0,0-.12l.06-.3c1-5.42,1.45-12.17-2.13-16S188.66,65,188.66,65h-.26c-4.26,0-7.71,3.75-7.71,8.37a8.7,8.7,0,0,0,2.37,6,17.38,17.38,0,0,0-.61,4.62c0,4.87,1.91,9,4.6,10.7h0c0,1.28.44,4.67-.71,5.46s-14.4,7.5-15.9,9.85-2.32,31.93-1.34,35.85,8.3,13.28,8.3,13.28l4.44,97.09h2.46a2.93,2.93,0,0,1-.05.29,2.71,2.71,0,0,1-2.68,2.39c-.78,0-2.31-.06-2.81,1.17a5.36,5.36,0,0,0,.39,4.9,1.09,1.09,0,0,0,.93.5h22.61a1.08,1.08,0,0,0,.93-.5,5.33,5.33,0,0,0,.39-4.9c-.5-1.23-2-1.17-2.81-1.17a2.72,2.72,0,0,1-2.68-2.39c0-.1,0-.19-.05-.29h2.82l4.43-97.09s7.33-9.36,8.31-13.28.16-33.49-1.34-35.85" style="fill:#d4dbe1;fill-rule:evenodd"/></g><path d="M245,128.74l6.2,5.22,7.33-9.92S242,105.82,239.88,104a6.6,6.6,0,0,0-4.5-1.66,6.67,6.67,0,0,0,2.05-1.27c.59-.69,4.8-19.1-2.74-27s-17.63-5.84-17.63-5.84v0a8.58,8.58,0,0,0-4.7,15.24,14.37,14.37,0,0,0-.7,4.46c0,6.35,4,11.56,9.13,12.09.39,1.29.68,3.12-.21,4.46-1.52,2.3-8.92,7-8.92,7l2.45,32.91s-5.15,60.2-4.11,61.5S225.56,209,236.52,209s27.55-5.22,27.35-6.79S245,128.74,245,128.74" style="fill:#d4dbe1;fill-rule:evenodd"/><path d="M220.49,184.1c-1.1,5.76,1.76,67.07,1.92,68.8,0,.42,5.71.67,5.91.21,2-5.33,3.82-35.11,4.37-47.59s-12.2-21.42-12.2-21.42" style="fill:#d4dbe1;fill-rule:evenodd"/><path d="M227.31,253.25l.27,12.15s-14.66.23-15.12,0-.39-3.29,2-3.79,2.88.87,6.17-.76c1.91-.94,2.49-8.13,2.49-8.13l4.14.53" style="fill:#d4dbe1;fill-rule:evenodd"/><path d="M232.78,185.45c-.08,5.87,10.68,66.23,11.14,67.91.11.4,5.57.48,5.68,0,.62-3.39-.47-25.1-.14-37.85.21-8.31,2.4-8.82,1.76-13.71-1.63-12.39-18.44-16.35-18.44-16.35" style="fill:#d4dbe1;fill-rule:evenodd"/><path d="M248.89,252.55V265.4s-14.66.23-15.13,0-.38-3.29,2.05-3.79,2.89.87,6.17-.75c1.92-.95,2.49-7.74,2.49-7.74l4.43-.57" style="fill:#d4dbe1;fill-rule:evenodd"/><path d="M294.17,154.07c-.16-8.58-25.69-38.7-25.69-38.7s2.93.3,4.65-.93,4-11.46,3.08-20.56-6.56-14.07-13.15-15.15c-5.06-.83-7.35,1.73-8.14,3a7.78,7.78,0,0,0-1.61-.17A7.62,7.62,0,0,0,245.6,89,7.5,7.5,0,0,0,250.38,96a15.7,15.7,0,0,0-1.33,6.4c0,5.5,2.66,10.15,6.34,11.83L254,118.75l-3,8.88-2.21,17.13-.27,74.81s-.2,33.94.52,34.79,8.88.13,12.47-.27,3.79-1.37,3.79-1.37,4.57,1.44,7.7,1,14.62-.9,15.41-4.82-12.6-30.42-12.6-30.42-1.05-2.55-.66-9.14S291,193,293.12,184.1s-4.76-18.85-4.76-18.85,5.86-8.1,5.81-11.18" style="fill:#d4dbe1;fill-rule:evenodd"/><path d="M282.17,248.47l5.08,13a1.49,1.49,0,0,1-1.39,2H248.2s-1-6.27,3.14-7.23a9.35,9.35,0,0,1,6.85.84l-2.05-7.27,7.15-.1,2.94,7.37a8,8,0,0,1,5.09-1.88,11.72,11.72,0,0,1,6.46,1.88l-3.13-7.27Z" style="fill:#d4dbe1;fill-rule:evenodd"/><path d="M280,216v80a15,15,0,0,1-15,15H72.49a15,15,0,0,1-15-15V216a15,15,0,0,1,15-15H265a15,15,0,0,1,15,15" style="fill:#193f61;fill-rule:evenodd"/><path d="M62.71,218.3v7.92a2.15,2.15,0,0,0,1.43,2l3.11,1.11a5.06,5.06,0,0,1,3.35,4.77v43.95a5,5,0,0,1-3.67,4.86l-2.65.76a2.17,2.17,0,0,0-1.57,2.08v7.81a12,12,0,0,0,12,12h188.1a12,12,0,0,0,12-12V218.3a12,12,0,0,0-12-12H74.71a12,12,0,0,0-12,12" style="fill:#fefefe;fill-rule:evenodd"/><path d="M178.21,271.34h-18.9a2.39,2.39,0,0,1-2.38-2.38V256.12a2.38,2.38,0,0,1,2.38-2.38h18.9a2.37,2.37,0,0,1,2.37,2.38V269a2.38,2.38,0,0,1-2.37,2.38" style="fill:#193f61;fill-rule:evenodd"/><path d="M169.24,262.37a1.58,1.58,0,1,0-1,0l-.93,2.88a.41.41,0,0,0,.39.54h2a.42.42,0,0,0,.4-.54Z" style="fill:#fefefe;fill-rule:evenodd"/><path d="M168.76,240.55a9.55,9.55,0,0,0-9.55,9.55v8h19.1v-8a9.56,9.56,0,0,0-9.55-9.55m0,3a6.56,6.56,0,0,1,6.55,6.55v5h-13.1v-5a6.56,6.56,0,0,1,6.55-6.55" style="fill:#193f61;fill-rule:evenodd"/><path d="M144.66,204.08a4.84,4.84,0,0,1,1.22-3.13h-6c0,.91,3,2,3,2s-1,1.54-.35,2.46a5.59,5.59,0,0,0,.8.93h3.08a2.86,2.86,0,0,1-1.77-2.22" style="fill:#143853;fill-rule:evenodd"/><path d="M192.36,203.73c.07-1,1.44-1.81.67-2.78h6c0,.91-3,2-3,2s1,1.54.35,2.47a7.3,7.3,0,0,1-.8.92H189c1-.51,3.29-1.62,3.36-2.57" style="fill:#143853;fill-rule:evenodd"/><path d="M189.14,206.3v0c-4.36-.05-15-3.09-15-3.09l.64-2.23H163.67l.75,2.76s-5.43,1.64-10.12,2.59Z" style="fill:#153449;fill-rule:evenodd"/><line x1="40.32" y1="311.16" x2="298.66" y2="311.16" style="fill:none;stroke:#193f61"/><path d="M190.07,141.53c-.06-.05-.19-.17-.29-.24a14.92,14.92,0,0,1-5.87-11.9c0-.53,0-1.47,0-1.56a14.27,14.27,0,1,0-28.53-.38c0,.16-.05.42-.07.56a9.09,9.09,0,0,1-3.6,6.27h0a24,24,0,0,0-9.43,19.21c0,12.74,9.67,23.15,21.82,23.78a21.07,21.07,0,0,0,12.85,4.39c11.93,0,21.61-10,21.61-22.38a22.6,22.6,0,0,0-8.47-17.75" style="fill:#193f61;fill-rule:evenodd"/><path d="M195.09,184.66s-8.13-.33-11.42.23c0,0-2.09-4.36-2.84-5.81-1.23.92-21.59.92-22.83,0-.33.65-1.71,4-2.58,5.81a87.53,87.53,0,0,0-11.68-.23s-6.21-.06-7.4.09l32.42,7.09H169l34.44-6.94c-1.19-.15-8.32-.24-8.32-.24" style="fill:#143853;fill-rule:evenodd"/><path d="M172.74,139.5a20.2,20.2,0,0,1,0-2.83h-6.48a18.52,18.52,0,0,1,0,2.83c-.12,1.54-2.5,1.93-2.5,1.93V145h11.49v-3.53s-2.39-.39-2.51-1.93" style="fill:#e17981;fill-rule:evenodd"/><path d="M176.9,126.4a7.7,7.7,0,0,1-7.19-5.4.29.29,0,0,0-.55,0,7.65,7.65,0,0,1-7.15,5.4h0c0,.28,0,.56,0,.85,0,5.67,4.57,11.05,7.55,11.05s7.55-5.38,7.55-11.05c0-.29,0-.57,0-.85h-.12" style="fill:#ef888b;fill-rule:evenodd"/><path d="M212.15,182.54c-1.9-6.32-14.09-4.74-21.64-3s-13.43,6.09-21,6.09-13.3-4.45-21-6.09-19.74-3.27-21.63,3,17.36,19,42.64,20.37c25.28-1.33,44.55-14.06,42.65-20.37" style="fill:#143853;fill-rule:evenodd"/><path d="M149.33,198.87s10.17,0,10.85,0a25.49,25.49,0,0,1,3.11.68l1.13,4.16S153.61,207,149.33,207c-2.35,0-4.55-1.17-4.67-2.89-.15-2.19,2.48-5.21,4.67-5.21" style="fill:#d34554;fill-rule:evenodd"/><path d="M212.15,182.63c-2.43-7.14-12.62-2.49-25.27,2.83a200.9,200.9,0,0,0-25.24,13,.29.29,0,0,0-.14.25,6.48,6.48,0,0,0,.32,3,5.05,5.05,0,0,0,1.39,2.16c.17.17.41.15.66.16,5.63,0,18.57-1.59,32-6.88s16.9-11.36,16.23-14.5" style="fill:#193f61;fill-rule:evenodd"/><path d="M189.26,198.59s-10.17,0-10.85,0a27.25,27.25,0,0,0-3.11.64l-1.13,4s10.8,3.09,15.09,3.09c2.35,0,4.55-1.11,4.67-2.74.15-2.07-2.48-4.94-4.67-4.94" style="fill:#d34554;fill-rule:evenodd"/><path d="M205.3,177.32a28.28,28.28,0,0,0,3.62,1.46,9,9,0,0,1,3.3,2.39,5.38,5.38,0,0,1,.37,3c-.31,0-.05-.6-.47-1.16s-.35-.74-.35-.74a2.31,2.31,0,0,1,.45.82c.22.76.2,2.25,0,2.25s-.22-1.48-.7-2.18a4.41,4.41,0,0,0-.91-1,3.87,3.87,0,0,1,.92,1.24c.46,1,.09,2.65-.12,2.57s.05-1.26-.55-2.16-1.63-2.08-2.27-1.38c-.48.52.84,2.16.71,2.31s-1.19-.58-2.24-2.08-1.87-3.36-2.36-3.46l.59-1.9" style="fill:#ef888b;fill-rule:evenodd"/><path d="M126.81,182.63c2.42-7.14,12.61-2.49,25.27,2.83a201.25,201.25,0,0,1,25.23,13,.27.27,0,0,1,.14.25,6.33,6.33,0,0,1-.32,3,5.05,5.05,0,0,1-1.39,2.16.9.9,0,0,1-.65.16c-5.64,0-18.58-1.59-32.06-6.88s-16.89-11.36-16.22-14.5" style="fill:#193f61;fill-rule:evenodd"/><path d="M133.19,177a27.77,27.77,0,0,1-3.43,1.84,9.06,9.06,0,0,0-3,2.75,5.33,5.33,0,0,0,0,3c.3,0,0-.6.33-1.2s.27-.78.27-.78a2.34,2.34,0,0,0-.36.87c-.14.78,0,2.26.24,2.24s.06-1.5.46-2.24a3.84,3.84,0,0,1,.79-1.09,3.82,3.82,0,0,0-.78,1.33c-.35,1,.2,2.64.4,2.54s-.18-1.25.31-2.21,1.4-2.25,2.11-1.62c.53.46-.6,2.24-.45,2.38s1.11-.71,2-2.32c.8-1.45,1.49-3.54,2-3.69l-.8-1.83" style="fill:#ef888b;fill-rule:evenodd"/><path d="M206.05,177.13s-9.53-6.77-12.62-11.26c-3.46-5-3-16.14-7.9-20.64-3.57-3.29-10.73-3.9-10.73-3.9a5.75,5.75,0,0,1-5.54,3.62,5.63,5.63,0,0,1-5.5-3.52s-7.2.51-10.77,3.8c-4.87,4.5-4.45,15.61-7.91,20.64-3.09,4.49-12.61,11.26-12.61,11.26a1.8,1.8,0,0,0,.58,1.73,2.22,2.22,0,0,0,1.53.9s11.63-3.76,16.69-10.08a24.15,24.15,0,0,0,5.34-12.82s1.46,10.59,1.57,16.48a32.47,32.47,0,0,1-.6,5.73c-.23.72,6.26,2.55,11.68,2.58s11.91-1.86,11.67-2.58a33.35,33.35,0,0,1-.59-5.73c.11-5.89,1.56-16.48,1.56-16.48a38,38,0,0,0,6.75,13.4c5.07,6.33,15.29,9.5,15.29,9.5s.67,0,1.53-.9a1.83,1.83,0,0,0,.58-1.73" style="fill:#d34554;fill-rule:evenodd"/><path d="M170.27,122.29h0a8.13,8.13,0,0,1-.56-1.28.29.29,0,0,0-.55,0,7.65,7.65,0,0,1-7.15,5.4h0a1.93,1.93,0,0,1,0,.24c.24,0,6.05-.28,8.3-4.35" style="fill:#e17981;fill-rule:evenodd"/><path d="M172.74,136.73a5.33,5.33,0,0,1-3.24,1.57,5.14,5.14,0,0,1-3.1-1.45,7.8,7.8,0,0,0,6.36,2.81.6.6,0,0,0,0-.16,19.45,19.45,0,0,1,0-2.77" style="fill:#d77480;fill-rule:evenodd"/><path d="M156.61,157c0-.08,0-.47-.09-.43a31.79,31.79,0,0,1-1,4.52,42.52,42.52,0,0,1-3.9,8.21,24.42,24.42,0,0,0,5-12.3" style="fill:#c53549;fill-rule:evenodd"/><path d="M181.87,156.64c-.21,0-1.84,15.83-2.53,19.33a17.44,17.44,0,0,1-1.53,4.5c1.94-.52,3.23-1.07,3.12-1.4a33.35,33.35,0,0,1-.59-5.73c.11-5.89,1.56-16.48,1.56-16.48s.06-.22,0-.22" style="fill:#c53549;fill-rule:evenodd"/><path d="M178.22,183.84c1.39-.5,2.77-1.06,4.16-1.62h0l-1.48-3a7.55,7.55,0,0,1-3.09,1.26,14.85,14.85,0,0,1,1.22,2.87s-.82.4-.81.5" style="fill:#153449;fill-rule:evenodd"/><path d="M160.63,183.75a4.91,4.91,0,0,0-.8-.47,8.79,8.79,0,0,1-2.57-2.55l-.63,1.45c1.35.54,2.67,1.08,4,1.57" style="fill:#153449;fill-rule:evenodd"/><path d="M162.23,202.6a5,5,0,0,0,1,1.25.87.87,0,0,0,.66.15,54.21,54.21,0,0,0,5.61-.32c-2.13-.23-4.58-.58-7.25-1.08" style="fill:#143853;fill-rule:evenodd"/><path d="M148.35,199.05a3.17,3.17,0,0,0-.41.17A19.63,19.63,0,0,0,161,204.68c2-.54,3.42-1,3.42-1l-.21-.75a109,109,0,0,1-15.86-3.91" style="fill:#c53549;fill-rule:evenodd"/><path d="M177.13,201.69a4.89,4.89,0,0,1-1.2,2c2,.54,5.38,1.41,8.45,2-6.38-2.36-6.74-6.95-6.74-7l-.18,0a6.36,6.36,0,0,1-.33,2.95" style="fill:#c53549;fill-rule:evenodd"/><path d="M133.05,178.87a2.32,2.32,0,0,1-.52-.86,6.33,6.33,0,0,1-.4,4.3c.55-1,1-2.3,1.44-3a3.5,3.5,0,0,1-.52-.46" style="fill:#e17981;fill-rule:evenodd"/><path d="M132.47,177.84h0v0h0" style="fill:#e17981;fill-rule:evenodd"/><path d="M212.22,181.17a8.84,8.84,0,0,0-3.3-2.39,26.5,26.5,0,0,1-2.85-1.1,2.12,2.12,0,0,1-.6,1.18,4,4,0,0,1-.55.5,1.2,1.2,0,0,1,.18.2h0a1.49,1.49,0,0,1,1.17-.58c.71.05,4.91,0,5.94,4.13,0,.12.05.23.08.35,0-.08,0-.15-.05-.22.23.49.07,1,.34.94a5.35,5.35,0,0,0-.37-3" style="fill:#e17981;fill-rule:evenodd"/></svg>
