<?xml version="1.0" encoding="UTF-8"?>
<svg width="24px" height="24px" viewBox="0 0 24 24" version="1.1" xmlns="http://www.w3.org/2000/svg" xmlns:xlink="http://www.w3.org/1999/xlink">
    <!-- Generator: sketchtool 59.1 (101010) - https://sketch.com -->
    <title>74CD2658-93FC-4370-A381-07CC183A6D24</title>
    <desc>Created with sketchtool.</desc>
    <defs>
        <path d="M14.9233377,0.500991978 C16.125673,0.564918264 17.0535076,1.65328728 17,2.9 L17,2.9 L17,7.7 C17,8.1418278 16.6642136,8.5 16.25,8.5 C15.8357864,8.5 15.5,8.1418278 15.5,7.7 L15.5,7.7 L15.5007625,2.86393495 C15.5178103,2.46097733 15.2263506,2.11908912 14.886,2.1 L14.886,2.1 L2.65033943,2.09900793 C2.27300696,2.11907104 1.98190625,2.46078867 2,2.9 L2,2.9 L1.99923631,22.1360929 C1.98218329,22.5388613 2.27336003,22.8806682 2.613,22.9 L2.613,22.9 L14.8486623,22.900992 C15.2263506,22.8809109 15.5178103,22.5390227 15.5,22.1 L15.5,22.1 L15.5,17.3 C15.5,16.8581722 15.8357864,16.5 16.25,16.5 C16.6642136,16.5 17,16.8581722 17,17.3 L17,17.3 L16.9992375,22.063935 C17.0535076,23.3467127 16.125673,24.4350817 14.886,24.5 L14.886,24.5 L2.57514156,24.4989801 C1.37341082,24.4341926 0.446477008,23.3460825 0.5,22.1 L0.5,22.1 L0.500787314,2.93664667 C0.445638829,1.65383857 1.37325713,0.564924941 2.613,0.5 L2.613,0.5 Z" id="path-1"></path>
    </defs>
    <g id="Asset-Artboard-Page" stroke="none" stroke-width="1" fill="none" fill-rule="evenodd">
        <g id="Icon/vrijgeven-Icon/gegevens/vrijgeven">
            <g id="Icon/vrijgeven" transform="translate(-1.000000, -1.000000)">
                <g transform="translate(13.000000, 13.000000) scale(1, -1) rotate(90.000000) translate(-13.000000, -13.000000) translate(0.500000, 0.500000)" id="Shape-+-Shape-+-Colour/Primary/Dark-Mask">
                    <g>
                        <mask id="mask-2" fill="white">
                            <use xlink:href="#path-1"></use>
                        </mask>
                        <use id="Mask" fill="#000000" fill-rule="nonzero" xlink:href="#path-1"></use>
                        <path d="M19.4696699,8.17366991 C19.7625631,7.8807767 20.2374369,7.8807767 20.5303301,8.17366991 L20.5303301,8.17366991 L24.2803301,11.9236699 C24.3194018,11.9627416 24.3532614,12.0050518 24.3819088,12.0497363 C24.3890576,12.0610092 24.3959788,12.0724662 24.402597,12.0841178 C24.4109377,12.0986863 24.4187737,12.1136601 24.4260696,12.1288285 C24.434555,12.1464861 24.4425505,12.1649058 24.4498114,12.1836911 C24.4539715,12.1945435 24.457697,12.2049087 24.4611871,12.2153353 C24.4684207,12.2367165 24.4748291,12.2591728 24.480192,12.2820319 C24.4829853,12.2942739 24.4854242,12.3059672 24.4875819,12.317702 C24.4957051,12.361312 24.5,12.4071544 24.5,12.454 L24.4964221,12.3806064 C24.4978527,12.3952409 24.4988542,12.4099095 24.4994268,12.4245916 L24.5,12.454 C24.5,12.4638139 24.4998115,12.4735837 24.4994379,12.4833062 C24.4988867,12.4977622 24.4978395,12.5130981 24.4963234,12.5283964 C24.4941946,12.5501163 24.4912529,12.5707801 24.4874876,12.5911551 C24.4854242,12.6020328 24.4829853,12.6137261 24.4802653,12.625367 C24.4748291,12.6488272 24.4684207,12.6712835 24.4610197,12.6932836 C24.457697,12.7030913 24.4539715,12.7134565 24.4500107,12.7237519 C24.4425505,12.7430942 24.434555,12.7615139 24.4258602,12.7795328 C24.4187737,12.7943399 24.4109377,12.8093137 24.4025618,12.824064 C24.3959788,12.8355338 24.3890576,12.8469908 24.3818441,12.8582424 C24.3532614,12.9029482 24.3194018,12.9452584 24.2803301,12.9843301 L24.2803301,12.9843301 L20.5303301,16.7343301 C20.2374369,17.0272233 19.7625631,17.0272233 19.4696699,16.7343301 C19.1767767,16.4414369 19.1767767,15.9665631 19.4696699,15.6736699 L19.4696699,15.6736699 L21.9387941,13.203 L8,13.204 C7.62030423,13.204 7.30650904,12.9218461 7.25684662,12.5557706 L7.25,12.454 C7.25,12.0397864 7.58578644,11.704 8,11.704 L8,11.704 L21.9387941,11.703 L19.4696699,9.23433009 C19.2034034,8.96806352 19.1791973,8.55139984 19.3970518,8.25778835 Z" id="Rectangle" fill="#004C92"></path>
                    </g>
                </g>
            </g>
        </g>
    </g>
</svg>
