<?xml version="1.0" encoding="UTF-8"?>
<svg width="24px" height="24px" viewBox="0 0 24 24" version="1.1" xmlns="http://www.w3.org/2000/svg" xmlns:xlink="http://www.w3.org/1999/xlink">
    <!-- Generator: sketchtool 59.1 (101010) - https://sketch.com -->
    <title>DEF238FD-9A2B-402B-BAFB-B589A04C6FF5</title>
    <desc>Created with sketchtool.</desc>
    <defs>
        <path d="M14.9233377,0.500991978 C16.125673,0.564918264 17.0535076,1.65328728 17,2.9 L17,2.9 L17,7.7 C17,8.1418278 16.6642136,8.5 16.25,8.5 C15.8357864,8.5 15.5,8.1418278 15.5,7.7 L15.5,7.7 L15.5007625,2.86393495 C15.5178103,2.46097733 15.2263506,2.11908912 14.886,2.1 L14.886,2.1 L2.65033943,2.09900793 C2.27300696,2.11907104 1.98190625,2.46078867 2,2.9 L2,2.9 L1.99923631,22.1360929 C1.98218329,22.5388613 2.27336003,22.8806682 2.613,22.9 L2.613,22.9 L14.8486623,22.900992 C15.2263506,22.8809109 15.5178103,22.5390227 15.5,22.1 L15.5,22.1 L15.5,17.3 C15.5,16.8581722 15.8357864,16.5 16.25,16.5 C16.6642136,16.5 17,16.8581722 17,17.3 L17,17.3 L16.9992375,22.063935 C17.0535076,23.3467127 16.125673,24.4350817 14.886,24.5 L14.886,24.5 L2.57514156,24.4989801 C1.37341082,24.4341926 0.446477008,23.3460825 0.5,22.1 L0.5,22.1 L0.500787314,2.93664667 C0.445638829,1.65383857 1.37325713,0.564924941 2.613,0.5 L2.613,0.5 Z" id="path-1"></path>
    </defs>
    <g id="Asset-Artboard-Page" stroke="none" stroke-width="1" fill="none" fill-rule="evenodd">
        <g id="Icon/vrijgeven-Icon/gegevens/ophalen">
            <g id="Icon/ophalen" transform="translate(-1.000000, -1.000000)">
                <g id="Icon/vrijgeven" transform="translate(13.000000, 13.000000) scale(1, -1) rotate(90.000000) translate(-13.000000, -13.000000) translate(0.500000, 0.500000)">
                    <g id="Shape-+-Shape-+-Colour/Primary/Dark-Mask">
                        <mask id="mask-2" fill="white">
                            <use xlink:href="#path-1"></use>
                        </mask>
                        <use id="Mask" fill="#000000" fill-rule="nonzero" xlink:href="#path-1"></use>
                        <path d="M11.2803301,8.17366991 C11.5732233,8.46656313 11.5732233,8.94143687 11.2803301,9.23433009 L8.80979408,11.703 L23.75,11.704 C24.1296958,11.704 24.443491,11.9861539 24.4931534,12.3522294 L24.5,12.454 C24.5,12.8682136 24.1642136,13.204 23.75,13.204 L23.75,13.204 L8.80979408,13.203 L11.2803301,15.6736699 C11.5732233,15.9665631 11.5732233,16.4414369 11.2803301,16.7343301 C10.9874369,17.0272233 10.5125631,17.0272233 10.2196699,16.7343301 L6.46966991,12.9843301 C6.1767767,12.6914369 6.1767767,12.2165631 6.46966991,11.9236699 L10.2196699,8.17366991 C10.5125631,7.8807767 10.9874369,7.8807767 11.2803301,8.17366991 Z" id="Rectangle" fill="#079268"></path>
                    </g>
                </g>
            </g>
        </g>
    </g>
</svg>
