<?xml version="1.0" encoding="UTF-8"?>
<svg width="24px" height="24px" viewBox="0 0 24 24" version="1.1" xmlns="http://www.w3.org/2000/svg" xmlns:xlink="http://www.w3.org/1999/xlink">
    <!-- Generator: sketchtool 59.1 (101010) - https://sketch.com -->
    <title>DEE27ADC-841B-4D7B-9DC9-F23BB1961400</title>
    <desc>Created with sketchtool.</desc>
    <defs>
        <path d="M22.5,3.75 C22.9142136,3.75 23.25,4.08578644 23.25,4.5 C23.25,4.91421356 22.9142136,5.25 22.5,5.25 L22.5,5.25 L20.94,5.25 L19.6124106,21.1862692 C19.5156655,22.3525668 18.5405855,23.25 17.37,23.25 L6.631,23.25 C5.46041448,23.25 4.48533445,22.3525668 4.38859316,21.1863139 L3.059,5.25 L1.5,5.25 C1.12030423,5.25 0.806509039,4.96784612 0.756846616,4.60177056 L0.75,4.5 C0.75,4.08578644 1.08578644,3.75 1.5,3.75 L1.5,3.75 L7.5,3.75 L7.5,3 C7.5,1.80913601 8.42516159,0.834355084 9.59595119,0.755190813 L9.75,0.75 L14.25,0.75 C15.4926407,0.75 16.5,1.75735931 16.5,3 L16.5,3 L16.5,3.75 Z M19.4349166,5.25 L4.56513223,5.25 L5.88343294,21.062 C5.91568788,21.4508453 6.24072578,21.75 6.631,21.75 L17.37,21.75 C17.7602742,21.75 18.0853121,21.4508453 18.1175671,21.062 L19.4349166,5.25 Z M9.75,9 C10.1642136,9 10.5,9.33578644 10.5,9.75 L10.5,9.75 L10.5,17.25 C10.5,17.6642136 10.1642136,18 9.75,18 C9.33578644,18 9,17.6642136 9,17.25 L9,17.25 L9,9.75 C9,9.33578644 9.33578644,9 9.75,9 Z M14.25,9 C14.6642136,9 15,9.33578644 15,9.75 L15,9.75 L15,17.25 C15,17.6642136 14.6642136,18 14.25,18 C13.8357864,18 13.5,17.6642136 13.5,17.25 L13.5,17.25 L13.5,9.75 C13.5,9.33578644 13.8357864,9 14.25,9 Z M14.25,2.25 L9.75,2.25 C9.33578644,2.25 9,2.58578644 9,3 L9,3 L9,3.75 L15,3.75 L15,3 C15,2.58578644 14.6642136,2.25 14.25,2.25 L14.25,2.25 Z" id="path-1"></path>
    </defs>
    <g id="Asset-Artboard-Page" stroke="none" stroke-width="1" fill="none" fill-rule="evenodd">
        <g id="Icon/vrijgeven-Icon/delete">
            <g id="Shape-+-Shape-+-Shape-+-Shape-+-Colour/Primary/Dark-Mask">
                <mask id="mask-2" fill="white">
                    <use xlink:href="#path-1"></use>
                </mask>
                <use id="Mask" fill="#000000" fill-rule="nonzero" xlink:href="#path-1"></use>
                <g id="Colour/Primary/Dark-Colours/Grayscale/40" mask="url(#mask-2)" fill="#3C4B5A">
                    <rect id="Rectangle" x="0" y="0" width="24" height="24" rx="2"></rect>
                </g>
            </g>
        </g>
    </g>
</svg>