<?xml version="1.0" encoding="UTF-8"?>
<svg width="24px" height="24px" viewBox="0 0 24 24" version="1.1" xmlns="http://www.w3.org/2000/svg" xmlns:xlink="http://www.w3.org/1999/xlink">
    <!-- Generator: sketchtool 59.1 (101010) - https://sketch.com -->
    <title>7BBFFB0C-C796-4319-AAAC-F1BB14CFFC99</title>
    <desc>Created with sketchtool.</desc>
    <defs>
        <path d="M20.5931891,0.999556437 C21.764104,0.99192272 22.8895885,1.45233236 23.7214185,2.28076052 C24.5476676,3.11041151 25.0080773,4.23589596 25.0004427,5.40693989 C24.9922196,6.57785437 24.5166113,7.69700097 23.6853301,8.50933009 L23.6853301,8.50933009 L9.18533009,23.0093301 C9.09030725,23.1043529 8.97149896,23.1720996 8.84132961,23.2054856 L8.84132961,23.2054856 L1.93632961,24.9764856 C1.38398881,25.1181504 0.881849618,24.6160112 1.02351443,24.0636704 L1.02351443,24.0636704 L2.79451443,17.1586704 C2.79634023,17.1515518 2.79826878,17.1444671 2.80029895,17.1374184 C2.80638326,17.1157068 2.81364295,17.0941367 2.82190944,17.0728675 C2.82778583,17.0582841 2.83399737,17.0437056 2.84065913,17.0293474 C2.84835513,17.012259 2.85701126,16.9953049 2.86635402,16.9786316 C2.87325065,16.9667151 2.88009595,16.9552298 2.88724547,16.9439323 C2.9158012,16.898523 2.95025261,16.8551655 2.99015368,16.8151867 L2.92174933,16.8940021 C2.94276703,16.8660753 2.96578298,16.8395568 2.99066991,16.8146699 L2.9512775,16.858463 L2.99015368,16.8151867 C2.9923704,16.8129656 2.99459759,16.8107614 2.99683508,16.8085739 L17.4846128,2.32079705 C18.302999,1.48338866 19.4221456,1.00778044 20.5931891,0.999556437 Z M3.9202775,18.804463 L2.79136591,23.2086341 L7.2002775,22.077463 L3.9202775,18.804463 Z M15.5122775,6.414463 L4.5822775,17.343463 L8.6592775,21.413463 L19.5852775,10.487463 L15.5122775,6.414463 Z M17.6062775,4.320463 L16.5722775,5.353463 L20.6462775,9.427463 L21.6792775,8.393463 L17.6062775,4.320463 Z M20.6033456,2.49958839 C19.8326416,2.50500087 19.0960277,2.81804265 18.5513301,3.37533009 L18.6692775,3.262463 L22.7383303,7.33175356 C23.1753386,6.85644639 23.4401852,6.248539 23.4913599,5.60597499 L23.5004108,5.39678342 C23.5054319,4.62659318 23.2028009,3.88628149 22.6596685,3.34033147 C22.1137185,2.79719906 21.3734069,2.49456809 20.6033456,2.49958839 Z" id="path-1"></path>
    </defs>
    <g id="Asset-Artboard-Page" stroke="none" stroke-width="1" fill="none" fill-rule="evenodd">
        <g id="Icon/vrijgeven-Icon/edit">
            <g id="Shape-+-Shape-+-Shape-+-Colour/Primary/Dark-Mask" transform="translate(-1.000000, -1.000000)">
                <mask id="mask-2" fill="white">
                    <use xlink:href="#path-1"></use>
                </mask>
                <use id="Mask" fill="#000000" fill-rule="nonzero" xlink:href="#path-1"></use>
                <g id="Colour/Primary/Dark-Colours/Grayscale/40" mask="url(#mask-2)" fill="#3C4B5A">
                    <g transform="translate(1.000000, 1.000000)" id="Rectangle">
                        <rect x="0" y="0" width="24" height="24" rx="2"></rect>
                    </g>
                </g>
            </g>
        </g>
    </g>
</svg>