<svg width="286" height="286" viewBox="0 0 286 286" fill="none" xmlns="http://www.w3.org/2000/svg">
<g clip-path="url(#clip0_6080_15522)">
<path d="M209.62 239.18C200.32 239.18 182.19 231.49 174.06 212.38L208.64 128.76L215.57 97.39C230.41 98.53 240.34 119.44 240.34 119.44L273 200.96C280.97 183.17 285.4 163.46 285.4 142.7C285.4 63.89 221.51 0 142.7 0C63.89 0 0 63.89 0 142.7C0 221.51 63.89 285.4 142.7 285.4C174.93 285.4 204.66 274.71 228.55 256.69L222.81 239.02L209.62 239.18Z" fill="#CBE0EB"/>
<path d="M273 200.95L240.34 119.43C240.34 119.43 230.41 98.5199 215.57 97.3799L208.64 128.75L174.06 212.37C182.19 231.48 200.32 239.17 209.62 239.17L222.81 239.01L228.55 256.68C247.69 242.24 263.09 223.09 273 200.95Z" fill="#ED9980"/>
<path d="M221.14 81.25H54.66C49.14 81.25 44.66 85.73 44.66 91.25V204.41H221.14V81.25Z" fill="#A68FB0"/>
<path d="M221.75 86.9299H56.77C53 86.9299 49.95 89.9799 49.95 93.7499V204.41H221.75V86.9299Z" fill="#CEC3D5"/>
<path d="M218.69 197.19H26.99V202.52C26.99 205.16 29.13 207.29 31.76 207.29H218.68V197.19H218.69Z" fill="#A68FB0"/>
<path d="M136.96 112.13C136.96 112.13 126.04 160.11 127.14 169.44C127.14 169.44 125.49 179.6 140.87 188.38L154.32 136.6L136.96 112.13Z" fill="#ED9980"/>
<path d="M221.51 222.86L153.64 226.83C146.62 227.24 140.6 221.89 140.19 214.87L130.9 61.7099C130.49 54.6899 135.84 48.6699 142.86 48.2599L210.73 44.2899C217.75 43.8799 223.77 49.2299 224.18 56.2499L233.47 209.41C233.88 216.43 228.53 222.45 221.51 222.86Z" fill="#484747"/>
<path d="M152.88 220.03C149.76 220.03 147.17 217.58 146.99 214.47L137.7 61.2901C137.61 59.7201 138.13 58.2101 139.18 57.0301C140.23 55.8501 141.68 55.1501 143.25 55.0601L211.12 51.0901C211.24 51.0901 211.36 51.0801 211.48 51.0801C214.6 51.0801 217.19 53.5301 217.37 56.6401L226.67 209.82C226.86 213.06 224.37 215.86 221.11 216.05L153.24 220.02C153.12 220.02 153 220.03 152.88 220.03Z" fill="#E6E1DE"/>
<path d="M207.85 79.86L148.95 83.92C145.96 84.13 143.7 86.72 143.91 89.71L145.37 110.95C145.58 113.94 148.17 116.2 151.16 115.99L210.06 111.93C213.05 111.72 215.31 109.13 215.1 106.14L213.64 84.9C213.43 81.91 210.84 79.65 207.85 79.86Z" fill="white"/>
<path d="M161.15 110.03C167.26 110.03 172.22 105.07 172.22 98.9599C172.22 92.8499 167.26 87.8899 161.15 87.8899C155.04 87.8899 150.08 92.8499 150.08 98.9599C150.08 105.07 155.04 110.03 161.15 110.03Z" fill="#F6B236"/>
<path d="M157.26 103.37C157.07 103.38 156.89 103.32 156.74 103.19C156.58 103.05 156.5 102.89 156.49 102.7L156.06 96.3899C156.05 96.1999 156.11 96.0199 156.24 95.8699C156.38 95.7099 156.54 95.6299 156.73 95.6199L164.99 95.0499C165.18 95.0399 165.36 95.0999 165.51 95.2299C165.67 95.3699 165.75 95.5299 165.76 95.7199L166.19 102.03C166.2 102.22 166.14 102.4 166.01 102.55C165.88 102.71 165.71 102.79 165.52 102.8L157.26 103.37ZM161.13 99.3399C161.13 99.3399 161.2 99.3299 161.23 99.3199C161.26 99.3099 161.28 99.2899 161.32 99.2699L164.96 96.5199C164.96 96.5199 165.03 96.4599 165.04 96.4199C165.06 96.3799 165.06 96.3399 165.06 96.2799C165.06 96.1799 165 96.0899 164.9 96.0399C164.8 95.9899 164.71 95.9899 164.62 96.0599L161.08 98.6799L157.23 96.5599C157.13 96.4999 157.03 96.5099 156.94 96.5599C156.85 96.6299 156.8 96.6999 156.81 96.8099C156.81 96.8599 156.83 96.9099 156.86 96.9499C156.89 96.9899 156.92 97.0199 156.95 97.0499L160.94 99.2699C160.94 99.2699 161.01 99.2899 161.04 99.3099C161.07 99.3299 161.11 99.3199 161.14 99.3199H161.12L161.13 99.3399Z" fill="white"/>
<path d="M204.85 90.4499L177.12 92.3599C176.8 92.3799 176.56 92.6599 176.58 92.9799L176.75 95.3699C176.77 95.6899 177.05 95.9299 177.37 95.9099L205.1 93.9999C205.42 93.9799 205.66 93.6999 205.64 93.3799L205.48 90.9899C205.46 90.6699 205.18 90.4299 204.86 90.4499H204.85Z" fill="#D4CFCA"/>
<path d="M197.52 97.56L177.62 98.93C177.27 98.95 177.01 99.25 177.04 99.6L177.2 101.9C177.22 102.25 177.52 102.51 177.87 102.48L197.77 101.11C198.12 101.09 198.38 100.79 198.35 100.44L198.19 98.14C198.17 97.79 197.87 97.53 197.52 97.56Z" fill="#D4CFCA"/>
<path d="M215.37 173.62L156.47 177.68C153.48 177.89 151.22 180.48 151.43 183.47L152.02 192.1C152.23 195.09 154.82 197.35 157.81 197.14L216.71 193.08C219.7 192.87 221.96 190.28 221.75 187.29L221.16 178.66C220.95 175.67 218.36 173.41 215.37 173.62Z" fill="#DE2747"/>
<path d="M210.41 116.98L151.51 121.04C148.52 121.25 146.26 123.84 146.47 126.83L147.93 148.07C148.14 151.06 150.73 153.32 153.72 153.11L212.62 149.05C215.61 148.84 217.87 146.25 217.66 143.26L216.2 122.02C215.99 119.03 213.4 116.77 210.41 116.98Z" fill="white"/>
<path d="M163.71 147.15C169.82 147.15 174.78 142.19 174.78 136.08C174.78 129.97 169.82 125.01 163.71 125.01C157.6 125.01 152.64 129.97 152.64 136.08C152.64 142.19 157.6 147.15 163.71 147.15Z" fill="#80B376"/>
<path d="M163.24 140.53L164.78 140.42C164.85 140.42 164.9 140.38 164.95 140.34C165 140.29 165.02 140.23 165.01 140.16C165.01 140.09 164.97 140.04 164.93 139.99C164.88 139.94 164.82 139.92 164.75 139.93L163.21 140.04C163.14 140.04 163.09 140.08 163.04 140.12C162.99 140.17 162.97 140.23 162.98 140.3C162.98 140.37 163.02 140.42 163.06 140.47C163.11 140.52 163.17 140.54 163.24 140.53ZM161.35 141.72C161.15 141.73 160.96 141.67 160.81 141.54C160.65 141.41 160.57 141.23 160.56 141.03L159.91 131.61C159.9 131.41 159.96 131.22 160.09 131.07C160.22 130.91 160.4 130.83 160.6 130.82L166.05 130.45C166.25 130.44 166.44 130.5 166.59 130.63C166.75 130.76 166.83 130.94 166.84 131.14L167.49 140.56C167.5 140.76 167.44 140.95 167.31 141.1C167.18 141.26 167 141.34 166.8 141.35L161.35 141.72ZM161.17 139.12L166.62 138.75L166.17 132.3L160.72 132.67L161.17 139.12Z" fill="white"/>
<path d="M200.25 128.06L179.6 129.48C179.32 129.5 179.12 129.74 179.14 130.01L179.32 132.56C179.34 132.84 179.58 133.04 179.85 133.02L200.5 131.6C200.78 131.58 200.98 131.34 200.96 131.07L200.78 128.52C200.76 128.24 200.52 128.04 200.25 128.06Z" fill="#D4CFCA"/>
<path d="M207.27 134.18L180.28 136.04C179.88 136.07 179.58 136.41 179.61 136.81L179.76 138.92C179.79 139.32 180.13 139.62 180.53 139.59L207.52 137.73C207.92 137.7 208.22 137.36 208.19 136.96L208.04 134.86C208.01 134.46 207.67 134.16 207.27 134.19V134.18Z" fill="#D4CFCA"/>
<path d="M194.04 191.56C200.74 191.56 206.16 186.13 206.16 179.44C206.16 172.75 200.73 167.32 194.04 167.32C187.35 167.32 181.92 172.75 181.92 179.44C181.92 186.13 187.35 191.56 194.04 191.56Z" fill="#ED9980"/>
<path d="M205.69 159.15L241.73 191L254.31 159.18L221.78 138.48L205.7 159.14L205.69 159.15Z" fill="#ED9980"/>
<path d="M225.1 155.36L204.43 185.7L183.66 173.18L202.65 141.7L225.1 155.36Z" fill="#ED9980"/>
<path d="M213.84 161.73C221.1 161.73 226.98 155.85 226.98 148.59C226.98 141.33 221.1 135.45 213.84 135.45C206.58 135.45 200.7 141.33 200.7 148.59C200.7 155.85 206.58 161.73 213.84 161.73Z" fill="#ED9980"/>
</g>
<defs>
<clipPath id="clip0_6080_15522">
<rect width="285.4" height="285.4" fill="white"/>
</clipPath>
</defs>
</svg>
