<svg width="286" height="286" viewBox="0 0 286 286" fill="none" xmlns="http://www.w3.org/2000/svg">
<g clip-path="url(#clip0_5858_24107)">
<path d="M209.62 239.18C200.32 239.18 182.19 231.49 174.06 212.38L208.64 128.76L215.57 97.39C230.41 98.53 240.34 119.44 240.34 119.44L273 200.96C280.97 183.17 285.4 163.46 285.4 142.7C285.4 63.89 221.51 0 142.7 0C63.89 0 0 63.89 0 142.7C0 221.51 63.89 285.4 142.7 285.4C174.93 285.4 204.66 274.71 228.55 256.69L222.81 239.02L209.62 239.18Z" fill="#CCE1EC"/>
<path d="M273 200.95L240.34 119.43C240.34 119.43 230.41 98.5199 215.57 97.3799L208.64 128.75L174.06 212.37C182.19 231.48 200.32 239.17 209.62 239.17L222.81 239.01L228.55 256.68C247.69 242.24 263.09 223.09 273 200.95Z" fill="#EE9A80"/>
<path d="M221.14 81.25H54.66C49.14 81.25 44.66 85.73 44.66 91.25V204.41H221.14V81.25Z" fill="#A790B1"/>
<path d="M221.75 86.9299H56.77C53 86.9299 49.95 89.9799 49.95 93.7499V204.41H221.75V86.9299Z" fill="#CFC4D6"/>
<path d="M218.69 197.19H26.99V202.52C26.99 205.16 29.13 207.29 31.76 207.29H218.68V197.19H218.69Z" fill="#A790B1"/>
<path d="M114.99 128.53H108.59V134.93H114.99V128.53Z" fill="#A790B1"/>
<path d="M114.98 109.34H108.58V115.74H114.98V109.34Z" fill="#A790B1"/>
<path d="M114.98 115.73H108.58V122.13H114.98V115.73Z" fill="#A790B1"/>
<path d="M97.3399 122.14H90.9399V128.54H97.3399V122.14Z" fill="#A790B1"/>
<path d="M90.9436 128.545L90.9391 122.145L84.5391 122.15L84.5436 128.55L90.9436 128.545Z" fill="#A790B1"/>
<path d="M90.9436 122.141L90.9391 115.741L84.5391 115.745L84.5436 122.145L90.9436 122.141Z" fill="#A790B1"/>
<path d="M103.732 128.535L103.728 122.135L97.328 122.14L97.3325 128.54L103.732 128.535Z" fill="#A790B1"/>
<path d="M103.732 122.141L103.728 115.741L97.328 115.745L97.3325 122.145L103.732 122.141Z" fill="#A790B1"/>
<path d="M84.5337 115.753L90.9337 115.749L90.9292 109.349L84.5292 109.353L84.5337 115.753Z" fill="#A790B1"/>
<path d="M90.9436 115.748L97.3436 115.743L97.3392 109.343L90.9392 109.348L90.9436 115.748Z" fill="#A790B1"/>
<path d="M97.3336 115.743L103.734 115.738L103.729 109.338L97.3292 109.343L97.3336 115.743Z" fill="#A790B1"/>
<path d="M132.53 122.12H126.13V128.52H132.53V122.12Z" fill="#A790B1"/>
<path d="M126.128 128.515L126.124 122.115L119.724 122.12L119.728 128.52L126.128 128.515Z" fill="#A790B1"/>
<path d="M126.128 122.121L126.124 115.721L119.724 115.725L119.728 122.125L126.128 122.121Z" fill="#A790B1"/>
<path d="M138.927 128.505L138.923 122.105L132.523 122.11L132.527 128.51L138.927 128.505Z" fill="#A790B1"/>
<path d="M138.907 122.111L138.903 115.711L132.503 115.715L132.507 122.115L138.907 122.111Z" fill="#A790B1"/>
<path d="M119.724 115.718L126.124 115.714L126.119 109.314L119.719 109.318L119.724 115.718Z" fill="#A790B1"/>
<path d="M126.114 115.722L132.514 115.718L132.509 109.318L126.109 109.322L126.114 115.722Z" fill="#A790B1"/>
<path d="M132.524 115.717L138.924 115.713L138.919 109.313L132.519 109.317L132.524 115.717Z" fill="#A790B1"/>
<path d="M132.55 157.3H126.15V163.7H132.55V157.3Z" fill="#A790B1"/>
<path d="M126.158 163.7L126.154 157.3L119.754 157.304L119.758 163.704L126.158 163.7Z" fill="#A790B1"/>
<path d="M126.148 157.305L126.144 150.905L119.744 150.91L119.748 157.31L126.148 157.305Z" fill="#A790B1"/>
<path d="M119.739 150.908L126.139 150.904L126.135 144.504L119.735 144.508L119.739 150.908Z" fill="#A790B1"/>
<path d="M97.37 157.33H90.97V163.73H97.37V157.33Z" fill="#A790B1"/>
<path d="M90.9736 163.72L90.9691 157.32L84.5691 157.324L84.5736 163.724L90.9736 163.72Z" fill="#A790B1"/>
<path d="M90.9636 157.335L90.9591 150.935L84.5591 150.94L84.5636 157.34L90.9636 157.335Z" fill="#A790B1"/>
<path d="M103.763 163.72L103.758 157.32L97.3581 157.324L97.3625 163.724L103.763 163.72Z" fill="#A790B1"/>
<path d="M84.5558 141.334L90.9558 141.329L90.9513 134.929L84.5513 134.934L84.5558 141.334Z" fill="#A790B1"/>
<path d="M126.149 150.903L132.549 150.898L132.545 144.498L126.145 144.503L126.149 150.903Z" fill="#A790B1"/>
<path d="M114.9 141.32H108.5V147.72H114.9V141.32Z" fill="#A790B1"/>
<path d="M114.9 147.72H108.5V154.12H114.9V147.72Z" fill="#A790B1"/>
<path d="M121.39 134.92H114.99V141.32H121.39V134.92Z" fill="#A790B1"/>
<path d="M108.5 134.93H102.1V141.33H108.5V134.93Z" fill="#A790B1"/>
<path d="M102.1 141.33H90.96V147.73H102.1V141.33Z" fill="#A790B1"/>
<path d="M174.054 117.848L168.115 118.208L168.475 124.147L174.414 123.787L174.054 117.848Z" fill="#005085"/>
<path d="M162.179 118.565L156.24 118.926L156.6 124.865L162.539 124.505L162.179 118.565Z" fill="#005085"/>
<path d="M161.819 112.621L161.459 106.682L155.52 107.043L155.88 112.982L161.819 112.621Z" fill="#005085"/>
<path d="M173.697 111.906L173.337 105.967L167.398 106.327L167.758 112.266L173.697 111.906Z" fill="#005085"/>
<path d="M206.714 115.864L200.775 116.225L201.135 122.164L207.074 121.804L206.714 115.864Z" fill="#005085"/>
<path d="M194.839 116.582L188.9 116.942L189.261 122.881L195.2 122.521L194.839 116.582Z" fill="#005085"/>
<path d="M194.482 110.642L194.122 104.703L188.183 105.063L188.543 111.002L194.482 110.642Z" fill="#005085"/>
<path d="M206.36 109.926L206 103.987L200.061 104.347L200.421 110.287L206.36 109.926Z" fill="#005085"/>
<path d="M208.697 148.525L202.758 148.885L203.118 154.824L209.057 154.464L208.697 148.525Z" fill="#005085"/>
<path d="M196.813 149.242L190.874 149.603L191.234 155.542L197.173 155.181L196.813 149.242Z" fill="#005085"/>
<path d="M196.462 143.305L196.102 137.366L190.163 137.726L190.523 143.665L196.462 143.305Z" fill="#005085"/>
<path d="M208.34 142.589L207.98 136.65L202.041 137.011L202.401 142.95L208.34 142.589Z" fill="#005085"/>
<path d="M136.96 112.13C136.96 112.13 126.04 160.11 127.14 169.44C127.14 169.44 125.49 179.6 140.87 188.38L154.32 136.6L136.96 112.13Z" fill="#EE9A80"/>
<path d="M221.51 222.86L153.64 226.83C146.62 227.24 140.6 221.89 140.19 214.87L130.9 61.7099C130.49 54.6899 135.84 48.6699 142.86 48.2599L210.73 44.2899C217.75 43.8799 223.77 49.2299 224.18 56.2499L233.47 209.41C233.88 216.43 228.53 222.45 221.51 222.86Z" fill="#484747"/>
<path d="M152.88 220.03C149.76 220.03 147.17 217.58 146.99 214.47L137.7 61.2901C137.61 59.7201 138.13 58.2101 139.18 57.0301C140.23 55.8501 141.68 55.1501 143.25 55.0601L211.12 51.0901C211.24 51.0901 211.36 51.0801 211.48 51.0801C214.6 51.0801 217.19 53.5301 217.37 56.6401L226.67 209.82C226.86 213.06 224.37 215.86 221.11 216.05L153.24 220.02C153.12 220.02 153 220.03 152.88 220.03Z" fill="white"/>
<path d="M194.04 191.56C200.74 191.56 206.16 186.13 206.16 179.44C206.16 172.75 200.73 167.32 194.04 167.32C187.35 167.32 181.92 172.75 181.92 179.44C181.92 186.13 187.35 191.56 194.04 191.56Z" fill="#EE9A80"/>
<path d="M184.599 125.685L178.66 126.045L179.02 131.984L184.959 131.624L184.599 125.685Z" fill="#005085"/>
<path d="M183.512 107.863L177.573 108.223L177.933 114.162L183.873 113.802L183.512 107.863Z" fill="#005085"/>
<path d="M183.871 113.801L177.932 114.161L178.292 120.1L184.231 119.74L183.871 113.801Z" fill="#005085"/>
<path d="M167.87 120.737L161.931 121.097L162.291 127.036L168.23 126.676L167.87 120.737Z" fill="#005085"/>
<path d="M162.284 127.043L161.924 121.104L155.985 121.464L156.345 127.403L162.284 127.043Z" fill="#005085"/>
<path d="M161.932 121.104L161.571 115.165L155.632 115.525L155.992 121.464L161.932 121.104Z" fill="#005085"/>
<path d="M174.161 126.317L173.801 120.378L167.862 120.738L168.222 126.677L174.161 126.317Z" fill="#005085"/>
<path d="M173.809 120.379L173.448 114.439L167.509 114.8L167.87 120.739L173.809 120.379Z" fill="#005085"/>
<path d="M155.624 115.519L161.563 115.159L161.203 109.22L155.264 109.58L155.624 115.519Z" fill="#005085"/>
<path d="M161.557 115.157L167.496 114.797L167.136 108.858L161.197 109.218L161.557 115.157Z" fill="#005085"/>
<path d="M167.5 114.796L173.439 114.436L173.079 108.497L167.14 108.857L167.5 114.796Z" fill="#005085"/>
<path d="M200.53 118.754L194.591 119.114L194.951 125.053L200.891 124.693L200.53 118.754Z" fill="#005085"/>
<path d="M194.947 125.063L194.587 119.124L188.648 119.484L189.008 125.423L194.947 125.063Z" fill="#005085"/>
<path d="M194.595 119.124L194.235 113.185L188.296 113.545L188.656 119.484L194.595 119.124Z" fill="#005085"/>
<path d="M206.825 124.348L206.465 118.408L200.526 118.769L200.886 124.708L206.825 124.348Z" fill="#005085"/>
<path d="M206.472 118.409L206.112 112.47L200.173 112.83L200.533 118.769L206.472 118.409Z" fill="#005085"/>
<path d="M188.284 113.542L194.223 113.182L193.863 107.243L187.924 107.603L188.284 113.542Z" fill="#005085"/>
<path d="M194.217 113.181L200.156 112.821L199.796 106.881L193.857 107.242L194.217 113.181Z" fill="#005085"/>
<path d="M200.16 112.82L206.099 112.459L205.739 106.52L199.799 106.881L200.16 112.82Z" fill="#005085"/>
<path d="M202.504 151.414L196.564 151.774L196.925 157.713L202.864 157.353L202.504 151.414Z" fill="#005085"/>
<path d="M196.927 157.726L196.567 151.787L190.628 152.147L190.988 158.086L196.927 157.726Z" fill="#005085"/>
<path d="M196.564 151.788L196.204 145.849L190.265 146.209L190.625 152.148L196.564 151.788Z" fill="#005085"/>
<path d="M208.805 157.001L208.445 151.062L202.506 151.422L202.866 157.361L208.805 157.001Z" fill="#005085"/>
<path d="M208.442 151.062L208.082 145.123L202.143 145.483L202.503 151.423L208.442 151.062Z" fill="#005085"/>
<path d="M190.261 146.202L196.2 145.842L195.84 139.902L189.901 140.263L190.261 146.202Z" fill="#005085"/>
<path d="M169.843 153.397L163.904 153.757L164.264 159.696L170.203 159.336L169.843 153.397Z" fill="#005085"/>
<path d="M164.264 159.706L163.904 153.767L157.965 154.127L158.325 160.066L164.264 159.706Z" fill="#005085"/>
<path d="M163.901 153.767L163.541 147.828L157.602 148.188L157.962 154.128L163.901 153.767Z" fill="#005085"/>
<path d="M176.141 158.98L175.781 153.041L169.842 153.401L170.202 159.34L176.141 158.98Z" fill="#005085"/>
<path d="M157.06 139.279L162.999 138.919L162.639 132.98L156.699 133.34L157.06 139.279Z" fill="#005085"/>
<path d="M196.194 145.84L202.133 145.48L201.773 139.541L195.833 139.901L196.194 145.84Z" fill="#005085"/>
<path d="M202.136 145.479L208.075 145.119L207.715 139.18L201.776 139.54L202.136 145.479Z" fill="#005085"/>
<path d="M185.227 137.565L179.288 137.925L179.648 143.864L185.587 143.504L185.227 137.565Z" fill="#005085"/>
<path d="M185.586 143.503L179.647 143.863L180.007 149.802L185.946 149.442L185.586 143.503Z" fill="#005085"/>
<path d="M190.895 131.264L184.956 131.624L185.316 137.563L191.255 137.203L190.895 131.264Z" fill="#005085"/>
<path d="M207.185 130.27L201.246 130.63L201.606 136.569L207.546 136.209L207.185 130.27Z" fill="#005085"/>
<path d="M178.931 131.987L172.992 132.347L173.352 138.286L179.291 137.926L178.931 131.987Z" fill="#005085"/>
<path d="M173.34 138.283L162.999 138.91L163.359 144.849L173.7 144.222L173.34 138.283Z" fill="#005085"/>
<path d="M148.23 116.6L147.49 102.86C147.47 102.45 147.78 102.1 148.19 102.07L162.56 101.04" stroke="#00923A" stroke-width="5" stroke-miterlimit="10"/>
<path d="M197.73 98.6899L211.91 97.9399C212.32 97.9199 212.67 98.2299 212.7 98.6399L213.64 111.65" stroke="#00923A" stroke-width="5" stroke-miterlimit="10"/>
<path d="M213.31 152.14L213.84 160.92C213.86 161.33 213.55 161.68 213.14 161.71L203.97 162.27" stroke="#E81C24" stroke-width="5" stroke-miterlimit="10"/>
<path d="M165.59 166.67L151.97 167.31C151.56 167.33 151.21 167.02 151.18 166.61L149.98 151.36" stroke="#00923A" stroke-width="5" stroke-miterlimit="10"/>
<path d="M205.69 159.15L241.73 191L254.31 159.18L221.78 138.48L205.7 159.14L205.69 159.15Z" fill="#EE9A80"/>
<path d="M225.1 155.36L204.43 185.7L183.66 173.18L202.65 141.7L225.1 155.36Z" fill="#EE9A80"/>
<path d="M213.84 161.73C221.1 161.73 226.98 155.85 226.98 148.59C226.98 141.33 221.1 135.45 213.84 135.45C206.58 135.45 200.7 141.33 200.7 148.59C200.7 155.85 206.58 161.73 213.84 161.73Z" fill="#EE9A80"/>
</g>
<defs>
<clipPath id="clip0_5858_24107">
<rect width="285.4" height="285.4" fill="white"/>
</clipPath>
</defs>
</svg>
