<svg xmlns="http://www.w3.org/2000/svg" clip-rule="evenodd" fill-rule="evenodd" height="107.868" stroke-linejoin="round" stroke-miterlimit="1.414" width="126.404">
    <defs>
        <clipPath id="a">
            <path d="M139.203 72.585l-11.037-32.906 7.341-.336 11.133 31.978V0H0v120.72h146.64V73.073z"/>
        </clipPath>
    </defs>
    <g fill="#ffbb58" fill-rule="nonzero">
        <path d="M27.92 83.306c-3.04-.32-5.503-2.413-6.133-5.21l-11.07-49.193c-.828-3.68 1.72-7.402 5.682-8.296l79.18-17.875a7.87 7.87 0 012.558-.154c3.038.32 5.503 2.413 6.133 5.21l11.07 49.193c.828 3.68-1.72 7.402-5.682 8.297l-79.18 17.874a7.844 7.844 0 01-2.559.154z"/>
        <path d="M97.872 5.1c1.912.2 3.52 1.448 3.924 3.244l11.07 49.193c.522 2.322-1.164 4.68-3.768 5.268L29.918 80.68a5.332 5.332 0 01-1.735.105c-1.912-.201-3.52-1.45-3.924-3.245L13.19 28.347c-.523-2.322 1.164-4.68 3.767-5.268l79.18-17.874a5.33 5.33 0 011.735-.106m.53-5.042a10.395 10.395 0 00-3.381.201L15.84 18.133c-5.325 1.202-8.733 6.283-7.597 11.327l11.07 49.192c.869 3.858 4.22 6.74 8.341 7.174a10.382 10.382 0 003.382-.202l79.18-17.874c5.324-1.203 8.732-6.284 7.596-11.328l-11.071-49.19c-.868-3.859-4.22-6.742-8.34-7.175z"/>
    </g>
    <g fill="#d44454" fill-rule="nonzero">
        <path d="M28.917 105.335c-3.055 0-5.724-1.825-6.643-4.54L6.124 53.028c-1.209-3.574.937-7.542 4.783-8.845L87.786 18.13a7.87 7.87 0 012.528-.42c3.055 0 5.725 1.824 6.644 4.54l16.15 47.766c1.209 3.573-.937 7.542-4.783 8.846l-76.88 26.051a7.844 7.844 0 01-2.528.42z"/>
        <path d="M90.314 20.245c1.922 0 3.652 1.074 4.241 2.818l16.15 47.766c.763 2.254-.668 4.776-3.196 5.633l-76.878 26.051a5.332 5.332 0 01-1.714.286c-1.923 0-3.653-1.073-4.243-2.817L8.525 52.216c-.763-2.254.669-4.777 3.196-5.632l76.878-26.052a5.33 5.33 0 011.715-.287m0-5.07c-1.133 0-2.258.187-3.342.554L10.094 41.781c-5.17 1.752-8.028 7.161-6.371 12.059l16.15 47.766c1.267 3.746 4.902 6.262 9.045 6.262a10.382 10.382 0 003.343-.554l76.877-26.05c5.17-1.753 8.028-7.164 6.371-12.06L99.358 21.439c-1.267-3.747-4.902-6.264-9.044-6.264z"/>
    </g>
    <g fill="#2bc194" fill-rule="nonzero">
        <path d="M16.318 88.377c-3.012-.512-5.337-2.758-5.788-5.589L2.615 32.99c-.593-3.726 2.187-7.278 6.198-7.919L88.97 12.274a7.87 7.87 0 012.563.009c3.012.512 5.338 2.758 5.789 5.59l7.915 49.797c.593 3.726-2.188 7.278-6.198 7.92L18.88 88.385a7.844 7.844 0 01-2.563-.009z"/>
        <path d="M91.108 14.782c1.895.322 3.421 1.67 3.71 3.489l7.914 49.797c.375 2.35-1.458 4.597-4.094 5.018L18.48 85.883a5.332 5.332 0 01-1.739-.006c-1.895-.322-3.42-1.67-3.71-3.488L5.118 32.592c-.374-2.35 1.46-4.597 4.094-5.017L89.37 14.777a5.33 5.33 0 011.738.005m.85-4.998a10.395 10.395 0 00-3.387-.014L8.413 22.567c-5.39.861-9.114 5.715-8.302 10.82l7.915 49.798c.622 3.905 3.784 6.995 7.868 7.69a10.382 10.382 0 003.388.014L99.44 78.092c5.39-.861 9.114-5.716 8.302-10.821l-7.917-49.797c-.621-3.905-3.782-6.996-7.866-7.69z"/>
    </g>
    <g fill="#00b1e6" fill-rule="nonzero">
        <path d="M36.292 96.787c-3.038-.32-5.502-2.413-6.132-5.209L19.09 42.385c-.828-3.681 1.72-7.403 5.682-8.297l79.18-17.875a7.87 7.87 0 012.558-.154c3.038.32 5.503 2.413 6.133 5.21l11.07 49.193c.828 3.68-1.72 7.402-5.682 8.297l-79.18 17.874a7.844 7.844 0 01-2.559.154z"/>
        <path d="M106.245 18.58c1.912.201 3.52 1.45 3.924 3.245l11.07 49.193c.522 2.322-1.164 4.68-3.768 5.268L38.291 94.16a5.332 5.332 0 01-1.735.105c-1.912-.2-3.52-1.45-3.924-3.245L21.563 41.828c-.523-2.322 1.164-4.68 3.767-5.268l79.18-17.874a5.33 5.33 0 011.735-.106m.53-5.042a10.395 10.395 0 00-3.381.201l-79.18 17.875c-5.325 1.202-8.733 6.283-7.597 11.327l11.07 49.192c.869 3.858 4.22 6.74 8.341 7.174a10.382 10.382 0 003.382-.202l79.18-17.874c5.324-1.203 8.732-6.284 7.596-11.328l-11.071-49.19c-.868-3.859-4.22-6.742-8.34-7.175z"/>
    </g>
    <g fill-rule="nonzero">
        <path d="M31.452 97.447c-3.055 0-5.724-1.824-6.643-4.54L8.66 45.14c-1.209-3.574.937-7.542 4.783-8.845l76.879-26.052a7.87 7.87 0 012.528-.42c3.055 0 5.725 1.824 6.644 4.54l16.15 47.766c1.208 3.574-.937 7.542-4.783 8.846L33.98 97.027a7.844 7.844 0 01-2.528.42z" fill="#004c92"/>
        <path d="M92.849 12.358c1.922 0 3.652 1.073 4.241 2.817l16.15 47.766c.763 2.255-.668 4.776-3.196 5.634l-76.878 26.05a5.332 5.332 0 01-1.714.286c-1.923 0-3.653-1.073-4.243-2.816L11.06 44.328c-.763-2.254.669-4.776 3.196-5.632l76.878-26.052a5.33 5.33 0 011.715-.286m0-5.07c-1.133 0-2.258.186-3.342.553L12.629 33.893c-5.17 1.752-8.028 7.162-6.371 12.06l16.15 47.765c1.267 3.746 4.902 6.262 9.045 6.262a10.382 10.382 0 003.342-.553l76.878-26.052c5.17-1.752 8.028-7.162 6.371-12.06l-16.151-47.764c-1.267-3.746-4.902-6.263-9.044-6.263z" fill="#fff"/>
    </g>
    <g clip-path="url(#a)" fill="#fff" fill-rule="nonzero" transform="matrix(.78 0 0 .78 5.006 6.807)">
        <path d="M42.199 40.296h6.083v32.149h-6.083zm13.132 0h11.153c3.283 0 5.954.964 8.014 2.894 2.061 1.929 3.092 4.317 3.092 7.165 0 2.021-.564 3.835-1.691 5.442-1.125 1.607-2.654 2.809-4.585 3.605l7.482 13.043h-6.71L65.568 60.32h-4.153v12.125h-6.083V40.296zm11.153 5.328h-5.069v9.369h5.069c1.448 0 2.607-.429 3.476-1.286.869-.857 1.304-1.99 1.304-3.398 0-1.378-.435-2.503-1.304-3.376-.869-.873-2.028-1.309-3.476-1.309zm34.533 18.286l-5.016-.017-6.489-11.415v19.966h-6.083V40.296h5.407l9.655 17.13 9.705-17.13h5.359v32.149h-6.083V52.513zm38.755 8.535l-2.164-6.843h-11.507l-2.165 6.843h-6.614l11.442-32.149h2.3l10.405 32.149zm-7.918-24.939l-4.258 13.365h8.516z"/>
    </g>
</svg>
