<?xml version="1.0" encoding="utf-8"?>
<!-- Generator: Adobe Illustrator 16.0.4, SVG Export Plug-In . SVG Version: 6.00 Build 0)  -->
<!DOCTYPE svg PUBLIC "-//W3C//DTD SVG 1.1//EN" "http://www.w3.org/Graphics/SVG/1.1/DTD/svg11.dtd">
<svg version="1.1" xmlns="http://www.w3.org/2000/svg" xmlns:xlink="http://www.w3.org/1999/xlink" x="0px" y="0px"
	 width="1190.55px" height="841.89px" viewBox="0 0 1190.55 841.89" enable-background="new 0 0 1190.55 841.89"
	 xml:space="preserve">
<g id="Layer_1">
</g>
<g id="Laag_1">
	<g>
		<polygon fill="#3EA6DE" points="552.844,309.725 637.883,538.174 722.922,538.174 637.883,309.725 		"/>
		<path fill="#E02146" d="M802.842,245.254c0-24.512,19.426-45.326,47.639-45.326s47.639,20.814,47.639,45.326
			s-19.426,45.789-47.639,45.789S802.842,269.766,802.842,245.254z"/>
		<g>
			<polygon fill="#97C6DD" points="893,309.725 893,309.727 893,538.174 893.002,538.174 978.041,309.725 			"/>
			<polygon fill="#E02146" points="893,309.725 807.961,309.725 807.961,538.174 807.961,538.174 893,309.727 			"/>
			<polygon fill="#6A2E4A" points="807.961,538.174 893,538.174 893,309.727 			"/>
		</g>
		<g>
			<polygon fill="#97C6DD" points="552.844,309.725 552.842,309.727 552.842,538.174 552.844,538.174 637.885,309.725 			"/>
			<polygon fill="#E02146" points="552.842,309.725 467.803,309.725 467.803,538.174 467.805,538.174 552.842,309.727 			"/>
			<polygon fill="#6A2E4A" points="467.805,538.174 552.842,538.174 552.842,309.727 			"/>
		</g>
		<path fill="#E02146" d="M297.725,538.174c-7.635,20.516-18.471,25.9-36.51,25.9c-11.562,0-20.77-1.85-29.49-4.625l-1.441,61.051
			c11.947,3.238,27.178,4.625,40.59,4.625c59.201,0,87.168-20.521,105.021-68.488l6.871-18.463H297.725z"/>
		<polygon fill="#E02146" points="552.844,309.725 637.883,538.174 722.922,538.174 637.883,309.725 		"/>
		<path fill="#E02146" d="M462.686,245.254c0-24.512,19.424-45.326,47.637-45.326s47.639,20.814,47.639,45.326
			s-19.426,45.789-47.639,45.789S462.686,269.766,462.686,245.254z"/>
	</g>
	<g>
		<polygon fill="#6A2E4A" points="722.922,309.725 680.402,423.963 722.922,538.174 722.924,538.174 807.963,309.725 		"/>
	</g>
	<g>
		<polygon fill="#6A2E4A" points="382.764,309.725 340.246,423.963 382.766,538.174 382.766,538.174 467.805,309.725 		"/>
	</g>
	<polygon fill="#E02146" points="212.686,309.725 297.725,538.174 382.766,538.174 297.727,309.725 	"/>
	<g>
		<polygon fill="#97C6DD" points="297.727,309.725 297.727,309.725 297.727,309.727 		"/>
		<polygon fill="#E02146" points="212.686,309.725 212.686,309.727 212.686,309.725 		"/>
		<polygon fill="#6A2E4A" points="297.727,309.725 212.686,309.725 212.686,309.727 255.205,423.967 297.727,309.727 		"/>
		<polygon fill="#BA3353" points="637.883,309.725 552.844,309.725 552.844,309.727 595.363,423.967 637.883,309.727 		"/>
		<polygon fill="#BA3353" points="637.883,538.178 722.924,538.178 722.924,538.176 680.402,423.967 637.883,538.176 		"/>
		<polygon fill="#BA3353" points="297.725,538.178 382.766,538.178 382.766,538.176 340.246,423.967 297.725,538.176 		"/>
	</g>
</g>
</svg>
