<?xml version="1.0" encoding="UTF-8" standalone="no"?>
<!-- Generator: Adobe Illustrator 16.0.4, SVG Export Plug-In . SVG Version: 6.00 Build 0)  -->

<svg
   version="1.1"
   x="0px"
   y="0px"
   width="765.35498"
   height="425.19699"
   viewBox="0 0 765.35502 425.1971"
   enable-background="new 0 0 1190.55 841.89"
   xml:space="preserve"
   id="svg176"
   inkscape:version="1.2 (dc2aeda, 2022-05-15)"
   xmlns:inkscape="http://www.inkscape.org/namespaces/inkscape"
   xmlns="http://www.w3.org/2000/svg"
   xmlns:svg="http://www.w3.org/2000/svg"><defs
   id="defs180" />
<g
   id="Laag_1"
   transform="translate(-212.686,-199.928)"
   style="display:inline">
	<g
   id="g149">
		<polygon
   fill="#3ea6de"
   points="637.883,309.725 552.844,309.725 637.883,538.174 722.922,538.174 "
   id="polygon123" />
		<path
   fill="#e02146"
   d="m 802.842,245.254 c 0,-24.512 19.426,-45.326 47.639,-45.326 28.213,0 47.639,20.814 47.639,45.326 0,24.512 -19.426,45.789 -47.639,45.789 -28.213,0 -47.639,-21.277 -47.639,-45.789 z"
   id="path125" />
		<g
   id="g133">
			<polygon
   fill="#97c6dd"
   points="893,309.727 893,538.174 893.002,538.174 978.041,309.725 893,309.725 "
   id="polygon127" />
			<polygon
   fill="#e02146"
   points="807.961,538.174 893,309.727 893,309.725 807.961,309.725 "
   id="polygon129" />
			<polygon
   fill="#6a2e4a"
   points="893,538.174 893,309.727 807.961,538.174 "
   id="polygon131" />
		</g>
		<g
   id="g141">
			<polygon
   fill="#97c6dd"
   points="552.842,309.727 552.842,538.174 552.844,538.174 637.885,309.725 552.844,309.725 "
   id="polygon135" />
			<polygon
   fill="#e02146"
   points="467.803,309.725 467.803,538.174 467.805,538.174 552.842,309.727 552.842,309.725 "
   id="polygon137" />
			<polygon
   fill="#6a2e4a"
   points="552.842,538.174 552.842,309.727 467.805,538.174 "
   id="polygon139" />
		</g>
		<path
   fill="#e02146"
   d="m 297.725,538.174 c -7.635,20.516 -18.471,25.9 -36.51,25.9 -11.562,0 -20.77,-1.85 -29.49,-4.625 l -1.441,61.051 c 11.947,3.238 27.178,4.625 40.59,4.625 59.201,0 87.168,-20.521 105.021,-68.488 l 6.871,-18.463 z"
   id="path143" />
		<polygon
   fill="#e02146"
   points="637.883,309.725 552.844,309.725 637.883,538.174 722.922,538.174 "
   id="polygon145" />
		<path
   fill="#e02146"
   d="m 462.686,245.254 c 0,-24.512 19.424,-45.326 47.637,-45.326 28.213,0 47.639,20.814 47.639,45.326 0,24.512 -19.426,45.789 -47.639,45.789 -28.213,0 -47.637,-21.277 -47.637,-45.789 z"
   id="path147" />
	</g>
	<g
   id="g153">
		<polygon
   fill="#6a2e4a"
   points="680.402,423.963 722.922,538.174 722.924,538.174 807.963,309.725 722.922,309.725 "
   id="polygon151" />
	</g>
	<g
   id="g157">
		<polygon
   fill="#6a2e4a"
   points="382.764,309.725 340.246,423.963 382.766,538.174 467.805,309.725 "
   id="polygon155"
   style="display:inline" />
	</g>
	<polygon
   fill="#e02146"
   points="297.725,538.174 382.766,538.174 297.727,309.725 212.686,309.725 "
   id="polygon159"
   style="display:inline" />
	<g
   id="g173"
   style="display:inline">
		<polygon
   fill="#97c6dd"
   points="297.727,309.725 297.727,309.727 "
   id="polygon161" />
		<polygon
   fill="#e02146"
   points="212.686,309.727 212.686,309.725 "
   id="polygon163" />
		<polygon
   fill="#6a2e4a"
   points="255.205,423.967 297.727,309.727 297.727,309.725 212.686,309.725 212.686,309.727 "
   id="polygon165" />
		<polygon
   fill="#ba3353"
   points="595.363,423.967 637.883,309.727 637.883,309.725 552.844,309.725 552.844,309.727 "
   id="polygon167" />
		<polygon
   fill="#ba3353"
   points="680.402,423.967 637.883,538.176 637.883,538.178 722.924,538.178 722.924,538.176 "
   id="polygon169" />
		<polygon
   fill="#ba3353"
   points="340.246,423.967 297.725,538.176 297.725,538.178 382.766,538.178 382.766,538.176 "
   id="polygon171" />
	</g>
</g>
</svg>
