<?xml version="1.0" encoding="UTF-8"?>
<svg width="44px" height="44px" viewBox="0 0 44 44" version="1.1" xmlns="http://www.w3.org/2000/svg" xmlns:xlink="http://www.w3.org/1999/xlink">
    <!-- Generator: Sketch 64 (93537) - https://sketch.com -->
    <title>noun_call_906214</title>
    <desc>Created with Sketch.</desc>
    <g id="#117-|-Disclosure-Call" stroke="none" stroke-width="1" fill="none" fill-rule="evenodd">
        <g id="117.2.4-|-call-flow-second-screen" transform="translate(-45.000000, -406.000000)" fill="#004C92" fill-rule="nonzero">
            <g id="noun_call_906214" transform="translate(46.000000, 407.000000)">
                <path d="M21,0 C9.40490798,0 0,9.40490798 0,21 C0,32.595092 9.40490798,42 21,42 C32.595092,42 42,32.595092 42,21 C42,9.40490798 32.595092,0 21,0 Z M21,38.4355828 C11.3803681,38.4355828 3.52147239,30.6196319 3.52147239,20.9570552 C3.52147239,11.3374233 11.3803681,3.52147239 21,3.52147239 C30.6196319,3.52147239 38.4785276,11.3374233 38.4785276,21 C38.4355828,30.6196319 30.6196319,38.4355828 21,38.4355828 Z" id="Shape" stroke="#FFFFFF"></path>
                <path d="M29,26.961898 L25.1105683,23.3064343 C25.1105683,23.3064343 23.1017409,25.5592201 22.2041798,25.219177 C22.2041798,25.219177 19.3832733,23.5614667 17.2462229,19.0133897 C16.8188128,18.1632819 19.7679423,16.5905824 19.7679423,16.5905824 L17.0325178,12 C17.0325178,12 12.7156761,14.167775 13.0148631,16.6330877 C13.3140502,19.1409059 15.2801365,25.9417686 23.0589999,29.7247485 C25.7516834,31.0849211 29,26.961898 29,26.961898 Z" id="Path"></path>
            </g>
        </g>
    </g>
</svg>