<?xml version="1.0" encoding="UTF-8"?>
<svg width="36px" height="68px" viewBox="0 0 36 68" version="1.1" xmlns="http://www.w3.org/2000/svg" xmlns:xlink="http://www.w3.org/1999/xlink">
    <!-- Generator: Sketch 64 (93537) - https://sketch.com -->
    <title>noun_number pad_374833</title>
    <desc>Created with Sketch.</desc>
    <g id="#117-|-Disclosure-Call" stroke="none" stroke-width="1" fill="none" fill-rule="evenodd">
        <g id="117.2.4-|-call-flow-second-screen" transform="translate(-49.000000, -248.000000)" fill="#004C92" fill-rule="nonzero">
            <g id="noun_number-pad_374833" transform="translate(49.000000, 248.000000)">
                <path d="M3.69228778,0 C1.66261945,0 0,1.70113334 0,3.77777773 L0,64.222222 C0,66.2990553 1.66261945,68 3.69228778,68 L31.3844489,68 C33.4141181,68 35.076737,66.2990553 35.076737,64.222222 L35.076737,28.3185771 C35.5791467,28.317066 36.0064921,27.9188108 35.9999058,27.3851997 L35.9999058,25.5110668 C36.0071937,24.9831223 35.590722,24.5559331 35.076737,24.5555553 L35.076737,24.5334194 C35.5791467,24.5319083 36.0064921,24.133655 35.9999058,23.6000439 L35.9999058,21.725911 C36.0071937,21.1979665 35.590722,20.7709662 35.076737,20.7703995 L35.076737,18.1916233 C35.5837067,18.1727344 35.9861882,17.7512997 35.978176,17.2324219 L35.978176,16.0703125 C35.9855605,15.5514347 35.5837067,15.1232 35.076737,15.1111111 L35.076737,3.77777773 C35.076737,1.70094443 33.4140997,0 31.3844489,0 L3.69228778,0 Z M3.69228778,1.88888884 L31.3844489,1.88888884 C32.4230895,1.88888884 33.230593,2.71471106 33.230593,3.77777773 L33.230593,11.3333333 L1.84614407,11.3333333 L1.84614407,3.77777773 C1.84614407,2.71471106 2.65364768,1.88888884 3.69228778,1.88888884 Z M13.8460802,5.66666662 C13.3362675,5.66666662 12.9230082,6.08958884 12.9230082,6.61111106 C12.9230082,7.13282217 13.3362675,7.55555551 13.8460802,7.55555551 C14.3558744,7.55555551 14.7691522,7.13282217 14.7691522,6.61111106 C14.7691522,6.08958884 14.3558744,5.66666662 13.8460802,5.66666662 Z M17.5203407,5.66666662 C16.2720704,5.64777773 16.2720704,7.57368884 17.5203407,7.55555551 L21.2450804,7.55555551 C22.4933507,7.5744444 22.4933507,5.64872217 21.2450804,5.66666662 L17.5203407,5.66666662 Z M1.84614407,13.2222222 L33.230593,13.2222222 L33.230593,20.7814665 L33.230593,21.725911 L33.230593,23.6000439 L33.230593,24.5444883 L33.230593,24.5666223 L33.230593,25.5110668 L33.230593,27.3851997 L33.230593,28.3296441 L33.230593,54.7777775 L1.84614407,54.7777775 L1.84614407,13.2222222 Z M7.29803792,20.7777775 L7.29803792,21.722222 L7.29803792,26.4444442 L12.8364701,26.4444442 L12.8364701,20.7777775 L7.29803792,20.7777775 Z M14.7619412,20.7777775 L14.7619412,21.722222 L14.7619412,26.4444442 L20.3003734,26.4444442 L20.3003734,20.7777775 L14.7619412,20.7777775 Z M22.1465175,20.7777775 L22.1465175,21.722222 L22.1465175,26.4444442 L27.6849497,26.4444442 L27.6849497,20.7777775 L22.1465175,20.7777775 Z M9.144182,22.6666664 L10.9903261,22.6666664 L10.9903261,24.5555553 L9.144182,24.5555553 L9.144182,22.6666664 Z M16.6080853,22.6666664 L18.4542293,22.6666664 L18.4542293,24.5555553 L16.6080853,24.5555553 L16.6080853,22.6666664 Z M23.9926616,22.6666664 L25.8388056,22.6666664 L25.8388056,24.5555553 L23.9926616,24.5555553 L23.9926616,22.6666664 Z M7.37736489,28.3333331 L7.37736489,29.2777775 L7.37736489,33.9999998 L12.9157971,33.9999998 L12.9157971,28.3333331 L7.37736489,28.3333331 Z M14.7619412,28.3333331 L14.7619412,29.2777775 L14.7619412,33.9999998 L20.3003734,33.9999998 L20.3003734,28.3333331 L14.7619412,28.3333331 Z M22.1465175,28.3333331 L22.1465175,29.2777775 L22.1465175,33.9999998 L27.6849497,33.9999998 L27.6849497,28.3333331 L22.1465175,28.3333331 Z M9.22350896,30.222222 L11.069653,30.222222 L11.069653,32.1111109 L9.22350896,32.1111109 L9.22350896,30.222222 Z M16.6080853,30.222222 L18.4542293,30.222222 L18.4542293,32.1111109 L16.6080853,32.1111109 L16.6080853,30.222222 Z M23.9926616,30.222222 L25.8388056,30.222222 L25.8388056,32.1111109 L23.9926616,32.1111109 L23.9926616,30.222222 Z M7.37736489,35.8888887 L7.37736489,36.8333331 L7.37736489,41.5555553 L12.9157971,41.5555553 L12.9157971,35.8888887 L7.37736489,35.8888887 Z M14.7619412,35.8888887 L14.7619412,36.8333331 L14.7619412,41.5555553 L20.3003734,41.5555553 L20.3003734,35.8888887 L14.7619412,35.8888887 Z M22.1465175,35.8888887 L22.1465175,36.8333331 L22.1465175,41.5555553 L27.6849497,41.5555553 L27.6849497,35.8888887 L22.1465175,35.8888887 Z M9.22350896,37.7777775 L11.069653,37.7777775 L11.069653,39.6666664 L9.22350896,39.6666664 L9.22350896,37.7777775 Z M16.6080853,37.7777775 L18.4542293,37.7777775 L18.4542293,39.6666664 L16.6080853,39.6666664 L16.6080853,37.7777775 Z M23.9926616,37.7777775 L25.8388056,37.7777775 L25.8388056,39.6666664 L23.9926616,39.6666664 L23.9926616,37.7777775 Z M14.7619412,43.4444442 L14.7619412,44.3888887 L14.7619412,49.1111109 L20.3003734,49.1111109 L20.3003734,43.4444442 L14.7619412,43.4444442 Z M16.6080853,45.3333331 L18.4542293,45.3333331 L18.4542293,47.222222 L16.6080853,47.222222 L16.6080853,45.3333331 Z M1.84614407,56.6666664 L33.230593,56.6666664 L33.230593,64.222222 C33.230593,65.2854775 32.4230711,66.1111109 31.3844489,66.1111109 L3.69228778,66.1111109 C2.65364768,66.1111109 1.84614407,65.2854775 1.84614407,64.222222 L1.84614407,56.6666664 Z M17.6501468,59.4999998 C16.5754325,59.4999998 15.6814077,60.4095999 15.6814077,61.5106332 C15.6814077,62.6114777 16.575451,63.5249557 17.6501468,63.5249557 C18.7248427,63.5249557 19.6188859,62.6114777 19.6188859,61.5106332 C19.6188859,60.4095999 18.7248611,59.4999998 17.6501468,59.4999998 Z" id="Shape"></path>
            </g>
        </g>
    </g>
</svg>