<svg width="1191" height="842" viewBox="0 0 1191 842" fill="none" xmlns="http://www.w3.org/2000/svg">
<g clip-path="url(#clip0_5106_13600)">
<path d="M474.085 618.43H469.107V579.074H455.549V574.542H487.646V579.074H474.088V618.43H474.085Z" fill="black"/>
<path d="M515.315 618.43V597.146C515.315 594.464 514.72 592.462 513.531 591.141C512.34 589.821 510.475 589.157 507.937 589.157C504.558 589.157 502.095 590.099 500.543 591.982C498.99 593.864 498.217 596.944 498.217 601.227V618.427H493.357V571.717H498.217V585.857C498.217 587.558 498.14 588.967 497.982 590.088H498.277C499.234 588.507 500.594 587.259 502.361 586.352C504.129 585.439 506.145 584.984 508.407 584.984C512.331 584.984 515.275 585.939 517.237 587.851C519.202 589.76 520.178 592.798 520.178 596.959V618.424H515.315V618.43Z" fill="black"/>
<path d="M543.72 619.033C538.977 619.033 535.234 617.552 532.49 614.589C529.747 611.626 528.375 607.516 528.375 602.249C528.375 596.947 529.65 592.734 532.196 589.613C534.745 586.492 538.164 584.929 542.46 584.929C546.481 584.929 549.666 586.285 552.006 588.998C554.349 591.709 555.523 595.284 555.523 599.728V602.882H533.413C533.51 606.743 534.461 609.677 536.268 611.679C538.072 613.682 540.619 614.68 543.895 614.68C547.352 614.68 550.766 613.939 554.145 612.455V616.899C552.424 617.663 550.8 618.205 549.268 618.538C547.736 618.867 545.888 619.033 543.72 619.033ZM542.403 589.104C539.828 589.104 537.772 589.964 536.239 591.683C534.707 593.408 533.802 595.788 533.533 598.829H550.31C550.31 595.688 549.629 593.279 548.26 591.607C546.893 589.938 544.943 589.104 542.403 589.104Z" fill="black"/>
<path d="M580.119 618.43V574.542H585.097V618.43H580.119Z" fill="black"/>
<path d="M617.952 614.018H617.688C615.443 617.364 612.087 619.033 607.613 619.033C603.417 619.033 600.152 617.564 597.818 614.618C595.487 611.679 594.318 607.495 594.318 602.073C594.318 596.651 595.49 592.435 597.832 589.435C600.175 586.434 603.437 584.932 607.613 584.932C611.969 584.932 615.309 586.554 617.629 589.795H618.009L617.806 587.423L617.688 585.11V571.722H622.549V618.433H618.596L617.952 614.018ZM608.229 614.858C611.548 614.858 613.954 613.936 615.449 612.083C616.941 610.233 617.688 607.247 617.688 603.121V602.073C617.688 597.41 616.933 594.084 615.42 592.09C613.908 590.099 611.491 589.104 608.171 589.104C605.322 589.104 603.14 590.24 601.627 592.509C600.115 594.781 599.359 597.989 599.359 602.129C599.359 606.333 600.112 609.507 601.613 611.647C603.117 613.79 605.322 614.858 608.229 614.858Z" fill="black"/>
<path d="M646.417 619.033C641.671 619.033 637.927 617.552 635.186 614.589C632.441 611.626 631.068 607.516 631.068 602.249C631.068 596.947 632.345 592.734 634.891 589.613C637.44 586.492 640.859 584.929 645.156 584.929C649.174 584.929 652.361 586.285 654.703 588.998C657.044 591.709 658.217 595.284 658.217 599.728V602.882H636.109C636.205 606.743 637.157 609.677 638.963 611.679C640.768 613.682 643.314 614.68 646.591 614.68C650.048 614.68 653.459 613.939 656.841 612.455V616.899C655.118 617.663 653.496 618.205 651.961 618.538C650.435 618.867 648.584 619.033 646.417 619.033ZM645.102 589.104C642.527 589.104 640.468 589.964 638.938 591.683C637.403 593.408 636.5 595.788 636.23 598.829H653.01C653.01 595.688 652.327 593.279 650.959 591.607C649.59 589.938 647.64 589.104 645.102 589.104Z" fill="black"/>
<path d="M688.466 618.43V597.146C688.466 594.464 687.871 592.462 686.681 591.141C685.492 589.821 683.628 589.157 681.091 589.157C677.73 589.157 675.272 590.088 673.708 591.95C672.148 593.812 671.37 596.885 671.37 601.163V618.424H666.507V585.523H670.459L671.253 590.026H671.486C672.485 588.404 673.878 587.151 675.675 586.258C677.468 585.368 679.469 584.923 681.677 584.923C685.542 584.923 688.449 585.878 690.404 587.79C692.355 589.698 693.328 592.755 693.328 596.959V618.424H688.466V618.43Z" fill="black"/>
<path d="M713.681 614.92C714.542 614.92 715.37 614.856 716.169 614.724C716.971 614.595 717.604 614.46 718.074 614.32V618.131C717.545 618.392 716.772 618.606 715.748 618.779C714.725 618.948 713.798 619.033 712.978 619.033C706.772 619.033 703.665 615.681 703.665 608.974V589.399H699.073V586.999L703.665 584.929L705.716 577.906H708.527V585.529H717.841V589.399H708.527V608.763C708.527 610.745 708.985 612.264 709.904 613.327C710.824 614.39 712.08 614.92 713.681 614.92Z" fill="black"/>
<path d="M724.08 576.614C724.08 575.47 724.355 574.635 724.895 574.108C725.444 573.575 726.131 573.312 726.946 573.312C727.728 573.312 728.402 573.584 728.972 574.123C729.533 574.665 729.816 575.496 729.816 576.617C729.816 577.739 729.533 578.573 728.972 579.12C728.402 579.671 727.728 579.946 726.946 579.946C726.131 579.946 725.449 579.671 724.895 579.12C724.35 578.57 724.08 577.736 724.08 576.614ZM729.35 618.43H724.492V585.529H729.35V618.43Z" fill="black"/>
<path d="M750.019 614.92C750.88 614.92 751.712 614.856 752.511 614.724C753.309 614.595 753.946 614.46 754.416 614.32V618.131C753.883 618.392 753.11 618.606 752.086 618.779C751.063 618.948 750.14 619.033 749.32 619.033C743.11 619.033 740.007 615.681 740.007 608.974V589.399H735.411V586.999L740.007 584.929L742.058 577.906H744.865V585.529H754.179V589.399H744.865V608.763C744.865 610.745 745.323 612.264 746.242 613.327C747.161 614.39 748.422 614.92 750.019 614.92Z" fill="black"/>
<path d="M755.73 585.529H760.942L767.967 604.289C769.511 608.575 770.467 611.667 770.838 613.567H771.075C771.328 612.545 771.857 610.8 772.672 608.33C773.479 605.856 776.133 598.259 780.621 585.529H785.833L772.04 622.994C770.671 626.698 769.078 629.324 767.252 630.872C765.426 632.424 763.184 633.2 760.53 633.2C759.045 633.2 757.585 633.027 756.142 632.691V628.697C757.211 628.937 758.413 629.057 759.74 629.057C763.08 629.057 765.459 627.137 766.886 623.293L768.675 618.608L755.73 585.529Z" fill="black"/>
<path d="M844.724 618.43H839.803L831.168 589.039C830.752 587.742 830.294 586.1 829.791 584.115C829.284 582.136 829.017 580.944 829.001 580.543C828.572 583.184 827.886 586.079 826.95 589.221L818.577 618.43H813.656L802.263 574.542H807.533L814.297 601.649C815.233 605.454 815.915 608.898 816.347 611.974C816.876 608.315 817.654 604.732 818.689 601.23L826.364 574.542H831.634L839.687 601.47C840.623 604.573 841.417 608.075 842.062 611.974C842.432 609.135 843.131 605.674 844.167 601.59L850.901 574.542H856.175L844.724 618.43Z" fill="black"/>
<path d="M881.885 618.43L880.916 613.746H880.683C879.082 615.807 877.485 617.203 875.892 617.935C874.298 618.664 872.314 619.03 869.935 619.03C866.753 619.03 864.257 618.19 862.456 616.51C860.647 614.829 859.744 612.437 859.744 609.334C859.744 602.691 864.931 599.21 875.297 598.888L880.742 598.709V596.669C880.742 594.084 880.205 592.18 879.119 590.948C878.034 589.719 876.303 589.104 873.924 589.104C871.245 589.104 868.221 589.944 864.844 591.624L863.351 587.81C864.931 586.928 866.666 586.24 868.546 585.74C870.43 585.239 872.319 584.987 874.215 584.987C878.042 584.987 880.875 585.86 882.722 587.599C884.573 589.344 885.492 592.134 885.492 595.975V618.43H881.885ZM870.9 614.92C873.928 614.92 876.303 614.068 878.034 612.367C879.76 610.666 880.621 608.283 880.621 605.223V602.249L875.763 602.46C871.894 602.6 869.111 603.215 867.402 604.307C865.692 605.396 864.84 607.094 864.84 609.395C864.84 611.196 865.372 612.566 866.437 613.505C867.502 614.448 868.987 614.92 870.9 614.92Z" fill="black"/>
<path d="M900.362 618.43H895.5V571.719H900.362V618.43Z" fill="black"/>
<path d="M915.528 618.43H910.67V571.719H915.528V618.43Z" fill="black"/>
<path d="M939.396 619.033C934.65 619.033 930.91 617.552 928.165 614.589C925.42 611.626 924.047 607.516 924.047 602.249C924.047 596.947 925.324 592.734 927.87 589.613C930.419 586.492 933.839 584.929 938.135 584.929C942.153 584.929 945.34 586.285 947.682 588.998C950.023 591.709 951.196 595.284 951.196 599.728V602.882H929.088C929.184 606.743 930.136 609.677 931.942 611.679C933.747 613.682 936.293 614.68 939.57 614.68C943.027 614.68 946.438 613.939 949.82 612.455V616.899C948.097 617.663 946.475 618.205 944.94 618.538C943.414 618.867 941.563 619.033 939.396 619.033ZM938.077 589.104C935.502 589.104 933.448 589.964 931.913 591.683C930.382 593.408 929.475 595.788 929.209 598.829H945.984C945.984 595.688 945.302 593.279 943.934 591.607C942.569 589.938 940.619 589.104 938.077 589.104Z" fill="black"/>
<path d="M969.848 614.92C970.709 614.92 971.541 614.856 972.339 614.724C973.138 614.595 973.774 614.46 974.244 614.32V618.131C973.712 618.392 972.938 618.606 971.915 618.779C970.892 618.948 969.968 619.033 969.149 619.033C962.939 619.033 959.836 615.681 959.836 608.974V589.399H955.239V586.999L959.836 584.929L961.886 577.906H964.694V585.529H974.007V589.399H964.694V608.763C964.694 610.745 965.151 612.264 966.071 613.327C966.99 614.39 968.25 614.92 969.848 614.92Z" fill="black"/>
<path d="M775.405 252.234C775.405 228.312 793.952 208 820.885 208C847.819 208 866.366 228.312 866.366 252.234C866.366 276.153 847.819 296.916 820.885 296.916C793.948 296.916 775.405 276.153 775.405 252.234Z" fill="#E02146"/>
<path d="M861.475 315.149V315.152V538.087H861.479L942.661 315.149H861.475Z" fill="#97C6DD"/>
<path d="M861.475 315.149H780.292V538.087L861.475 315.152V315.149Z" fill="#E02146"/>
<path d="M780.292 538.087H861.475V315.153L780.292 538.087Z" fill="#6A2E4A"/>
<path d="M536.741 315.149L536.738 315.152V538.087H536.741L617.924 315.149H536.741Z" fill="#97C6DD"/>
<path d="M536.738 315.149H455.552V538.087H455.558L536.738 315.152V315.149Z" fill="#E02146"/>
<path d="M455.558 538.087H536.738V315.153L455.558 538.087Z" fill="#6A2E4A"/>
<path d="M293.186 538.087C285.897 558.109 275.552 563.364 258.331 563.364C247.293 563.364 238.503 561.561 230.177 558.85L228.803 618.433C240.207 621.592 254.751 622.945 267.55 622.945C324.071 622.945 350.772 602.919 367.816 556.106L374.371 538.09H293.186V538.087Z" fill="#E02146"/>
<path d="M536.741 315.149L617.924 538.087H699.106L617.924 315.149H536.741Z" fill="#E02146"/>
<path d="M450.669 252.234C450.669 228.312 469.214 208 496.146 208C523.079 208 541.624 228.312 541.624 252.234C541.624 276.153 523.079 296.916 496.146 296.916C469.214 296.916 450.669 276.153 450.669 252.234Z" fill="#E02146"/>
<path d="M699.106 315.149L658.517 426.631L699.106 538.087H699.11L780.296 315.149H699.106Z" fill="#6A2E4A"/>
<path d="M374.369 315.149L333.78 426.631L374.369 538.087L455.558 315.149H374.369Z" fill="#6A2E4A"/>
<path d="M212 315.149L293.186 538.087H374.369L293.189 315.149H212Z" fill="#E02146"/>
<path d="M293.189 315.149H212L252.591 426.637L293.189 315.149Z" fill="#6A2E4A"/>
<path d="M617.924 315.149H536.741L577.329 426.637L617.924 315.149Z" fill="#BA3353"/>
<path d="M617.924 538.092H699.11V538.089L658.517 426.636L617.924 538.089V538.092Z" fill="#BA3353"/>
<path d="M293.186 538.092H374.369V538.089L333.78 426.636L293.186 538.089V538.092Z" fill="#BA3353"/>
</g>
<defs>
<clipPath id="clip0_5106_13600">
<rect width="765.36" height="425.2" fill="white" transform="translate(212 208)"/>
</clipPath>
</defs>
</svg>
