<?xml version="1.0" encoding="UTF-8"?>
<svg width="219px" height="214px" viewBox="0 0 219 214" version="1.1" xmlns="http://www.w3.org/2000/svg" xmlns:xlink="http://www.w3.org/1999/xlink">
    <!-- Generator: Sketch 61.2 (89653) - https://sketch.com -->
    <title>step_4</title>
    <desc>Created with Sketch.</desc>
    <defs>
        <polygon id="path-1" points="0 0.606964286 188.767869 0.606964286 188.767869 11 0 11"></polygon>
        <polygon id="path-3" points="0 117 189 117 189 0 0 0"></polygon>
        <linearGradient x1="50%" y1="0%" x2="50%" y2="100%" id="linearGradient-5">
            <stop stop-color="#FFFFFF" stop-opacity="0.5" offset="0%"></stop>
            <stop stop-color="#000000" stop-opacity="0.5" offset="100%"></stop>
        </linearGradient>
        <path d="M1.90512085,47.413147 C2.59835815,46.8789074 6.62998454,47.0078584 14,47.8 L14,50.8 L2,50.8 C1.24350993,49.0763376 1.21188354,47.9473866 1.90512085,47.413147 Z" id="path-6"></path>
        <linearGradient x1="50%" y1="0%" x2="50%" y2="100%" id="linearGradient-7">
            <stop stop-color="#FFFFFF" stop-opacity="0.5" offset="0%"></stop>
            <stop stop-color="#000000" stop-opacity="0.5" offset="100%"></stop>
        </linearGradient>
        <path d="M4.92703247,69.7794298 C5.62026978,69.4914009 9.50863304,69.5697944 16.5921223,70.0146102 L16.5921223,71.6320246 L4.59212225,71.6320246 C4.12215843,70.6849904 4.23379517,70.0674588 4.92703247,69.7794298 Z" id="path-8"></path>
        <path d="M8.82878351,0.173773196 L9.08407268,0.177601497 C13.5776597,0.312546519 17.1785567,3.99796564 17.1785567,8.52354639 L17.1785567,8.52354639 L17.1747291,8.77883632 C17.0398104,13.2724498 13.3550928,16.8740619 8.82878351,16.8740619 L8.82878351,16.8740619 L8.57349433,16.8702335 C4.07990734,16.7352883 0.479010309,13.0498557 0.479010309,8.52354639 C0.479010309,3.91257732 4.21707216,0.173773196 8.82878351,0.173773196 L8.82878351,0.173773196 Z M8.82878351,1.21740206 L8.58762197,1.22130741 C4.66427589,1.34855459 1.52263918,4.5692767 1.52263918,8.52354639 C1.52263918,12.5585155 4.79381443,15.830433 8.82878351,15.830433 L8.82878351,15.830433 L9.06994504,15.8265268 C12.9932911,15.6992511 16.1349278,12.4778161 16.1349278,8.52354639 L16.1349278,8.52354639 L16.1310225,8.28238486 C16.0037753,4.35903878 12.7830532,1.21740206 8.82878351,1.21740206 L8.82878351,1.21740206 Z M13.0047835,4.40321649 L13.0893673,4.41030284 C13.1736031,4.42446392 13.2558557,4.45981443 13.3276701,4.51604124 L13.3276701,4.51604124 L13.3961135,4.58085172 C13.5598076,4.76657961 13.5721237,5.04816495 13.4137732,5.24940206 L13.4137732,5.24940206 L7.96181443,12.1458144 L7.87513606,12.2480031 C7.63102864,12.5064467 7.28676289,12.6507216 6.92783505,12.6401649 L6.92783505,12.6401649 L6.79431539,12.6288853 C6.4422543,12.5802153 6.1257732,12.3849897 5.93245361,12.0953402 L5.93245361,12.0953402 L4.22746392,9.67628866 L4.18022859,9.59464936 C4.07594044,9.36996105 4.14375258,9.09665979 4.35290722,8.94886598 L4.35290722,8.94886598 L4.43454652,8.90182716 C4.65923482,8.79793814 4.93253608,8.86523711 5.0803299,9.07505155 L5.0803299,9.07505155 L6.79274227,11.5044948 L6.82488015,11.5424665 C6.86103093,11.5759381 6.90835052,11.5954227 6.95901031,11.5965361 L6.95901031,11.5965361 L7.00876546,11.5921057 C7.05740722,11.5815979 7.10208247,11.5529278 7.13715464,11.5067216 L7.13715464,11.5067216 L12.5943093,4.60214433 C12.6974845,4.47224742 12.8503918,4.40395876 13.0047835,4.40321649 L13.0047835,4.40321649 Z" id="path-9"></path>
    </defs>
    <g id="step_4" stroke="none" stroke-width="1" fill="none" fill-rule="evenodd">
        <g id="Background" transform="translate(15.000000, 42.000000)">
            <g id="Group-3" transform="translate(0.000000, 106.000000)">
                <mask id="mask-2" fill="white">
                    <use xlink:href="#path-1"></use>
                </mask>
                <g id="Clip-2"></g>
                <path d="M110.531562,0.606964286 C110.531562,2.05189286 109.215831,3.23360714 107.607715,3.23360714 L81.1622538,3.23360714 C79.5541385,3.23360714 78.2384077,2.05189286 78.2384077,0.606964286 L-0.000323076923,0.606964286 L-0.000323076923,6.22167857 L0.00533076923,6.22167857 C0.0667153846,8.85460714 3.38794615,11.0003929 5.71086923,11.0003929 L183.055869,11.0003929 C185.382831,11.0003929 188.701638,8.85460714 188.763023,6.22167857 L188.767869,0.606964286 L110.531562,0.606964286 Z" id="Fill-1" fill="#D9E0E4" mask="url(#mask-2)"></path>
            </g>
            <mask id="mask-4" fill="white">
                <use xlink:href="#path-3"></use>
            </mask>
            <g id="Clip-5"></g>
            <path d="M26.8143727,93.3258757 L162.184012,93.3258757 L162.184012,9.05426212 L26.8143727,9.05426212 L26.8143727,93.3258757 Z M96.5192369,3.99673728 C96.5192369,5.11246281 95.6154264,6.01651557 94.5,6.01651557 C93.3845736,6.01651557 92.4807631,5.11246281 92.4807631,3.99673728 C92.4807631,2.88101175 93.3845736,1.97695899 94.5,1.97695899 C95.6154264,1.97695899 96.5192369,2.88101175 96.5192369,3.99673728 Z M26.8781806,104 L26.8781806,102.250064 L38.0833298,102.250064 L38.0833298,104 L150.127552,104 L150.127552,102.250064 L161.334317,102.250064 L161.334317,104 L165.788754,104 C168.650416,104 171,101.65221 171,98.7865483 L171,5.20375679 C171,2.33971117 168.650416,0 165.788754,0 L23.2104388,0 C20.3471609,0 18,2.33971117 18,5.20375679 L18,98.7865483 C18,101.65221 20.3471609,104 23.2104388,104 L26.8781806,104 Z" id="Fill-4" fill="#D4DBE0" mask="url(#mask-4)"></path>
        </g>
        <g id="Interface-Essential-/-Form-Validation-/-check-circle-1" transform="translate(92.000000, 61.000000)" fill="#E8ECF0">
            <g id="Group">
                <g id="check-circle-1">
                    <path d="M18,-2.00073291e-15 C8.0588745,-2.00073291e-15 0,8.0588745 0,18 C0,27.9411255 8.0588745,36 18,36 C27.9411255,36 36,27.9411255 36,18 C35.9884279,8.06367179 27.9363282,0.0115721434 18,-2.00073291e-15 Z M28.3905,12.3 L18.123,26.2335 C17.8781304,26.5583845 17.5129924,26.7712576 17.1096328,26.8242867 C16.7062732,26.8773158 16.2985216,26.7660533 15.978,26.5155 L8.646,20.6535 C7.99899842,20.135733 7.89423305,19.1915016 8.412,18.5445 C8.92976695,17.8974984 9.87399842,17.792733 10.521,18.3105 L16.635,23.202 L25.9755,10.5255 C26.281788,10.065885 26.8158766,9.81177398 27.3657173,9.86405628 C27.915558,9.91633858 28.3921835,10.2665547 28.6063596,10.7756586 C28.8205357,11.2847626 28.7376075,11.8703785 28.3905,12.3 Z" id="Shape"></path>
                </g>
            </g>
        </g>
        <g id="Group-3" transform="translate(86.000000, 87.000000)">
            <g id="Rectangle">
                <use fill="#E5858C" xlink:href="#path-6"></use>
                <use fill-opacity="0.4" fill="url(#linearGradient-5)" style="mix-blend-mode: multiply;" xlink:href="#path-6"></use>
            </g>
            <g id="Rectangle" transform="translate(10.449714, 70.620825) scale(1, -1) translate(-10.449714, -70.620825) ">
                <use fill="#E5858C" xlink:href="#path-8"></use>
                <use fill="url(#linearGradient-7)" style="mix-blend-mode: multiply;" xlink:href="#path-8"></use>
            </g>
            <g id="Phone" transform="translate(7.000000, 0.000000)">
                <path d="M35.4867378,83.0882431 L6.50578299,83.0882431 C3.17029687,83.0882431 0.466373264,80.3843194 0.466373264,77.0495799 L0.466373264,6.06150694 C0.466373264,2.72676736 3.17029687,0.0220972222 6.50578299,0.0220972222 L35.4867378,0.0220972222 C38.822224,0.0220972222 41.5261476,2.72676736 41.5261476,6.06150694 L41.5261476,77.0495799 C41.5261476,80.3843194 38.822224,83.0882431 35.4867378,83.0882431" id="Fill-20" fill="#1A3F61"></path>
                <path d="M35.4867378,83.0882431 L6.50578299,83.0882431 C3.17029687,83.0882431 0.466373264,80.3843194 0.466373264,77.0495799 L0.466373264,6.06150694 C0.466373264,2.72676736 3.17029687,0.0220972222 6.50578299,0.0220972222 L35.4867378,0.0220972222 C38.822224,0.0220972222 41.5261476,2.72676736 41.5261476,6.06150694 L41.5261476,77.0495799 C41.5261476,80.3843194 38.822224,83.0882431 35.4867378,83.0882431 Z" id="Stroke-22" stroke="#1A3F61" stroke-width="0.746527778"></path>
                <path d="M35.0463611,1.97038542 L32.0930972,1.97038542 C31.751934,1.97038542 31.4480972,2.18463889 31.3323854,2.50639236 L30.9195556,3.66425694 C30.650059,4.41601042 29.9378715,4.91767708 29.1398333,4.91767708 L12.7356319,4.91767708 C11.8920556,4.91767708 11.1507535,4.35852778 10.9193299,3.54779861 L10.6356493,2.55566319 C10.5363611,2.20927431 10.2198333,1.97038542 9.85926042,1.97038542 L6.94630903,1.97038542 C4.47231597,1.97038542 2.46714236,3.97630556 2.46714236,6.44955208 L2.46714236,76.6612361 C2.46714236,79.1352292 4.47231597,81.1404028 6.94630903,81.1404028 L35.0463611,81.1404028 C37.5196076,81.1404028 39.5255278,79.1352292 39.5255278,76.6612361 L39.5255278,6.44955208 C39.5255278,3.97630556 37.5196076,1.97038542 35.0463611,1.97038542" id="Fill-24" fill="#FEFEFE"></path>
                <g id="access" transform="translate(12.000000, 27.618754)">
                    <mask id="mask-10" fill="white">
                        <use xlink:href="#path-9"></use>
                    </mask>
                    <g id="Clip-71"></g>
                    <polygon id="Fill-70" fill="#193F61" mask="url(#mask-10)" points="-3 20.3538144 20.6583093 20.3538144 20.6583093 -4 -3 -4"></polygon>
                </g>
            </g>
            <g id="Hand" transform="translate(0.000000, 44.645055)">
                <path d="M64.7431966,56.3452974 C64.7431966,56.3452974 62.8052105,21.5026065 55.4041341,10.5144641 C48.0038043,-0.473678264 37.5397244,-0.911143541 36.7327279,0.680453681 C33.8257487,3.58743285 48.5868424,16.409794 48.5868424,23.7630926 L48.5868424,32.8154884 C48.5868424,36.1330578 45.8978494,38.8213044 42.5810265,38.8213044 L13.5672244,38.8213044 C13.5672244,38.8213044 23.0802279,51.201721 30.4760786,57.1321377 C37.8711827,63.0625544 52.9264084,77.1734224 52.9264084,77.1734224 L64.7431966,56.3452974 Z" id="Fill-49" fill="#EF888B"></path>
                <g id="vingers" transform="translate(7.000000, 14.854945) rotate(-5.000000) translate(-7.000000, -14.854945) translate(2.000000, 2.354945)">
                    <g id="Group-5" transform="translate(-0.000000, 0.000000)">
                        <path d="M0.930920354,0.0341393038 C1.37734397,-0.445878057 9.71120681,4.23634416 9.4312589,7.76891361 C9.15131098,11.3022296 5.15178841,9.43367055 5.15178841,9.43367055 C5.15178841,9.43367055 10.0583422,12.227924 9.77988737,14.5399206 C9.50143251,16.850424 5.00546897,17.7014657 5.00546897,17.7014657 C5.00546897,17.7014657 7.35217903,18.9937053 7.26707487,20.9092956 C7.1819707,22.8241393 2.09065126,24.2507539 2.09065126,24.2507539 C2.09065126,24.2507539 0.680833549,24.5120386 0.640521049,19.3759275 C0.714800563,17.3543303 1.68155403,16.8967087 1.68155403,16.8967087 C1.68155403,16.8967087 0.266137368,15.7433233 0.349375215,11.7897122 C0.406857854,9.95176083 1.30493077,8.66773305 1.30493077,8.66773305 C1.30493077,8.66773305 -0.0511369375,7.17691708 0.00149327084,3.44577125 C0.0186634097,0.315580276 0.930920354,0.0341393038 0.930920354,0.0341393038" id="Fill-51" fill="#EF888B"></path>
                        <path d="M8.72918685,9.41239451 C8.72918685,9.41239451 8.72993338,9.41164798 8.72993338,9.41090146 C8.92589692,9.23397437 9.08677365,8.99359243 9.20808442,8.68676951 C7.71726844,9.68562368 2.52143511,6.71444312 0.686469833,7.56175215 C0.999638236,8.30230771 1.3049681,8.66810632 1.3049681,8.66810632 C1.3049681,8.66810632 1.47741601,8.13135285 5.15182574,9.43329729 C7.2040306,10.1611619 8.21706879,9.83716882 8.72918685,9.41239451" id="Fill-53" fill="#E17981"></path>
                        <path d="M1.10754883,16.0859049 C1.36920681,16.5771202 1.61294813,16.8301931 1.65027452,16.8630403 C2.0825141,16.8518424 3.00783528,16.9944292 5.01450195,17.699898 C5.05966688,17.6901931 8.28317383,17.0601237 9.40221897,15.4461306 C7.92334744,16.3942209 3.57631619,16.3180751 1.10754883,16.0859049" id="Fill-55" fill="#E17981"></path>
                        <path d="M1.06215994,23.0080837 C1.43803667,24.3936393 2.09050195,24.2510525 2.09050195,24.2510525 C2.09050195,24.2510525 5.61709917,23.4679449 6.83729883,21.8502192 C5.3946339,22.6855837 2.84710785,23.2387608 1.06215994,23.0080837" id="Fill-57" fill="#E17981"></path>
                    </g>
                </g>
                <path d="M53.9681133,65.7235526 C53.9666202,65.7235526 53.9651272,65.7235526 53.9636341,65.7228061 C42.5775924,64.5044728 27.4387556,54.1381881 26.7616549,53.6716082 C27.865023,54.6816603 28.9803355,55.6655839 30.0971411,56.5621638 C35.1026098,60.5754971 43.547332,68.2736915 48.5251793,72.8693165 C49.8577313,70.8088999 51.7740681,68.2826499 53.9681133,65.7235526" id="Fill-59" fill="#E17981"></path>
                <path d="M98.5906914,82.8615908 L100.654841,82.8615908 C85.5488511,67.7003582 71.2289553,53.9657401 69.150622,53.7895596 C63.1739206,53.2841603 46.4248233,73.5396985 46.6301185,76.9169901 C46.6547539,77.3051846 47.8021671,79.4178582 49.8409345,82.8615908 L98.5906914,82.8615908 Z" id="Fill-61" fill="#D44454"></path>
                <path d="M44.826806,41.1573391 C50.4421879,38.7139537 48.7050178,31.8974085 48.7050178,31.8974085 L48.5825872,31.9459328 C48.5825872,35.8219051 46.1660768,38.8087627 41.4017365,38.8087627 L22.4055907,38.8087627 C22.4063372,38.8087627 39.211424,43.6007245 44.826806,41.1573391" id="Fill-63" fill="#E17981"></path>
            </g>
        </g>
    </g>
</svg>