<?xml version="1.0" encoding="UTF-8"?>
<svg width="219px" height="214px" viewBox="0 0 219 214" version="1.1" xmlns="http://www.w3.org/2000/svg" xmlns:xlink="http://www.w3.org/1999/xlink">
    <!-- Generator: Sketch 61.2 (89653) - https://sketch.com -->
    <title>step_3</title>
    <desc>Created with Sketch.</desc>
    <defs>
        <polygon id="path-1" points="0 0.606964286 188.767869 0.606964286 188.767869 11 0 11"></polygon>
        <polygon id="path-3" points="0 117 189 117 189 0 0 0"></polygon>
        <linearGradient x1="50%" y1="0%" x2="50%" y2="100%" id="linearGradient-5">
            <stop stop-color="#FFFFFF" stop-opacity="0.5" offset="0%"></stop>
            <stop stop-color="#000000" stop-opacity="0.5" offset="100%"></stop>
        </linearGradient>
        <path d="M1.90512085,47.413147 C2.59835815,46.8789074 6.62998454,47.0078584 14,47.8 L14,50.8 L2,50.8 C1.24350993,49.0763376 1.21188354,47.9473866 1.90512085,47.413147 Z" id="path-6"></path>
        <linearGradient x1="50%" y1="0%" x2="50%" y2="100%" id="linearGradient-7">
            <stop stop-color="#FFFFFF" stop-opacity="0.5" offset="0%"></stop>
            <stop stop-color="#000000" stop-opacity="0.5" offset="100%"></stop>
        </linearGradient>
        <path d="M4.92703247,69.7794298 C5.62026978,69.4914009 9.50863304,69.5697944 16.5921223,70.0146102 L16.5921223,71.6320246 L4.59212225,71.6320246 C4.12215843,70.6849904 4.23379517,70.0674588 4.92703247,69.7794298 Z" id="path-8"></path>
    </defs>
    <g id="step_3" stroke="none" stroke-width="1" fill="none" fill-rule="evenodd">
        <g id="Background" transform="translate(15.000000, 45.000000)">
            <g id="Group-3" transform="translate(0.000000, 106.000000)">
                <mask id="mask-2" fill="white">
                    <use xlink:href="#path-1"></use>
                </mask>
                <g id="Clip-2"></g>
                <path d="M110.531562,0.606964286 C110.531562,2.05189286 109.215831,3.23360714 107.607715,3.23360714 L81.1622538,3.23360714 C79.5541385,3.23360714 78.2384077,2.05189286 78.2384077,0.606964286 L-0.000323076923,0.606964286 L-0.000323076923,6.22167857 L0.00533076923,6.22167857 C0.0667153846,8.85460714 3.38794615,11.0003929 5.71086923,11.0003929 L183.055869,11.0003929 C185.382831,11.0003929 188.701638,8.85460714 188.763023,6.22167857 L188.767869,0.606964286 L110.531562,0.606964286 Z" id="Fill-1" fill="#D9E0E4" mask="url(#mask-2)"></path>
            </g>
            <mask id="mask-4" fill="white">
                <use xlink:href="#path-3"></use>
            </mask>
            <g id="Clip-5"></g>
            <path d="M26.8143727,93.3258757 L162.184012,93.3258757 L162.184012,9.05426212 L26.8143727,9.05426212 L26.8143727,93.3258757 Z M96.5192369,3.99673728 C96.5192369,5.11246281 95.6154264,6.01651557 94.5,6.01651557 C93.3845736,6.01651557 92.4807631,5.11246281 92.4807631,3.99673728 C92.4807631,2.88101175 93.3845736,1.97695899 94.5,1.97695899 C95.6154264,1.97695899 96.5192369,2.88101175 96.5192369,3.99673728 Z M26.8781806,104 L26.8781806,102.250064 L38.0833298,102.250064 L38.0833298,104 L150.127552,104 L150.127552,102.250064 L161.334317,102.250064 L161.334317,104 L165.788754,104 C168.650416,104 171,101.65221 171,98.7865483 L171,5.20375679 C171,2.33971117 168.650416,0 165.788754,0 L23.2104388,0 C20.3471609,0 18,2.33971117 18,5.20375679 L18,98.7865483 C18,101.65221 20.3471609,104 23.2104388,104 L26.8781806,104 Z" id="Fill-4" fill="#D4DBE0" mask="url(#mask-4)"></path>
            <g id="Group-21" mask="url(#mask-4)" fill="#D9E0E4">
                <g transform="translate(60.000000, 16.000000)">
                    <polygon id="Fill-1" points="52 15.3333333 62 15.3333333 62 6.33333333 52 6.33333333"></polygon>
                    <polygon id="Fill-2" points="6 15.3333333 16 15.3333333 16 6.33333333 6 6.33333333"></polygon>
                    <polygon id="Fill-3" points="6 61.3333333 16 61.3333333 16 52.3333333 6 52.3333333"></polygon>
                    <path d="M0,67.3333333 L23,67.3333333 L23,45.3333333 L0,45.3333333 L0,67.3333333 Z M3.11185037,64.3570019 L19.8879185,64.3570019 L19.8879185,48.310107 L3.11185037,48.310107 L3.11185037,64.3570019 Z" id="Fill-4"></path>
                    <path d="M0,22.3333333 L23,22.3333333 L23,0.333333333 L0,0.333333333 L0,22.3333333 Z M3.11185037,19.3567509 L19.8879185,19.3567509 L19.8879185,3.30969467 L3.11185037,3.30969467 L3.11185037,19.3567509 Z" id="Fill-5"></path>
                    <path d="M45,22.3333333 L68,22.3333333 L68,0.333333333 L45,0.333333333 L45,22.3333333 Z M48.1116505,19.3567509 L64.8881184,19.3567509 L64.8881184,3.30969467 L48.1116505,3.30969467 L48.1116505,19.3567509 Z" id="Fill-6"></path>
                    <polygon id="Fill-7" points="39 3.33333333 42 3.33333333 42 0.333333333 39 0.333333333"></polygon>
                    <polygon id="Fill-8" points="45 48.3333333 48 48.3333333 48 45.3333333 45 45.3333333"></polygon>
                    <path d="M25.6676995,0.333333333 L25.6676995,0.743475201 L25.6416264,0.743475201 L25.6416264,26.320403 L19.2428204,26.320403 L19.2428204,29.5509507 L16,29.5509507 L16,36.0444855 L19.0498791,36.0444855 L25.5400544,36.0444855 L25.5400544,32.8001 L19.2428204,32.8001 L19.2428204,29.5650153 L25.6416264,29.5650153 L25.6416264,32.6442552 L28.8021463,32.6442552 L28.8021463,39.3333333 L31.5912938,39.3333333 L32.0449667,39.3333333 L35.3503628,39.3333333 L35.3503628,36.088721 L35.3598851,36.088721 L37.7824214,36.088721 L38.6029323,36.088721 L38.6029323,32.8536363 L41.7600514,32.8536363 L41.7600514,29.6092508 L38.6029323,29.6092508 L38.6029323,26.320403 L41.7514359,26.320403 L41.7514359,29.5650153 L45.0992291,29.5650153 L45.0992291,32.8001 L41.856182,32.8001 L41.856182,36.0444855 L45.0992291,36.0444855 L48.3420496,36.0444855 L48.3420496,29.5650153 L51.6095828,29.5650153 L51.6095828,36.0444855 L54.7571796,36.0444855 L54.7571796,36.079647 L58,36.079647 L58,32.8350347 L54.8524033,32.8350347 L54.8524033,29.5650153 L58,29.5650153 L58,26.320403 L41.7600514,26.320403 L41.7600514,19.9384776 L38.6029323,19.9384776 L38.6029323,16.6938652 L41.7600514,16.6938652 L41.7600514,13.4492529 L41.7600514,10.2046405 L41.7600514,6.96002815 L28.8844468,6.96002815 L28.8844468,3.57794568 L35.2054867,3.57794568 L35.2054867,0.333333333 L25.6676995,0.333333333 Z M35.3503628,13.4492529 L35.3503628,10.2046405 L38.5170042,10.2046405 L38.5170042,13.4492529 L38.5170042,16.6938652 L35.3598851,16.6938652 L35.3598851,19.9384776 L38.5170042,19.9384776 L38.5170042,23.1293268 L36.1608978,23.1293268 L35.3598851,23.1293268 L35.3503628,23.1293268 L35.3503628,19.8259608 L32.1075423,19.8259608 L32.1075423,26.2078862 L34.0308343,26.2078862 L34.9785369,26.2078862 L35.3503628,26.2078862 L35.3598851,26.2078862 L35.3598851,32.9514079 L35.3503628,32.9514079 L33.9353839,32.9514079 L32.0449667,32.9514079 L32.0449667,26.3739392 L28.8844468,26.3739392 L28.8844468,19.9384776 L32.0449667,19.9384776 L32.0449667,16.6938652 L28.8844468,16.6938652 L28.8844468,10.2046405 L32.1075423,10.2046405 L32.1075423,13.4492529 L35.3503628,13.4492529 Z" id="Fill-9"></path>
                    <polygon id="Fill-10" points="26 67.3333333 36 67.3333333 36 64.3333333 26 64.3333333"></polygon>
                    <polygon id="Fill-11" points="16 41.3333333 16 38.3386914 16 38.3279753 16 35.3333333 13.0489217 35.3333333 12.9510783 35.3333333 10 35.3333333 10 38.3386914 12.9510783 38.3386914 12.9510783 41.3333333"></polygon>
                    <polygon id="Fill-12" points="12.7649902 26.3333333 12.7649902 29.375648 3.23478359 29.375648 3.23478359 26.3333333 0 26.3333333 0 29.5197882 3.10383626 29.5197882 3.10383626 32.7966926 0 32.7966926 0 35.8831182 0 35.9831474 0 39.1468785 0 39.9099078 0 42.3333333 9.47072626 42.3333333 9.47072626 39.1468785 3.23478359 39.1468785 3.23478359 35.9831474 9.47072626 35.9831474 9.47072626 32.8454819 12.7649902 32.8454819 12.7649902 29.5197882 16 29.5197882 16 26.3333333"></polygon>
                    <polygon id="Fill-13" points="23 39.3333333 20 39.3333333 20 42.3333333 23 42.3333333 26 42.3333333 26 39.3333333"></polygon>
                    <polygon id="Fill-14" points="42 54.3333333 45 54.3333333 45.0002097 54.3333333 48 54.3333333 48 51.3333333 45.0002097 51.3333333 45 51.3333333 42 51.3333333"></polygon>
                    <polygon id="Fill-15" points="32.7088638 48.273359 36 48.273359 36 45.2133847 32.7816419 45.2133847 32.7816419 42.3333333 29.3909395 42.3333333 29.3907024 42.3333333 26 42.3333333 26 45.2133847 26 45.3933077 26 48.273359 29.3181613 48.273359 29.3181613 51.3333333 32.7088638 51.3333333"></polygon>
                    <polygon id="Fill-16" points="65 29.3333333 68 29.3333333 68 26.3333333 65 26.3333333"></polygon>
                    <polygon id="Fill-17" points="61 29.3333333 61 42.3333333 63.3696115 42.3333333 64.4363331 42.3333333 68 42.3333333 68 35.8333333 64.4363331 35.8333333 64.4363331 29.3333333"></polygon>
                    <polygon id="Fill-18" points="65 67.3333333 68 67.3333333 68 64.3333333 65 64.3333333"></polygon>
                    <polygon id="Fill-19" points="26 54.3333333 29 54.3333333 29 51.3333333 26 51.3333333"></polygon>
                    <polygon id="Fill-20" points="48.523204 35.3333333 48.523204 38.5381283 45.2716874 38.5381283 45.2671376 38.5381283 38.7595546 38.5381283 38.7595546 41.7429233 38.7618295 41.7429233 38.7618295 44.8025245 38.7618295 44.9380835 38.7618295 48.0655762 38.7511375 48.0655762 36.8909506 48.0655762 35.4971185 48.0655762 35.4971185 54.4827844 35.4875639 54.4827844 33.1587473 54.4827844 32.2337724 54.4827844 32.2337724 57.6878034 29 57.6878034 29 60.8923743 32.253564 60.8923743 35.5073555 60.8923743 38.7511375 60.8923743 38.7511375 60.8659347 38.7511375 60.5296139 38.7511375 57.6878034 38.7618295 57.6878034 42.015621 57.6878034 42.015621 54.4827844 38.7618295 54.4827844 38.7511375 54.4827844 38.7511375 51.1061319 38.7618295 51.1061319 41.9102931 51.1061319 41.9102931 48.0655762 41.9102931 44.9380835 42.015621 44.9380835 45.2694125 44.9380835 45.2694125 41.7429233 45.2716874 41.7429233 51.8020194 41.7429233 51.8020194 51.1590111 51.8020194 51.3382628 51.8020194 60.8659347 48.5466355 60.8659347 48.5466355 57.6611397 45.2926165 57.6611397 45.2926165 60.8659347 42.03746 60.8659347 42.03746 63.9595937 38.7602371 63.9595937 38.7602371 67.2708193 48.5247964 67.2708193 48.5247964 63.9595937 51.8020194 63.9595937 55.0330619 63.9595937 55.0330619 67.3333333 58.2138291 67.3333333 58.2138291 63.9595937 55.0555834 63.9595937 55.0555834 60.7642094 58.2138291 60.7642094 58.2138291 57.5594144 55.0555834 57.5594144 55.0555834 54.4657555 58.2138291 54.4657555 58.2138291 51.2609605 55.0555834 51.2609605 55.0555834 51.1590111 55.0555834 44.9380835 58.2138291 44.9380835 58.2138291 47.9544402 61.4678481 47.9544402 61.4678481 54.4657555 58.2823036 54.4657555 58.2823036 57.5594144 61.4678481 57.5594144 64.7214121 57.5594144 68 57.5594144 68 54.4657555 64.7214121 54.4657555 64.7214121 44.7590559 61.4678481 44.7590559 61.4678481 44.7496452 58.2138291 44.7496452 58.2138291 41.7332885 55.0555834 41.7332885 55.0555834 38.5381283 51.8020194 38.5381283 51.777223 38.5381283 51.777223 35.3333333"></polygon>
                </g>
            </g>
        </g>
        <g id="Group-6" transform="translate(86.000000, 87.000000)">
            <g id="Rectangle">
                <use fill="#E5858C" xlink:href="#path-6"></use>
                <use fill-opacity="0.4" fill="url(#linearGradient-5)" style="mix-blend-mode: multiply;" xlink:href="#path-6"></use>
            </g>
            <g id="Rectangle" transform="translate(10.449714, 70.620825) scale(1, -1) translate(-10.449714, -70.620825) ">
                <use fill="#E5858C" xlink:href="#path-8"></use>
                <use fill="url(#linearGradient-7)" style="mix-blend-mode: multiply;" xlink:href="#path-8"></use>
            </g>
            <g id="Group-3">
                <g id="Phone" transform="translate(7.000000, 0.000000)">
                    <path d="M35.4867378,83.0882431 L6.50578299,83.0882431 C3.17029687,83.0882431 0.466373264,80.3843194 0.466373264,77.0495799 L0.466373264,6.06150694 C0.466373264,2.72676736 3.17029687,0.0220972222 6.50578299,0.0220972222 L35.4867378,0.0220972222 C38.822224,0.0220972222 41.5261476,2.72676736 41.5261476,6.06150694 L41.5261476,77.0495799 C41.5261476,80.3843194 38.822224,83.0882431 35.4867378,83.0882431" id="Fill-20" fill="#1A3F61"></path>
                    <path d="M35.4867378,83.0882431 L6.50578299,83.0882431 C3.17029687,83.0882431 0.466373264,80.3843194 0.466373264,77.0495799 L0.466373264,6.06150694 C0.466373264,2.72676736 3.17029687,0.0220972222 6.50578299,0.0220972222 L35.4867378,0.0220972222 C38.822224,0.0220972222 41.5261476,2.72676736 41.5261476,6.06150694 L41.5261476,77.0495799 C41.5261476,80.3843194 38.822224,83.0882431 35.4867378,83.0882431 Z" id="Stroke-22" stroke="#1A3F61" stroke-width="0.746527778"></path>
                    <path d="M35.0463611,1.97038542 L32.0930972,1.97038542 C31.751934,1.97038542 31.4480972,2.18463889 31.3323854,2.50639236 L30.9195556,3.66425694 C30.650059,4.41601042 29.9378715,4.91767708 29.1398333,4.91767708 L12.7356319,4.91767708 C11.8920556,4.91767708 11.1507535,4.35852778 10.9193299,3.54779861 L10.6356493,2.55566319 C10.5363611,2.20927431 10.2198333,1.97038542 9.85926042,1.97038542 L6.94630903,1.97038542 C4.47231597,1.97038542 2.46714236,3.97630556 2.46714236,6.44955208 L2.46714236,76.6612361 C2.46714236,79.1352292 4.47231597,81.1404028 6.94630903,81.1404028 L35.0463611,81.1404028 C37.5196076,81.1404028 39.5255278,79.1352292 39.5255278,76.6612361 L39.5255278,6.44955208 C39.5255278,3.97630556 37.5196076,1.97038542 35.0463611,1.97038542" id="Fill-24" fill="#FEFEFE"></path>
                    <path d="M32.9477083,75.2635122 L9.05060764,75.2635122 C7.37166667,75.2635122 6.01,73.9018455 6.01,72.2229045 C6.01,70.543217 7.37166667,69.1822969 9.05060764,69.1822969 L32.9477083,69.1822969 C34.6273958,69.1822969 35.988316,70.543217 35.988316,72.2229045 C35.988316,73.9018455 34.6273958,75.2635122 32.9477083,75.2635122" id="Fill-26" fill="#004C92"></path>
                    <path d="M34.7565421,32.5561308 L7.24095549,32.5561308 C5.93691727,32.5561308 4.88,31.523636 4.88,30.2513886 L4.88,16.4125432 C4.88,15.1395535 5.93691727,14.1078009 7.24095549,14.1078009 L34.7565421,14.1078009 C36.0605803,14.1078009 37.1174976,15.1395535 37.1174976,16.4125432 L37.1174976,30.2513886 C37.1174976,31.523636 36.0605803,32.5561308 34.7565421,32.5561308" id="Fill-68" fill="#E7EBEF"></path>
                    <text id="Accept" font-family="Montserrat-Bold, Montserrat" font-size="3" font-weight="bold" fill="#FFFFFF">
                        <tspan x="15.4188415" y="73.0364236">Accept</tspan>
                    </text>
                </g>
                <g id="Hand" transform="translate(0.000000, 44.645055)">
                    <path d="M64.7431966,56.3452974 C64.7431966,56.3452974 62.8052105,21.5026065 55.4041341,10.5144641 C48.0038043,-0.473678264 37.5397244,-0.911143541 36.7327279,0.680453681 C33.8257487,3.58743285 48.5868424,16.409794 48.5868424,23.7630926 L48.5868424,32.8154884 C48.5868424,36.1330578 45.8978494,38.8213044 42.5810265,38.8213044 L13.5672244,38.8213044 C13.5672244,38.8213044 23.0802279,51.201721 30.4760786,57.1321377 C37.8711827,63.0625544 52.9264084,77.1734224 52.9264084,77.1734224 L64.7431966,56.3452974 Z" id="Fill-49" fill="#EF888B"></path>
                    <g id="vingers" transform="translate(7.000000, 14.854945) rotate(-5.000000) translate(-7.000000, -14.854945) translate(2.000000, 2.354945)">
                        <g id="Group-5" transform="translate(-0.000000, 0.000000)">
                            <path d="M0.930920354,0.0341393038 C1.37734397,-0.445878057 9.71120681,4.23634416 9.4312589,7.76891361 C9.15131098,11.3022296 5.15178841,9.43367055 5.15178841,9.43367055 C5.15178841,9.43367055 10.0583422,12.227924 9.77988737,14.5399206 C9.50143251,16.850424 5.00546897,17.7014657 5.00546897,17.7014657 C5.00546897,17.7014657 7.35217903,18.9937053 7.26707487,20.9092956 C7.1819707,22.8241393 2.09065126,24.2507539 2.09065126,24.2507539 C2.09065126,24.2507539 0.680833549,24.5120386 0.640521049,19.3759275 C0.714800563,17.3543303 1.68155403,16.8967087 1.68155403,16.8967087 C1.68155403,16.8967087 0.266137368,15.7433233 0.349375215,11.7897122 C0.406857854,9.95176083 1.30493077,8.66773305 1.30493077,8.66773305 C1.30493077,8.66773305 -0.0511369375,7.17691708 0.00149327084,3.44577125 C0.0186634097,0.315580276 0.930920354,0.0341393038 0.930920354,0.0341393038" id="Fill-51" fill="#EF888B"></path>
                            <path d="M8.72918685,9.41239451 C8.72918685,9.41239451 8.72993338,9.41164798 8.72993338,9.41090146 C8.92589692,9.23397437 9.08677365,8.99359243 9.20808442,8.68676951 C7.71726844,9.68562368 2.52143511,6.71444312 0.686469833,7.56175215 C0.999638236,8.30230771 1.3049681,8.66810632 1.3049681,8.66810632 C1.3049681,8.66810632 1.47741601,8.13135285 5.15182574,9.43329729 C7.2040306,10.1611619 8.21706879,9.83716882 8.72918685,9.41239451" id="Fill-53" fill="#E17981"></path>
                            <path d="M1.10754883,16.0859049 C1.36920681,16.5771202 1.61294813,16.8301931 1.65027452,16.8630403 C2.0825141,16.8518424 3.00783528,16.9944292 5.01450195,17.699898 C5.05966688,17.6901931 8.28317383,17.0601237 9.40221897,15.4461306 C7.92334744,16.3942209 3.57631619,16.3180751 1.10754883,16.0859049" id="Fill-55" fill="#E17981"></path>
                            <path d="M1.06215994,23.0080837 C1.43803667,24.3936393 2.09050195,24.2510525 2.09050195,24.2510525 C2.09050195,24.2510525 5.61709917,23.4679449 6.83729883,21.8502192 C5.3946339,22.6855837 2.84710785,23.2387608 1.06215994,23.0080837" id="Fill-57" fill="#E17981"></path>
                        </g>
                    </g>
                    <path d="M53.9681133,65.7235526 C53.9666202,65.7235526 53.9651272,65.7235526 53.9636341,65.7228061 C42.5775924,64.5044728 27.4387556,54.1381881 26.7616549,53.6716082 C27.865023,54.6816603 28.9803355,55.6655839 30.0971411,56.5621638 C35.1026098,60.5754971 43.547332,68.2736915 48.5251793,72.8693165 C49.8577313,70.8088999 51.7740681,68.2826499 53.9681133,65.7235526" id="Fill-59" fill="#E17981"></path>
                    <path d="M98.5906914,82.8615908 L100.654841,82.8615908 C85.5488511,67.7003582 71.2289553,53.9657401 69.150622,53.7895596 C63.1739206,53.2841603 46.4248233,73.5396985 46.6301185,76.9169901 C46.6547539,77.3051846 47.8021671,79.4178582 49.8409345,82.8615908 L98.5906914,82.8615908 Z" id="Fill-61" fill="#D44454"></path>
                    <path d="M44.826806,41.1573391 C50.4421879,38.7139537 48.7050178,31.8974085 48.7050178,31.8974085 L48.5825872,31.9459328 C48.5825872,35.8219051 46.1660768,38.8087627 41.4017365,38.8087627 L22.4055907,38.8087627 C22.4063372,38.8087627 39.211424,43.6007245 44.826806,41.1573391" id="Fill-63" fill="#E17981"></path>
                </g>
            </g>
        </g>
    </g>
</svg>