<?xml version="1.0" encoding="UTF-8"?>
<svg width="219px" height="214px" viewBox="0 0 219 214" version="1.1" xmlns="http://www.w3.org/2000/svg" xmlns:xlink="http://www.w3.org/1999/xlink">
    <!-- Generator: Sketch 61.2 (89653) - https://sketch.com -->
    <title>q1_step_4</title>
    <desc>Created with Sketch.</desc>
    <defs>
        <polygon id="path-1" points="0.0375803403 0.0764042553 99.9806805 0.0764042553 99.9806805 26.9233277 0.0375803403 26.9233277"></polygon>
        <polygon id="path-3" points="0 0.123441818 31.9931429 0.123441818 31.9931429 8.02822364 0 8.02822364"></polygon>
        <polygon id="path-5" points="0.0308033613 0.116721818 31.9623664 0.116721818 31.9623664 2.92727273 0.0308033613 2.92727273"></polygon>
        <linearGradient x1="50%" y1="0%" x2="50%" y2="100%" id="linearGradient-7">
            <stop stop-color="#FFFFFF" stop-opacity="0.5" offset="0%"></stop>
            <stop stop-color="#000000" stop-opacity="0.5" offset="100%"></stop>
        </linearGradient>
        <path d="M1.90512085,47.413147 C2.59835815,46.8789074 6.62998454,47.0078584 14,47.8 L14,50.8 L2,50.8 C1.24350993,49.0763376 1.21188354,47.9473866 1.90512085,47.413147 Z" id="path-8"></path>
        <linearGradient x1="50%" y1="0%" x2="50%" y2="100%" id="linearGradient-9">
            <stop stop-color="#FFFFFF" stop-opacity="0.5" offset="0%"></stop>
            <stop stop-color="#000000" stop-opacity="0.5" offset="100%"></stop>
        </linearGradient>
        <path d="M4.92703247,69.7794298 C5.62026978,69.4914009 9.50863304,69.5697944 16.5921223,70.0146102 L16.5921223,71.6320246 L4.59212225,71.6320246 C4.12215843,70.6849904 4.23379517,70.0674588 4.92703247,69.7794298 Z" id="path-10"></path>
        <path d="M8.82878351,0.173773196 L9.08407268,0.177601497 C13.5776597,0.312546519 17.1785567,3.99796564 17.1785567,8.52354639 L17.1785567,8.52354639 L17.1747291,8.77883632 C17.0398104,13.2724498 13.3550928,16.8740619 8.82878351,16.8740619 L8.82878351,16.8740619 L8.57349433,16.8702335 C4.07990734,16.7352883 0.479010309,13.0498557 0.479010309,8.52354639 C0.479010309,3.91257732 4.21707216,0.173773196 8.82878351,0.173773196 L8.82878351,0.173773196 Z M8.82878351,1.21740206 L8.58762197,1.22130741 C4.66427589,1.34855459 1.52263918,4.5692767 1.52263918,8.52354639 C1.52263918,12.5585155 4.79381443,15.830433 8.82878351,15.830433 L8.82878351,15.830433 L9.06994504,15.8265268 C12.9932911,15.6992511 16.1349278,12.4778161 16.1349278,8.52354639 L16.1349278,8.52354639 L16.1310225,8.28238486 C16.0037753,4.35903878 12.7830532,1.21740206 8.82878351,1.21740206 L8.82878351,1.21740206 Z M13.0047835,4.40321649 L13.0893673,4.41030284 C13.1736031,4.42446392 13.2558557,4.45981443 13.3276701,4.51604124 L13.3276701,4.51604124 L13.3961135,4.58085172 C13.5598076,4.76657961 13.5721237,5.04816495 13.4137732,5.24940206 L13.4137732,5.24940206 L7.96181443,12.1458144 L7.87513606,12.2480031 C7.63102864,12.5064467 7.28676289,12.6507216 6.92783505,12.6401649 L6.92783505,12.6401649 L6.79431539,12.6288853 C6.4422543,12.5802153 6.1257732,12.3849897 5.93245361,12.0953402 L5.93245361,12.0953402 L4.22746392,9.67628866 L4.18022859,9.59464936 C4.07594044,9.36996105 4.14375258,9.09665979 4.35290722,8.94886598 L4.35290722,8.94886598 L4.43454652,8.90182716 C4.65923482,8.79793814 4.93253608,8.86523711 5.0803299,9.07505155 L5.0803299,9.07505155 L6.79274227,11.5044948 L6.82488015,11.5424665 C6.86103093,11.5759381 6.90835052,11.5954227 6.95901031,11.5965361 L6.95901031,11.5965361 L7.00876546,11.5921057 C7.05740722,11.5815979 7.10208247,11.5529278 7.13715464,11.5067216 L7.13715464,11.5067216 L12.5943093,4.60214433 C12.6974845,4.47224742 12.8503918,4.40395876 13.0047835,4.40321649 L13.0047835,4.40321649 Z" id="path-11"></path>
    </defs>
    <g id="q1_step_4" stroke="none" stroke-width="1" fill="none" fill-rule="evenodd">
        <g id="Eethoek" transform="translate(5.000000, 0.000000)">
            <g id="Group" transform="translate(1.000000, 0.000000)">
                <g id="Group-9" transform="translate(0.000000, 152.000000)">
                    <g id="Group-3" transform="translate(0.000000, 2.000000)" fill="#D4DBE0">
                        <path d="M99.9998866,13.4802444 C99.9998866,20.842688 77.6142039,26.8098782 50.0002649,26.8098782 C22.3857584,26.8098782 -0.000113421551,20.842688 -0.000113421551,13.4802444 C-0.000113421551,6.11894155 22.3857584,0.151371127 50.0002649,0.151371127 C77.6142039,0.151371127 99.9998866,6.11894155 99.9998866,13.4802444" id="Fill-1"></path>
                        <rect id="Rectangle" x="0" y="10.6744186" width="100" height="3.13953488"></rect>
                    </g>
                    <g id="Group-6">
                        <mask id="mask-2" fill="white">
                            <use xlink:href="#path-1"></use>
                        </mask>
                        <g id="Clip-5"></g>
                        <path d="M99.9806805,13.5003064 C99.9806805,20.9142 77.6080907,26.9233277 50.0099811,26.9233277 C22.4107372,26.9233277 0.0375803403,20.9142 0.0375803403,13.5003064 C0.0375803403,6.08622128 22.4107372,0.0763276596 50.0099811,0.0763276596 C77.6080907,0.0763276596 99.9806805,6.08622128 99.9806805,13.5003064" id="Fill-4" fill="#E8ECF0" mask="url(#mask-2)"></path>
                    </g>
                    <path d="M86,12.4994377 C86,17.7467694 69.6590022,22 49.499809,22 C29.3415707,22 13,17.7467694 13,12.4994377 C13,7.25248091 29.3415707,3 49.499809,3 C69.6590022,3 86,7.25248091 86,12.4994377" id="Fill-7" fill="#D4DBE0"></path>
                </g>
                <g id="Group-13" transform="translate(34.000000, 0.000000)">
                    <polygon id="Fill-1" fill="#D4DBE0" points="15 54 16 54 16 0 15 0"></polygon>
                    <g id="Group-12" transform="translate(0.000000, 49.000000)">
                        <g id="Group-4">
                            <mask id="mask-4" fill="white">
                                <use xlink:href="#path-3"></use>
                            </mask>
                            <g id="Clip-3"></g>
                            <path d="M15.9965042,0.123441818 C7.16235294,0.123441818 0,3.66238727 0,8.02822364 L31.9932773,8.02822364 C31.9932773,3.66238727 24.8307899,0.123441818 15.9965042,0.123441818" id="Fill-2" fill="#D4DBE0" mask="url(#mask-4)"></path>
                        </g>
                        <path d="M15.3329076,0.131701818 C23.3197311,1.62499273 24.877916,7.96368364 24.877916,7.96368364 C24.877916,7.96368364 25.4517647,8.01293818 27.8970756,7.07582909 C24.9311597,0.959101818 16.5342521,0.204374545 15.4178824,0.130810909 C15.3904538,0.131447273 15.3616807,0.131447273 15.3329076,0.131701818" id="Fill-5" fill="#E8ECF0"></path>
                        <g id="Group-9" transform="translate(0.000000, 6.490909)">
                            <mask id="mask-6" fill="white">
                                <use xlink:href="#path-5"></use>
                            </mask>
                            <g id="Clip-8"></g>
                            <path d="M31.9623664,1.52206727 C31.9623664,2.29817636 24.8137277,2.92728545 15.9965176,2.92728545 C7.17930756,2.92728545 0.0308033613,2.29817636 0.0308033613,1.52206727 C0.0308033613,0.745703636 7.17930756,0.116721818 15.9965176,0.116721818 C24.8137277,0.116721818 31.9623664,0.745703636 31.9623664,1.52206727" id="Fill-7" fill="#BFC9D2" mask="url(#mask-6)"></path>
                        </g>
                        <path d="M17.6120471,6.61472 C17.0810891,6.60988364 16.5421983,6.60759273 15.9964504,6.60759273 C14.9626353,6.60759273 13.9538286,6.61650182 12.975005,6.63292 C12.988316,7.83437455 14.0203832,8.80457455 15.2925849,8.80457455 C16.5721815,8.80457455 17.6090891,7.82457455 17.6120471,6.61472" id="Fill-10" fill="#FFFFFF"></path>
                    </g>
                </g>
                <g id="Group-13" transform="translate(18.000000, 130.000000)">
                    <path d="M31.5003159,31.7299898 C26.8263125,31.7299898 22.4360223,32.0537665 19.1382497,32.6416244 C15.3286557,33.3201624 14.3122795,34.1288934 14.3122795,34.4998579 C14.3122795,34.8708223 15.3286557,35.679269 19.1382497,36.3575228 C22.4363383,36.945665 26.8266284,37.2691574 31.5003159,37.2691574 C36.1736875,37.2691574 40.5636617,36.945665 43.8614344,36.3575228 C47.6716603,35.679269 48.6880364,34.8708223 48.6880364,34.4998579 C48.6880364,34.1288934 47.6716603,33.3201624 43.8614344,32.6416244 C40.5636617,32.0537665 36.1736875,31.7299898 31.5003159,31.7299898 M31.5003159,38 C22.5554473,38 13.5,36.7972792 13.5,34.4998579 C13.5,32.201868 22.5554473,31 31.5003159,31 C40.4448686,31 49.5,32.201868 49.5,34.4998579 C49.5,36.7972792 40.4448686,38 31.5003159,38" id="Fill-1" fill="#BFC9D2"></path>
                    <polygon id="Fill-4" fill="#BFC9D2" points="43.5 37 44.5 37 44.5 10 43.5 10"></polygon>
                    <polygon id="Fill-6" fill="#BFC9D2" points="18.5 37 19.5 37 19.5 10 18.5 10"></polygon>
                    <polygon id="Fill-7" fill="#BFC9D2" points="25.5 32 26.5 32 26.5 11 25.5 11"></polygon>
                    <polygon id="Fill-8" fill="#BFC9D2" points="37.5 32 38.5 32 38.5 11 37.5 11"></polygon>
                    <path d="M8.34971035,10.5 C8.95923868,10.7816241 10.6995943,11.332529 15.4764076,11.8194432 C20.0025127,12.2800464 25.8700773,12.53471 32.0001553,12.53471 C38.130544,12.53471 43.9984193,12.2800464 48.5235924,11.8194432 C53.3007164,11.332529 55.0407613,10.7816241 55.6506003,10.5 C55.0407613,10.2190255 53.3007164,9.66714617 48.5235924,9.18055684 C43.9984193,8.7199536 38.130544,8.46593968 32.0001553,8.46593968 C25.8700773,8.46593968 20.0025127,8.7199536 15.4764076,9.18055684 C10.6995943,9.66714617 8.95923868,10.2190255 8.34971035,10.5 M32.0001553,14 C25.3708357,14 19.1329563,13.7102552 14.4366057,13.1843619 C7.46151386,12.4025058 6.5,11.4325754 6.5,10.5 C6.5,9.56807425 7.46151386,8.5974942 14.4366057,7.81563805 C19.1329563,7.28974478 25.3708357,7 32.0001553,7 C38.6300963,7 44.8670437,7.28974478 49.5640156,7.81563805 C56.5381755,8.5974942 57.5,9.56807425 57.5,10.5 C57.5,11.4325754 56.5381755,12.4025058 49.5640156,13.1843619 C44.8670437,13.7102552 38.6300963,14 32.0001553,14" id="Fill-9" fill="#BFC9D2"></path>
                    <path d="M62.5,6.00030782 C62.5,8.76180509 48.6205622,11 31.4998447,11 C14.3788164,11 0.5,8.76180509 0.5,6.00030782 C0.5,3.23819491 14.3788164,1 31.4998447,1 C48.6205622,1 62.5,3.23819491 62.5,6.00030782" id="Fill-10" fill="#E8ECF0"></path>
                    <polygon id="Fill-11" fill="#E8ECF0" points="0.5 6 62.5 6 62.5 5 0.5 5.4"></polygon>
                    <path d="M62.5,5 C62.5,7.76194287 48.6205622,10 31.4998447,10 C14.3788164,10 0.5,7.76194287 0.5,5 C0.5,2.23867274 14.3788164,0 31.4998447,0 C48.6205622,0 62.5,2.23867274 62.5,5" id="Fill-12" fill="#D4DBE0"></path>
                </g>
            </g>
        </g>
        <g id="woonkamer/lampt" transform="translate(185.500000, 91.500000) scale(-1, 1) translate(-185.500000, -91.500000) translate(158.000000, 25.000000)">
            <rect id="Rectangle" fill="#E8ECF0" x="51.9014085" y="99.75" width="2.32394366" height="33.25"></rect>
            <polygon id="Fill-3" fill="#D4DBE0" points="13.1690141 129.906977 14.7183099 129.906977 14.7183099 37.1162791 13.1690141 37.1162791"></polygon>
            <polygon id="Fill-6" fill="#E8ECF0" points="29.4366197 51.0348837 0 51.0348837 5.25638178 28.6104651 24.4427348 28.6104651"></polygon>
            <path d="M25.5633803,133 C25.3957318,126.566018 20.259652,121.401163 13.9439973,121.401163 C7.62767196,121.401163 2.49125688,126.566018 2.32394366,133 L25.5633803,133 Z" id="Fill-7" fill="#D4DBE0"></path>
            <path d="M8.93574728,35.3376886 C8.93574728,32.8610654 9.75308259,30.5543164 11.1574749,28.6104651 L5.25638178,28.6104651 L0,51.0348837 L29.4366197,51.0348837 L28.5219503,46.9299872 C26.8584525,47.5339088 25.0382705,47.8692316 23.1285546,47.8692316 C15.290275,47.8692316 8.93574728,42.2586163 8.93574728,35.3376886 Z" id="Fill-9" fill="#D4DBE0"></path>
            <polygon id="Fill-12" fill="#E8ECF0" points="17.8169014 133 52.6760563 133 52.6760563 101.296512 17.8169014 101.296512"></polygon>
            <polygon id="Fill-13" fill="#D4DBE0" points="20.1408451 117.534884 50.3521127 117.534884 50.3521127 103.616279 20.1408451 103.616279"></polygon>
            <polygon id="Fill-14" fill="#D4DBE0" points="20.1408451 130.680233 50.3521127 130.680233 50.3521127 116.761628 20.1408451 116.761628"></polygon>
            <path d="M40.982308,109.02907 L29.5103163,109.02907 C29.0417927,109.02907 28.6619718,109.37588 28.6619718,109.80263 C28.6619718,110.229379 29.0417927,110.575581 29.5103163,110.575581 L40.982308,110.575581 C41.4501646,110.575581 41.8309859,110.229379 41.8309859,109.80263 C41.8309859,109.37588 41.4501646,109.02907 40.982308,109.02907" id="Fill-18" fill="#E8ECF0"></path>
            <path d="M40.982308,122.947674 L29.5103163,122.947674 C29.0417927,122.947674 28.6619718,123.294013 28.6619718,123.721538 C28.6619718,124.147848 29.0417927,124.494186 29.5103163,124.494186 L40.982308,124.494186 C41.4501646,124.494186 41.8309859,124.147848 41.8309859,123.721538 C41.8309859,123.294013 41.4501646,122.947674 40.982308,122.947674" id="Fill-20" fill="#E8ECF0"></path>
            <polygon id="Fill-21" fill="#E8ECF0" points="20.1408451 117.534884 51.1267606 117.534884 51.1267606 115.988372 20.1408451 115.988372"></polygon>
            <polygon id="Fill-22" fill="#E8ECF0" points="17.8169014 101.296512 20.1408451 99.75 54.3476201 99.75 52.6760563 101.296512"></polygon>
            <path d="M28.9206331,97.0432799 L28.9206331,97.0432799 C28.9206331,96.3316689 28.457414,95.754845 27.8876579,95.754845 C27.3172339,95.754845 26.8546827,96.3316689 26.8546827,97.0432799 C26.8546827,97.7548909 27.3172339,98.3323643 27.8876579,98.3323643 C28.457414,98.3323643 28.9206331,97.7548909 28.9206331,97.0432799 M29.4366197,97.0432799 C29.4366197,98.1115083 28.743628,98.9767442 27.8876579,98.9767442 C27.0313539,98.9767442 26.3380282,98.1115083 26.3380282,97.0432799 C26.3380282,95.9763505 27.0313539,95.1104651 27.8876579,95.1104651 C28.743628,95.1104651 29.4366197,95.9763505 29.4366197,97.0432799" id="Fill-35" fill="#D4DBE0"></path>
            <path d="M30.4772737,88.9244186 L33.043093,88.9244186 C33.1901564,88.9244186 33.3098592,88.7512358 33.3098592,88.5377907 C33.3098592,88.3243456 33.1901564,88.1511628 33.043093,88.1511628 L30.4772737,88.1511628 C30.3302104,88.1511628 30.2112676,88.3243456 30.2112676,88.5377907 C30.2112676,88.7512358 30.3302104,88.9244186 30.4772737,88.9244186" id="Fill-36" fill="#E8ECF0"></path>
            <path d="M30.0056303,91.876818 L30.0056303,91.876818 L32.2555579,91.876818 C32.3840871,91.876818 32.488642,91.7672487 32.488642,91.6306384 C32.488642,91.4947304 32.3840871,91.3851611 32.2555579,91.3851611 L31.7287878,91.3851611 C31.5989267,91.3851611 31.4950378,91.2745383 31.4950378,91.1386303 C31.4950378,91.0030735 31.5989267,90.8924507 31.7287878,90.8924507 L31.8716351,90.8924507 C31.9355667,90.8924507 31.9938378,90.864356 32.0361259,90.8211605 C32.078747,90.7765602 32.1050522,90.7147519 32.1050522,90.6469735 C32.1050522,90.5117679 32.0001643,90.4007939 31.8716351,90.4007939 L30.4681358,90.4007939 C30.3399395,90.4007939 30.2343857,90.5117679 30.2343857,90.6469735 C30.2343857,90.7828815 30.3399395,90.8924507 30.4681358,90.8924507 L30.8224236,90.8924507 C30.9509529,90.8924507 31.0545088,91.0030735 31.0545088,91.1386303 C31.0545088,91.2745383 30.9509529,91.3851611 30.8224236,91.3851611 L30.0056303,91.3851611 C29.9413657,91.3851611 29.8837607,91.4132558 29.8411396,91.4571537 C29.7988514,91.501754 29.7718803,91.5625088 29.7718803,91.6306384 C29.7718803,91.7672487 29.8774341,91.876818 30.0056303,91.876818 M36.4084507,91.1386303 C36.4084507,91.2745383 36.3035629,91.3851611 36.1747006,91.3851611 L35.4421506,91.3851611 C35.377886,91.3851611 35.3202809,91.4132558 35.2776598,91.4571537 C35.2353717,91.501754 35.2087335,91.5625088 35.2087335,91.6306384 C35.2087335,91.7672487 35.3136214,91.876818 35.4421506,91.876818 L35.6762336,91.876818 C35.8054288,91.876818 35.9096507,91.9870896 35.9096507,92.1222952 C35.9096507,92.2589056 35.8054288,92.3684748 35.6762336,92.3684748 L34.2124655,92.3684748 L34.2134644,92.3684748 C34.1488668,92.3684748 34.0899298,92.3965695 34.0476417,92.4411698 C34.0060195,92.4850677 33.9790484,92.546876 33.9790484,92.6150056 C33.9790484,92.7505624 34.0839362,92.8611852 34.2134644,92.8611852 L34.4472145,92.8611852 C34.5760767,92.8611852 34.6806315,92.9707545 34.6806315,93.1066625 C34.6806315,93.2425705 34.5760767,93.3535444 34.4472145,93.3535444 L31.2776036,93.3535444 C31.212673,93.3535444 31.155068,93.3809367 31.1121139,93.4241323 C31.0698258,93.469435 31.0435206,93.5312433 31.0435206,93.5990217 C31.0435206,93.7349297 31.1487414,93.8452013 31.2776036,93.8452013 L32.0614321,93.8452013 C32.1909603,93.8452013 32.2955152,93.9551217 32.2955152,94.0910297 C32.2955152,94.2272889 32.1909603,94.3372093 32.0614321,94.3372093 L29.0899428,94.3372093 C28.9610806,94.3372093 28.8571917,94.2272889 28.8571917,94.0910297 C28.8571917,93.9551217 28.9610806,93.8452013 29.0899428,93.8452013 L29.3253577,93.8452013 C29.453887,93.8452013 29.5591078,93.7349297 29.5591078,93.5990217 C29.5591078,93.4634648 29.453887,93.3535444 29.3253577,93.3535444 L28.412334,93.3535444 C28.2838048,93.3535444 28.1792499,93.2425705 28.1792499,93.1066625 C28.1792499,92.9707545 28.2838048,92.8611852 28.412334,92.8611852 L31.0255398,92.8611852 C31.155068,92.8611852 31.2589569,92.7505624 31.2589569,92.6150056 C31.2589569,92.4790976 31.155068,92.3684748 31.0255398,92.3684748 L31.0258728,92.3684748 L26.2006988,92.3684748 C26.0715036,92.3684748 25.9672817,92.2589056 25.9672817,92.1222952 C25.9672817,91.9870896 26.0715036,91.876818 26.2006988,91.876818 L26.8190377,91.876818 C26.9469009,91.876818 27.0521218,91.7672487 27.0521218,91.6306384 C27.0521218,91.4947304 26.9469009,91.3851611 26.8190377,91.3851611 L25.7967974,91.3851611 C25.6672692,91.3851611 25.5633803,91.2745383 25.5633803,91.1386303 C25.5633803,91.0030735 25.6672692,90.8924507 25.7967974,90.8924507 L27.665133,90.8924507 C27.7287316,90.8924507 27.7876686,90.864356 27.8296237,90.8211605 C27.8712459,90.7765602 27.8978841,90.7147519 27.8978841,90.6469735 C27.8978841,90.5117679 27.7936622,90.4007939 27.665133,90.4007939 L27.3135089,90.4007939 C27.1849797,90.4007939 27.0797589,90.2901711 27.0797589,90.1553166 C27.0797589,90.0194086 27.1849797,89.9080835 27.3135089,89.9080835 L28.8761714,89.9080835 L28.8748395,89.9080835 C28.9384381,89.9080835 28.9970421,89.88034 29.0403292,89.8364421 C29.0822843,89.7925441 29.1075906,89.731087 29.1075906,89.6633086 C29.1075906,89.5270494 29.0027027,89.417129 28.8748395,89.417129 L28.3184344,89.417129 C28.1889062,89.417129 28.0846843,89.306155 28.0846843,89.1705982 C28.0846843,89.0350414 28.1889062,88.9244186 28.3184344,88.9244186 L34.2367728,88.9244186 C34.365302,88.9244186 34.4698569,89.0350414 34.4698569,89.1705982 C34.4698569,89.306155 34.365302,89.417129 34.2367728,89.417129 L32.0614321,89.417129 C31.9332359,89.417129 31.828681,89.5270494 31.828681,89.6633086 C31.828681,89.7985142 31.9332359,89.9080835 32.0614321,89.9080835 L32.0610992,89.9080835 L35.6762336,89.9080835 C35.8054288,89.9080835 35.9096507,90.0194086 35.9096507,90.1553166 C35.9096507,90.2901711 35.8054288,90.4007939 35.6762336,90.4007939 L35.0585608,90.4007939 C34.9303645,90.4007939 34.8251437,90.5117679 34.8251437,90.6469735 C34.8251437,90.7828815 34.9303645,90.8924507 35.0585608,90.8924507 L36.1747006,90.8924507 C36.3035629,90.8924507 36.4084507,91.0030735 36.4084507,91.1386303" id="Fill-37" fill="#E8ECF0"></path>
            <path d="M28.3597458,100.523256 C28.0986331,100.523256 27.8873239,100.322226 27.8873239,100.073975 L27.8873239,94.7456773 C27.8873239,94.5196876 28.0797789,94.3372093 28.3174128,94.3372093 L32.878703,94.3372093 C33.1166927,94.3372093 33.3098592,94.5196876 33.3098592,94.7456773 L33.3098592,100.073975 C33.3098592,100.322226 33.0981942,100.523256 32.8363701,100.523256 L28.3597458,100.523256 Z" id="Fill-38" fill="#D4DBE0"></path>
        </g>
        <g id="Group-3" transform="translate(86.000000, 87.000000)">
            <g id="Rectangle">
                <use fill="#E5858C" xlink:href="#path-8"></use>
                <use fill-opacity="0.4" fill="url(#linearGradient-7)" style="mix-blend-mode: multiply;" xlink:href="#path-8"></use>
            </g>
            <g id="Rectangle" transform="translate(10.449714, 70.620825) scale(1, -1) translate(-10.449714, -70.620825) ">
                <use fill="#E5858C" xlink:href="#path-10"></use>
                <use fill="url(#linearGradient-9)" style="mix-blend-mode: multiply;" xlink:href="#path-10"></use>
            </g>
            <g id="Phone" transform="translate(7.000000, 0.000000)">
                <path d="M35.4867378,83.0882431 L6.50578299,83.0882431 C3.17029687,83.0882431 0.466373264,80.3843194 0.466373264,77.0495799 L0.466373264,6.06150694 C0.466373264,2.72676736 3.17029687,0.0220972222 6.50578299,0.0220972222 L35.4867378,0.0220972222 C38.822224,0.0220972222 41.5261476,2.72676736 41.5261476,6.06150694 L41.5261476,77.0495799 C41.5261476,80.3843194 38.822224,83.0882431 35.4867378,83.0882431" id="Fill-20" fill="#1A3F61"></path>
                <path d="M35.4867378,83.0882431 L6.50578299,83.0882431 C3.17029687,83.0882431 0.466373264,80.3843194 0.466373264,77.0495799 L0.466373264,6.06150694 C0.466373264,2.72676736 3.17029687,0.0220972222 6.50578299,0.0220972222 L35.4867378,0.0220972222 C38.822224,0.0220972222 41.5261476,2.72676736 41.5261476,6.06150694 L41.5261476,77.0495799 C41.5261476,80.3843194 38.822224,83.0882431 35.4867378,83.0882431 Z" id="Stroke-22" stroke="#1A3F61" stroke-width="0.746527778"></path>
                <path d="M35.0463611,1.97038542 L32.0930972,1.97038542 C31.751934,1.97038542 31.4480972,2.18463889 31.3323854,2.50639236 L30.9195556,3.66425694 C30.650059,4.41601042 29.9378715,4.91767708 29.1398333,4.91767708 L12.7356319,4.91767708 C11.8920556,4.91767708 11.1507535,4.35852778 10.9193299,3.54779861 L10.6356493,2.55566319 C10.5363611,2.20927431 10.2198333,1.97038542 9.85926042,1.97038542 L6.94630903,1.97038542 C4.47231597,1.97038542 2.46714236,3.97630556 2.46714236,6.44955208 L2.46714236,76.6612361 C2.46714236,79.1352292 4.47231597,81.1404028 6.94630903,81.1404028 L35.0463611,81.1404028 C37.5196076,81.1404028 39.5255278,79.1352292 39.5255278,76.6612361 L39.5255278,6.44955208 C39.5255278,3.97630556 37.5196076,1.97038542 35.0463611,1.97038542" id="Fill-24" fill="#FEFEFE"></path>
                <g id="access" transform="translate(12.000000, 27.618754)">
                    <mask id="mask-12" fill="white">
                        <use xlink:href="#path-11"></use>
                    </mask>
                    <g id="Clip-71"></g>
                    <polygon id="Fill-70" fill="#193F61" mask="url(#mask-12)" points="-3 20.3538144 20.6583093 20.3538144 20.6583093 -4 -3 -4"></polygon>
                </g>
            </g>
            <g id="Hand" transform="translate(0.000000, 44.645055)">
                <path d="M64.7431966,56.3452974 C64.7431966,56.3452974 62.8052105,21.5026065 55.4041341,10.5144641 C48.0038043,-0.473678264 37.5397244,-0.911143541 36.7327279,0.680453681 C33.8257487,3.58743285 48.5868424,16.409794 48.5868424,23.7630926 L48.5868424,32.8154884 C48.5868424,36.1330578 45.8978494,38.8213044 42.5810265,38.8213044 L13.5672244,38.8213044 C13.5672244,38.8213044 23.0802279,51.201721 30.4760786,57.1321377 C37.8711827,63.0625544 52.9264084,77.1734224 52.9264084,77.1734224 L64.7431966,56.3452974 Z" id="Fill-49" fill="#EF888B"></path>
                <g id="vingers" transform="translate(7.000000, 14.854945) rotate(-5.000000) translate(-7.000000, -14.854945) translate(2.000000, 2.354945)">
                    <g id="Group-5" transform="translate(-0.000000, 0.000000)">
                        <path d="M0.930920354,0.0341393038 C1.37734397,-0.445878057 9.71120681,4.23634416 9.4312589,7.76891361 C9.15131098,11.3022296 5.15178841,9.43367055 5.15178841,9.43367055 C5.15178841,9.43367055 10.0583422,12.227924 9.77988737,14.5399206 C9.50143251,16.850424 5.00546897,17.7014657 5.00546897,17.7014657 C5.00546897,17.7014657 7.35217903,18.9937053 7.26707487,20.9092956 C7.1819707,22.8241393 2.09065126,24.2507539 2.09065126,24.2507539 C2.09065126,24.2507539 0.680833549,24.5120386 0.640521049,19.3759275 C0.714800563,17.3543303 1.68155403,16.8967087 1.68155403,16.8967087 C1.68155403,16.8967087 0.266137368,15.7433233 0.349375215,11.7897122 C0.406857854,9.95176083 1.30493077,8.66773305 1.30493077,8.66773305 C1.30493077,8.66773305 -0.0511369375,7.17691708 0.00149327084,3.44577125 C0.0186634097,0.315580276 0.930920354,0.0341393038 0.930920354,0.0341393038" id="Fill-51" fill="#EF888B"></path>
                        <path d="M8.72918685,9.41239451 C8.72918685,9.41239451 8.72993338,9.41164798 8.72993338,9.41090146 C8.92589692,9.23397437 9.08677365,8.99359243 9.20808442,8.68676951 C7.71726844,9.68562368 2.52143511,6.71444312 0.686469833,7.56175215 C0.999638236,8.30230771 1.3049681,8.66810632 1.3049681,8.66810632 C1.3049681,8.66810632 1.47741601,8.13135285 5.15182574,9.43329729 C7.2040306,10.1611619 8.21706879,9.83716882 8.72918685,9.41239451" id="Fill-53" fill="#E17981"></path>
                        <path d="M1.10754883,16.0859049 C1.36920681,16.5771202 1.61294813,16.8301931 1.65027452,16.8630403 C2.0825141,16.8518424 3.00783528,16.9944292 5.01450195,17.699898 C5.05966688,17.6901931 8.28317383,17.0601237 9.40221897,15.4461306 C7.92334744,16.3942209 3.57631619,16.3180751 1.10754883,16.0859049" id="Fill-55" fill="#E17981"></path>
                        <path d="M1.06215994,23.0080837 C1.43803667,24.3936393 2.09050195,24.2510525 2.09050195,24.2510525 C2.09050195,24.2510525 5.61709917,23.4679449 6.83729883,21.8502192 C5.3946339,22.6855837 2.84710785,23.2387608 1.06215994,23.0080837" id="Fill-57" fill="#E17981"></path>
                    </g>
                </g>
                <path d="M53.9681133,65.7235526 C53.9666202,65.7235526 53.9651272,65.7235526 53.9636341,65.7228061 C42.5775924,64.5044728 27.4387556,54.1381881 26.7616549,53.6716082 C27.865023,54.6816603 28.9803355,55.6655839 30.0971411,56.5621638 C35.1026098,60.5754971 43.547332,68.2736915 48.5251793,72.8693165 C49.8577313,70.8088999 51.7740681,68.2826499 53.9681133,65.7235526" id="Fill-59" fill="#E17981"></path>
                <path d="M98.5906914,82.8615908 L100.654841,82.8615908 C85.5488511,67.7003582 71.2289553,53.9657401 69.150622,53.7895596 C63.1739206,53.2841603 46.4248233,73.5396985 46.6301185,76.9169901 C46.6547539,77.3051846 47.8021671,79.4178582 49.8409345,82.8615908 L98.5906914,82.8615908 Z" id="Fill-61" fill="#D44454"></path>
                <path d="M44.826806,41.1573391 C50.4421879,38.7139537 48.7050178,31.8974085 48.7050178,31.8974085 L48.5825872,31.9459328 C48.5825872,35.8219051 46.1660768,38.8087627 41.4017365,38.8087627 L22.4055907,38.8087627 C22.4063372,38.8087627 39.211424,43.6007245 44.826806,41.1573391" id="Fill-63" fill="#E17981"></path>
            </g>
        </g>
    </g>
</svg>