<?xml version="1.0" encoding="UTF-8"?>
<svg width="219px" height="214px" viewBox="0 0 219 214" version="1.1" xmlns="http://www.w3.org/2000/svg" xmlns:xlink="http://www.w3.org/1999/xlink">
    <!-- Generator: Sketch 61.2 (89653) - https://sketch.com -->
    <title>step_2</title>
    <desc>Created with Sketch.</desc>
    <defs>
        <polygon id="path-1" points="0 0.606964286 188.767869 0.606964286 188.767869 11 0 11"></polygon>
        <polygon id="path-3" points="0 117 189 117 189 0 0 0"></polygon>
        <linearGradient x1="50%" y1="0%" x2="50%" y2="100%" id="linearGradient-5">
            <stop stop-color="#FFFFFF" stop-opacity="0.5" offset="0%"></stop>
            <stop stop-color="#000000" stop-opacity="0.5" offset="100%"></stop>
        </linearGradient>
        <path d="M1.90512085,47.413147 C2.59835815,46.8789074 6.62998454,47.0078584 14,47.8 L14,50.8 L2,50.8 C1.24350993,49.0763376 1.21188354,47.9473866 1.90512085,47.413147 Z" id="path-6"></path>
        <linearGradient x1="50%" y1="0%" x2="50%" y2="100%" id="linearGradient-7">
            <stop stop-color="#FFFFFF" stop-opacity="0.5" offset="0%"></stop>
            <stop stop-color="#000000" stop-opacity="0.5" offset="100%"></stop>
        </linearGradient>
        <path d="M4.92703247,69.7794298 C5.62026978,69.4914009 9.50863304,69.5697944 16.5921223,70.0146102 L16.5921223,71.6320246 L4.59212225,71.6320246 C4.12215843,70.6849904 4.23379517,70.0674588 4.92703247,69.7794298 Z" id="path-8"></path>
        <polygon id="path-9" points="1.14111233 1.88610309 1.14111233 15.9379794 18.2103082 15.9379794 18.2103082 10.3917526 17.3448237 10.3353402 16.0592154 6.50449485 16.9143082 6.46589691 18.2103082 10.1876289 18.2103082 1.88610309"></polygon>
    </defs>
    <g id="step_2" stroke="none" stroke-width="1" fill="none" fill-rule="evenodd">
        <g id="Group-4" transform="translate(15.000000, 42.000000)">
            <polygon id="Fill-32" fill="#E8ECF0" points="26 20 164 20 164 8 26 8"></polygon>
            <g id="Background">
                <g id="Group-3" transform="translate(0.000000, 106.000000)">
                    <mask id="mask-2" fill="white">
                        <use xlink:href="#path-1"></use>
                    </mask>
                    <g id="Clip-2"></g>
                    <path d="M110.531562,0.606964286 C110.531562,2.05189286 109.215831,3.23360714 107.607715,3.23360714 L81.1622538,3.23360714 C79.5541385,3.23360714 78.2384077,2.05189286 78.2384077,0.606964286 L-0.000323076923,0.606964286 L-0.000323076923,6.22167857 L0.00533076923,6.22167857 C0.0667153846,8.85460714 3.38794615,11.0003929 5.71086923,11.0003929 L183.055869,11.0003929 C185.382831,11.0003929 188.701638,8.85460714 188.763023,6.22167857 L188.767869,0.606964286 L110.531562,0.606964286 Z" id="Fill-1" fill="#D9E0E4" mask="url(#mask-2)"></path>
                </g>
                <mask id="mask-4" fill="white">
                    <use xlink:href="#path-3"></use>
                </mask>
                <g id="Clip-5"></g>
                <path d="M26.8143727,93.3258757 L162.184012,93.3258757 L162.184012,9.05426212 L26.8143727,9.05426212 L26.8143727,93.3258757 Z M96.5192369,3.99673728 C96.5192369,5.11246281 95.6154264,6.01651557 94.5,6.01651557 C93.3845736,6.01651557 92.4807631,5.11246281 92.4807631,3.99673728 C92.4807631,2.88101175 93.3845736,1.97695899 94.5,1.97695899 C95.6154264,1.97695899 96.5192369,2.88101175 96.5192369,3.99673728 Z M26.8781806,104 L26.8781806,102.250064 L38.0833298,102.250064 L38.0833298,104 L150.127552,104 L150.127552,102.250064 L161.334317,102.250064 L161.334317,104 L165.788754,104 C168.650416,104 171,101.65221 171,98.7865483 L171,5.20375679 C171,2.33971117 168.650416,0 165.788754,0 L23.2104388,0 C20.3471609,0 18,2.33971117 18,5.20375679 L18,98.7865483 C18,101.65221 20.3471609,104 23.2104388,104 L26.8781806,104 Z" id="Fill-4" fill="#D4DBE0" mask="url(#mask-4)"></path>
            </g>
            <g id="Group" transform="translate(32.000000, 27.000000)" fill="#E8ECF0">
                <rect id="Rectangle" x="0" y="6" width="47" height="2" rx="1"></rect>
                <rect id="Rectangle" x="0" y="0" width="25" height="3" rx="1"></rect>
                <rect id="Rectangle" x="0" y="10" width="24" height="2" rx="1"></rect>
            </g>
            <path d="M55.7786244,16 L46.2216246,16 C46.0993575,16 46,16.29452 46,16.6586 C46,17.02194 46.0993575,17.31646 46.2216246,17.31646 L55.7786244,17.31646 C55.9008915,17.31646 56,17.02194 56,16.6586 C56,16.29452 55.9008915,16 55.7786244,16" id="Fill-3" fill="#D4DBE0"></path>
            <path d="M68.7786244,16 L59.2216246,16 C59.0993575,16 59,16.29452 59,16.6586 C59,17.02194 59.0993575,17.31646 59.2216246,17.31646 L68.7786244,17.31646 C68.9008915,17.31646 69,17.02194 69,16.6586 C69,16.29452 68.9008915,16 68.7786244,16" id="Fill-3" fill="#D4DBE0"></path>
            <path d="M41.7786244,16 L32.2216246,16 C32.0993575,16 32,16.29452 32,16.6586 C32,17.02194 32.0993575,17.31646 32.2216246,17.31646 L41.7786244,17.31646 C41.9008915,17.31646 42,17.02194 42,16.6586 C42,16.29452 41.9008915,16 41.7786244,16" id="Fill-3" fill="#D4DBE0"></path>
        </g>
        <g id="Logo/Irma-2019" transform="translate(102.000000, 68.000000)">
            <g id="Group-20" transform="translate(2.993548, 3.221477)">
                <path d="M9.26992516,6.38084295 L8.01253161,2.51281611 C7.91395097,2.20935302 7.63100903,2.00554094 7.30853161,2.00554094 C7.22037677,2.00554094 7.13273806,2.02068188 7.04840258,2.05031946 L1.06357677,4.16006443 C0.661202581,4.30202416 0.438647742,4.74003758 0.56768,5.13670872 L1.8248671,9.00484295 C1.92355097,9.30819866 2.2064929,9.51201074 2.52907355,9.51201074 C2.61722839,9.51201074 2.70476387,9.49697718 2.78920258,9.46712483 L8.77392516,7.35748725 C9.17640258,7.21552752 9.39895742,6.77740671 9.26992516,6.38084295" id="Fill-1" fill="#D34354"></path>
                <path d="M9.55979355,4.37534497 L8.3024,0.507210738 C8.20381935,0.203855034 7.92087742,4.29530201e-05 7.5984,4.29530201e-05 C7.51024516,4.29530201e-05 7.42260645,0.0151838926 7.33827097,0.0448214765 L1.35344516,2.15456644 C0.951070968,2.29652617 0.728516129,2.7345396 0.857548387,3.13121074 L2.11473548,6.99934497 C2.21341935,7.30270067 2.49636129,7.50651275 2.81894194,7.50651275 C2.90709677,7.50651275 2.99463226,7.49147919 3.07907097,7.46162685 L9.06379355,5.35198926 C9.46627097,5.21002953 9.68882581,4.77190872 9.55979355,4.37534497" id="Fill-4" fill="#FCB959"></path>
                <path d="M8.35944258,5.93794362 L7.78199742,1.89907114 C7.73678452,1.58229262 7.49306839,1.32940671 7.17575226,1.26991678 C7.08893935,1.25359463 7.00016516,1.25230604 6.91211355,1.26605101 L0.662307097,2.23721879 C0.242074839,2.30261477 -0.0516025806,2.69252081 0.00754580645,3.1066953 L0.584887742,7.14556779 C0.630203871,7.46234631 0.87392,7.71512483 1.19133935,7.77472215 C1.27804903,7.79093691 1.36682323,7.79244027 1.45508129,7.77858792 L7.70468129,6.80742013 C8.12501677,6.74213154 8.41869419,6.35201074 8.35944258,5.93794362" id="Fill-6" fill="#3BB992"></path>
                <path d="M10.073249,6.48702282 L9.45699097,2.45437852 C9.40868129,2.13802953 9.16259097,1.88782819 8.84465548,1.83155973 C8.75773935,1.81620403 8.66896516,1.81588188 8.58091355,1.83037852 L2.34091355,2.86672752 C1.92130065,2.93641879 1.63133935,3.32943893 1.69461677,3.74296913 L2.31066839,7.77561342 C2.35908129,8.09196242 2.60517161,8.34216376 2.92321032,8.39843221 C3.01012645,8.41378792 3.09890065,8.41421745 3.18695226,8.39961342 L9.42695226,7.36337181 C9.84656516,7.29357315 10.1365265,6.90044564 10.073249,6.48702282" id="Fill-9" fill="#05AFE5"></path>
                <path d="M2.65410065,8.36374765 C2.41626839,8.36374765 2.20847484,8.21598926 2.13693935,7.9960698 L0.879752258,4.12782819 C0.785610323,3.83832483 0.952629677,3.51703624 1.25198452,3.41147919 L7.23691355,1.30173423 C7.30081032,1.27918389 7.36708129,1.26769396 7.43366194,1.26769396 C7.67149419,1.26769396 7.87939097,1.41545235 7.95092645,1.63537181 L9.20811355,5.50361342 C9.30215226,5.7930094 9.1351329,6.11440537 8.83577806,6.2200698 L2.85095226,8.32970738 C2.78695226,8.3523651 2.72078452,8.36374765 2.65410065,8.36374765" id="Fill-11" fill="#0C4D90"></path>
                <path d="M7.43363097,1.47302013 C7.58330839,1.47302013 7.71801806,1.55989262 7.76385032,1.70120805 L9.02103742,5.56934228 C9.08049548,5.752 8.96911484,5.95613423 8.77226323,6.02561074 L2.78754065,8.13524832 C2.7429471,8.15092617 2.69794065,8.15833557 2.65406968,8.15833557 C2.50439226,8.15833557 2.36968258,8.07146309 2.3237471,7.93025503 L1.06656,4.06201342 C1.00720516,3.87957047 1.11868903,3.67522148 1.31533419,3.60595973 L7.30016,1.49621477 C7.34465032,1.48042953 7.38976,1.47302013 7.43363097,1.47302013 M7.43363097,1.06238926 C7.34547613,1.06238926 7.25794065,1.0775302 7.17350194,1.10727517 L1.18867613,3.21702013 C0.786301935,3.35887248 0.563747097,3.79699329 0.692779355,4.19355705 L1.94996645,8.06169128 C2.04865032,8.36515436 2.33159226,8.56896644 2.6541729,8.56896644 C2.74232774,8.56896644 2.82986323,8.5538255 2.91430194,8.52408054 L8.89902452,6.41433557 C9.30150194,6.27237584 9.52395355,5.83436242 9.39502452,5.43769128 L8.13773419,1.56966443 C8.03905032,1.26630872 7.75610839,1.06238926 7.43363097,1.06238926" id="Fill-13" fill="#FEFEFE"></path>
                <polygon id="Fill-15" fill="#FEFEFE" points="3.15767742 5.59962416 3.52701935 5.59962416 3.52701935 3.56891275 3.15767742 3.56891275"></polygon>
                <path d="M3.95505548,3.5688698 L4.63232,3.5688698 C4.83164903,3.5688698 4.99381677,3.6297557 5.11892645,3.7516349 C5.24403613,3.87351409 5.30659097,4.02438658 5.30659097,4.20425235 C5.30659097,4.3319302 5.27242323,4.44650738 5.20398452,4.54798389 C5.13564903,4.6494604 5.04284903,4.72548725 4.92558452,4.77574228 L5.37988129,5.59958121 L4.97244903,5.59958121 L4.57657806,4.83372886 L4.32450065,4.83372886 L4.32450065,5.59958121 L3.95505548,5.59958121 L3.95505548,3.5688698 Z M4.63232,3.90540671 L4.32450065,3.90540671 L4.32450065,4.49719195 L4.63232,4.49719195 C4.72016516,4.49719195 4.79056516,4.47013154 4.84331355,4.41601074 C4.89606194,4.36188993 4.92248774,4.29026577 4.92248774,4.20135302 C4.92248774,4.11426577 4.89606194,4.04317852 4.84331355,3.98809128 C4.79056516,3.93300403 4.72016516,3.90540671 4.63232,3.90540671 L4.63232,3.90540671 Z" id="Fill-17" fill="#FEFEFE"></path>
                <polygon id="Fill-18" fill="#FEFEFE" points="6.72914581 5.06047785 6.42452645 5.05940403 6.03051355 4.3383302 6.03051355 5.59953826 5.66117161 5.59953826 5.66117161 3.56882685 5.9895329 3.56882685 6.57575226 4.65092081 7.16506839 3.56882685 7.49043613 3.56882685 7.49043613 5.59964564 7.12109419 5.59964564 7.12109419 4.34058523"></polygon>
                <path d="M9.0312671,5.59959195 L8.89986065,5.16737718 L8.20112516,5.16737718 L8.06971871,5.59959195 L7.6680671,5.59959195 L8.36277677,3.56888054 L8.73521548,3.56888054 L9.42992516,5.59959195 L9.0312671,5.59959195 Z M8.55044129,4.02428993 L8.29186065,4.86853154 L8.80902194,4.86853154 L8.55044129,4.02428993 Z" id="Fill-19" fill="#FEFEFE"></path>
            </g>
        </g>
        <g id="Group-5" transform="translate(86.000000, 87.000000)">
            <g id="Rectangle">
                <use fill="#E5858C" xlink:href="#path-6"></use>
                <use fill-opacity="0.4" fill="url(#linearGradient-5)" style="mix-blend-mode: multiply;" xlink:href="#path-6"></use>
            </g>
            <g id="Rectangle" transform="translate(10.449714, 70.620825) scale(1, -1) translate(-10.449714, -70.620825) ">
                <use fill="#E5858C" xlink:href="#path-8"></use>
                <use fill="url(#linearGradient-7)" style="mix-blend-mode: multiply;" xlink:href="#path-8"></use>
            </g>
            <g id="Group-3" transform="translate(0.000000, 44.000000)">
                <g id="Hand" transform="translate(0.000000, 0.645055)">
                    <path d="M64.7431966,56.3452974 C64.7431966,56.3452974 62.8052105,21.5026065 55.4041341,10.5144641 C48.0038043,-0.473678264 37.5397244,-0.911143541 36.7327279,0.680453681 C33.8257487,3.58743285 48.5868424,16.409794 48.5868424,23.7630926 L48.5868424,32.8154884 C48.5868424,36.1330578 45.8978494,38.8213044 42.5810265,38.8213044 L13.5672244,38.8213044 C13.5672244,38.8213044 23.0802279,51.201721 30.4760786,57.1321377 C37.8711827,63.0625544 52.9264084,77.1734224 52.9264084,77.1734224 L64.7431966,56.3452974 Z" id="Fill-49" fill="#EF888B"></path>
                    <g id="vingers" transform="translate(7.000000, 14.854945) rotate(-5.000000) translate(-7.000000, -14.854945) translate(2.000000, 2.354945)">
                        <g id="Group-5" transform="translate(-0.000000, 0.000000)">
                            <path d="M0.930920354,0.0341393038 C1.37734397,-0.445878057 9.71120681,4.23634416 9.4312589,7.76891361 C9.15131098,11.3022296 5.15178841,9.43367055 5.15178841,9.43367055 C5.15178841,9.43367055 10.0583422,12.227924 9.77988737,14.5399206 C9.50143251,16.850424 5.00546897,17.7014657 5.00546897,17.7014657 C5.00546897,17.7014657 7.35217903,18.9937053 7.26707487,20.9092956 C7.1819707,22.8241393 2.09065126,24.2507539 2.09065126,24.2507539 C2.09065126,24.2507539 0.680833549,24.5120386 0.640521049,19.3759275 C0.714800563,17.3543303 1.68155403,16.8967087 1.68155403,16.8967087 C1.68155403,16.8967087 0.266137368,15.7433233 0.349375215,11.7897122 C0.406857854,9.95176083 1.30493077,8.66773305 1.30493077,8.66773305 C1.30493077,8.66773305 -0.0511369375,7.17691708 0.00149327084,3.44577125 C0.0186634097,0.315580276 0.930920354,0.0341393038 0.930920354,0.0341393038" id="Fill-51" fill="#EF888B"></path>
                            <path d="M8.72918685,9.41239451 C8.72918685,9.41239451 8.72993338,9.41164798 8.72993338,9.41090146 C8.92589692,9.23397437 9.08677365,8.99359243 9.20808442,8.68676951 C7.71726844,9.68562368 2.52143511,6.71444312 0.686469833,7.56175215 C0.999638236,8.30230771 1.3049681,8.66810632 1.3049681,8.66810632 C1.3049681,8.66810632 1.47741601,8.13135285 5.15182574,9.43329729 C7.2040306,10.1611619 8.21706879,9.83716882 8.72918685,9.41239451" id="Fill-53" fill="#E17981"></path>
                            <path d="M1.10754883,16.0859049 C1.36920681,16.5771202 1.61294813,16.8301931 1.65027452,16.8630403 C2.0825141,16.8518424 3.00783528,16.9944292 5.01450195,17.699898 C5.05966688,17.6901931 8.28317383,17.0601237 9.40221897,15.4461306 C7.92334744,16.3942209 3.57631619,16.3180751 1.10754883,16.0859049" id="Fill-55" fill="#E17981"></path>
                            <path d="M1.06215994,23.0080837 C1.43803667,24.3936393 2.09050195,24.2510525 2.09050195,24.2510525 C2.09050195,24.2510525 5.61709917,23.4679449 6.83729883,21.8502192 C5.3946339,22.6855837 2.84710785,23.2387608 1.06215994,23.0080837" id="Fill-57" fill="#E17981"></path>
                        </g>
                    </g>
                    <path d="M53.9681133,65.7235526 C53.9666202,65.7235526 53.9651272,65.7235526 53.9636341,65.7228061 C42.5775924,64.5044728 27.4387556,54.1381881 26.7616549,53.6716082 C27.865023,54.6816603 28.9803355,55.6655839 30.0971411,56.5621638 C35.1026098,60.5754971 43.547332,68.2736915 48.5251793,72.8693165 C49.8577313,70.8088999 51.7740681,68.2826499 53.9681133,65.7235526" id="Fill-59" fill="#E17981"></path>
                    <path d="M98.5906914,82.8615908 L100.654841,82.8615908 C85.5488511,67.7003582 71.2289553,53.9657401 69.150622,53.7895596 C63.1739206,53.2841603 46.4248233,73.5396985 46.6301185,76.9169901 C46.6547539,77.3051846 47.8021671,79.4178582 49.8409345,82.8615908 L98.5906914,82.8615908 Z" id="Fill-61" fill="#D44454"></path>
                    <path d="M44.826806,41.1573391 C50.4421879,38.7139537 48.7050178,31.8974085 48.7050178,31.8974085 L48.5825872,31.9459328 C48.5825872,35.8219051 46.1660768,38.8087627 41.4017365,38.8087627 L22.4055907,38.8087627 C22.4063372,38.8087627 39.211424,43.6007245 44.826806,41.1573391" id="Fill-63" fill="#E17981"></path>
                </g>
            </g>
            <g id="Group-2">
                <g id="Phone" transform="translate(7.000038, 0.000000)">
                    <path d="M35.4867378,83.0882431 L6.50578299,83.0882431 C3.17029687,83.0882431 0.466373264,80.3843194 0.466373264,77.0495799 L0.466373264,6.06150694 C0.466373264,2.72676736 3.17029687,0.0220972222 6.50578299,0.0220972222 L35.4867378,0.0220972222 C38.822224,0.0220972222 41.5261476,2.72676736 41.5261476,6.06150694 L41.5261476,77.0495799 C41.5261476,80.3843194 38.822224,83.0882431 35.4867378,83.0882431" id="Fill-20" fill="#1A3F61"></path>
                    <path d="M35.4867378,83.0882431 L6.50578299,83.0882431 C3.17029687,83.0882431 0.466373264,80.3843194 0.466373264,77.0495799 L0.466373264,6.06150694 C0.466373264,2.72676736 3.17029687,0.0220972222 6.50578299,0.0220972222 L35.4867378,0.0220972222 C38.822224,0.0220972222 41.5261476,2.72676736 41.5261476,6.06150694 L41.5261476,77.0495799 C41.5261476,80.3843194 38.822224,83.0882431 35.4867378,83.0882431 Z" id="Stroke-22" stroke="#1A3F61" stroke-width="0.746527778"></path>
                    <path d="M35.0463611,1.97038542 L32.0930972,1.97038542 C31.751934,1.97038542 31.4480972,2.18463889 31.3323854,2.50639236 L30.9195556,3.66425694 C30.650059,4.41601042 29.9378715,4.91767708 29.1398333,4.91767708 L12.7356319,4.91767708 C11.8920556,4.91767708 11.1507535,4.35852778 10.9193299,3.54779861 L10.6356493,2.55566319 C10.5363611,2.20927431 10.2198333,1.97038542 9.85926042,1.97038542 L6.94630903,1.97038542 C4.47231597,1.97038542 2.46714236,3.97630556 2.46714236,6.44955208 L2.46714236,76.6612361 C2.46714236,79.1352292 4.47231597,81.1404028 6.94630903,81.1404028 L35.0463611,81.1404028 C37.5196076,81.1404028 39.5255278,79.1352292 39.5255278,76.6612361 L39.5255278,6.44955208 C39.5255278,3.97630556 37.5196076,1.97038542 35.0463611,1.97038542" id="Fill-24" fill="#FEFEFE"></path>
                    <g id="login" transform="translate(9.000000, 42.000000)">
                        <path d="M3.76923711,1.88461856 C3.76923711,2.92527835 2.92527835,3.76923711 1.88461856,3.76923711 C0.843958763,3.76923711 -1.88737914e-13,2.92527835 -1.88737914e-13,1.88461856 C-1.88737914e-13,0.843958763 0.843958763,-1.82076576e-14 1.88461856,-1.82076576e-14 C2.92527835,-1.82076576e-14 3.76923711,0.843958763 3.76923711,1.88461856" id="Fill-75" fill="#D44454"></path>
                        <path d="M8.82378557,1.88461856 C8.82378557,2.92527835 7.9798268,3.76923711 6.93916701,3.76923711 C5.89850722,3.76923711 5.05454845,2.92527835 5.05454845,1.88461856 C5.05454845,0.843958763 5.89850722,-1.82076576e-14 6.93916701,-1.82076576e-14 C7.9798268,-1.82076576e-14 8.82378557,0.843958763 8.82378557,1.88461856" id="Fill-77" fill="#00B1E6"></path>
                        <path d="M13.878334,1.88461856 C13.878334,2.92527835 13.0343753,3.76923711 11.9937155,3.76923711 C10.9530557,3.76923711 10.1090969,2.92527835 10.1090969,1.88461856 C10.1090969,0.843958763 10.9530557,-1.82076576e-14 11.9937155,-1.82076576e-14 C13.0343753,-1.82076576e-14 13.878334,0.843958763 13.878334,1.88461856" id="Fill-79" fill="#FFBB58"></path>
                        <path d="M18.9328825,1.88461856 C18.9328825,2.92527835 18.0889237,3.76923711 17.0482639,3.76923711 C16.0076041,3.76923711 15.1636454,2.92527835 15.1636454,1.88461856 C15.1636454,0.843958763 16.0076041,-1.82076576e-14 17.0482639,-1.82076576e-14 C18.0889237,-1.82076576e-14 18.9328825,0.843958763 18.9328825,1.88461856" id="Fill-81" fill="#F2F5F8"></path>
                        <path d="M23.9873567,1.88461856 C23.9873567,2.92527835 23.1433979,3.76923711 22.1027381,3.76923711 C21.0620784,3.76923711 20.2181196,2.92527835 20.2181196,1.88461856 C20.2181196,0.843958763 21.0620784,-1.82076576e-14 22.1027381,-1.82076576e-14 C23.1433979,-1.82076576e-14 23.9873567,0.843958763 23.9873567,1.88461856" id="Fill-83" fill="#F2F5F8"></path>
                    </g>
                    <g id="logo" transform="translate(11.000000, 15.000000)">
                        <path d="M4.84785047,17.1501031 C4.3920979,17.1501031 3.99349996,16.8776907 3.85692264,16.4724124 L1.44603604,9.34441237 C1.26566491,8.81146392 1.5863247,8.21913402 2.1600979,8.02465979 L13.6325927,4.13665979 C13.755067,4.09509278 13.8827371,4.07356701 14.0104072,4.07356701 C14.4661598,4.07356701 14.8647577,4.34597938 15.001335,4.75125773 L17.4114793,11.8792577 C17.5918505,12.4129485 17.2719329,13.0052784 16.6981598,13.1997526 L5.22492264,17.0877526 C5.10244841,17.1293196 4.97552058,17.1501031 4.84785047,17.1501031" id="Fill-36" fill="#D34554"></path>
                        <path d="M14.0102587,3.69575258 C13.8410216,3.69575258 13.673269,3.72321649 13.5114546,3.77814433 L2.03895975,7.66614433 C1.26774326,7.92742268 0.840939133,8.73501031 1.08811439,9.46540206 L3.49825872,16.5934021 C3.68753707,17.1523299 4.22939274,17.5279175 4.84770202,17.5279175 C5.01693913,17.5279175 5.18469171,17.5004536 5.34724841,17.4455258 L16.8197433,13.558268 C17.5909598,13.2962474 18.0170216,12.4894021 17.7698463,11.758268 L15.359702,4.63026804 C15.1704237,4.07134021 14.628568,3.69575258 14.0102587,3.69575258 M14.0102587,4.45212371 C14.2967742,4.45212371 14.5550835,4.61245361 14.6434134,4.87224742 L17.0535577,12.0009897 C17.1671247,12.3372371 16.9533515,12.713567 16.5762793,12.8412371 L5.10378449,16.7292371 C5.01842367,16.7581856 4.93232058,16.7715464 4.84770202,16.7715464 C4.56118656,16.7715464 4.30287728,16.6112165 4.21454738,16.3514227 L1.80514532,9.22342268 C1.69083604,8.88717526 1.90460924,8.51010309 2.2816814,8.38243299 L13.7541762,4.49517526 C13.8395371,4.4662268 13.9263824,4.45212371 14.0102587,4.45212371" id="Fill-37" fill="#D34554"></path>
                        <path d="M5.40351233,13.4543505 C4.94775975,13.4543505 4.54916181,13.1819381 4.41258449,12.7766598 L2.0016979,5.64865979 C1.82132676,5.11571134 2.14198656,4.52338144 2.71575975,4.32890722 L14.1882546,0.440907216 C14.3107288,0.399340206 14.4383989,0.378556701 14.566069,0.378556701 C15.0218216,0.378556701 15.4204195,0.650226804 15.5569969,1.05550515 L17.9671412,8.18424742 C18.1475123,8.71719588 17.8275948,9.30952577 17.2538216,9.504 L5.78058449,13.392 C5.65811027,13.433567 5.53118243,13.4543505 5.40351233,13.4543505" id="Fill-38" fill="#F9B95B"></path>
                        <path d="M14.5658463,-5.41788836e-14 C14.3966092,-5.41788836e-14 14.2288567,0.0282061856 14.0670422,0.0823917526 L2.59454738,3.97039175 C1.82333089,4.2316701 1.39652676,5.03925773 1.64370202,5.76964948 L4.05384635,12.8976495 C4.2431247,13.4573196 4.78572264,13.8329072 5.40403192,13.8329072 C5.57252676,13.8329072 5.74027934,13.804701 5.90283604,13.7497732 L17.3753309,9.86251546 C18.1465474,9.60049485 18.5726092,8.79364948 18.325434,8.06251546 L15.9152896,0.934515464 C15.7260113,0.375587629 15.1841556,-5.41788836e-14 14.5658463,-5.41788836e-14 M14.5658463,0.756371134 C14.8523618,0.756371134 15.1106711,0.916701031 15.199001,1.17649485 L17.6091453,8.30523711 C17.7227123,8.64148454 17.5089391,9.01781443 17.131867,9.14548454 L5.65937212,13.0334845 C5.5740113,13.062433 5.48790821,13.0757938 5.40328965,13.0757938 C5.11677418,13.0757938 4.85846491,12.9154639 4.77013501,12.6556701 L2.36073295,5.5276701 C2.24642367,5.19142268 2.46019686,4.81435052 2.83726903,4.68668041 L14.3097639,0.79942268 C14.3951247,0.770474227 14.4819701,0.756371134 14.5658463,0.756371134" id="Fill-39" fill="#F9B95B"></path>
                        <path d="M2.35071233,13.9548619 C1.90238243,13.8739546 1.55871233,13.5354804 1.49561955,13.1123876 L0.388897896,5.66892371 C0.305763875,5.11222268 0.725887587,4.58595464 1.32564016,4.49688247 L13.3058463,2.70727423 C13.4342587,2.68797526 13.5626711,2.68945979 13.6881144,2.7124701 C14.1371866,2.79337732 14.4808567,3.13185155 14.5439494,3.55494433 L15.6499288,10.9984082 C15.7330628,11.5551093 15.3129391,12.0806351 14.7139288,12.1704495 L2.73298037,13.9600577 C2.604568,13.9793567 2.47615563,13.9771299 2.35071233,13.9548619" id="Fill-40" fill="#42B38F"></path>
                        <path d="M13.7554381,2.34022268 C13.5891701,2.30978969 13.4191907,2.30756289 13.2499536,2.3328 L1.26974738,4.12240825 C0.463644288,4.24265567 -0.0989948877,4.9619134 0.0145721226,5.72496495 L1.12129377,13.1676866 C1.20813913,13.7511093 1.67502573,14.2172536 2.28368552,14.326367 C2.44995357,14.3568 2.61993295,14.3590268 2.78917006,14.3337897 L14.7693762,12.5449237 C15.5754793,12.423934 16.1381185,11.7054186 16.0245515,10.942367 L14.9178299,3.49964536 C14.8309845,2.91548041 14.3640979,2.44933608 13.7554381,2.34022268 M13.6210876,3.08471753 C13.9038917,3.13519175 14.1287989,3.33931546 14.1696237,3.61098557 L15.2763453,11.0537072 C15.3283041,11.4048 15.0514381,11.7373361 14.6572938,11.7959753 L2.67708759,13.5855835 C2.58801542,13.5989443 2.50042779,13.5974598 2.41803604,13.5826144 C2.13523192,13.5313979 1.90958243,13.3280165 1.86949996,13.0563464 L0.762778308,5.61362474 C0.710077277,5.26253196 0.987685525,4.92999588 1.38108759,4.8713567 L13.362036,3.08174845 C13.4511082,3.06764536 13.5386958,3.06987216 13.6210876,3.08471753" id="Fill-41" fill="#42B38F"></path>
                        <path d="M5.66694326,15.1034474 C5.21787109,15.0269938 4.87048965,14.6914887 4.80294326,14.2691381 L3.6219948,6.83829278 C3.53366491,6.28159175 3.94859274,5.75161237 4.54686078,5.65585979 L16.5085103,3.74674639 C16.6369226,3.72596289 16.765335,3.72670515 16.8915206,3.74823093 C17.341335,3.82468454 17.6879742,4.15944742 17.7555206,4.58254021 L18.936469,12.0133856 C19.0247989,12.5693443 18.6098711,13.0993237 18.0116031,13.1950763 L6.0492113,15.104932 C5.92154119,15.1257155 5.79238656,15.1249732 5.66694326,15.1034474" id="Fill-42" fill="#10B0E5"></path>
                        <path d="M16.9546876,3.37501856 C16.7884195,3.34681237 16.6176979,3.3460701 16.4492031,3.37279175 L4.48755357,5.28264742 C3.68293501,5.41105979 3.12697625,6.1355134 3.24870821,6.89708041 L4.42965666,14.328668 C4.52244016,14.9113485 4.99378037,15.3730392 5.6039247,15.4762144 C5.77019274,15.5044206 5.94017212,15.5051629 6.10940924,15.4784412 L18.0710587,13.5685856 C18.8756773,13.4401732 19.4308938,12.7157196 19.3099041,11.9541526 L18.1289556,4.52256495 C18.0361721,3.93988454 17.5640896,3.47893608 16.9546876,3.37501856 M16.8277598,4.12099794 C17.1105639,4.16924536 17.3384402,4.3704 17.3814917,4.6420701 L18.5624402,12.0729155 C18.6188525,12.423266 18.3449556,12.7587711 17.9515536,12.8218639 L5.98990408,14.7309773 C5.90008965,14.7450804 5.81324429,14.7443381 5.73011027,14.7302351 C5.44730614,14.6819876 5.21942985,14.480833 5.17637831,14.2099052 L3.99542985,6.77831753 C3.93975975,6.42796701 4.21291439,6.09246186 4.60631645,6.03011134 L16.5687082,4.12025567 C16.6577804,4.10615258 16.745368,4.10689485 16.8277598,4.12099794" id="Fill-43" fill="#10B0E5"></path>
                        <path d="M5.08782573,15.4122309 C4.63207315,15.4122309 4.23347522,15.1398186 4.0968979,14.7345402 L1.6860113,7.60654021 C1.50564016,7.07359175 1.82629996,6.48126186 2.40007315,6.28678763 L13.872568,2.39878763 C13.9950422,2.35722062 14.1219701,2.33569485 14.2496402,2.33569485 C14.706135,2.33569485 15.1047329,2.60810722 15.2413103,3.01338557 L17.6514546,10.1413856 C17.8318257,10.6750763 17.5119082,11.2674062 16.9373927,11.4618804 L5.4648979,15.3498804 C5.34242367,15.3914474 5.21549583,15.4122309 5.08782573,15.4122309" id="Fill-44" fill="#044C92"></path>
                        <path d="M14.2497886,1.95788041 C14.0805515,1.95788041 13.9127989,1.98534433 13.7517268,2.04027216 L2.27848965,5.92827216 C1.50727315,6.18955052 1.08046903,6.99713814 1.32764429,7.7275299 L3.73778862,14.8555299 C3.92706697,15.4144577 4.46966491,15.7900454 5.08797418,15.7900454 C5.25646903,15.7900454 5.42496388,15.7625814 5.58677831,15.7076536 L17.0592732,11.8203959 C17.8304896,11.5583753 18.2572938,10.7515299 18.0101185,10.0203959 L15.5992319,2.89239588 C15.4106958,2.33346804 14.8680979,1.95788041 14.2497886,1.95788041 M14.2497886,2.71425155 C14.5370463,2.71425155 14.7946134,2.87458144 14.8829433,3.13437526 L17.2930876,10.2631175 C17.4066546,10.5993649 17.1936237,10.9756948 16.8165515,11.1033649 L5.34331439,14.9913649 C5.25795357,15.0203134 5.17185047,15.0336742 5.08797418,15.0336742 C4.80071645,15.0336742 4.54240717,14.8733443 4.45481955,14.6135505 L2.04467522,7.48555052 C1.93036594,7.14930309 2.14413913,6.77223093 2.5212113,6.64456082 L13.9937061,2.75730309 C14.0798092,2.72835464 14.1659123,2.71425155 14.2497886,2.71425155" id="Fill-45" fill="#FEFEFE"></path>
                        <mask id="mask-10" fill="white">
                            <use xlink:href="#path-9"></use>
                        </mask>
                        <g id="Clip-48"></g>
                        <polygon id="Fill-47" fill="#FEFEFE" mask="url(#mask-10)" points="6.05269996 10.3190103 6.76082367 10.3190103 6.76082367 6.57649485 6.05269996 6.57649485"></polygon>
                        <path d="M8.8799247,7.19651134 L8.28982161,7.19651134 L8.28982161,8.28690309 L8.8799247,8.28690309 C9.04841955,8.28690309 9.18351233,8.23717113 9.28446078,8.13770722 C9.38540924,8.03750103 9.43662573,7.90611959 9.43662573,7.74207835 C9.43662573,7.58174845 9.38540924,7.45036701 9.28446078,7.34941856 C9.18351233,7.24698557 9.04841955,7.19651134 8.8799247,7.19651134 L8.8799247,7.19651134 Z M7.5816979,6.57671753 L8.8799247,6.57671753 C9.26219274,6.57671753 9.57320305,6.6888 9.81221336,6.91370722 C10.0527082,7.13787216 10.1722134,7.41548041 10.1722134,7.74727423 C10.1722134,7.9825732 10.1068938,8.19337732 9.97551233,8.38117113 C9.84487315,8.56822268 9.66672882,8.70776907 9.44182161,8.80055258 L10.3132443,10.3184907 L9.53163604,10.3184907 L8.7730381,8.90743918 L8.28982161,8.90743918 L8.28982161,10.3184907 L7.5816979,10.3184907 L7.5816979,6.57671753 Z" id="Fill-49" fill="#FEFEFE" mask="url(#mask-10)"></path>
                        <polygon id="Fill-50" fill="#FEFEFE" mask="url(#mask-10)" points="12.8993804 9.3251134 12.3152154 9.32362887 11.5603288 7.99496907 11.5603288 10.318268 10.8522051 10.318268 10.8522051 6.57649485 11.4816484 6.57649485 12.6054422 8.5702268 13.7351742 6.57649485 14.3586793 6.57649485 14.3586793 10.318268 13.6505556 10.318268 13.6505556 7.99868041"></polygon>
                        <path d="M16.4889144,7.41577732 L15.9930793,8.97157113 L16.9840072,8.97157113 L16.4889144,7.41577732 Z M17.4108113,10.3187876 L17.1584402,9.52233402 L15.8193886,9.52233402 L15.5670175,10.3187876 L14.7972855,10.3187876 L16.1296567,6.57627216 L16.8429762,6.57627216 L18.1746051,10.3187876 L17.4108113,10.3187876 Z" id="Fill-51" fill="#FEFEFE" mask="url(#mask-10)"></path>
                    </g>
                </g>
                <g id="Hand" transform="translate(0.000000, 44.645055)">
                    <path d="M64.7431966,56.3452974 C64.7431966,56.3452974 62.8052105,21.5026065 55.4041341,10.5144641 C48.0038043,-0.473678264 37.5397244,-0.911143541 36.7327279,0.680453681 C33.8257487,3.58743285 48.5868424,16.409794 48.5868424,23.7630926 L48.5868424,32.8154884 C48.5868424,36.1330578 45.8978494,38.8213044 42.5810265,38.8213044 L13.5672244,38.8213044 C13.5672244,38.8213044 23.0802279,51.201721 30.4760786,57.1321377 C37.8711827,63.0625544 52.9264084,77.1734224 52.9264084,77.1734224 L64.7431966,56.3452974 Z" id="Fill-49" fill="#EF888B"></path>
                    <g id="vingers" transform="translate(7.000000, 14.854945) rotate(-5.000000) translate(-7.000000, -14.854945) translate(2.000000, 2.354945)">
                        <g id="Group-5" transform="translate(-0.000000, 0.000000)">
                            <path d="M0.930920354,0.0341393038 C1.37734397,-0.445878057 9.71120681,4.23634416 9.4312589,7.76891361 C9.15131098,11.3022296 5.15178841,9.43367055 5.15178841,9.43367055 C5.15178841,9.43367055 10.0583422,12.227924 9.77988737,14.5399206 C9.50143251,16.850424 5.00546897,17.7014657 5.00546897,17.7014657 C5.00546897,17.7014657 7.35217903,18.9937053 7.26707487,20.9092956 C7.1819707,22.8241393 2.09065126,24.2507539 2.09065126,24.2507539 C2.09065126,24.2507539 0.680833549,24.5120386 0.640521049,19.3759275 C0.714800563,17.3543303 1.68155403,16.8967087 1.68155403,16.8967087 C1.68155403,16.8967087 0.266137368,15.7433233 0.349375215,11.7897122 C0.406857854,9.95176083 1.30493077,8.66773305 1.30493077,8.66773305 C1.30493077,8.66773305 -0.0511369375,7.17691708 0.00149327084,3.44577125 C0.0186634097,0.315580276 0.930920354,0.0341393038 0.930920354,0.0341393038" id="Fill-51" fill="#EF888B"></path>
                            <path d="M8.72918685,9.41239451 C8.72918685,9.41239451 8.72993338,9.41164798 8.72993338,9.41090146 C8.92589692,9.23397437 9.08677365,8.99359243 9.20808442,8.68676951 C7.71726844,9.68562368 2.52143511,6.71444312 0.686469833,7.56175215 C0.999638236,8.30230771 1.3049681,8.66810632 1.3049681,8.66810632 C1.3049681,8.66810632 1.47741601,8.13135285 5.15182574,9.43329729 C7.2040306,10.1611619 8.21706879,9.83716882 8.72918685,9.41239451" id="Fill-53" fill="#E17981"></path>
                            <path d="M1.10754883,16.0859049 C1.36920681,16.5771202 1.61294813,16.8301931 1.65027452,16.8630403 C2.0825141,16.8518424 3.00783528,16.9944292 5.01450195,17.699898 C5.05966688,17.6901931 8.28317383,17.0601237 9.40221897,15.4461306 C7.92334744,16.3942209 3.57631619,16.3180751 1.10754883,16.0859049" id="Fill-55" fill="#E17981"></path>
                            <path d="M1.06215994,23.0080837 C1.43803667,24.3936393 2.09050195,24.2510525 2.09050195,24.2510525 C2.09050195,24.2510525 5.61709917,23.4679449 6.83729883,21.8502192 C5.3946339,22.6855837 2.84710785,23.2387608 1.06215994,23.0080837" id="Fill-57" fill="#E17981"></path>
                        </g>
                    </g>
                    <path d="M53.9681133,65.7235526 C53.9666202,65.7235526 53.9651272,65.7235526 53.9636341,65.7228061 C42.5775924,64.5044728 27.4387556,54.1381881 26.7616549,53.6716082 C27.865023,54.6816603 28.9803355,55.6655839 30.0971411,56.5621638 C35.1026098,60.5754971 43.547332,68.2736915 48.5251793,72.8693165 C49.8577313,70.8088999 51.7740681,68.2826499 53.9681133,65.7235526" id="Fill-59" fill="#E17981"></path>
                    <path d="M98.5906914,82.8615908 L100.654841,82.8615908 C85.5488511,67.7003582 71.2289553,53.9657401 69.150622,53.7895596 C63.1739206,53.2841603 46.4248233,73.5396985 46.6301185,76.9169901 C46.6547539,77.3051846 47.8021671,79.4178582 49.8409345,82.8615908 L98.5906914,82.8615908 Z" id="Fill-61" fill="#D44454"></path>
                    <path d="M44.826806,41.1573391 C50.4421879,38.7139537 48.7050178,31.8974085 48.7050178,31.8974085 L48.5825872,31.9459328 C48.5825872,35.8219051 46.1660768,38.8087627 41.4017365,38.8087627 L22.4055907,38.8087627 C22.4063372,38.8087627 39.211424,43.6007245 44.826806,41.1573391" id="Fill-63" fill="#E17981"></path>
                </g>
            </g>
        </g>
    </g>
</svg>