<?xml version="1.0" encoding="UTF-8"?>
<svg width="219px" height="214px" viewBox="0 0 219 214" version="1.1" xmlns="http://www.w3.org/2000/svg" xmlns:xlink="http://www.w3.org/1999/xlink">
    <!-- Generator: Sketch 61.2 (89653) - https://sketch.com -->
    <title>step_5</title>
    <desc>Created with Sketch.</desc>
    <defs>
        <polygon id="path-1" points="0 0.606964286 188.767869 0.606964286 188.767869 11 0 11"></polygon>
        <polygon id="path-3" points="0 117 189 117 189 0 0 0"></polygon>
        <linearGradient x1="50%" y1="0%" x2="50%" y2="100%" id="linearGradient-5">
            <stop stop-color="#FFFFFF" stop-opacity="0.5" offset="0%"></stop>
            <stop stop-color="#000000" stop-opacity="0.5" offset="100%"></stop>
        </linearGradient>
        <path d="M1.90512085,47.3910498 C2.59835815,46.8568101 6.62998454,46.9857612 14,47.7779028 L14,50.7779028 L2,50.7779028 C1.24350993,49.0542404 1.21188354,47.9252894 1.90512085,47.3910498 Z" id="path-6"></path>
        <linearGradient x1="50%" y1="0%" x2="50%" y2="100%" id="linearGradient-7">
            <stop stop-color="#FFFFFF" stop-opacity="0.5" offset="0%"></stop>
            <stop stop-color="#000000" stop-opacity="0.5" offset="100%"></stop>
        </linearGradient>
        <path d="M4.92703247,69.7573326 C5.62026978,69.4693037 9.50863304,69.5476971 16.5921223,69.992513 L16.5921223,71.6099274 L4.59212225,71.6099274 C4.12215843,70.6628932 4.23379517,70.0453616 4.92703247,69.7573326 Z" id="path-8"></path>
    </defs>
    <g id="step_5" stroke="none" stroke-width="1" fill="none" fill-rule="evenodd">
        <polygon id="Fill-32" fill="#E8ECF0" points="41 62 179 62 179 50 41 50"></polygon>
        <g id="Background" transform="translate(15.000000, 42.000000)">
            <g id="Group-3" transform="translate(0.000000, 106.000000)">
                <mask id="mask-2" fill="white">
                    <use xlink:href="#path-1"></use>
                </mask>
                <g id="Clip-2"></g>
                <path d="M110.531562,0.606964286 C110.531562,2.05189286 109.215831,3.23360714 107.607715,3.23360714 L81.1622538,3.23360714 C79.5541385,3.23360714 78.2384077,2.05189286 78.2384077,0.606964286 L-0.000323076923,0.606964286 L-0.000323076923,6.22167857 L0.00533076923,6.22167857 C0.0667153846,8.85460714 3.38794615,11.0003929 5.71086923,11.0003929 L183.055869,11.0003929 C185.382831,11.0003929 188.701638,8.85460714 188.763023,6.22167857 L188.767869,0.606964286 L110.531562,0.606964286 Z" id="Fill-1" fill="#D9E0E4" mask="url(#mask-2)"></path>
            </g>
            <mask id="mask-4" fill="white">
                <use xlink:href="#path-3"></use>
            </mask>
            <g id="Clip-5"></g>
            <path d="M26.8143727,93.3258757 L162.184012,93.3258757 L162.184012,9.05426212 L26.8143727,9.05426212 L26.8143727,93.3258757 Z M96.5192369,3.99673728 C96.5192369,5.11246281 95.6154264,6.01651557 94.5,6.01651557 C93.3845736,6.01651557 92.4807631,5.11246281 92.4807631,3.99673728 C92.4807631,2.88101175 93.3845736,1.97695899 94.5,1.97695899 C95.6154264,1.97695899 96.5192369,2.88101175 96.5192369,3.99673728 Z M26.8781806,104 L26.8781806,102.250064 L38.0833298,102.250064 L38.0833298,104 L150.127552,104 L150.127552,102.250064 L161.334317,102.250064 L161.334317,104 L165.788754,104 C168.650416,104 171,101.65221 171,98.7865483 L171,5.20375679 C171,2.33971117 168.650416,0 165.788754,0 L23.2104388,0 C20.3471609,0 18,2.33971117 18,5.20375679 L18,98.7865483 C18,101.65221 20.3471609,104 23.2104388,104 L26.8781806,104 Z" id="Fill-4" fill="#D4DBE0" mask="url(#mask-4)"></path>
        </g>
        <g id="Group" transform="translate(47.000000, 69.000000)" fill="#E8ECF0">
            <rect id="Rectangle" x="0" y="14" width="30" height="2" rx="1"></rect>
            <rect id="Rectangle" x="0" y="6" width="47" height="2" rx="1"></rect>
            <rect id="Rectangle" x="0" y="0" width="25" height="3" rx="1"></rect>
            <rect id="Rectangle" x="0" y="10" width="47" height="2" rx="1"></rect>
        </g>
        <g id="Group" transform="translate(125.000000, 69.000000)" fill="#E8ECF0">
            <rect id="Rectangle" x="0" y="14" width="30" height="2" rx="1"></rect>
            <rect id="Rectangle" x="0" y="6" width="47" height="2" rx="1"></rect>
            <rect id="Rectangle" x="0" y="0" width="25" height="3" rx="1"></rect>
            <rect id="Rectangle" x="0" y="10" width="47" height="2" rx="1"></rect>
        </g>
        <path d="M163.446561,58 L139.554061,58 C139.248394,58 139,58.29452 139,58.6586 C139,59.02194 139.248394,59.31646 139.554061,59.31646 L163.446561,59.31646 C163.752229,59.31646 164,59.02194 164,58.6586 C164,58.29452 163.752229,58 163.446561,58" id="Fill-3" fill="#FFFFFF"></path>
        <path d="M70.7786244,58 L61.2216246,58 C61.0993575,58 61,58.29452 61,58.6586 C61,59.02194 61.0993575,59.31646 61.2216246,59.31646 L70.7786244,59.31646 C70.9008915,59.31646 71,59.02194 71,58.6586 C71,58.29452 70.9008915,58 70.7786244,58" id="Fill-3" fill="#D4DBE0"></path>
        <path d="M83.7786244,58 L74.2216246,58 C74.0993575,58 74,58.29452 74,58.6586 C74,59.02194 74.0993575,59.31646 74.2216246,59.31646 L83.7786244,59.31646 C83.9008915,59.31646 84,59.02194 84,58.6586 C84,58.29452 83.9008915,58 83.7786244,58" id="Fill-3" fill="#D4DBE0"></path>
        <path d="M56.7786244,58 L47.2216246,58 C47.0993575,58 47,58.29452 47,58.6586 C47,59.02194 47.0993575,59.31646 47.2216246,59.31646 L56.7786244,59.31646 C56.9008915,59.31646 57,59.02194 57,58.6586 C57,58.29452 56.9008915,58 56.7786244,58" id="Fill-3" fill="#D4DBE0"></path>
        <g id="Group-2" transform="translate(86.000000, 87.022097)">
            <g id="Rectangle">
                <use fill="#E5858C" xlink:href="#path-6"></use>
                <use fill-opacity="0.4" fill="url(#linearGradient-5)" style="mix-blend-mode: multiply;" xlink:href="#path-6"></use>
            </g>
            <g id="Rectangle" transform="translate(10.449714, 70.598727) scale(1, -1) translate(-10.449714, -70.598727) ">
                <use fill="#E5858C" xlink:href="#path-8"></use>
                <use fill="url(#linearGradient-7)" style="mix-blend-mode: multiply;" xlink:href="#path-8"></use>
            </g>
            <path d="M42.4867378,83.0661458 L13.505783,83.0661458 C10.1702969,83.0661458 7.46637326,80.3622222 7.46637326,77.0274826 L7.46637326,6.03940972 C7.46637326,2.70467014 10.1702969,7.10542736e-15 13.505783,7.10542736e-15 L42.4867378,7.10542736e-15 C45.822224,7.10542736e-15 48.5261476,2.70467014 48.5261476,6.03940972 L48.5261476,77.0274826 C48.5261476,80.3622222 45.822224,83.0661458 42.4867378,83.0661458" id="Fill-20" fill="#1A3F61"></path>
            <path d="M42.4867378,83.0661458 L13.505783,83.0661458 C10.1702969,83.0661458 7.46637326,80.3622222 7.46637326,77.0274826 L7.46637326,6.03940972 C7.46637326,2.70467014 10.1702969,7.10542736e-15 13.505783,7.10542736e-15 L42.4867378,7.10542736e-15 C45.822224,7.10542736e-15 48.5261476,2.70467014 48.5261476,6.03940972 L48.5261476,77.0274826 C48.5261476,80.3622222 45.822224,83.0661458 42.4867378,83.0661458 Z" id="Stroke-22" stroke="#1A3F61" stroke-width="0.746527778"></path>
            <path d="M42.0463611,1.94828819 L39.0930972,1.94828819 C38.751934,1.94828819 38.4480972,2.16254167 38.3323854,2.48429514 L37.9195556,3.64215972 C37.650059,4.39391319 36.9378715,4.89557986 36.1398333,4.89557986 L19.7356319,4.89557986 C18.8920556,4.89557986 18.1507535,4.33643056 17.9193299,3.52570139 L17.6356493,2.53356597 C17.5363611,2.18717708 17.2198333,1.94828819 16.8592604,1.94828819 L13.946309,1.94828819 C11.472316,1.94828819 9.46714236,3.95420833 9.46714236,6.42745486 L9.46714236,76.6391389 C9.46714236,79.1131319 11.472316,81.1183056 13.946309,81.1183056 L42.0463611,81.1183056 C44.5196076,81.1183056 46.5255278,79.1131319 46.5255278,76.6391389 L46.5255278,6.42745486 C46.5255278,3.95420833 44.5196076,1.94828819 42.0463611,1.94828819" id="Fill-24" fill="#FEFEFE"></path>
            <polygon id="Fill-32" fill="#E8ECF0" points="9.46729167 19.6496563 46.5256771 19.6496563 46.5256771 13.2451944 9.46729167 13.2451944"></polygon>
            <path d="M27.139528,26.4944624 L13.597528,26.4944624 C13.234188,26.4944624 12.939668,26.7889824 12.939668,27.1530624 C12.939668,27.5164024 13.234188,27.8101824 13.597528,27.8101824 L27.139528,27.8101824 C27.502868,27.8101824 27.798128,27.5164024 27.798128,27.1530624 C27.798128,26.7889824 27.502868,26.4944624 27.139528,26.4944624" id="Fill-1" fill="#E8ECF0"></path>
            <path d="M41.998062,29.2550324 L13.597602,29.2550324 C13.234262,29.2550324 12.939002,29.5495524 12.939002,29.9136324 C12.939002,30.2769724 13.234262,30.5714924 13.597602,30.5714924 L41.998062,30.5714924 C42.361402,30.5714924 42.655922,30.2769724 42.655922,29.9136324 C42.655922,29.5495524 42.361402,29.2550324 41.998062,29.2550324" id="Fill-3" fill="#E8ECF0"></path>
            <path d="M41.998062,31.9780104 L13.597602,31.9780104 C13.234262,31.9780104 12.939002,32.2717904 12.939002,32.6358704 C12.939002,32.9992104 13.234262,33.2937304 13.597602,33.2937304 L41.998062,33.2937304 C42.361402,33.2937304 42.655922,32.9992104 42.655922,32.6358704 C42.655922,32.2717904 42.361402,31.9780104 41.998062,31.9780104" id="Fill-5" fill="#E8ECF0"></path>
            <path d="M41.998062,43.8924544 L28.456062,43.8924544 C28.091982,43.8924544 27.798202,44.1862344 27.798202,44.5503144 C27.798202,44.9136544 28.091982,45.2081744 28.456062,45.2081744 L41.998062,45.2081744 C42.361402,45.2081744 42.655922,44.9136544 42.655922,44.5503144 C42.655922,44.1862344 42.361402,43.8924544 41.998062,43.8924544" id="Fill-35" fill="#E8ECF0"></path>
            <path d="M41.998062,46.6530244 L13.597602,46.6530244 C13.234262,46.6530244 12.939002,46.9468044 12.939002,47.3108844 C12.939002,47.6742244 13.234262,47.9687444 13.597602,47.9687444 L41.998062,47.9687444 C42.361402,47.9687444 42.655922,47.6742244 42.655922,47.3108844 C42.655922,46.9468044 42.361402,46.6530244 41.998062,46.6530244" id="Fill-37" fill="#E8ECF0"></path>
            <path d="M41.998062,49.3752624 L13.597602,49.3752624 C13.234262,49.3752624 12.939002,49.6697824 12.939002,50.0331224 C12.939002,50.3972024 13.234262,50.6909824 13.597602,50.6909824 L41.998062,50.6909824 C42.361402,50.6909824 42.655922,50.3972024 42.655922,50.0331224 C42.655922,49.6697824 42.361402,49.3752624 41.998062,49.3752624" id="Fill-39" fill="#E8ECF0"></path>
            <path d="M31.957446,34.7385804 L13.597306,34.7385804 C13.233966,34.7385804 12.939446,35.0323604 12.939446,35.3964404 C12.939446,35.7597804 13.233966,36.0543004 13.597306,36.0543004 L31.957446,36.0543004 C32.320786,36.0543004 32.616046,35.7597804 32.616046,35.3964404 C32.616046,35.0323604 32.320786,34.7385804 31.957446,34.7385804" id="Fill-24" fill="#E8ECF0"></path>
            <path d="M27.139528,61.1479964 L13.597528,61.1479964 C13.234188,61.1479964 12.939668,61.4425164 12.939668,61.8065964 C12.939668,62.1691964 13.234188,62.4637164 13.597528,62.4637164 L27.139528,62.4637164 C27.502868,62.4637164 27.798128,62.1691964 27.798128,61.8065964 C27.798128,61.4425164 27.502868,61.1479964 27.139528,61.1479964" id="Fill-26" fill="#E8ECF0"></path>
            <path d="M31.957446,69.3913744 L13.597306,69.3913744 C13.233966,69.3913744 12.939446,69.6858944 12.939446,70.0499744 C12.939446,70.4133144 13.233966,70.7078344 13.597306,70.7078344 L31.957446,70.7078344 C32.320786,70.7078344 32.616046,70.4133144 32.616046,70.0499744 C32.616046,69.6858944 32.320786,69.3913744 31.957446,69.3913744" id="Fill-32" fill="#E8ECF0"></path>
            <path d="M41.998062,63.9085664 L13.597602,63.9085664 C13.234262,63.9085664 12.939002,64.2030864 12.939002,64.5671664 C12.939002,64.9305064 13.234262,65.2242864 13.597602,65.2242864 L41.998062,65.2242864 C42.361402,65.2242864 42.655922,64.9305064 42.655922,64.5671664 C42.655922,64.2030864 42.361402,63.9085664 41.998062,63.9085664" id="Fill-28" fill="#E8ECF0"></path>
            <path d="M41.998062,66.6308044 L13.597602,66.6308044 C13.234262,66.6308044 12.939002,66.9253244 12.939002,67.2894044 C12.939002,67.6527444 13.234262,67.9472644 13.597602,67.9472644 L41.998062,67.9472644 C42.361402,67.9472644 42.655922,67.6527444 42.655922,67.2894044 C42.655922,66.9253244 42.361402,66.6308044 41.998062,66.6308044" id="Fill-30" fill="#E8ECF0"></path>
            <path d="M41.998062,52.1357584 L23.637182,52.1357584 C23.274582,52.1357584 22.980062,52.4302784 22.980062,52.7936184 C22.980062,53.1576984 23.274582,53.4514784 23.637182,53.4514784 L41.998062,53.4514784 C42.361402,53.4514784 42.655922,53.1576984 42.655922,52.7936184 C42.655922,52.4302784 42.361402,52.1357584 41.998062,52.1357584" id="Fill-41" fill="#E8ECF0"></path>
            <path d="M40.092414,16.6439524 C39.649154,16.6439524 39.290254,16.2850524 39.290254,15.8417924 C39.290254,15.3985324 39.649154,15.0396324 40.092414,15.0396324 C40.536414,15.0396324 40.894574,15.3985324 40.894574,15.8417924 C40.894574,16.2850524 40.536414,16.6439524 40.092414,16.6439524 M40.066514,14.0546924 C38.636094,14.0546924 37.477254,15.2135324 37.477254,16.6439524 C37.477254,17.4882924 37.882774,18.2342124 38.506594,18.7070724 C38.504374,18.6737724 38.502154,18.6397324 38.502154,18.6056924 C38.502154,17.7495124 39.214034,17.0561324 40.092414,17.0561324 C40.970794,17.0561324 41.683414,17.7495124 41.683414,18.6056924 C41.683414,18.6264124 41.681194,18.6463924 41.680454,18.6663724 C42.274674,18.1927724 42.655774,17.4631324 42.655774,16.6439524 C42.655774,15.2135324 41.496194,14.0546924 40.066514,14.0546924" id="Fill-22" fill="#044C92"></path>
            <path d="M11.9064219,9.28822396 C11.9422552,9.25239062 11.9997378,9.25239062 12.0355712,9.28822396 L12.8821337,10.1347865 L13.7286962,9.28822396 C13.7607969,9.25612326 13.8115608,9.25313715 13.8473941,9.27926562 L13.857099,9.28822396 C13.8929323,9.32405729 13.8929323,9.38153993 13.857099,9.41737326 L13.0105365,10.2639358 L13.857099,11.1097517 C13.8899462,11.142599 13.8929323,11.1933628 13.8660573,11.2291962 L13.857099,11.238901 C13.8220122,11.2747344 13.7645295,11.2747344 13.7286962,11.238901 L12.8821337,10.3923385 L12.0355712,11.238901 C12.002724,11.2710017 11.9527066,11.2739878 11.9168733,11.2478594 L11.9064219,11.238901 C11.8713351,11.2030677 11.8713351,11.1455851 11.9064219,11.1097517 L12.7529844,10.2639358 L11.9064219,9.41737326 C11.8743212,9.38452604 11.8713351,9.33450868 11.8974635,9.29867535 L11.9064219,9.28822396 Z" id="Fill-34" fill="#1A3F61"></path>
            <text id="www." font-family="Montserrat-Medium, Montserrat" font-size="2.5" font-weight="400" fill="#1A3F61">
                <tspan x="17" y="10.9643264">www.</tspan>
            </text>
            <g id="Hand" transform="translate(0.000000, 44.622958)">
                <path d="M64.7431966,56.3452974 C64.7431966,56.3452974 62.8052105,21.5026065 55.4041341,10.5144641 C48.0038043,-0.473678264 37.5397244,-0.911143541 36.7327279,0.680453681 C33.8257487,3.58743285 48.5868424,16.409794 48.5868424,23.7630926 L48.5868424,32.8154884 C48.5868424,36.1330578 45.8978494,38.8213044 42.5810265,38.8213044 L13.5672244,38.8213044 C13.5672244,38.8213044 23.0802279,51.201721 30.4760786,57.1321377 C37.8711827,63.0625544 52.9264084,77.1734224 52.9264084,77.1734224 L64.7431966,56.3452974 Z" id="Fill-49" fill="#EF888B"></path>
                <g id="vingers" transform="translate(7.000000, 14.854945) rotate(-5.000000) translate(-7.000000, -14.854945) translate(2.000000, 2.354945)">
                    <g id="Group-5" transform="translate(-0.000000, 0.000000)">
                        <path d="M0.930920354,0.0341393038 C1.37734397,-0.445878057 9.71120681,4.23634416 9.4312589,7.76891361 C9.15131098,11.3022296 5.15178841,9.43367055 5.15178841,9.43367055 C5.15178841,9.43367055 10.0583422,12.227924 9.77988737,14.5399206 C9.50143251,16.850424 5.00546897,17.7014657 5.00546897,17.7014657 C5.00546897,17.7014657 7.35217903,18.9937053 7.26707487,20.9092956 C7.1819707,22.8241393 2.09065126,24.2507539 2.09065126,24.2507539 C2.09065126,24.2507539 0.680833549,24.5120386 0.640521049,19.3759275 C0.714800563,17.3543303 1.68155403,16.8967087 1.68155403,16.8967087 C1.68155403,16.8967087 0.266137368,15.7433233 0.349375215,11.7897122 C0.406857854,9.95176083 1.30493077,8.66773305 1.30493077,8.66773305 C1.30493077,8.66773305 -0.0511369375,7.17691708 0.00149327084,3.44577125 C0.0186634097,0.315580276 0.930920354,0.0341393038 0.930920354,0.0341393038" id="Fill-51" fill="#EF888B"></path>
                        <path d="M8.72918685,9.41239451 C8.72918685,9.41239451 8.72993338,9.41164798 8.72993338,9.41090146 C8.92589692,9.23397437 9.08677365,8.99359243 9.20808442,8.68676951 C7.71726844,9.68562368 2.52143511,6.71444312 0.686469833,7.56175215 C0.999638236,8.30230771 1.3049681,8.66810632 1.3049681,8.66810632 C1.3049681,8.66810632 1.47741601,8.13135285 5.15182574,9.43329729 C7.2040306,10.1611619 8.21706879,9.83716882 8.72918685,9.41239451" id="Fill-53" fill="#E17981"></path>
                        <path d="M1.10754883,16.0859049 C1.36920681,16.5771202 1.61294813,16.8301931 1.65027452,16.8630403 C2.0825141,16.8518424 3.00783528,16.9944292 5.01450195,17.699898 C5.05966688,17.6901931 8.28317383,17.0601237 9.40221897,15.4461306 C7.92334744,16.3942209 3.57631619,16.3180751 1.10754883,16.0859049" id="Fill-55" fill="#E17981"></path>
                        <path d="M1.06215994,23.0080837 C1.43803667,24.3936393 2.09050195,24.2510525 2.09050195,24.2510525 C2.09050195,24.2510525 5.61709917,23.4679449 6.83729883,21.8502192 C5.3946339,22.6855837 2.84710785,23.2387608 1.06215994,23.0080837" id="Fill-57" fill="#E17981"></path>
                    </g>
                </g>
                <path d="M53.9681133,65.7235526 C53.9666202,65.7235526 53.9651272,65.7235526 53.9636341,65.7228061 C42.5775924,64.5044728 27.4387556,54.1381881 26.7616549,53.6716082 C27.865023,54.6816603 28.9803355,55.6655839 30.0971411,56.5621638 C35.1026098,60.5754971 43.547332,68.2736915 48.5251793,72.8693165 C49.8577313,70.8088999 51.7740681,68.2826499 53.9681133,65.7235526" id="Fill-59" fill="#E17981"></path>
                <path d="M98.5906914,82.8615908 L100.654841,82.8615908 C85.5488511,67.7003582 71.2289553,53.9657401 69.150622,53.7895596 C63.1739206,53.2841603 46.4248233,73.5396985 46.6301185,76.9169901 C46.6547539,77.3051846 47.8021671,79.4178582 49.8409345,82.8615908 L98.5906914,82.8615908 Z" id="Fill-61" fill="#D44454"></path>
                <path d="M44.826806,41.1573391 C50.4421879,38.7139537 48.7050178,31.8974085 48.7050178,31.8974085 L48.5825872,31.9459328 C48.5825872,35.8219051 46.1660768,38.8087627 41.4017365,38.8087627 L22.4055907,38.8087627 C22.4063372,38.8087627 39.211424,43.6007245 44.826806,41.1573391" id="Fill-63" fill="#E17981"></path>
            </g>
        </g>
        <path d="M169.61516,58.58926 C169.1719,58.58926 168.813,58.23036 168.813,57.7871 C168.813,57.34384 169.1719,56.98494 169.61516,56.98494 C170.05916,56.98494 170.41732,57.34384 170.41732,57.7871 C170.41732,58.23036 170.05916,58.58926 169.61516,58.58926 M169.58926,56 C168.15884,56 167,57.15884 167,58.58926 C167,59.4336 167.40552,60.17952 168.02934,60.65238 C168.02712,60.61908 168.0249,60.58504 168.0249,60.551 C168.0249,59.69482 168.73678,59.00144 169.61516,59.00144 C170.49354,59.00144 171.20616,59.69482 171.20616,60.551 C171.20616,60.57172 171.20394,60.5917 171.2032,60.61168 C171.79742,60.13808 172.17852,59.40844 172.17852,58.58926 C172.17852,57.15884 171.01894,56 169.58926,56" id="Fill-22" fill="#044C92"></path>
    </g>
</svg>