<?xml version="1.0" encoding="UTF-8"?>
<svg width="219px" height="214px" viewBox="0 0 219 214" version="1.1" xmlns="http://www.w3.org/2000/svg" xmlns:xlink="http://www.w3.org/1999/xlink">
    <!-- Generator: Sketch 61.2 (89653) - https://sketch.com -->
    <title>step_1</title>
    <desc>Created with Sketch.</desc>
    <defs>
        <polygon id="path-1" points="0 0.606964286 188.767869 0.606964286 188.767869 11 0 11"></polygon>
        <polygon id="path-3" points="0 117 189 117 189 0 0 0"></polygon>
    </defs>
    <g id="step_1" stroke="none" stroke-width="1" fill="none" fill-rule="evenodd">
        <g id="Group-4" transform="translate(15.000000, 42.000000)">
            <polygon id="Fill-32" fill="#E8ECF0" points="26 20 164 20 164 8 26 8"></polygon>
            <g id="Background">
                <g id="Group-3" transform="translate(0.000000, 106.000000)">
                    <mask id="mask-2" fill="white">
                        <use xlink:href="#path-1"></use>
                    </mask>
                    <g id="Clip-2"></g>
                    <path d="M110.531562,0.606964286 C110.531562,2.05189286 109.215831,3.23360714 107.607715,3.23360714 L81.1622538,3.23360714 C79.5541385,3.23360714 78.2384077,2.05189286 78.2384077,0.606964286 L-0.000323076923,0.606964286 L-0.000323076923,6.22167857 L0.00533076923,6.22167857 C0.0667153846,8.85460714 3.38794615,11.0003929 5.71086923,11.0003929 L183.055869,11.0003929 C185.382831,11.0003929 188.701638,8.85460714 188.763023,6.22167857 L188.767869,0.606964286 L110.531562,0.606964286 Z" id="Fill-1" fill="#D9E0E4" mask="url(#mask-2)"></path>
                </g>
                <mask id="mask-4" fill="white">
                    <use xlink:href="#path-3"></use>
                </mask>
                <g id="Clip-5"></g>
                <path d="M26.8143727,93.3258757 L162.184012,93.3258757 L162.184012,9.05426212 L26.8143727,9.05426212 L26.8143727,93.3258757 Z M96.5192369,3.99673728 C96.5192369,5.11246281 95.6154264,6.01651557 94.5,6.01651557 C93.3845736,6.01651557 92.4807631,5.11246281 92.4807631,3.99673728 C92.4807631,2.88101175 93.3845736,1.97695899 94.5,1.97695899 C95.6154264,1.97695899 96.5192369,2.88101175 96.5192369,3.99673728 Z M26.8781806,104 L26.8781806,102.250064 L38.0833298,102.250064 L38.0833298,104 L150.127552,104 L150.127552,102.250064 L161.334317,102.250064 L161.334317,104 L165.788754,104 C168.650416,104 171,101.65221 171,98.7865483 L171,5.20375679 C171,2.33971117 168.650416,0 165.788754,0 L23.2104388,0 C20.3471609,0 18,2.33971117 18,5.20375679 L18,98.7865483 C18,101.65221 20.3471609,104 23.2104388,104 L26.8781806,104 Z" id="Fill-4" fill="#D4DBE0" mask="url(#mask-4)"></path>
            </g>
            <g id="Group" transform="translate(32.000000, 27.000000)" fill="#E8ECF0">
                <rect id="Rectangle" x="0" y="6" width="47" height="2" rx="1"></rect>
                <rect id="Rectangle" x="0" y="0" width="25" height="3" rx="1"></rect>
                <rect id="Rectangle" x="0" y="10" width="24" height="2" rx="1"></rect>
            </g>
            <path d="M55.7786244,16 L46.2216246,16 C46.0993575,16 46,16.29452 46,16.6586 C46,17.02194 46.0993575,17.31646 46.2216246,17.31646 L55.7786244,17.31646 C55.9008915,17.31646 56,17.02194 56,16.6586 C56,16.29452 55.9008915,16 55.7786244,16" id="Fill-3" fill="#D4DBE0"></path>
            <path d="M68.7786244,16 L59.2216246,16 C59.0993575,16 59,16.29452 59,16.6586 C59,17.02194 59.0993575,17.31646 59.2216246,17.31646 L68.7786244,17.31646 C68.9008915,17.31646 69,17.02194 69,16.6586 C69,16.29452 68.9008915,16 68.7786244,16" id="Fill-3" fill="#D4DBE0"></path>
            <path d="M41.7786244,16 L32.2216246,16 C32.0993575,16 32,16.29452 32,16.6586 C32,17.02194 32.0993575,17.31646 32.2216246,17.31646 L41.7786244,17.31646 C41.9008915,17.31646 42,17.02194 42,16.6586 C42,16.29452 41.9008915,16 41.7786244,16" id="Fill-3" fill="#D4DBE0"></path>
        </g>
        <g id="Logo/Irma-2019" transform="translate(102.000000, 68.000000)">
            <g id="Group-20" transform="translate(2.993548, 3.221477)">
                <path d="M9.26992516,6.38084295 L8.01253161,2.51281611 C7.91395097,2.20935302 7.63100903,2.00554094 7.30853161,2.00554094 C7.22037677,2.00554094 7.13273806,2.02068188 7.04840258,2.05031946 L1.06357677,4.16006443 C0.661202581,4.30202416 0.438647742,4.74003758 0.56768,5.13670872 L1.8248671,9.00484295 C1.92355097,9.30819866 2.2064929,9.51201074 2.52907355,9.51201074 C2.61722839,9.51201074 2.70476387,9.49697718 2.78920258,9.46712483 L8.77392516,7.35748725 C9.17640258,7.21552752 9.39895742,6.77740671 9.26992516,6.38084295" id="Fill-1" fill="#D34354"></path>
                <path d="M9.55979355,4.37534497 L8.3024,0.507210738 C8.20381935,0.203855034 7.92087742,4.29530201e-05 7.5984,4.29530201e-05 C7.51024516,4.29530201e-05 7.42260645,0.0151838926 7.33827097,0.0448214765 L1.35344516,2.15456644 C0.951070968,2.29652617 0.728516129,2.7345396 0.857548387,3.13121074 L2.11473548,6.99934497 C2.21341935,7.30270067 2.49636129,7.50651275 2.81894194,7.50651275 C2.90709677,7.50651275 2.99463226,7.49147919 3.07907097,7.46162685 L9.06379355,5.35198926 C9.46627097,5.21002953 9.68882581,4.77190872 9.55979355,4.37534497" id="Fill-4" fill="#FCB959"></path>
                <path d="M8.35944258,5.93794362 L7.78199742,1.89907114 C7.73678452,1.58229262 7.49306839,1.32940671 7.17575226,1.26991678 C7.08893935,1.25359463 7.00016516,1.25230604 6.91211355,1.26605101 L0.662307097,2.23721879 C0.242074839,2.30261477 -0.0516025806,2.69252081 0.00754580645,3.1066953 L0.584887742,7.14556779 C0.630203871,7.46234631 0.87392,7.71512483 1.19133935,7.77472215 C1.27804903,7.79093691 1.36682323,7.79244027 1.45508129,7.77858792 L7.70468129,6.80742013 C8.12501677,6.74213154 8.41869419,6.35201074 8.35944258,5.93794362" id="Fill-6" fill="#3BB992"></path>
                <path d="M10.073249,6.48702282 L9.45699097,2.45437852 C9.40868129,2.13802953 9.16259097,1.88782819 8.84465548,1.83155973 C8.75773935,1.81620403 8.66896516,1.81588188 8.58091355,1.83037852 L2.34091355,2.86672752 C1.92130065,2.93641879 1.63133935,3.32943893 1.69461677,3.74296913 L2.31066839,7.77561342 C2.35908129,8.09196242 2.60517161,8.34216376 2.92321032,8.39843221 C3.01012645,8.41378792 3.09890065,8.41421745 3.18695226,8.39961342 L9.42695226,7.36337181 C9.84656516,7.29357315 10.1365265,6.90044564 10.073249,6.48702282" id="Fill-9" fill="#05AFE5"></path>
                <path d="M2.65410065,8.36374765 C2.41626839,8.36374765 2.20847484,8.21598926 2.13693935,7.9960698 L0.879752258,4.12782819 C0.785610323,3.83832483 0.952629677,3.51703624 1.25198452,3.41147919 L7.23691355,1.30173423 C7.30081032,1.27918389 7.36708129,1.26769396 7.43366194,1.26769396 C7.67149419,1.26769396 7.87939097,1.41545235 7.95092645,1.63537181 L9.20811355,5.50361342 C9.30215226,5.7930094 9.1351329,6.11440537 8.83577806,6.2200698 L2.85095226,8.32970738 C2.78695226,8.3523651 2.72078452,8.36374765 2.65410065,8.36374765" id="Fill-11" fill="#0C4D90"></path>
                <path d="M7.43363097,1.47302013 C7.58330839,1.47302013 7.71801806,1.55989262 7.76385032,1.70120805 L9.02103742,5.56934228 C9.08049548,5.752 8.96911484,5.95613423 8.77226323,6.02561074 L2.78754065,8.13524832 C2.7429471,8.15092617 2.69794065,8.15833557 2.65406968,8.15833557 C2.50439226,8.15833557 2.36968258,8.07146309 2.3237471,7.93025503 L1.06656,4.06201342 C1.00720516,3.87957047 1.11868903,3.67522148 1.31533419,3.60595973 L7.30016,1.49621477 C7.34465032,1.48042953 7.38976,1.47302013 7.43363097,1.47302013 M7.43363097,1.06238926 C7.34547613,1.06238926 7.25794065,1.0775302 7.17350194,1.10727517 L1.18867613,3.21702013 C0.786301935,3.35887248 0.563747097,3.79699329 0.692779355,4.19355705 L1.94996645,8.06169128 C2.04865032,8.36515436 2.33159226,8.56896644 2.6541729,8.56896644 C2.74232774,8.56896644 2.82986323,8.5538255 2.91430194,8.52408054 L8.89902452,6.41433557 C9.30150194,6.27237584 9.52395355,5.83436242 9.39502452,5.43769128 L8.13773419,1.56966443 C8.03905032,1.26630872 7.75610839,1.06238926 7.43363097,1.06238926" id="Fill-13" fill="#FEFEFE"></path>
                <polygon id="Fill-15" fill="#FEFEFE" points="3.15767742 5.59962416 3.52701935 5.59962416 3.52701935 3.56891275 3.15767742 3.56891275"></polygon>
                <path d="M3.95505548,3.5688698 L4.63232,3.5688698 C4.83164903,3.5688698 4.99381677,3.6297557 5.11892645,3.7516349 C5.24403613,3.87351409 5.30659097,4.02438658 5.30659097,4.20425235 C5.30659097,4.3319302 5.27242323,4.44650738 5.20398452,4.54798389 C5.13564903,4.6494604 5.04284903,4.72548725 4.92558452,4.77574228 L5.37988129,5.59958121 L4.97244903,5.59958121 L4.57657806,4.83372886 L4.32450065,4.83372886 L4.32450065,5.59958121 L3.95505548,5.59958121 L3.95505548,3.5688698 Z M4.63232,3.90540671 L4.32450065,3.90540671 L4.32450065,4.49719195 L4.63232,4.49719195 C4.72016516,4.49719195 4.79056516,4.47013154 4.84331355,4.41601074 C4.89606194,4.36188993 4.92248774,4.29026577 4.92248774,4.20135302 C4.92248774,4.11426577 4.89606194,4.04317852 4.84331355,3.98809128 C4.79056516,3.93300403 4.72016516,3.90540671 4.63232,3.90540671 L4.63232,3.90540671 Z" id="Fill-17" fill="#FEFEFE"></path>
                <polygon id="Fill-18" fill="#FEFEFE" points="6.72914581 5.06047785 6.42452645 5.05940403 6.03051355 4.3383302 6.03051355 5.59953826 5.66117161 5.59953826 5.66117161 3.56882685 5.9895329 3.56882685 6.57575226 4.65092081 7.16506839 3.56882685 7.49043613 3.56882685 7.49043613 5.59964564 7.12109419 5.59964564 7.12109419 4.34058523"></polygon>
                <path d="M9.0312671,5.59959195 L8.89986065,5.16737718 L8.20112516,5.16737718 L8.06971871,5.59959195 L7.6680671,5.59959195 L8.36277677,3.56888054 L8.73521548,3.56888054 L9.42992516,5.59959195 L9.0312671,5.59959195 Z M8.55044129,4.02428993 L8.29186065,4.86853154 L8.80902194,4.86853154 L8.55044129,4.02428993 Z" id="Fill-19" fill="#FEFEFE"></path>
            </g>
        </g>
    </g>
</svg>