<svg width="375" height="406" viewBox="0 0 375 406" fill="none" xmlns="http://www.w3.org/2000/svg">
<path d="M375 395.979H0V405.979H375V395.979Z" fill="#C1BEBE"/>
<path fill-rule="evenodd" clip-rule="evenodd" d="M74.4501 286.716C70.5311 286.435 67.6071 283.64 67.0471 279.752C66.8861 278.633 66.8341 277.491 66.8341 276.357C66.8241 228.806 66.8221 181.259 66.8281 133.711C66.8301 126.075 69.6901 123.216 77.2691 123.216C150.897 123.216 224.525 123.216 298.152 123.216C305.605 123.216 308.543 126.089 308.547 133.499C308.555 181.31 308.549 229.122 308.531 276.933C308.529 283.778 305.439 286.776 298.507 286.784C296.935 286.787 76.4391 286.861 74.4501 286.716ZM294.613 269.906C294.613 268.728 294.613 267.706 294.613 266.683C294.613 230.247 294.621 193.812 294.605 157.373C294.605 151.609 294.472 145.842 294.493 140.078C294.499 138.403 293.916 137.63 292.212 137.73C291.426 137.776 290.634 137.728 289.846 137.728C221.767 137.728 153.691 137.728 85.6121 137.728C84.9991 137.728 84.3791 137.782 83.7731 137.722C81.6631 137.504 80.8221 138.283 80.8621 140.523C80.9631 145.936 80.7721 151.353 80.7721 156.769C80.7581 193.554 80.7641 230.339 80.7721 267.126C80.7721 268.049 80.8641 268.973 80.9131 269.906C152.242 269.906 223.263 269.906 294.613 269.906ZM190.888 129.582C190.699 127.667 189.73 126.413 187.781 126.36C185.841 126.308 184.624 127.457 184.563 129.38C184.503 131.305 185.67 132.522 187.594 132.59C189.539 132.656 190.571 131.436 190.888 129.582Z" fill="#C1BEBE"/>
<path fill-rule="evenodd" clip-rule="evenodd" d="M336.402 291.031C336.402 294.411 336.665 297.388 336.334 300.3C335.928 303.866 331.905 306.872 327.743 307.164C326.869 307.226 325.987 307.189 325.111 307.189C233.346 307.189 141.585 307.2 49.82 307.127C47.459 307.125 44.938 306.554 42.777 305.604C39.963 304.364 38.433 301.91 38.545 298.648L38.499 291.093C38.958 290.823 119.686 291.035 158.375 291.019C160.24 291.017 161.714 291.017 162.878 293.122C163.524 294.291 165.817 295.114 167.381 295.131C180.8 295.284 194.223 295.23 207.647 295.214C209.891 295.211 211.645 294.408 212.88 292.334C213.303 291.62 214.636 291.098 215.556 291.09C224.857 290.999 234.154 291.032 243.453 291.032C273.193 291.032 302.933 291.032 332.674 291.032C333.805 291.031 334.935 291.031 336.402 291.031Z" fill="#C1BEBE"/>
<path fill-rule="evenodd" clip-rule="evenodd" d="M294.613 269.906C223.262 269.906 152.242 269.906 80.9121 269.906C80.8631 268.972 80.7711 268.049 80.7711 267.126C80.7631 230.339 80.7571 193.554 80.7711 156.769C80.7711 151.353 80.9611 145.936 80.8611 140.523C80.8211 138.283 81.6621 137.504 83.7721 137.722C84.3771 137.783 84.9981 137.728 85.6111 137.728C153.69 137.728 221.766 137.728 289.845 137.728C290.633 137.728 291.425 137.776 292.211 137.73C293.915 137.63 294.498 138.403 294.492 140.078C294.471 145.842 294.604 151.609 294.604 157.373C294.62 193.811 294.612 230.247 294.612 266.683C294.613 267.706 294.613 268.729 294.613 269.906Z" fill="white"/>
<path fill-rule="evenodd" clip-rule="evenodd" d="M190.888 129.582C190.572 131.436 189.539 132.657 187.594 132.59C185.67 132.522 184.503 131.304 184.563 129.38C184.624 127.457 185.84 126.308 187.781 126.36C189.729 126.413 190.698 127.667 190.888 129.582Z" fill="white"/>
<path fill-rule="evenodd" clip-rule="evenodd" d="M294.594 155.645C294.572 150.457 294.473 145.267 294.493 140.08C294.499 138.405 293.916 137.632 292.212 137.732C291.426 137.778 290.634 137.73 289.846 137.73H85.6112C84.9982 137.73 84.3782 137.784 83.7722 137.724C81.6622 137.506 80.8212 138.285 80.8612 140.525C80.9542 145.563 80.8052 150.605 80.7832 155.646H294.594V155.645Z" fill="white"/>
<path d="M241.088 145.444H224.744V148.38H241.088V145.444Z" fill="#C1BEBE"/>
<path d="M263.325 145.444H246.982V148.38H263.325V145.444Z" fill="#C1BEBE"/>
<path d="M285.562 145.444H269.218V148.38H285.562V145.444Z" fill="#C1BEBE"/>
<path d="M294.603 155.645H80.771V232.811H294.603V155.645Z" fill="#F4F1F0"/>
<path d="M111.217 144.385L109.331 149.438H107.446L109.331 144.385H111.217Z" fill="white"/>
<path d="M109.331 144.385L107.446 149.438H105.563L107.446 144.385H109.331Z" fill="white"/>
<path d="M113.098 144.385L111.217 149.438H109.331L111.217 144.385H113.098Z" fill="#E7BDDA"/>
<path d="M114.982 144.385L113.098 149.438H111.217L113.098 144.385H114.982Z" fill="#96714C"/>
<path d="M116.867 144.385L114.982 149.438H113.098L114.982 144.385H116.867Z" fill="white"/>
<path d="M118.75 144.385L116.867 149.438H114.982L116.867 144.385H118.75Z" fill="#80B776"/>
<path d="M120.634 144.385L118.75 149.438H116.867L118.75 144.385H120.634Z" fill="white"/>
<path d="M128.17 144.385L126.284 149.438H124.401L126.284 144.385H128.17Z" fill="white"/>
<path d="M122.519 144.385L120.636 149.438H118.75L120.636 144.385H122.519Z" fill="#4FAAE0"/>
<path d="M124.403 144.385L122.519 149.438H120.636L122.519 144.385H124.403Z" fill="white"/>
<path d="M126.284 144.385L124.403 149.438H122.519L124.403 144.385H126.284Z" fill="#F6A500"/>
<path d="M128.17 144.385L126.284 149.438H124.403L126.284 144.385H128.17Z" fill="#AC95B6"/>
<path d="M130.055 144.385L128.17 149.438H126.284L128.17 144.385H130.055Z" fill="white"/>
<path d="M131.938 144.385L130.055 149.438H128.17L130.055 144.385H131.938Z" fill="#E3032E"/>
<path d="M133.82 144.385L131.938 149.438H130.055L131.938 144.385H133.82Z" fill="white"/>
<path d="M135.705 144.385L133.82 149.438H131.938L133.82 144.385H135.705Z" fill="#D6B86B"/>
<path d="M137.591 144.385L135.705 149.438H133.82L135.705 144.385H137.591Z" fill="white"/>
<path d="M139.474 144.385L137.589 149.438H135.705L137.589 144.385H139.474Z" fill="white"/>
<path d="M141.356 144.385L139.472 149.438H137.591L139.472 144.385H141.356Z" fill="#49BBC3"/>
<path d="M143.241 144.385L141.356 149.438H139.474L141.356 144.385H143.241Z" fill="#D2D700"/>
<path d="M98.041 144.406L99.922 149.438H101.803L99.922 144.406H98.041Z" fill="#3EA6DE"/>
<path d="M103.57 142.987C103.57 142.446 104 141.989 104.623 141.989C105.247 141.989 105.676 142.447 105.676 142.987C105.676 143.527 105.247 143.995 104.623 143.995C104 143.995 103.57 143.526 103.57 142.987Z" fill="#E02146"/>
<path d="M105.563 144.406V149.438L107.442 144.406H105.563Z" fill="#97C6DD"/>
<path d="M105.563 144.406H103.685V149.438L105.563 144.406Z" fill="#E02146"/>
<path d="M103.685 149.438H105.563V144.406L103.685 149.438Z" fill="#6A2E4A"/>
<path d="M98.041 144.406V149.438L99.922 144.406H98.041Z" fill="#97C6DD"/>
<path d="M98.0411 144.406H96.1611V149.438L98.0411 144.406Z" fill="#E02146"/>
<path d="M96.1611 149.438H98.0411V144.406L96.1611 149.438Z" fill="#6A2E4A"/>
<path d="M92.4012 149.438C92.2312 149.89 91.9912 150.008 91.5932 150.008C91.3362 150.008 91.1322 149.967 90.9402 149.907L90.9082 151.251C91.1732 151.322 91.5102 151.353 91.8062 151.353C93.1152 151.353 93.7332 150.902 94.1292 149.844L94.2792 149.438H92.4012Z" fill="#E02146"/>
<path d="M98.041 144.406L99.922 149.438H101.803L99.922 144.406H98.041Z" fill="#E02146"/>
<path d="M96.0493 142.987C96.0493 142.446 96.4783 141.989 97.1003 141.989C97.7253 141.989 98.1563 142.447 98.1563 142.987C98.1563 143.527 97.7253 143.995 97.1003 143.995C96.4783 143.995 96.0493 143.526 96.0493 142.987Z" fill="#E02146"/>
<path d="M101.803 144.406L100.862 146.923L101.803 149.438L103.685 144.406H101.803Z" fill="#6A2E4A"/>
<path d="M94.2798 144.406L93.3418 146.923L94.2798 149.438L96.1608 144.406H94.2798Z" fill="#6A2E4A"/>
<path d="M90.52 144.406L92.401 149.438H94.28L92.401 144.406H90.52Z" fill="#E02146"/>
<path d="M92.401 144.406H90.52L91.461 146.923L92.401 144.406Z" fill="#6A2E4A"/>
<path d="M99.922 144.406H98.041L98.981 146.923L99.922 144.406Z" fill="#BA3353"/>
<path d="M99.9219 149.438H101.803L100.862 146.923L99.9219 149.438Z" fill="#BA3353"/>
<path d="M92.4009 149.438H94.2799L93.3419 146.923L92.4009 149.438Z" fill="#BA3353"/>
<path d="M246.737 224.991C246.737 224.991 249.179 234.712 247.759 242.008C247.759 242.008 255.889 256.589 256.498 258.412C257.111 260.234 265.854 287.179 266.468 288.391C267.076 289.607 270.739 297.104 270.94 310.27C271.148 323.433 270.94 337.007 270.94 337.007C270.94 337.007 273.177 347.337 275.413 352.403C277.652 357.468 284.769 374.886 286.397 376.711C286.892 377.269 294.244 393.965 300.431 405.979H221.45C220.586 402.387 218.982 388.932 212.987 385.928C200.708 379.773 198.13 373.671 195.691 370.84C193.248 367.999 180.236 353.412 177.186 351.796C174.135 350.173 145.663 331.742 144.848 331.129C144.033 330.526 138.134 328.497 138.134 328.497C138.134 328.497 133.869 324.856 134.681 320.802C134.681 320.802 132.037 314.929 138.542 313.914C138.542 313.914 143.222 312.29 144.848 312.499C146.474 312.7 164.577 310.675 164.577 310.675L164.373 303.262H145.457C145.457 303.262 144.44 306.62 139.15 305.813C133.869 305.003 134.274 302.167 135.084 300.951C135.084 300.951 131.154 299.979 134.151 289.809C135.224 286.141 139.352 284.542 139.352 284.542C139.352 284.542 133.541 284.137 133.297 280.086C133.05 276.041 133.297 279.073 133.297 279.073C133.297 279.073 129.596 276.44 134.274 270.363C134.274 270.363 137.73 261.046 144.641 261.857L153.795 262.058L145.456 259.63C145.456 259.63 134.622 256.998 131.903 254.971C129.188 252.944 127.558 248.081 128.577 245.047C129.596 242.007 137.729 240.183 137.729 240.183C137.729 240.183 145.257 239.37 147.082 240.183C148.913 240.993 231.13 275.628 231.13 275.628C231.13 275.628 237.179 278.064 237.788 279.072C237.788 279.072 235.751 269.548 235.959 268.134C236.164 266.719 235.553 265.501 235.553 264.69C235.553 263.879 231.13 259.02 231.13 259.02V234.507C231.13 234.507 235.348 224.99 241.04 224.99C246.735 224.99 245.719 226.003 245.719 226.003L246.737 224.991Z" fill="#F7B1A1"/>
<path d="M231.621 275.834L237.784 278.726V283.799C237.784 283.799 239.911 290.141 239.911 291.836C239.911 293.524 235.22 301.557 231.621 306.636V275.834V275.834Z" fill="#BA8A80"/>
<path d="M229.849 346.983C229.849 346.983 228.002 348.83 225.525 348.83C223.063 348.83 190.043 348.83 190.043 348.83C190.043 348.83 205.473 358.357 215.966 356.511C226.454 354.668 229.849 346.983 229.849 346.983Z" fill="#C6978F"/>
<path d="M225.524 348.83H150.13C146.779 348.83 144.037 346.1 144.037 342.762V180.028C144.037 176.688 146.779 173.961 150.13 173.961H225.525C228.877 173.961 231.622 176.688 231.622 180.028V342.761C231.621 346.1 228.876 348.83 225.524 348.83Z" fill="#1D1D1B"/>
<path d="M225.34 180.609H149.142V342.754H225.34V180.609Z" fill="white"/>
<path d="M225.357 261.179H149.142L149.126 180.603H225.342L225.357 261.179Z" fill="#EAE5E2"/>
<path d="M209.619 185.672H209.044V186.531H209.619V185.672Z" fill="#1A1A1A"/>
<path d="M210.559 185.221H209.984V186.532H210.559V185.221Z" fill="#1A1A1A"/>
<path d="M211.496 184.785H210.921V186.532H211.496V184.785Z" fill="#1A1A1A"/>
<path d="M212.436 184.416H211.861V186.531H212.436V184.416Z" fill="#1A1A1A"/>
<path d="M213.594 184.84L213.865 185.132C214.232 184.868 214.679 184.708 215.167 184.708C215.661 184.708 216.114 184.874 216.484 185.145L216.758 184.855C216.316 184.517 215.768 184.309 215.166 184.309C214.574 184.309 214.033 184.511 213.594 184.84Z" fill="#1A1A1A"/>
<path d="M214.137 185.423L214.426 185.734C214.642 185.601 214.895 185.52 215.167 185.52C215.443 185.52 215.7 185.603 215.919 185.739L216.21 185.432C215.913 185.227 215.555 185.105 215.167 185.105C214.785 185.106 214.43 185.224 214.137 185.423Z" fill="#1A1A1A"/>
<path d="M214.74 186.073L215.167 186.531L215.599 186.076C215.467 186.01 215.325 185.964 215.167 185.964C215.012 185.964 214.87 186.008 214.74 186.073Z" fill="#1A1A1A"/>
<path d="M221.45 184.835H218.385V185.986H221.45V184.835Z" fill="#1A1A1A"/>
<path d="M221.82 184.388H218.05V186.431H221.82V184.388Z" stroke="#1A1A1A" stroke-width="0.1778" stroke-miterlimit="10"/>
<path d="M222.292 185.016H222.025V185.804H222.292V185.016Z" fill="#1A1A1A"/>
<path d="M154.353 185.194C154.353 185.622 154.266 185.942 154.093 186.153C153.92 186.364 153.659 186.469 153.311 186.469C153.179 186.469 153.083 186.461 153.026 186.445V186.153C153.115 186.177 153.204 186.19 153.294 186.19C153.53 186.19 153.707 186.127 153.823 186C153.939 185.873 154.004 185.674 154.014 185.402H153.996C153.936 185.491 153.866 185.556 153.783 185.595C153.7 185.634 153.602 185.655 153.491 185.655C153.298 185.655 153.146 185.595 153.036 185.475C152.926 185.355 152.87 185.19 152.87 184.981C152.87 184.754 152.934 184.573 153.062 184.439C153.19 184.305 153.364 184.238 153.584 184.238C153.739 184.238 153.875 184.276 153.99 184.351C154.105 184.427 154.194 184.536 154.257 184.679C154.321 184.822 154.353 184.994 154.353 185.194ZM153.591 184.528C153.47 184.528 153.377 184.567 153.313 184.646C153.248 184.725 153.215 184.835 153.215 184.978C153.215 185.102 153.245 185.199 153.306 185.27C153.366 185.341 153.457 185.376 153.579 185.376C153.697 185.376 153.797 185.341 153.878 185.271C153.958 185.2 153.999 185.118 153.999 185.024C153.999 184.936 153.981 184.854 153.947 184.776C153.913 184.699 153.865 184.639 153.802 184.594C153.741 184.55 153.671 184.528 153.591 184.528Z" fill="black"/>
<path d="M154.685 184.984C154.685 184.835 154.759 184.759 154.906 184.759C154.981 184.759 155.037 184.779 155.074 184.819C155.11 184.859 155.129 184.914 155.129 184.984C155.129 185.054 155.109 185.11 155.071 185.151C155.033 185.193 154.978 185.213 154.906 185.213C154.835 185.213 154.78 185.192 154.742 185.152C154.704 185.112 154.685 185.056 154.685 184.984ZM154.685 186.254C154.685 186.181 154.705 186.126 154.742 186.087C154.78 186.048 154.835 186.029 154.906 186.029C154.979 186.029 155.034 186.049 155.072 186.089C155.11 186.129 155.129 186.184 155.129 186.254C155.129 186.324 155.109 186.38 155.071 186.421C155.033 186.462 154.978 186.483 154.906 186.483C154.835 186.483 154.78 186.463 154.742 186.422C154.704 186.381 154.685 186.325 154.685 186.254Z" fill="black"/>
<path d="M157.017 185.965H156.723V186.439H156.381V185.965H155.385V185.696L156.381 184.26H156.723V185.675H157.017V185.965ZM156.381 185.675V185.13C156.381 184.936 156.386 184.777 156.397 184.653H156.384C156.357 184.718 156.313 184.798 156.253 184.891L155.711 185.676H156.381V185.675Z" fill="black"/>
<path d="M158.234 186.439H157.883V185.036C157.883 184.869 157.887 184.736 157.895 184.638C157.873 184.662 157.844 184.688 157.811 184.717C157.778 184.746 157.665 184.837 157.476 184.99L157.299 184.769L157.941 184.267H158.234V186.439Z" fill="black"/>
<path d="M179.936 201.307L177.439 207.998H174.945L177.439 201.307H179.936Z" fill="white"/>
<path d="M177.439 201.307L174.945 207.998H172.449L174.945 201.307H177.439Z" fill="white"/>
<path d="M182.426 201.307L179.936 207.998H177.439L179.936 201.307H182.426Z" fill="#E7BDDA"/>
<path d="M184.92 201.307L182.426 207.998H179.936L182.426 201.307H184.92Z" fill="#96714C"/>
<path d="M187.414 201.307L184.92 207.998H182.426L184.92 201.307H187.414Z" fill="white"/>
<path d="M189.908 201.307L187.414 207.998H184.92L187.414 201.307H189.908Z" fill="#80B776"/>
<path d="M192.402 201.307L189.908 207.998H187.414L189.908 201.307H192.402Z" fill="white"/>
<path d="M202.38 201.307L199.886 207.998H197.392L199.886 201.307H202.38Z" fill="white"/>
<path d="M194.897 201.307L192.404 207.998H189.908L192.404 201.307H194.897Z" fill="#4FAAE0"/>
<path d="M197.392 201.307L194.897 207.998H192.404L194.897 201.307H197.392Z" fill="white"/>
<path d="M199.886 201.307L197.392 207.998H194.897L197.392 201.307H199.886Z" fill="#F6A500"/>
<path d="M202.38 201.307L199.886 207.998H197.392L199.886 201.307H202.38Z" fill="#AC95B6"/>
<path d="M204.874 201.307L202.38 207.998H199.886L202.38 201.307H204.874Z" fill="white"/>
<path d="M207.368 201.307L204.874 207.998H202.38L204.874 201.307H207.368Z" fill="#E3032E"/>
<path d="M209.862 201.307L207.368 207.998H204.874L207.368 201.307H209.862Z" fill="white"/>
<path d="M212.356 201.307L209.862 207.998H207.368L209.862 201.307H212.356Z" fill="#D6B86B"/>
<path d="M214.851 201.307L212.356 207.998H209.862L212.356 201.307H214.851Z" fill="white"/>
<path d="M217.345 201.307L214.851 207.998H212.356L214.851 201.307H217.345Z" fill="white"/>
<path d="M219.84 201.307L217.345 207.998H214.851L217.345 201.307H219.84Z" fill="#49BBC3"/>
<path d="M222.334 201.307L219.84 207.998H217.345L219.84 201.307H222.334Z" fill="#D2D700"/>
<path d="M162.476 201.307L164.97 207.998H167.462L164.97 201.307H162.476Z" fill="#42A5DD"/>
<path d="M169.806 199.394C169.806 198.677 170.377 198.068 171.204 198.068C172.032 198.068 172.601 198.677 172.601 199.394C172.601 200.113 172.032 200.737 171.204 200.737C170.377 200.736 169.806 200.112 169.806 199.394Z" fill="#E12747"/>
<path d="M172.451 201.307V207.998L174.945 201.307H172.451Z" fill="#96C5E1"/>
<path d="M172.451 201.307H169.957V207.998L172.451 201.307Z" fill="#E12747"/>
<path d="M169.957 207.998H172.451V201.307L169.957 207.998Z" fill="#6D2F4C"/>
<path d="M162.476 201.307V207.998L164.97 201.307H162.476Z" fill="#96C5E1"/>
<path d="M162.476 201.307H159.981V207.998L162.476 201.307Z" fill="#E12747"/>
<path d="M159.981 207.998H162.476V201.307L159.981 207.998Z" fill="#6D2F4C"/>
<path d="M154.993 207.998C154.768 208.599 154.452 208.758 153.923 208.758C153.584 208.758 153.314 208.703 153.059 208.621L153.015 210.412C153.368 210.507 153.813 210.545 154.205 210.545C155.941 210.545 156.764 209.945 157.285 208.538L157.487 207.998H154.993Z" fill="#E12747"/>
<path d="M162.476 201.307L164.97 207.998H167.462L164.97 201.307H162.476Z" fill="#E12747"/>
<path d="M159.829 199.394C159.829 198.677 160.4 198.068 161.226 198.068C162.056 198.068 162.625 198.677 162.625 199.394C162.625 200.113 162.056 200.737 161.226 200.737C160.4 200.736 159.829 200.112 159.829 199.394Z" fill="#E12747"/>
<path d="M167.462 201.307L166.217 204.652L167.462 207.998L169.957 201.307H167.462Z" fill="#6D2F4C"/>
<path d="M157.487 201.307L156.24 204.652L157.487 207.998L159.981 201.307H157.487Z" fill="#6D2F4C"/>
<path d="M152.495 201.307L154.993 207.998H157.487L154.993 201.307H152.495Z" fill="#E12747"/>
<path d="M154.993 201.307H152.495L153.748 204.652L154.993 201.307Z" fill="#6D2F4C"/>
<path d="M164.97 208H167.462L166.217 204.652L164.97 208Z" fill="#BA3555"/>
<path d="M176.035 234.921C176.744 234.921 177.319 234.349 177.319 233.643C177.319 232.937 176.744 232.365 176.035 232.365C175.326 232.365 174.751 232.937 174.751 233.643C174.751 234.349 175.326 234.921 176.035 234.921Z" fill="#484747" stroke="#323131" stroke-width="0.2033" stroke-miterlimit="10"/>
<path d="M181.799 234.921C182.508 234.921 183.083 234.349 183.083 233.643C183.083 232.937 182.508 232.365 181.799 232.365C181.09 232.365 180.515 232.937 180.515 233.643C180.515 234.349 181.09 234.921 181.799 234.921Z" fill="#484747" stroke="#323131" stroke-width="0.2033" stroke-miterlimit="10"/>
<path d="M187.562 234.926C188.27 234.926 188.845 234.352 188.845 233.643C188.845 232.934 188.27 232.36 187.562 232.36C186.853 232.36 186.279 232.934 186.279 233.643C186.279 234.352 186.853 234.926 187.562 234.926Z" fill="#484747" stroke="#323131" stroke-width="0.2033" stroke-miterlimit="10"/>
<path d="M193.328 234.926C194.037 234.926 194.611 234.352 194.611 233.643C194.611 232.934 194.037 232.36 193.328 232.36C192.619 232.36 192.045 232.934 192.045 233.643C192.045 234.352 192.619 234.926 193.328 234.926Z" fill="white" stroke="#323131" stroke-width="0.2033" stroke-miterlimit="10"/>
<path d="M199.094 234.926C199.803 234.926 200.377 234.352 200.377 233.643C200.377 232.934 199.803 232.36 199.094 232.36C198.385 232.36 197.811 232.934 197.811 233.643C197.811 234.352 198.385 234.926 199.094 234.926Z" fill="white" stroke="#323131" stroke-width="0.2033" stroke-miterlimit="10"/>
<path d="M172.828 224.643H173.357L172.516 227.106H171.945L171.106 224.643H171.635L172.1 226.109C172.126 226.195 172.153 226.297 172.181 226.411C172.208 226.526 172.225 226.606 172.232 226.651C172.245 226.548 172.287 226.367 172.359 226.109L172.828 224.643Z" fill="#484747"/>
<path d="M175.347 226.16C175.347 226.467 175.265 226.707 175.103 226.88C174.941 227.053 174.714 227.139 174.425 227.139C174.243 227.139 174.083 227.1 173.945 227.021C173.807 226.942 173.7 226.828 173.626 226.68C173.551 226.532 173.514 226.359 173.514 226.16C173.514 225.852 173.595 225.613 173.756 225.443C173.917 225.272 174.144 225.186 174.436 225.186C174.618 225.186 174.778 225.226 174.916 225.304C175.055 225.383 175.161 225.495 175.235 225.643C175.309 225.79 175.347 225.963 175.347 226.16ZM174.039 226.16C174.039 226.347 174.069 226.488 174.131 226.583C174.193 226.679 174.293 226.727 174.432 226.727C174.57 226.727 174.668 226.679 174.729 226.584C174.789 226.489 174.819 226.348 174.819 226.16C174.819 225.973 174.789 225.834 174.728 225.741C174.666 225.647 174.567 225.601 174.428 225.601C174.29 225.601 174.192 225.647 174.13 225.74C174.069 225.833 174.039 225.973 174.039 226.16Z" fill="#484747"/>
<path d="M176.628 227.139C176.324 227.139 176.086 227.056 175.915 226.888C175.743 226.721 175.657 226.485 175.657 226.178C175.657 225.862 175.736 225.618 175.895 225.446C176.053 225.274 176.272 225.187 176.551 225.187C176.819 225.187 177.027 225.263 177.175 225.415C177.324 225.566 177.399 225.776 177.399 226.044V226.293H176.179C176.185 226.439 176.229 226.553 176.31 226.635C176.391 226.717 176.505 226.758 176.652 226.758C176.765 226.758 176.873 226.746 176.974 226.723C177.075 226.7 177.182 226.661 177.292 226.61V227.007C177.202 227.052 177.105 227.085 177.003 227.108C176.901 227.128 176.776 227.139 176.628 227.139ZM176.556 225.553C176.447 225.553 176.361 225.587 176.299 225.657C176.237 225.725 176.201 225.824 176.193 225.951H176.917C176.914 225.824 176.881 225.725 176.817 225.657C176.752 225.587 176.665 225.553 176.556 225.553Z" fill="#484747"/>
<path d="M178.874 225.187C178.943 225.187 179.002 225.193 179.048 225.203L179.009 225.684C178.968 225.673 178.917 225.667 178.857 225.667C178.693 225.667 178.564 225.709 178.472 225.793C178.38 225.878 178.334 225.995 178.334 226.147V227.105H177.818V225.222H178.209L178.285 225.538H178.31C178.369 225.433 178.448 225.348 178.547 225.283C178.648 225.219 178.757 225.187 178.874 225.187Z" fill="#484747"/>
<path d="M180.139 227.935C180.007 227.935 179.894 227.92 179.799 227.893V227.489C179.878 227.51 179.959 227.52 180.041 227.52C180.128 227.52 180.191 227.497 180.231 227.448C180.271 227.4 180.291 227.329 180.291 227.234V225.223H180.807V227.31C180.807 227.509 180.749 227.664 180.633 227.772C180.517 227.88 180.352 227.935 180.139 227.935ZM180.27 224.735C180.27 224.568 180.363 224.484 180.55 224.484C180.737 224.484 180.831 224.568 180.831 224.735C180.831 224.815 180.808 224.877 180.761 224.922C180.714 224.966 180.644 224.988 180.55 224.988C180.362 224.988 180.27 224.904 180.27 224.735Z" fill="#484747"/>
<path d="M182.203 227.139C181.899 227.139 181.661 227.056 181.49 226.888C181.318 226.721 181.232 226.485 181.232 226.178C181.232 225.862 181.311 225.618 181.47 225.446C181.628 225.274 181.847 225.187 182.126 225.187C182.394 225.187 182.602 225.263 182.75 225.415C182.899 225.566 182.974 225.776 182.974 226.044V226.293H181.754C181.76 226.439 181.804 226.553 181.885 226.635C181.966 226.717 182.08 226.758 182.227 226.758C182.34 226.758 182.448 226.746 182.549 226.723C182.65 226.7 182.757 226.661 182.867 226.61V227.007C182.777 227.052 182.68 227.085 182.578 227.108C182.477 227.128 182.352 227.139 182.203 227.139ZM182.131 225.553C182.022 225.553 181.936 225.587 181.874 225.657C181.812 225.725 181.776 225.824 181.768 225.951H182.492C182.489 225.824 182.456 225.725 182.392 225.657C182.327 225.587 182.24 225.553 182.131 225.553Z" fill="#484747"/>
<path d="M184.022 225.223H184.586L184.943 226.283C184.973 226.375 184.994 226.483 185.005 226.609H185.015C185.028 226.494 185.052 226.384 185.088 226.283L185.438 225.223H185.991L185.191 227.347C185.118 227.543 185.013 227.691 184.878 227.788C184.743 227.885 184.584 227.934 184.402 227.934C184.312 227.934 184.225 227.924 184.139 227.905V227.498C184.201 227.513 184.269 227.519 184.342 227.519C184.434 227.519 184.513 227.492 184.581 227.436C184.649 227.38 184.702 227.296 184.741 227.184L184.771 227.091L184.022 225.223Z" fill="#484747"/>
<path d="M186.241 224.735C186.241 224.568 186.334 224.484 186.521 224.484C186.708 224.484 186.802 224.568 186.802 224.735C186.802 224.815 186.779 224.877 186.732 224.922C186.685 224.966 186.615 224.988 186.521 224.988C186.334 224.988 186.241 224.904 186.241 224.735ZM186.778 227.105H186.262V225.222H186.778V227.105Z" fill="#484747"/>
<path d="M187.77 227.105L187.049 225.222H187.588L187.953 226.294C187.994 226.43 188.019 226.559 188.029 226.68H188.04C188.046 226.573 188.071 226.444 188.116 226.294L188.479 225.222H189.018L188.298 227.105H187.77Z" fill="#484747"/>
<path d="M189.268 224.735C189.268 224.568 189.361 224.484 189.548 224.484C189.735 224.484 189.829 224.568 189.829 224.735C189.829 224.815 189.806 224.877 189.759 224.922C189.712 224.966 189.642 224.988 189.548 224.988C189.36 224.988 189.268 224.904 189.268 224.735ZM189.805 227.105H189.289V225.222H189.805V227.105Z" fill="#484747"/>
<path d="M190.179 226.392V225.97H191.087V226.392H190.179Z" fill="#484747"/>
<path d="M192.228 227.139C191.64 227.139 191.345 226.818 191.345 226.174C191.345 225.854 191.425 225.61 191.585 225.441C191.745 225.272 191.975 225.187 192.273 225.187C192.492 225.187 192.688 225.23 192.862 225.315L192.71 225.713C192.629 225.68 192.553 225.653 192.483 225.633C192.413 225.612 192.343 225.602 192.273 225.602C192.004 225.602 191.871 225.791 191.871 226.171C191.871 226.539 192.005 226.723 192.273 226.723C192.373 226.723 192.464 226.71 192.548 226.684C192.633 226.658 192.718 226.617 192.802 226.56V226.999C192.719 227.052 192.634 227.089 192.549 227.108C192.465 227.129 192.357 227.139 192.228 227.139Z" fill="#484747"/>
<path d="M194.96 226.16C194.96 226.467 194.878 226.707 194.716 226.88C194.554 227.053 194.327 227.139 194.038 227.139C193.856 227.139 193.696 227.1 193.558 227.021C193.42 226.942 193.313 226.828 193.239 226.68C193.164 226.532 193.127 226.359 193.127 226.16C193.127 225.852 193.208 225.613 193.369 225.443C193.53 225.272 193.757 225.186 194.049 225.186C194.231 225.186 194.391 225.226 194.529 225.304C194.668 225.383 194.774 225.495 194.848 225.643C194.922 225.79 194.96 225.963 194.96 226.16ZM193.652 226.16C193.652 226.347 193.682 226.488 193.744 226.583C193.806 226.679 193.906 226.727 194.045 226.727C194.183 226.727 194.281 226.679 194.342 226.584C194.402 226.489 194.432 226.348 194.432 226.16C194.432 225.973 194.402 225.834 194.341 225.741C194.279 225.647 194.18 225.601 194.041 225.601C193.903 225.601 193.805 225.647 193.743 225.74C193.683 225.833 193.652 225.973 193.652 226.16Z" fill="#484747"/>
<path d="M195.984 227.139C195.762 227.139 195.588 227.054 195.461 226.882C195.334 226.71 195.271 226.472 195.271 226.167C195.271 225.858 195.335 225.618 195.465 225.445C195.594 225.273 195.772 225.186 195.998 225.186C196.236 225.186 196.417 225.279 196.543 225.462H196.56C196.534 225.322 196.521 225.196 196.521 225.087V224.483H197.039V227.104H196.643L196.543 226.86H196.521C196.403 227.047 196.225 227.139 195.984 227.139ZM196.165 226.729C196.297 226.729 196.394 226.691 196.455 226.615C196.516 226.539 196.551 226.409 196.556 226.226V226.17C196.556 225.968 196.525 225.822 196.462 225.735C196.4 225.647 196.298 225.603 196.157 225.603C196.042 225.603 195.952 225.652 195.888 225.749C195.825 225.847 195.792 225.987 195.792 226.173C195.792 226.359 195.824 226.497 195.889 226.59C195.954 226.683 196.046 226.729 196.165 226.729Z" fill="#484747"/>
<path d="M198.433 227.139C198.129 227.139 197.891 227.056 197.72 226.888C197.548 226.721 197.462 226.485 197.462 226.178C197.462 225.862 197.541 225.618 197.7 225.446C197.858 225.274 198.077 225.187 198.356 225.187C198.624 225.187 198.832 225.263 198.98 225.415C199.129 225.566 199.204 225.776 199.204 226.044V226.293H197.984C197.99 226.439 198.034 226.553 198.115 226.635C198.196 226.717 198.31 226.758 198.457 226.758C198.57 226.758 198.678 226.746 198.779 226.723C198.88 226.7 198.987 226.661 199.097 226.61V227.007C199.007 227.052 198.91 227.085 198.808 227.108C198.706 227.128 198.581 227.139 198.433 227.139ZM198.36 225.553C198.251 225.553 198.165 225.587 198.103 225.657C198.041 225.725 198.005 225.824 197.997 225.951H198.721C198.718 225.824 198.685 225.725 198.621 225.657C198.557 225.587 198.47 225.553 198.36 225.553Z" fill="#484747"/>
<path d="M200.501 224.735C200.501 224.568 200.594 224.484 200.781 224.484C200.968 224.484 201.062 224.568 201.062 224.735C201.062 224.815 201.039 224.877 200.992 224.922C200.945 224.966 200.875 224.988 200.781 224.988C200.594 224.988 200.501 224.904 200.501 224.735ZM201.038 227.105H200.522V225.222H201.038V227.105Z" fill="#484747"/>
<path d="M203.324 227.105H202.808V226.005C202.808 225.869 202.784 225.767 202.736 225.699C202.687 225.631 202.61 225.596 202.504 225.596C202.36 225.596 202.256 225.644 202.192 225.741C202.128 225.837 202.095 225.996 202.095 226.219V227.105H201.579V225.222H201.974L202.043 225.462H202.071C202.129 225.371 202.208 225.303 202.308 225.256C202.41 225.209 202.524 225.186 202.653 225.186C202.873 225.186 203.04 225.246 203.153 225.364C203.267 225.483 203.324 225.654 203.324 225.878V227.105V227.105Z" fill="#484747"/>
<path d="M221.641 339.83H153.045C152.708 339.83 152.434 339.557 152.434 339.22V330.661C152.434 330.327 152.708 330.052 153.045 330.052H221.641C221.976 330.052 222.252 330.327 222.252 330.661V339.22C222.252 339.557 221.976 339.83 221.641 339.83Z" fill="#484747" stroke="#323131" stroke-width="0.2033" stroke-miterlimit="10"/>
<path d="M181.003 333.393H181.532L180.691 335.856H180.12L179.281 333.393H179.81L180.275 334.859C180.301 334.945 180.328 335.047 180.356 335.161C180.383 335.276 180.4 335.356 180.407 335.401C180.42 335.298 180.462 335.117 180.534 334.859L181.003 333.393Z" fill="#FAFAFA"/>
<path d="M183.521 334.91C183.521 335.217 183.439 335.457 183.277 335.63C183.115 335.803 182.888 335.889 182.599 335.889C182.417 335.889 182.257 335.85 182.119 335.771C181.981 335.692 181.874 335.578 181.8 335.43C181.725 335.282 181.688 335.109 181.688 334.91C181.688 334.602 181.769 334.363 181.93 334.193C182.091 334.022 182.318 333.936 182.61 333.936C182.792 333.936 182.952 333.976 183.09 334.054C183.229 334.133 183.335 334.245 183.409 334.393C183.483 334.54 183.521 334.713 183.521 334.91ZM182.214 334.91C182.214 335.097 182.244 335.238 182.306 335.333C182.368 335.429 182.468 335.477 182.607 335.477C182.745 335.477 182.843 335.429 182.904 335.334C182.964 335.239 182.994 335.098 182.994 334.91C182.994 334.723 182.964 334.584 182.903 334.491C182.841 334.397 182.742 334.351 182.603 334.351C182.465 334.351 182.367 334.397 182.305 334.49C182.244 334.583 182.214 334.723 182.214 334.91Z" fill="#FAFAFA"/>
<path d="M184.463 335.855H183.947V333.234H184.463V335.855Z" fill="#FAFAFA"/>
<path d="M186.649 333.973V334.234L186.353 334.31C186.407 334.394 186.434 334.488 186.434 334.592C186.434 334.794 186.364 334.952 186.222 335.065C186.08 335.178 185.884 335.235 185.632 335.235L185.539 335.229L185.463 335.221C185.41 335.261 185.384 335.306 185.384 335.356C185.384 335.43 185.479 335.467 185.668 335.467H185.989C186.196 335.467 186.354 335.511 186.463 335.6C186.572 335.689 186.627 335.819 186.627 335.991C186.627 336.211 186.534 336.382 186.35 336.503C186.166 336.625 185.902 336.686 185.556 336.686C185.292 336.686 185.091 336.64 184.952 336.548C184.813 336.456 184.743 336.328 184.743 336.163C184.743 336.05 184.779 335.955 184.849 335.878C184.92 335.802 185.025 335.747 185.162 335.715C185.109 335.693 185.062 335.655 185.023 335.605C184.983 335.554 184.963 335.5 184.963 335.443C184.963 335.371 184.984 335.311 185.025 335.263C185.067 335.215 185.128 335.168 185.207 335.122C185.107 335.079 185.028 335.011 184.971 334.917C184.913 334.822 184.884 334.711 184.884 334.583C184.884 334.378 184.951 334.219 185.085 334.106C185.219 333.993 185.411 333.937 185.66 333.937C185.713 333.937 185.775 333.942 185.848 333.952C185.92 333.962 185.967 333.969 185.988 333.973H186.649V333.973ZM185.19 336.122C185.19 336.192 185.223 336.248 185.292 336.288C185.36 336.329 185.456 336.349 185.579 336.349C185.764 336.349 185.909 336.325 186.014 336.274C186.119 336.223 186.171 336.154 186.171 336.067C186.171 335.996 186.14 335.947 186.078 335.921C186.016 335.894 185.92 335.88 185.79 335.88H185.523C185.428 335.88 185.349 335.902 185.285 335.946C185.222 335.99 185.19 336.049 185.19 336.122ZM185.378 334.589C185.378 334.692 185.401 334.772 185.448 334.831C185.495 334.89 185.566 334.921 185.662 334.921C185.759 334.921 185.83 334.891 185.875 334.831C185.92 334.771 185.942 334.691 185.942 334.589C185.942 334.362 185.848 334.248 185.662 334.248C185.473 334.248 185.378 334.362 185.378 334.589Z" fill="#FAFAFA"/>
<path d="M187.816 335.889C187.512 335.889 187.274 335.806 187.103 335.638C186.931 335.471 186.845 335.235 186.845 334.928C186.845 334.612 186.924 334.368 187.083 334.196C187.241 334.024 187.46 333.937 187.739 333.937C188.007 333.937 188.215 334.013 188.363 334.165C188.512 334.316 188.587 334.526 188.587 334.794V335.043H187.367C187.373 335.189 187.417 335.303 187.498 335.385C187.579 335.467 187.693 335.508 187.84 335.508C187.953 335.508 188.061 335.496 188.162 335.473C188.263 335.45 188.37 335.411 188.48 335.36V335.757C188.39 335.802 188.293 335.835 188.191 335.858C188.09 335.878 187.965 335.889 187.816 335.889ZM187.744 334.303C187.635 334.303 187.549 334.337 187.487 334.407C187.425 334.475 187.389 334.574 187.381 334.701H188.105C188.102 334.574 188.069 334.475 188.005 334.407C187.94 334.337 187.854 334.303 187.744 334.303Z" fill="#FAFAFA"/>
<path d="M190.752 335.855H190.236V334.755C190.236 334.619 190.212 334.517 190.164 334.449C190.115 334.381 190.038 334.346 189.932 334.346C189.788 334.346 189.684 334.394 189.62 334.491C189.556 334.587 189.523 334.746 189.523 334.969V335.855H189.007V333.972H189.402L189.471 334.212H189.499C189.557 334.121 189.636 334.053 189.736 334.006C189.838 333.959 189.952 333.936 190.081 333.936C190.301 333.936 190.468 333.996 190.581 334.114C190.695 334.233 190.752 334.404 190.752 334.628V335.855V335.855Z" fill="#FAFAFA"/>
<path d="M191.882 335.889C191.66 335.889 191.486 335.804 191.359 335.632C191.232 335.46 191.169 335.222 191.169 334.917C191.169 334.608 191.233 334.368 191.363 334.195C191.492 334.023 191.67 333.936 191.896 333.936C192.134 333.936 192.315 334.029 192.441 334.212H192.458C192.432 334.072 192.419 333.946 192.419 333.837V333.233H192.937V335.854H192.541L192.441 335.61H192.419C192.301 335.797 192.122 335.889 191.882 335.889ZM192.062 335.479C192.194 335.479 192.291 335.441 192.352 335.365C192.413 335.289 192.448 335.159 192.453 334.976V334.92C192.453 334.718 192.422 334.572 192.359 334.485C192.297 334.397 192.195 334.353 192.054 334.353C191.939 334.353 191.849 334.402 191.785 334.499C191.722 334.597 191.689 334.737 191.689 334.923C191.689 335.109 191.721 335.247 191.786 335.34C191.851 335.433 191.943 335.479 192.062 335.479Z" fill="#FAFAFA"/>
<path d="M194.33 335.889C194.026 335.889 193.788 335.806 193.617 335.638C193.445 335.471 193.359 335.235 193.359 334.928C193.359 334.612 193.438 334.368 193.597 334.196C193.755 334.024 193.974 333.937 194.253 333.937C194.521 333.937 194.729 334.013 194.877 334.165C195.026 334.316 195.101 334.526 195.101 334.794V335.043H193.881C193.887 335.189 193.931 335.303 194.012 335.385C194.093 335.467 194.207 335.508 194.354 335.508C194.467 335.508 194.575 335.496 194.676 335.473C194.777 335.45 194.884 335.411 194.994 335.36V335.757C194.904 335.802 194.807 335.835 194.705 335.858C194.604 335.878 194.479 335.889 194.33 335.889ZM194.258 334.303C194.149 334.303 194.063 334.337 194.001 334.407C193.939 334.475 193.903 334.574 193.895 334.701H194.619C194.616 334.574 194.583 334.475 194.519 334.407C194.454 334.337 194.367 334.303 194.258 334.303Z" fill="#FAFAFA"/>
<path d="M168.367 272.604H167.884V269.506C167.884 269.249 167.892 269.005 167.907 268.775C167.866 268.817 167.819 268.861 167.767 268.906C167.715 268.952 167.478 269.145 167.056 269.486L166.794 269.147L167.948 268.258H168.366V272.604H168.367Z" fill="#484747"/>
<path d="M188.767 272.604H185.9V272.179L187.048 271.029C187.399 270.676 187.629 270.425 187.74 270.274C187.851 270.123 187.935 269.976 187.991 269.834C188.047 269.692 188.074 269.538 188.074 269.373C188.074 269.142 188.004 268.958 187.862 268.822C187.721 268.686 187.525 268.618 187.274 268.618C187.093 268.618 186.921 268.648 186.759 268.707C186.597 268.767 186.416 268.875 186.218 269.031L185.955 268.695C186.356 268.362 186.794 268.196 187.267 268.196C187.677 268.196 187.998 268.3 188.231 268.509C188.464 268.718 188.581 268.999 188.581 269.352C188.581 269.627 188.504 269.9 188.349 270.169C188.194 270.438 187.903 270.779 187.477 271.191L186.522 272.122V272.145H188.766V272.604H188.767Z" fill="#484747"/>
<path d="M207.743 269.281C207.743 269.558 207.665 269.785 207.509 269.962C207.354 270.139 207.132 270.256 206.846 270.316V270.34C207.196 270.383 207.455 270.494 207.624 270.672C207.793 270.851 207.878 271.085 207.878 271.374C207.878 271.788 207.733 272.106 207.445 272.329C207.156 272.553 206.747 272.664 206.216 272.664C205.985 272.664 205.774 272.646 205.581 272.612C205.39 272.577 205.203 272.516 205.021 272.428V271.958C205.21 272.052 205.412 272.122 205.625 272.171C205.838 272.22 206.041 272.244 206.232 272.244C206.986 272.244 207.363 271.949 207.363 271.361C207.363 270.834 206.947 270.57 206.116 270.57H205.686V270.145H206.122C206.462 270.145 206.731 270.07 206.931 269.92C207.131 269.77 207.23 269.563 207.23 269.297C207.23 269.085 207.157 268.919 207.01 268.798C206.863 268.677 206.665 268.616 206.414 268.616C206.224 268.616 206.043 268.642 205.874 268.693C205.705 268.745 205.512 268.84 205.295 268.979L205.045 268.646C205.224 268.505 205.43 268.394 205.664 268.314C205.897 268.234 206.143 268.194 206.402 268.194C206.826 268.194 207.155 268.291 207.39 268.484C207.626 268.68 207.743 268.944 207.743 269.281Z" fill="#484747"/>
<path d="M169.605 289.035H168.958V290.034H168.483V289.035H166.361V288.604L168.432 285.665H168.957V288.587H169.604V289.035H169.605ZM168.483 288.587V287.142C168.483 286.859 168.493 286.538 168.513 286.182H168.489C168.394 286.372 168.304 286.53 168.22 286.655L166.857 288.588H168.483V288.587Z" fill="#484747"/>
<path d="M187.263 287.38C187.723 287.38 188.084 287.493 188.348 287.72C188.612 287.948 188.744 288.258 188.744 288.653C188.744 289.102 188.6 289.455 188.312 289.711C188.025 289.967 187.628 290.095 187.124 290.095C186.632 290.095 186.257 290.017 185.998 289.86V289.384C186.138 289.474 186.31 289.543 186.518 289.594C186.726 289.645 186.929 289.67 187.13 289.67C187.48 289.67 187.752 289.587 187.946 289.423C188.139 289.259 188.236 289.021 188.236 288.709C188.236 288.103 187.863 287.8 187.117 287.8C186.929 287.8 186.676 287.828 186.359 287.886L186.102 287.723L186.266 285.69H188.436V286.145H186.69L186.58 287.45C186.809 287.402 187.036 287.38 187.263 287.38Z" fill="#484747"/>
<path d="M205.091 288.177C205.091 287.323 205.257 286.684 205.59 286.261C205.924 285.838 206.416 285.626 207.069 285.626C207.294 285.626 207.47 285.645 207.6 285.683V286.108C207.447 286.058 207.272 286.034 207.075 286.034C206.607 286.034 206.25 286.18 206.004 286.47C205.757 286.76 205.622 287.216 205.598 287.839H205.634C205.853 287.498 206.198 287.327 206.672 287.327C207.065 287.327 207.373 287.445 207.599 287.681C207.825 287.917 207.938 288.237 207.938 288.641C207.938 289.093 207.814 289.449 207.567 289.707C207.319 289.965 206.984 290.095 206.562 290.095C206.111 290.095 205.752 289.926 205.488 289.588C205.224 289.25 205.091 288.778 205.091 288.177ZM206.556 289.675C206.838 289.675 207.058 289.586 207.214 289.408C207.37 289.231 207.448 288.974 207.448 288.639C207.448 288.352 207.375 288.126 207.23 287.961C207.084 287.797 206.868 287.715 206.58 287.715C206.4 287.715 206.236 287.751 206.087 287.824C205.938 287.898 205.819 287.999 205.731 288.128C205.643 288.257 205.598 288.391 205.598 288.529C205.598 288.733 205.638 288.924 205.717 289.099C205.797 289.276 205.909 289.415 206.056 289.518C206.202 289.623 206.369 289.675 206.556 289.675Z" fill="#484747"/>
<path d="M167.084 307.465L168.893 303.574H166.514V303.119H169.418V303.515L167.633 307.465H167.084Z" fill="#484747"/>
<path d="M187.344 303.057C187.741 303.057 188.057 303.149 188.289 303.333C188.522 303.518 188.639 303.772 188.639 304.097C188.639 304.311 188.573 304.506 188.439 304.683C188.306 304.86 188.093 305.02 187.8 305.164C188.154 305.333 188.406 305.51 188.555 305.694C188.704 305.88 188.78 306.094 188.78 306.338C188.78 306.699 188.653 306.986 188.401 307.202C188.148 307.417 187.801 307.524 187.362 307.524C186.896 307.524 186.539 307.422 186.288 307.219C186.037 307.016 185.912 306.728 185.912 306.356C185.912 305.858 186.217 305.471 186.825 305.193C186.551 305.039 186.353 304.872 186.234 304.693C186.115 304.513 186.055 304.312 186.055 304.09C186.055 303.776 186.171 303.524 186.406 303.337C186.639 303.15 186.951 303.057 187.344 303.057ZM186.4 306.368C186.4 306.605 186.483 306.791 186.649 306.924C186.815 307.057 187.048 307.123 187.349 307.123C187.645 307.123 187.876 307.054 188.041 306.915C188.206 306.776 188.288 306.586 188.288 306.344C188.288 306.153 188.211 305.982 188.056 305.831C187.901 305.682 187.63 305.537 187.244 305.395C186.947 305.522 186.732 305.663 186.599 305.816C186.467 305.97 186.4 306.154 186.4 306.368ZM187.338 303.458C187.089 303.458 186.894 303.518 186.753 303.636C186.611 303.755 186.541 303.914 186.541 304.113C186.541 304.295 186.6 304.452 186.717 304.582C186.834 304.713 187.051 304.844 187.367 304.975C187.652 304.856 187.853 304.729 187.971 304.592C188.089 304.455 188.149 304.295 188.149 304.113C188.149 303.913 188.077 303.754 187.932 303.635C187.789 303.517 187.59 303.458 187.338 303.458Z" fill="#484747"/>
<path d="M188.791 322.528C188.791 323.279 188.672 323.84 188.435 324.211C188.197 324.581 187.833 324.767 187.344 324.767C186.874 324.767 186.517 324.578 186.273 324.198C186.028 323.818 185.906 323.262 185.906 322.529C185.906 321.772 186.024 321.21 186.26 320.843C186.497 320.477 186.859 320.293 187.344 320.293C187.818 320.293 188.177 320.484 188.422 320.866C188.668 321.249 188.791 321.803 188.791 322.528ZM186.406 322.528C186.406 323.16 186.481 323.62 186.63 323.909C186.779 324.197 187.018 324.342 187.344 324.342C187.674 324.342 187.913 324.196 188.062 323.904C188.209 323.611 188.284 323.153 188.284 322.529C188.284 321.905 188.21 321.447 188.062 321.157C187.914 320.867 187.674 320.721 187.344 320.721C187.018 320.721 186.78 320.865 186.63 321.151C186.481 321.437 186.406 321.896 186.406 322.528Z" fill="#484747"/>
<path d="M207.907 304.974C207.907 306.674 207.247 307.525 205.926 307.525C205.696 307.525 205.512 307.505 205.377 307.465V307.04C205.536 307.092 205.717 307.117 205.92 307.117C206.398 307.117 206.758 306.97 207.002 306.676C207.245 306.382 207.378 305.93 207.4 305.322H207.364C207.255 305.487 207.109 305.612 206.928 305.698C206.747 305.785 206.543 305.828 206.317 305.828C205.93 305.828 205.625 305.713 205.397 305.483C205.17 305.253 205.057 304.932 205.057 304.52C205.057 304.068 205.184 303.711 205.438 303.45C205.691 303.188 206.025 303.057 206.439 303.057C206.735 303.057 206.995 303.133 207.216 303.285C207.437 303.437 207.609 303.657 207.728 303.948C207.848 304.237 207.907 304.579 207.907 304.974ZM206.439 303.479C206.155 303.479 205.934 303.571 205.78 303.752C205.625 303.935 205.547 304.189 205.547 304.513C205.547 304.799 205.618 305.023 205.762 305.187C205.906 305.35 206.123 305.432 206.415 305.432C206.597 305.432 206.763 305.395 206.915 305.322C207.067 305.249 207.187 305.149 207.275 305.022C207.362 304.895 207.406 304.762 207.406 304.624C207.406 304.416 207.365 304.224 207.284 304.048C207.202 303.871 207.089 303.733 206.942 303.631C206.796 303.529 206.628 303.479 206.439 303.479Z" fill="#484747"/>
<path d="M186.181 277.475L185.928 276.829H185.112L184.861 277.475H184.622L185.427 275.439H185.626L186.427 277.475H186.181ZM185.854 276.617L185.618 275.989C185.587 275.909 185.556 275.811 185.523 275.696C185.502 275.785 185.473 275.883 185.435 275.989L185.196 276.617H185.854Z" fill="#484747"/>
<path d="M186.706 275.446H187.281C187.551 275.446 187.746 275.486 187.867 275.567C187.988 275.647 188.048 275.774 188.048 275.948C188.048 276.069 188.015 276.168 187.947 276.246C187.879 276.324 187.782 276.375 187.652 276.398V276.412C187.962 276.465 188.116 276.627 188.116 276.897C188.116 277.079 188.054 277.22 187.931 277.322C187.808 277.424 187.636 277.474 187.415 277.474H186.705V275.446H186.706ZM186.942 276.314H187.332C187.5 276.314 187.62 276.289 187.693 276.236C187.766 276.184 187.802 276.096 187.802 275.972C187.802 275.858 187.762 275.776 187.68 275.725C187.598 275.675 187.468 275.65 187.29 275.65H186.941V276.314H186.942ZM186.942 276.515V277.274H187.367C187.531 277.274 187.655 277.243 187.738 277.179C187.821 277.115 187.863 277.016 187.863 276.881C187.863 276.755 187.82 276.663 187.735 276.604C187.65 276.545 187.521 276.515 187.347 276.515H186.942Z" fill="#484747"/>
<path d="M189.425 275.628C189.201 275.628 189.025 275.702 188.896 275.851C188.766 275.999 188.702 276.203 188.702 276.461C188.702 276.726 188.764 276.931 188.89 277.076C189.015 277.221 189.193 277.293 189.424 277.293C189.566 277.293 189.728 277.268 189.909 277.217V277.423C189.768 277.476 189.595 277.502 189.387 277.502C189.087 277.502 188.856 277.412 188.694 277.231C188.531 277.049 188.449 276.793 188.449 276.459C188.449 276.25 188.488 276.066 188.567 275.909C188.645 275.752 188.758 275.631 188.907 275.546C189.054 275.461 189.229 275.418 189.429 275.418C189.643 275.418 189.829 275.457 189.99 275.535L189.889 275.737C189.733 275.664 189.579 275.628 189.425 275.628Z" fill="#484747"/>
<path d="M205.824 276.441C205.824 276.776 205.733 277.032 205.551 277.209C205.369 277.386 205.106 277.475 204.763 277.475H204.2V275.447H204.824C205.14 275.447 205.386 275.535 205.561 275.71C205.736 275.884 205.824 276.128 205.824 276.441ZM205.573 276.449C205.573 276.184 205.507 275.985 205.374 275.851C205.24 275.717 205.042 275.65 204.779 275.65H204.435V277.27H204.723C205.005 277.27 205.218 277.201 205.36 277.063C205.503 276.925 205.573 276.721 205.573 276.449Z" fill="#484747"/>
<path d="M207.413 277.475H206.278V275.447H207.413V275.657H206.515V276.31H207.359V276.518H206.515V277.264H207.413V277.475Z" fill="#484747"/>
<path d="M208.101 277.475H207.865V275.447H209V275.657H208.102V276.399H208.946V276.608H208.102V277.475H208.101Z" fill="#484747"/>
<path d="M166.668 293.842H167.359V294.828C167.252 294.862 167.142 294.888 167.031 294.905C166.92 294.922 166.791 294.931 166.643 294.931C166.335 294.931 166.095 294.84 165.923 294.658C165.751 294.476 165.665 294.22 165.665 293.89C165.665 293.679 165.708 293.494 165.793 293.335C165.878 293.177 166 293.056 166.16 292.972C166.319 292.888 166.507 292.846 166.721 292.846C166.939 292.846 167.141 292.886 167.328 292.966L167.236 293.174C167.052 293.096 166.876 293.057 166.706 293.057C166.458 293.057 166.265 293.131 166.125 293.278C165.985 293.425 165.916 293.63 165.916 293.89C165.916 294.163 165.983 294.371 166.117 294.512C166.251 294.654 166.448 294.725 166.708 294.725C166.85 294.725 166.987 294.708 167.122 294.676V294.052H166.667V293.842H166.668Z" fill="#484747"/>
<path d="M169.395 294.904H169.158V293.95H168.086V294.904H167.85V292.876H168.086V293.739H169.158V292.876H169.395V294.904Z" fill="#484747"/>
<path d="M169.953 294.904V292.876H170.189V294.904H169.953Z" fill="#484747"/>
<path d="M185.335 295.438C185.248 295.438 185.179 295.425 185.129 295.401V295.2C185.194 295.218 185.264 295.227 185.335 295.227C185.427 295.227 185.497 295.2 185.545 295.144C185.592 295.088 185.616 295.008 185.616 294.904V292.876H185.852V294.885C185.852 295.061 185.808 295.197 185.719 295.293C185.63 295.39 185.502 295.438 185.335 295.438Z" fill="#484747"/>
<path d="M187.864 294.904H187.585L186.843 293.921L186.63 294.109V294.904H186.394V292.876H186.63V293.882L187.554 292.876H187.833L187.015 293.757L187.864 294.904Z" fill="#484747"/>
<path d="M188.145 294.904V292.876H188.381V294.69H189.279V294.904H188.145Z" fill="#484747"/>
<path d="M204.195 294.904L203.505 293.106H203.494C203.507 293.249 203.514 293.418 203.514 293.614V294.904H203.295V292.876H203.651L204.296 294.549H204.307L204.957 292.876H205.311V294.904H205.074V293.597C205.074 293.448 205.081 293.285 205.094 293.109H205.083L204.387 294.904H204.195Z" fill="#484747"/>
<path d="M207.46 294.904H207.19L206.077 293.202H206.066C206.081 293.402 206.088 293.585 206.088 293.752V294.904H205.869V292.876H206.136L207.246 294.571H207.258C207.256 294.547 207.251 294.466 207.245 294.331C207.238 294.195 207.236 294.099 207.238 294.04V292.876H207.459V294.904H207.46Z" fill="#484747"/>
<path d="M209.787 293.888C209.787 294.212 209.705 294.468 209.54 294.654C209.376 294.84 209.146 294.932 208.852 294.932C208.552 294.932 208.321 294.841 208.159 294.659C207.996 294.476 207.914 294.219 207.914 293.886C207.914 293.556 207.996 293.3 208.159 293.118C208.323 292.936 208.555 292.846 208.855 292.846C209.148 292.846 209.376 292.938 209.541 293.123C209.705 293.307 209.787 293.562 209.787 293.888ZM208.165 293.888C208.165 294.162 208.224 294.37 208.341 294.513C208.459 294.655 208.629 294.726 208.853 294.726C209.08 294.726 209.249 294.655 209.365 294.513C209.48 294.372 209.538 294.163 209.538 293.888C209.538 293.615 209.48 293.409 209.366 293.267C209.251 293.126 209.081 293.056 208.856 293.056C208.63 293.056 208.46 293.126 208.341 293.269C208.224 293.41 208.165 293.616 208.165 293.888Z" fill="#484747"/>
<path d="M165.918 310.896C165.918 311.102 165.848 311.259 165.707 311.37C165.566 311.481 165.365 311.536 165.103 311.536H164.864V312.334H164.628V310.306H165.155C165.663 310.306 165.918 310.503 165.918 310.896ZM164.863 311.334H165.076C165.286 311.334 165.438 311.3 165.532 311.232C165.626 311.164 165.673 311.056 165.673 310.908C165.673 310.773 165.629 310.674 165.54 310.608C165.452 310.543 165.314 310.509 165.128 310.509H164.863V311.334V311.334Z" fill="#484747"/>
<path d="M168.11 311.317C168.11 311.577 168.058 311.793 167.953 311.964C167.849 312.136 167.7 312.253 167.509 312.314L167.994 312.816H167.649L167.253 312.359L167.176 312.361C166.876 312.361 166.645 312.27 166.483 312.088C166.32 311.905 166.238 311.648 166.238 311.315C166.238 310.985 166.32 310.729 166.483 310.547C166.647 310.365 166.879 310.275 167.179 310.275C167.472 310.275 167.7 310.367 167.865 310.552C168.028 310.736 168.11 310.991 168.11 311.317ZM166.488 311.317C166.488 311.591 166.547 311.799 166.664 311.942C166.782 312.084 166.952 312.155 167.176 312.155C167.403 312.155 167.572 312.084 167.688 311.942C167.803 311.801 167.861 311.592 167.861 311.317C167.861 311.044 167.803 310.838 167.689 310.696C167.574 310.555 167.404 310.485 167.179 310.485C166.953 310.485 166.783 310.555 166.664 310.698C166.547 310.84 166.488 311.046 166.488 311.317Z" fill="#484747"/>
<path d="M168.802 311.49V312.334H168.566V310.306H169.125C169.374 310.306 169.559 310.354 169.678 310.45C169.798 310.545 169.858 310.688 169.858 310.88C169.858 311.149 169.721 311.329 169.448 311.424L170.002 312.335H169.722L169.229 311.491H168.802V311.49ZM168.802 311.288H169.126C169.294 311.288 169.416 311.255 169.494 311.188C169.572 311.123 169.611 311.023 169.611 310.891C169.611 310.756 169.571 310.66 169.492 310.601C169.412 310.541 169.285 310.512 169.109 310.512H168.801V311.288H168.802Z" fill="#484747"/>
<path d="M171.478 311.794C171.478 311.973 171.414 312.112 171.284 312.212C171.153 312.312 170.977 312.361 170.755 312.361C170.513 312.361 170.327 312.331 170.197 312.268V312.04C170.281 312.075 170.372 312.103 170.47 312.124C170.568 312.144 170.665 312.154 170.762 312.154C170.92 312.154 171.039 312.124 171.118 312.064C171.198 312.004 171.238 311.921 171.238 311.815C171.238 311.745 171.223 311.687 171.195 311.642C171.167 311.597 171.12 311.556 171.053 311.518C170.986 311.48 170.886 311.437 170.75 311.389C170.561 311.322 170.425 311.242 170.344 311.149C170.263 311.057 170.222 310.936 170.222 310.788C170.222 310.632 170.282 310.507 170.399 310.414C170.517 310.322 170.673 310.275 170.868 310.275C171.07 310.275 171.256 310.312 171.426 310.386L171.353 310.591C171.185 310.521 171.021 310.486 170.863 310.486C170.738 310.486 170.639 310.513 170.569 310.567C170.499 310.621 170.464 310.695 170.464 310.79C170.464 310.86 170.477 310.918 170.503 310.963C170.528 311.008 170.572 311.049 170.634 311.087C170.696 311.124 170.79 311.165 170.917 311.211C171.131 311.286 171.278 311.368 171.358 311.455C171.438 311.542 171.478 311.655 171.478 311.794Z" fill="#484747"/>
<path d="M185.578 312.334H185.342V310.516H184.697V310.306H186.223V310.516H185.577V312.334H185.578Z" fill="#484747"/>
<path d="M188.067 310.306V311.618C188.067 311.849 187.997 312.031 187.857 312.163C187.716 312.296 187.524 312.361 187.279 312.361C187.034 312.361 186.844 312.295 186.71 312.162C186.576 312.028 186.509 311.846 186.509 311.612V310.305H186.746V311.628C186.746 311.798 186.792 311.928 186.885 312.019C186.978 312.109 187.114 312.155 187.295 312.155C187.467 312.155 187.599 312.109 187.691 312.018C187.783 311.927 187.831 311.796 187.831 311.626V310.305H188.067V310.306Z" fill="#484747"/>
<path d="M189.769 310.306H190.024L189.291 312.334H189.057L188.328 310.306H188.579L189.047 311.618C189.101 311.768 189.144 311.916 189.175 312.057C189.208 311.908 189.252 311.758 189.306 311.61L189.769 310.306Z" fill="#484747"/>
<path d="M204.789 312.334H204.556L204.145 310.976C204.125 310.916 204.104 310.84 204.08 310.748C204.056 310.657 204.044 310.602 204.043 310.583C204.022 310.705 203.989 310.839 203.945 310.984L203.547 312.334H203.313L202.772 310.306H203.022L203.344 311.559C203.388 311.735 203.421 311.894 203.441 312.037C203.466 311.867 203.503 311.702 203.553 311.54L203.917 310.307H204.168L204.551 311.551C204.596 311.695 204.633 311.857 204.664 312.037C204.682 311.905 204.715 311.745 204.764 311.557L205.084 310.307H205.335L204.789 312.334Z" fill="#484747"/>
<path d="M207.008 312.334H206.739L206.192 311.442L205.634 312.334H205.383L206.061 311.274L205.429 310.305H205.692L206.197 311.109L206.707 310.305H206.959L206.328 311.265L207.008 312.334Z" fill="#484747"/>
<path d="M207.817 311.32L208.36 310.305H208.617L207.937 311.547V312.333H207.698V311.558L207.019 310.305H207.278L207.817 311.32Z" fill="#484747"/>
<path d="M210.131 312.334H208.732V312.149L209.813 310.518H208.765V310.305H210.101V310.49L209.02 312.12H210.131V312.334Z" fill="#484747"/>
<path d="M206.073 323.552L207.162 322.463L208.263 323.552L208.497 323.327L207.388 322.243L208.477 321.156L208.252 320.932L207.162 322.018L206.073 320.932L205.848 321.156L206.937 322.243L205.848 323.327L206.073 323.552ZM203.282 322.243L204.718 320.212C204.806 320.085 204.914 319.984 205.043 319.914C205.171 319.842 205.315 319.806 205.472 319.806H209.139C209.287 319.806 209.419 319.862 209.532 319.975C209.642 320.085 209.699 320.216 209.699 320.366V324.119C209.699 324.269 209.642 324.398 209.532 324.51C209.42 324.622 209.288 324.679 209.139 324.679H205.472C205.316 324.679 205.175 324.639 205.049 324.562C204.924 324.484 204.814 324.379 204.718 324.25L203.282 322.243ZM203.669 322.243L205.034 324.158C205.074 324.219 205.129 324.268 205.201 324.305C205.273 324.343 205.346 324.363 205.421 324.363H209.139C209.201 324.363 209.257 324.336 209.313 324.287C209.368 324.236 209.395 324.179 209.395 324.118V320.365C209.395 320.304 209.368 320.248 209.313 320.198C209.257 320.145 209.201 320.121 209.139 320.121H205.421C205.346 320.121 205.274 320.14 205.201 320.176C205.129 320.214 205.074 320.263 205.034 320.323L203.669 322.243ZM209.395 322.243V320.121V324.363V324.158V322.243Z" fill="#484747"/>
<path d="M225.704 178.646H149.069V343.942H225.704V178.646Z" fill="white"/>
<path d="M159.099 181.896H152.328V184.165H159.099V181.896Z" fill="#484747"/>
<path d="M212.497 181.896H207.916V184.165H212.497V181.896Z" fill="#484747"/>
<path d="M217.576 181.896H212.993V184.165H217.576V181.896Z" fill="#484747"/>
<path d="M222.684 181.896H218.102V184.165H222.684V181.896Z" fill="#484747"/>
<path d="M185.371 240.013L191.347 256.065H197.317L191.347 240.013H185.371Z" fill="#42A5DD"/>
<path d="M202.936 235.425C202.936 233.705 204.3 232.241 206.277 232.241C208.267 232.241 209.625 233.704 209.625 235.425C209.625 237.145 208.267 238.644 206.277 238.644C204.3 238.644 202.936 237.145 202.936 235.425Z" fill="#E12747"/>
<path d="M209.266 240.013V256.065L215.238 240.013H209.266Z" fill="#96C5E1"/>
<path d="M209.268 240.013H203.293V256.065L209.268 240.013Z" fill="#E12747"/>
<path d="M203.293 256.065H209.268V240.013L203.293 256.065Z" fill="#6D2F4C"/>
<path d="M185.371 240.013V256.065L191.347 240.013H185.371Z" fill="#96C5E1"/>
<path d="M185.371 240.013H179.396V256.065H179.402L185.371 240.013Z" fill="#E12747"/>
<path d="M179.401 256.065H185.371V240.013L179.401 256.065Z" fill="#6D2F4C"/>
<path d="M167.456 256.064C166.913 257.506 166.154 257.884 164.892 257.884C164.075 257.884 163.431 257.758 162.818 257.562L162.717 261.851C163.56 262.08 164.623 262.175 165.568 262.175C169.726 262.175 171.69 260.735 172.948 257.363L173.425 256.064H167.456V256.064Z" fill="#E12747"/>
<path d="M185.371 240.013L191.347 256.065H197.317L191.347 240.013H185.371Z" fill="#E12747"/>
<path d="M179.037 235.425C179.037 233.705 180.403 232.241 182.386 232.241C184.37 232.241 185.734 233.704 185.734 235.425C185.734 237.145 184.369 238.644 182.386 238.644C180.404 238.644 179.037 237.145 179.037 235.425Z" fill="#E12747"/>
<path d="M197.316 240.013L194.337 248.039L197.316 256.065L203.292 240.013H197.316Z" fill="#6D2F4C"/>
<path d="M173.424 240.013L170.439 248.039L173.424 256.065L179.394 240.013H173.424Z" fill="#6D2F4C"/>
<path d="M161.467 240.013L167.455 256.065H173.424L167.455 240.013H161.467Z" fill="#E12747"/>
<path d="M167.455 240.013H161.467L164.463 248.039L167.455 240.013Z" fill="#6D2F4C"/>
<path d="M191.347 256.065H197.316L194.337 248.039L191.347 256.065Z" fill="#BA3555"/>
</svg>
