<svg width="286" height="286" viewBox="0 0 286 286" fill="none" xmlns="http://www.w3.org/2000/svg">
<g clip-path="url(#clip0_5858_24210)">
<path d="M209.62 239.18C200.32 239.18 182.19 231.49 174.06 212.38L208.64 128.76L215.57 97.39C230.41 98.53 240.34 119.44 240.34 119.44L273 200.96C280.97 183.17 285.4 163.46 285.4 142.7C285.4 63.89 221.51 0 142.7 0C63.89 0 0 63.89 0 142.7C0 221.51 63.89 285.4 142.7 285.4C174.93 285.4 204.66 274.71 228.55 256.69L222.81 239.02L209.62 239.18Z" fill="#CCE1EC"/>
<path d="M273 200.95L240.34 119.43C240.34 119.43 230.41 98.5199 215.57 97.3799L208.64 128.75L174.06 212.37C182.19 231.48 200.32 239.17 209.62 239.17L222.81 239.01L228.55 256.68C247.69 242.24 263.09 223.09 273 200.95Z" fill="#EE9A80"/>
<path d="M221.14 81.25H54.66C49.14 81.25 44.66 85.73 44.66 91.25V204.41H221.14V81.25Z" fill="#A790B1"/>
<path d="M221.75 86.9299H56.77C53 86.9299 49.95 89.9799 49.95 93.7499V204.41H221.75V86.9299Z" fill="#CFC4D6"/>
<path d="M218.69 197.19H26.99V202.52C26.99 205.16 29.13 207.29 31.76 207.29H218.68V197.19H218.69Z" fill="#A790B1"/>
<path d="M136.96 112.13C136.96 112.13 126.04 160.11 127.14 169.44C127.14 169.44 125.49 179.6 140.87 188.38L154.32 136.6L136.96 112.13Z" fill="#EE9A80"/>
<path d="M221.51 222.86L153.64 226.83C146.62 227.24 140.6 221.89 140.19 214.87L130.9 61.7099C130.49 54.6899 135.84 48.6699 142.86 48.2599L210.73 44.2899C217.75 43.8799 223.77 49.2299 224.18 56.2499L233.47 209.41C233.88 216.43 228.53 222.45 221.51 222.86Z" fill="#484747"/>
<path d="M152.88 220.03C149.76 220.03 147.17 217.58 146.99 214.47L137.7 61.2901C137.61 59.7201 138.13 58.2101 139.18 57.0301C140.23 55.8501 141.68 55.1501 143.25 55.0601L211.12 51.0901C211.24 51.0901 211.36 51.0801 211.48 51.0801C214.6 51.0801 217.19 53.5301 217.37 56.6401L226.67 209.82C226.86 213.06 224.37 215.86 221.11 216.05L153.24 220.02C153.12 220.02 153 220.03 152.88 220.03Z" fill="white"/>
<path d="M194.04 191.56C200.74 191.56 206.16 186.13 206.16 179.44C206.16 172.75 200.73 167.32 194.04 167.32C187.35 167.32 181.92 172.75 181.92 179.44C181.92 186.13 187.35 191.56 194.04 191.56Z" fill="#EE9A80"/>
<path d="M205.69 159.15L241.73 191L254.31 159.18L221.78 138.48L205.7 159.14L205.69 159.15Z" fill="#EE9A80"/>
<path d="M225.1 155.36L204.43 185.7L183.66 173.18L202.65 141.7L225.1 155.36Z" fill="#EE9A80"/>
<path d="M177.02 125.24L185.17 144.34L192.4 144.01L184.25 124.91L177.02 125.24Z" fill="#3EA3DB"/>
<path d="M198.06 118.75C197.97 116.66 199.53 114.81 201.94 114.7C204.35 114.59 206.08 116.28 206.17 118.37C206.26 120.46 204.7 122.34 202.29 122.45C199.88 122.56 198.15 120.83 198.05 118.74H198.06V118.75Z" fill="#DD2146"/>
<path d="M205.98 123.89L206.88 143.34L213.21 123.56L205.98 123.89Z" fill="#94C3DA"/>
<path d="M205.98 123.89L198.75 124.22L199.65 143.67L205.98 123.89Z" fill="#DD2146"/>
<path d="M199.65 143.67L206.88 143.34L205.98 123.89L199.65 143.67Z" fill="#6A2E4A"/>
<path d="M177.02 125.24L177.92 144.69L184.25 124.91L177.02 125.24Z" fill="#94C3DA"/>
<path d="M177.02 125.24L169.79 125.57L170.69 145.02L177.02 125.24Z" fill="#DD2146"/>
<path d="M170.69 145.02L177.92 144.69L177.02 125.24L170.69 145.02Z" fill="#6A2E4A"/>
<path d="M156.23 145.69C155.66 147.46 154.76 147.97 153.22 148.05C152.23 148.1 151.45 147.98 150.69 147.77L150.8 152.97C151.82 153.2 153.12 153.26 154.27 153.2C159.31 152.97 161.6 151.11 162.94 146.95L163.45 145.35L156.22 145.68L156.23 145.69Z" fill="#DD2146"/>
<path d="M177.02 125.24L185.17 144.34L192.4 144.01L184.25 124.91L177.02 125.24Z" fill="#DD2146"/>
<path d="M169.1 120.1C169.01 118.01 170.57 116.16 172.98 116.05C175.39 115.94 177.12 117.63 177.21 119.72C177.3 121.81 175.74 123.69 173.33 123.8C170.92 123.91 169.19 122.18 169.09 120.09H169.1V120.1Z" fill="#DD2146"/>
<path d="M191.5 124.56L188.33 134.45L192.4 144.01L198.73 124.23L191.5 124.56Z" fill="#6A2E4A"/>
<path d="M162.56 125.91L159.39 135.8L163.46 145.36L169.79 125.58L162.56 125.91Z" fill="#6A2E4A"/>
<path d="M148.08 126.59L156.23 145.69L163.46 145.36L155.31 126.26L148.08 126.59Z" fill="#DD2146"/>
<path d="M155.31 126.25L148.08 126.58L152.15 136.14L155.32 126.25H155.31Z" fill="#6A2E4A"/>
<path d="M184.27 124.9L177.04 125.23L181.11 134.79L184.28 124.9H184.27Z" fill="#B73353"/>
<path d="M213.84 161.73C221.1 161.73 226.98 155.85 226.98 148.59C226.98 141.33 221.1 135.45 213.84 135.45C206.58 135.45 200.7 141.33 200.7 148.59C200.7 155.85 206.58 161.73 213.84 161.73Z" fill="#EE9A80"/>
</g>
<defs>
<clipPath id="clip0_5858_24210">
<rect width="285.4" height="285.4" fill="white"/>
</clipPath>
</defs>
</svg>
