<svg width="286" height="286" viewBox="0 0 286 286" fill="none" xmlns="http://www.w3.org/2000/svg">
<g clip-path="url(#clip0_6243_14679)">
<path d="M209.62 239.18C200.32 239.18 182.19 231.49 174.06 212.38L208.64 128.76L215.57 97.39C230.41 98.53 240.34 119.44 240.34 119.44L273 200.96C280.97 183.17 285.4 163.46 285.4 142.7C285.4 63.89 221.51 0 142.7 0C63.89 0 0 63.89 0 142.7C0 221.51 63.89 285.4 142.7 285.4C174.93 285.4 204.66 274.71 228.55 256.69L222.81 239.02L209.62 239.18Z" fill="#C9DEE9"/>
<path d="M273 200.95L240.34 119.43C240.34 119.43 230.41 98.5199 215.57 97.3799L208.64 128.75L174.06 212.37C182.19 231.48 200.32 239.17 209.62 239.17L222.81 239.01L228.55 256.68C247.69 242.24 263.09 223.09 273 200.95Z" fill="#EB9780"/>
<path d="M221.14 81.25H54.66C49.14 81.25 44.66 85.73 44.66 91.25V204.41H221.14V81.25Z" fill="#A48DAE"/>
<path d="M221.75 86.9302H56.77C53 86.9302 49.95 89.9802 49.95 93.7502V204.41H221.75V86.9302Z" fill="#CCC1D3"/>
<path d="M218.69 197.19H26.99V202.52C26.99 205.16 29.13 207.29 31.76 207.29H218.68V197.19H218.69Z" fill="#A48DAE"/>
<path d="M136.96 112.13C136.96 112.13 126.04 160.11 127.14 169.44C127.14 169.44 125.49 179.6 140.87 188.38L154.32 136.6L136.96 112.13Z" fill="#EB9780"/>
<path d="M221.51 222.86L153.64 226.83C146.62 227.24 140.6 221.89 140.19 214.87L130.9 61.7101C130.49 54.6901 135.84 48.6701 142.86 48.2601L210.73 44.2901C217.75 43.8801 223.77 49.2301 224.18 56.2501L233.47 209.41C233.88 216.43 228.53 222.45 221.51 222.86Z" fill="#484747"/>
<path d="M152.88 220.03C149.76 220.03 147.17 217.58 146.99 214.47L137.7 61.2901C137.61 59.7201 138.13 58.2101 139.18 57.0301C140.23 55.8501 141.68 55.1501 143.25 55.0601L211.12 51.0901C211.24 51.0901 211.36 51.0801 211.48 51.0801C214.6 51.0801 217.19 53.5301 217.37 56.6401L226.67 209.82C226.86 213.06 224.37 215.86 221.11 216.05L153.24 220.02C153.12 220.02 153 220.03 152.88 220.03Z" fill="white"/>
<path d="M165.21 124.73L149.796 125.626C148.137 125.723 146.87 127.147 146.966 128.806L147.689 141.235C147.786 142.895 149.21 144.162 150.869 144.065L166.283 143.168C167.943 143.072 169.21 141.648 169.113 139.989L168.39 127.56C168.293 125.9 166.87 124.633 165.21 124.73Z" fill="#E3DEDB"/>
<path d="M189.547 123.329L174.133 124.226C172.474 124.322 171.207 125.746 171.303 127.405L172.026 139.834C172.123 141.494 173.547 142.761 175.206 142.664L190.62 141.768C192.28 141.671 193.547 140.247 193.45 138.588L192.727 126.159C192.63 124.499 191.207 123.232 189.547 123.329Z" fill="#E3DEDB"/>
<path d="M213.755 121.915L198.341 122.811C196.681 122.908 195.414 124.332 195.511 125.991L196.234 138.42C196.33 140.08 197.754 141.347 199.413 141.25L214.827 140.353C216.487 140.257 217.754 138.833 217.657 137.174L216.934 124.745C216.838 123.085 215.414 121.818 213.755 121.915Z" fill="#E3DEDB"/>
<path d="M166.738 146.255L151.324 147.152C149.664 147.248 148.397 148.672 148.494 150.332L149.217 162.761C149.313 164.42 150.737 165.687 152.397 165.591L167.811 164.694C169.47 164.597 170.737 163.174 170.641 161.514L169.917 149.085C169.821 147.425 168.397 146.158 166.738 146.255Z" fill="#E3DEDB"/>
<path d="M191.064 144.834L175.65 145.731C173.991 145.827 172.724 147.251 172.82 148.911L173.543 161.34C173.64 162.999 175.063 164.266 176.723 164.17L192.137 163.273C193.797 163.176 195.064 161.753 194.967 160.093L194.244 147.664C194.147 146.005 192.724 144.737 191.064 144.834Z" fill="#E3DEDB"/>
<path d="M215.271 143.43L199.857 144.327C198.198 144.424 196.931 145.847 197.027 147.507L197.751 159.936C197.847 161.595 199.271 162.862 200.93 162.766L216.344 161.869C218.004 161.773 219.271 160.349 219.174 158.689L218.451 146.26C218.355 144.601 216.931 143.334 215.271 143.43Z" fill="#E3DEDB"/>
<path d="M168.068 168.161L152.654 169.058C150.995 169.154 149.728 170.578 149.824 172.237L150.547 184.666C150.644 186.326 152.067 187.593 153.727 187.496L169.141 186.6C170.801 186.503 172.068 185.079 171.971 183.42L171.248 170.991C171.151 169.331 169.728 168.064 168.068 168.161Z" fill="#E3DEDB"/>
<path d="M192.395 166.75L176.981 167.647C175.321 167.743 174.054 169.167 174.151 170.827L174.874 183.256C174.97 184.915 176.394 186.182 178.053 186.086L193.467 185.189C195.127 185.092 196.394 183.669 196.298 182.009L195.574 169.58C195.478 167.921 194.054 166.654 192.395 166.75Z" fill="#E3DEDB"/>
<path d="M216.602 165.336L201.188 166.233C199.528 166.329 198.261 167.753 198.358 169.413L199.081 181.842C199.178 183.501 200.601 184.768 202.261 184.672L217.675 183.775C219.334 183.678 220.601 182.255 220.505 180.595L219.782 168.166C219.685 166.507 218.261 165.239 216.602 165.336Z" fill="#E3DEDB"/>
<path d="M216.671 192.715L154.606 196.327C152.423 196.454 150.756 198.327 150.883 200.51L151.367 208.826C151.494 211.009 153.367 212.676 155.55 212.549L217.615 208.938C219.798 208.811 221.465 206.938 221.338 204.755L220.855 196.439C220.727 194.255 218.855 192.588 216.671 192.715Z" fill="#E1032E"/>
<path d="M194.04 191.56C200.74 191.56 206.16 186.13 206.16 179.44C206.16 172.75 200.73 167.32 194.04 167.32C187.35 167.32 181.92 172.75 181.92 179.44C181.92 186.13 187.35 191.56 194.04 191.56Z" fill="#EB9780"/>
<path d="M205.69 159.15L241.73 191L254.31 159.18L221.78 138.48L205.7 159.14L205.69 159.15Z" fill="#EB9780"/>
<path d="M225.1 155.36L204.43 185.7L183.66 173.18L202.65 141.7L225.1 155.36Z" fill="#EB9780"/>
<path d="M174.6 71.2698L180.95 86.1498L186.59 85.8898L180.24 71.0098L174.6 71.2698Z" fill="#3EA0D8"/>
<path d="M191 66.22C190.93 64.59 192.15 63.15 194.02 63.06C195.9 62.97 197.24 64.29 197.32 65.92C197.39 67.55 196.17 69.01 194.3 69.1C192.42 69.19 191.08 67.84 190.99 66.21H191V66.22Z" fill="#DA2146"/>
<path d="M197.17 70.22L197.87 85.38L202.8 69.96L197.16 70.22H197.17Z" fill="#91C0D7"/>
<path d="M197.17 70.2202L191.53 70.4802L192.23 85.6402L197.16 70.2202H197.17Z" fill="#DA2146"/>
<path d="M192.24 85.63L197.88 85.37L197.18 70.21L192.25 85.63H192.24Z" fill="#6A2E4A"/>
<path d="M174.6 71.2698L175.3 86.4298L180.23 71.0098L174.59 71.2698H174.6Z" fill="#91C0D7"/>
<path d="M174.6 71.27L168.96 71.53L169.66 86.69L174.59 71.27H174.6Z" fill="#DA2146"/>
<path d="M169.67 86.69L175.31 86.43L174.61 71.27L169.68 86.69H169.67Z" fill="#6A2E4A"/>
<path d="M158.4 87.2099C157.95 88.5899 157.25 88.9899 156.06 89.0499C155.29 89.0899 154.68 88.9899 154.09 88.8299L154.18 92.8799C154.98 93.0599 155.99 93.0999 156.88 93.0599C160.81 92.8799 162.59 91.4299 163.63 88.1899L164.03 86.9399L158.39 87.1999L158.4 87.2099Z" fill="#DA2146"/>
<path d="M174.6 71.2698L180.95 86.1498L186.59 85.8898L180.24 71.0098L174.6 71.2698Z" fill="#DA2146"/>
<path d="M168.43 67.2698C168.36 65.6398 169.58 64.1998 171.45 64.1098C173.33 64.0198 174.67 65.3398 174.75 66.9698C174.82 68.5998 173.6 70.0598 171.73 70.1498C169.85 70.2398 168.51 68.8898 168.42 67.2598H168.43V67.2698Z" fill="#DA2146"/>
<path d="M185.89 70.74L183.42 78.45L186.59 85.9L191.52 70.48L185.88 70.74H185.89Z" fill="#6A2E4A"/>
<path d="M163.33 71.7898L160.86 79.4998L164.03 86.9498L168.96 71.5298L163.32 71.7898H163.33Z" fill="#6A2E4A"/>
<path d="M152.05 72.3201L158.4 87.2001L164.04 86.9401L157.69 72.0601L152.05 72.3201Z" fill="#DA2146"/>
<path d="M157.68 72.0601L152.04 72.3201L155.21 79.7701L157.68 72.0601Z" fill="#6A2E4A"/>
<path d="M180.25 71.0098L174.61 71.2698L177.78 78.7198L180.25 71.0098Z" fill="#B43353"/>
<path d="M213.84 161.73C221.1 161.73 226.98 155.85 226.98 148.59C226.98 141.33 221.1 135.45 213.84 135.45C206.58 135.45 200.7 141.33 200.7 148.59C200.7 155.85 206.58 161.73 213.84 161.73Z" fill="#EB9780"/>
<path d="M211.406 96.451L147.592 100.131C146.153 100.213 145.053 101.447 145.136 102.886L145.993 117.742C146.076 119.181 147.31 120.28 148.749 120.197L212.563 116.518C214.002 116.435 215.101 115.201 215.018 113.762L214.162 98.9065C214.079 97.4674 212.845 96.3681 211.406 96.451Z" fill="#E3DEDB"/>
<path d="M154.481 105.394L154.401 105.397C154.097 105.409 153.861 105.665 153.873 105.969L154.179 113.662C154.191 113.966 154.447 114.202 154.751 114.19L154.831 114.187C155.134 114.175 155.371 113.919 155.358 113.615L155.052 105.922C155.04 105.618 154.784 105.382 154.481 105.394Z" fill="#9E9999"/>
<path d="M159.016 109.661L159.013 109.581C159.001 109.277 158.745 109.041 158.441 109.053L150.747 109.359C150.444 109.372 150.207 109.627 150.22 109.931L150.223 110.011C150.235 110.314 150.491 110.551 150.794 110.539L158.488 110.232C158.792 110.22 159.028 109.964 159.016 109.661Z" fill="#9E9999"/>
<path d="M157.633 106.592L157.574 106.538C157.351 106.332 157.003 106.345 156.797 106.569L151.573 112.226C151.367 112.449 151.381 112.797 151.604 113.003L151.663 113.057C151.886 113.263 152.234 113.249 152.44 113.026L157.664 107.369C157.87 107.146 157.856 106.798 157.633 106.592Z" fill="#9E9999"/>
<path d="M157.828 112.823L157.882 112.764C158.088 112.541 158.074 112.193 157.851 111.987L152.194 106.763C151.971 106.557 151.623 106.571 151.417 106.794L151.363 106.853C151.157 107.076 151.17 107.424 151.394 107.63L157.051 112.854C157.274 113.06 157.622 113.046 157.828 112.823Z" fill="#9E9999"/>
<path d="M165.826 104.743L165.746 104.746C165.442 104.758 165.206 105.014 165.218 105.318L165.525 113.012C165.537 113.315 165.793 113.551 166.096 113.539L166.176 113.536C166.48 113.524 166.716 113.268 166.704 112.965L166.397 105.271C166.385 104.967 166.129 104.731 165.826 104.743Z" fill="#9E9999"/>
<path d="M170.357 109.016L170.354 108.936C170.342 108.632 170.086 108.396 169.782 108.408L162.088 108.714C161.785 108.727 161.549 108.982 161.561 109.286L161.564 109.366C161.576 109.669 161.832 109.906 162.135 109.894L169.829 109.587C170.133 109.575 170.369 109.319 170.357 109.016Z" fill="#9E9999"/>
<path d="M168.972 105.944L168.914 105.89C168.691 105.684 168.343 105.698 168.137 105.921L162.913 111.578C162.707 111.801 162.72 112.149 162.944 112.355L163.002 112.41C163.226 112.616 163.574 112.602 163.78 112.379L169.003 106.722C169.21 106.499 169.196 106.151 168.972 105.944Z" fill="#9E9999"/>
<path d="M169.165 112.163L169.22 112.104C169.426 111.881 169.412 111.533 169.189 111.327L163.532 106.103C163.309 105.897 162.961 105.911 162.754 106.134L162.7 106.192C162.494 106.416 162.508 106.764 162.731 106.97L168.388 112.194C168.611 112.4 168.959 112.386 169.165 112.163Z" fill="#9E9999"/>
<path d="M177.181 104.092L177.101 104.095C176.797 104.107 176.561 104.363 176.573 104.666L176.879 112.36C176.891 112.664 177.147 112.9 177.451 112.888L177.531 112.885C177.834 112.873 178.07 112.617 178.058 112.313L177.752 104.619C177.74 104.316 177.484 104.08 177.181 104.092Z" fill="#9E9999"/>
<path d="M181.718 108.36L181.715 108.281C181.703 107.977 181.447 107.741 181.143 107.753L173.449 108.059C173.146 108.071 172.91 108.327 172.922 108.631L172.925 108.711C172.937 109.014 173.193 109.25 173.496 109.238L181.19 108.932C181.494 108.92 181.73 108.664 181.718 108.36Z" fill="#9E9999"/>
<path d="M180.329 105.289L180.27 105.235C180.047 105.029 179.699 105.043 179.493 105.266L174.269 110.923C174.063 111.146 174.077 111.494 174.3 111.7L174.359 111.754C174.582 111.96 174.93 111.947 175.136 111.723L180.36 106.066C180.566 105.843 180.552 105.495 180.329 105.289Z" fill="#9E9999"/>
<path d="M180.52 111.519L180.575 111.46C180.781 111.237 180.767 110.889 180.544 110.683L174.887 105.459C174.663 105.253 174.315 105.267 174.109 105.49L174.055 105.548C173.849 105.772 173.863 106.12 174.086 106.326L179.743 111.549C179.966 111.756 180.314 111.742 180.52 111.519Z" fill="#9E9999"/>
<path d="M188.526 103.441L188.446 103.444C188.142 103.456 187.906 103.712 187.918 104.015L188.224 111.709C188.237 112.013 188.492 112.249 188.796 112.237L188.876 112.234C189.179 112.222 189.416 111.966 189.404 111.662L189.097 103.968C189.085 103.665 188.829 103.429 188.526 103.441Z" fill="#9E9999"/>
<path d="M193.059 107.706L193.056 107.626C193.044 107.322 192.788 107.086 192.484 107.098L184.79 107.404C184.487 107.416 184.251 107.672 184.263 107.976L184.266 108.056C184.278 108.359 184.534 108.596 184.837 108.583L192.531 108.277C192.835 108.265 193.071 108.009 193.059 107.706Z" fill="#9E9999"/>
<path d="M191.678 104.632L191.62 104.578C191.396 104.372 191.048 104.385 190.842 104.609L185.619 110.266C185.412 110.489 185.426 110.837 185.649 111.043L185.708 111.097C185.931 111.303 186.279 111.289 186.485 111.066L191.709 105.409C191.915 105.186 191.901 104.838 191.678 104.632Z" fill="#9E9999"/>
<path d="M191.858 110.858L191.912 110.799C192.118 110.576 192.104 110.228 191.881 110.022L186.224 104.798C186.001 104.592 185.653 104.606 185.447 104.829L185.393 104.888C185.187 105.111 185.2 105.459 185.424 105.665L191.081 110.889C191.304 111.095 191.652 111.081 191.858 110.858Z" fill="#9E9999"/>
<path d="M206.28 102C205.06 102.04 204.12 103.11 204.17 104.33L204.33 107.08L205.12 107.03L204.96 104.28C204.96 104.28 204.96 104.27 204.96 104.26C204.92 103.5 205.47 102.86 206.23 102.79C207.02 102.72 207.7 103.35 207.74 104.14L207.89 106.73L208.68 106.68L208.53 104.05C208.46 102.86 207.46 101.95 206.27 101.99L206.28 102Z" fill="#9E9999"/>
<path d="M209.2 106.04L206.51 106.2L205.07 106.28L204.25 106.33L203.82 106.35C203.6 106.36 203.43 106.53 203.45 106.73L203.69 110.81C203.7 111.01 203.89 111.16 204.11 111.15L209.49 110.84C209.71 110.83 209.88 110.66 209.86 110.46L209.62 106.38C209.61 106.18 209.42 106.03 209.2 106.04Z" fill="#9E9999"/>
<path d="M206.93 108.64L206.97 109.36C206.97 109.47 206.9 109.56 206.79 109.56H206.62C206.51 109.58 206.42 109.5 206.42 109.39L206.38 108.67C206.21 108.6 206.09 108.41 206.08 108.22C206.06 107.92 206.3 107.65 206.6 107.63C206.9 107.61 207.17 107.85 207.18 108.15C207.19 108.34 207.09 108.54 206.93 108.64Z" fill="#E3DEDB"/>
</g>
<defs>
<clipPath id="clip0_6243_14679">
<rect width="285.4" height="285.4" fill="white"/>
</clipPath>
</defs>
</svg>
