<svg width="375" height="406" viewBox="0 0 375 406" fill="none" xmlns="http://www.w3.org/2000/svg">
<g clip-path="url(#clip0_4442_7354)">
<path d="M375 396.979H-0.0200195V405.979H375V396.979Z" fill="#C1BEBE"/>
<path fill-rule="evenodd" clip-rule="evenodd" d="M74.4349 286.717C70.5159 286.434 67.5909 283.639 67.0319 279.753C66.8699 278.632 66.8189 277.49 66.8189 276.357C66.8089 228.808 66.8069 181.26 66.8129 133.712C66.8149 126.076 69.6739 123.217 77.2539 123.217C150.886 123.217 224.518 123.217 298.149 123.217C305.602 123.217 308.54 126.09 308.544 133.5C308.552 181.311 308.546 229.122 308.529 276.933C308.527 283.78 305.436 286.776 298.504 286.786C296.93 286.787 76.4239 286.862 74.4349 286.717ZM294.609 269.905C294.609 268.729 294.609 267.705 294.609 266.684C294.609 230.246 294.616 193.813 294.601 157.373C294.601 151.609 294.467 145.842 294.489 140.078C294.495 138.403 293.912 137.63 292.208 137.73C291.422 137.776 290.63 137.728 289.841 137.728C221.758 137.728 153.68 137.728 85.5969 137.728C84.9839 137.728 84.3629 137.782 83.7569 137.722C81.6479 137.504 80.8059 138.283 80.8459 140.523C80.9469 145.936 80.7559 151.353 80.7559 156.769C80.7429 193.554 80.7479 230.34 80.7559 267.125C80.7559 268.05 80.8479 268.972 80.8969 269.905C152.23 269.905 223.255 269.905 294.609 269.905ZM190.878 129.582C190.69 127.667 189.72 126.413 187.771 126.36C185.831 126.308 184.614 127.457 184.553 129.38C184.493 131.305 185.66 132.522 187.584 132.59C189.529 132.656 190.562 131.436 190.878 129.582Z" fill="#C1BEBE"/>
<path fill-rule="evenodd" clip-rule="evenodd" d="M336.4 291.031C336.4 294.41 336.663 297.389 336.332 300.301C335.926 303.865 331.902 306.873 327.74 307.165C326.866 307.227 325.984 307.188 325.108 307.188C233.338 307.188 141.573 307.199 49.802 307.127C47.442 307.125 44.92 306.554 42.759 305.602C39.945 304.364 38.416 301.908 38.527 298.648L38.481 291.091C38.94 290.821 119.671 291.033 158.363 291.019C160.229 291.017 161.703 291.017 162.866 293.121C163.512 294.289 165.806 295.112 167.369 295.131C180.79 295.284 194.214 295.23 207.638 295.214C209.883 295.211 211.636 294.406 212.872 292.332C213.295 291.62 214.627 291.096 215.547 291.088C224.849 290.999 234.147 291.031 243.446 291.031C273.187 291.031 302.929 291.031 332.672 291.031C333.803 291.031 334.932 291.031 336.4 291.031Z" fill="#C1BEBE"/>
<path fill-rule="evenodd" clip-rule="evenodd" d="M294.609 269.905C223.255 269.905 152.23 269.905 80.8961 269.905C80.8471 268.971 80.7551 268.05 80.7551 267.125C80.7471 230.34 80.7421 193.554 80.7551 156.769C80.7551 151.353 80.9451 145.936 80.8451 140.523C80.8051 138.283 81.6471 137.504 83.7561 137.722C84.3611 137.783 84.9831 137.728 85.5961 137.728C153.679 137.728 221.757 137.728 289.84 137.728C290.629 137.728 291.421 137.776 292.207 137.73C293.911 137.63 294.494 138.403 294.488 140.078C294.467 145.842 294.6 151.609 294.6 157.373C294.615 193.812 294.608 230.246 294.608 266.684C294.609 267.705 294.609 268.729 294.609 269.905Z" fill="white"/>
<path fill-rule="evenodd" clip-rule="evenodd" d="M190.878 129.582C190.562 131.436 189.529 132.657 187.584 132.59C185.66 132.522 184.493 131.304 184.553 129.38C184.614 127.457 185.83 126.308 187.771 126.36C189.72 126.413 190.689 127.667 190.878 129.582Z" fill="white"/>
<path fill-rule="evenodd" clip-rule="evenodd" d="M294.578 155.644C294.556 150.456 294.459 145.266 294.477 140.079C294.485 138.404 293.9 137.632 292.196 137.731C291.412 137.777 290.62 137.73 289.832 137.73H85.5869C84.9739 137.73 84.3529 137.784 83.7449 137.723C81.6379 137.505 80.7939 138.284 80.8339 140.524C80.9299 145.562 80.7789 150.604 80.7559 155.645H294.578V155.644Z" fill="white"/>
<path d="M241.072 145.443H224.727V148.379H241.072V145.443Z" fill="#C1BEBE"/>
<path d="M263.308 145.443H246.965V148.379H263.308V145.443Z" fill="#C1BEBE"/>
<path d="M285.546 145.443H269.203V148.379H285.546V145.443Z" fill="#C1BEBE"/>
<path d="M157.882 251.862L157.868 251.852L157.882 251.862Z" fill="#C1BEBE"/>
<path d="M136.99 205.07L137.001 205.084L136.99 205.07Z" fill="#C1BEBE"/>
<path d="M157.878 231.074L157.866 231.062V231.074H157.878Z" fill="#C1BEBE"/>
<path d="M173.523 194.674V194.676L173.537 194.688L173.523 194.674Z" fill="#C1BEBE"/>
<path d="M178.746 220.678L178.758 220.665L178.746 220.678Z" fill="#C1BEBE"/>
<path d="M157.866 179.094C157.87 184.093 157.87 189.095 157.874 194.096C157.87 189.095 157.87 184.093 157.866 179.094Z" fill="#C1BEBE"/>
<path d="M157.882 251.852C157.88 248.419 157.88 244.985 157.88 241.554C157.88 244.984 157.88 248.419 157.882 251.852Z" fill="#C1BEBE"/>
<path d="M157.874 233.722C157.876 234.568 157.878 235.413 157.88 236.259C157.878 235.413 157.876 234.567 157.874 233.722Z" fill="#C1BEBE"/>
<path d="M126.554 205.082L126.566 205.07L126.554 205.082H126.566H126.554Z" fill="#C1BEBE"/>
<path d="M157.866 231.074C157.868 231.958 157.87 232.838 157.874 233.721C157.87 232.838 157.868 231.958 157.866 231.074Z" fill="#C1BEBE"/>
<path d="M220.479 251.852C217.004 251.852 213.548 251.852 210.058 251.852C210.058 250.091 210.058 248.381 210.058 246.67C208.33 246.67 206.604 246.67 204.877 246.67C204.877 243.166 204.877 239.73 204.877 236.245C206.619 236.245 208.332 236.245 210.058 236.245C210.058 232.758 210.058 229.318 210.058 225.878C208.329 225.878 206.602 225.878 204.84 225.878C204.84 222.366 204.84 218.922 204.84 215.479C203.121 215.479 201.407 215.479 199.657 215.479C199.657 213.744 199.657 212.037 199.657 210.267C201.386 210.267 203.113 210.267 204.84 210.267C204.84 208.547 204.84 206.824 204.84 205.056C203.071 205.056 201.356 205.056 199.611 205.056C199.611 203.309 199.611 201.612 199.611 199.867C190.904 199.867 182.231 199.867 173.523 199.867C173.523 198.111 173.523 196.399 173.523 194.688C171.796 194.688 170.067 194.688 168.293 194.688C168.293 191.182 168.293 187.744 168.293 184.305C166.539 184.305 164.839 184.305 163.087 184.305C163.087 187.768 163.087 191.208 163.087 194.648C161.326 194.648 159.61 194.648 157.874 194.648C157.874 194.443 157.874 194.269 157.874 194.096C157.87 189.095 157.87 184.093 157.866 179.094C156.137 179.094 154.41 179.094 152.639 179.094C152.639 192.977 152.639 206.81 152.639 220.688C147.405 220.688 142.21 220.688 137.018 220.688C137.018 222.431 137.018 224.128 137.018 225.871C142.231 225.871 147.423 225.871 152.664 225.871C152.664 227.625 152.664 229.334 152.664 231.075C154.432 231.075 156.148 231.075 157.866 231.075C157.866 231.071 157.866 231.067 157.866 231.063C157.87 231.063 157.874 231.063 157.878 231.063C157.878 229.351 157.878 227.64 157.878 225.878C159.614 225.878 161.33 225.878 163.068 225.878C163.068 224.133 163.068 222.438 163.068 220.69C161.362 220.69 159.646 220.69 157.904 220.69C157.904 217.203 157.904 213.764 157.904 210.29C161.354 210.29 164.8 210.29 168.289 210.29C168.289 208.552 168.289 206.843 168.289 205.105C173.533 205.105 178.727 205.105 183.952 205.105C183.952 208.545 183.952 211.974 183.952 215.452C187.438 215.452 190.894 215.452 194.4 215.452C194.4 217.22 194.4 218.941 194.4 220.664C194.404 220.664 194.408 220.664 194.412 220.664C194.412 220.67 194.412 220.671 194.412 220.677C196.129 220.677 197.845 220.677 199.595 220.677C199.595 222.4 199.595 224.104 199.595 225.841C197.887 225.841 196.173 225.841 194.412 225.841C194.412 224.117 194.412 222.398 194.412 220.677C194.408 220.677 194.404 220.677 194.4 220.677C194.4 220.671 194.4 220.67 194.4 220.664C189.4 220.666 184.405 220.67 179.407 220.671C179.19 220.671 178.974 220.677 178.758 220.679C178.758 224.123 178.758 227.563 178.758 231.037C177.012 231.037 175.297 231.037 173.537 231.037C173.537 229.326 173.537 227.62 173.537 225.891C171.783 225.891 170.079 225.891 168.327 225.891C168.327 227.597 168.327 229.306 168.327 231.064C164.812 231.064 161.347 231.064 157.878 231.064C157.878 231.068 157.878 231.072 157.878 231.076C157.874 231.076 157.87 231.076 157.866 231.076C157.868 231.96 157.87 232.84 157.874 233.723C157.876 234.569 157.878 235.414 157.88 236.26C159.596 236.26 161.315 236.26 163.061 236.26C163.061 237.997 163.061 239.702 163.061 241.47C161.336 241.47 159.609 241.47 157.88 241.47C157.88 241.498 157.88 241.525 157.88 241.555C157.88 244.986 157.88 248.42 157.882 251.853C161.349 251.853 164.817 251.853 168.333 251.853C168.333 250.092 168.333 248.386 168.333 246.685C177.044 246.685 185.706 246.685 194.379 246.685C194.379 248.416 194.379 250.123 194.379 251.879C190.897 251.879 187.441 251.879 183.99 251.879C183.99 253.623 183.99 255.322 183.99 257.067C185.728 257.067 187.446 257.067 189.194 257.067C189.194 258.825 189.194 260.538 189.194 262.248C192.664 262.248 196.132 262.248 199.648 262.248C199.648 264.023 199.648 265.729 199.648 267.429C201.401 267.429 203.103 267.429 204.857 267.429C204.857 263.966 204.857 260.525 204.857 257.037C210.097 257.037 215.294 257.037 220.478 257.037C220.479 255.291 220.479 253.596 220.479 251.852ZM194.375 210.255C192.643 210.255 190.94 210.255 189.212 210.255C189.212 208.541 189.212 206.844 189.212 205.112C190.918 205.112 192.631 205.112 194.375 205.112C194.375 206.804 194.375 208.513 194.375 210.255ZM178.72 241.443C176.984 241.443 175.282 241.443 173.553 241.443C173.553 239.727 173.553 238.03 173.553 236.3C175.262 236.3 176.974 236.3 178.72 236.3C178.72 237.996 178.72 239.703 178.72 241.443ZM199.595 241.435C196.149 241.435 192.697 241.435 189.197 241.435C189.197 239.712 189.197 237.993 189.197 236.273C189.193 236.273 189.189 236.273 189.183 236.273C189.183 236.267 189.183 236.263 189.183 236.259C187.468 236.259 185.75 236.259 184.002 236.259C184.002 234.537 184.002 232.832 184.002 231.097C185.71 231.097 187.422 231.097 189.183 231.097C189.183 232.819 189.183 234.541 189.183 236.259C189.189 236.259 189.193 236.259 189.197 236.259C189.197 236.263 189.197 236.267 189.197 236.273C192.651 236.273 196.109 236.273 199.595 236.273C199.595 237.992 199.595 239.699 199.595 241.435Z" fill="#C1BEBE"/>
<path d="M157.868 251.852L157.882 251.862V251.852H157.868Z" fill="#C1BEBE"/>
<path d="M178.746 220.678H178.758V220.665L178.746 220.678Z" fill="#C1BEBE"/>
<path d="M173.523 194.676V194.688H173.537L173.523 194.676Z" fill="#C1BEBE"/>
<path d="M210.058 225.862C210.058 225.868 210.058 225.872 210.058 225.878C210.062 225.878 210.068 225.878 210.072 225.878L210.058 225.862Z" fill="#C1BEBE"/>
<path d="M157.878 179.094L157.866 179.082V179.094H157.878Z" fill="#C1BEBE"/>
<path d="M210.058 246.655C210.058 246.66 210.058 246.664 210.058 246.67C210.062 246.67 210.068 246.67 210.072 246.67L210.058 246.655Z" fill="#C1BEBE"/>
<path d="M189.194 262.259C189.194 262.255 189.194 262.251 189.194 262.247C189.192 262.247 189.188 262.247 189.182 262.247L189.194 262.259Z" fill="#C1BEBE"/>
<path d="M147.403 158.329C135.218 158.329 123.067 158.329 110.926 158.329C110.926 170.457 110.926 182.551 110.926 194.661C123.089 194.661 135.232 194.661 147.403 194.661C147.403 182.522 147.403 170.419 147.403 158.329ZM142.191 189.446C133.53 189.446 124.857 189.446 116.153 189.446C116.153 180.823 116.153 172.186 116.153 163.51C124.843 163.51 133.505 163.51 142.191 163.51C142.191 172.157 142.191 180.783 142.191 189.446Z" fill="#C1BEBE"/>
<path d="M184.006 158.325C184.006 170.46 184.006 182.564 184.006 194.655C196.183 194.655 208.325 194.655 220.483 194.655C220.483 182.539 220.483 170.447 220.483 158.325C208.296 158.325 196.145 158.325 184.006 158.325ZM215.25 189.463C206.563 189.463 197.902 189.463 189.214 189.463C189.214 180.81 189.214 172.172 189.214 163.513C197.893 163.513 206.554 163.513 215.25 163.513C215.25 172.148 215.25 180.785 215.25 189.463Z" fill="#C1BEBE"/>
<path d="M110.921 267.423C123.109 267.423 135.261 267.423 147.4 267.423C147.4 255.287 147.4 243.185 147.4 231.089C135.223 231.089 123.083 231.089 110.921 231.089C110.921 243.207 110.921 255.299 110.921 267.423ZM116.14 236.289C124.821 236.289 133.483 236.289 142.181 236.289C142.181 244.918 142.181 253.554 142.181 262.223C133.521 262.223 124.85 262.223 116.14 262.223C116.14 253.565 116.14 244.938 116.14 236.289Z" fill="#C1BEBE"/>
<path d="M163.114 173.913C164.867 173.913 166.572 173.913 168.323 173.913C168.323 175.646 168.323 177.355 168.323 179.094C170.077 179.094 171.783 179.094 173.537 179.094C173.537 180.835 173.537 182.543 173.537 184.252C175.3 184.252 177.014 184.252 178.727 184.252C178.727 180.791 178.727 177.36 178.727 173.882C176.993 173.882 175.277 173.882 173.563 173.882C173.563 172.124 173.563 170.416 173.563 168.676C175.301 168.676 177.005 168.676 178.721 168.676C178.721 165.203 178.721 161.761 178.721 158.326C170.02 158.326 161.346 158.326 152.677 158.326C152.677 161.79 152.677 165.22 152.677 168.699C154.415 168.699 156.131 168.699 157.877 168.699C157.877 172.191 157.877 175.637 157.877 179.081C159.607 179.081 161.335 179.081 163.113 179.081C163.114 177.318 163.114 175.612 163.114 173.913ZM163.121 163.516C164.835 163.516 166.539 163.516 168.293 163.516C168.293 165.236 168.293 166.932 168.293 168.659C166.576 168.659 164.862 168.659 163.121 168.659C163.121 166.952 163.121 165.245 163.121 163.516Z" fill="#C1BEBE"/>
<path d="M157.878 179.082H157.866L157.878 179.094V179.082Z" fill="#C1BEBE"/>
<path d="M126.566 205.082C128.31 205.082 130.052 205.084 131.795 205.084C130.053 205.084 128.311 205.082 126.566 205.082Z" fill="#C1BEBE"/>
<path d="M136.99 205.07C136.99 205.074 136.99 205.078 136.99 205.084C136.993 205.084 136.997 205.084 137.001 205.084L136.99 205.07Z" fill="#C1BEBE"/>
<path d="M126.566 205.082V205.07L126.554 205.082H126.566Z" fill="#C1BEBE"/>
<path d="M131.795 205.084C130.053 205.084 128.311 205.082 126.566 205.082C126.566 210.27 126.566 215.455 126.566 220.637C123.044 220.637 119.589 220.637 116.103 220.637C116.103 218.904 116.103 217.208 116.103 215.501C114.357 215.501 112.642 215.501 110.935 215.501C110.935 218.972 110.935 222.413 110.935 225.844C117.893 225.844 124.816 225.844 131.788 225.844C131.788 222.381 131.788 218.941 131.788 215.453C137.027 215.453 142.225 215.453 147.413 215.453C147.413 213.709 147.413 212.012 147.413 210.266C143.934 210.266 140.48 210.266 136.99 210.266C136.99 208.506 136.99 206.795 136.99 205.083C135.259 205.084 133.528 205.084 131.795 205.084Z" fill="#C1BEBE"/>
<path d="M152.688 267.43C157.907 267.43 163.089 267.43 168.284 267.43C168.284 265.699 168.284 263.992 168.284 262.236C166.54 262.236 164.825 262.236 163.081 262.236C163.081 260.49 163.081 258.793 163.081 257.048C161.331 257.048 159.617 257.048 157.869 257.048C157.869 255.288 157.869 253.578 157.869 251.863C156.14 251.863 154.411 251.863 152.688 251.863C152.688 257.089 152.688 262.263 152.688 267.43Z" fill="#C1BEBE"/>
<path d="M157.868 251.852V251.862H157.882L157.868 251.852Z" fill="#C1BEBE"/>
<path d="M220.48 215.44C220.48 210.246 220.48 205.082 220.48 199.904C217.005 199.904 213.553 199.904 210.097 199.904C210.097 201.639 210.097 203.348 210.097 205.071C211.822 205.071 213.517 205.071 215.276 205.071C215.276 208.54 215.276 211.989 215.276 215.439C217.052 215.44 218.769 215.44 220.48 215.44Z" fill="#C1BEBE"/>
<path d="M126.554 205.07V205.082L126.566 205.07H126.554Z" fill="#C1BEBE"/>
<path d="M110.938 199.911C110.938 203.383 110.938 206.824 110.938 210.248C112.678 210.248 114.383 210.248 116.134 210.248C116.134 208.517 116.134 206.808 116.134 205.07C119.64 205.07 123.096 205.07 126.554 205.07C126.554 203.348 126.554 201.626 126.554 199.91C121.308 199.911 116.115 199.911 110.938 199.911Z" fill="#C1BEBE"/>
<path d="M137.001 205.07C136.997 205.07 136.993 205.07 136.99 205.07L137.001 205.084C137.001 205.078 137.001 205.074 137.001 205.07Z" fill="#C1BEBE"/>
<path d="M147.405 199.909C143.925 199.909 140.472 199.909 137.001 199.909C137.001 201.65 137.001 203.36 137.001 205.071C140.469 205.071 143.934 205.071 147.405 205.071C147.405 203.318 147.405 201.611 147.405 199.909Z" fill="#C1BEBE"/>
<path d="M215.314 267.419C217.058 267.419 218.772 267.419 220.478 267.419C220.478 265.688 220.478 263.992 220.478 262.275C218.753 262.275 217.049 262.275 215.314 262.275C215.314 264.015 215.314 265.722 215.314 267.419Z" fill="#C1BEBE"/>
<path d="M183.998 267.421C185.742 267.421 187.454 267.421 189.183 267.421C189.183 265.68 189.183 263.969 189.183 262.259C187.456 262.259 185.729 262.259 183.998 262.259C183.998 264.015 183.998 265.722 183.998 267.421Z" fill="#C1BEBE"/>
<path d="M189.183 262.259C189.189 262.259 189.193 262.259 189.195 262.259L189.183 262.247C189.183 262.251 189.183 262.255 189.183 262.259Z" fill="#C1BEBE"/>
<path d="M173.562 262.221C175.308 262.221 177.022 262.221 178.728 262.221C178.728 260.488 178.728 258.792 178.728 257.075C176.999 257.075 175.297 257.075 173.562 257.075C173.562 258.818 173.562 260.525 173.562 262.221Z" fill="#C1BEBE"/>
<path d="M210.071 246.655C210.067 246.655 210.061 246.655 210.057 246.655L210.071 246.67C210.071 246.664 210.071 246.66 210.071 246.655Z" fill="#C1BEBE"/>
<path d="M215.254 241.495C213.51 241.495 211.8 241.495 210.071 241.495C210.071 243.237 210.071 244.946 210.071 246.655C211.798 246.655 213.525 246.655 215.254 246.655C215.254 244.902 215.254 243.196 215.254 241.495Z" fill="#C1BEBE"/>
<path d="M152.686 236.271C152.686 238.027 152.686 239.734 152.686 241.458C154.436 241.458 156.151 241.458 157.867 241.458C157.867 239.73 157.867 238.001 157.867 236.271C156.142 236.271 154.412 236.271 152.686 236.271Z" fill="#C1BEBE"/>
<path d="M215.318 236.244C217.056 236.244 218.759 236.244 220.482 236.244C220.482 234.523 220.482 232.828 220.482 231.097C218.736 231.097 217.024 231.097 215.318 231.097C215.318 232.834 215.318 234.541 215.318 236.244Z" fill="#C1BEBE"/>
<path d="M210.071 225.862C210.067 225.862 210.061 225.862 210.057 225.862L210.071 225.878C210.071 225.872 210.071 225.868 210.071 225.862Z" fill="#C1BEBE"/>
<path d="M215.254 220.704C213.51 220.704 211.8 220.704 210.071 220.704C210.071 222.443 210.071 224.152 210.071 225.862C211.798 225.862 213.525 225.862 215.254 225.862C215.254 224.11 215.254 222.403 215.254 220.704Z" fill="#C1BEBE"/>
<path d="M210.035 215.467C210.035 213.711 210.035 212.004 210.035 210.28C208.287 210.28 206.569 210.28 204.849 210.28C204.849 212.009 204.849 213.737 204.849 215.467C206.581 215.467 208.308 215.467 210.035 215.467Z" fill="#C1BEBE"/>
<path d="M178.722 189.514C176.978 189.514 175.266 189.514 173.537 189.514C173.537 191.255 173.537 192.966 173.537 194.674C175.262 194.674 176.993 194.674 178.722 194.674C178.722 192.922 178.722 191.215 178.722 189.514Z" fill="#C1BEBE"/>
<path d="M173.537 194.674H173.523L173.537 194.688V194.674Z" fill="#C1BEBE"/>
<path d="M157.878 231.062H157.866L157.878 231.074V231.062Z" fill="#C1BEBE"/>
<path d="M194.412 220.663C194.408 220.663 194.404 220.663 194.4 220.663C194.4 220.669 194.4 220.67 194.4 220.676L194.412 220.663Z" fill="#C1BEBE"/>
<path d="M179.407 220.67C179.19 220.67 178.974 220.676 178.758 220.678C178.975 220.676 179.19 220.67 179.407 220.67Z" fill="#C1BEBE"/>
<path d="M189.183 236.272C189.189 236.272 189.193 236.272 189.197 236.272C189.197 236.266 189.197 236.262 189.197 236.258L189.183 236.272Z" fill="#C1BEBE"/>
<path d="M157.88 236.259H157.866L157.88 236.271V236.259Z" fill="#C1BEBE"/>
<path d="M157.866 241.469C157.87 241.469 157.876 241.469 157.88 241.469C157.88 241.465 157.88 241.463 157.88 241.457L157.866 241.469Z" fill="#C1BEBE"/>
<path d="M157.866 241.457C157.866 241.463 157.866 241.465 157.866 241.469L157.88 241.457C157.876 241.457 157.87 241.457 157.866 241.457Z" fill="#C1BEBE"/>
<path d="M157.866 236.259V236.271H157.88L157.866 236.259Z" fill="#C1BEBE"/>
<path d="M189.183 236.259C189.183 236.263 189.183 236.267 189.183 236.273L189.197 236.259C189.192 236.259 189.188 236.259 189.183 236.259Z" fill="#C1BEBE"/>
<path d="M194.412 220.676C194.412 220.67 194.412 220.669 194.412 220.663L194.4 220.676C194.404 220.676 194.408 220.676 194.412 220.676Z" fill="#C1BEBE"/>
<path d="M204.85 210.267C204.848 210.267 204.844 210.267 204.84 210.267C204.84 210.273 204.84 210.277 204.84 210.281L204.85 210.267Z" fill="#C1BEBE"/>
<path d="M204.84 215.479H204.85L204.84 215.467V215.479Z" fill="#C1BEBE"/>
<path d="M204.85 210.28C204.85 210.276 204.85 210.272 204.85 210.266L204.84 210.28C204.844 210.28 204.848 210.28 204.85 210.28Z" fill="#C1BEBE"/>
<path d="M204.85 215.479V215.467H204.84L204.85 215.479Z" fill="#C1BEBE"/>
<path d="M178.746 220.665V220.678L178.758 220.665H178.746Z" fill="#C1BEBE"/>
<path d="M173.563 215.501C173.563 217.238 173.563 218.942 173.563 220.665C175.309 220.665 177.029 220.665 178.746 220.665C178.746 218.944 178.746 217.225 178.746 215.501C176.983 215.501 175.271 215.501 173.563 215.501Z" fill="#C1BEBE"/>
<path d="M136.979 168.721C131.75 168.721 126.556 168.721 121.376 168.721C121.376 173.926 121.376 179.097 121.376 184.261C126.594 184.261 131.776 184.261 136.979 184.261C136.979 179.075 136.979 173.913 136.979 168.721Z" fill="#C1BEBE"/>
<path d="M210.04 168.708C204.833 168.708 199.651 168.708 194.44 168.708C194.44 173.916 194.44 179.09 194.44 184.248C199.665 184.248 204.859 184.248 210.04 184.248C210.04 179.052 210.04 173.89 210.04 168.708Z" fill="#C1BEBE"/>
<path d="M121.365 257.04C126.57 257.04 131.754 257.04 136.965 257.04C136.965 251.828 136.965 246.657 136.965 241.499C131.74 241.499 126.548 241.499 121.365 241.499C121.365 246.696 121.365 251.858 121.365 257.04Z" fill="#C1BEBE"/>
<path d="M111.193 144.384L109.308 149.438H107.423L109.308 144.384H111.193Z" fill="white"/>
<path d="M109.308 144.384L107.423 149.438H105.538L107.423 144.384H109.308Z" fill="white"/>
<path d="M113.074 144.384L111.193 149.438H109.308L111.193 144.384H113.074Z" fill="#E7BDDA"/>
<path d="M114.959 144.384L113.074 149.438H111.193L113.074 144.384H114.959Z" fill="#96714C"/>
<path d="M116.843 144.384L114.959 149.438H113.074L114.959 144.384H116.843Z" fill="white"/>
<path d="M118.726 144.384L116.843 149.438H114.959L116.843 144.384H118.726Z" fill="#80B776"/>
<path d="M120.61 144.384L118.726 149.438H116.843L118.726 144.384H120.61Z" fill="white"/>
<path d="M128.147 144.384L126.262 149.438H124.377L126.262 144.384H128.147Z" fill="white"/>
<path d="M122.496 144.384L120.61 149.438H118.726L120.61 144.384H122.496Z" fill="#4FAAE0"/>
<path d="M124.379 144.384L122.496 149.438H120.61L122.496 144.384H124.379Z" fill="white"/>
<path d="M126.262 144.384L124.379 149.438H122.496L124.379 144.384H126.262Z" fill="#F6A500"/>
<path d="M128.147 144.384L126.262 149.438H124.379L126.262 144.384H128.147Z" fill="#AC95B6"/>
<path d="M130.03 144.384L128.147 149.438H126.262L128.147 144.384H130.03Z" fill="white"/>
<path d="M131.913 144.384L130.03 149.438H128.147L130.03 144.384H131.913Z" fill="#E3032E"/>
<path d="M133.799 144.384L131.913 149.438H130.03L131.913 144.384H133.799Z" fill="white"/>
<path d="M135.684 144.384L133.799 149.438H131.913L133.799 144.384H135.684Z" fill="#D6B86B"/>
<path d="M137.566 144.384L135.682 149.438H133.799L135.682 144.384H137.566Z" fill="white"/>
<path d="M139.45 144.384L137.564 149.438H135.684L137.564 144.384H139.45Z" fill="white"/>
<path d="M141.335 144.384L139.45 149.438H137.566L139.45 144.384H141.335Z" fill="#49BBC3"/>
<path d="M143.218 144.384L141.335 149.438H139.45L141.335 144.384H143.218Z" fill="#D2D700"/>
<path d="M98.0166 144.406L99.8976 149.438H101.777L99.8976 144.406H98.0166Z" fill="#3EA6DE"/>
<path d="M103.546 142.986C103.546 142.446 103.975 141.988 104.598 141.988C105.222 141.988 105.653 142.446 105.653 142.986C105.653 143.526 105.222 143.994 104.598 143.994C103.975 143.994 103.546 143.525 103.546 142.986Z" fill="#E02146"/>
<path d="M105.538 144.406V149.438L107.419 144.406H105.538Z" fill="#97C6DD"/>
<path d="M105.538 144.406H103.658V149.438L105.538 144.406Z" fill="#E02146"/>
<path d="M103.658 149.438H105.538V144.406L103.658 149.438Z" fill="#6A2E4A"/>
<path d="M98.0166 144.406V149.438L99.8976 144.406H98.0166Z" fill="#97C6DD"/>
<path d="M98.0167 144.406H96.1357V149.438L98.0167 144.406Z" fill="#E02146"/>
<path d="M96.1357 149.438H98.0167V144.406L96.1357 149.438Z" fill="#6A2E4A"/>
<path d="M92.3748 149.438C92.2048 149.89 91.9658 150.008 91.5668 150.008C91.3098 150.008 91.1078 149.967 90.9138 149.907L90.8838 151.251C91.1468 151.322 91.4858 151.353 91.7808 151.353C93.0888 151.353 93.7098 150.902 94.1028 149.844L94.2528 149.438H92.3748Z" fill="#E02146"/>
<path d="M98.0166 144.406L99.8976 149.438H101.777L99.8976 144.406H98.0166Z" fill="#E02146"/>
<path d="M96.0229 142.986C96.0229 142.446 96.4509 141.988 97.0759 141.988C97.7009 141.988 98.1309 142.446 98.1309 142.986C98.1309 143.526 97.7009 143.994 97.0759 143.994C96.4509 143.994 96.0229 143.525 96.0229 142.986Z" fill="#E02146"/>
<path d="M101.777 144.406L100.839 146.922L101.777 149.438L103.658 144.406H101.777Z" fill="#6A2E4A"/>
<path d="M94.2539 144.406L93.3149 146.922L94.2539 149.438L96.1359 144.406H94.2539Z" fill="#6A2E4A"/>
<path d="M90.4951 144.406L92.3751 149.438H94.2541L92.3751 144.406H90.4951Z" fill="#E02146"/>
<path d="M92.3751 144.406H90.4951L91.4351 146.922L92.3751 144.406Z" fill="#6A2E4A"/>
<path d="M99.8981 144.406H98.0171L98.9571 146.922L99.8981 144.406Z" fill="#BA3353"/>
<path d="M99.8979 149.438H101.777L100.839 146.922L99.8979 149.438Z" fill="#BA3353"/>
<path d="M92.375 149.438H94.254L93.315 146.922L92.375 149.438Z" fill="#BA3353"/>
<path d="M247.237 224.99C247.237 224.99 249.681 234.711 248.258 242.007C248.258 242.007 256.392 256.588 257.001 258.411C257.612 260.233 266.358 287.178 266.971 288.39C267.576 289.606 271.241 297.103 271.442 310.269C271.65 323.432 271.442 337.006 271.442 337.006C271.442 337.006 273.679 347.336 275.916 352.402C278.156 357.467 285.272 374.885 286.9 376.71C287.395 377.268 296.058 393.966 302.247 405.979H223.222C222.358 402.387 219.482 388.931 213.487 385.927C201.205 379.772 198.631 373.67 196.19 370.839C193.747 367.998 180.736 353.411 177.682 351.795C174.631 350.172 146.158 331.741 145.342 331.128C144.531 330.525 138.632 328.496 138.632 328.496C138.632 328.496 134.365 324.855 135.174 320.801C135.174 320.801 132.533 314.928 139.04 313.913C139.04 313.913 143.718 312.289 145.342 312.498C146.968 312.699 165.076 310.674 165.076 310.674L164.87 303.261H145.953C145.953 303.261 144.938 306.619 139.647 305.812C134.365 305.002 134.77 302.166 135.582 300.95C135.582 300.95 131.649 299.979 134.644 289.808C135.722 286.14 139.85 284.541 139.85 284.541C139.85 284.541 134.038 284.136 133.791 280.085C133.543 276.04 133.791 279.072 133.791 279.072C133.791 279.072 130.09 276.439 134.77 270.362C134.77 270.362 138.226 261.045 145.14 261.856L154.292 262.057L145.952 259.629C145.952 259.629 135.118 256.997 132.399 254.97C129.685 252.943 128.053 248.08 129.072 245.046C130.09 242.006 138.225 240.182 138.225 240.182C138.225 240.182 145.751 239.369 147.579 240.182C149.407 240.992 231.63 275.627 231.63 275.627C231.63 275.627 237.682 278.063 238.29 279.071C238.29 279.071 236.251 269.547 236.459 268.133C236.664 266.718 236.052 265.5 236.052 264.689C236.052 263.878 231.63 259.019 231.63 259.019V234.506C231.63 234.506 235.848 224.989 241.543 224.989C247.236 224.989 246.22 226.002 246.22 226.002L247.237 224.99Z" fill="#F7B1A1"/>
<path d="M232.12 275.833L238.284 278.725V283.798C238.284 283.798 240.413 290.14 240.413 291.835C240.413 293.523 235.721 301.556 232.12 306.635V275.833V275.833Z" fill="#BA8A80"/>
<path d="M230.348 346.982C230.348 346.982 228.501 348.829 226.024 348.829C223.562 348.829 190.542 348.829 190.542 348.829C190.542 348.829 205.971 358.357 216.464 356.51C226.951 354.667 230.348 346.982 230.348 346.982Z" fill="#C6978F"/>
<path d="M226.023 348.829H150.623C147.271 348.829 144.532 346.099 144.532 342.761V180.027C144.532 176.687 147.271 173.96 150.623 173.96H226.023C229.377 173.96 232.12 176.687 232.12 180.027V342.761C232.12 346.099 229.377 348.829 226.023 348.829Z" fill="#1D1D1B"/>
<path d="M225.982 180.694H150.631V342.84H225.982V180.694Z" fill="white"/>
<path d="M210.097 185.31H209.53V186.152H210.097V185.31Z" fill="#1A1A1A"/>
<path d="M211.017 184.868H210.455V186.152H211.017V184.868Z" fill="#1A1A1A"/>
<path d="M211.942 184.438H211.375V186.152H211.942V184.438Z" fill="#1A1A1A"/>
<path d="M212.86 184.081H212.293V186.152H212.86V184.081Z" fill="#1A1A1A"/>
<path d="M215.537 184.362C216.023 184.362 216.467 184.527 216.832 184.795L217.099 184.51C216.665 184.18 216.128 183.975 215.537 183.975C214.959 183.975 214.428 184.174 213.999 184.495L214.262 184.783C214.624 184.521 215.062 184.362 215.537 184.362Z" fill="#1A1A1A"/>
<path d="M215.537 185.162C215.809 185.162 216.046 185.257 216.261 185.39L216.543 185.098C216.252 184.899 215.918 184.753 215.537 184.753C215.164 184.753 214.837 184.895 214.551 185.09L214.825 185.386C215.037 185.257 215.271 185.162 215.537 185.162Z" fill="#1A1A1A"/>
<path d="M215.96 185.708C215.831 185.643 215.691 185.598 215.537 185.598C215.389 185.598 215.252 185.642 215.123 185.704L215.537 186.151L215.96 185.708Z" fill="#1A1A1A"/>
<path d="M221.703 184.487H218.698V185.621H221.703V184.487Z" fill="#1A1A1A"/>
<path d="M222.068 184.051H218.371V186.053H222.068V184.051Z" stroke="#1A1A1A" stroke-width="0.1744" stroke-miterlimit="10"/>
<path d="M222.532 184.667H222.271V185.443H222.532V184.667Z" fill="#1A1A1A"/>
<path d="M155.877 184.838C155.877 185.258 155.791 185.572 155.621 185.779C155.451 185.986 155.195 186.09 154.853 186.09C154.724 186.09 154.63 186.082 154.574 186.067V185.78C154.662 185.804 154.748 185.816 154.836 185.816C155.068 185.816 155.242 185.754 155.356 185.629C155.471 185.504 155.534 185.309 155.544 185.043H155.526C155.469 185.131 155.399 185.194 155.319 185.233C155.237 185.272 155.141 185.291 155.032 185.291C154.843 185.291 154.694 185.232 154.585 185.115C154.478 184.997 154.423 184.836 154.423 184.631C154.423 184.408 154.485 184.232 154.612 184.1C154.737 183.968 154.907 183.902 155.124 183.902C155.276 183.902 155.409 183.939 155.522 184.013C155.635 184.087 155.723 184.194 155.784 184.335C155.846 184.473 155.877 184.642 155.877 184.838ZM155.129 184.185C155.01 184.185 154.92 184.224 154.856 184.301C154.794 184.378 154.76 184.487 154.76 184.627C154.76 184.749 154.789 184.844 154.85 184.914C154.909 184.984 154.998 185.018 155.118 185.018C155.235 185.018 155.333 184.983 155.411 184.914C155.491 184.845 155.53 184.764 155.53 184.672C155.53 184.586 155.512 184.505 155.479 184.429C155.446 184.353 155.399 184.294 155.338 184.25C155.277 184.207 155.207 184.185 155.129 184.185Z" fill="black"/>
<path d="M156.203 184.632C156.203 184.486 156.275 184.412 156.42 184.412C156.492 184.412 156.547 184.432 156.584 184.471C156.619 184.51 156.639 184.564 156.639 184.633C156.639 184.702 156.619 184.757 156.582 184.797C156.543 184.838 156.49 184.858 156.42 184.858C156.35 184.858 156.295 184.838 156.258 184.798C156.221 184.757 156.203 184.703 156.203 184.632ZM156.203 185.878C156.203 185.807 156.221 185.753 156.258 185.714C156.295 185.676 156.35 185.657 156.42 185.657C156.49 185.657 156.545 185.677 156.582 185.716C156.619 185.755 156.639 185.809 156.639 185.877C156.639 185.946 156.619 186.001 156.582 186.041C156.543 186.081 156.49 186.102 156.42 186.102C156.35 186.102 156.295 186.082 156.258 186.042C156.221 186.003 156.203 185.948 156.203 185.878Z" fill="black"/>
<path d="M158.492 185.595H158.203V186.06H157.867V185.595H156.888V185.331L157.867 183.922H158.203V185.31H158.492V185.595ZM157.867 185.311V184.776C157.867 184.586 157.873 184.429 157.883 184.308H157.871C157.844 184.372 157.801 184.45 157.742 184.541L157.211 185.311H157.867V185.311Z" fill="black"/>
<path d="M159.686 186.06H159.342V184.684C159.342 184.519 159.346 184.39 159.354 184.293C159.333 184.316 159.305 184.342 159.272 184.371C159.239 184.399 159.129 184.489 158.944 184.639L158.77 184.422L159.401 183.929H159.686V186.06Z" fill="black"/>
<path d="M225.987 322.968H150.661V342.841H225.987V322.968Z" fill="white"/>
<path d="M188.247 333.326C191.779 333.326 194.643 330.474 194.643 326.956C194.643 323.438 191.779 320.586 188.247 320.586C184.715 320.586 181.851 323.438 181.851 326.956C181.851 330.474 184.715 333.326 188.247 333.326Z" fill="#363E6A"/>
<path d="M184.714 324.855V323.372H186.195V323.68H185.022V324.856H184.714V324.855ZM184.714 330.54V329.058H185.023V330.23H186.196V330.541H184.714V330.54ZM190.423 330.54V330.229H191.598V329.057H191.909V330.539H190.423V330.54ZM191.598 324.855V323.679H190.423V323.371H191.908V324.854H191.598V324.855ZM190.319 328.969H190.818V329.463H190.319V328.969ZM190.319 327.969H190.818V328.466H190.319V327.969ZM189.832 328.466H190.319V328.969H189.832V328.466ZM189.326 328.969H189.832V329.463H189.326V328.969ZM188.831 328.466H189.326V328.969H188.831V328.466ZM189.832 327.472H190.319V327.969H189.832V327.472ZM189.326 327.969H189.832V328.466H189.326V327.969ZM188.831 327.472H189.326V327.969H188.831V327.472ZM190.818 324.445V326.436H188.831V324.445H190.818ZM187.793 327.472V329.463H185.794V327.472H187.793ZM187.793 324.445V326.436H185.794V324.445H187.793ZM187.479 329.158V327.783H186.101V329.158H187.479ZM187.479 326.13V324.753H186.101V326.13H187.479ZM190.506 326.13V324.753H189.139V326.13H190.506Z" fill="white"/>
<path d="M156.029 333.318V329.956L158.293 328.278L160.528 329.956V333.318H158.882V331.284H157.665V333.318H156.029ZM156.366 332.979H157.325V330.942H159.229V332.979H160.189V330.126L158.293 328.702L156.366 330.126V332.979V332.979Z" fill="white"/>
<path d="M171.599 333.318V332.759C171.599 332.614 171.629 332.489 171.698 332.379C171.767 332.269 171.87 332.182 172.01 332.119C172.296 331.992 172.561 331.897 172.802 331.843C173.044 331.787 173.285 331.761 173.524 331.761C173.636 331.761 173.766 331.765 173.895 331.782C174.025 331.794 174.157 331.818 174.295 331.858L173.998 332.148C173.92 332.14 173.842 332.135 173.762 332.131C173.686 332.123 173.606 332.119 173.524 332.119C173.294 332.119 173.081 332.14 172.888 332.183C172.696 332.221 172.455 332.31 172.155 332.443C172.081 332.471 172.036 332.519 172.005 332.58C171.977 332.641 171.962 332.699 171.962 332.759V332.959H173.879L174.24 333.317H171.599V333.318ZM174.878 333.415L174.028 332.569L174.279 332.319L174.878 332.911L176.157 331.631L176.412 331.887L174.878 333.415ZM173.523 331.387C173.256 331.387 173.044 331.307 172.871 331.14C172.703 330.971 172.623 330.753 172.623 330.492C172.623 330.228 172.703 330.014 172.871 329.842C173.044 329.675 173.257 329.593 173.523 329.593C173.789 329.593 174.002 329.675 174.172 329.842C174.34 330.015 174.425 330.229 174.425 330.492C174.425 330.754 174.34 330.971 174.172 331.14C174.002 331.307 173.79 331.387 173.523 331.387ZM173.523 331.029C173.677 331.029 173.811 330.984 173.914 330.878C174.013 330.775 174.066 330.647 174.066 330.491C174.066 330.334 174.012 330.205 173.914 330.104C173.811 330.001 173.678 329.951 173.523 329.951C173.365 329.951 173.234 330.002 173.134 330.104C173.031 330.205 172.984 330.333 172.984 330.491C172.984 330.646 173.032 330.775 173.134 330.878C173.234 330.984 173.365 331.029 173.523 331.029Z" fill="white"/>
<path d="M156.723 337.029H156.573V336.427H155.897V337.029H155.749V335.75H155.897V336.294H156.573V335.75H156.723V337.029Z" fill="white"/>
<path d="M157.883 336.549C157.883 336.705 157.844 336.827 157.766 336.915C157.686 337.003 157.577 337.047 157.438 337.047C157.352 337.047 157.276 337.026 157.209 336.986C157.141 336.946 157.09 336.888 157.053 336.813C157.018 336.738 156.998 336.649 156.998 336.548C156.998 336.392 157.039 336.27 157.117 336.183C157.195 336.096 157.305 336.052 157.443 336.052C157.578 336.052 157.685 336.097 157.763 336.186C157.844 336.276 157.883 336.396 157.883 336.549ZM157.15 336.549C157.15 336.672 157.173 336.765 157.224 336.829C157.273 336.893 157.345 336.925 157.441 336.925C157.537 336.925 157.609 336.894 157.658 336.829C157.707 336.766 157.732 336.672 157.732 336.549C157.732 336.427 157.707 336.334 157.658 336.272C157.609 336.209 157.535 336.176 157.439 336.176C157.343 336.176 157.271 336.207 157.222 336.27C157.173 336.333 157.15 336.426 157.15 336.549Z" fill="white"/>
<path d="M159.367 337.029V336.405C159.367 336.329 159.349 336.271 159.318 336.233C159.285 336.195 159.234 336.175 159.164 336.175C159.074 336.175 159.008 336.201 158.963 336.253C158.92 336.305 158.899 336.385 158.899 336.493V337.028H158.753V336.404C158.753 336.328 158.737 336.27 158.704 336.232C158.671 336.194 158.62 336.174 158.55 336.174C158.46 336.174 158.392 336.201 158.351 336.256C158.308 336.311 158.287 336.401 158.287 336.525V337.028H158.141V336.069H158.26L158.283 336.2H158.291C158.318 336.154 158.357 336.117 158.406 336.091C158.457 336.066 158.513 336.052 158.576 336.052C158.726 336.052 158.824 336.107 158.871 336.215H158.877C158.906 336.164 158.947 336.125 159.002 336.096C159.057 336.067 159.119 336.052 159.19 336.052C159.297 336.052 159.379 336.08 159.434 336.136C159.489 336.192 159.514 336.281 159.514 336.403V337.029H159.367V337.029Z" fill="white"/>
<path d="M160.221 337.047C160.078 337.047 159.965 337.004 159.883 336.917C159.801 336.831 159.76 336.711 159.76 336.558C159.76 336.404 159.799 336.281 159.875 336.19C159.951 336.099 160.053 336.053 160.182 336.053C160.303 336.053 160.399 336.093 160.469 336.172C160.539 336.25 160.574 336.355 160.574 336.484V336.576H159.91C159.914 336.688 159.941 336.774 159.996 336.832C160.051 336.891 160.127 336.92 160.225 336.92C160.329 336.92 160.432 336.899 160.534 336.856V336.985C160.481 337.007 160.432 337.023 160.388 337.033C160.34 337.042 160.285 337.047 160.221 337.047ZM160.18 336.175C160.104 336.175 160.041 336.199 159.996 336.25C159.949 336.3 159.922 336.369 159.914 336.458H160.418C160.418 336.366 160.397 336.296 160.356 336.247C160.314 336.199 160.256 336.175 160.18 336.175Z" fill="white"/>
<path d="M169.668 336.311H170.178V336.975C170.096 337.001 170.018 337.02 169.946 337.031C169.872 337.042 169.798 337.048 169.721 337.048C169.528 337.048 169.379 336.991 169.278 336.878C169.174 336.764 169.124 336.602 169.124 336.389C169.124 336.183 169.185 336.022 169.302 335.907C169.421 335.791 169.585 335.733 169.796 335.733C169.927 335.733 170.054 335.759 170.177 335.812L170.087 336.029C169.993 335.982 169.896 335.959 169.794 335.959C169.677 335.959 169.581 335.999 169.511 336.077C169.441 336.156 169.406 336.262 169.406 336.395C169.406 336.534 169.433 336.639 169.492 336.712C169.549 336.785 169.631 336.822 169.74 336.822C169.797 336.822 169.855 336.816 169.914 336.804V336.537H169.67V336.311H169.668Z" fill="white"/>
<path d="M170.906 337.047C170.748 337.047 170.625 337.003 170.535 336.916C170.447 336.829 170.402 336.706 170.402 336.547C170.402 336.383 170.443 336.257 170.525 336.167C170.607 336.077 170.722 336.033 170.867 336.033C171.006 336.033 171.113 336.072 171.191 336.15C171.269 336.229 171.306 336.338 171.306 336.477V336.606H170.673C170.677 336.682 170.698 336.742 170.741 336.784C170.782 336.827 170.843 336.848 170.919 336.848C170.978 336.848 171.034 336.841 171.087 336.829C171.14 336.816 171.194 336.797 171.251 336.77V336.976C171.204 336.999 171.153 337.017 171.101 337.028C171.049 337.041 170.984 337.047 170.906 337.047ZM170.869 336.223C170.812 336.223 170.767 336.241 170.736 336.277C170.703 336.313 170.685 336.364 170.679 336.429H171.056C171.054 336.364 171.036 336.313 171.003 336.277C170.97 336.241 170.926 336.223 170.869 336.223Z" fill="white"/>
<path d="M172.379 336.051V336.187L172.227 336.227C172.254 336.27 172.268 336.319 172.268 336.373C172.268 336.478 172.231 336.56 172.159 336.618C172.085 336.677 171.983 336.706 171.852 336.706L171.803 336.704L171.764 336.699C171.737 336.72 171.723 336.744 171.723 336.769C171.723 336.807 171.772 336.827 171.869 336.827H172.037C172.144 336.827 172.226 336.85 172.283 336.896C172.34 336.942 172.369 337.009 172.369 337.099C172.369 337.213 172.32 337.302 172.224 337.365C172.128 337.428 171.992 337.46 171.812 337.46C171.675 337.46 171.57 337.436 171.498 337.389C171.426 337.341 171.389 337.275 171.389 337.189C171.389 337.13 171.409 337.081 171.446 337.042C171.483 337.002 171.536 336.974 171.608 336.957C171.581 336.945 171.557 336.926 171.536 336.899C171.516 336.873 171.505 336.844 171.505 336.815C171.505 336.777 171.517 336.747 171.538 336.721C171.559 336.697 171.591 336.672 171.632 336.648C171.581 336.627 171.54 336.59 171.509 336.542C171.48 336.493 171.464 336.436 171.464 336.369C171.464 336.262 171.499 336.18 171.569 336.121C171.637 336.062 171.737 336.034 171.868 336.034C171.895 336.034 171.927 336.036 171.966 336.041C172.003 336.046 172.028 336.05 172.038 336.052H172.379V336.051ZM171.621 337.168C171.621 337.204 171.639 337.233 171.674 337.254C171.711 337.275 171.76 337.286 171.824 337.286C171.92 337.286 171.994 337.272 172.049 337.246C172.104 337.22 172.131 337.184 172.131 337.139C172.131 337.102 172.115 337.077 172.082 337.063C172.051 337.049 172 337.042 171.934 337.042H171.795C171.746 337.042 171.705 337.053 171.672 337.076C171.639 337.099 171.621 337.13 171.621 337.168ZM171.719 336.371C171.719 336.425 171.731 336.467 171.756 336.497C171.779 336.528 171.817 336.544 171.867 336.544C171.916 336.544 171.953 336.528 171.976 336.497C171.999 336.467 172.011 336.425 172.011 336.371C172.011 336.254 171.962 336.194 171.866 336.194C171.768 336.194 171.719 336.254 171.719 336.371Z" fill="white"/>
<path d="M172.986 337.047C172.828 337.047 172.705 337.003 172.615 336.916C172.525 336.829 172.482 336.706 172.482 336.547C172.482 336.383 172.523 336.257 172.605 336.167C172.687 336.077 172.8 336.033 172.947 336.033C173.086 336.033 173.193 336.072 173.271 336.15C173.347 336.229 173.386 336.338 173.386 336.477V336.606H172.753C172.755 336.682 172.778 336.742 172.819 336.784C172.862 336.827 172.921 336.848 172.997 336.848C173.056 336.848 173.112 336.841 173.165 336.829C173.218 336.816 173.272 336.797 173.331 336.77V336.976C173.284 336.999 173.233 337.017 173.181 337.028C173.127 337.041 173.062 337.047 172.986 337.047ZM172.947 336.223C172.89 336.223 172.847 336.241 172.814 336.277C172.783 336.313 172.763 336.364 172.759 336.429H173.134C173.134 336.364 173.116 336.313 173.083 336.277C173.05 336.241 173.006 336.223 172.947 336.223Z" fill="white"/>
<path d="M173.838 337.029L173.463 336.05H173.744L173.933 336.608C173.954 336.678 173.966 336.746 173.972 336.808H173.978C173.98 336.752 173.994 336.685 174.017 336.608L174.206 336.05H174.485L174.112 337.029H173.838Z" fill="white"/>
<path d="M175.072 337.047C174.914 337.047 174.791 337.003 174.701 336.916C174.611 336.829 174.568 336.706 174.568 336.547C174.568 336.383 174.609 336.257 174.691 336.167C174.773 336.077 174.886 336.033 175.033 336.033C175.172 336.033 175.279 336.072 175.357 336.15C175.433 336.229 175.472 336.338 175.472 336.477V336.606H174.839C174.841 336.682 174.864 336.742 174.905 336.784C174.948 336.827 175.007 336.848 175.083 336.848C175.142 336.848 175.198 336.841 175.251 336.829C175.304 336.816 175.358 336.797 175.417 336.77V336.976C175.37 336.999 175.319 337.017 175.267 337.028C175.213 337.041 175.148 337.047 175.072 337.047ZM175.033 336.223C174.976 336.223 174.933 336.241 174.9 336.277C174.869 336.313 174.849 336.364 174.845 336.429H175.22C175.22 336.364 175.202 336.313 175.169 336.277C175.136 336.241 175.092 336.223 175.033 336.223Z" fill="white"/>
<path d="M176.596 337.029H176.328V336.458C176.328 336.388 176.316 336.334 176.291 336.299C176.266 336.264 176.225 336.246 176.17 336.246C176.096 336.246 176.041 336.271 176.008 336.321C175.975 336.371 175.957 336.453 175.957 336.569V337.029H175.689V336.05H175.894L175.929 336.175H175.945C175.974 336.128 176.015 336.092 176.068 336.069C176.121 336.045 176.181 336.033 176.248 336.033C176.361 336.033 176.449 336.063 176.508 336.125C176.567 336.187 176.596 336.275 176.596 336.392V337.029V337.029Z" fill="white"/>
<path d="M177.559 336.739C177.559 336.839 177.524 336.916 177.454 336.968C177.384 337.021 177.278 337.047 177.14 337.047C177.068 337.047 177.007 337.042 176.956 337.032C176.907 337.022 176.86 337.009 176.815 336.99V336.769C176.866 336.792 176.92 336.812 176.983 336.828C177.046 336.844 177.1 336.851 177.149 336.851C177.245 336.851 177.294 336.823 177.294 336.767C177.294 336.746 177.288 336.729 177.274 336.716C177.262 336.702 177.239 336.688 177.208 336.671C177.177 336.654 177.134 336.635 177.081 336.612C177.007 336.581 176.95 336.551 176.915 336.525C176.88 336.498 176.854 336.467 176.839 336.432C176.821 336.398 176.814 336.355 176.814 336.304C176.814 336.217 176.847 336.15 176.916 336.103C176.984 336.055 177.08 336.032 177.203 336.032C177.322 336.032 177.437 336.057 177.549 336.108L177.469 336.3C177.42 336.279 177.373 336.262 177.33 336.249C177.287 336.235 177.244 336.228 177.199 336.228C177.121 336.228 177.08 336.249 177.08 336.291C177.08 336.315 177.094 336.336 177.119 336.353C177.144 336.37 177.201 336.397 177.287 336.431C177.363 336.461 177.42 336.491 177.455 336.517C177.49 336.544 177.517 336.576 177.535 336.61C177.549 336.648 177.559 336.69 177.559 336.739Z" fill="white"/>
<path d="M185.951 336.688C185.951 336.801 185.91 336.889 185.828 336.952C185.746 337.015 185.635 337.047 185.494 337.047C185.342 337.047 185.224 337.027 185.142 336.988V336.844C185.195 336.866 185.251 336.884 185.314 336.897C185.377 336.91 185.437 336.916 185.5 336.916C185.6 336.916 185.674 336.897 185.725 336.86C185.774 336.822 185.799 336.77 185.799 336.703C185.799 336.658 185.791 336.622 185.774 336.594C185.757 336.566 185.725 336.54 185.684 336.516C185.641 336.493 185.579 336.465 185.493 336.435C185.374 336.392 185.288 336.341 185.237 336.284C185.186 336.225 185.159 336.149 185.159 336.055C185.159 335.956 185.198 335.878 185.272 335.82C185.346 335.762 185.444 335.732 185.567 335.732C185.694 335.732 185.811 335.755 185.919 335.802L185.872 335.932C185.767 335.887 185.663 335.865 185.563 335.865C185.483 335.865 185.422 335.883 185.377 335.916C185.332 335.95 185.311 335.997 185.311 336.058C185.311 336.102 185.319 336.138 185.334 336.166C185.352 336.194 185.379 336.221 185.418 336.244C185.457 336.267 185.516 336.294 185.596 336.322C185.731 336.37 185.825 336.422 185.875 336.476C185.925 336.53 185.951 336.602 185.951 336.688Z" fill="white"/>
<path d="M186.576 337.047C186.437 337.047 186.328 337.004 186.252 336.919C186.176 336.833 186.137 336.712 186.137 336.556C186.137 336.396 186.176 336.272 186.254 336.185C186.332 336.097 186.442 336.053 186.586 336.053C186.633 336.053 186.678 336.058 186.725 336.068C186.772 336.079 186.807 336.089 186.834 336.103L186.789 336.227C186.756 336.213 186.721 336.203 186.684 336.195C186.645 336.186 186.612 336.182 186.582 336.182C186.387 336.182 186.289 336.306 186.289 336.555C186.289 336.672 186.312 336.763 186.359 336.826C186.408 336.889 186.478 336.921 186.572 336.921C186.652 336.921 186.734 336.903 186.82 336.869V336.998C186.756 337.03 186.674 337.047 186.576 337.047Z" fill="white"/>
<path d="M187.641 337.029L187.612 336.892H187.604C187.557 336.953 187.508 336.993 187.461 337.014C187.412 337.035 187.354 337.046 187.281 337.046C187.185 337.046 187.111 337.022 187.056 336.973C187.001 336.923 186.976 336.854 186.976 336.764C186.976 336.57 187.13 336.468 187.441 336.459L187.605 336.453V336.393C187.605 336.318 187.589 336.262 187.556 336.227C187.523 336.191 187.472 336.173 187.4 336.173C187.32 336.173 187.23 336.197 187.129 336.246L187.084 336.135C187.131 336.11 187.184 336.089 187.24 336.074C187.296 336.059 187.353 336.053 187.41 336.053C187.523 336.053 187.609 336.078 187.664 336.129C187.721 336.18 187.748 336.261 187.748 336.373V337.027H187.641V337.029ZM187.311 336.927C187.401 336.927 187.473 336.903 187.524 336.853C187.577 336.803 187.602 336.734 187.602 336.645V336.558L187.457 336.564C187.34 336.569 187.256 336.586 187.205 336.618C187.154 336.65 187.129 336.7 187.129 336.766C187.129 336.819 187.145 336.859 187.176 336.886C187.209 336.913 187.254 336.927 187.311 336.927Z" fill="white"/>
<path d="M188.707 337.029V336.409C188.707 336.331 188.689 336.272 188.654 336.234C188.619 336.195 188.562 336.175 188.486 336.175C188.384 336.175 188.312 336.202 188.265 336.257C188.218 336.311 188.195 336.401 188.195 336.526V337.029H188.049V336.07H188.168L188.191 336.201H188.197C188.228 336.154 188.269 336.118 188.324 336.092C188.377 336.066 188.437 336.053 188.504 336.053C188.619 336.053 188.707 336.081 188.766 336.137C188.825 336.193 188.854 336.282 188.854 336.404V337.03H188.707V337.029Z" fill="white"/>
<path d="M190.758 336.388C190.758 336.552 190.725 336.689 190.658 336.797C190.591 336.905 190.498 336.979 190.379 337.017L190.684 337.334H190.467L190.217 337.045L190.168 337.047C189.979 337.047 189.834 336.989 189.73 336.874C189.626 336.759 189.576 336.597 189.576 336.386C189.576 336.178 189.627 336.017 189.73 335.903C189.834 335.788 189.98 335.731 190.169 335.731C190.353 335.731 190.497 335.789 190.601 335.906C190.705 336.021 190.758 336.183 190.758 336.388ZM189.734 336.388C189.734 336.562 189.771 336.693 189.845 336.783C189.919 336.873 190.027 336.917 190.167 336.917C190.31 336.917 190.417 336.873 190.489 336.783C190.561 336.694 190.598 336.562 190.598 336.388C190.598 336.216 190.561 336.085 190.489 335.996C190.417 335.907 190.311 335.863 190.169 335.863C190.027 335.863 189.919 335.908 189.845 335.997C189.771 336.087 189.734 336.217 189.734 336.388Z" fill="white"/>
<path d="M191.193 336.497V337.029H191.045V335.75H191.397C191.555 335.75 191.67 335.78 191.747 335.84C191.821 335.901 191.86 335.991 191.86 336.111C191.86 336.28 191.774 336.394 191.6 336.454L191.95 337.029H191.774L191.462 336.497H191.193ZM191.193 336.369H191.398C191.503 336.369 191.58 336.348 191.63 336.307C191.679 336.266 191.702 336.203 191.702 336.119C191.702 336.035 191.679 335.973 191.628 335.936C191.577 335.899 191.497 335.88 191.388 335.88H191.193V336.369Z" fill="white"/>
<path d="M201.104 337.029L200.944 336.622H200.43L200.272 337.029H200.12L200.628 335.745H200.755L201.259 337.029H201.104ZM200.896 336.488L200.748 336.092C200.728 336.042 200.709 335.981 200.687 335.907C200.675 335.964 200.656 336.025 200.632 336.092L200.482 336.488H200.896Z" fill="white"/>
<path d="M201.797 337.047C201.658 337.047 201.551 337.004 201.475 336.919C201.399 336.833 201.36 336.712 201.36 336.556C201.36 336.396 201.399 336.272 201.477 336.185C201.553 336.097 201.665 336.053 201.807 336.053C201.854 336.053 201.901 336.058 201.946 336.068C201.993 336.079 202.03 336.089 202.055 336.103L202.01 336.227C201.979 336.213 201.944 336.203 201.905 336.195C201.868 336.186 201.835 336.182 201.805 336.182C201.608 336.182 201.51 336.306 201.51 336.555C201.51 336.672 201.535 336.763 201.582 336.826C201.629 336.889 201.701 336.921 201.795 336.921C201.875 336.921 201.957 336.903 202.041 336.869V336.998C201.977 337.03 201.895 337.047 201.797 337.047Z" fill="white"/>
<path d="M202.58 336.927C202.605 336.927 202.631 336.925 202.654 336.921C202.679 336.917 202.697 336.913 202.713 336.909V337.02C202.697 337.028 202.674 337.034 202.643 337.039C202.612 337.044 202.584 337.047 202.559 337.047C202.373 337.047 202.28 336.949 202.28 336.754V336.184H202.143V336.114L202.28 336.053L202.342 335.848H202.426V336.071H202.705V336.184H202.426V336.748C202.426 336.806 202.44 336.85 202.467 336.881C202.494 336.911 202.533 336.927 202.58 336.927Z" fill="white"/>
<path d="M202.893 335.811C202.893 335.778 202.901 335.753 202.916 335.738C202.934 335.722 202.953 335.715 202.978 335.715C203.001 335.715 203.021 335.723 203.039 335.739C203.055 335.755 203.064 335.779 203.064 335.811C203.064 335.843 203.054 335.868 203.039 335.884C203.021 335.9 203.002 335.907 202.978 335.907C202.953 335.907 202.933 335.899 202.916 335.884C202.9 335.867 202.893 335.843 202.893 335.811ZM203.051 337.029H202.905V336.07H203.051V337.029Z" fill="white"/>
<path d="M203.57 337.029L203.205 336.07H203.361L203.568 336.638C203.615 336.772 203.642 336.858 203.65 336.898H203.658C203.664 336.867 203.685 336.802 203.719 336.706C203.754 336.608 203.83 336.397 203.949 336.07H204.105L203.74 337.029H203.57V337.029Z" fill="white"/>
<path d="M204.248 335.811C204.248 335.778 204.256 335.753 204.273 335.738C204.289 335.722 204.31 335.715 204.334 335.715C204.358 335.715 204.379 335.723 204.395 335.739C204.413 335.755 204.42 335.779 204.42 335.811C204.42 335.843 204.412 335.868 204.395 335.884C204.379 335.9 204.358 335.907 204.334 335.907C204.31 335.907 204.289 335.899 204.273 335.884C204.256 335.867 204.248 335.843 204.248 335.811ZM204.406 337.029H204.26V336.07H204.406V337.029Z" fill="white"/>
<path d="M205.026 336.927C205.051 336.927 205.077 336.925 205.1 336.921C205.123 336.917 205.143 336.913 205.157 336.909V337.02C205.141 337.028 205.118 337.034 205.087 337.039C205.058 337.044 205.028 337.047 205.005 337.047C204.817 337.047 204.726 336.949 204.726 336.754V336.184H204.587V336.114L204.726 336.053L204.787 335.848H204.871V336.071H205.152V336.184H204.871V336.748C204.871 336.806 204.887 336.85 204.914 336.881C204.94 336.911 204.978 336.927 205.026 336.927Z" fill="white"/>
<path d="M205.758 337.047C205.615 337.047 205.502 337.004 205.42 336.917C205.338 336.831 205.297 336.711 205.297 336.558C205.297 336.404 205.336 336.281 205.412 336.19C205.488 336.099 205.59 336.053 205.719 336.053C205.84 336.053 205.936 336.093 206.006 336.172C206.076 336.25 206.111 336.355 206.111 336.484V336.576H205.447C205.451 336.688 205.478 336.774 205.533 336.832C205.588 336.891 205.664 336.92 205.762 336.92C205.866 336.92 205.969 336.899 206.071 336.856V336.985C206.018 337.007 205.969 337.023 205.925 337.033C205.877 337.042 205.822 337.047 205.758 337.047ZM205.717 336.175C205.641 336.175 205.578 336.199 205.533 336.25C205.486 336.3 205.459 336.369 205.451 336.458H205.955C205.955 336.366 205.934 336.296 205.893 336.247C205.852 336.199 205.793 336.175 205.717 336.175Z" fill="white"/>
<path d="M206.348 335.811C206.348 335.778 206.356 335.753 206.373 335.738C206.389 335.722 206.41 335.715 206.434 335.715C206.458 335.715 206.479 335.723 206.495 335.739C206.513 335.755 206.52 335.779 206.52 335.811C206.52 335.843 206.512 335.868 206.495 335.884C206.479 335.9 206.458 335.907 206.434 335.907C206.41 335.907 206.389 335.899 206.373 335.884C206.355 335.867 206.348 335.843 206.348 335.811ZM206.506 337.029H206.36V336.07H206.506V337.029Z" fill="white"/>
<path d="M207.126 336.927C207.151 336.927 207.178 336.925 207.201 336.921C207.224 336.917 207.243 336.913 207.257 336.909V337.02C207.241 337.028 207.218 337.034 207.188 337.039C207.159 337.044 207.128 337.047 207.105 337.047C206.917 337.047 206.826 336.949 206.826 336.754V336.184H206.688V336.114L206.826 336.053L206.887 335.848H206.971V336.071H207.253V336.184H206.971V336.748C206.971 336.806 206.987 336.85 207.014 336.881C207.04 336.911 207.077 336.927 207.126 336.927Z" fill="white"/>
<path d="M217.465 337.029L217.029 335.895H217.021C217.031 335.985 217.035 336.091 217.035 336.215V337.028H216.896V335.749H217.121L217.529 336.805H217.535L217.945 335.749H218.168V337.028H218.02V336.204C218.02 336.109 218.024 336.007 218.032 335.896H218.026L217.587 337.028H217.465V337.029Z" fill="white"/>
<path d="M218.906 337.047C218.763 337.047 218.65 337.004 218.568 336.917C218.486 336.831 218.445 336.711 218.445 336.558C218.445 336.404 218.484 336.281 218.56 336.19C218.636 336.099 218.738 336.053 218.867 336.053C218.988 336.053 219.084 336.093 219.154 336.172C219.224 336.25 219.259 336.355 219.259 336.484V336.576H218.595C218.599 336.688 218.626 336.774 218.681 336.832C218.736 336.891 218.812 336.92 218.91 336.92C219.014 336.92 219.117 336.899 219.219 336.856V336.985C219.166 337.007 219.117 337.023 219.073 337.033C219.025 337.042 218.971 337.047 218.906 337.047ZM218.865 336.175C218.789 336.175 218.726 336.199 218.681 336.25C218.634 336.3 218.607 336.369 218.599 336.458H219.103C219.103 336.366 219.082 336.296 219.041 336.247C219 336.199 218.941 336.175 218.865 336.175Z" fill="white"/>
<path d="M219.916 337.047C219.773 337.047 219.66 337.004 219.578 336.917C219.496 336.831 219.455 336.711 219.455 336.558C219.455 336.404 219.494 336.281 219.57 336.19C219.646 336.099 219.748 336.053 219.877 336.053C219.998 336.053 220.094 336.093 220.164 336.172C220.234 336.25 220.269 336.355 220.269 336.484V336.576H219.605C219.609 336.688 219.636 336.774 219.691 336.832C219.746 336.891 219.822 336.92 219.92 336.92C220.024 336.92 220.127 336.899 220.229 336.856V336.985C220.176 337.007 220.127 337.023 220.083 337.033C220.035 337.042 219.98 337.047 219.916 337.047ZM219.875 336.175C219.799 336.175 219.736 336.199 219.691 336.25C219.644 336.3 219.617 336.369 219.609 336.458H220.113C220.113 336.366 220.092 336.296 220.051 336.247C220.01 336.199 219.951 336.175 219.875 336.175Z" fill="white"/>
<path d="M220.957 336.053C221 336.053 221.039 336.057 221.072 336.064L221.052 336.199C221.011 336.19 220.976 336.185 220.947 336.185C220.869 336.185 220.802 336.217 220.748 336.28C220.691 336.343 220.664 336.422 220.664 336.515V337.03H220.518V336.071H220.639L220.657 336.249H220.663C220.698 336.187 220.743 336.139 220.792 336.104C220.842 336.069 220.896 336.053 220.957 336.053Z" fill="white"/>
<path d="M216.861 333.32C216.761 333.32 216.675 333.286 216.611 333.219C216.539 333.15 216.507 333.062 216.507 332.963C216.507 332.864 216.539 332.781 216.611 332.709C216.675 332.637 216.761 332.603 216.861 332.603C216.962 332.603 217.049 332.637 217.118 332.709C217.19 332.781 217.217 332.864 217.217 332.963C217.217 333.062 217.191 333.15 217.118 333.219C217.05 333.286 216.962 333.32 216.861 333.32ZM218.904 333.32C218.804 333.32 218.719 333.286 218.646 333.219C218.576 333.15 218.542 333.062 218.542 332.963C218.542 332.864 218.576 332.781 218.646 332.709C218.719 332.637 218.804 332.603 218.904 332.603C219.005 332.603 219.087 332.637 219.159 332.709C219.227 332.781 219.26 332.864 219.26 332.963C219.26 333.062 219.228 333.15 219.159 333.219C219.087 333.286 219.005 333.32 218.904 333.32ZM220.945 333.32C220.842 333.32 220.758 333.286 220.686 333.219C220.617 333.15 220.583 333.062 220.583 332.963C220.583 332.864 220.616 332.781 220.686 332.709C220.758 332.637 220.842 332.603 220.945 332.603C221.04 332.603 221.126 332.637 221.196 332.709C221.266 332.781 221.302 332.864 221.302 332.963C221.302 333.062 221.266 333.15 221.196 333.219C221.126 333.286 221.04 333.32 220.945 333.32Z" fill="white"/>
<path d="M219.269 202.988H156.91V265.095H219.269V202.988Z" fill="#EAE5E2"/>
<path d="M185.535 245.312L185.533 245.309L185.535 245.312Z" fill="#484747"/>
<path d="M179.139 230.983L179.143 230.987L179.139 230.983Z" fill="#484747"/>
<path d="M185.535 238.948L185.531 238.944V238.948H185.535Z" fill="#484747"/>
<path d="M190.327 227.801L190.329 227.805L190.327 227.801Z" fill="#484747"/>
<path d="M201.517 243.719H201.515V243.721H201.517V243.719Z" fill="#484747"/>
<path d="M191.925 235.764L191.929 235.758L191.925 235.764Z" fill="#484747"/>
<path d="M185.531 223.029C185.533 224.561 185.533 226.091 185.535 227.623C185.533 226.092 185.533 224.562 185.531 223.029Z" fill="#484747"/>
<path d="M175.943 230.987L175.947 230.983L175.943 230.987H175.947H175.943Z" fill="#484747"/>
<path d="M185.531 238.948C185.533 239.217 185.533 239.486 185.535 239.758C185.533 239.486 185.533 239.217 185.531 238.948Z" fill="#484747"/>
<path d="M204.705 245.309C203.641 245.309 202.582 245.309 201.514 245.309C201.514 244.77 201.514 244.247 201.514 243.723C200.987 243.723 200.455 243.723 199.928 243.723C199.928 242.65 199.928 241.598 199.928 240.53C200.461 240.53 200.987 240.53 201.514 240.53C201.514 239.465 201.514 238.41 201.514 237.355C200.985 237.355 200.455 237.355 199.916 237.355C199.916 236.282 199.916 235.228 199.916 234.171C199.391 234.171 198.865 234.171 198.328 234.171C198.328 233.64 198.328 233.118 198.328 232.576C198.857 232.576 199.387 232.576 199.916 232.576C199.916 232.049 199.916 231.521 199.916 230.979C199.374 230.979 198.848 230.979 198.315 230.979C198.315 230.444 198.315 229.924 198.315 229.389C195.649 229.389 192.991 229.389 190.327 229.389C190.327 228.853 190.327 228.327 190.327 227.804C189.798 227.804 189.266 227.804 188.724 227.804C188.724 226.731 188.724 225.676 188.724 224.625C188.187 224.625 187.666 224.625 187.13 224.625C187.13 225.684 187.13 226.738 187.13 227.792C186.591 227.792 186.066 227.792 185.534 227.792C185.534 227.728 185.534 227.675 185.534 227.622C185.532 226.091 185.532 224.56 185.53 223.028C185.003 223.028 184.473 223.028 183.93 223.028C183.93 227.28 183.93 231.516 183.93 235.764C182.326 235.764 182.325 235.764 180.733 235.764C180.733 236.299 180.733 236.819 180.733 237.353C182.331 237.353 182.333 237.353 183.938 237.353C183.938 237.888 183.938 238.412 183.938 238.947C184.478 238.947 185.004 238.947 185.53 238.947V238.943C185.532 238.943 185.534 238.943 185.534 238.943C185.534 238.418 185.534 237.894 185.534 237.353C186.067 237.353 186.593 237.353 187.124 237.353C187.124 236.819 187.124 236.299 187.124 235.766C186.601 235.766 186.076 235.766 185.541 235.766C185.541 234.699 185.541 233.644 185.541 232.582C186.601 232.582 187.655 232.582 188.724 232.582C188.724 232.047 188.724 231.523 188.724 230.992C190.328 230.992 191.918 230.992 193.52 230.992C193.52 232.047 193.52 233.097 193.52 234.159C194.586 234.159 195.645 234.159 196.719 234.159C196.719 234.702 196.719 235.229 196.719 235.756C196.721 235.756 196.721 235.756 196.721 235.756L196.723 235.76C197.248 235.76 197.774 235.76 198.309 235.76C198.309 236.287 198.309 238.411 198.309 238.943C197.785 238.943 197.261 238.943 196.723 238.943C196.723 238.416 196.723 236.288 196.723 235.76C196.723 235.76 196.721 235.76 196.719 235.76V235.758C195.188 235.756 193.658 235.758 192.128 235.76C192.062 235.76 191.994 235.76 191.928 235.76C191.928 236.815 191.928 237.869 191.928 238.933C191.395 238.933 190.867 238.933 190.328 238.933C190.328 238.41 190.328 237.888 190.328 237.357C189.793 237.357 189.269 237.357 188.734 237.357C188.734 237.88 188.734 238.404 188.734 238.943C187.659 238.943 186.596 238.943 185.534 238.943V238.947C185.534 238.947 185.532 238.947 185.53 238.947C185.532 239.216 185.532 239.485 185.534 239.757C185.534 240.017 185.534 240.275 185.534 240.532C186.059 240.532 186.587 240.532 187.122 240.532C187.122 241.065 187.122 241.587 187.122 242.129C186.593 242.129 186.065 242.129 185.534 242.129C185.534 242.137 185.534 242.147 185.534 242.155C185.534 243.206 185.534 244.257 185.534 245.307C186.596 245.307 187.659 245.307 188.736 245.307C188.736 244.768 188.736 244.245 188.736 243.725C191.402 243.725 194.056 243.725 196.711 243.725C196.711 244.256 196.711 244.78 196.711 245.317C195.647 245.317 194.586 245.317 193.531 245.317C193.531 245.849 193.531 246.369 193.531 246.904C194.062 246.904 194.59 246.904 195.125 246.904C195.125 247.442 195.125 247.966 195.125 248.491C196.187 248.491 197.25 248.491 198.325 248.491C198.325 249.036 198.325 249.559 198.325 250.079C198.862 250.079 199.382 250.079 199.921 250.079C199.921 249.017 199.921 247.965 199.921 246.896C201.526 246.896 203.116 246.896 204.704 246.896C204.705 246.363 204.705 245.844 204.705 245.309ZM196.712 232.572C196.181 232.572 195.659 232.572 195.13 232.572C195.13 232.047 195.13 231.527 195.13 230.996C195.651 230.996 196.177 230.996 196.712 230.996C196.712 231.514 196.712 232.037 196.712 232.572ZM191.917 242.122C191.386 242.122 190.864 242.122 190.335 242.122C190.335 241.596 190.335 241.077 190.335 240.547C190.858 240.547 191.384 240.547 191.917 240.547C191.917 241.066 191.917 241.588 191.917 242.122ZM198.31 242.119C197.254 242.119 196.198 242.119 195.126 242.119C195.126 241.592 195.126 241.064 195.126 240.539C195.124 240.539 195.122 240.539 195.122 240.539C195.122 240.537 195.122 240.537 195.122 240.533C194.597 240.533 194.068 240.533 193.534 240.533C193.534 240.006 193.534 239.486 193.534 238.954C194.057 238.954 194.581 238.954 195.122 238.954C195.122 239.482 195.122 240.008 195.122 240.533C195.122 240.533 195.124 240.533 195.126 240.533C195.126 240.537 195.126 240.537 195.126 240.539C196.183 240.539 197.241 240.539 198.31 240.539C198.31 241.064 198.31 241.588 198.31 242.119Z" fill="#484747"/>
<path d="M185.533 245.309L185.535 245.312V245.311L185.533 245.309Z" fill="#484747"/>
<path d="M191.925 235.764L191.929 235.762V235.758L191.925 235.764Z" fill="#484747"/>
<path d="M190.327 227.801V227.805H190.329L190.327 227.801Z" fill="#484747"/>
<path d="M201.514 237.352V237.354H201.518L201.514 237.352Z" fill="#484747"/>
<path d="M185.535 223.029L185.531 223.025V223.029H185.535Z" fill="#484747"/>
<path d="M201.514 243.72V243.721L201.518 243.723L201.514 243.72Z" fill="#484747"/>
<path d="M195.126 248.496V248.494L195.122 248.492L195.126 248.496Z" fill="#484747"/>
<path d="M182.328 216.671C178.596 216.671 174.876 216.671 171.157 216.671C171.157 220.386 171.157 224.088 171.157 227.797C174.883 227.797 178.601 227.797 182.328 227.797C182.328 224.08 182.328 220.375 182.328 216.671ZM180.732 226.2C178.08 226.2 175.423 226.2 172.757 226.2C172.757 223.56 172.757 220.913 172.757 218.258C175.417 218.258 178.071 218.258 180.732 218.258C180.732 220.905 180.732 223.547 180.732 226.2Z" fill="#484747"/>
<path d="M193.536 216.669C193.536 220.386 193.536 224.092 193.536 227.795C197.265 227.795 200.982 227.795 204.705 227.795C204.705 224.084 204.705 220.382 204.705 216.669C200.975 216.669 197.253 216.669 193.536 216.669ZM203.104 226.204C200.444 226.204 197.792 226.204 195.131 226.204C195.131 223.555 195.131 220.909 195.131 218.258C197.787 218.258 200.441 218.258 203.104 218.258C203.104 220.901 203.104 223.549 203.104 226.204Z" fill="#484747"/>
<path d="M171.157 250.076C174.888 250.076 178.609 250.076 182.326 250.076C182.326 246.363 182.326 242.655 182.326 238.952C178.597 238.952 174.881 238.952 171.157 238.952C171.157 242.661 171.157 246.365 171.157 250.076ZM172.754 240.545C175.412 240.545 178.065 240.545 180.729 240.545C180.729 243.185 180.729 245.832 180.729 248.487C178.077 248.487 175.422 248.487 172.754 248.487C172.754 245.836 172.754 243.192 172.754 240.545Z" fill="#484747"/>
<path d="M187.138 221.444C187.675 221.444 188.197 221.444 188.734 221.444C188.734 221.975 188.734 222.498 188.734 223.029C189.271 223.029 189.795 223.029 190.33 223.029C190.33 223.564 190.33 224.086 190.33 224.609C190.871 224.609 191.396 224.609 191.92 224.609C191.92 223.548 191.92 222.498 191.92 221.432C191.389 221.432 190.863 221.432 190.34 221.432C190.34 220.894 190.34 220.372 190.34 219.839C190.871 219.839 191.393 219.839 191.92 219.839C191.92 218.775 191.92 217.723 191.92 216.668C189.255 216.668 186.599 216.668 183.944 216.668C183.944 217.73 183.944 218.78 183.944 219.847C184.477 219.847 185.001 219.847 185.536 219.847C185.536 220.916 185.536 221.971 185.536 223.025C186.067 223.025 186.595 223.025 187.139 223.025C187.138 222.487 187.138 221.964 187.138 221.444ZM187.142 218.258C187.665 218.258 188.188 218.258 188.725 218.258C188.725 218.785 188.725 219.305 188.725 219.834C188.199 219.834 187.675 219.834 187.142 219.834C187.142 219.312 187.142 218.789 187.142 218.258Z" fill="#484747"/>
<path d="M185.535 223.025H185.531L185.535 223.029V223.025Z" fill="#484747"/>
<path d="M179.139 230.983V230.987H179.143L179.139 230.983Z" fill="#484747"/>
<path d="M175.947 230.987V230.983L175.943 230.987H175.947Z" fill="#484747"/>
<path d="M177.549 230.987C177.014 230.987 176.481 230.987 175.947 230.987C175.947 232.576 175.947 234.165 175.947 235.751C174.87 235.751 173.811 235.751 172.743 235.751C172.743 235.22 172.743 234.7 172.743 234.179C172.208 234.179 171.682 234.179 171.16 234.179C171.16 235.242 171.16 236.295 171.16 237.346C173.291 237.346 177.008 237.346 179.142 237.346C179.142 236.02 179.142 235.494 179.142 234.163C180.746 234.163 180.742 234.163 182.33 234.163C182.33 233.631 182.33 233.11 182.33 232.576C181.266 232.576 180.207 232.576 179.139 232.576C179.139 232.037 179.139 231.512 179.139 230.987C178.609 230.987 178.08 230.987 177.549 230.987Z" fill="#484747"/>
<path d="M183.947 250.08C185.544 250.08 187.131 250.08 188.722 250.08C188.722 249.549 188.722 249.027 188.722 248.488C188.187 248.488 187.663 248.488 187.128 248.488C187.128 247.956 187.128 247.436 187.128 246.901C186.593 246.901 186.067 246.901 185.532 246.901C185.532 246.361 185.532 245.838 185.532 245.312C185.003 245.312 184.473 245.312 183.946 245.312C183.947 246.913 183.947 248.498 183.947 250.08Z" fill="#484747"/>
<path d="M185.533 245.309V245.312H185.535L185.533 245.309Z" fill="#484747"/>
<path d="M204.705 234.159C204.705 232.568 204.705 230.987 204.705 229.401C203.641 229.401 202.584 229.401 201.527 229.401C201.527 229.932 201.527 230.456 201.527 230.985C202.054 230.985 202.574 230.985 203.111 230.985C203.111 232.047 203.111 233.103 203.111 234.159C203.656 234.159 204.182 234.159 204.705 234.159Z" fill="#484747"/>
<path d="M175.943 230.983V230.987L175.947 230.983H175.943Z" fill="#484747"/>
<path d="M171.16 229.405C171.16 230.467 171.16 231.521 171.16 232.57C171.693 232.57 172.216 232.57 172.753 232.57C172.753 232.039 172.753 231.517 172.753 230.983C173.826 230.983 174.885 230.983 175.943 230.983C175.943 230.456 175.943 229.928 175.943 229.405C174.337 229.405 172.747 229.405 171.16 229.405Z" fill="#484747"/>
<path d="M179.143 230.983H179.139L179.143 230.987V230.983Z" fill="#484747"/>
<path d="M182.328 229.405C181.262 229.405 180.205 229.405 179.142 229.405C179.142 229.936 179.142 230.46 179.142 230.983C180.204 230.983 181.265 230.983 182.328 230.983C182.328 230.448 182.328 229.925 182.328 229.405Z" fill="#484747"/>
<path d="M203.123 250.076C203.658 250.076 204.182 250.076 204.705 250.076C204.705 249.545 204.705 249.027 204.705 248.502C204.176 248.502 203.654 248.502 203.123 248.502C203.123 249.033 203.123 249.557 203.123 250.076Z" fill="#484747"/>
<path d="M193.534 250.076C194.067 250.076 194.593 250.076 195.122 250.076C195.122 249.545 195.122 249.019 195.122 248.496C194.593 248.496 194.063 248.496 193.534 248.496C193.534 249.033 193.534 249.557 193.534 250.076Z" fill="#484747"/>
<path d="M195.122 248.496H195.126L195.122 248.492V248.496Z" fill="#484747"/>
<path d="M190.339 248.483C190.874 248.483 191.398 248.483 191.919 248.483C191.919 247.954 191.919 247.434 191.919 246.909C191.39 246.909 190.868 246.909 190.339 246.909C190.339 247.443 190.339 247.966 190.339 248.483Z" fill="#484747"/>
<path d="M201.518 243.72H201.516L201.518 243.723V243.72Z" fill="#484747"/>
<path d="M203.104 242.138C202.571 242.138 202.047 242.138 201.518 242.138C201.518 242.673 201.518 243.197 201.518 243.72C202.045 243.72 202.575 243.72 203.104 243.72C203.104 243.181 203.104 242.657 203.104 242.138Z" fill="#484747"/>
<path d="M183.945 240.537C183.945 241.076 183.945 241.599 183.945 242.126C184.481 242.126 185.007 242.126 185.531 242.126C185.531 241.598 185.531 241.068 185.531 240.537C185.004 240.537 184.475 240.537 183.945 240.537Z" fill="#484747"/>
<path d="M203.125 242.126C203.656 242.126 204.178 242.126 204.705 242.126C204.705 241.599 204.705 239.484 204.705 238.954C204.17 238.954 203.646 238.954 203.125 238.954C203.125 239.486 203.125 241.604 203.125 242.126Z" fill="#484747"/>
<path d="M201.518 237.352H201.516L201.518 237.354V237.352Z" fill="#484747"/>
<path d="M204.705 235.771C204.172 235.771 202.047 235.771 201.517 235.771C201.517 236.304 201.517 236.828 201.517 237.351C202.044 237.351 204.175 237.351 204.705 237.351C204.705 236.814 204.705 236.293 204.705 235.771Z" fill="#484747"/>
<path d="M201.506 234.169C201.506 233.631 201.506 233.107 201.506 232.58C200.971 232.58 200.445 232.58 199.92 232.58C199.92 233.109 199.92 233.638 199.92 234.169C200.449 234.169 200.979 234.169 201.506 234.169Z" fill="#484747"/>
<path d="M191.919 226.22C191.384 226.22 190.858 226.22 190.329 226.22C190.329 226.754 190.329 227.278 190.329 227.801C190.858 227.801 191.388 227.801 191.919 227.801C191.919 227.265 191.919 226.742 191.919 226.22Z" fill="#484747"/>
<path d="M190.329 227.801H190.327L190.329 227.805V227.801Z" fill="#484747"/>
<path d="M185.535 238.944H185.531L185.535 238.948V238.944Z" fill="#484747"/>
<path d="M196.724 235.758H196.72V235.762L196.724 235.758Z" fill="#484747"/>
<path d="M191.925 235.764L191.929 235.762L191.925 235.764Z" fill="#484747"/>
<path d="M195.122 240.539H195.126V240.533L195.122 240.539Z" fill="#484747"/>
<path d="M185.535 240.533H185.531L185.535 240.537V240.533Z" fill="#484747"/>
<path d="M185.531 242.13H185.535V242.126L185.531 242.13Z" fill="#484747"/>
<path d="M185.531 242.126V242.13L185.535 242.126H185.531Z" fill="#484747"/>
<path d="M185.531 240.533V240.537H185.535L185.531 240.533Z" fill="#484747"/>
<path d="M195.122 240.533V240.539L195.126 240.533H195.122Z" fill="#484747"/>
<path d="M196.724 235.762V235.76L196.72 235.762H196.724Z" fill="#484747"/>
<path d="M199.92 232.576H199.916V232.58L199.92 232.576Z" fill="#484747"/>
<path d="M199.916 234.171H199.92L199.916 234.169V234.171Z" fill="#484747"/>
<path d="M199.92 232.58V232.576L199.916 232.58H199.92Z" fill="#484747"/>
<path d="M199.92 234.171V234.169H199.916L199.92 234.171Z" fill="#484747"/>
<path d="M191.925 235.758V235.764L191.929 235.758H191.925Z" fill="#484747"/>
<path d="M188.721 234.179C188.721 234.711 188.721 235.232 188.721 235.758C189.256 235.758 191.4 235.758 191.925 235.758C191.925 235.233 191.925 234.706 191.925 234.179C191.386 234.179 189.244 234.179 188.721 234.179Z" fill="#484747"/>
<path d="M179.135 219.854C177.533 219.854 175.944 219.854 174.358 219.854C174.358 221.448 174.358 223.029 174.358 224.611C175.956 224.611 177.544 224.611 179.135 224.611C179.135 223.023 179.135 221.444 179.135 219.854Z" fill="#484747"/>
<path d="M201.508 219.85C199.912 219.85 198.328 219.85 196.731 219.85C196.731 221.445 196.731 223.03 196.731 224.608C198.331 224.608 199.922 224.608 201.508 224.608C201.508 223.019 201.508 221.437 201.508 219.85Z" fill="#484747"/>
<path d="M174.354 246.897C175.948 246.897 177.536 246.897 179.131 246.897C179.131 245.302 179.131 243.719 179.131 242.137C177.532 242.137 175.94 242.137 174.354 242.137C174.354 243.73 174.354 245.312 174.354 246.897Z" fill="#484747"/>
<path d="M167.039 222.351H166.098V211.3H177.193V212.241H167.039V222.351Z" fill="#484747"/>
<path d="M211.142 222.351H210.2V212.241H200.046V211.3H211.142V222.351Z" fill="#484747"/>
<path d="M177.193 254.897H166.098V243.845H167.039V253.956H177.193V254.897Z" fill="#484747"/>
<path d="M211.142 254.897H200.046V253.956H210.2V243.845H211.142V254.897Z" fill="#484747"/>
<path d="M205.971 330.043C205.839 329.735 205.654 329.462 205.419 329.232C205.182 328.998 204.907 328.813 204.604 328.683C204.295 328.55 203.959 328.483 203.605 328.483C203.242 328.483 202.893 328.559 202.567 328.712C202.313 328.83 202.104 328.995 201.94 329.193C201.891 329.236 201.838 329.276 201.792 329.323L201.745 328.523L201.453 328.573L201.503 329.814L202.736 329.764L202.686 329.471L202.261 329.521H202.01C202.216 329.315 202.451 329.144 202.716 329.021C202.994 328.892 203.293 328.826 203.605 328.826C204.22 328.826 204.752 329.041 205.184 329.464C205.617 329.885 205.836 330.408 205.836 331.02C205.836 331.641 205.617 332.175 205.188 332.608C204.756 333.04 204.224 333.259 203.605 333.259C203.024 333.259 202.519 333.06 202.104 332.666C201.69 332.27 201.457 331.778 201.361 331.158L201.068 331.211C201.111 331.884 201.377 332.457 201.86 332.914C202.342 333.371 202.929 333.602 203.605 333.602C203.96 333.602 204.296 333.534 204.605 333.398C204.909 333.265 205.183 333.082 205.419 332.852C205.654 332.62 205.84 332.345 205.971 332.035C206.104 331.722 206.171 331.385 206.171 331.034C206.171 330.685 206.104 330.352 205.971 330.043Z" fill="white"/>
<path d="M204.705 332.262L204.878 332.018L203.804 330.988L203.754 329.417L203.467 329.467L203.481 331.125L204.67 332.297L204.705 332.262Z" fill="white"/>
</g>
<defs>
<clipPath id="clip0_4442_7354">
<rect width="375" height="406" fill="white"/>
</clipPath>
</defs>
</svg>
