<svg width="286" height="286" viewBox="0 0 286 286" fill="none" xmlns="http://www.w3.org/2000/svg">
<g clip-path="url(#clip0_5858_24240)">
<path d="M209.62 239.18C200.32 239.18 182.19 231.49 174.06 212.38L208.64 128.76L215.57 97.39C230.41 98.53 240.34 119.44 240.34 119.44L273 200.96C280.97 183.17 285.4 163.46 285.4 142.7C285.4 63.89 221.51 0 142.7 0C63.89 0 0 63.89 0 142.7C0 221.51 63.89 285.4 142.7 285.4C174.93 285.4 204.66 274.71 228.55 256.69L222.81 239.02L209.62 239.18Z" fill="#CCE1EC"/>
<path d="M273 200.95L240.34 119.43C240.34 119.43 230.41 98.5199 215.57 97.3799L208.64 128.75L174.06 212.37C182.19 231.48 200.32 239.17 209.62 239.17L222.81 239.01L228.55 256.68C247.69 242.24 263.09 223.09 273 200.95Z" fill="#EE9A80"/>
<path d="M221.14 81.25H54.66C49.14 81.25 44.66 85.73 44.66 91.25V204.41H221.14V81.25Z" fill="#A790B1"/>
<path d="M221.75 86.9299H56.77C53 86.9299 49.95 89.9799 49.95 93.7499V204.41H221.75V86.9299Z" fill="#CFC4D6"/>
<path d="M218.69 197.19H26.99V202.52C26.99 205.16 29.13 207.29 31.76 207.29H218.68V197.19H218.69Z" fill="#A790B1"/>
<path d="M136.96 112.13C136.96 112.13 126.04 160.11 127.14 169.44C127.14 169.44 125.49 179.6 140.87 188.38L154.32 136.6L136.96 112.13Z" fill="#EE9A80"/>
<path d="M221.51 222.86L153.64 226.83C146.62 227.24 140.6 221.89 140.19 214.87L130.9 61.7099C130.49 54.6899 135.84 48.6699 142.86 48.2599L210.73 44.2899C217.75 43.8799 223.77 49.2299 224.18 56.2499L233.47 209.41C233.88 216.43 228.53 222.45 221.51 222.86Z" fill="#484747"/>
<path d="M152.88 220.03C149.76 220.03 147.17 217.58 146.99 214.47L137.7 61.2901C137.61 59.7201 138.13 58.2101 139.18 57.0301C140.23 55.8501 141.68 55.1501 143.25 55.0601L211.12 51.0901C211.24 51.0901 211.36 51.0801 211.48 51.0801C214.6 51.0801 217.19 53.5301 217.37 56.6401L226.67 209.82C226.86 213.06 224.37 215.86 221.11 216.05L153.24 220.02C153.12 220.02 153 220.03 152.88 220.03Z" fill="white"/>
<path d="M194.04 191.56C200.74 191.56 206.16 186.13 206.16 179.44C206.16 172.75 200.73 167.32 194.04 167.32C187.35 167.32 181.92 172.75 181.92 179.44C181.92 186.13 187.35 191.56 194.04 191.56Z" fill="#EE9A80"/>
<path d="M205.69 159.15L241.73 191L254.31 159.18L221.78 138.48L205.7 159.14L205.69 159.15Z" fill="#EE9A80"/>
<path d="M181.92 159.51C198.29 159.51 211.56 146.24 211.56 129.87C211.56 113.5 198.29 100.23 181.92 100.23C165.55 100.23 152.28 113.5 152.28 129.87C152.28 146.24 165.55 159.51 181.92 159.51Z" fill="#80B276"/>
<path d="M225.1 155.36L204.43 185.7L183.66 173.18L202.65 141.7L225.1 155.36Z" fill="#EE9A80"/>
<path d="M213.84 161.73C221.1 161.73 226.98 155.85 226.98 148.59C226.98 141.33 221.1 135.45 213.84 135.45C206.58 135.45 200.7 141.33 200.7 148.59C200.7 155.85 206.58 161.73 213.84 161.73Z" fill="#EE9A80"/>
<path d="M168.5 130.38L178.77 142.53L193.36 117.2" stroke="white" stroke-width="6" stroke-linecap="round" stroke-linejoin="round"/>
</g>
<defs>
<clipPath id="clip0_5858_24240">
<rect width="285.4" height="285.4" fill="white"/>
</clipPath>
</defs>
</svg>
