<svg width="375" height="406" viewBox="0 0 375 406" fill="none" xmlns="http://www.w3.org/2000/svg">
<path d="M375 395.979H0V405.979H375V395.979Z" fill="#C1BEBE"/>
<path fill-rule="evenodd" clip-rule="evenodd" d="M74.4501 286.717C70.5311 286.434 67.6071 283.639 67.0481 279.753C66.8861 278.632 66.8341 277.49 66.8341 276.357C66.8241 228.808 66.8221 181.26 66.8281 133.712C66.8301 126.076 69.6901 123.217 77.2691 123.217C150.897 123.217 224.525 123.217 298.152 123.217C305.605 123.217 308.543 126.09 308.547 133.5C308.555 181.311 308.549 229.122 308.531 276.933C308.529 283.78 305.439 286.776 298.507 286.786C296.935 286.787 76.4391 286.862 74.4501 286.717ZM294.613 269.905C294.613 268.729 294.613 267.705 294.613 266.684C294.613 230.246 294.621 193.812 294.605 157.373C294.605 151.609 294.472 145.842 294.493 140.078C294.499 138.403 293.916 137.63 292.213 137.73C291.426 137.776 290.634 137.728 289.846 137.728C221.767 137.728 153.692 137.728 85.6121 137.728C84.9991 137.728 84.3791 137.782 83.7731 137.722C81.6631 137.504 80.8221 138.283 80.8621 140.523C80.9631 145.936 80.7721 151.353 80.7721 156.769C80.7581 193.554 80.7641 230.34 80.7721 267.125C80.7721 268.05 80.8641 268.972 80.9131 269.905C152.242 269.905 223.263 269.905 294.613 269.905ZM190.887 129.582C190.699 127.667 189.73 126.413 187.781 126.36C185.841 126.308 184.624 127.457 184.563 129.38C184.503 131.305 185.67 132.522 187.594 132.59C189.539 132.656 190.571 131.436 190.887 129.582Z" fill="#C1BEBE"/>
<path fill-rule="evenodd" clip-rule="evenodd" d="M336.402 291.031C336.402 294.41 336.665 297.389 336.334 300.301C335.928 303.865 331.905 306.873 327.743 307.165C326.869 307.227 325.987 307.188 325.111 307.188C233.346 307.188 141.585 307.199 49.82 307.127C47.459 307.125 44.938 306.554 42.777 305.602C39.963 304.364 38.434 301.908 38.545 298.648L38.499 291.091C38.958 290.821 119.686 291.033 158.375 291.019C160.24 291.017 161.715 291.017 162.878 293.121C163.524 294.289 165.817 295.112 167.381 295.131C180.8 295.284 194.223 295.23 207.647 295.214C209.891 295.211 211.645 294.406 212.881 292.332C213.303 291.62 214.636 291.096 215.556 291.088C224.857 290.999 234.155 291.031 243.453 291.031C273.193 291.031 302.933 291.031 332.674 291.031C333.805 291.031 334.935 291.031 336.402 291.031Z" fill="#C1BEBE"/>
<path fill-rule="evenodd" clip-rule="evenodd" d="M294.613 269.905C223.262 269.905 152.242 269.905 80.9121 269.905C80.8631 268.971 80.7711 268.05 80.7711 267.125C80.7631 230.34 80.7571 193.554 80.7711 156.769C80.7711 151.353 80.9611 145.936 80.8611 140.523C80.8211 138.283 81.6621 137.504 83.7721 137.722C84.3771 137.783 84.9981 137.728 85.6111 137.728C153.691 137.728 221.766 137.728 289.845 137.728C290.633 137.728 291.425 137.776 292.212 137.73C293.915 137.63 294.498 138.403 294.492 140.078C294.471 145.842 294.604 151.609 294.604 157.373C294.62 193.811 294.612 230.246 294.612 266.684C294.613 267.705 294.613 268.729 294.613 269.905Z" fill="white"/>
<path fill-rule="evenodd" clip-rule="evenodd" d="M190.887 129.582C190.572 131.436 189.539 132.657 187.594 132.59C185.67 132.522 184.503 131.304 184.563 129.38C184.624 127.457 185.84 126.308 187.781 126.36C189.729 126.413 190.699 127.667 190.887 129.582Z" fill="white"/>
<path d="M188.049 197.597C184.42 197.597 180.996 196.901 177.78 195.508C174.568 194.116 171.759 192.222 169.357 189.828C166.952 187.432 165.049 184.648 163.65 181.471C162.253 178.295 161.554 174.873 161.554 171.208C161.554 167.544 162.252 164.111 163.65 160.908C165.049 157.709 166.952 154.923 169.357 152.553C171.759 150.182 174.556 148.3 177.744 146.908C180.932 145.514 184.37 144.818 188.049 144.818C191.729 144.818 195.177 145.514 198.389 146.908C201.604 148.299 204.401 150.181 206.781 152.553C209.159 154.923 211.05 157.709 212.449 160.908C213.846 164.111 214.546 167.544 214.546 171.208C214.546 174.826 213.847 178.233 212.449 181.434C211.05 184.635 209.159 187.433 206.781 189.829C204.401 192.223 201.604 194.117 198.389 195.509C195.177 196.901 191.729 197.597 188.049 197.597ZM188.049 195.325C194.77 195.325 200.486 192.979 205.195 188.288C209.906 183.597 212.263 177.903 212.263 171.208C212.263 164.514 209.906 158.82 205.195 154.129C200.485 149.437 194.769 147.091 188.049 147.091C181.327 147.091 175.611 149.437 170.9 154.129C166.191 158.82 163.836 164.514 163.836 171.208C163.836 177.903 166.191 183.597 170.9 188.288C175.611 192.979 181.327 195.325 188.049 195.325Z" fill="#C1BEBE"/>
<path d="M184.803 180.095L175.756 171.083L177.492 169.354L184.803 176.634L200.313 161.186L202.049 162.917L184.803 180.095Z" fill="#C1BEBE"/>
<path d="M246.974 224.99C246.974 224.99 249.418 234.711 247.995 242.007C247.995 242.007 256.129 256.588 256.738 258.411C257.349 260.233 266.094 287.178 266.708 288.39C267.313 289.606 270.976 297.103 271.178 310.269C271.386 323.432 271.178 337.006 271.178 337.006C271.178 337.006 273.415 347.336 275.651 352.402C277.892 357.467 285.007 374.885 286.635 376.71C287.13 377.268 295.161 393.967 301.349 405.979H221.587C220.722 402.387 219.22 388.93 213.224 385.926C200.944 379.772 198.37 373.67 195.929 370.839C193.486 367.998 180.476 353.411 177.421 351.795C174.371 350.172 145.899 331.741 145.084 331.128C144.272 330.525 138.374 328.496 138.374 328.496C138.374 328.496 134.107 324.855 134.917 320.801C134.917 320.801 132.275 314.928 138.781 313.913C138.781 313.913 143.46 312.289 145.084 312.498C146.71 312.699 164.817 310.674 164.817 310.674L164.611 303.261H145.695C145.695 303.261 144.68 306.619 139.388 305.812C134.107 305.002 134.512 302.166 135.324 300.95C135.324 300.95 131.391 299.979 134.387 289.808C135.464 286.14 139.592 284.541 139.592 284.541C139.592 284.541 133.781 284.136 133.533 280.085C133.285 276.04 133.533 279.072 133.533 279.072C133.533 279.072 129.832 276.439 134.512 270.362C134.512 270.362 137.968 261.045 144.881 261.856L154.033 262.057L145.694 259.629C145.694 259.629 134.86 256.997 132.141 254.97C129.427 252.943 127.796 248.08 128.815 245.046C129.832 242.006 137.967 240.182 137.967 240.182C137.967 240.182 145.493 239.369 147.321 240.182C149.149 240.992 231.367 275.627 231.367 275.627C231.367 275.627 237.418 278.063 238.027 279.071C238.027 279.071 235.988 269.547 236.196 268.133C236.401 266.718 235.788 265.5 235.788 264.689C235.788 263.878 231.367 259.019 231.367 259.019V234.506C231.367 234.506 235.585 224.989 241.279 224.989C246.972 224.989 245.956 226.002 245.956 226.002L246.974 224.99Z" fill="#F7B1A1"/>
<path d="M231.312 275.833L237.476 278.725V283.798C237.476 283.798 239.605 290.14 239.605 291.835C239.605 293.523 234.914 301.556 231.312 306.635V275.833V275.833Z" fill="#BA8A80"/>
<path d="M229.54 346.982C229.54 346.982 227.693 348.829 225.217 348.829C222.755 348.829 189.736 348.829 189.736 348.829C189.736 348.829 205.165 358.357 215.657 356.51C226.144 354.667 229.54 346.982 229.54 346.982Z" fill="#C6978F"/>
<path d="M225.217 348.829H149.82C146.468 348.829 143.728 346.099 143.728 342.761V180.027C143.728 176.687 146.468 173.96 149.82 173.96H225.216C228.569 173.96 231.312 176.687 231.312 180.027V342.76C231.312 346.099 228.569 348.829 225.217 348.829Z" fill="#1D1D1B"/>
<path d="M225.175 180.695H149.828V342.841H225.175V180.695Z" fill="white"/>
<path d="M209.291 185.311H208.724V186.151H209.291V185.311Z" fill="#1A1A1A"/>
<path d="M210.211 184.868H209.649V186.151H210.211V184.868Z" fill="#1A1A1A"/>
<path d="M211.136 184.438H210.568V186.15H211.136V184.438Z" fill="#1A1A1A"/>
<path d="M212.053 184.081H211.486V186.151H212.053V184.081Z" fill="#1A1A1A"/>
<path d="M214.731 184.363C215.216 184.363 215.66 184.527 216.025 184.794L216.293 184.509C215.858 184.18 215.321 183.975 214.731 183.975C214.152 183.975 213.621 184.174 213.192 184.496L213.455 184.782C213.817 184.52 214.255 184.363 214.731 184.363Z" fill="#1A1A1A"/>
<path d="M214.731 185.163C215.003 185.163 215.239 185.258 215.455 185.391L215.736 185.099C215.445 184.899 215.111 184.754 214.731 184.754C214.357 184.754 214.03 184.895 213.745 185.091L214.019 185.387C214.23 185.257 214.465 185.163 214.731 185.163Z" fill="#1A1A1A"/>
<path d="M215.154 185.708C215.024 185.644 214.884 185.6 214.731 185.6C214.582 185.6 214.445 185.643 214.316 185.706L214.731 186.151L215.154 185.708Z" fill="#1A1A1A"/>
<path d="M220.897 184.488H217.892V185.62H220.897V184.488Z" fill="#1A1A1A"/>
<path d="M221.35 186.142H217.477V183.964H221.35V186.142ZM217.652 185.967H221.173V184.138H217.652V185.967Z" fill="#1A1A1A"/>
<path d="M221.725 184.667H221.464V185.442H221.725V184.667Z" fill="#1A1A1A"/>
<path d="M155.073 184.837C155.073 185.257 154.988 185.571 154.818 185.778C154.648 185.985 154.392 186.089 154.05 186.089C153.92 186.089 153.827 186.081 153.771 186.066V185.779C153.858 185.803 153.945 185.815 154.033 185.815C154.265 185.815 154.438 185.753 154.553 185.628C154.668 185.503 154.73 185.308 154.741 185.042H154.723C154.665 185.13 154.596 185.193 154.515 185.232C154.433 185.271 154.338 185.29 154.229 185.29C154.04 185.29 153.89 185.231 153.782 185.114C153.674 184.997 153.62 184.835 153.62 184.63C153.62 184.407 153.682 184.231 153.808 184.099C153.933 183.967 154.104 183.901 154.321 183.901C154.473 183.901 154.606 183.938 154.719 184.012C154.832 184.086 154.919 184.193 154.981 184.334C155.042 184.473 155.073 184.641 155.073 184.837ZM154.326 184.184C154.207 184.184 154.116 184.223 154.053 184.3C153.99 184.377 153.957 184.486 153.957 184.626C153.957 184.748 153.986 184.843 154.046 184.913C154.105 184.983 154.194 185.017 154.315 185.017C154.431 185.017 154.529 184.982 154.608 184.913C154.687 184.844 154.726 184.763 154.726 184.671C154.726 184.585 154.709 184.504 154.676 184.428C154.642 184.352 154.595 184.293 154.534 184.249C154.474 184.206 154.404 184.184 154.326 184.184Z" fill="black"/>
<path d="M155.399 184.632C155.399 184.486 155.471 184.412 155.616 184.412C155.689 184.412 155.744 184.432 155.78 184.471C155.816 184.51 155.835 184.564 155.835 184.633C155.835 184.702 155.815 184.757 155.778 184.797C155.74 184.838 155.686 184.858 155.616 184.858C155.546 184.858 155.492 184.838 155.455 184.798C155.418 184.757 155.399 184.702 155.399 184.632ZM155.399 185.877C155.399 185.806 155.418 185.752 155.455 185.713C155.492 185.675 155.546 185.656 155.616 185.656C155.687 185.656 155.742 185.676 155.779 185.715C155.816 185.754 155.835 185.808 155.835 185.876C155.835 185.945 155.815 186 155.778 186.04C155.74 186.08 155.686 186.101 155.616 186.101C155.546 186.101 155.492 186.081 155.455 186.041C155.418 186.002 155.399 185.947 155.399 185.877Z" fill="black"/>
<path d="M157.688 185.594H157.399V186.059H157.064V185.594H156.085V185.33L157.064 183.921H157.399V185.309H157.688V185.594ZM157.064 185.31V184.775C157.064 184.585 157.069 184.428 157.079 184.307H157.067C157.04 184.371 156.997 184.449 156.938 184.54L156.407 185.31H157.064V185.31Z" fill="black"/>
<path d="M158.883 186.06H158.539V184.684C158.539 184.519 158.543 184.39 158.551 184.293C158.529 184.316 158.501 184.342 158.468 184.371C158.436 184.399 158.326 184.489 158.14 184.639L157.967 184.422L158.597 183.929H158.883V186.06Z" fill="black"/>
<path d="M225.179 322.968H149.858V342.841H225.179V322.968Z" fill="white"/>
<path d="M187.441 333.326C190.973 333.326 193.837 330.474 193.837 326.956C193.837 323.438 190.973 320.586 187.441 320.586C183.909 320.586 181.045 323.438 181.045 326.956C181.045 330.474 183.909 333.326 187.441 333.326Z" fill="#363E6A"/>
<path d="M183.909 324.855V323.372H185.39V323.68H184.217V324.856H183.909V324.855ZM183.909 330.54V329.058H184.218V330.23H185.391V330.541H183.909V330.54ZM189.617 330.54V330.229H190.792V329.057H191.103V330.539H189.617V330.54ZM190.792 324.855V323.679H189.617V323.371H191.102V324.854H190.792V324.855ZM189.515 328.969H190.014V329.463H189.515V328.969ZM189.515 327.969H190.014V328.466H189.515V327.969ZM189.027 328.466H189.514V328.969H189.027V328.466ZM188.521 328.969H189.028V329.463H188.521V328.969ZM188.025 328.466H188.52V328.969H188.025V328.466ZM189.027 327.472H189.514V327.969H189.027V327.472ZM188.521 327.969H189.028V328.466H188.521V327.969ZM188.025 327.472H188.52V327.969H188.025V327.472ZM190.014 324.445V326.436H188.026V324.445H190.014ZM186.988 327.472V329.463H184.988V327.472H186.988ZM186.988 324.445V326.436H184.988V324.445H186.988ZM186.674 329.158V327.783H185.295V329.158H186.674ZM186.674 326.13V324.753H185.295V326.13H186.674ZM189.701 326.13V324.753H188.334V326.13H189.701Z" fill="white"/>
<path d="M155.226 333.318V329.956L157.49 328.278L159.725 329.956V333.318H158.08V331.284H156.863V333.318H155.226ZM155.562 332.979H156.521V330.942H158.425V332.979H159.385V330.126L157.489 328.702L155.562 330.126V332.979V332.979Z" fill="white"/>
<path d="M170.795 333.318V332.759C170.795 332.614 170.825 332.489 170.894 332.379C170.963 332.269 171.065 332.182 171.206 332.119C171.491 331.992 171.756 331.897 171.998 331.843C172.239 331.787 172.481 331.761 172.72 331.761C172.832 331.761 172.961 331.765 173.091 331.782C173.221 331.794 173.352 331.818 173.49 331.858L173.193 332.148C173.115 332.14 173.037 332.135 172.957 332.131C172.881 332.123 172.801 332.119 172.72 332.119C172.49 332.119 172.276 332.14 172.084 332.183C171.891 332.221 171.651 332.31 171.351 332.443C171.277 332.471 171.231 332.519 171.201 332.58C171.173 332.641 171.157 332.699 171.157 332.759V332.959H173.074L173.436 333.317H170.795V333.318ZM174.073 333.415L173.223 332.569L173.475 332.319L174.073 332.911L175.352 331.631L175.607 331.887L174.073 333.415ZM172.72 331.387C172.453 331.387 172.24 331.307 172.067 331.14C171.899 330.971 171.819 330.753 171.819 330.492C171.819 330.228 171.899 330.014 172.067 329.842C172.24 329.675 172.454 329.593 172.72 329.593C172.986 329.593 173.198 329.675 173.369 329.842C173.536 330.015 173.622 330.229 173.622 330.492C173.622 330.754 173.536 330.971 173.369 331.14C173.197 331.307 172.986 331.387 172.72 331.387ZM172.72 331.029C172.873 331.029 173.007 330.984 173.11 330.878C173.21 330.775 173.262 330.647 173.262 330.491C173.262 330.334 173.209 330.205 173.11 330.104C173.007 330.001 172.874 329.951 172.72 329.951C172.562 329.951 172.43 330.002 172.331 330.104C172.228 330.205 172.181 330.333 172.181 330.491C172.181 330.646 172.229 330.775 172.331 330.878C172.43 330.984 172.562 331.029 172.72 331.029Z" fill="white"/>
<path d="M155.919 337.028H155.77V336.426H155.094V337.028H154.945V335.749H155.094V336.293H155.77V335.749H155.919V337.028Z" fill="white"/>
<path d="M157.08 336.548C157.08 336.704 157.041 336.826 156.962 336.914C156.883 337.002 156.774 337.046 156.634 337.046C156.548 337.046 156.472 337.025 156.405 336.985C156.338 336.945 156.286 336.887 156.25 336.812C156.214 336.737 156.195 336.648 156.195 336.547C156.195 336.391 156.235 336.269 156.313 336.182C156.391 336.095 156.501 336.051 156.64 336.051C156.775 336.051 156.881 336.096 156.96 336.185C157.041 336.275 157.08 336.396 157.08 336.548ZM156.347 336.548C156.347 336.671 156.371 336.764 156.421 336.828C156.47 336.892 156.542 336.924 156.638 336.924C156.734 336.924 156.806 336.893 156.856 336.828C156.905 336.765 156.93 336.671 156.93 336.548C156.93 336.426 156.905 336.333 156.856 336.271C156.806 336.208 156.733 336.175 156.636 336.175C156.54 336.175 156.469 336.206 156.42 336.269C156.371 336.332 156.347 336.425 156.347 336.548Z" fill="white"/>
<path d="M158.563 337.028V336.404C158.563 336.328 158.546 336.27 158.514 336.232C158.481 336.194 158.43 336.174 158.361 336.174C158.27 336.174 158.203 336.2 158.16 336.252C158.117 336.304 158.096 336.384 158.096 336.492V337.027H157.95V336.403C157.95 336.327 157.933 336.269 157.901 336.231C157.868 336.193 157.817 336.173 157.747 336.173C157.656 336.173 157.589 336.2 157.547 336.255C157.504 336.31 157.484 336.4 157.484 336.524V337.027H157.338V336.068H157.457L157.48 336.199H157.487C157.514 336.153 157.553 336.116 157.603 336.09C157.654 336.065 157.709 336.051 157.772 336.051C157.922 336.051 158.021 336.106 158.067 336.214H158.074C158.102 336.163 158.144 336.124 158.199 336.095C158.254 336.066 158.315 336.051 158.386 336.051C158.494 336.051 158.576 336.079 158.63 336.135C158.685 336.191 158.711 336.28 158.711 336.402V337.028H158.563V337.028Z" fill="white"/>
<path d="M159.417 337.046C159.274 337.046 159.162 337.003 159.08 336.916C158.998 336.83 158.956 336.71 158.956 336.557C158.956 336.403 158.995 336.28 159.071 336.189C159.147 336.098 159.25 336.052 159.379 336.052C159.5 336.052 159.595 336.092 159.665 336.171C159.735 336.249 159.77 336.354 159.77 336.483V336.575H159.107C159.11 336.687 159.138 336.773 159.193 336.831C159.247 336.89 159.323 336.919 159.422 336.919C159.526 336.919 159.628 336.898 159.73 336.855V336.984C159.678 337.006 159.629 337.022 159.584 337.032C159.539 337.042 159.481 337.046 159.417 337.046ZM159.377 336.174C159.3 336.174 159.238 336.198 159.192 336.249C159.146 336.299 159.119 336.368 159.111 336.457H159.614C159.614 336.365 159.593 336.295 159.552 336.246C159.512 336.198 159.453 336.174 159.377 336.174Z" fill="white"/>
<path d="M168.863 336.31H169.372V336.974C169.29 337 169.212 337.019 169.14 337.03C169.067 337.041 168.993 337.047 168.916 337.047C168.722 337.047 168.574 336.99 168.472 336.877C168.369 336.763 168.319 336.601 168.319 336.388C168.319 336.182 168.379 336.021 168.497 335.906C168.616 335.79 168.78 335.732 168.99 335.732C169.122 335.732 169.249 335.758 169.372 335.811L169.281 336.028C169.187 335.981 169.09 335.958 168.988 335.958C168.871 335.958 168.776 335.998 168.706 336.076C168.635 336.155 168.6 336.261 168.6 336.394C168.6 336.533 168.628 336.638 168.686 336.711C168.743 336.784 168.826 336.821 168.935 336.821C168.992 336.821 169.049 336.815 169.108 336.803V336.536H168.865V336.31H168.863Z" fill="white"/>
<path d="M170.102 337.046C169.944 337.046 169.821 337.002 169.731 336.915C169.642 336.828 169.598 336.705 169.598 336.546C169.598 336.382 169.639 336.256 169.721 336.166C169.803 336.076 169.917 336.032 170.063 336.032C170.202 336.032 170.309 336.071 170.387 336.149C170.464 336.228 170.502 336.337 170.502 336.476V336.605H169.869C169.872 336.681 169.894 336.741 169.936 336.783C169.978 336.826 170.038 336.847 170.114 336.847C170.173 336.847 170.229 336.84 170.281 336.828C170.334 336.815 170.389 336.796 170.447 336.769V336.975C170.4 336.998 170.349 337.016 170.297 337.027C170.243 337.04 170.179 337.046 170.102 337.046ZM170.063 336.222C170.006 336.222 169.962 336.24 169.93 336.276C169.898 336.312 169.879 336.363 169.874 336.428H170.25C170.249 336.363 170.231 336.312 170.198 336.276C170.165 336.24 170.121 336.222 170.063 336.222Z" fill="white"/>
<path d="M171.574 336.05V336.186L171.421 336.226C171.449 336.269 171.463 336.318 171.463 336.372C171.463 336.477 171.426 336.559 171.353 336.617C171.28 336.675 171.177 336.705 171.047 336.705L170.998 336.703L170.959 336.698C170.931 336.719 170.917 336.743 170.917 336.768C170.917 336.806 170.967 336.826 171.064 336.826H171.231C171.339 336.826 171.421 336.849 171.478 336.895C171.535 336.941 171.562 337.008 171.562 337.098C171.562 337.212 171.514 337.301 171.418 337.364C171.322 337.427 171.186 337.459 171.006 337.459C170.869 337.459 170.765 337.435 170.692 337.388C170.62 337.34 170.584 337.274 170.584 337.188C170.584 337.129 170.603 337.08 170.64 337.041C170.677 337.001 170.731 336.973 170.802 336.956C170.775 336.944 170.751 336.925 170.731 336.898C170.711 336.871 170.7 336.843 170.7 336.814C170.7 336.776 170.711 336.746 170.733 336.72C170.754 336.696 170.786 336.671 170.827 336.647C170.775 336.626 170.734 336.589 170.704 336.541C170.674 336.493 170.659 336.435 170.659 336.368C170.659 336.261 170.694 336.179 170.763 336.12C170.832 336.061 170.932 336.033 171.062 336.033C171.089 336.033 171.122 336.035 171.16 336.04C171.198 336.045 171.222 336.049 171.232 336.051H171.574V336.05ZM170.816 337.167C170.816 337.203 170.834 337.232 170.869 337.253C170.905 337.274 170.954 337.285 171.018 337.285C171.114 337.285 171.189 337.271 171.244 337.245C171.299 337.219 171.326 337.183 171.326 337.138C171.326 337.101 171.309 337.076 171.277 337.062C171.245 337.048 171.195 337.041 171.128 337.041H170.989C170.94 337.041 170.899 337.052 170.866 337.075C170.833 337.098 170.816 337.129 170.816 337.167ZM170.914 336.37C170.914 336.424 170.926 336.466 170.95 336.496C170.974 336.527 171.012 336.543 171.061 336.543C171.11 336.543 171.148 336.527 171.171 336.496C171.194 336.466 171.206 336.424 171.206 336.37C171.206 336.253 171.157 336.193 171.06 336.193C170.963 336.193 170.914 336.253 170.914 336.37Z" fill="white"/>
<path d="M172.181 337.046C172.023 337.046 171.9 337.002 171.81 336.915C171.721 336.828 171.677 336.705 171.677 336.546C171.677 336.382 171.718 336.256 171.8 336.166C171.882 336.076 171.996 336.032 172.142 336.032C172.281 336.032 172.388 336.071 172.466 336.149C172.543 336.228 172.581 336.337 172.581 336.476V336.605H171.948C171.951 336.681 171.973 336.741 172.015 336.783C172.057 336.826 172.117 336.847 172.193 336.847C172.252 336.847 172.308 336.84 172.36 336.828C172.413 336.815 172.468 336.796 172.526 336.769V336.975C172.479 336.998 172.428 337.016 172.376 337.027C172.322 337.04 172.258 337.046 172.181 337.046ZM172.143 336.222C172.086 336.222 172.042 336.24 172.01 336.276C171.978 336.312 171.959 336.363 171.954 336.428H172.33C172.329 336.363 172.311 336.312 172.278 336.276C172.245 336.24 172.2 336.222 172.143 336.222Z" fill="white"/>
<path d="M173.032 337.028L172.658 336.049H172.938L173.127 336.607C173.148 336.677 173.161 336.745 173.167 336.807H173.172C173.175 336.751 173.189 336.684 173.212 336.607L173.4 336.049H173.68L173.306 337.028H173.032Z" fill="white"/>
<path d="M174.267 337.046C174.109 337.046 173.986 337.002 173.896 336.915C173.807 336.828 173.763 336.705 173.763 336.546C173.763 336.382 173.804 336.256 173.886 336.166C173.968 336.076 174.082 336.032 174.228 336.032C174.367 336.032 174.474 336.071 174.552 336.149C174.629 336.228 174.667 336.337 174.667 336.476V336.605H174.034C174.037 336.681 174.059 336.741 174.101 336.783C174.143 336.826 174.203 336.847 174.279 336.847C174.338 336.847 174.394 336.84 174.446 336.828C174.499 336.815 174.554 336.796 174.612 336.769V336.975C174.565 336.998 174.514 337.016 174.462 337.027C174.408 337.04 174.344 337.046 174.267 337.046ZM174.229 336.222C174.172 336.222 174.128 336.24 174.096 336.276C174.064 336.312 174.045 336.363 174.04 336.428H174.416C174.415 336.363 174.397 336.312 174.364 336.276C174.331 336.24 174.286 336.222 174.229 336.222Z" fill="white"/>
<path d="M175.791 337.028H175.523V336.457C175.523 336.387 175.51 336.333 175.485 336.298C175.46 336.263 175.42 336.245 175.365 336.245C175.29 336.245 175.236 336.27 175.203 336.32C175.169 336.37 175.152 336.452 175.152 336.568V337.028H174.884V336.049H175.089L175.124 336.174H175.14C175.169 336.127 175.21 336.091 175.263 336.068C175.316 336.044 175.375 336.032 175.442 336.032C175.556 336.032 175.643 336.062 175.702 336.124C175.762 336.186 175.791 336.274 175.791 336.391V337.028V337.028Z" fill="white"/>
<path d="M176.753 336.738C176.753 336.838 176.718 336.915 176.648 336.967C176.578 337.02 176.473 337.046 176.334 337.046C176.263 337.046 176.202 337.041 176.151 337.031C176.101 337.021 176.054 337.008 176.01 336.989V336.768C176.06 336.791 176.115 336.811 176.178 336.827C176.241 336.843 176.295 336.85 176.342 336.85C176.44 336.85 176.488 336.822 176.488 336.766C176.488 336.745 176.481 336.728 176.468 336.715C176.455 336.701 176.433 336.687 176.402 336.67C176.37 336.653 176.328 336.634 176.275 336.611C176.2 336.58 176.144 336.55 176.109 336.524C176.073 336.497 176.047 336.466 176.031 336.431C176.015 336.397 176.008 336.354 176.008 336.303C176.008 336.216 176.041 336.149 176.11 336.102C176.177 336.054 176.273 336.031 176.397 336.031C176.515 336.031 176.63 336.056 176.743 336.107L176.662 336.299C176.613 336.278 176.567 336.261 176.524 336.248C176.481 336.234 176.437 336.227 176.393 336.227C176.314 336.227 176.274 336.248 176.274 336.29C176.274 336.314 176.287 336.335 176.312 336.352C176.338 336.37 176.394 336.396 176.48 336.43C176.556 336.46 176.613 336.49 176.649 336.516C176.684 336.543 176.711 336.575 176.727 336.609C176.744 336.647 176.753 336.689 176.753 336.738Z" fill="white"/>
<path d="M185.144 336.688C185.144 336.801 185.103 336.889 185.021 336.952C184.939 337.015 184.828 337.047 184.687 337.047C184.535 337.047 184.417 337.027 184.335 336.988V336.844C184.388 336.866 184.445 336.884 184.508 336.897C184.57 336.91 184.631 336.916 184.693 336.916C184.793 336.916 184.867 336.897 184.918 336.86C184.968 336.822 184.993 336.77 184.993 336.703C184.993 336.658 184.984 336.622 184.967 336.594C184.948 336.566 184.919 336.54 184.877 336.516C184.835 336.493 184.772 336.465 184.686 336.435C184.567 336.392 184.482 336.341 184.43 336.284C184.379 336.225 184.353 336.149 184.353 336.055C184.353 335.956 184.391 335.878 184.465 335.82C184.539 335.762 184.638 335.732 184.76 335.732C184.888 335.732 185.005 335.755 185.113 335.802L185.066 335.932C184.96 335.887 184.857 335.865 184.756 335.865C184.677 335.865 184.615 335.883 184.571 335.916C184.526 335.95 184.504 335.997 184.504 336.058C184.504 336.102 184.513 336.138 184.528 336.166C184.545 336.194 184.572 336.221 184.611 336.244C184.65 336.267 184.71 336.294 184.79 336.322C184.925 336.37 185.018 336.422 185.068 336.476C185.118 336.53 185.144 336.601 185.144 336.688Z" fill="white"/>
<path d="M185.769 337.046C185.63 337.046 185.522 337.003 185.446 336.918C185.37 336.832 185.331 336.711 185.331 336.555C185.331 336.395 185.37 336.271 185.448 336.184C185.525 336.096 185.636 336.052 185.779 336.052C185.826 336.052 185.872 336.057 185.918 336.067C185.965 336.078 186.001 336.088 186.027 336.102L185.982 336.226C185.95 336.212 185.915 336.202 185.877 336.194C185.839 336.185 185.806 336.181 185.776 336.181C185.58 336.181 185.482 336.305 185.482 336.554C185.482 336.671 185.506 336.762 185.553 336.825C185.601 336.888 185.672 336.92 185.766 336.92C185.846 336.92 185.928 336.902 186.012 336.868V336.997C185.948 337.029 185.866 337.046 185.769 337.046Z" fill="white"/>
<path d="M186.833 337.028L186.804 336.891H186.797C186.749 336.952 186.701 336.992 186.653 337.013C186.605 337.034 186.546 337.045 186.474 337.045C186.378 337.045 186.303 337.021 186.249 336.972C186.194 336.922 186.168 336.853 186.168 336.763C186.168 336.569 186.323 336.467 186.634 336.458L186.798 336.452V336.392C186.798 336.317 186.781 336.261 186.749 336.226C186.716 336.19 186.664 336.172 186.593 336.172C186.513 336.172 186.422 336.196 186.321 336.245L186.276 336.134C186.324 336.109 186.376 336.088 186.432 336.073C186.488 336.058 186.545 336.052 186.602 336.052C186.716 336.052 186.802 336.077 186.857 336.128C186.913 336.179 186.94 336.26 186.94 336.372V337.026H186.833V337.028ZM186.503 336.926C186.594 336.926 186.665 336.902 186.717 336.852C186.769 336.802 186.795 336.733 186.795 336.644V336.557L186.649 336.563C186.533 336.568 186.449 336.585 186.398 336.617C186.346 336.649 186.321 336.699 186.321 336.765C186.321 336.818 186.337 336.858 186.369 336.885C186.401 336.912 186.445 336.926 186.503 336.926Z" fill="white"/>
<path d="M187.9 337.028V336.408C187.9 336.33 187.882 336.271 187.846 336.233C187.811 336.194 187.754 336.174 187.678 336.174C187.577 336.174 187.504 336.201 187.457 336.256C187.41 336.31 187.387 336.4 187.387 336.525V337.028H187.241V336.069H187.36L187.383 336.2H187.39C187.42 336.153 187.462 336.117 187.516 336.091C187.57 336.065 187.629 336.052 187.696 336.052C187.812 336.052 187.899 336.08 187.958 336.136C188.017 336.192 188.046 336.281 188.046 336.403V337.029H187.9V337.028Z" fill="white"/>
<path d="M189.95 336.387C189.95 336.551 189.917 336.688 189.851 336.796C189.785 336.904 189.691 336.978 189.571 337.016L189.877 337.333H189.66L189.409 337.044L189.361 337.046C189.172 337.046 189.026 336.988 188.923 336.873C188.82 336.758 188.769 336.596 188.769 336.385C188.769 336.177 188.821 336.016 188.924 335.902C189.027 335.787 189.173 335.73 189.363 335.73C189.547 335.73 189.691 335.788 189.795 335.905C189.898 336.021 189.95 336.182 189.95 336.387ZM188.927 336.387C188.927 336.561 188.964 336.692 189.038 336.782C189.112 336.872 189.22 336.916 189.361 336.916C189.502 336.916 189.61 336.872 189.683 336.782C189.755 336.693 189.791 336.561 189.791 336.387C189.791 336.215 189.755 336.084 189.683 335.995C189.611 335.906 189.504 335.862 189.363 335.862C189.22 335.862 189.112 335.907 189.038 335.996C188.964 336.086 188.927 336.216 188.927 336.387Z" fill="white"/>
<path d="M190.387 336.496V337.028H190.238V335.749H190.591C190.748 335.749 190.864 335.779 190.94 335.839C191.015 335.9 191.053 335.99 191.053 336.11C191.053 336.279 190.967 336.393 190.794 336.453L191.143 337.028H190.967L190.655 336.496H190.387ZM190.387 336.368H190.591C190.696 336.368 190.774 336.347 190.823 336.306C190.872 336.265 190.896 336.202 190.896 336.118C190.896 336.034 190.872 335.972 190.821 335.935C190.771 335.898 190.691 335.879 190.581 335.879H190.387V336.368V336.368Z" fill="white"/>
<path d="M200.296 337.028L200.137 336.621H199.622L199.464 337.028H199.313L199.821 335.744H199.947L200.452 337.028H200.296ZM200.09 336.487L199.941 336.091C199.921 336.041 199.902 335.98 199.881 335.906C199.868 335.963 199.85 336.024 199.825 336.091L199.675 336.487H200.09Z" fill="white"/>
<path d="M200.99 337.046C200.851 337.046 200.743 337.003 200.667 336.918C200.591 336.832 200.552 336.711 200.552 336.555C200.552 336.395 200.591 336.271 200.669 336.184C200.746 336.096 200.857 336.052 201 336.052C201.047 336.052 201.093 336.057 201.139 336.067C201.186 336.078 201.222 336.088 201.248 336.102L201.203 336.226C201.171 336.212 201.136 336.202 201.098 336.194C201.06 336.185 201.027 336.181 200.997 336.181C200.801 336.181 200.703 336.305 200.703 336.554C200.703 336.671 200.727 336.762 200.774 336.825C200.822 336.888 200.893 336.92 200.987 336.92C201.067 336.92 201.149 336.902 201.233 336.868V336.997C201.17 337.029 201.088 337.046 200.99 337.046Z" fill="white"/>
<path d="M201.773 336.926C201.798 336.926 201.824 336.924 201.847 336.92C201.871 336.916 201.89 336.912 201.905 336.908V337.019C201.888 337.027 201.866 337.033 201.835 337.038C201.805 337.043 201.776 337.046 201.752 337.046C201.565 337.046 201.473 336.948 201.473 336.753V336.183H201.335V336.113L201.473 336.052L201.535 335.847H201.619V336.07H201.898V336.183H201.619V336.747C201.619 336.805 201.634 336.849 201.661 336.88C201.688 336.91 201.726 336.926 201.773 336.926Z" fill="white"/>
<path d="M202.085 335.81C202.085 335.777 202.093 335.752 202.109 335.737C202.125 335.722 202.146 335.714 202.171 335.714C202.194 335.714 202.215 335.722 202.232 335.738C202.249 335.754 202.257 335.778 202.257 335.81C202.257 335.842 202.248 335.867 202.232 335.883C202.215 335.899 202.195 335.906 202.171 335.906C202.147 335.906 202.126 335.898 202.109 335.883C202.093 335.866 202.085 335.842 202.085 335.81ZM202.243 337.028H202.097V336.069H202.243V337.028Z" fill="white"/>
<path d="M202.763 337.028L202.398 336.069H202.554L202.761 336.637C202.808 336.771 202.836 336.857 202.844 336.897H202.851C202.858 336.866 202.878 336.801 202.913 336.705C202.947 336.607 203.023 336.396 203.143 336.069H203.299L202.934 337.028H202.763V337.028Z" fill="white"/>
<path d="M203.441 335.81C203.441 335.777 203.449 335.752 203.465 335.737C203.481 335.722 203.502 335.714 203.527 335.714C203.55 335.714 203.571 335.722 203.588 335.738C203.605 335.754 203.613 335.778 203.613 335.81C203.613 335.842 203.604 335.867 203.588 335.883C203.571 335.899 203.551 335.906 203.527 335.906C203.503 335.906 203.482 335.898 203.465 335.883C203.449 335.866 203.441 335.842 203.441 335.81ZM203.6 337.028H203.454V336.069H203.6V337.028Z" fill="white"/>
<path d="M204.22 336.926C204.245 336.926 204.271 336.924 204.294 336.92C204.318 336.916 204.337 336.912 204.352 336.908V337.019C204.335 337.027 204.313 337.033 204.282 337.038C204.252 337.043 204.223 337.046 204.199 337.046C204.012 337.046 203.92 336.948 203.92 336.753V336.183H203.782V336.113L203.92 336.052L203.982 335.847H204.066V336.07H204.345V336.183H204.066V336.747C204.066 336.805 204.081 336.849 204.108 336.88C204.134 336.91 204.172 336.926 204.22 336.926Z" fill="white"/>
<path d="M204.95 337.046C204.807 337.046 204.695 337.003 204.613 336.916C204.531 336.83 204.489 336.71 204.489 336.557C204.489 336.403 204.528 336.28 204.604 336.189C204.68 336.098 204.783 336.052 204.912 336.052C205.033 336.052 205.128 336.092 205.198 336.171C205.268 336.249 205.303 336.354 205.303 336.483V336.575H204.64C204.643 336.687 204.671 336.773 204.726 336.831C204.78 336.89 204.856 336.919 204.955 336.919C205.059 336.919 205.161 336.898 205.263 336.855V336.984C205.211 337.006 205.162 337.022 205.117 337.032C205.072 337.042 205.015 337.046 204.95 337.046ZM204.91 336.174C204.833 336.174 204.771 336.198 204.725 336.249C204.679 336.299 204.652 336.368 204.644 336.457H205.147C205.147 336.365 205.126 336.295 205.085 336.246C205.045 336.198 204.986 336.174 204.91 336.174Z" fill="white"/>
<path d="M205.541 335.81C205.541 335.777 205.549 335.752 205.565 335.737C205.581 335.722 205.602 335.714 205.627 335.714C205.65 335.714 205.671 335.722 205.688 335.738C205.705 335.754 205.713 335.778 205.713 335.81C205.713 335.842 205.704 335.867 205.688 335.883C205.671 335.899 205.651 335.906 205.627 335.906C205.603 335.906 205.582 335.898 205.565 335.883C205.549 335.866 205.541 335.842 205.541 335.81ZM205.699 337.028H205.553V336.069H205.699V337.028Z" fill="white"/>
<path d="M206.319 336.926C206.344 336.926 206.37 336.924 206.393 336.92C206.417 336.916 206.436 336.912 206.451 336.908V337.019C206.434 337.027 206.412 337.033 206.381 337.038C206.351 337.043 206.322 337.046 206.298 337.046C206.111 337.046 206.019 336.948 206.019 336.753V336.183H205.881V336.113L206.019 336.052L206.081 335.847H206.165V336.07H206.444V336.183H206.165V336.747C206.165 336.805 206.18 336.849 206.207 336.88C206.233 336.91 206.271 336.926 206.319 336.926Z" fill="white"/>
<path d="M216.656 337.028L216.22 335.894H216.212C216.221 335.984 216.225 336.09 216.225 336.214V337.027H216.087V335.748H216.312L216.719 336.804H216.726L217.136 335.748H217.359V337.027H217.21V336.203C217.21 336.108 217.215 336.006 217.223 335.895H217.216L216.777 337.027H216.656V337.028Z" fill="white"/>
<path d="M218.097 337.046C217.954 337.046 217.842 337.003 217.76 336.916C217.678 336.83 217.636 336.71 217.636 336.557C217.636 336.403 217.675 336.28 217.751 336.189C217.827 336.098 217.93 336.052 218.059 336.052C218.18 336.052 218.275 336.092 218.345 336.171C218.415 336.249 218.45 336.354 218.45 336.483V336.575H217.787C217.79 336.687 217.818 336.773 217.873 336.831C217.927 336.89 218.003 336.919 218.102 336.919C218.206 336.919 218.308 336.898 218.41 336.855V336.984C218.358 337.006 218.309 337.022 218.264 337.032C218.219 337.042 218.161 337.046 218.097 337.046ZM218.057 336.174C217.98 336.174 217.918 336.198 217.872 336.249C217.826 336.299 217.799 336.368 217.791 336.457H218.294C218.294 336.365 218.273 336.295 218.232 336.246C218.191 336.198 218.133 336.174 218.057 336.174Z" fill="white"/>
<path d="M219.106 337.046C218.963 337.046 218.851 337.003 218.769 336.916C218.687 336.83 218.645 336.71 218.645 336.557C218.645 336.403 218.684 336.28 218.76 336.189C218.836 336.098 218.939 336.052 219.068 336.052C219.189 336.052 219.284 336.092 219.354 336.171C219.424 336.249 219.459 336.354 219.459 336.483V336.575H218.796C218.799 336.687 218.827 336.773 218.882 336.831C218.936 336.89 219.012 336.919 219.111 336.919C219.215 336.919 219.317 336.898 219.419 336.855V336.984C219.367 337.006 219.318 337.022 219.273 337.032C219.228 337.042 219.171 337.046 219.106 337.046ZM219.066 336.174C218.989 336.174 218.927 336.198 218.881 336.249C218.835 336.299 218.808 336.368 218.8 336.457H219.303C219.303 336.365 219.282 336.295 219.241 336.246C219.201 336.198 219.143 336.174 219.066 336.174Z" fill="white"/>
<path d="M220.148 336.052C220.191 336.052 220.229 336.056 220.263 336.063L220.242 336.198C220.202 336.189 220.167 336.184 220.137 336.184C220.06 336.184 219.992 336.216 219.938 336.279C219.882 336.342 219.855 336.421 219.855 336.514V337.029H219.709V336.07H219.83L219.847 336.248H219.854C219.889 336.186 219.932 336.138 219.983 336.103C220.034 336.068 220.088 336.052 220.148 336.052Z" fill="white"/>
<path d="M216.055 333.32C215.955 333.32 215.869 333.286 215.805 333.219C215.733 333.15 215.701 333.062 215.701 332.963C215.701 332.864 215.733 332.781 215.805 332.709C215.869 332.637 215.955 332.603 216.055 332.603C216.156 332.603 216.243 332.637 216.312 332.709C216.384 332.781 216.411 332.864 216.411 332.963C216.411 333.062 216.385 333.15 216.312 333.219C216.243 333.286 216.155 333.32 216.055 333.32ZM218.098 333.32C217.998 333.32 217.912 333.286 217.84 333.219C217.77 333.15 217.736 333.062 217.736 332.963C217.736 332.864 217.77 332.781 217.84 332.709C217.912 332.637 217.998 332.603 218.098 332.603C218.199 332.603 218.281 332.637 218.353 332.709C218.421 332.781 218.454 332.864 218.454 332.963C218.454 333.062 218.422 333.15 218.353 333.219C218.28 333.286 218.198 333.32 218.098 333.32ZM220.139 333.32C220.035 333.32 219.952 333.286 219.879 333.219C219.811 333.15 219.776 333.062 219.776 332.963C219.776 332.864 219.81 332.781 219.879 332.709C219.952 332.637 220.035 332.603 220.139 332.603C220.234 332.603 220.32 332.637 220.39 332.709C220.46 332.781 220.496 332.864 220.496 332.963C220.496 333.062 220.46 333.15 220.39 333.219C220.319 333.286 220.233 333.32 220.139 333.32Z" fill="white"/>
<path d="M187.869 253.956C184.905 253.956 182.107 253.387 179.482 252.249C176.856 251.111 174.562 249.565 172.599 247.61C170.634 245.653 169.08 243.378 167.938 240.783C166.795 238.187 166.224 235.394 166.224 232.397C166.224 229.405 166.795 226.598 167.938 223.983C169.081 221.368 170.634 219.092 172.599 217.158C174.562 215.22 176.847 213.683 179.452 212.546C182.057 211.409 184.865 210.84 187.869 210.84C190.876 210.84 193.691 211.408 196.317 212.546C198.943 213.684 201.228 215.22 203.171 217.158C205.115 219.093 206.659 221.368 207.802 223.983C208.945 226.598 209.515 229.405 209.515 232.397C209.515 235.352 208.945 238.136 207.802 240.752C206.659 243.365 205.115 245.652 203.171 247.609C201.228 249.564 198.942 251.11 196.317 252.248C193.692 253.386 190.876 253.956 187.869 253.956Z" fill="white"/>
<path d="M187.869 253.956C184.905 253.956 182.107 253.387 179.482 252.249C176.856 251.111 174.562 249.565 172.599 247.61C170.634 245.653 169.08 243.378 167.938 240.783C166.795 238.187 166.224 235.394 166.224 232.397C166.224 229.405 166.795 226.598 167.938 223.983C169.081 221.368 170.634 219.092 172.599 217.158C174.562 215.22 176.847 213.683 179.452 212.546C182.057 211.409 184.865 210.84 187.869 210.84C190.876 210.84 193.691 211.408 196.317 212.546C198.943 213.684 201.228 215.22 203.171 217.158C205.115 219.093 206.659 221.368 207.802 223.983C208.945 226.598 209.515 229.405 209.515 232.397C209.515 235.352 208.945 238.136 207.802 240.752C206.659 243.365 205.115 245.652 203.171 247.609C201.228 249.564 198.942 251.11 196.317 252.248C193.692 253.386 190.876 253.956 187.869 253.956ZM187.869 252.102C193.362 252.102 198.031 250.185 201.879 246.352C205.727 242.519 207.652 237.868 207.652 232.398C207.652 226.929 205.726 222.279 201.879 218.445C198.031 214.614 193.362 212.697 187.869 212.697C182.379 212.697 177.71 214.614 173.859 218.445C170.011 222.279 168.088 226.929 168.088 232.398C168.088 237.868 170.011 242.519 173.859 246.352C177.71 250.185 182.379 252.102 187.869 252.102Z" fill="#484747"/>
<path d="M185.217 239.657L177.828 232.295L179.246 230.885L185.217 236.832L197.889 224.213L199.307 225.626L185.217 239.657Z" fill="#484747"/>
<path d="M187.869 253.956C184.908 253.956 182.107 253.387 179.484 252.249C176.856 251.111 174.562 249.565 172.599 247.608C170.634 245.653 169.08 243.378 167.938 240.783C166.795 238.189 166.224 235.394 166.224 232.397C166.224 229.405 166.795 226.598 167.938 223.985C169.081 221.368 170.634 219.092 172.599 217.158C174.562 215.221 176.849 213.683 179.453 212.546C182.057 211.409 184.864 210.84 187.868 210.84C190.875 210.84 193.69 211.408 196.316 212.546C198.942 213.684 201.227 215.222 203.172 217.158C205.114 219.093 206.66 221.368 207.801 223.985C208.944 226.598 209.514 229.405 209.514 232.397C209.514 235.352 208.944 238.137 207.801 240.752C206.66 243.365 205.114 245.652 203.172 247.607C201.227 249.564 198.942 251.11 196.316 252.248C193.69 253.386 190.876 253.956 187.869 253.956Z" fill="#00973A"/>
<path d="M185.219 239.657L177.828 232.297L179.246 230.885L185.219 236.832L197.887 224.213L199.309 225.626L185.219 239.657Z" fill="white"/>
<path d="M205.082 329.89C204.95 329.582 204.765 329.309 204.53 329.079C204.293 328.845 204.018 328.66 203.715 328.53C203.406 328.397 203.07 328.33 202.716 328.33C202.353 328.33 202.004 328.406 201.678 328.559C201.424 328.677 201.215 328.842 201.051 329.04C201.002 329.083 200.949 329.123 200.903 329.17L200.856 328.37L200.564 328.42L200.614 329.661L201.847 329.611L201.797 329.318L201.372 329.368H201.121C201.327 329.162 201.562 328.991 201.827 328.868C202.105 328.739 202.404 328.673 202.716 328.673C203.331 328.673 203.863 328.888 204.295 329.311C204.728 329.732 204.947 330.255 204.947 330.867C204.947 331.488 204.728 332.022 204.299 332.455C203.867 332.887 203.335 333.106 202.716 333.106C202.135 333.106 201.63 332.907 201.215 332.513C200.801 332.117 200.568 331.625 200.472 331.005L200.179 331.058C200.222 331.731 200.488 332.304 200.971 332.761C201.453 333.218 202.04 333.449 202.716 333.449C203.071 333.449 203.407 333.381 203.716 333.245C204.02 333.112 204.294 332.929 204.53 332.699C204.765 332.467 204.951 332.192 205.082 331.882C205.215 331.569 205.282 331.232 205.282 330.881C205.282 330.531 205.215 330.198 205.082 329.89Z" fill="white"/>
<path d="M203.816 332.108L203.989 331.864L202.915 330.835L202.865 329.264L202.578 329.313L202.593 330.972L203.781 332.144L203.816 332.108Z" fill="white"/>
</svg>
