<svg width="375" height="406" viewBox="0 0 375 406" fill="none" xmlns="http://www.w3.org/2000/svg">
<g clip-path="url(#clip0_4442_7152)">
<path d="M375 395.979H0V405.979H375V395.979Z" fill="#C1BEBE"/>
<path fill-rule="evenodd" clip-rule="evenodd" d="M74.4501 286.716C70.5311 286.434 67.6071 283.638 67.0471 279.752C66.8861 278.632 66.8341 277.49 66.8341 276.356C66.8241 228.808 66.8221 181.259 66.8281 133.712C66.8301 126.075 69.6901 123.217 77.2691 123.217C150.897 123.217 224.525 123.217 298.152 123.217C305.605 123.217 308.543 126.088 308.547 133.5C308.555 181.31 308.549 229.12 308.531 276.933C308.529 283.779 305.439 286.775 298.507 286.785C296.934 286.786 76.4391 286.862 74.4501 286.716ZM294.613 269.904C294.613 268.728 294.613 267.704 294.613 266.684C294.613 230.246 294.621 193.812 294.605 157.373C294.605 151.61 294.472 145.841 294.493 140.078C294.499 138.403 293.916 137.629 292.213 137.73C291.426 137.776 290.634 137.728 289.846 137.728C221.767 137.728 153.691 137.728 85.6121 137.728C84.9991 137.728 84.3791 137.781 83.7731 137.721C81.6631 137.505 80.8221 138.283 80.8621 140.524C80.9631 145.937 80.7721 151.353 80.7721 156.769C80.7581 193.554 80.7641 230.34 80.7721 267.124C80.7721 268.05 80.8641 268.972 80.9131 269.904C152.242 269.904 223.263 269.904 294.613 269.904ZM190.887 129.582C190.699 127.666 189.73 126.411 187.78 126.358C185.841 126.307 184.624 127.456 184.563 129.379C184.503 131.304 185.67 132.521 187.594 132.589C189.539 132.656 190.571 131.437 190.887 129.582Z" fill="#C1BEBE"/>
<path fill-rule="evenodd" clip-rule="evenodd" d="M336.402 291.03C336.402 294.41 336.665 297.388 336.334 300.3C335.928 303.865 331.905 306.873 327.742 307.165C326.869 307.226 325.987 307.187 325.111 307.187C233.346 307.187 141.585 307.199 49.82 307.126C47.459 307.124 44.938 306.554 42.777 305.602C39.963 304.364 38.433 301.908 38.545 298.648L38.499 291.09C38.958 290.82 119.686 291.033 158.375 291.018C160.24 291.016 161.714 291.016 162.877 293.12C163.523 294.288 165.817 295.111 167.381 295.13C180.8 295.284 194.223 295.229 207.647 295.214C209.891 295.21 211.645 294.406 212.881 292.331C213.303 291.62 214.636 291.095 215.556 291.087C224.857 290.998 234.154 291.03 243.453 291.03C273.193 291.03 302.933 291.03 332.674 291.03C333.805 291.03 334.934 291.03 336.402 291.03Z" fill="#C1BEBE"/>
<path fill-rule="evenodd" clip-rule="evenodd" d="M190.887 129.582C190.572 131.436 189.539 132.656 187.594 132.589C185.67 132.521 184.503 131.303 184.563 129.379C184.624 127.456 185.84 126.307 187.78 126.358C189.729 126.411 190.699 127.667 190.887 129.582Z" fill="white"/>
<path fill-rule="evenodd" clip-rule="evenodd" d="M294.613 269.904C223.262 269.904 152.242 269.904 80.9121 269.904C80.8631 268.971 80.7711 268.05 80.7711 267.124C80.7631 230.34 80.7571 193.553 80.7711 156.769C80.7711 151.353 80.9611 145.937 80.8611 140.524C80.8211 138.283 81.6621 137.505 83.7721 137.721C84.3771 137.782 84.9981 137.728 85.6111 137.728C153.69 137.728 221.766 137.728 289.845 137.728C290.633 137.728 291.425 137.776 292.212 137.73C293.915 137.629 294.498 138.403 294.492 140.078C294.471 145.841 294.604 151.61 294.604 157.373C294.62 193.812 294.612 230.247 294.612 266.684C294.613 267.704 294.613 268.729 294.613 269.904Z" fill="white"/>
<path fill-rule="evenodd" clip-rule="evenodd" d="M190.887 129.582C190.572 131.436 189.539 132.656 187.594 132.589C185.67 132.521 184.503 131.303 184.563 129.379C184.624 127.456 185.84 126.307 187.78 126.358C189.729 126.411 190.699 127.667 190.887 129.582Z" fill="white"/>
<path fill-rule="evenodd" clip-rule="evenodd" d="M294.594 155.642C294.572 150.454 294.475 145.265 294.495 140.077C294.499 138.404 293.916 137.63 292.214 137.729C291.426 137.775 290.634 137.729 289.846 137.729H85.613C85 137.729 84.379 137.782 83.772 137.722C81.662 137.504 80.821 138.284 80.863 140.523C80.954 145.562 80.805 150.603 80.783 155.643H294.594V155.642Z" fill="white"/>
<path d="M260.239 145.443H223.016V148.379H260.239V145.443Z" fill="white"/>
<path d="M294.611 155.661H80.7451V171.105H294.611V155.661Z" fill="#EAE5E2"/>
<path d="M294.611 171.196H80.7451V223.78H294.611V171.196Z" fill="#F3F0EE"/>
<path d="M208.989 145.068H194.728V146.054H208.989V145.068Z" fill="#EAE5E2"/>
<path d="M192.873 137.729H182.426V153.27H192.873V137.729Z" fill="#EAE5E2"/>
<path d="M225.819 161.95H209.477V164.886H225.819V161.95Z" fill="white"/>
<path d="M125.182 161.95H108.84V164.886H125.182V161.95Z" fill="white"/>
<path d="M248.057 161.95H231.713V164.886H248.057V161.95Z" fill="white"/>
<path d="M270.291 161.95H253.949V164.886H270.291V161.95Z" fill="white"/>
<path d="M174.125 175.577H109.215V219.278H174.125V175.577Z" fill="white"/>
<path d="M270.12 175.577H230.889V183.193H270.12V175.577Z" fill="white"/>
<path d="M160.025 184.149H114.421V187.085H160.025V184.149Z" fill="#EAE5E2"/>
<path d="M150.699 191.837H114.421V194.773H150.699V191.837Z" fill="#EAE5E2"/>
<path d="M156.488 199.525H114.421V202.461H156.488V199.525Z" fill="#EAE5E2"/>
<path d="M160.025 207.213H114.421V210.149H160.025V207.213Z" fill="#EAE5E2"/>
<path d="M130.666 231.828H108.894V233.672H130.666V231.828Z" fill="#EAE5E2"/>
<path d="M143.592 235.38H108.894V237.224H143.592V235.38Z" fill="#EAE5E2"/>
<path d="M142.243 238.933H108.894V240.776H142.243V238.933Z" fill="#EAE5E2"/>
<path d="M142.279 246.01H108.926V247.853H142.279V246.01Z" fill="#EAE5E2"/>
<path d="M144.204 242.482H108.894V244.325H144.204V242.482Z" fill="#EAE5E2"/>
<path d="M171.334 231.828H149.562V233.672H171.334V231.828Z" fill="#EAE5E2"/>
<path d="M184.261 235.38H149.562V237.224H184.261V235.38Z" fill="#EAE5E2"/>
<path d="M182.911 238.933H149.562V240.776H182.911V238.933Z" fill="#EAE5E2"/>
<path d="M182.948 246.01H149.598V247.853H182.948V246.01Z" fill="#EAE5E2"/>
<path d="M184.873 242.482H149.562V244.325H184.873V242.482Z" fill="#EAE5E2"/>
<path d="M212.003 231.828H190.232V233.672H212.003V231.828Z" fill="#EAE5E2"/>
<path d="M224.93 235.38H190.232V237.224H224.93V235.38Z" fill="#EAE5E2"/>
<path d="M223.581 238.933H190.232V240.776H223.581V238.933Z" fill="#EAE5E2"/>
<path d="M223.618 246.01H190.267V247.853H223.618V246.01Z" fill="#EAE5E2"/>
<path d="M225.542 242.482H190.232V244.325H225.542V242.482Z" fill="#EAE5E2"/>
<path d="M252.673 231.828H230.901V233.672H252.673V231.828Z" fill="#EAE5E2"/>
<path d="M265.599 235.38H230.901V237.224H265.599V235.38Z" fill="#EAE5E2"/>
<path d="M264.25 238.933H230.901V240.776H264.25V238.933Z" fill="#EAE5E2"/>
<path d="M264.287 246.01H230.936V247.853H264.287V246.01Z" fill="#EAE5E2"/>
<path d="M266.211 242.482H230.901V244.325H266.211V242.482Z" fill="#EAE5E2"/>
<path d="M245.875 224.99C245.875 224.99 248.319 234.711 246.896 242.006C246.896 242.006 255.03 256.588 255.639 258.41C256.25 260.232 264.994 287.177 265.608 288.39C266.213 289.606 269.878 297.102 270.079 310.269C270.287 323.432 270.079 337.006 270.079 337.006C270.079 337.006 272.316 347.336 274.552 352.401C276.793 357.466 283.908 374.885 285.536 376.71C286.031 377.268 294.717 393.965 300.905 405.979H220.908C220.044 402.387 218.121 388.931 212.126 385.927C199.845 379.771 197.271 373.67 194.829 370.839C192.387 367.998 179.377 353.41 176.322 351.795C173.272 350.172 144.8 331.74 143.985 331.128C143.173 330.524 137.275 328.496 137.275 328.496C137.275 328.496 133.008 324.854 133.817 320.8C133.817 320.8 131.176 314.927 137.682 313.912C137.682 313.912 142.361 312.289 143.985 312.498C145.611 312.698 163.717 310.673 163.717 310.673L163.512 303.26H144.596C144.596 303.26 143.58 306.619 138.289 305.811C133.008 305.001 133.413 302.165 134.225 300.949C134.225 300.949 130.293 299.978 133.287 289.807C134.365 286.14 138.493 284.541 138.493 284.541C138.493 284.541 132.681 284.135 132.434 280.084C132.187 276.039 132.434 279.071 132.434 279.071C132.434 279.071 128.733 276.439 133.413 270.361C133.413 270.361 136.869 261.044 143.782 261.856L152.934 262.056L144.595 259.629C144.595 259.629 133.761 256.996 131.042 254.969C128.329 252.943 126.696 248.079 127.716 245.045C128.733 242.005 136.868 240.181 136.868 240.181C136.868 240.181 144.394 239.368 146.222 240.181C148.05 240.992 230.269 275.627 230.269 275.627C230.269 275.627 236.32 278.062 236.929 279.07C236.929 279.07 234.89 269.547 235.097 268.132C235.303 266.718 234.69 265.5 234.69 264.689C234.69 263.878 230.269 259.018 230.269 259.018V234.505C230.269 234.505 234.486 224.989 240.181 224.989C245.874 224.989 244.857 226.002 244.857 226.002L245.875 224.99Z" fill="#F7B1A1"/>
<path d="M230.759 275.832L236.922 278.725V283.798C236.922 283.798 239.051 290.139 239.051 291.834C239.051 293.522 234.36 301.556 230.759 306.634V275.832Z" fill="#BA8A80"/>
<path d="M228.986 346.981C228.986 346.981 227.139 348.829 224.662 348.829C222.2 348.829 189.182 348.829 189.182 348.829C189.182 348.829 204.61 358.356 215.103 356.51C225.59 354.666 228.986 346.981 228.986 346.981Z" fill="#C6978F"/>
<path d="M224.662 348.829H149.266C145.915 348.829 143.175 346.098 143.175 342.761V180.026C143.175 176.686 145.915 173.959 149.266 173.959H224.662C228.016 173.959 230.759 176.686 230.759 180.026V342.76C230.759 346.098 228.016 348.829 224.662 348.829Z" fill="#1D1D1B"/>
<path d="M224.618 180.697H149.273V342.84H224.618V180.697Z" fill="white"/>
<path d="M208.735 185.312H208.168V186.152H208.735V185.312Z" fill="#1A1A1A"/>
<path d="M209.654 184.87H209.094V186.152H209.654V184.87Z" fill="#1A1A1A"/>
<path d="M210.58 184.439H210.013V186.151H210.58V184.439Z" fill="#1A1A1A"/>
<path d="M211.498 184.083H210.931V186.152H211.498V184.083Z" fill="#1A1A1A"/>
<path d="M214.175 184.363C214.658 184.363 215.103 184.528 215.47 184.794L215.737 184.509C215.303 184.179 214.764 183.974 214.175 183.974C213.596 183.974 213.063 184.175 212.637 184.495L212.898 184.781C213.262 184.521 213.697 184.363 214.175 184.363Z" fill="#1A1A1A"/>
<path d="M214.175 185.164C214.447 185.164 214.684 185.259 214.899 185.392L215.179 185.1C214.887 184.901 214.556 184.757 214.175 184.757C213.8 184.757 213.475 184.897 213.189 185.09L213.461 185.388C213.672 185.258 213.908 185.164 214.175 185.164Z" fill="#1A1A1A"/>
<path d="M214.598 185.708C214.469 185.643 214.331 185.6 214.175 185.6C214.027 185.6 213.888 185.643 213.76 185.706L214.175 186.151L214.598 185.708Z" fill="#1A1A1A"/>
<path d="M220.34 184.49H217.336V185.62H220.34V184.49Z" fill="#1A1A1A"/>
<path d="M220.704 184.05H217.006V186.054H220.704V184.05Z" stroke="#1A1A1A" stroke-width="0.1744" stroke-miterlimit="10"/>
<path d="M221.166 184.668H220.907V185.442H221.166V184.668Z" fill="#1A1A1A"/>
<path d="M154.515 184.838C154.515 185.258 154.43 185.572 154.26 185.779C154.09 185.986 153.834 186.09 153.492 186.09C153.362 186.09 153.269 186.082 153.213 186.067V185.78C153.3 185.804 153.387 185.816 153.475 185.816C153.707 185.816 153.88 185.754 153.995 185.629C154.11 185.504 154.172 185.309 154.183 185.043H154.165C154.107 185.131 154.038 185.194 153.957 185.233C153.875 185.272 153.78 185.291 153.671 185.291C153.482 185.291 153.332 185.232 153.224 185.115C153.116 184.998 153.062 184.836 153.062 184.631C153.062 184.408 153.124 184.232 153.25 184.1C153.375 183.968 153.546 183.902 153.763 183.902C153.915 183.902 154.048 183.939 154.161 184.013C154.274 184.087 154.361 184.194 154.423 184.335C154.483 184.473 154.515 184.642 154.515 184.838ZM153.768 184.185C153.649 184.185 153.558 184.224 153.495 184.301C153.432 184.378 153.399 184.487 153.399 184.627C153.399 184.749 153.428 184.844 153.488 184.914C153.547 184.984 153.636 185.018 153.757 185.018C153.873 185.018 153.971 184.983 154.05 184.914C154.129 184.845 154.168 184.764 154.168 184.672C154.168 184.586 154.151 184.505 154.118 184.429C154.084 184.353 154.037 184.294 153.976 184.25C153.915 184.207 153.846 184.185 153.768 184.185Z" fill="black"/>
<path d="M154.841 184.632C154.841 184.486 154.913 184.412 155.058 184.412C155.131 184.412 155.186 184.432 155.222 184.471C155.258 184.51 155.277 184.564 155.277 184.633C155.277 184.702 155.257 184.757 155.22 184.797C155.182 184.838 155.128 184.858 155.058 184.858C154.988 184.858 154.934 184.838 154.897 184.798C154.859 184.757 154.841 184.703 154.841 184.632ZM154.841 185.878C154.841 185.807 154.86 185.753 154.897 185.714C154.934 185.676 154.988 185.657 155.058 185.657C155.129 185.657 155.184 185.677 155.221 185.716C155.258 185.755 155.277 185.809 155.277 185.877C155.277 185.946 155.257 186.001 155.22 186.041C155.182 186.081 155.128 186.102 155.058 186.102C154.988 186.102 154.934 186.082 154.897 186.042C154.859 186.003 154.841 185.948 154.841 185.878Z" fill="black"/>
<path d="M157.13 185.595H156.841V186.06H156.506V185.595H155.527V185.331L156.506 183.922H156.841V185.31H157.13V185.595ZM156.506 185.311V184.776C156.506 184.586 156.511 184.429 156.521 184.308H156.509C156.482 184.372 156.439 184.45 156.38 184.541L155.849 185.311H156.506V185.311Z" fill="black"/>
<path d="M158.324 186.06H157.98V184.684C157.98 184.519 157.984 184.39 157.992 184.293C157.97 184.316 157.942 184.342 157.909 184.371C157.877 184.399 157.767 184.489 157.581 184.639L157.408 184.422L158.038 183.929H158.324V186.06Z" fill="black"/>
<path d="M224.618 205.793H149.273V225.973H224.618V205.793Z" fill="#EAE5E2"/>
<path d="M181.529 234.741H156.497V236.585H181.529V234.741Z" fill="#EAE5E2"/>
<path d="M164.518 209.354H156.497V211.197H164.518V209.354Z" fill="white"/>
<path d="M208.2 193.851H193.939V194.837H208.2V193.851Z" fill="#EAE5E2"/>
<path d="M215.736 238.293H156.497V240.137H215.736V238.293Z" fill="#EAE5E2"/>
<path d="M214.185 241.845H156.497V243.689H214.185V241.845Z" fill="#EAE5E2"/>
<path d="M214.226 248.923H156.535V250.766H214.226V248.923Z" fill="#EAE5E2"/>
<path d="M197.094 245.396H156.497V247.239H197.094V245.396Z" fill="#EAE5E2"/>
<path d="M181.529 260.604H156.497V262.449H181.529V260.604Z" fill="#EAE5E2"/>
<path d="M215.736 264.156H156.497V266H215.736V264.156Z" fill="#EAE5E2"/>
<path d="M214.185 267.708H156.497V269.552H214.185V267.708Z" fill="#EAE5E2"/>
<path d="M214.226 274.786H156.535V276.629H214.226V274.786Z" fill="#EAE5E2"/>
<path d="M197.094 271.259H156.497V273.102H197.094V271.259Z" fill="#EAE5E2"/>
<path d="M181.529 286.974H156.497V288.816H181.529V286.974Z" fill="#EAE5E2"/>
<path d="M215.736 290.525H156.497V292.369H215.736V290.525Z" fill="#EAE5E2"/>
<path d="M214.185 294.076H156.497V295.919H214.185V294.076Z" fill="#EAE5E2"/>
<path d="M214.226 301.153H156.535V302.997H214.226V301.153Z" fill="#EAE5E2"/>
<path d="M197.094 297.626H156.497V299.47H197.094V297.626Z" fill="#EAE5E2"/>
<path d="M192.524 186.576H182.077V202.115H192.524V186.576Z" fill="#EAE5E2"/>
<path d="M217.907 216.959H156.663V222.707H217.907V216.959Z" fill="white"/>
<path d="M213.956 208.239H217.852" stroke="white" stroke-width="0.5516" stroke-miterlimit="10"/>
<path d="M213.956 209.544H217.852" stroke="white" stroke-width="0.5516" stroke-miterlimit="10"/>
<path d="M213.956 210.851H217.852" stroke="white" stroke-width="0.5516" stroke-miterlimit="10"/>
<path d="M164.436 218.821H158.041V220.662H164.436V218.821Z" fill="#EAE5E2"/>
</g>
<defs>
<clipPath id="clip0_4442_7152">
<rect width="375" height="406" fill="white"/>
</clipPath>
</defs>
</svg>
