<svg width="286" height="286" viewBox="0 0 286 286" fill="none" xmlns="http://www.w3.org/2000/svg">
<g clip-path="url(#clip0_5858_24343)">
<path d="M142.7 285.4C221.51 285.4 285.4 221.51 285.4 142.7C285.4 63.89 221.51 0 142.7 0C63.89 0 0 63.89 0 142.7C0 221.51 63.89 285.4 142.7 285.4Z" fill="#CCE1EC"/>
<path d="M244.13 243.06L192.68 117.61C192.68 117.61 181.77 94.6299 165.46 93.3799L157.85 127.85L119.85 219.74C128.78 240.74 148.7 249.19 158.93 249.19L173.42 249.02L180.47 280.33C204.95 273.63 226.79 260.58 244.14 243.06H244.13Z" fill="#EE9A80"/>
<path d="M79.08 109.58C79.08 109.58 67.08 162.3 68.29 172.56C68.29 172.56 66.48 183.72 83.38 193.38L98.16 136.48L79.09 109.59L79.08 109.58Z" fill="#EE9A80"/>
<path d="M171.99 231.26L97.4 235.62C89.69 236.07 83.07 230.19 82.62 222.48L72.41 54.1701C71.96 46.4601 77.84 39.8401 85.55 39.3901L160.14 35.0301C167.85 34.5801 174.47 40.4601 174.92 48.1701L185.13 216.48C185.58 224.19 179.7 230.81 171.99 231.26Z" fill="#484747"/>
<path d="M96.57 228.15C93.14 228.15 90.3 225.46 90.1 222.03L79.89 53.7C79.79 51.98 80.37 50.31 81.52 49.02C82.67 47.72 84.26 46.95 85.99 46.85L160.58 42.49C160.71 42.49 160.85 42.48 160.97 42.48C164.4 42.48 167.24 45.17 167.44 48.6L177.66 216.93C177.87 220.49 175.13 223.57 171.55 223.78L96.96 228.14C96.83 228.14 96.69 228.15 96.57 228.15Z" fill="white"/>
<path d="M141.8 196.87C149.16 196.87 155.12 190.91 155.12 183.55C155.12 176.19 149.16 170.23 141.8 170.23C134.44 170.23 128.48 176.2 128.48 183.55C128.48 190.9 134.45 196.87 141.8 196.87Z" fill="#EE9A80"/>
<path d="M154.61 161.26L194.21 196.26L208.03 161.3L172.28 138.56L154.61 161.26Z" fill="#EE9A80"/>
<path d="M175.94 157.09L153.22 190.44L130.4 176.68L151.27 142.09L175.94 157.1V157.09Z" fill="#EE9A80"/>
<path d="M124.86 123.69L133.01 142.79L140.24 142.46L132.09 123.36L124.86 123.69Z" fill="#3EA3DB"/>
<path d="M145.89 117.2C145.8 115.11 147.36 113.26 149.77 113.15C152.18 113.04 153.91 114.73 154 116.82C154.09 118.91 152.53 120.79 150.12 120.9C147.71 121.01 145.98 119.28 145.88 117.19H145.89V117.2Z" fill="#DD2146"/>
<path d="M153.82 122.34L154.72 141.79L161.05 122.01L153.82 122.34Z" fill="#94C3DA"/>
<path d="M153.82 122.33L146.59 122.66L147.49 142.11L153.82 122.33Z" fill="#DD2146"/>
<path d="M147.49 142.12L154.72 141.79L153.82 122.34L147.49 142.12Z" fill="#6A2E4A"/>
<path d="M124.86 123.69L125.76 143.14L132.09 123.36L124.86 123.69Z" fill="#94C3DA"/>
<path d="M124.86 123.69L117.63 124.02L118.53 143.47L124.86 123.69Z" fill="#DD2146"/>
<path d="M118.53 143.47L125.76 143.14L124.86 123.69L118.53 143.47Z" fill="#6A2E4A"/>
<path d="M104.06 144.14C103.49 145.91 102.59 146.42 101.05 146.5C100.06 146.55 99.28 146.43 98.52 146.22L98.63 151.42C99.65 151.65 100.95 151.71 102.1 151.65C107.14 151.42 109.43 149.56 110.77 145.4L111.28 143.8L104.05 144.13L104.06 144.14Z" fill="#DD2146"/>
<path d="M124.86 123.69L133.01 142.79L140.24 142.46L132.09 123.36L124.86 123.69Z" fill="#DD2146"/>
<path d="M116.93 118.55C116.84 116.46 118.4 114.61 120.81 114.5C123.22 114.39 124.95 116.08 125.04 118.17C125.13 120.26 123.57 122.14 121.16 122.25C118.75 122.36 117.02 120.63 116.92 118.54H116.93V118.55Z" fill="#DD2146"/>
<path d="M139.34 123L136.17 132.89L140.24 142.45L146.57 122.67L139.34 123Z" fill="#6A2E4A"/>
<path d="M110.39 124.36L107.22 134.25L111.29 143.81L117.62 124.03L110.39 124.36Z" fill="#6A2E4A"/>
<path d="M95.91 125.04L104.06 144.14L111.29 143.81L103.14 124.71L95.91 125.04Z" fill="#DD2146"/>
<path d="M103.14 124.7L95.91 125.03L99.98 134.59L103.15 124.7H103.14Z" fill="#6A2E4A"/>
<path d="M132.1 123.35L124.87 123.68L128.94 133.24L132.11 123.35H132.1Z" fill="#B73353"/>
<path d="M133.01 142.79L140.24 142.46L136.17 132.9L133 142.79H133.01Z" fill="#B73353"/>
<path d="M104.06 144.14L111.29 143.81L107.22 134.25L104.05 144.14H104.06Z" fill="#B73353"/>
<path d="M163.56 164.09C171.54 164.09 178 157.62 178 149.65C178 141.68 171.53 135.21 163.56 135.21C155.59 135.21 149.12 141.68 149.12 149.65C149.12 157.62 155.59 164.09 163.56 164.09Z" fill="#EE9A80"/>
</g>
<defs>
<clipPath id="clip0_5858_24343">
<rect width="285.4" height="285.4" fill="white"/>
</clipPath>
</defs>
</svg>
