<svg width="375" height="406" viewBox="0 0 375 406" fill="none" xmlns="http://www.w3.org/2000/svg">
<g clip-path="url(#clip0_4444_7908)">
<path d="M375 396H0V406H375V396Z" fill="#C1BEBE"/>
<path d="M374.36 204.886C374.36 204.886 369.268 198.3 368.456 197.89C367.646 197.484 363.977 193.742 363.264 192.718C362.552 191.709 356.151 188.17 355.85 188.17C355.538 188.17 353.507 185.022 352.997 185.022C352.491 185.022 348.923 185.125 347.807 185.333C346.692 185.53 340.687 184.825 337.746 184.825C334.784 184.825 335.089 186.843 333.359 187.457C331.629 188.064 330.001 186.642 330.001 186.642C330.001 186.642 331.735 186.134 332.351 185.227C332.955 184.316 331.94 184.316 329.705 183.907C327.466 183.507 325.527 182.895 322.477 182.185C321.913 182.052 321.433 181.977 320.98 181.931C321.136 179.806 321.098 177.125 320.709 175.16C321.356 175.9 323.143 175.118 323.272 174.125C323.401 173.119 323.679 171.303 323.578 169.479C323.477 167.651 323.973 166.568 323.973 165.891C323.973 165.204 324.3 162.462 322.918 161.738C322.349 161.435 321.95 161.503 321.654 161.666C321.68 161.567 321.734 161.499 321.734 161.378C321.737 160.904 321.996 160.001 321.95 159.647C321.912 159.285 321.547 157.803 321.38 157.403C321.486 157.528 321.621 157.851 321.621 157.851C321.621 157.851 321.414 156.891 321.174 156.466C320.933 156.043 320.729 155.48 320.508 155.186C320.618 155.218 320.774 155.48 320.767 155.415C320.747 155.366 320.33 154.499 319.99 154.103C319.647 153.701 319.266 152.965 319.092 152.749C318.925 152.533 318.81 152.275 318.81 152.275L318.99 152.381C318.99 152.381 318.964 152.085 318.533 151.74C318.107 151.398 317.603 150.116 317.262 149.82C316.919 149.532 316.521 149.24 316.521 149.24L316.679 149.217C316.622 149.221 316.465 149.221 316.317 148.968C316.143 148.659 315.796 148.03 315.559 147.836C315.327 147.646 314.823 146.979 314.578 146.903C314.338 146.844 313.975 146.531 313.975 146.531C313.975 146.531 314.204 146.531 314.299 146.622C314.291 146.396 313.903 146.29 313.583 146.239C313.558 146.208 313.537 146.182 313.513 146.152C318.966 145.067 324.406 143.914 329.843 142.822C336.084 147.396 358.654 151.527 359.481 143.421C360.7 143.292 361.96 143.336 362.972 142.625C363.849 142.025 364.175 141.013 364.02 140.045C365.193 139.431 366.279 138.634 366.925 137.481C367.637 136.155 366.981 135.145 365.95 134.375C367.626 133.193 369.17 131.697 366.909 130.358C364.29 128.792 358.795 130.386 355.703 130.001C351.225 129.432 347.173 127.824 343.437 125.387C344.953 123.164 346.499 120.872 347.445 118.463C347.876 117.352 348.475 114.963 347.015 114.192C345.285 113.293 342.995 116.257 342.119 117.222C339.686 119.889 337.387 122.68 335.037 125.43C332.192 127.18 329.357 129.587 327.828 132.452C317.148 133.776 307.117 131.938 296.367 130.326C291.028 129.53 282.886 127.667 277.449 129.871C273.053 129.287 268.873 128.122 264.637 126.653C263.134 126.125 260.058 124.333 257.796 123.832C257.679 123.39 257.493 122.964 257.163 122.535C255.678 120.6 251.769 119.432 249.726 118.448C244.155 115.742 237.685 112.025 231.364 110.758C229.974 109.487 228.356 108.978 226.497 108.665C224.305 108.138 221.915 107.952 219.694 107.792C219.67 107.792 219.639 107.792 219.613 107.792C214.559 107.125 209.491 106.442 204.47 107.109C203.866 105.729 202.739 103.878 202.623 102.497C202.537 101.27 202.553 100.058 202.495 98.848C204.239 96.44 205.255 93.663 205.412 90.659C206.433 90.401 207.278 89.976 207.705 88.692C208.121 87.408 208.191 86.226 208.878 84.986C209.334 84.132 209.65 83.29 209.677 82.308C209.706 81.325 209.448 80.058 208.363 79.73C208.061 79.646 207.732 79.659 207.404 79.759C208.879 72.593 207.202 63.591 200.734 59.43C197.431 57.309 188.598 55.998 183.775 58.348C179.539 58.632 175.659 60.341 173.985 64.644C172.182 69.274 171.896 74.5 173.026 79.329C171.736 79.999 171.009 81.738 171.736 83.39C172.323 84.744 173.486 85.683 173.971 87.108C174.314 88.133 174.402 89.132 175.059 90.027C175.619 90.812 176.389 91.298 177.247 91.367C177.379 93.148 177.993 94.786 178.737 96.41C179.009 97.008 179.338 97.506 179.741 97.976C179.307 100.497 178.338 103.945 178.378 106.935C174.242 107.318 170.149 107.917 166.086 108.76C166.086 108.76 166.072 108.76 166.06 108.76H166.042C160.23 108.346 153.764 108.974 149.195 112.208C143.472 113.16 137.677 116.693 132.766 119.585C132.739 119.6 132.724 119.616 132.697 119.627C131.223 120.34 129.549 121.209 128.074 122.206C124.91 123.913 122.663 125.339 124.094 128.032C121.547 128.133 117.74 129.942 115.808 130.497C113.791 131.066 111.803 131.692 109.827 132.378H109.811C106.749 132.378 102.885 133.129 100.01 133.045C95.1871 132.931 90.5201 133.5 85.7521 134.239C82.6681 134.719 79.5931 135.142 76.5201 135.497C73.2231 134.262 69.9361 133.011 66.8921 131.266C66.5031 129.969 65.8701 128.69 65.3001 127.39C65.3951 127.22 65.4831 127.049 65.5591 126.874C71.8231 124.089 73.7171 116.553 73.6401 110.162C74.5731 106.691 74.2411 103.012 72.5391 99.756C71.6841 98.12 70.5131 96.739 69.1261 95.539C67.7681 89.808 62.8851 85.553 57.5031 83.057C50.7611 79.938 43.8081 82.657 37.7551 86.079C30.1911 90.294 23.9681 97.467 23.5571 106.293C19.6271 115.675 17.1441 125.743 18.5721 135.795C15.7971 136.273 10.6731 137.217 10.3841 139.739C10.1111 142.215 13.9221 142.275 18.0731 141.676C18.0391 141.775 18.0051 141.873 17.9721 141.974C17.5271 142.113 17.0781 142.247 16.6401 142.391C14.8091 142.988 12.0731 143.457 11.0321 145.323C9.45909 148.143 12.9051 148.073 15.3411 147.705C14.6761 148.625 14.5961 149.537 15.4491 150.179C13.5371 157.423 12.6861 164.907 15.4751 171.916C15.2541 176.123 15.9131 180.393 16.5701 184.551C13.4801 192.714 9.95809 200.739 6.89509 208.887C6.89509 208.881 6.86309 208.891 6.85909 208.891C4.82009 206.571 2.50209 204.695 0.0380859 203.246V261.942C0.955086 262.841 1.80809 263.702 2.57709 264.514C1.56109 265.92 0.846086 268.644 2.71509 269.528C2.93609 270.347 3.43209 271.224 4.26209 271.554C4.74109 272.696 5.94509 273.42 7.00709 274.159C8.07609 274.91 8.91109 275.756 9.92209 275.475C10.6941 276.787 11.7501 278.084 12.7721 279.093C13.5871 279.897 14.2841 279.324 14.8221 278.622C15.8311 279.798 17.3121 279.855 18.3561 278.068C21.4531 281.69 24.6961 285.195 28.0951 288.572C28.8781 304.471 30.4071 320.486 34.0171 336.018C36.6791 354.983 39.8091 373.883 43.4151 392.704C43.4191 392.754 43.4701 392.788 43.5081 392.799C44.6851 393.072 45.8671 393.292 47.0481 393.463C46.9491 394.339 46.7401 395.181 46.4501 395.993H63.8201C63.7361 394.9 63.6751 393.807 63.6651 392.72C63.5701 392.742 63.4771 392.765 63.3851 392.788C63.8971 392.587 64.6661 392.64 65.0461 392.268C66.9901 374.922 64.7591 357.562 61.7231 340.433C61.4231 328.958 60.7051 317.499 59.5691 306.076C65.1251 304.563 69.7961 300.216 72.7211 295.015C72.6601 295.129 72.5961 295.246 72.5301 295.357C74.8661 304.544 77.2081 313.73 79.5511 322.913C81.3001 329.998 82.6321 337.559 87.4521 343.339C90.3231 356.876 92.3601 370.568 93.4931 384.349C93.8181 388.313 93.9721 392.913 98.4071 394.43C98.1261 394.943 97.8871 395.466 97.6731 395.993H115.956C115.934 395.42 115.901 394.847 115.88 394.27C116.621 394.119 117.345 393.952 118.045 393.781C113.995 374.149 116.895 353.254 109.967 333.997C109.967 333.997 109.967 333.997 109.967 333.993C108.148 314.011 103.623 294.299 100.711 274.442C104.523 270.338 102.834 263.381 102.479 258.41C102.261 255.634 102.064 252.837 102.203 250.042C102.29 248.26 102.726 246.537 102.921 244.77C102.936 244.641 102.955 244.516 102.97 244.387C108.104 244.736 109.77 240.833 110.69 236.604C111.613 233.441 111.994 230.167 112.159 226.872C116.242 215.568 115.805 203.157 114.103 191.358C111.95 178.325 109.239 164.894 103.407 152.959C103.253 152.635 103.096 152.305 102.94 151.971C106.352 151.258 109.72 150.295 113.022 148.955L113.062 148.941C115.266 148.513 117.483 148.071 119.75 147.743C122.924 147.286 126.086 146.99 129.235 146.561C129.493 146.535 129.764 146.489 130.023 146.445C131.87 146.219 133.701 145.92 135.532 145.52C136.1 146.349 136.98 146.719 138.48 146.631C140.815 146.504 143.244 145.977 145.624 145.307C147.182 146.246 148.983 146.545 150.876 146.631C153.268 156.189 153.352 165.934 155.185 175.562C155.887 179.207 156.556 183.141 157.816 186.717C157.959 188.452 158.088 190.178 158.172 191.913C158.19 191.97 158.19 192.042 158.19 192.114C158.19 192.215 158.203 192.33 158.203 192.427C158.519 199.706 158.377 206.944 157.845 214.223C157.845 214.249 157.845 214.293 157.834 214.322C157.274 219.534 156.329 224.776 156.014 230.007C156.014 230.033 156.014 230.048 155.998 230.078C155.815 231.414 155.728 232.767 155.914 234.008C155.928 235.063 155.971 236.116 156.086 237.156C152.28 254.861 152.507 272.939 156.742 290.49C156.847 298.109 157.43 305.688 158.493 313.224C156.615 323.606 156.661 333.976 158.59 344.175C158.764 350.544 158.733 356.897 158.147 363.25C157.959 365.287 157.747 367.264 157.72 369.201C156.441 374.504 155.557 380.714 156.814 385.496C154.422 388.151 150.469 391.842 146.514 395.991H176.847C177.351 392.873 176.813 389.361 176.335 386.239C176.593 385.556 176.839 384.745 177.081 383.819C178.298 381.138 178.957 377.848 179.302 374.401C179.302 374.385 179.302 374.385 179.302 374.385C182.376 366.611 184.323 358.474 184.75 350.084C185.156 342.054 183.549 334.244 182.62 326.381C184.162 320.157 185.453 313.86 185.941 307.45C186.313 302.451 186.11 297.451 185.725 292.468C187.214 286.627 188.516 280.743 189.574 274.8C190.649 268.819 191.351 262.837 193.066 257.095C198.878 269.789 200.081 284.275 205.433 297.023C207.008 306.624 209.398 316.042 212.604 325.255C211.772 337.309 212.632 349.303 213.72 361.325C214.392 368.761 214.791 376.297 215.782 383.689C215.85 384.228 215.924 384.77 215.992 385.328C216.037 385.726 216.096 386.125 216.167 386.523C216.167 386.538 216.167 386.538 216.178 386.553C216.51 388.415 217.1 390.213 218.585 391.494C219.271 392.078 220.017 392.462 220.805 392.689C220.575 393.789 220.4 394.884 220.313 395.989H238.096C237.309 393.827 236.673 391.631 236.334 389.359C236.504 389.2 236.659 389.044 236.79 388.884C238.094 387.235 237.922 383.859 237.735 381.223C237.735 381.223 237.735 381.223 237.735 381.207C237.836 379.64 237.735 377.873 237.589 376.177C237.577 374.743 237.519 373.318 237.448 371.892C239.265 359.128 239.265 346.292 237.475 333.617C237.501 320.327 236.416 307.138 234.227 294.075C235.015 275.342 232.766 256.812 228.199 238.621C228.345 238.503 228.472 238.393 228.59 238.249C230.004 236.467 227.986 232.366 227.63 230.687C226.014 222.994 224.711 215.204 223.923 207.397C222.75 195.616 225.354 184.336 226.113 172.741C229.418 164.607 232.365 156.329 231.533 147.926C233.123 147.427 234.683 146.843 236.188 146.115H236.203C236.219 146.115 236.23 146.115 236.259 146.115C238.835 146.274 241.843 146.358 244.477 145.946C244.646 145.933 244.818 145.889 244.993 145.859C245.332 145.819 245.661 145.762 245.991 145.704C247.609 145.406 249.027 144.822 249.985 143.752C250.804 144.222 251.916 144.507 253.349 144.719C258.587 145.504 263.893 145.576 269.146 146.473C271.954 146.956 274.687 147.37 277.462 147.584C280.543 148.697 283.666 149.255 286.824 149.456C286.747 149.553 286.677 149.642 286.644 149.708C286.54 149.907 286.348 150.321 286.202 150.492C286.054 150.659 285.46 151.124 285.254 151.465C285.045 151.8 284.877 151.994 284.859 152.206C284.84 152.414 284.728 153.037 284.656 153.16C284.583 153.279 284.157 153.746 284.109 154.252C284.063 154.758 283.841 155.38 283.841 155.38L284.008 155.247C284.008 155.247 283.679 155.786 283.627 156.191C283.581 156.61 283.407 157.538 283.407 157.538L283.683 157.075C283.683 157.075 283.526 157.832 283.554 157.99C283.58 158.142 283.128 159.253 283.128 159.253L283.433 158.9C283.433 158.9 282.869 160.252 282.876 160.546C282.998 160.353 283.072 160.182 283.072 160.182C283.072 160.182 282.894 161.818 283.1 162.434C283.294 163.045 283.059 165.012 283.059 165.012L283.214 164.706C283.214 164.706 283.294 165.408 283.214 165.707C283.33 165.495 283.405 165.25 283.405 165.25C283.405 165.25 283.294 166.075 283.33 166.436C283.348 166.8 283.405 167.468 283.454 167.71C283.505 167.951 283.625 168.721 283.625 168.721L283.682 168.344C283.682 168.344 283.994 169.289 284.337 169.615C284.353 169.49 284.402 169.38 284.402 169.38C284.43 169.467 284.495 169.532 284.547 169.608C284.265 170.018 284.09 170.395 284.154 170.685C284.233 171.053 284.801 171.413 285.144 171.88C285.495 172.335 286.423 174.621 286.587 175.362C286.752 176.11 287.231 177.856 287.642 178.837C288.038 179.816 288.947 181.718 289.51 182.277C290.066 182.838 290.593 182.535 290.972 181.689C291.07 181.856 292.528 185.74 293.762 187.828C293.605 187.87 293.434 187.911 293.289 187.953C287.798 189.469 285.863 193.929 285.863 193.929C285.863 193.929 280.776 195.753 279.854 195.856C278.944 195.953 278.132 197.986 277.117 198.185C276.097 198.386 274.774 198.894 273.553 198.695C272.342 198.492 271.523 201.022 270.099 202.539C268.672 204.06 267.96 207.405 266.841 210.042C265.731 212.673 262.166 222.907 262.266 224.422C262.325 225.226 262.751 225.662 263.399 226.136C261.984 228.7 260.35 231.469 259.022 233.831C257.293 236.919 255.63 247.309 255.048 252.561C254.478 257.811 255.293 267.16 255.626 272.546C255.959 277.925 256.226 285.336 256.06 287.26C255.895 289.183 256.116 291.621 255.967 293.339C255.811 295.058 254.496 297.549 254.688 298.364C254.859 299.179 254.035 302.602 254.21 303.618C254.371 304.639 255.084 307.6 255.084 307.6C255.084 307.6 255.931 309.917 255.853 310.722C255.785 311.526 255.236 314.097 255.765 315.125C255.979 315.542 256.911 316.543 257.976 317.629C258.164 318.729 258.465 320.037 258.442 320.588C258.42 321.277 259.927 321.676 260.777 320.371C261.211 320.796 261.531 321.103 261.622 321.19C262.011 321.615 262.613 321.888 263.149 321.19C263.602 320.598 263.01 318.641 261.405 317.154C261.364 316.297 261.215 315.598 261.14 315.306C262.066 315.177 263.24 314.953 263.994 314.627C264.056 314.1 264.11 313.58 264.165 313.061C263.852 312.852 263.449 312.712 263.11 312.682C262.819 312.656 262.324 312.568 261.797 312.469C261.994 311.688 262.178 310.941 262.25 310.554C262.431 309.533 263.084 308.15 263.343 307.361C263.582 306.606 263.427 305.503 264.954 303.333C265.155 303.162 265.361 302.995 265.555 302.852C265.795 301.269 266.055 299.733 266.313 298.315C267.067 294.26 267.941 291.92 268.812 290.695C268.461 290.168 268.207 289.672 268.207 289.223C268.207 287.699 268.049 280.093 269.09 274.703C270.13 269.32 274.41 259.676 274.872 255.02C275.322 250.371 275.52 247.586 275.746 246.684C275.918 246.046 279.166 241.89 280.812 238.282C280.872 239.424 281.007 241.367 281.082 242.766C279.855 243.877 281.59 245.8 281.59 245.8C281.59 245.8 278.537 250.366 277.723 253.598C277.245 255.501 278.657 257.922 279.908 259.603C279.908 263.96 279.908 270.01 279.908 274.042C280.079 273.724 280.221 273.367 280.429 273.105C280.572 272.992 280.746 272.881 280.918 272.775C280.975 273.037 281.093 273.26 281.257 273.465C279.807 274.618 278.759 275.528 278.759 275.528C278.759 275.528 276.157 278.828 276.047 280.004C275.992 280.455 275.869 281.677 275.724 283.095C275.716 283.179 275.706 283.266 275.698 283.353C274.391 284.798 273.645 287.833 272.933 292.567C272.24 290.363 270.564 288.46 268.864 290.849C268.005 292.07 267.14 294.403 266.384 298.438C266.119 299.864 265.861 301.389 265.618 302.96C265.131 306.142 264.666 309.578 264.241 313.128C264.198 313.651 264.137 314.159 264.074 314.69C262.783 326.016 261.885 337.888 261.486 344.242C260.889 353.903 259.493 376.251 260.303 390.293C260.438 392.683 260.694 394.491 261.022 395.861H275.549C275.563 395.785 275.581 395.701 275.595 395.611H277.691C278.052 395.611 278.187 395.413 278.237 395.204C278.628 395.318 278.991 395.568 279.323 395.861H282.537C281.782 393.383 279.726 392.424 278.237 392.212V390.49C278.237 390.49 278.237 390.043 278.237 389.815C278.237 389.753 278.187 389.674 278.112 389.594L281.758 389.557L281.762 380.632H281.147L280.478 380.191L283.406 375.667C285.153 374.024 287.046 372.773 288.808 371.81V383.261H289.876V393.543C289.876 394.336 289.969 395.106 290.105 395.861H294.544C294.338 395.125 294.216 394.354 294.216 393.543V383.261H295.292V366.29C295.312 366.298 295.33 366.309 295.35 366.316C296.459 366.801 297.737 367.086 299.217 367.109C300.28 369.073 301.267 371.088 301.826 372.722C303.011 376.143 303.833 382.375 303.833 382.375C303.833 382.375 300.4 385.557 300.164 386.851C299.935 388.152 299.461 390.856 299.461 390.856C299.461 390.856 295.787 393.572 295.673 394.629C295.637 394.952 295.579 395.46 295.517 395.999H323.138C323.264 394.944 323.715 390.666 323.026 388.739C322.215 386.528 320.62 384.051 320.62 384.051C320.62 384.051 320.449 380.963 320.795 379.021C321.156 377.075 319.732 375.22 317.346 370.187C315.909 367.172 315.408 364.372 315.224 362.589C315.91 362.134 316.31 361.732 316.372 361.413C316.604 360.112 314.47 350.456 314.355 348.577C314.351 348.482 314.346 348.297 314.336 348.096C314.336 348.077 314.334 348.047 314.332 348.028H337.828C337.824 348.05 337.822 348.074 337.82 348.096C337.016 356.024 336.422 362.547 336.349 363.515C336.292 364.232 336.867 364.972 337.842 365.666C337.469 367.615 336.977 369.735 336.292 370.893C335.059 373.013 333.988 375.137 334.163 376.722C334.35 378.311 334.97 384.408 334.97 384.408C334.97 384.408 333.017 386.176 332.666 388.739C332.407 390.571 333.382 394.129 333.958 395.999H362.623C362.613 395.962 362.589 395.915 362.578 395.874H364.221C364.355 395.122 364.431 394.349 364.431 393.556V383.274H365.503V371.823C367.262 372.787 369.16 374.038 370.902 375.68L373.831 380.204L373.162 380.645H372.546L372.552 389.57L375 389.592V372.053L365.503 357.352V348.028H373.992C374.084 350.191 374.505 359.73 375 365.287V307.012C375.012 306.883 375.026 306.739 375.036 306.614V274.988C374.873 274.575 374.691 274.18 374.49 273.816C374.36 273.592 374.244 273.349 374.113 273.126C374.113 266.048 374.113 254.243 374.113 254.243C374.113 250.291 370.417 247.864 364.549 247.685C364.549 246.968 362.388 245.619 359.22 245.619H356.084C356.006 245.505 355.928 245.376 355.854 245.277C355.52 244.818 355.234 244.5 355.131 244.5C354.825 244.5 356.359 223.827 356.359 223.827L356.935 224.066C357.402 224.272 358.032 224.59 358.39 224.939C358.502 225.045 358.748 225.03 359.077 224.943L375.037 231.486V213.158V205.122C374.663 204.908 374.36 204.886 374.36 204.886ZM264.059 389.34C263.765 387.645 263.468 382 263.676 371.781C264.357 370.564 265.604 370.663 266.582 370.997C265.796 378.123 264.675 386.658 264.059 389.34ZM268.566 340.729C268.199 340.858 267.515 341.297 267.41 343.05L267.311 344.404C267.212 346.123 267.822 346.653 268.199 346.82C268.024 349.909 267.7 356.038 267.386 362.948C267.299 364.242 267.138 365.93 266.941 367.8C264.995 367.85 264.146 367.133 263.797 366.523C263.984 360.692 264.54 352.716 265.07 344.489C265.561 336.277 266.349 328.281 266.906 322.497C267.311 321.947 268.21 321.349 270.052 321.587C269.44 329.284 268.881 336.617 268.566 340.729ZM270.212 318.407C269.197 318.604 267.94 318.544 267.426 317.257C267.724 314.382 268.025 311.924 268.296 309.759C268.999 304.301 269.614 301.057 269.985 299.877C270.13 301.3 270.212 304.319 270.243 307.873C270.255 311.177 270.243 314.947 270.212 318.407ZM281.283 327.593C281.307 327.688 281.332 327.78 281.357 327.874C281.357 327.881 281.357 327.889 281.357 327.904C281.624 328.879 281.888 329.876 282.158 330.87C283.099 334.368 284.084 337.926 285.048 341.369C282.999 341.369 281.449 341.369 280.642 341.373L280.478 341.361C280.529 340.159 280.931 333.434 281.283 327.593ZM312.729 326.103C312.719 326.031 312.714 325.952 312.705 325.875C312.375 323.068 311.998 320.679 311.576 319.086H315.047C317.749 319.086 317.626 320.572 320.067 321.517C322.505 322.461 324.124 319.769 324.124 319.769C324.124 319.769 325.623 319.708 327.011 319.674C328.396 319.708 329.894 319.769 329.894 319.769C329.894 319.769 331.516 322.461 333.954 321.517C336.398 320.573 336.269 319.086 338.973 319.086H341.385C341.385 319.094 341.385 319.098 341.384 319.101C341.05 320.907 340.689 323.319 340.319 326.091C340.319 326.095 340.318 326.099 340.318 326.103H312.729ZM276.75 296.039C276.78 296.115 276.794 296.225 276.818 296.312C276.804 296.27 276.794 296.224 276.778 296.186C276.411 295.28 276.018 293.933 275.723 292.618C276.019 293.885 276.401 295.167 276.75 296.039ZM273.85 363.555L273.653 366.301C273.188 372.468 272.708 377.843 272.38 379.227C272.265 377.248 272.355 373.281 272.547 368.672L272.63 366.855C272.67 365.874 272.734 364.853 272.779 363.832L272.853 362.353C273.152 356.713 273.499 350.987 273.755 347.219L274.939 347.306C274.672 351.296 274.279 357.584 273.85 363.555ZM276.536 319.162L276.472 320.387C276.46 320.63 276.46 320.868 276.444 321.116L276.355 322.838C276.087 328.546 275.682 335.026 275.394 339.774L275.373 340.32C275.343 340.582 275.335 340.847 275.311 341.109L274.123 341.034C274.149 340.722 274.177 340.412 274.189 340.082L274.227 339.543C274.459 335.693 274.78 330.773 275.124 326.006L275.276 324.14C275.417 322.229 275.581 320.374 275.715 318.671L275.827 317.543C276.114 314.43 276.402 311.851 276.663 310.397C276.796 311.488 276.708 314.871 276.536 319.162ZM279.19 372.229C278.819 372.593 278.468 372.991 278.109 373.375C278.273 371.857 278.448 370.321 278.59 368.789C279.249 365.694 279.906 350.799 280.024 348.029H286.948C287.598 350.275 288.219 352.403 288.805 354.311V357.353L279.19 372.229ZM313.965 341.361C313.789 338.411 313.56 334.925 313.271 331.5H339.627C339.627 331.503 339.627 331.503 339.627 331.507C339.25 334.668 338.877 338.039 338.52 341.365C332.848 341.365 328.37 341.365 327.01 341.369C325.531 341.365 320.356 341.365 313.965 341.361ZM358.564 389.707C355.455 387.147 355.626 384.053 351.906 382.209C351.356 380.977 351.051 375.123 353.115 368.054C355.975 367.845 357.823 367.515 359.008 367.136V383.275H360.096V391.248C359.635 390.697 359.129 390.174 358.564 389.707ZM373.376 341.373C372.312 341.369 369.979 341.369 366.898 341.365C367.241 339.939 367.538 338.558 367.707 337.493C368.014 335.574 370.441 326.223 372.245 319.549C372.5 323.721 373.462 339.458 373.537 341.361L373.376 341.373Z" fill="#D6D1CC"/>
<path d="M262.41 180.782C262.41 180.782 265.483 192.996 263.694 202.159C263.694 202.159 273.91 220.475 274.675 222.766C275.443 225.053 286.429 258.903 287.2 260.428C287.96 261.954 292.561 271.373 292.815 287.911C293.073 304.448 292.815 321.499 292.815 321.499C292.815 321.499 295.624 334.474 298.429 340.839C301.247 347.203 310.184 369.084 312.23 371.375C312.85 372.074 322.786 390.829 330.557 405.919L230.797 406.007C229.709 401.497 227.547 386.727 220.015 382.955C204.589 375.221 201.356 367.557 198.286 363.998C195.221 360.432 178.877 342.105 175.04 340.076C171.209 338.038 135.445 314.883 134.421 314.115C133.401 313.358 125.994 310.809 125.994 310.809C125.994 310.809 120.63 306.235 121.648 301.14C121.648 301.14 118.329 293.761 126.503 292.485C126.503 292.485 132.381 290.451 134.42 290.711C136.46 290.965 159.206 288.419 159.206 288.419L158.948 279.107H135.186C135.186 279.107 133.913 283.325 127.266 282.312C120.628 281.291 121.14 277.728 122.16 276.202C122.16 276.202 117.221 274.983 120.983 262.206C122.336 257.597 127.52 255.591 127.52 255.591C127.52 255.591 120.221 255.082 119.909 249.996C119.6 244.912 119.909 248.718 119.909 248.718C119.909 248.718 115.261 245.413 121.14 237.779C121.14 237.779 125.479 226.074 134.165 227.095L145.661 227.349L135.185 224.296C135.185 224.296 121.575 220.989 118.16 218.446C114.754 215.897 112.703 209.788 113.984 205.976C115.259 202.158 125.478 199.868 125.478 199.868C125.478 199.868 134.935 198.844 137.23 199.868C139.527 200.884 242.805 244.394 242.805 244.394C242.805 244.394 250.408 247.455 251.173 248.717C251.173 248.717 248.608 236.758 248.868 234.977C249.128 233.201 248.358 231.675 248.358 230.656C248.358 229.635 242.804 223.532 242.804 223.532V192.737C242.804 192.737 248.101 180.781 255.253 180.781C262.404 180.781 261.129 182.053 261.129 182.053L262.41 180.782Z" fill="#F7B1A1"/>
<path d="M243.424 244.651L251.166 248.285V254.658C251.166 254.658 253.84 262.626 253.84 264.752C253.84 266.876 247.948 276.966 243.424 283.345V244.651Z" fill="#BA8A80"/>
<path d="M241.197 334.031C241.197 334.031 238.878 336.352 235.766 336.352C232.673 336.352 191.198 336.352 191.198 336.352C191.198 336.352 210.576 348.319 223.756 345.999C236.932 343.685 241.197 334.031 241.197 334.031Z" fill="#C6978F"/>
<path d="M235.767 336.353H141.056C136.846 336.353 133.404 332.92 133.404 328.729V124.301C133.404 120.106 136.846 116.679 141.056 116.679H235.767C239.979 116.679 243.424 120.106 243.424 124.301V328.729C243.424 332.92 239.979 336.353 235.767 336.353Z" fill="#1D1D1B"/>
<path d="M235.534 125.029H139.82V328.717H235.534V125.029Z" fill="white"/>
<path d="M235.713 125.139H139.82V226.243H235.713V125.139Z" fill="#EAE5E2"/>
<path d="M215.786 131.39H215.063V132.469H215.786V131.39Z" fill="#1A1A1A"/>
<path d="M216.964 130.823H216.242V132.469H216.964V130.823Z" fill="#1A1A1A"/>
<path d="M218.147 130.275H217.423V132.469H218.147V130.275Z" fill="#1A1A1A"/>
<path d="M219.324 129.812H218.602V132.469H219.324V129.812Z" fill="#1A1A1A"/>
<path d="M230.647 130.339H226.799V131.784H230.647V130.339Z" fill="#1A1A1A"/>
<path d="M231.113 129.778H226.376V132.346H231.113V129.778Z" stroke="#1A1A1A" stroke-width="0.2233" stroke-miterlimit="10"/>
<path d="M231.703 130.565H231.368V131.557H231.703V130.565Z" fill="#1A1A1A"/>
<path d="M146.365 130.791C146.365 131.329 146.257 131.73 146.039 131.995C145.821 132.26 145.494 132.392 145.057 132.392C144.891 132.392 144.772 132.382 144.7 132.362V131.994C144.811 132.025 144.923 132.041 145.035 132.041C145.333 132.041 145.555 131.961 145.701 131.802C145.847 131.643 145.927 131.393 145.94 131.052H145.918C145.845 131.164 145.756 131.245 145.651 131.295C145.546 131.345 145.424 131.37 145.285 131.37C145.042 131.37 144.851 131.295 144.713 131.144C144.574 130.994 144.505 130.787 144.505 130.524C144.505 130.239 144.585 130.012 144.746 129.843C144.906 129.675 145.125 129.59 145.402 129.59C145.597 129.59 145.767 129.637 145.913 129.732C146.058 129.826 146.17 129.963 146.248 130.144C146.326 130.323 146.365 130.539 146.365 130.791ZM145.409 129.954C145.257 129.954 145.139 130.003 145.058 130.102C144.977 130.201 144.936 130.34 144.936 130.519C144.936 130.675 144.974 130.797 145.05 130.886C145.125 130.975 145.239 131.019 145.394 131.019C145.542 131.019 145.667 130.975 145.769 130.887C145.87 130.799 145.92 130.695 145.92 130.577C145.92 130.466 145.899 130.363 145.856 130.266C145.813 130.17 145.752 130.093 145.675 130.037C145.598 129.982 145.51 129.954 145.409 129.954Z" fill="black"/>
<path d="M146.783 130.527C146.783 130.339 146.876 130.245 147.06 130.245C147.154 130.245 147.224 130.27 147.27 130.32C147.317 130.37 147.339 130.439 147.339 130.528C147.339 130.617 147.316 130.686 147.267 130.738C147.219 130.79 147.15 130.815 147.06 130.815C146.97 130.815 146.902 130.79 146.854 130.739C146.808 130.687 146.783 130.617 146.783 130.527ZM146.783 132.122C146.783 132.031 146.807 131.961 146.854 131.913C146.902 131.864 146.97 131.84 147.06 131.84C147.152 131.84 147.221 131.865 147.268 131.916C147.316 131.966 147.339 132.035 147.339 132.122C147.339 132.21 147.316 132.28 147.267 132.332C147.219 132.384 147.15 132.41 147.06 132.41C146.97 132.41 146.902 132.385 146.854 132.333C146.808 132.282 146.783 132.211 146.783 132.122Z" fill="black"/>
<path d="M149.714 131.759H149.345V132.355H148.915V131.759H147.663V131.421L148.915 129.617H149.345V131.395H149.714V131.759ZM148.915 131.396V130.71C148.915 130.466 148.921 130.267 148.934 130.111H148.919C148.884 130.193 148.829 130.293 148.754 130.41L148.073 131.396H148.915Z" fill="black"/>
<path d="M151.243 132.355H150.803V130.592C150.803 130.382 150.808 130.215 150.818 130.092C150.79 130.122 150.755 130.154 150.713 130.191C150.671 130.228 150.53 130.342 150.292 130.535L150.071 130.257L150.877 129.626H151.244V132.355H151.243Z" fill="black"/>
<path d="M178.498 151.03L175.364 159.435H172.23L175.364 151.03H178.498Z" fill="white"/>
<path d="M175.364 151.03L172.23 159.435H169.098L172.23 151.03H175.364Z" fill="white"/>
<path d="M181.629 151.03L178.498 159.435H175.364L178.498 151.03H181.629Z" fill="#E7BDDA"/>
<path d="M184.762 151.03L181.629 159.435H178.498L181.629 151.03H184.762Z" fill="#96714C"/>
<path d="M187.896 151.03L184.762 159.435H181.629L184.762 151.03H187.896Z" fill="white"/>
<path d="M191.029 151.03L187.896 159.435H184.762L187.896 151.03H191.029Z" fill="#80B776"/>
<path d="M194.16 151.03L191.029 159.435H187.896L191.029 151.03H194.16Z" fill="white"/>
<path d="M206.69 151.03L203.559 159.435H200.426L203.559 151.03H206.69Z" fill="white"/>
<path d="M197.296 151.03L194.162 159.435H191.029L194.162 151.03H197.296Z" fill="#4FAAE0"/>
<path d="M200.428 151.03L197.296 159.435H194.162L197.296 151.03H200.428Z" fill="white"/>
<path d="M203.561 151.03L200.428 159.435H197.296L200.428 151.03H203.561Z" fill="#F6A500"/>
<path d="M206.69 151.03L203.561 159.435H200.428L203.561 151.03H206.69Z" fill="#AC95B6"/>
<path d="M209.826 151.03L206.69 159.435H203.561L206.69 151.03H209.826Z" fill="white"/>
<path d="M212.956 151.03L209.826 159.435H206.69L209.826 151.03H212.956Z" fill="#E3032E"/>
<path d="M216.093 151.03L212.956 159.435H209.826L212.956 151.03H216.093Z" fill="white"/>
<path d="M219.225 151.03L216.093 159.435H212.96L216.093 151.03H219.225Z" fill="#D6B86B"/>
<path d="M222.358 151.03L219.225 159.435H216.093L219.225 151.03H222.358Z" fill="white"/>
<path d="M225.492 151.03L222.356 159.435H219.225L222.356 151.03H225.492Z" fill="white"/>
<path d="M228.623 151.03L225.488 159.435H222.358L225.488 151.03H228.623Z" fill="#49BBC3"/>
<path d="M231.757 151.03L228.623 159.435H225.492L228.623 151.03H231.757Z" fill="#D2D700"/>
<path d="M156.563 151.03L159.698 159.435H162.832L159.698 151.03H156.563Z" fill="#42A5DD"/>
<path d="M165.777 148.629C165.777 147.728 166.493 146.962 167.531 146.962C168.57 146.962 169.286 147.728 169.286 148.629C169.286 149.532 168.57 150.313 167.531 150.313C166.493 150.313 165.777 149.532 165.777 148.629Z" fill="#E12747"/>
<path d="M169.098 151.03V159.435L172.23 151.03H169.098Z" fill="#96C5E1"/>
<path d="M169.098 151.03H165.964V159.435L169.098 151.03Z" fill="#E12747"/>
<path d="M165.964 159.435H169.098V151.03L165.964 159.435Z" fill="#6D2F4C"/>
<path d="M156.563 151.03V159.435L159.698 151.03H156.563Z" fill="#96C5E1"/>
<path d="M156.563 151.03H153.432V159.435H153.434L156.563 151.03Z" fill="#E12747"/>
<path d="M153.434 159.435H156.563V151.03L153.434 159.435Z" fill="#6D2F4C"/>
<path d="M147.169 159.435C146.885 160.192 146.483 160.39 145.825 160.39C145.395 160.39 145.06 160.324 144.734 160.221L144.682 162.47C145.12 162.588 145.683 162.637 146.175 162.637C148.361 162.637 149.389 161.882 150.048 160.116L150.299 159.435H147.169Z" fill="#E12747"/>
<path d="M156.563 151.03L159.698 159.435H162.832L159.698 151.03H156.563Z" fill="#E12747"/>
<path d="M153.245 148.629C153.245 147.728 153.959 146.962 154.999 146.962C156.039 146.962 156.756 147.728 156.756 148.629C156.756 149.532 156.039 150.313 154.999 150.313C153.959 150.313 153.245 149.532 153.245 148.629Z" fill="#E12747"/>
<path d="M162.832 151.03L161.267 155.233L162.832 159.435L165.964 151.03H162.832Z" fill="#6D2F4C"/>
<path d="M150.3 151.03L148.734 155.233L150.3 159.435L153.432 151.03H150.3Z" fill="#6D2F4C"/>
<path d="M144.031 151.03L147.169 159.435H150.3L147.169 151.03H144.031Z" fill="#E12747"/>
<path d="M147.169 151.03H144.031L145.601 155.233L147.169 151.03Z" fill="#6D2F4C"/>
<path d="M159.698 159.435H162.832L161.267 155.233L159.698 159.435Z" fill="#BA3555"/>
<path d="M171.986 191.651C171.986 190.763 172.71 190.045 173.596 190.045C174.488 190.045 175.208 190.764 175.208 191.651C175.208 192.537 174.487 193.257 173.596 193.257C172.71 193.258 171.986 192.537 171.986 191.651Z" fill="#484747" stroke="#323131" stroke-width="0.2554" stroke-miterlimit="10"/>
<path d="M180.839 193.257C181.729 193.257 182.451 192.538 182.451 191.651C182.451 190.764 181.729 190.045 180.839 190.045C179.949 190.045 179.227 190.764 179.227 191.651C179.227 192.538 179.949 193.257 180.839 193.257Z" fill="#484747" stroke="#323131" stroke-width="0.2554" stroke-miterlimit="10"/>
<path d="M188.082 193.257C188.972 193.257 189.694 192.538 189.694 191.651C189.694 190.764 188.972 190.045 188.082 190.045C187.192 190.045 186.47 190.764 186.47 191.651C186.47 192.538 187.192 193.257 188.082 193.257Z" fill="#484747" stroke="#323131" stroke-width="0.2554" stroke-miterlimit="10"/>
<path d="M193.711 191.651C193.711 190.763 194.431 190.045 195.321 190.045C196.215 190.045 196.935 190.764 196.935 191.651C196.935 192.537 196.214 193.257 195.321 193.257C194.431 193.258 193.711 192.537 193.711 191.651Z" fill="white" stroke="#323131" stroke-width="0.2554" stroke-miterlimit="10"/>
<path d="M202.562 193.257C203.453 193.257 204.175 192.538 204.175 191.651C204.175 190.764 203.453 190.045 202.562 190.045C201.671 190.045 200.949 190.764 200.949 191.651C200.949 192.538 201.671 193.257 202.562 193.257Z" fill="white" stroke="#323131" stroke-width="0.2554" stroke-miterlimit="10"/>
<path d="M169.572 180.345H170.236L169.18 183.439H168.462L167.408 180.345H168.073L168.657 182.186C168.689 182.294 168.723 182.421 168.758 182.565C168.793 182.71 168.815 182.81 168.823 182.867C168.839 182.737 168.891 182.51 168.982 182.186L169.572 180.345Z" fill="#484747"/>
<path d="M172.734 182.252C172.734 182.637 172.632 182.938 172.428 183.155C172.224 183.372 171.94 183.481 171.576 183.481C171.347 183.481 171.146 183.431 170.972 183.332C170.797 183.232 170.663 183.09 170.571 182.904C170.477 182.717 170.43 182.5 170.43 182.252C170.43 181.865 170.532 181.565 170.734 181.351C170.937 181.137 171.221 181.029 171.588 181.029C171.816 181.029 172.017 181.078 172.192 181.177C172.366 181.276 172.5 181.418 172.593 181.602C172.688 181.787 172.734 182.003 172.734 182.252ZM171.093 182.252C171.093 182.486 171.131 182.663 171.208 182.783C171.285 182.903 171.411 182.963 171.585 182.963C171.758 182.963 171.883 182.903 171.958 182.784C172.034 182.665 172.072 182.487 172.072 182.252C172.072 182.018 172.033 181.842 171.957 181.725C171.881 181.608 171.755 181.549 171.581 181.549C171.408 181.549 171.283 181.607 171.207 181.724C171.131 181.84 171.093 182.016 171.093 182.252Z" fill="#484747"/>
<path d="M174.345 183.481C173.962 183.481 173.663 183.376 173.449 183.166C173.233 182.956 173.126 182.658 173.126 182.273C173.126 181.877 173.226 181.57 173.425 181.354C173.624 181.138 173.899 181.029 174.25 181.029C174.586 181.029 174.847 181.124 175.034 181.315C175.221 181.505 175.314 181.769 175.314 182.104V182.417H173.782C173.79 182.6 173.844 182.744 173.946 182.847C174.048 182.95 174.191 183.001 174.375 183.001C174.519 183.001 174.653 182.986 174.781 182.957C174.908 182.927 175.042 182.88 175.18 182.815V183.314C175.067 183.371 174.946 183.413 174.817 183.44C174.688 183.468 174.53 183.481 174.345 183.481ZM174.253 181.488C174.116 181.488 174.008 181.531 173.931 181.618C173.853 181.705 173.808 181.828 173.797 181.987H174.706C174.703 181.828 174.661 181.705 174.58 181.618C174.5 181.531 174.391 181.488 174.253 181.488Z" fill="#484747"/>
<path d="M177.165 181.029C177.253 181.029 177.326 181.035 177.385 181.048L177.336 181.653C177.283 181.639 177.22 181.632 177.145 181.632C176.938 181.632 176.777 181.685 176.662 181.791C176.547 181.897 176.489 182.045 176.489 182.235V183.439H175.841V181.073H176.332L176.427 181.471H176.459C176.532 181.338 176.632 181.231 176.758 181.15C176.882 181.069 177.019 181.029 177.165 181.029Z" fill="#484747"/>
<path d="M178.754 184.48C178.589 184.48 178.446 184.462 178.327 184.427V183.919C178.427 183.946 178.527 183.959 178.631 183.959C178.74 183.959 178.819 183.929 178.87 183.868C178.92 183.807 178.945 183.718 178.945 183.599V181.073H179.593V183.695C179.593 183.946 179.52 184.14 179.373 184.276C179.229 184.412 179.021 184.48 178.754 184.48ZM178.918 180.462C178.918 180.252 179.035 180.147 179.271 180.147C179.507 180.147 179.624 180.252 179.624 180.462C179.624 180.562 179.595 180.64 179.536 180.695C179.477 180.751 179.389 180.779 179.271 180.779C179.035 180.779 178.918 180.673 178.918 180.462Z" fill="#484747"/>
<path d="M181.349 183.481C180.966 183.481 180.667 183.376 180.453 183.166C180.237 182.956 180.13 182.658 180.13 182.273C180.13 181.877 180.23 181.57 180.429 181.354C180.628 181.138 180.903 181.029 181.254 181.029C181.59 181.029 181.851 181.124 182.038 181.315C182.225 181.505 182.318 181.769 182.318 182.104V182.417H180.786C180.794 182.6 180.848 182.744 180.95 182.847C181.052 182.95 181.195 183.001 181.379 183.001C181.523 183.001 181.657 182.986 181.785 182.957C181.912 182.927 182.046 182.88 182.184 182.815V183.314C182.071 183.371 181.95 183.413 181.821 183.44C181.691 183.468 181.534 183.481 181.349 183.481ZM181.257 181.488C181.12 181.488 181.012 181.531 180.935 181.618C180.857 181.705 180.812 181.828 180.801 181.987H181.71C181.707 181.828 181.665 181.705 181.584 181.618C181.504 181.531 181.395 181.488 181.257 181.488Z" fill="#484747"/>
<path d="M183.634 181.073H184.344L184.792 182.404C184.83 182.52 184.856 182.656 184.87 182.815H184.883C184.899 182.669 184.929 182.533 184.975 182.404L185.414 181.073H186.108L185.103 183.741C185.011 183.988 184.88 184.173 184.709 184.295C184.538 184.417 184.339 184.479 184.11 184.479C183.999 184.479 183.888 184.467 183.781 184.443V183.931C183.859 183.949 183.944 183.958 184.036 183.958C184.151 183.958 184.251 183.923 184.337 183.854C184.423 183.785 184.489 183.679 184.538 183.538L184.576 183.421L183.634 181.073Z" fill="#484747"/>
<path d="M186.421 180.462C186.421 180.252 186.538 180.147 186.774 180.147C187.01 180.147 187.127 180.252 187.127 180.462C187.127 180.562 187.098 180.64 187.039 180.695C186.98 180.751 186.892 180.779 186.774 180.779C186.538 180.779 186.421 180.673 186.421 180.462ZM187.097 183.439H186.449V181.073H187.097V183.439Z" fill="#484747"/>
<path d="M188.342 183.439L187.437 181.073H188.115L188.574 182.421C188.625 182.591 188.657 182.753 188.67 182.905H188.683C188.69 182.77 188.722 182.608 188.779 182.421L189.235 181.073H189.913L189.009 183.439H188.342Z" fill="#484747"/>
<path d="M190.224 180.462C190.224 180.252 190.341 180.147 190.577 180.147C190.813 180.147 190.93 180.252 190.93 180.462C190.93 180.562 190.901 180.64 190.842 180.695C190.783 180.751 190.695 180.779 190.577 180.779C190.341 180.779 190.224 180.673 190.224 180.462ZM190.899 183.439H190.251V181.073H190.899V183.439Z" fill="#484747"/>
<path d="M191.369 182.542V182.013H192.51V182.542H191.369Z" fill="#484747"/>
<path d="M193.944 183.481C193.205 183.481 192.835 183.077 192.835 182.269C192.835 181.867 192.936 181.56 193.137 181.347C193.338 181.134 193.626 181.029 194.001 181.029C194.276 181.029 194.522 181.083 194.74 181.19L194.55 181.69C194.447 181.649 194.353 181.616 194.265 181.589C194.177 181.563 194.089 181.55 194.001 181.55C193.664 181.55 193.496 181.788 193.496 182.265C193.496 182.727 193.664 182.959 194.001 182.959C194.126 182.959 194.241 182.942 194.348 182.909C194.454 182.876 194.561 182.824 194.666 182.754V183.306C194.562 183.372 194.456 183.418 194.349 183.444C194.242 183.469 194.106 183.481 193.944 183.481Z" fill="#484747"/>
<path d="M197.375 182.252C197.375 182.637 197.273 182.938 197.069 183.155C196.865 183.372 196.581 183.481 196.217 183.481C195.988 183.481 195.787 183.431 195.613 183.332C195.438 183.232 195.304 183.09 195.212 182.904C195.118 182.717 195.071 182.5 195.071 182.252C195.071 181.865 195.173 181.565 195.375 181.351C195.578 181.137 195.862 181.029 196.229 181.029C196.457 181.029 196.658 181.078 196.833 181.177C197.007 181.276 197.141 181.418 197.234 181.602C197.328 181.787 197.375 182.003 197.375 182.252ZM195.733 182.252C195.733 182.486 195.771 182.663 195.848 182.783C195.925 182.903 196.051 182.963 196.225 182.963C196.398 182.963 196.523 182.903 196.598 182.784C196.674 182.665 196.712 182.487 196.712 182.252C196.712 182.018 196.673 181.842 196.597 181.725C196.521 181.608 196.395 181.549 196.221 181.549C196.048 181.549 195.923 181.607 195.847 181.724C195.771 181.84 195.733 182.016 195.733 182.252Z" fill="#484747"/>
<path d="M198.662 183.481C198.383 183.481 198.164 183.373 198.005 183.157C197.846 182.941 197.766 182.642 197.766 182.26C197.766 181.872 197.847 181.57 198.009 181.353C198.171 181.137 198.395 181.028 198.68 181.028C198.979 181.028 199.206 181.144 199.364 181.375H199.385C199.352 181.199 199.336 181.042 199.336 180.903V180.146H199.985V183.438H199.488L199.363 183.131H199.336C199.188 183.365 198.964 183.481 198.662 183.481ZM198.89 182.967C199.056 182.967 199.177 182.919 199.254 182.823C199.331 182.727 199.373 182.564 199.38 182.334V182.264C199.38 182.01 199.341 181.828 199.263 181.718C199.184 181.608 199.056 181.553 198.879 181.553C198.734 181.553 198.622 181.614 198.542 181.736C198.462 181.858 198.422 182.035 198.422 182.268C198.422 182.5 198.463 182.675 198.543 182.791C198.624 182.909 198.739 182.967 198.89 182.967Z" fill="#484747"/>
<path d="M201.738 183.481C201.355 183.481 201.056 183.376 200.842 183.166C200.626 182.956 200.519 182.658 200.519 182.273C200.519 181.877 200.619 181.57 200.818 181.354C201.017 181.138 201.292 181.029 201.643 181.029C201.979 181.029 202.24 181.124 202.427 181.315C202.614 181.505 202.707 181.769 202.707 182.104V182.417H201.175C201.183 182.6 201.237 182.744 201.339 182.847C201.441 182.95 201.584 183.001 201.768 183.001C201.912 183.001 202.046 182.986 202.174 182.957C202.301 182.927 202.435 182.88 202.573 182.815V183.314C202.46 183.371 202.339 183.413 202.21 183.44C202.081 183.468 201.924 183.481 201.738 183.481ZM201.646 181.488C201.509 181.488 201.401 181.531 201.324 181.618C201.246 181.705 201.201 181.828 201.19 181.987H202.099C202.096 181.828 202.054 181.705 201.973 181.618C201.894 181.531 201.784 181.488 201.646 181.488Z" fill="#484747"/>
<path d="M204.336 180.462C204.336 180.252 204.453 180.147 204.689 180.147C204.925 180.147 205.042 180.252 205.042 180.462C205.042 180.562 205.013 180.64 204.954 180.695C204.895 180.751 204.807 180.779 204.689 180.779C204.453 180.779 204.336 180.673 204.336 180.462ZM205.012 183.439H204.364V181.073H205.012V183.439Z" fill="#484747"/>
<path d="M207.884 183.439H207.237V182.057C207.237 181.887 207.206 181.758 207.145 181.673C207.084 181.588 206.987 181.545 206.854 181.545C206.672 181.545 206.542 181.606 206.461 181.726C206.38 181.847 206.34 182.046 206.34 182.326V183.439H205.692V181.073H206.187L206.274 181.376H206.31C206.382 181.262 206.482 181.175 206.609 181.117C206.735 181.058 206.88 181.029 207.041 181.029C207.317 181.029 207.527 181.103 207.67 181.252C207.814 181.401 207.885 181.616 207.885 181.897V183.439H207.884Z" fill="#484747"/>
<path d="M230.991 325.656H144.821C144.4 325.656 144.055 325.311 144.055 324.888V314.136C144.055 313.717 144.4 313.373 144.821 313.373H230.991C231.41 313.373 231.757 313.717 231.757 314.136V324.888C231.757 325.312 231.41 325.656 230.991 325.656Z" fill="#484747" stroke="#323131" stroke-width="0.2554" stroke-miterlimit="10"/>
<path d="M179.943 317.568H180.607L179.551 320.662H178.833L177.779 317.568H178.444L179.028 319.409C179.06 319.518 179.094 319.644 179.129 319.789C179.164 319.934 179.186 320.034 179.194 320.091C179.21 319.961 179.262 319.735 179.353 319.409L179.943 317.568Z" fill="#FAFAFA"/>
<path d="M183.105 319.475C183.105 319.861 183.003 320.162 182.799 320.379C182.595 320.596 182.311 320.704 181.947 320.704C181.718 320.704 181.517 320.654 181.343 320.556C181.168 320.456 181.034 320.313 180.942 320.127C180.848 319.94 180.801 319.724 180.801 319.475C180.801 319.089 180.903 318.788 181.105 318.574C181.308 318.36 181.592 318.253 181.959 318.253C182.187 318.253 182.388 318.303 182.563 318.401C182.737 318.5 182.871 318.641 182.964 318.826C183.059 319.01 183.105 319.227 183.105 319.475ZM181.464 319.475C181.464 319.709 181.502 319.887 181.579 320.006C181.656 320.126 181.782 320.186 181.956 320.186C182.129 320.186 182.254 320.126 182.329 320.007C182.405 319.888 182.443 319.711 182.443 319.475C182.443 319.242 182.404 319.066 182.328 318.949C182.252 318.832 182.126 318.773 181.952 318.773C181.779 318.773 181.654 318.832 181.578 318.948C181.502 319.064 181.464 319.239 181.464 319.475Z" fill="#FAFAFA"/>
<path d="M184.289 320.662H183.641V317.369H184.289V320.662Z" fill="#FAFAFA"/>
<path d="M187.036 318.297V318.624L186.664 318.72C186.732 318.825 186.766 318.945 186.766 319.075C186.766 319.329 186.677 319.527 186.499 319.669C186.321 319.811 186.075 319.881 185.759 319.881L185.643 319.875L185.547 319.864C185.481 319.915 185.447 319.971 185.447 320.033C185.447 320.127 185.565 320.173 185.803 320.173H186.206C186.467 320.173 186.666 320.23 186.802 320.341C186.939 320.452 187.007 320.615 187.007 320.831C187.007 321.107 186.892 321.322 186.66 321.475C186.428 321.628 186.096 321.704 185.662 321.704C185.331 321.704 185.078 321.646 184.903 321.531C184.728 321.417 184.64 321.256 184.64 321.048C184.64 320.905 184.685 320.786 184.774 320.691C184.863 320.596 184.995 320.527 185.168 320.486C185.101 320.458 185.043 320.412 184.993 320.347C184.943 320.282 184.919 320.215 184.919 320.143C184.919 320.053 184.945 319.978 184.998 319.917C185.05 319.857 185.126 319.799 185.225 319.74C185.101 319.686 185.001 319.6 184.929 319.482C184.856 319.364 184.82 319.224 184.82 319.063C184.82 318.805 184.904 318.605 185.073 318.464C185.241 318.322 185.482 318.252 185.795 318.252C185.861 318.252 185.941 318.258 186.032 318.27C186.123 318.283 186.181 318.291 186.207 318.297H187.036ZM185.202 320.996C185.202 321.085 185.245 321.155 185.331 321.206C185.417 321.257 185.537 321.282 185.691 321.282C185.923 321.282 186.105 321.25 186.237 321.186C186.369 321.122 186.434 321.037 186.434 320.926C186.434 320.837 186.395 320.776 186.317 320.741C186.24 320.708 186.119 320.69 185.957 320.69H185.621C185.502 320.69 185.402 320.718 185.322 320.774C185.242 320.83 185.202 320.904 185.202 320.996ZM185.438 319.071C185.438 319.199 185.467 319.3 185.526 319.376C185.585 319.45 185.674 319.487 185.795 319.487C185.917 319.487 186.006 319.45 186.063 319.376C186.12 319.301 186.148 319.199 186.148 319.071C186.148 318.786 186.031 318.643 185.795 318.643C185.558 318.644 185.438 318.786 185.438 319.071Z" fill="#FAFAFA"/>
<path d="M188.502 320.704C188.119 320.704 187.82 320.6 187.606 320.389C187.39 320.179 187.283 319.881 187.283 319.496C187.283 319.1 187.383 318.793 187.582 318.577C187.781 318.36 188.056 318.252 188.407 318.252C188.743 318.252 189.004 318.348 189.191 318.538C189.378 318.728 189.471 318.991 189.471 319.327V319.639H187.939C187.947 319.823 188.001 319.966 188.103 320.069C188.205 320.173 188.348 320.223 188.532 320.223C188.676 320.223 188.81 320.208 188.938 320.179C189.065 320.15 189.199 320.102 189.337 320.037V320.536C189.224 320.593 189.103 320.635 188.974 320.662C188.845 320.689 188.688 320.704 188.502 320.704ZM188.41 318.711C188.273 318.711 188.165 318.755 188.088 318.841C188.01 318.928 187.965 319.051 187.954 319.211H188.863C188.86 319.051 188.818 318.928 188.737 318.841C188.657 318.755 188.548 318.711 188.41 318.711Z" fill="#FAFAFA"/>
<path d="M192.189 320.662H191.542V319.28C191.542 319.109 191.511 318.981 191.45 318.896C191.389 318.81 191.292 318.768 191.159 318.768C190.977 318.768 190.847 318.828 190.766 318.949C190.685 319.069 190.645 319.269 190.645 319.549V320.662H189.997V318.297H190.492L190.579 318.599H190.615C190.687 318.485 190.787 318.399 190.914 318.34C191.04 318.281 191.185 318.252 191.346 318.252C191.622 318.252 191.832 318.326 191.975 318.476C192.119 318.624 192.19 318.839 192.19 319.12V320.662H192.189Z" fill="#FAFAFA"/>
<path d="M193.608 320.704C193.329 320.704 193.11 320.597 192.951 320.381C192.792 320.165 192.712 319.866 192.712 319.484C192.712 319.096 192.793 318.794 192.955 318.578C193.117 318.361 193.341 318.253 193.626 318.253C193.925 318.253 194.152 318.368 194.31 318.6H194.331C194.298 318.424 194.282 318.267 194.282 318.128V317.37H194.931V320.663H194.434L194.309 320.356H194.282C194.135 320.588 193.91 320.704 193.608 320.704ZM193.836 320.19C194.002 320.19 194.123 320.142 194.2 320.045C194.277 319.949 194.319 319.786 194.326 319.557V319.487C194.326 319.233 194.287 319.051 194.209 318.941C194.13 318.832 194.002 318.776 193.825 318.776C193.68 318.776 193.568 318.838 193.488 318.96C193.408 319.082 193.368 319.259 193.368 319.492C193.368 319.724 193.409 319.899 193.489 320.015C193.57 320.132 193.686 320.19 193.836 320.19Z" fill="#FAFAFA"/>
<path d="M196.685 320.704C196.302 320.704 196.003 320.6 195.789 320.389C195.573 320.179 195.466 319.881 195.466 319.496C195.466 319.1 195.566 318.793 195.765 318.577C195.964 318.36 196.239 318.252 196.59 318.252C196.926 318.252 197.187 318.348 197.374 318.538C197.561 318.728 197.654 318.991 197.654 319.327V319.639H196.122C196.13 319.823 196.184 319.966 196.286 320.069C196.388 320.173 196.531 320.223 196.715 320.223C196.859 320.223 196.993 320.208 197.121 320.179C197.248 320.15 197.382 320.102 197.52 320.037V320.536C197.407 320.593 197.286 320.635 197.157 320.662C197.028 320.689 196.87 320.704 196.685 320.704ZM196.593 318.711C196.456 318.711 196.348 318.755 196.271 318.841C196.193 318.928 196.148 319.051 196.137 319.211H197.046C197.043 319.051 197.001 318.928 196.92 318.841C196.84 318.755 196.73 318.711 196.593 318.711Z" fill="#FAFAFA"/>
<path d="M163.97 240.596H163.363V236.705C163.363 236.381 163.373 236.075 163.393 235.786C163.34 235.839 163.282 235.893 163.216 235.95C163.152 236.008 162.854 236.25 162.324 236.679L161.994 236.253L163.444 235.137H163.969V240.596H163.97Z" fill="#484747"/>
<path d="M189.593 240.596H185.99V240.062L187.433 238.617C187.872 238.175 188.162 237.858 188.302 237.669C188.443 237.48 188.547 237.296 188.617 237.116C188.687 236.937 188.721 236.744 188.721 236.538C188.721 236.246 188.633 236.016 188.455 235.845C188.277 235.675 188.031 235.589 187.717 235.589C187.489 235.589 187.274 235.627 187.07 235.701C186.867 235.776 186.64 235.912 186.39 236.108L186.06 235.686C186.565 235.268 187.115 235.058 187.709 235.058C188.224 235.058 188.627 235.19 188.92 235.453C189.212 235.716 189.358 236.068 189.358 236.512C189.358 236.858 189.26 237.2 189.066 237.538C188.871 237.877 188.505 238.306 187.971 238.823L186.771 239.992V240.021H189.59V240.596H189.593Z" fill="#484747"/>
<path d="M213.433 236.421C213.433 236.77 213.334 237.055 213.139 237.276C212.943 237.498 212.664 237.645 212.304 237.72V237.749C212.744 237.804 213.071 237.943 213.283 238.168C213.496 238.392 213.602 238.686 213.602 239.049C213.602 239.57 213.42 239.97 213.058 240.249C212.696 240.529 212.181 240.669 211.513 240.669C211.223 240.669 210.958 240.648 210.717 240.605C210.476 240.561 210.241 240.485 210.014 240.375V239.785C210.251 239.902 210.504 239.991 210.773 240.053C211.042 240.114 211.296 240.144 211.536 240.144C212.483 240.144 212.957 239.775 212.957 239.036C212.957 238.374 212.435 238.043 211.391 238.043H210.851V237.509H211.398C211.826 237.509 212.165 237.415 212.415 237.227C212.665 237.039 212.79 236.779 212.79 236.445C212.79 236.178 212.698 235.969 212.514 235.818C212.33 235.666 212.081 235.589 211.767 235.589C211.527 235.589 211.3 235.622 211.088 235.687C210.875 235.751 210.633 235.871 210.36 236.045L210.046 235.627C210.271 235.45 210.529 235.311 210.823 235.21C211.117 235.109 211.427 235.059 211.751 235.059C212.283 235.059 212.697 235.181 212.992 235.423C213.285 235.665 213.433 235.998 213.433 236.421Z" fill="#484747"/>
<path d="M165.525 261.236H164.712V262.491H164.115V261.236H161.45V260.695L164.052 257.002H164.712V260.673H165.525V261.236ZM164.115 260.673V258.858C164.115 258.503 164.128 258.1 164.153 257.652H164.123C164.003 257.891 163.891 258.09 163.786 258.246L162.072 260.674H164.115V260.673Z" fill="#484747"/>
<path d="M187.703 259.156C188.28 259.156 188.735 259.299 189.066 259.584C189.397 259.869 189.562 260.26 189.562 260.755C189.562 261.32 189.381 261.763 189.021 262.084C188.66 262.405 188.162 262.565 187.527 262.565C186.91 262.565 186.438 262.467 186.114 262.27V261.673C186.289 261.784 186.506 261.872 186.766 261.936C187.026 261.999 187.282 262.032 187.534 262.032C187.974 262.032 188.316 261.928 188.559 261.721C188.803 261.515 188.925 261.216 188.925 260.825C188.925 260.063 188.456 259.682 187.519 259.682C187.282 259.682 186.964 259.718 186.567 259.789L186.245 259.584L186.451 257.03H189.177V257.601H186.984L186.845 259.24C187.132 259.186 187.418 259.156 187.703 259.156Z" fill="#484747"/>
<path d="M210.1 260.157C210.1 259.084 210.309 258.282 210.728 257.751C211.147 257.22 211.766 256.953 212.585 256.953C212.867 256.953 213.09 256.977 213.253 257.024V257.558C213.061 257.496 212.84 257.464 212.593 257.464C212.006 257.464 211.557 257.647 211.247 258.011C210.936 258.376 210.767 258.949 210.737 259.731H210.782C211.056 259.303 211.492 259.089 212.087 259.089C212.579 259.089 212.967 259.236 213.251 259.533C213.534 259.829 213.676 260.231 213.676 260.739C213.676 261.306 213.521 261.753 213.209 262.077C212.898 262.402 212.478 262.564 211.948 262.564C211.381 262.564 210.93 262.352 210.598 261.928C210.266 261.505 210.1 260.914 210.1 260.157ZM211.94 262.039C212.294 262.039 212.571 261.928 212.766 261.705C212.962 261.482 213.061 261.16 213.061 260.74C213.061 260.379 212.969 260.094 212.788 259.888C212.605 259.681 212.333 259.577 211.971 259.577C211.745 259.577 211.539 259.624 211.352 259.716C211.165 259.808 211.015 259.935 210.905 260.097C210.794 260.259 210.738 260.427 210.738 260.601C210.738 260.858 210.788 261.096 210.887 261.318C210.988 261.54 211.129 261.715 211.313 261.844C211.496 261.975 211.705 262.039 211.94 262.039Z" fill="#484747"/>
<path d="M162.357 284.388L164.628 279.5H161.641V278.929H165.288V279.425L163.046 284.388H162.357Z" fill="#484747"/>
<path d="M187.805 278.85C188.305 278.85 188.701 278.966 188.993 279.198C189.285 279.429 189.431 279.75 189.431 280.158C189.431 280.427 189.347 280.672 189.18 280.893C189.012 281.115 188.744 281.316 188.377 281.497C188.822 281.709 189.139 281.932 189.325 282.164C189.513 282.396 189.606 282.666 189.606 282.973C189.606 283.426 189.448 283.787 189.13 284.058C188.813 284.328 188.377 284.462 187.825 284.462C187.24 284.462 186.79 284.335 186.475 284.08C186.16 283.824 186.002 283.463 186.002 282.995C186.002 282.37 186.385 281.884 187.149 281.535C186.804 281.341 186.556 281.131 186.407 280.905C186.257 280.68 186.182 280.428 186.182 280.149C186.182 279.753 186.328 279.438 186.622 279.203C186.919 278.968 187.312 278.85 187.805 278.85ZM186.62 283.01C186.62 283.309 186.724 283.541 186.932 283.708C187.141 283.875 187.434 283.958 187.812 283.958C188.184 283.958 188.474 283.871 188.681 283.697C188.889 283.522 188.993 283.283 188.993 282.979C188.993 282.738 188.895 282.523 188.7 282.335C188.506 282.147 188.166 281.965 187.68 281.788C187.308 281.947 187.037 282.123 186.87 282.316C186.704 282.51 186.62 282.741 186.62 283.01ZM187.797 279.354C187.485 279.354 187.239 279.428 187.063 279.578C186.885 279.727 186.796 279.927 186.796 280.176C186.796 280.405 186.87 280.602 187.018 280.766C187.166 280.93 187.438 281.094 187.835 281.259C188.192 281.11 188.445 280.948 188.594 280.777C188.742 280.606 188.817 280.405 188.817 280.176C188.817 279.924 188.727 279.725 188.546 279.576C188.365 279.427 188.114 279.354 187.797 279.354Z" fill="#484747"/>
<path d="M189.623 303.312C189.623 304.255 189.474 304.96 189.175 305.425C188.876 305.891 188.419 306.123 187.805 306.123C187.215 306.123 186.767 305.885 186.459 305.408C186.151 304.931 185.998 304.232 185.998 303.311C185.998 302.36 186.146 301.655 186.443 301.194C186.741 300.734 187.194 300.504 187.804 300.504C188.399 300.504 188.851 300.744 189.159 301.225C189.467 301.706 189.623 302.4 189.623 303.312ZM186.627 303.312C186.627 304.106 186.721 304.684 186.908 305.046C187.095 305.408 187.394 305.59 187.804 305.59C188.219 305.59 188.519 305.406 188.705 305.039C188.891 304.672 188.984 304.096 188.984 303.311C188.984 302.526 188.891 301.953 188.705 301.588C188.518 301.223 188.219 301.04 187.804 301.04C187.394 301.04 187.095 301.221 186.908 301.58C186.721 301.939 186.627 302.518 186.627 303.312Z" fill="#484747"/>
<path d="M213.639 281.259C213.639 283.395 212.809 284.462 211.15 284.462C210.86 284.462 210.63 284.438 210.461 284.388V283.854C210.66 283.919 210.888 283.952 211.143 283.952C211.744 283.952 212.196 283.766 212.502 283.397C212.808 283.027 212.975 282.46 213.002 281.696H212.957C212.82 281.903 212.638 282.06 212.41 282.169C212.182 282.278 211.927 282.331 211.641 282.331C211.156 282.331 210.771 282.186 210.487 281.898C210.202 281.609 210.059 281.206 210.059 280.688C210.059 280.12 210.218 279.672 210.537 279.343C210.856 279.015 211.275 278.85 211.795 278.85C212.168 278.85 212.493 278.946 212.772 279.136C213.051 279.326 213.265 279.604 213.416 279.969C213.563 280.333 213.639 280.763 213.639 281.259ZM211.794 279.38C211.437 279.38 211.161 279.495 210.966 279.724C210.771 279.953 210.673 280.272 210.673 280.68C210.673 281.038 210.764 281.321 210.944 281.526C211.124 281.731 211.397 281.835 211.765 281.835C211.992 281.835 212.202 281.788 212.393 281.696C212.583 281.604 212.735 281.478 212.844 281.319C212.954 281.16 213.009 280.993 213.009 280.818C213.009 280.557 212.958 280.316 212.856 280.094C212.754 279.872 212.61 279.698 212.426 279.571C212.242 279.444 212.031 279.38 211.794 279.38Z" fill="#484747"/>
<path d="M186.345 246.714L186.027 245.903H185.003L184.688 246.714H184.387L185.398 244.155H185.649L186.655 246.714H186.345ZM185.934 245.637L185.637 244.848C185.598 244.748 185.559 244.625 185.518 244.48C185.493 244.592 185.456 244.714 185.408 244.848L185.107 245.637H185.934Z" fill="#484747"/>
<path d="M187.005 244.166H187.728C188.068 244.166 188.313 244.217 188.464 244.317C188.615 244.419 188.692 244.578 188.692 244.796C188.692 244.947 188.65 245.071 188.565 245.17C188.481 245.268 188.357 245.332 188.195 245.36V245.378C188.584 245.444 188.778 245.648 188.778 245.988C188.778 246.216 188.701 246.393 188.546 246.521C188.392 246.649 188.176 246.712 187.899 246.712H187.006V244.166H187.005ZM187.303 245.257H187.792C188.002 245.257 188.153 245.225 188.245 245.158C188.338 245.093 188.384 244.982 188.384 244.826C188.384 244.683 188.332 244.581 188.23 244.517C188.128 244.453 187.964 244.421 187.741 244.421H187.303V245.257ZM187.303 245.508V246.461H187.836C188.042 246.461 188.198 246.422 188.302 246.342C188.406 246.263 188.459 246.138 188.459 245.968C188.459 245.81 188.405 245.695 188.299 245.619C188.193 245.545 188.029 245.508 187.812 245.508H187.303Z" fill="#484747"/>
<path d="M190.422 244.395C190.141 244.395 189.918 244.488 189.756 244.674C189.593 244.861 189.512 245.116 189.512 245.441C189.512 245.774 189.59 246.032 189.747 246.213C189.904 246.394 190.128 246.485 190.418 246.485C190.597 246.485 190.8 246.454 191.028 246.389V246.649C190.851 246.715 190.632 246.749 190.372 246.749C189.996 246.749 189.705 246.635 189.5 246.407C189.296 246.179 189.193 245.855 189.193 245.436C189.193 245.173 189.242 244.944 189.34 244.746C189.439 244.549 189.581 244.396 189.767 244.29C189.954 244.183 190.172 244.13 190.424 244.13C190.693 244.13 190.927 244.179 191.127 244.276L191.001 244.53C190.809 244.439 190.615 244.395 190.422 244.395Z" fill="#484747"/>
<path d="M211.023 245.416C211.023 245.836 210.908 246.157 210.679 246.38C210.45 246.603 210.119 246.714 209.69 246.714H208.981V244.166H209.765C210.162 244.166 210.471 244.276 210.692 244.495C210.913 244.715 211.023 245.021 211.023 245.416ZM210.708 245.426C210.708 245.094 210.625 244.844 210.457 244.675C210.29 244.507 210.041 244.422 209.711 244.422H209.279V246.458H209.64C209.995 246.458 210.261 246.371 210.44 246.197C210.619 246.023 210.708 245.767 210.708 245.426Z" fill="#484747"/>
<path d="M213.02 246.714H211.594V244.166H213.02V244.43H211.892V245.25H212.952V245.512H211.892V246.45H213.02V246.714Z" fill="#484747"/>
<path d="M213.884 246.714H213.586V244.166H215.012V244.43H213.884V245.362H214.944V245.626H213.884V246.714Z" fill="#484747"/>
<path d="M161.836 267.274H162.705V268.513C162.57 268.556 162.433 268.588 162.293 268.611C162.152 268.632 161.99 268.644 161.807 268.644C161.419 268.644 161.118 268.529 160.902 268.299C160.686 268.069 160.579 267.748 160.579 267.335C160.579 267.069 160.633 266.838 160.739 266.639C160.845 266.44 160.999 266.287 161.2 266.182C161.4 266.078 161.636 266.025 161.905 266.025C162.177 266.025 162.432 266.075 162.668 266.174L162.553 266.436C162.322 266.338 162.1 266.29 161.886 266.29C161.574 266.29 161.331 266.383 161.157 266.567C160.983 266.751 160.894 267.007 160.894 267.336C160.894 267.68 160.979 267.94 161.147 268.118C161.316 268.296 161.563 268.385 161.89 268.385C162.067 268.385 162.241 268.364 162.41 268.323V267.539H161.838V267.274H161.836Z" fill="#484747"/>
<path d="M165.262 268.609H164.964V267.41H163.617V268.609H163.319V266.061H163.617V267.145H164.964V266.061H165.262V268.609Z" fill="#484747"/>
<path d="M165.963 268.609V266.061H166.261V268.609H165.963Z" fill="#484747"/>
<path d="M185.282 269.28C185.172 269.28 185.086 269.264 185.022 269.233V268.98C185.105 269.003 185.192 269.015 185.282 269.015C185.397 269.015 185.485 268.98 185.545 268.911C185.606 268.841 185.635 268.74 185.635 268.609V266.061H185.933V268.584C185.933 268.805 185.877 268.976 185.765 269.098C185.652 269.22 185.491 269.28 185.282 269.28Z" fill="#484747"/>
<path d="M188.459 268.609H188.109L187.176 267.374L186.908 267.611V268.609H186.61V266.061H186.908V267.325L188.067 266.061H188.419L187.391 267.167L188.459 268.609Z" fill="#484747"/>
<path d="M188.811 268.609V266.061H189.109V268.34H190.237V268.609H188.811Z" fill="#484747"/>
<path d="M208.977 268.609L208.11 266.35H208.095C208.112 266.53 208.119 266.742 208.119 266.988V268.609H207.845V266.061H208.293L209.103 268.163H209.117L209.934 266.061H210.378V268.609H210.081V266.967C210.081 266.779 210.089 266.574 210.105 266.354H210.09L209.216 268.609H208.977Z" fill="#484747"/>
<path d="M213.077 268.609H212.737L211.34 266.471H211.326C211.345 266.721 211.353 266.951 211.353 267.16V268.608H211.079V266.06H211.415L212.81 268.19H212.824C212.822 268.159 212.816 268.057 212.808 267.887C212.8 267.717 212.797 267.595 212.799 267.522V266.06H213.077V268.609Z" fill="#484747"/>
<path d="M216 267.332C216 267.74 215.896 268.061 215.689 268.294C215.482 268.527 215.195 268.645 214.826 268.645C214.45 268.645 214.159 268.53 213.954 268.3C213.75 268.071 213.647 267.747 213.647 267.328C213.647 266.914 213.75 266.593 213.955 266.364C214.16 266.135 214.452 266.021 214.83 266.021C215.197 266.021 215.484 266.137 215.69 266.37C215.897 266.603 216 266.923 216 267.332ZM213.962 267.332C213.962 267.677 214.036 267.938 214.184 268.117C214.332 268.296 214.546 268.385 214.827 268.385C215.111 268.385 215.325 268.296 215.47 268.118C215.615 267.94 215.687 267.679 215.687 267.332C215.687 266.989 215.615 266.729 215.471 266.552C215.326 266.375 215.114 266.286 214.831 266.286C214.548 266.286 214.332 266.376 214.185 266.554C214.036 266.732 213.962 266.991 213.962 267.332Z" fill="#484747"/>
<path d="M160.894 288.699C160.894 288.957 160.805 289.156 160.628 289.295C160.451 289.434 160.199 289.503 159.87 289.503H159.569V290.505H159.271V287.957H159.934C160.574 287.957 160.894 288.205 160.894 288.699ZM159.569 289.248H159.837C160.101 289.248 160.291 289.206 160.409 289.121C160.526 289.036 160.585 288.9 160.585 288.714C160.585 288.545 160.53 288.42 160.419 288.337C160.309 288.255 160.136 288.213 159.901 288.213H159.569V289.248Z" fill="#484747"/>
<path d="M163.648 289.228C163.648 289.554 163.583 289.826 163.451 290.041C163.319 290.258 163.134 290.404 162.893 290.48L163.501 291.111H163.068L162.57 290.536L162.473 290.54C162.097 290.54 161.806 290.425 161.601 290.195C161.397 289.966 161.294 289.642 161.294 289.223C161.294 288.809 161.397 288.488 161.602 288.259C161.807 288.03 162.099 287.916 162.477 287.916C162.844 287.916 163.131 288.032 163.337 288.265C163.546 288.498 163.648 288.818 163.648 289.228ZM161.61 289.228C161.61 289.573 161.684 289.834 161.832 290.013C161.98 290.192 162.194 290.281 162.475 290.281C162.759 290.281 162.973 290.192 163.118 290.014C163.263 289.836 163.335 289.575 163.335 289.228C163.335 288.885 163.263 288.625 163.119 288.448C162.974 288.271 162.762 288.182 162.479 288.182C162.196 288.182 161.98 288.272 161.833 288.45C161.685 288.628 161.61 288.887 161.61 289.228Z" fill="#484747"/>
<path d="M164.517 289.445V290.505H164.219V287.957H164.92C165.234 287.957 165.466 288.017 165.616 288.137C165.765 288.257 165.841 288.437 165.841 288.677C165.841 289.014 165.669 289.241 165.326 289.361L166.02 290.506H165.668L165.049 289.446H164.517V289.445ZM164.517 289.191H164.924C165.134 289.191 165.288 289.149 165.386 289.066C165.484 288.983 165.532 288.858 165.532 288.692C165.532 288.524 165.482 288.402 165.383 288.328C165.284 288.254 165.123 288.217 164.904 288.217H164.517V289.191Z" fill="#484747"/>
<path d="M167.877 289.827C167.877 290.051 167.795 290.225 167.632 290.351C167.469 290.476 167.247 290.539 166.967 290.539C166.664 290.539 166.431 290.5 166.268 290.422V290.136C166.372 290.181 166.487 290.215 166.611 290.241C166.735 290.266 166.857 290.279 166.978 290.279C167.176 290.279 167.326 290.241 167.426 290.167C167.527 290.092 167.576 289.987 167.576 289.854C167.576 289.766 167.558 289.694 167.522 289.637C167.487 289.581 167.427 289.529 167.344 289.482C167.26 289.434 167.133 289.379 166.963 289.32C166.725 289.235 166.555 289.134 166.453 289.018C166.35 288.902 166.3 288.75 166.3 288.563C166.3 288.367 166.374 288.21 166.522 288.094C166.67 287.978 166.867 287.92 167.11 287.92C167.365 287.92 167.598 287.966 167.812 288.059L167.719 288.318C167.508 288.229 167.302 288.185 167.103 288.185C166.946 288.185 166.823 288.218 166.734 288.286C166.645 288.354 166.601 288.447 166.601 288.567C166.601 288.655 166.618 288.727 166.65 288.784C166.683 288.841 166.738 288.892 166.816 288.939C166.893 288.986 167.011 289.038 167.171 289.094C167.44 289.19 167.624 289.292 167.725 289.401C167.826 289.511 167.877 289.652 167.877 289.827Z" fill="#484747"/>
<path d="M185.588 290.505H185.291V288.221H184.48V287.957H186.398V288.221H185.587V290.505H185.588Z" fill="#484747"/>
<path d="M188.715 287.957V289.605C188.715 289.896 188.627 290.124 188.45 290.291C188.274 290.457 188.032 290.54 187.724 290.54C187.416 290.54 187.178 290.456 187.009 290.289C186.84 290.121 186.756 289.892 186.756 289.599V287.957H187.054V289.62C187.054 289.832 187.112 289.995 187.229 290.109C187.345 290.223 187.517 290.28 187.744 290.28C187.96 290.28 188.126 290.222 188.242 290.108C188.359 289.994 188.417 289.83 188.417 289.616V287.957H188.715Z" fill="#484747"/>
<path d="M190.853 287.957H191.173L190.251 290.505H189.957L189.04 287.957H189.354L189.942 289.605C190.01 289.794 190.064 289.979 190.103 290.158C190.145 289.97 190.2 289.782 190.268 289.596L190.853 287.957Z" fill="#484747"/>
<path d="M209.722 290.505H209.428L208.912 288.799C208.887 288.724 208.859 288.628 208.829 288.513C208.799 288.399 208.783 288.329 208.782 288.306C208.757 288.459 208.716 288.627 208.66 288.81L208.159 290.505H207.865L207.184 287.957H207.499L207.903 289.531C207.959 289.752 208 289.951 208.025 290.13C208.056 289.918 208.103 289.71 208.165 289.507L208.624 287.957H208.938L209.419 289.52C209.475 289.7 209.523 289.903 209.561 290.129C209.583 289.964 209.625 289.764 209.687 289.526L210.089 287.956H210.403L209.722 290.505Z" fill="#484747"/>
<path d="M212.509 290.505H212.171L211.483 289.385L210.784 290.505H210.469L211.32 289.174L210.527 287.957H210.856L211.492 288.966L212.132 287.957H212.448L211.656 289.163L212.509 290.505Z" fill="#484747"/>
<path d="M213.526 289.231L214.208 287.957H214.53L213.676 289.517V290.505H213.374V289.531L212.522 287.957H212.847L213.526 289.231Z" fill="#484747"/>
<path d="M216.432 290.505H214.674V290.274L216.031 288.224H214.716V287.957H216.394V288.188L215.037 290.236H216.433V290.505H216.432Z" fill="#484747"/>
<path d="M211.33 304.596L212.701 303.228L214.08 304.596L214.377 304.313L212.981 302.952L214.349 301.589L214.07 301.306L212.701 302.671L211.33 301.306L211.049 301.589L212.418 302.952L211.049 304.313L211.33 304.596ZM207.823 302.951L209.629 300.4C209.742 300.239 209.876 300.114 210.04 300.026C210.199 299.935 210.379 299.89 210.572 299.89H215.18C215.371 299.89 215.534 299.959 215.675 300.102C215.816 300.243 215.884 300.406 215.884 300.591V305.307C215.884 305.495 215.816 305.66 215.675 305.8C215.534 305.938 215.371 306.008 215.18 306.008H210.572C210.379 306.008 210.199 305.959 210.046 305.862C209.887 305.765 209.746 305.634 209.629 305.473L207.823 302.951ZM208.311 302.951L210.024 305.36C210.077 305.436 210.149 305.497 210.238 305.544C210.326 305.59 210.417 305.614 210.512 305.614H215.181C215.261 305.614 215.333 305.584 215.402 305.519C215.468 305.455 215.501 305.382 215.501 305.307V300.591C215.501 300.515 215.469 300.445 215.402 300.382C215.334 300.318 215.261 300.283 215.181 300.283H210.512C210.416 300.283 210.325 300.308 210.238 300.355C210.149 300.405 210.077 300.465 210.024 300.542L208.311 302.951ZM215.5 302.951V300.284V305.614V305.36V302.951Z" fill="#484747"/>
<path d="M222.753 130.222C223.363 130.222 223.92 130.429 224.379 130.764L224.714 130.408C224.171 129.994 223.493 129.737 222.753 129.737C222.027 129.737 221.358 129.987 220.822 130.389L221.151 130.749C221.604 130.419 222.154 130.222 222.753 130.222Z" fill="#1A1A1A"/>
<path d="M222.753 131.227C223.096 131.227 223.391 131.347 223.66 131.516L224.014 131.148C223.649 130.898 223.23 130.716 222.752 130.716C222.285 130.716 221.874 130.894 221.517 131.137L221.86 131.511C222.124 131.346 222.419 131.227 222.753 131.227Z" fill="#1A1A1A"/>
<path d="M223.283 131.913C223.122 131.831 222.948 131.775 222.753 131.775C222.567 131.775 222.393 131.83 222.232 131.91L222.753 132.469L223.283 131.913Z" fill="#1A1A1A"/>
<path d="M236 123.561H139.805V330.664H236V123.561Z" fill="white"/>
<path d="M152.254 126.956H143.2V130.351H152.254V126.956Z" fill="#484747"/>
<path d="M219.024 126.956H213.365V130.351H219.024V126.956Z" fill="#484747"/>
<path d="M225.815 126.956H220.156V130.351H225.815V126.956Z" fill="#484747"/>
<path d="M232.605 126.956H225.814V130.351H232.605V126.956Z" fill="#484747"/>
<path d="M185.221 200.208L192.722 220.357H200.215L192.722 200.208H185.221Z" fill="#42A5DD"/>
<path d="M207.267 194.449C207.267 192.29 208.979 190.452 211.461 190.452C213.959 190.452 215.664 192.289 215.664 194.449C215.664 196.608 213.959 198.489 211.461 198.489C208.979 198.49 207.267 196.608 207.267 194.449Z" fill="#E12747"/>
<path d="M215.213 200.207V220.357L222.709 200.207H215.213Z" fill="#96C5E1"/>
<path d="M215.215 200.208H207.716V220.357L215.215 200.208Z" fill="#E12747"/>
<path d="M207.716 220.357H215.215V200.208L207.716 220.357Z" fill="#6D2F4C"/>
<path d="M185.221 200.207V220.357L192.722 200.207H185.221Z" fill="#96C5E1"/>
<path d="M185.22 200.208H177.72V220.357H177.728L185.22 200.208Z" fill="#E12747"/>
<path d="M177.727 220.357H185.219V200.208L177.727 220.357Z" fill="#6D2F4C"/>
<path d="M162.732 220.357C162.051 222.166 161.098 222.641 159.514 222.641C158.489 222.641 157.68 222.482 156.91 222.236L156.784 227.62C157.842 227.908 159.176 228.026 160.363 228.026C165.582 228.026 168.047 226.219 169.626 221.987L170.225 220.357H162.732V220.357Z" fill="#E12747"/>
<path d="M185.221 200.208L192.722 220.357H200.215L192.722 200.208H185.221Z" fill="#E12747"/>
<path d="M177.27 194.449C177.27 192.29 178.984 190.452 181.474 190.452C183.963 190.452 185.676 192.289 185.676 194.449C185.676 196.608 183.962 198.489 181.474 198.489C178.985 198.489 177.27 196.608 177.27 194.449Z" fill="#E12747"/>
<path d="M200.214 200.208L196.475 210.283L200.214 220.357L207.715 200.208H200.214Z" fill="#6D2F4C"/>
<path d="M170.223 200.208L166.478 210.283L170.223 220.357L177.718 200.208H170.223Z" fill="#6D2F4C"/>
<path d="M155.214 200.208L162.731 220.357H170.223L162.731 200.208H155.214Z" fill="#E12747"/>
<path d="M162.731 200.208H155.214L158.976 210.283L162.731 200.208Z" fill="#6D2F4C"/>
<path d="M192.72 220.357H200.213L196.474 210.283L192.72 220.357Z" fill="#BA3555"/>
</g>
<defs>
<clipPath id="clip0_4444_7908">
<rect width="375" height="406" fill="white"/>
</clipPath>
</defs>
</svg>
