<svg width="375" height="406" viewBox="0 0 375 406" fill="none" xmlns="http://www.w3.org/2000/svg">
<g clip-path="url(#clip0_4444_7649)">
<path d="M375 395.96H0V405.96H375V395.96Z" fill="#C1BEBE"/>
<path d="M374.326 204.864C374.326 204.864 369.234 198.278 368.42 197.868C367.612 197.462 363.941 193.721 363.23 192.697C362.518 191.688 356.117 188.15 355.816 188.15C355.504 188.15 353.474 185.002 352.963 185.002C352.457 185.002 348.889 185.105 347.774 185.313C346.658 185.51 340.653 184.805 337.712 184.805C334.75 184.805 335.055 186.823 333.325 187.437C331.593 188.044 329.967 186.622 329.967 186.622C329.967 186.622 331.699 186.114 332.317 185.207C332.922 184.297 331.906 184.297 329.671 183.887C327.432 183.487 325.493 182.874 322.443 182.165C321.88 182.032 321.399 181.957 320.946 181.911C321.102 179.787 321.064 177.106 320.676 175.141C321.322 175.881 323.109 175.099 323.238 174.106C323.367 173.101 323.645 171.284 323.543 169.46C323.443 167.632 323.939 166.549 323.939 165.872C323.939 165.185 324.266 162.443 322.884 161.719C322.313 161.415 321.917 161.484 321.619 161.647C321.646 161.548 321.699 161.48 321.699 161.359C321.703 160.885 321.963 159.982 321.917 159.628C321.879 159.266 321.513 157.785 321.346 157.385C321.452 157.51 321.586 157.832 321.586 157.832C321.586 157.832 321.38 156.873 321.14 156.448C320.897 156.025 320.695 155.462 320.474 155.168C320.584 155.2 320.741 155.462 320.733 155.397C320.713 155.348 320.295 154.481 319.956 154.085C319.614 153.683 319.233 152.947 319.058 152.731C318.891 152.515 318.777 152.257 318.777 152.257L318.956 152.363C318.956 152.363 318.93 152.067 318.499 151.722C318.072 151.381 317.57 150.099 317.227 149.803C316.885 149.515 316.485 149.222 316.485 149.222L316.645 149.2C316.588 149.204 316.432 149.204 316.284 148.951C316.108 148.642 315.762 148.013 315.526 147.819C315.294 147.629 314.787 146.962 314.544 146.886C314.304 146.827 313.942 146.514 313.942 146.514C313.942 146.514 314.171 146.514 314.265 146.605C314.257 146.379 313.869 146.273 313.549 146.222C313.522 146.191 313.503 146.165 313.477 146.135C318.93 145.05 324.372 143.897 329.809 142.805C336.05 147.379 358.621 151.509 359.447 143.404C360.666 143.275 361.926 143.319 362.939 142.608C363.815 142.009 364.142 140.996 363.986 140.029C365.159 139.415 366.245 138.618 366.891 137.466C367.604 136.14 366.945 135.13 365.916 134.36C367.592 133.179 369.134 131.683 366.876 130.344C364.256 128.778 358.761 130.372 355.669 129.988C351.19 129.419 347.139 127.811 343.403 125.374C344.919 123.151 346.465 120.859 347.409 118.45C347.84 117.339 348.441 114.95 346.978 114.179C345.249 113.281 342.961 116.244 342.085 117.21C339.651 119.876 337.352 122.668 335.002 125.417C332.157 127.167 329.32 129.574 327.794 132.439C317.112 133.763 307.082 131.925 296.332 130.314C290.993 129.517 282.852 127.655 277.413 129.859C273.018 129.275 268.838 128.11 264.6 126.641C263.1 126.114 260.023 124.322 257.761 123.821C257.643 123.379 257.456 122.952 257.128 122.524C255.644 120.589 251.732 119.421 249.691 118.437C244.12 115.731 237.65 112.014 231.329 110.748C229.939 109.477 228.321 108.967 226.463 108.654C224.27 108.127 221.878 107.941 219.657 107.782C219.635 107.782 219.604 107.782 219.577 107.782C214.524 107.115 209.456 106.432 204.433 107.099C203.831 105.719 202.704 103.868 202.586 102.487C202.502 101.26 202.517 100.048 202.46 98.839C204.204 96.43 205.221 93.654 205.377 90.651C206.398 90.393 207.242 89.968 207.669 88.685C208.084 87.401 208.156 86.218 208.842 84.979C209.299 84.124 209.615 83.284 209.642 82.301C209.668 81.317 209.413 80.05 208.329 79.724C208.024 79.641 207.696 79.652 207.369 79.755C208.843 72.588 207.167 63.588 200.698 59.427C197.396 57.306 188.561 55.995 183.741 58.345C179.503 58.63 175.622 60.338 173.95 64.641C172.145 69.271 171.86 74.496 172.991 79.326C171.7 79.993 170.972 81.734 171.7 83.384C172.286 84.738 173.451 85.678 173.934 87.103C174.278 88.127 174.365 89.126 175.024 90.021C175.584 90.806 176.353 91.292 177.21 91.361C177.343 93.142 177.956 94.78 178.702 96.403C178.973 97 179.301 97.499 179.704 97.969C179.27 100.489 178.303 103.937 178.341 106.927C174.206 107.31 170.112 107.909 166.049 108.751C166.049 108.751 166.037 108.751 166.023 108.751H166.007C160.196 108.338 153.726 108.965 149.16 112.199C143.436 113.151 137.641 116.684 132.728 119.575C132.702 119.59 132.686 119.605 132.66 119.617C131.186 120.33 129.511 121.199 128.037 122.196C124.873 123.903 122.626 125.328 124.058 128.021C121.511 128.122 117.703 129.931 115.772 130.486C113.753 131.055 111.766 131.681 109.79 132.367H109.775C106.713 132.367 102.848 133.117 99.973 133.034C95.152 132.92 90.484 133.489 85.716 134.228C82.631 134.708 79.558 135.131 76.485 135.485C73.187 134.251 69.901 132.999 66.855 131.255C66.466 129.958 65.834 128.68 65.263 127.379C65.358 127.208 65.446 127.037 65.522 126.863C71.787 124.079 73.682 116.543 73.603 110.153C74.536 106.683 74.205 103.004 72.501 99.748C71.648 98.111 70.476 96.731 69.09 95.53C67.73 89.8 62.849 85.546 57.468 83.051C50.724 79.932 43.771 82.649 37.72 86.074C30.154 90.287 23.931 97.459 23.52 106.285C19.589 115.666 17.107 125.733 18.535 135.784C15.76 136.262 10.638 137.206 10.348 139.728C10.074 142.203 13.885 142.263 18.036 141.664C18.001 141.763 17.968 141.861 17.936 141.962C17.491 142.1 17.041 142.235 16.604 142.379C14.772 142.977 12.038 143.445 10.995 145.311C9.42198 148.131 12.868 148.061 15.306 147.693C14.639 148.613 14.56 149.525 15.412 150.166C13.501 157.41 12.651 164.893 15.438 171.901C15.217 176.107 15.876 180.378 16.535 184.534C13.443 192.696 9.92098 200.721 6.85898 208.867C6.85898 208.861 6.82898 208.871 6.82498 208.871C4.78398 206.552 2.46498 204.677 0.000976562 203.227V261.918C0.918977 262.816 1.77198 263.678 2.54098 264.489C1.52398 265.896 0.808977 268.619 2.67898 269.503C2.89998 270.322 3.39398 271.198 4.22398 271.528C4.70398 272.67 5.90798 273.394 6.96998 274.133C8.03998 274.884 8.87398 275.73 9.88698 275.448C10.659 276.76 11.715 278.057 12.736 279.066C13.55 279.871 14.248 279.297 14.785 278.596C15.794 279.772 17.275 279.828 18.318 278.042C21.418 281.664 24.659 285.168 28.059 288.544C28.843 304.442 30.371 320.455 33.98 335.985C36.642 354.949 39.772 373.847 43.378 392.667C43.382 392.716 43.435 392.75 43.474 392.762C44.65 393.034 45.83 393.255 47.011 393.425C46.912 394.301 46.702 395.144 46.413 395.955H63.785C63.701 394.862 63.64 393.77 63.629 392.682C63.534 392.704 63.442 392.728 63.347 392.75C63.862 392.549 64.63 392.603 65.011 392.23C66.953 374.886 64.722 357.528 61.687 340.4C61.386 328.927 60.67 317.469 59.532 306.046C65.088 304.532 69.761 300.187 72.685 294.986C72.623 295.1 72.559 295.217 72.495 295.328C74.829 304.514 77.171 313.699 79.513 322.881C81.265 329.966 82.598 337.525 87.414 343.305C90.286 356.841 92.323 370.533 93.458 384.311C93.781 388.274 93.937 392.874 98.37 394.392C98.088 394.904 97.852 395.427 97.635 395.954H115.921C115.899 395.381 115.864 394.808 115.846 394.232C116.584 394.08 117.308 393.913 118.008 393.743C113.96 374.112 116.858 353.219 109.932 333.963C109.932 333.963 109.932 333.963 109.932 333.96C108.112 313.98 103.587 294.27 100.674 274.415C104.486 270.311 102.799 263.355 102.442 258.384C102.224 255.608 102.026 252.813 102.168 250.018C102.255 248.235 102.689 246.513 102.884 244.746C102.9 244.617 102.918 244.492 102.933 244.363C108.067 244.712 109.735 240.809 110.652 236.581C111.578 233.418 111.959 230.144 112.123 226.849C116.205 215.547 115.768 203.138 114.068 191.339C111.913 178.308 109.202 164.878 103.372 152.944C103.216 152.62 103.06 152.29 102.903 151.956C106.315 151.243 109.685 150.28 112.987 148.941L113.025 148.928C115.23 148.5 117.446 148.058 119.712 147.73C122.888 147.273 126.049 146.977 129.198 146.548C129.457 146.522 129.727 146.476 129.986 146.432C131.833 146.206 133.664 145.907 135.496 145.507C136.063 146.336 136.943 146.706 138.443 146.618C140.778 146.491 143.207 145.964 145.588 145.294C147.145 146.233 148.946 146.532 150.839 146.618C153.231 156.176 153.315 165.919 155.15 175.546C155.85 179.191 156.521 183.124 157.782 186.7C157.923 188.435 158.052 190.16 158.136 191.896C158.156 191.953 158.156 192.025 158.156 192.097C158.156 192.197 158.167 192.313 158.167 192.409C158.483 199.687 158.343 206.925 157.81 214.203C157.81 214.229 157.81 214.273 157.798 214.302C157.238 219.513 156.294 224.755 155.978 229.985C155.978 230.011 155.978 230.027 155.963 230.057C155.779 231.392 155.692 232.745 155.879 233.986C155.894 235.041 155.936 236.095 156.05 237.134C152.246 254.838 152.471 272.913 156.709 290.462C156.812 298.081 157.395 305.659 158.457 313.194C156.579 323.575 156.625 333.944 158.556 344.142C158.727 350.51 158.697 356.863 158.111 363.215C157.924 365.252 157.711 367.228 157.684 369.165C156.405 374.468 155.521 380.676 156.778 385.459C154.386 388.113 150.434 391.804 146.477 395.953H176.812C177.315 392.835 176.778 389.323 176.301 386.202C176.557 385.519 176.804 384.708 177.047 383.782C178.262 381.1 178.921 377.812 179.268 374.365C179.268 374.349 179.268 374.349 179.268 374.349C182.34 366.575 184.287 358.439 184.717 350.05C185.12 342.021 183.514 334.212 182.584 326.35C184.127 320.126 185.417 313.83 185.904 307.421C186.277 302.422 186.076 297.423 185.691 292.44C187.18 286.599 188.482 280.717 189.537 274.774C190.615 268.794 191.316 262.812 193.029 257.07C198.843 269.764 200.048 284.248 205.398 296.995C206.974 306.595 209.362 316.012 212.568 325.224C211.738 337.278 212.598 349.27 213.683 361.292C214.358 368.726 214.757 376.262 215.747 383.653C215.815 384.192 215.888 384.734 215.956 385.292C216.002 385.69 216.06 386.088 216.132 386.486C216.132 386.502 216.132 386.502 216.144 386.516C216.475 388.378 217.065 390.176 218.55 391.458C219.236 392.042 219.982 392.425 220.77 392.652C220.538 393.752 220.363 394.848 220.275 395.952H238.058C237.274 393.79 236.638 391.594 236.299 389.322C236.466 389.163 236.622 389.008 236.756 388.848C238.058 387.198 237.887 383.823 237.7 381.187C237.7 381.187 237.7 381.187 237.7 381.171C237.799 379.605 237.7 377.837 237.555 376.142C237.543 374.708 237.483 373.283 237.414 371.857C239.23 359.094 239.23 346.26 237.44 333.586C237.466 320.297 236.381 307.109 234.191 294.048C234.98 275.316 232.729 256.789 228.164 238.6C228.309 238.482 228.437 238.372 228.553 238.228C229.969 236.446 227.951 232.346 227.593 230.666C225.979 222.975 224.676 215.185 223.888 207.379C222.715 195.6 225.32 184.32 226.077 172.726C229.383 164.593 232.33 156.315 231.496 147.913C233.088 147.414 234.648 146.83 236.153 146.102H236.168C236.184 146.102 236.195 146.102 236.222 146.102C238.8 146.262 241.808 146.345 244.44 145.934C244.611 145.921 244.783 145.877 244.958 145.847C245.297 145.807 245.624 145.75 245.956 145.692C247.574 145.394 248.991 144.81 249.95 143.74C250.768 144.211 251.881 144.495 253.313 144.707C258.552 145.492 263.857 145.564 269.112 146.461C271.919 146.945 274.653 147.358 277.424 147.572C280.509 148.685 283.631 149.243 286.788 149.444C286.712 149.541 286.64 149.63 286.609 149.696C286.502 149.895 286.312 150.308 286.167 150.479C286.019 150.646 285.425 151.11 285.219 151.452C285.01 151.788 284.842 151.981 284.823 152.194C284.803 152.402 284.693 153.025 284.621 153.148C284.545 153.268 284.122 153.734 284.073 154.24C284.027 154.746 283.806 155.368 283.806 155.368L283.973 155.235C283.973 155.235 283.642 155.774 283.592 156.179C283.546 156.598 283.371 157.526 283.371 157.526L283.649 157.063C283.649 157.063 283.489 157.82 283.519 157.977C283.545 158.129 283.092 159.24 283.092 159.24L283.397 158.887C283.397 158.887 282.834 160.239 282.841 160.533C282.963 160.34 283.035 160.169 283.035 160.169C283.035 160.169 282.86 161.806 283.065 162.422C283.259 163.033 283.023 164.999 283.023 164.999L283.179 164.694C283.179 164.694 283.259 165.396 283.179 165.695C283.293 165.483 283.369 165.238 283.369 165.238C283.369 165.238 283.259 166.063 283.293 166.424C283.313 166.788 283.369 167.455 283.419 167.698C283.468 167.939 283.59 168.709 283.59 168.709L283.648 168.332C283.648 168.332 283.96 169.276 284.302 169.603C284.318 169.478 284.367 169.368 284.367 169.368C284.393 169.455 284.458 169.52 284.512 169.596C284.23 170.006 284.055 170.383 284.119 170.673C284.195 171.041 284.766 171.401 285.109 171.868C285.46 172.323 286.388 174.608 286.552 175.349C286.716 176.096 287.196 177.843 287.607 178.823C288.003 179.802 288.91 181.703 289.473 182.263C290.029 182.825 290.558 182.521 290.935 181.675C291.034 181.842 292.493 185.726 293.727 187.814C293.571 187.856 293.399 187.897 293.254 187.939C287.763 189.454 285.828 193.914 285.828 193.914C285.828 193.914 280.74 195.738 279.819 195.841C278.909 195.938 278.097 197.97 277.081 198.17C276.06 198.371 274.739 198.879 273.518 198.68C272.307 198.477 271.488 201.007 270.064 202.524C268.635 204.045 267.923 207.389 266.804 210.025C265.696 212.656 262.131 222.89 262.231 224.403C262.288 225.208 262.714 225.643 263.362 226.118C261.949 228.681 260.315 231.45 258.986 233.813C257.257 236.9 255.593 247.288 255.01 252.541C254.444 257.79 255.258 267.139 255.589 272.524C255.924 277.902 256.191 285.313 256.024 287.236C255.86 289.159 256.081 291.597 255.932 293.315C255.776 295.034 254.462 297.525 254.653 298.34C254.824 299.155 253.998 302.576 254.173 303.593C254.337 304.614 255.05 307.575 255.05 307.575C255.05 307.575 255.895 309.892 255.819 310.696C255.751 311.5 255.203 314.072 255.732 315.099C255.945 315.516 256.878 316.518 257.94 317.602C258.13 318.703 258.431 320.01 258.409 320.561C258.386 321.25 259.894 321.649 260.743 320.344C261.178 320.769 261.497 321.076 261.589 321.163C261.977 321.588 262.578 321.861 263.115 321.163C263.568 320.571 262.974 318.614 261.371 317.128C261.33 316.271 261.182 315.573 261.105 315.28C262.03 315.151 263.207 314.927 263.96 314.601C264.021 314.075 264.074 313.554 264.132 313.035C263.816 312.827 263.415 312.686 263.076 312.656C262.783 312.63 262.288 312.542 261.763 312.444C261.961 311.663 262.144 310.915 262.216 310.528C262.395 309.508 263.05 308.124 263.309 307.335C263.549 306.58 263.393 305.477 264.919 303.308C265.121 303.137 265.327 302.97 265.522 302.827C265.761 301.245 266.021 299.709 266.28 298.291C267.034 294.236 267.906 291.896 268.778 290.671C268.427 290.145 268.173 289.648 268.173 289.2C268.173 287.675 268.013 280.071 269.056 274.681C270.096 269.299 274.376 259.655 274.836 255.001C275.286 250.351 275.484 247.567 275.713 246.664C275.884 246.027 279.132 241.87 280.777 238.264C280.838 239.406 280.97 241.347 281.047 242.747C279.821 243.857 281.554 245.78 281.554 245.78C281.554 245.78 278.504 250.346 277.689 253.578C277.21 255.482 278.622 257.902 279.872 259.582C279.872 263.939 279.872 269.989 279.872 274.02C280.043 273.702 280.187 273.345 280.393 273.083C280.538 272.969 280.712 272.859 280.884 272.753C280.941 273.015 281.059 273.238 281.223 273.443C279.772 274.595 278.725 275.506 278.725 275.506C278.725 275.506 276.123 278.805 276.014 279.981C275.956 280.432 275.834 281.654 275.69 283.072C275.682 283.156 275.67 283.243 275.664 283.331C274.357 284.775 273.611 287.81 272.899 292.543C272.206 290.34 270.53 288.436 268.829 290.825C267.968 292.046 267.107 294.379 266.35 298.414C266.083 299.84 265.825 301.364 265.584 302.935C265.097 306.118 264.632 309.553 264.206 313.103C264.164 313.626 264.102 314.135 264.038 314.665C262.747 325.99 261.849 337.861 261.452 344.214C260.854 353.874 259.457 376.22 260.268 390.26C260.405 392.65 260.66 394.459 260.987 395.828H275.515C275.526 395.752 275.545 395.668 275.561 395.577H277.655C278.016 395.577 278.154 395.38 278.204 395.172C278.593 395.285 278.958 395.536 279.289 395.828H282.503C281.749 393.351 279.692 392.391 278.204 392.18V390.457C278.204 390.457 278.204 390.01 278.204 389.782C278.204 389.721 278.154 389.641 278.078 389.562L281.723 389.524L281.726 380.6H281.114L280.443 380.16L283.372 375.636C285.12 373.993 287.013 372.742 288.775 371.779V383.229H289.841V393.511C289.841 394.303 289.937 395.073 290.07 395.828H294.51C294.304 395.092 294.183 394.322 294.183 393.511V383.229H295.26V366.246C295.279 366.254 295.298 366.265 295.318 366.272C296.425 366.757 297.705 367.043 299.183 367.065C300.248 369.03 301.235 371.044 301.794 372.678C302.979 376.099 303.801 382.33 303.801 382.33C303.801 382.33 300.366 385.512 300.13 386.805C299.901 388.106 299.43 390.811 299.43 390.811C299.43 390.811 295.755 393.526 295.641 394.584C295.603 394.906 295.546 395.414 295.485 395.953H323.104C323.23 394.898 323.683 390.62 322.994 388.693C322.183 386.482 320.588 384.005 320.588 384.005C320.588 384.005 320.416 380.918 320.763 378.976C321.125 377.031 319.698 375.176 317.313 370.143C315.877 367.128 315.375 364.33 315.192 362.546C315.878 362.091 316.278 361.69 316.338 361.371C316.57 360.069 314.438 350.414 314.323 348.536C314.32 348.441 314.312 348.256 314.304 348.055C314.304 348.036 314.3 348.006 314.3 347.987H337.795C337.791 348.009 337.788 348.033 337.788 348.055C336.983 355.982 336.39 362.505 336.317 363.472C336.26 364.189 336.835 364.928 337.81 365.622C337.437 367.571 336.946 369.691 336.26 370.849C335.026 372.969 333.955 375.093 334.131 376.678C334.318 378.267 334.939 384.362 334.939 384.362C334.939 384.362 332.985 386.13 332.635 388.693C332.375 390.525 333.35 394.083 333.926 395.953H362.588C362.58 395.915 362.558 395.869 362.546 395.828H364.188C364.321 395.077 364.397 394.303 364.397 393.511V383.229H365.471V371.779C367.231 372.743 369.126 373.994 370.87 375.636L373.799 380.16L373.129 380.6H372.512L372.52 389.524L374.968 389.546V372.009L365.471 357.309V347.987H373.959C374.05 350.149 374.473 359.687 374.968 365.244V306.98C374.98 306.851 374.994 306.708 375.002 306.583V274.96C374.838 274.546 374.659 274.151 374.457 273.788C374.328 273.563 374.21 273.321 374.08 273.098C374.08 266.021 374.08 254.218 374.08 254.218C374.08 250.266 370.383 247.839 364.515 247.66C364.515 246.943 362.356 245.593 359.188 245.593H356.05C355.974 245.48 355.894 245.351 355.821 245.252C355.486 244.793 355.2 244.475 355.097 244.475C354.792 244.475 356.324 223.805 356.324 223.805L356.902 224.044C357.367 224.248 357.999 224.566 358.357 224.916C358.467 225.021 358.714 225.007 359.043 224.92L375 231.462V213.136V205.102C374.627 204.887 374.326 204.864 374.326 204.864ZM264.023 389.3C263.73 387.605 263.433 381.961 263.638 371.744C264.32 370.526 265.57 370.625 266.548 370.959C265.76 378.085 264.641 386.618 264.023 389.3ZM268.532 340.693C268.163 340.822 267.481 341.262 267.375 343.014L267.275 344.368C267.176 346.087 267.786 346.617 268.163 346.784C267.988 349.872 267.664 356.001 267.351 362.911C267.264 364.204 267.104 365.891 266.906 367.762C264.961 367.811 264.111 367.094 263.76 366.484C263.947 360.655 264.503 352.678 265.036 344.453C265.526 336.242 266.315 328.247 266.871 322.463C267.274 321.913 268.173 321.315 270.017 321.553C269.404 329.251 268.845 336.582 268.532 340.693ZM270.178 318.374C269.16 318.571 267.905 318.511 267.39 317.225C267.688 314.35 267.989 311.893 268.262 309.727C268.963 304.269 269.58 301.027 269.95 299.847C270.095 301.269 270.179 304.288 270.209 307.842C270.219 311.146 270.208 314.915 270.178 318.374ZM281.247 327.56C281.273 327.655 281.297 327.746 281.323 327.84C281.323 327.848 281.323 327.856 281.323 327.87C281.59 328.846 281.852 329.843 282.123 330.837C283.063 334.333 284.05 337.891 285.014 341.334C282.965 341.334 281.415 341.334 280.608 341.338L280.444 341.327C280.493 340.125 280.896 333.4 281.247 327.56ZM312.693 326.069C312.685 325.997 312.678 325.917 312.671 325.841C312.34 323.034 311.963 320.645 311.54 319.052H315.013C317.713 319.052 317.591 320.538 320.032 321.483C322.47 322.427 324.088 319.735 324.088 319.735C324.088 319.735 325.589 319.674 326.975 319.64C328.361 319.674 329.858 319.735 329.858 319.735C329.858 319.735 331.48 322.427 333.918 321.483C336.362 320.539 336.232 319.052 338.937 319.052H341.351C341.351 319.06 341.351 319.064 341.347 319.067C341.016 320.873 340.655 323.285 340.285 326.057C340.285 326.061 340.281 326.065 340.281 326.069H312.693ZM276.716 296.009C276.746 296.085 276.758 296.195 276.784 296.282C276.769 296.24 276.758 296.194 276.742 296.156C276.377 295.25 275.984 293.903 275.687 292.588C275.984 293.854 276.365 295.137 276.716 296.009ZM273.814 363.518L273.616 366.264C273.151 372.431 272.672 377.805 272.344 379.189C272.231 377.21 272.318 373.243 272.512 368.634L272.596 366.818C272.634 365.836 272.699 364.815 272.744 363.795L272.816 362.316C273.117 356.676 273.463 350.949 273.718 347.183L274.903 347.27C274.637 351.26 274.244 357.548 273.814 363.518ZM276.502 319.129L276.438 320.354C276.426 320.597 276.426 320.835 276.408 321.083L276.321 322.805C276.053 328.513 275.646 334.991 275.361 339.739L275.338 340.286C275.308 340.548 275.3 340.813 275.277 341.074L274.089 340.999C274.116 340.687 274.143 340.377 274.154 340.047L274.192 339.509C274.424 335.659 274.744 330.739 275.09 325.973L275.242 324.107C275.383 322.196 275.547 320.341 275.68 318.638L275.794 317.511C276.08 314.398 276.369 311.819 276.628 310.366C276.762 311.456 276.674 314.839 276.502 319.129ZM279.156 372.191C278.783 372.555 278.433 372.954 278.075 373.337C278.239 371.819 278.414 370.283 278.554 368.751C279.213 365.656 279.872 350.763 279.99 347.994H286.914C287.564 350.239 288.185 352.367 288.771 354.274V357.316L279.156 372.191ZM313.932 341.327C313.752 338.376 313.524 334.89 313.235 331.466H339.594C339.594 331.47 339.594 331.47 339.594 331.474C339.217 334.633 338.844 338.005 338.486 341.331C332.812 341.331 328.334 341.331 326.974 341.334C325.496 341.331 320.321 341.331 313.932 341.327ZM358.53 389.668C355.42 387.107 355.591 384.013 351.87 382.17C351.322 380.938 351.017 375.085 353.081 368.016C355.941 367.807 357.788 367.478 358.973 367.098V383.236H360.062V391.209C359.601 390.657 359.094 390.134 358.53 389.668ZM373.34 341.338C372.278 341.334 369.944 341.334 366.862 341.331C367.205 339.904 367.502 338.524 367.674 337.458C367.979 335.539 370.408 326.19 372.209 319.516C372.464 323.688 373.428 339.423 373.504 341.328L373.34 341.338Z" fill="#D6D1CC"/>
<path d="M260.901 180.765C260.901 180.765 263.97 192.977 262.182 202.14C262.182 202.14 272.401 220.454 273.166 222.745C273.935 225.032 284.917 258.878 285.687 260.402C286.449 261.928 291.048 271.347 291.304 287.883C291.566 304.419 291.304 321.467 291.304 321.467C291.304 321.467 294.117 334.442 296.924 340.805C299.737 347.169 308.675 369.047 310.72 371.338C311.341 372.037 321.097 390.857 328.871 405.943L229.286 405.997C228.201 401.487 226.038 386.688 218.504 382.917C203.077 375.184 199.845 367.521 196.779 363.963C193.714 360.396 177.366 342.071 173.531 340.043C169.7 338.004 133.934 314.853 132.909 314.084C131.89 313.327 124.482 310.778 124.482 310.778C124.482 310.778 119.125 306.205 120.137 301.111C120.137 301.111 116.825 293.732 124.992 292.456C124.992 292.456 130.871 290.422 132.908 290.682C134.951 290.936 157.697 288.391 157.697 288.391L157.437 279.08H133.679C133.679 279.08 132.402 283.297 125.757 282.285C119.123 281.264 119.629 277.701 120.65 276.175C120.65 276.175 115.712 274.955 119.474 262.18C120.826 257.573 126.012 255.566 126.012 255.566C126.012 255.566 118.712 255.058 118.402 249.972C118.09 244.888 118.402 248.694 118.402 248.694C118.402 248.694 113.75 245.388 119.63 237.756C119.63 237.756 123.975 226.052 132.655 227.071L144.155 227.325L133.679 224.274C133.679 224.274 120.072 220.967 116.656 218.424C113.244 215.875 111.199 209.767 112.474 205.955C113.749 202.138 123.974 199.847 123.974 199.847C123.974 199.847 133.426 198.823 135.722 199.847C138.017 200.863 241.295 244.369 241.295 244.369C241.295 244.369 248.896 247.43 249.661 248.692C249.661 248.692 247.101 236.734 247.36 234.953C247.62 233.177 246.848 231.652 246.848 230.632C246.848 229.612 241.294 223.51 241.294 223.51V192.717C241.294 192.717 246.595 180.763 253.746 180.763C260.897 180.763 259.617 182.035 259.617 182.035L260.901 180.765Z" fill="#F7B1A1"/>
<path d="M241.914 244.627L249.656 248.26V254.634C249.656 254.634 252.327 262.6 252.327 264.726C252.327 266.85 246.436 276.939 241.914 283.318V244.627Z" fill="#BA8A80"/>
<path d="M239.687 333.998C239.687 333.998 237.368 336.319 234.257 336.319C231.16 336.319 189.684 336.319 189.684 336.319C189.684 336.319 209.069 348.285 222.246 345.965C235.418 343.65 239.687 333.998 239.687 333.998Z" fill="#C6978F"/>
<path d="M234.257 336.319H139.546C135.336 336.319 131.898 332.886 131.898 328.696V124.289C131.898 120.094 135.336 116.667 139.546 116.667H234.257C238.467 116.667 241.914 120.094 241.914 124.289V328.697C241.914 332.887 238.467 336.319 234.257 336.319Z" fill="#1D1D1B"/>
<path d="M234.205 125.126H139.556V328.798H234.205V125.126Z" fill="white"/>
<path d="M234.169 303.834H139.556V328.799H234.169V303.834Z" fill="white"/>
<path d="M178.73 308.846C178.73 304.425 182.329 300.843 186.765 300.843C191.197 300.843 194.795 304.425 194.795 308.846C194.795 313.262 191.196 316.841 186.765 316.841C182.329 316.841 178.73 313.262 178.73 308.846Z" fill="#363E6A"/>
<path d="M182.329 306.206V304.34H184.185V304.727H182.712V306.206H182.329ZM182.329 313.344V311.486H182.713V312.958H184.186V313.345H182.329V313.344ZM189.496 313.344V312.957H190.975V311.485H191.362V313.343H189.496V313.344ZM190.975 306.206V304.727H189.496V304.34H191.361V306.206H190.975ZM189.368 311.371H189.994V311.993H189.368V311.371ZM189.368 310.116H189.994V310.738H189.368V310.116ZM188.755 310.738H189.368V311.371H188.755V310.738ZM188.119 311.371H188.755V311.993H188.119V311.371ZM187.498 310.738H188.119V311.371H187.498V310.738ZM188.755 309.492H189.368V310.116H188.755V309.492ZM188.119 310.116H188.755V310.738H188.119V310.116ZM187.498 309.492H188.119V310.116H187.498V309.492ZM189.994 305.692V308.193H187.498V305.692H189.994ZM186.195 309.492V311.993H183.684V309.492H186.195ZM186.195 305.692V308.193H183.684V305.692H186.195ZM185.8 311.61V309.881H184.068V311.61H185.8ZM185.8 307.807V306.078H184.068V307.807H185.8ZM189.602 307.807V306.078H187.885V307.807H189.602Z" fill="white"/>
<path d="M146.298 316.837V312.611L149.143 310.503L151.95 312.611V316.837H149.884V314.28H148.355V316.837H146.298ZM146.723 316.412H147.926V313.851H150.317V316.412H151.525V312.824L149.143 311.038L146.723 312.824V316.412Z" fill="white"/>
<path d="M165.855 316.837V316.135C165.855 315.953 165.891 315.796 165.979 315.657C166.066 315.516 166.194 315.406 166.369 315.331C166.729 315.17 167.06 315.05 167.365 314.982C167.67 314.914 167.972 314.879 168.273 314.879C168.414 314.879 168.576 314.883 168.738 314.905C168.902 314.92 169.065 314.952 169.24 315L168.867 315.366C168.77 315.356 168.674 315.348 168.57 315.345C168.475 315.334 168.375 315.33 168.273 315.33C167.984 315.33 167.715 315.356 167.471 315.409C167.232 315.457 166.931 315.569 166.552 315.735C166.458 315.773 166.402 315.83 166.363 315.906C166.33 315.986 166.308 316.057 166.308 316.134V316.384H168.716L169.169 316.836H165.855V316.837ZM169.974 316.958L168.907 315.896L169.224 315.579L169.974 316.324L171.581 314.717L171.9 315.039L169.974 316.958ZM168.273 314.407C167.938 314.407 167.669 314.31 167.453 314.098C167.241 313.885 167.142 313.613 167.142 313.283C167.142 312.953 167.241 312.683 167.453 312.468C167.67 312.257 167.938 312.156 168.273 312.156C168.606 312.156 168.873 312.257 169.087 312.468C169.299 312.684 169.405 312.953 169.405 313.283C169.405 313.613 169.299 313.886 169.087 314.098C168.873 314.311 168.606 314.407 168.273 314.407ZM168.273 313.962C168.465 313.962 168.632 313.903 168.762 313.773C168.888 313.644 168.952 313.481 168.952 313.284C168.952 313.087 168.888 312.926 168.762 312.799C168.632 312.669 168.465 312.607 168.273 312.607C168.075 312.607 167.91 312.669 167.784 312.799C167.654 312.926 167.596 313.087 167.596 313.284C167.596 313.481 167.655 313.644 167.784 313.773C167.91 313.903 168.075 313.962 168.273 313.962Z" fill="white"/>
<path d="M147.166 321.494H146.978V320.738H146.128V321.494H145.94V319.888H146.128V320.572H146.978V319.888H147.166V321.494Z" fill="white"/>
<path d="M148.625 320.891C148.625 321.087 148.574 321.241 148.475 321.351C148.377 321.461 148.239 321.517 148.065 321.517C147.956 321.517 147.86 321.492 147.776 321.441C147.692 321.39 147.628 321.318 147.583 321.223C147.536 321.128 147.515 321.018 147.515 320.891C147.515 320.695 147.564 320.541 147.661 320.432C147.761 320.323 147.897 320.268 148.073 320.268C148.241 320.268 148.376 320.324 148.475 320.436C148.574 320.548 148.625 320.699 148.625 320.891ZM147.703 320.891C147.703 321.045 147.734 321.162 147.795 321.243C147.857 321.324 147.949 321.364 148.068 321.364C148.187 321.364 148.279 321.324 148.341 321.244C148.403 321.164 148.433 321.046 148.433 320.891C148.433 320.738 148.404 320.621 148.341 320.542C148.279 320.462 148.187 320.423 148.066 320.423C147.945 320.423 147.855 320.462 147.795 320.54C147.735 320.618 147.703 320.735 147.703 320.891Z" fill="white"/>
<path d="M150.486 321.494V320.711C150.486 320.614 150.466 320.543 150.425 320.494C150.384 320.446 150.32 320.423 150.232 320.423C150.119 320.423 150.035 320.455 149.98 320.521C149.925 320.587 149.898 320.686 149.898 320.822V321.495H149.716V320.712C149.716 320.615 149.695 320.544 149.654 320.495C149.613 320.447 149.549 320.424 149.461 320.424C149.346 320.424 149.262 320.458 149.209 320.527C149.156 320.596 149.129 320.708 149.129 320.864V321.496H148.945V320.292H149.093L149.124 320.456H149.132C149.167 320.397 149.216 320.352 149.278 320.319C149.34 320.286 149.411 320.269 149.489 320.269C149.678 320.269 149.801 320.337 149.86 320.473H149.87C149.905 320.411 149.958 320.361 150.026 320.324C150.094 320.288 150.172 320.269 150.26 320.269C150.397 320.269 150.498 320.304 150.567 320.374C150.635 320.443 150.669 320.556 150.669 320.709V321.495H150.486V321.494Z" fill="white"/>
<path d="M151.559 321.517C151.381 321.517 151.241 321.462 151.137 321.354C151.033 321.246 150.981 321.095 150.981 320.902C150.981 320.709 151.03 320.554 151.126 320.44C151.222 320.326 151.351 320.268 151.513 320.268C151.665 320.268 151.784 320.318 151.872 320.417C151.96 320.516 152.005 320.646 152.005 320.81V320.925H151.171C151.175 321.067 151.212 321.174 151.278 321.247C151.346 321.32 151.442 321.356 151.567 321.356C151.696 321.356 151.825 321.33 151.952 321.275V321.438C151.888 321.465 151.827 321.486 151.768 321.498C151.711 321.51 151.641 321.517 151.559 321.517ZM151.51 320.421C151.412 320.421 151.334 320.452 151.278 320.515C151.219 320.578 151.186 320.665 151.176 320.777H151.807C151.807 320.662 151.782 320.574 151.731 320.512C151.678 320.451 151.605 320.421 151.51 320.421Z" fill="white"/>
<path d="M163.428 320.592H164.067V321.425C163.963 321.459 163.866 321.483 163.774 321.496C163.684 321.51 163.59 321.517 163.495 321.517C163.251 321.517 163.065 321.446 162.936 321.303C162.807 321.16 162.743 320.955 162.743 320.689C162.743 320.43 162.819 320.227 162.968 320.083C163.116 319.937 163.323 319.865 163.587 319.865C163.753 319.865 163.913 319.898 164.066 319.964L163.953 320.236C163.836 320.177 163.713 320.148 163.586 320.148C163.438 320.148 163.32 320.198 163.231 320.296C163.141 320.396 163.098 320.528 163.098 320.695C163.098 320.869 163.133 321.003 163.205 321.094C163.277 321.185 163.381 321.232 163.517 321.232C163.587 321.232 163.662 321.225 163.734 321.211V320.875H163.429V320.592H163.428Z" fill="white"/>
<path d="M164.984 321.517C164.785 321.517 164.629 321.462 164.517 321.353C164.405 321.244 164.349 321.089 164.349 320.889C164.349 320.683 164.402 320.524 164.505 320.411C164.608 320.298 164.751 320.242 164.933 320.242C165.107 320.242 165.244 320.292 165.341 320.39C165.437 320.489 165.486 320.625 165.486 320.8V320.962H164.691C164.695 321.058 164.722 321.132 164.775 321.186C164.828 321.24 164.902 321.266 164.998 321.266C165.072 321.266 165.143 321.258 165.209 321.243C165.275 321.228 165.346 321.204 165.418 321.17V321.43C165.357 321.459 165.295 321.481 165.229 321.495C165.162 321.509 165.08 321.517 164.984 321.517ZM164.936 320.48C164.866 320.48 164.809 320.502 164.768 320.548C164.729 320.593 164.706 320.656 164.7 320.739H165.173C165.171 320.656 165.15 320.593 165.107 320.548C165.064 320.503 165.008 320.48 164.936 320.48Z" fill="white"/>
<path d="M166.834 320.266V320.436L166.641 320.486C166.676 320.541 166.694 320.602 166.694 320.671C166.694 320.803 166.647 320.905 166.555 320.98C166.463 321.053 166.334 321.09 166.17 321.09L166.109 321.086L166.06 321.081C166.025 321.107 166.007 321.137 166.007 321.169C166.007 321.217 166.069 321.241 166.193 321.241H166.404C166.539 321.241 166.642 321.27 166.713 321.328C166.784 321.386 166.82 321.471 166.82 321.583C166.82 321.727 166.759 321.838 166.638 321.917C166.519 321.996 166.345 322.036 166.12 322.036C165.948 322.036 165.815 322.006 165.725 321.946C165.633 321.886 165.588 321.802 165.588 321.695C165.588 321.621 165.611 321.559 165.658 321.509C165.703 321.459 165.771 321.423 165.861 321.402C165.828 321.387 165.797 321.364 165.771 321.331C165.745 321.298 165.732 321.262 165.732 321.225C165.732 321.178 165.746 321.139 165.773 321.108C165.8 321.077 165.839 321.046 165.892 321.016C165.826 320.989 165.775 320.944 165.738 320.882C165.699 320.82 165.681 320.748 165.681 320.664C165.681 320.53 165.724 320.427 165.812 320.353C165.9 320.279 166.025 320.243 166.187 320.243C166.222 320.243 166.263 320.246 166.31 320.253C166.357 320.259 166.388 320.264 166.402 320.267H166.834V320.266ZM165.881 321.668C165.881 321.714 165.904 321.75 165.947 321.776C165.992 321.802 166.054 321.816 166.135 321.816C166.256 321.816 166.35 321.799 166.418 321.766C166.486 321.733 166.522 321.688 166.522 321.631C166.522 321.584 166.502 321.553 166.461 321.535C166.42 321.517 166.357 321.509 166.273 321.509H166.1C166.038 321.509 165.985 321.524 165.944 321.552C165.902 321.582 165.881 321.62 165.881 321.668ZM166.004 320.668C166.004 320.734 166.02 320.787 166.049 320.826C166.08 320.865 166.127 320.884 166.19 320.884C166.253 320.884 166.299 320.865 166.329 320.826C166.359 320.787 166.374 320.734 166.374 320.668C166.374 320.52 166.312 320.445 166.19 320.445C166.066 320.445 166.004 320.52 166.004 320.668Z" fill="white"/>
<path d="M167.596 321.517C167.397 321.517 167.241 321.462 167.129 321.353C167.017 321.244 166.961 321.089 166.961 320.889C166.961 320.683 167.014 320.524 167.117 320.411C167.22 320.298 167.363 320.242 167.545 320.242C167.719 320.242 167.856 320.292 167.953 320.39C168.049 320.489 168.098 320.625 168.098 320.8V320.962H167.303C167.307 321.058 167.334 321.132 167.387 321.186C167.44 321.24 167.514 321.266 167.61 321.266C167.684 321.266 167.755 321.258 167.821 321.243C167.887 321.228 167.958 321.204 168.03 321.17V321.43C167.969 321.459 167.907 321.481 167.841 321.495C167.773 321.509 167.691 321.517 167.596 321.517ZM167.547 320.48C167.477 320.48 167.42 320.502 167.379 320.548C167.34 320.593 167.317 320.656 167.311 320.739H167.784C167.782 320.656 167.761 320.593 167.718 320.548C167.676 320.503 167.619 320.48 167.547 320.48Z" fill="white"/>
<path d="M168.664 321.494L168.195 320.265H168.547L168.785 320.965C168.812 321.053 168.828 321.137 168.834 321.216H168.842C168.846 321.146 168.862 321.062 168.891 320.965L169.129 320.265H169.481L169.01 321.494H168.664Z" fill="white"/>
<path d="M170.217 321.517C170.018 321.517 169.862 321.462 169.75 321.353C169.638 321.244 169.582 321.089 169.582 320.889C169.582 320.683 169.635 320.524 169.738 320.411C169.841 320.298 169.984 320.242 170.166 320.242C170.34 320.242 170.477 320.292 170.574 320.39C170.67 320.489 170.719 320.625 170.719 320.8V320.962H169.924C169.928 321.058 169.955 321.132 170.008 321.186C170.061 321.24 170.135 321.266 170.231 321.266C170.305 321.266 170.376 321.258 170.442 321.243C170.508 321.228 170.579 321.204 170.651 321.17V321.43C170.59 321.459 170.528 321.481 170.462 321.495C170.395 321.509 170.312 321.517 170.217 321.517ZM170.168 320.48C170.098 320.48 170.041 320.502 170 320.548C169.961 320.593 169.938 320.656 169.932 320.739H170.405C170.403 320.656 170.382 320.593 170.339 320.548C170.297 320.503 170.24 320.48 170.168 320.48Z" fill="white"/>
<path d="M172.131 321.494H171.795V320.776C171.795 320.687 171.779 320.621 171.748 320.577C171.715 320.532 171.666 320.511 171.596 320.511C171.502 320.511 171.434 320.542 171.393 320.605C171.35 320.667 171.329 320.772 171.329 320.917V321.495H170.993V320.266H171.251L171.296 320.423H171.316C171.353 320.363 171.404 320.319 171.47 320.288C171.536 320.257 171.611 320.242 171.695 320.242C171.838 320.242 171.947 320.281 172.021 320.358C172.095 320.435 172.132 320.546 172.132 320.693V321.494H172.131Z" fill="white"/>
<path d="M173.338 321.129C173.338 321.255 173.295 321.352 173.207 321.417C173.119 321.483 172.986 321.517 172.812 321.517C172.722 321.517 172.646 321.51 172.582 321.498C172.52 321.486 172.461 321.468 172.404 321.444V321.168C172.466 321.197 172.537 321.222 172.617 321.241C172.695 321.261 172.763 321.271 172.822 321.271C172.945 321.271 173.006 321.236 173.006 321.166C173.006 321.14 172.998 321.118 172.983 321.102C172.968 321.086 172.938 321.067 172.899 321.045C172.86 321.024 172.805 321 172.741 320.972C172.645 320.933 172.575 320.896 172.53 320.863C172.487 320.829 172.454 320.791 172.434 320.747C172.413 320.704 172.403 320.65 172.403 320.586C172.403 320.478 172.446 320.393 172.53 320.333C172.616 320.273 172.737 320.243 172.893 320.243C173.041 320.243 173.186 320.275 173.327 320.34L173.225 320.582C173.163 320.556 173.104 320.534 173.051 320.517C172.996 320.5 172.942 320.493 172.887 320.493C172.787 320.493 172.737 320.519 172.737 320.573C172.737 320.602 172.755 320.629 172.786 320.651C172.817 320.672 172.888 320.705 172.997 320.749C173.093 320.788 173.163 320.824 173.208 320.857C173.253 320.891 173.286 320.929 173.308 320.973C173.33 321.017 173.338 321.068 173.338 321.129Z" fill="white"/>
<path d="M183.881 321.066C183.881 321.208 183.83 321.318 183.727 321.397C183.624 321.476 183.485 321.516 183.307 321.516C183.116 321.516 182.969 321.491 182.866 321.442V321.262C182.932 321.289 183.005 321.312 183.083 321.327C183.161 321.344 183.237 321.351 183.315 321.351C183.44 321.351 183.534 321.328 183.596 321.28C183.66 321.233 183.692 321.168 183.692 321.083C183.692 321.027 183.68 320.982 183.657 320.946C183.636 320.911 183.598 320.878 183.546 320.847C183.493 320.818 183.413 320.784 183.306 320.745C183.156 320.691 183.048 320.628 182.984 320.555C182.92 320.482 182.888 320.386 182.888 320.268C182.888 320.145 182.935 320.046 183.029 319.973C183.121 319.9 183.246 319.863 183.398 319.863C183.56 319.863 183.707 319.892 183.841 319.951L183.782 320.114C183.649 320.058 183.52 320.03 183.393 320.03C183.293 320.03 183.217 320.051 183.161 320.093C183.104 320.136 183.077 320.195 183.077 320.271C183.077 320.327 183.087 320.372 183.108 320.408C183.128 320.443 183.163 320.475 183.212 320.506C183.261 320.535 183.337 320.568 183.437 320.605C183.607 320.665 183.722 320.729 183.787 320.798C183.85 320.867 183.881 320.957 183.881 321.066Z" fill="white"/>
<path d="M184.666 321.517C184.49 321.517 184.355 321.463 184.26 321.356C184.165 321.249 184.115 321.096 184.115 320.9C184.115 320.699 184.164 320.543 184.261 320.433C184.359 320.323 184.497 320.268 184.677 320.268C184.736 320.268 184.794 320.274 184.853 320.287C184.91 320.3 184.957 320.314 184.99 320.331L184.933 320.486C184.892 320.469 184.849 320.457 184.8 320.446C184.753 320.435 184.71 320.43 184.673 320.43C184.427 320.43 184.304 320.585 184.304 320.898C184.304 321.045 184.335 321.16 184.394 321.239C184.455 321.318 184.544 321.357 184.662 321.357C184.762 321.357 184.865 321.336 184.973 321.293V321.454C184.891 321.495 184.789 321.517 184.666 321.517Z" fill="white"/>
<path d="M186.002 321.494L185.967 321.322H185.957C185.896 321.398 185.838 321.449 185.777 321.475C185.716 321.502 185.642 321.516 185.552 321.516C185.433 321.516 185.337 321.485 185.271 321.423C185.203 321.361 185.167 321.274 185.167 321.16C185.167 320.917 185.362 320.789 185.753 320.777L185.958 320.771V320.696C185.958 320.601 185.938 320.532 185.897 320.487C185.856 320.442 185.792 320.42 185.702 320.42C185.6 320.42 185.487 320.45 185.36 320.512L185.303 320.372C185.362 320.34 185.428 320.314 185.498 320.296C185.568 320.278 185.641 320.269 185.711 320.269C185.856 320.269 185.963 320.301 186.033 320.365C186.101 320.429 186.137 320.531 186.137 320.672V321.494H186.002ZM185.59 321.365C185.703 321.365 185.793 321.334 185.858 321.272C185.924 321.21 185.956 321.123 185.956 321.01V320.901L185.772 320.909C185.627 320.915 185.522 320.937 185.458 320.977C185.394 321.016 185.362 321.079 185.362 321.163C185.362 321.229 185.382 321.279 185.421 321.313C185.461 321.349 185.518 321.365 185.59 321.365Z" fill="white"/>
<path d="M187.344 321.494V320.715C187.344 320.617 187.321 320.544 187.276 320.495C187.231 320.447 187.161 320.423 187.067 320.423C186.94 320.423 186.846 320.457 186.788 320.525C186.729 320.593 186.7 320.706 186.7 320.863V321.495H186.516V320.291H186.664L186.695 320.455H186.703C186.74 320.396 186.793 320.351 186.861 320.317C186.929 320.285 187.004 320.268 187.088 320.268C187.233 320.268 187.344 320.303 187.416 320.373C187.49 320.442 187.527 320.555 187.527 320.708V321.494H187.344Z" fill="white"/>
<path d="M189.918 320.688C189.918 320.894 189.875 321.065 189.793 321.202C189.709 321.338 189.592 321.431 189.441 321.478L189.824 321.876H189.553L189.239 321.513L189.178 321.516C188.94 321.516 188.756 321.443 188.627 321.298C188.498 321.153 188.434 320.949 188.434 320.686C188.434 320.424 188.498 320.221 188.627 320.078C188.758 319.934 188.941 319.862 189.18 319.862C189.41 319.862 189.592 319.935 189.723 320.082C189.852 320.229 189.918 320.431 189.918 320.688ZM188.633 320.688C188.633 320.906 188.678 321.071 188.772 321.183C188.866 321.295 189.001 321.352 189.178 321.352C189.355 321.352 189.49 321.295 189.582 321.184C189.674 321.072 189.719 320.907 189.719 320.688C189.719 320.472 189.674 320.308 189.582 320.196C189.492 320.085 189.357 320.029 189.18 320.029C189 320.029 188.866 320.085 188.772 320.198C188.678 320.311 188.633 320.474 188.633 320.688Z" fill="white"/>
<path d="M190.465 320.826V321.494H190.277V319.888H190.718C190.917 319.888 191.064 319.925 191.157 320.001C191.251 320.076 191.3 320.189 191.3 320.341C191.3 320.554 191.191 320.697 190.974 320.773L191.413 321.495H191.19L190.799 320.827H190.465V320.826ZM190.465 320.665H190.721C190.854 320.665 190.951 320.64 191.014 320.587C191.075 320.534 191.106 320.456 191.106 320.352C191.106 320.246 191.075 320.168 191.012 320.122C190.949 320.076 190.848 320.052 190.709 320.052H190.465V320.665Z" fill="white"/>
<path d="M202.916 321.494L202.715 320.983H202.069L201.87 321.494H201.681L202.318 319.881H202.476L203.111 321.494H202.916ZM202.656 320.815L202.468 320.317C202.443 320.254 202.417 320.176 202.392 320.085C202.376 320.155 202.353 320.232 202.324 320.317L202.135 320.815H202.656Z" fill="white"/>
<path d="M203.787 321.517C203.611 321.517 203.476 321.463 203.379 321.356C203.283 321.249 203.236 321.096 203.236 320.9C203.236 320.699 203.285 320.543 203.382 320.433C203.478 320.323 203.618 320.268 203.798 320.268C203.857 320.268 203.913 320.274 203.972 320.287C204.031 320.3 204.076 320.314 204.109 320.331L204.052 320.486C204.013 320.469 203.968 320.457 203.921 320.446C203.872 320.435 203.829 320.43 203.794 320.43C203.548 320.43 203.425 320.585 203.425 320.898C203.425 321.045 203.454 321.16 203.515 321.239C203.576 321.318 203.663 321.357 203.781 321.357C203.883 321.357 203.986 321.336 204.092 321.293V321.454C204.012 321.495 203.91 321.517 203.787 321.517Z" fill="white"/>
<path d="M204.77 321.365C204.803 321.365 204.834 321.363 204.864 321.358C204.895 321.353 204.919 321.348 204.936 321.343V321.483C204.916 321.493 204.887 321.501 204.848 321.506C204.809 321.511 204.774 321.516 204.744 321.516C204.51 321.516 204.392 321.393 204.392 321.148V320.431H204.218V320.343L204.392 320.267L204.47 320.01H204.575V320.289H204.925V320.431H204.575V321.14C204.575 321.212 204.593 321.268 204.626 321.307C204.662 321.346 204.709 321.365 204.77 321.365Z" fill="white"/>
<path d="M205.162 319.963C205.162 319.922 205.172 319.891 205.193 319.871C205.213 319.852 205.238 319.843 205.269 319.843C205.298 319.843 205.324 319.853 205.345 319.872C205.366 319.891 205.378 319.922 205.378 319.963C205.378 320.004 205.366 320.035 205.345 320.055C205.324 320.076 205.298 320.085 205.269 320.085C205.238 320.085 205.212 320.075 205.193 320.055C205.172 320.035 205.162 320.004 205.162 319.963ZM205.359 321.494H205.177V320.29H205.359V321.494Z" fill="white"/>
<path d="M206.014 321.494L205.555 320.29H205.75L206.012 321.004C206.071 321.171 206.104 321.279 206.116 321.329H206.124C206.132 321.29 206.159 321.21 206.202 321.088C206.245 320.966 206.341 320.7 206.491 320.29H206.686L206.227 321.494H206.014Z" fill="white"/>
<path d="M206.865 319.963C206.865 319.922 206.877 319.891 206.896 319.871C206.917 319.852 206.943 319.843 206.974 319.843C207.003 319.843 207.029 319.853 207.05 319.872C207.071 319.891 207.081 319.922 207.081 319.963C207.081 320.004 207.071 320.035 207.05 320.055C207.029 320.076 207.003 320.085 206.974 320.085C206.943 320.085 206.917 320.075 206.896 320.055C206.877 320.035 206.865 320.004 206.865 319.963ZM207.064 321.494H206.88V320.29H207.064V321.494Z" fill="white"/>
<path d="M207.844 321.365C207.875 321.365 207.906 321.363 207.938 321.358C207.967 321.353 207.991 321.348 208.008 321.343V321.483C207.988 321.493 207.959 321.501 207.922 321.506C207.883 321.512 207.848 321.516 207.817 321.516C207.583 321.516 207.465 321.393 207.465 321.148V320.431H207.293V320.343L207.465 320.267L207.543 320.01H207.648V320.289H208V320.431H207.648V321.14C207.648 321.212 207.666 321.268 207.701 321.307C207.736 321.346 207.783 321.365 207.844 321.365Z" fill="white"/>
<path d="M208.762 321.517C208.582 321.517 208.442 321.462 208.338 321.354C208.234 321.246 208.184 321.095 208.184 320.902C208.184 320.709 208.231 320.554 208.327 320.44C208.425 320.326 208.554 320.268 208.714 320.268C208.866 320.268 208.985 320.318 209.075 320.417C209.163 320.516 209.206 320.646 209.206 320.81V320.925H208.374C208.378 321.067 208.413 321.174 208.481 321.247C208.549 321.32 208.645 321.356 208.768 321.356C208.899 321.356 209.028 321.33 209.155 321.275V321.438C209.091 321.465 209.028 321.486 208.971 321.498C208.912 321.51 208.844 321.517 208.762 321.517ZM208.711 320.421C208.615 320.421 208.537 320.452 208.479 320.515C208.422 320.578 208.387 320.665 208.377 320.777H209.01C209.01 320.662 208.985 320.574 208.932 320.512C208.881 320.451 208.807 320.421 208.711 320.421Z" fill="white"/>
<path d="M209.502 319.963C209.502 319.922 209.514 319.891 209.533 319.871C209.554 319.852 209.58 319.843 209.611 319.843C209.64 319.843 209.666 319.853 209.687 319.872C209.708 319.891 209.718 319.922 209.718 319.963C209.718 320.004 209.708 320.035 209.687 320.055C209.666 320.076 209.64 320.085 209.611 320.085C209.58 320.085 209.554 320.075 209.533 320.055C209.514 320.035 209.502 320.004 209.502 319.963ZM209.701 321.494H209.517V320.29H209.701V321.494Z" fill="white"/>
<path d="M210.48 321.365C210.511 321.365 210.542 321.363 210.574 321.358C210.603 321.353 210.627 321.348 210.644 321.343V321.483C210.624 321.493 210.595 321.501 210.558 321.506C210.519 321.512 210.484 321.516 210.453 321.516C210.219 321.516 210.101 321.393 210.101 321.148V320.431H209.929V320.343L210.101 320.267L210.179 320.01H210.284V320.289H210.636V320.431H210.284V321.14C210.284 321.212 210.302 321.268 210.337 321.307C210.373 321.346 210.42 321.365 210.48 321.365Z" fill="white"/>
<path d="M223.467 321.494L222.92 320.07H222.91C222.92 320.182 222.926 320.316 222.926 320.471V321.493H222.752V319.887H223.035L223.547 321.212H223.555L224.071 319.887H224.35V321.493H224.162V320.458C224.162 320.339 224.168 320.21 224.178 320.071H224.17L223.617 321.493H223.467V321.494Z" fill="white"/>
<path d="M225.275 321.517C225.097 321.517 224.957 321.462 224.853 321.354C224.749 321.246 224.697 321.095 224.697 320.902C224.697 320.709 224.746 320.554 224.842 320.44C224.938 320.326 225.067 320.268 225.229 320.268C225.381 320.268 225.5 320.318 225.588 320.417C225.676 320.516 225.721 320.646 225.721 320.81V320.925H224.887C224.891 321.067 224.928 321.174 224.994 321.247C225.062 321.32 225.158 321.356 225.283 321.356C225.412 321.356 225.541 321.33 225.668 321.275V321.438C225.604 321.465 225.543 321.486 225.484 321.498C225.428 321.51 225.357 321.517 225.275 321.517ZM225.227 320.421C225.129 320.421 225.051 320.452 224.995 320.515C224.936 320.578 224.903 320.665 224.893 320.777H225.524C225.524 320.662 225.499 320.574 225.448 320.512C225.395 320.451 225.322 320.421 225.227 320.421Z" fill="white"/>
<path d="M226.545 321.517C226.365 321.517 226.225 321.462 226.121 321.354C226.017 321.246 225.967 321.095 225.967 320.902C225.967 320.709 226.014 320.554 226.11 320.44C226.208 320.326 226.337 320.268 226.497 320.268C226.649 320.268 226.768 320.318 226.858 320.417C226.946 320.516 226.989 320.646 226.989 320.81V320.925H226.157C226.161 321.067 226.196 321.174 226.264 321.247C226.332 321.32 226.428 321.356 226.551 321.356C226.682 321.356 226.811 321.33 226.938 321.275V321.438C226.874 321.465 226.811 321.486 226.754 321.498C226.695 321.51 226.627 321.517 226.545 321.517ZM226.494 320.421C226.398 320.421 226.32 320.452 226.262 320.515C226.205 320.578 226.17 320.665 226.16 320.777H226.793C226.793 320.662 226.768 320.574 226.715 320.512C226.664 320.451 226.59 320.421 226.494 320.421Z" fill="white"/>
<path d="M227.854 320.268C227.907 320.268 227.956 320.273 227.999 320.282L227.974 320.451C227.923 320.44 227.878 320.434 227.841 320.434C227.743 320.434 227.659 320.474 227.589 320.553C227.521 320.632 227.485 320.73 227.485 320.848V321.494H227.301V320.29H227.453L227.473 320.513H227.483C227.528 320.435 227.581 320.374 227.645 320.331C227.707 320.289 227.777 320.268 227.854 320.268Z" fill="white"/>
<path d="M222.707 316.841C222.583 316.841 222.473 316.795 222.393 316.711C222.301 316.624 222.262 316.515 222.262 316.391C222.262 316.266 222.301 316.162 222.393 316.071C222.473 315.984 222.583 315.938 222.707 315.938C222.832 315.938 222.943 315.984 223.027 316.071C223.118 316.162 223.15 316.266 223.15 316.391C223.15 316.515 223.118 316.624 223.027 316.711C222.943 316.795 222.832 316.841 222.707 316.841ZM225.271 316.841C225.148 316.841 225.041 316.795 224.951 316.711C224.86 316.624 224.816 316.515 224.816 316.391C224.816 316.266 224.86 316.162 224.951 316.071C225.041 315.984 225.148 315.938 225.271 315.938C225.399 315.938 225.501 315.984 225.591 316.071C225.677 316.162 225.72 316.266 225.72 316.391C225.72 316.515 225.677 316.624 225.591 316.711C225.502 316.795 225.399 316.841 225.271 316.841ZM227.834 316.841C227.707 316.841 227.6 316.795 227.511 316.711C227.423 316.624 227.379 316.515 227.379 316.391C227.379 316.266 227.423 316.162 227.511 316.071C227.6 315.984 227.707 315.938 227.834 315.938C227.954 315.938 228.064 315.984 228.15 316.071C228.242 316.162 228.285 316.266 228.285 316.391C228.285 316.515 228.242 316.624 228.15 316.711C228.064 316.795 227.954 316.841 227.834 316.841Z" fill="white"/>
<path d="M214.251 130.925H213.541V131.98H214.251V130.925Z" fill="#1A1A1A"/>
<path d="M215.407 130.368H214.703V131.98H215.407V130.368Z" fill="#1A1A1A"/>
<path d="M216.568 129.83H215.854V131.98H216.568V129.83Z" fill="#1A1A1A"/>
<path d="M217.721 129.382H217.008V131.98H217.721V129.382Z" fill="#1A1A1A"/>
<path d="M221.083 129.734C221.695 129.734 222.252 129.939 222.711 130.275L223.046 129.917C222.5 129.504 221.825 129.246 221.083 129.246C220.357 129.246 219.693 129.498 219.15 129.902L219.481 130.26C219.935 129.932 220.484 129.734 221.083 129.734Z" fill="#1A1A1A"/>
<path d="M221.083 130.74C221.428 130.74 221.725 130.858 221.993 131.024L222.347 130.658C221.983 130.406 221.562 130.223 221.082 130.223C220.613 130.223 220.202 130.402 219.843 130.648L220.189 131.02C220.458 130.857 220.75 130.74 221.083 130.74Z" fill="#1A1A1A"/>
<path d="M221.614 131.422C221.45 131.342 221.279 131.285 221.083 131.285C220.896 131.285 220.725 131.34 220.561 131.42L221.083 131.98L221.614 131.422Z" fill="#1A1A1A"/>
<path d="M228.828 129.892H225.055V131.312H228.828V129.892Z" fill="#1A1A1A"/>
<path d="M229.397 131.968H224.533V129.234H229.397V131.968ZM224.752 131.749H229.177V129.453H224.752V131.749Z" fill="#1A1A1A"/>
<path d="M229.87 130.118H229.542V131.089H229.87V130.118Z" fill="#1A1A1A"/>
<path d="M146.146 130.328C146.146 130.856 146.041 131.249 145.826 131.51C145.613 131.77 145.293 131.9 144.863 131.9C144.701 131.9 144.584 131.89 144.511 131.871V131.51C144.62 131.541 144.73 131.556 144.841 131.556C145.132 131.556 145.351 131.478 145.493 131.322C145.635 131.166 145.716 130.92 145.729 130.586H145.706C145.634 130.696 145.546 130.775 145.444 130.824C145.342 130.873 145.221 130.897 145.085 130.897C144.847 130.897 144.659 130.823 144.524 130.675C144.387 130.528 144.319 130.325 144.319 130.067C144.319 129.787 144.399 129.565 144.555 129.4C144.713 129.234 144.928 129.151 145.2 129.151C145.391 129.151 145.559 129.197 145.7 129.29C145.843 129.383 145.952 129.518 146.03 129.694C146.107 129.87 146.146 130.081 146.146 130.328ZM145.209 129.507C145.059 129.507 144.945 129.555 144.865 129.653C144.785 129.751 144.746 129.886 144.746 130.063C144.746 130.215 144.783 130.335 144.857 130.423C144.931 130.51 145.043 130.554 145.193 130.554C145.339 130.554 145.463 130.511 145.562 130.424C145.662 130.337 145.71 130.236 145.71 130.12C145.71 130.011 145.689 129.91 145.648 129.815C145.605 129.72 145.546 129.646 145.47 129.591C145.395 129.535 145.307 129.507 145.209 129.507Z" fill="black"/>
<path d="M146.557 130.07C146.557 129.885 146.647 129.793 146.828 129.793C146.92 129.793 146.99 129.817 147.035 129.866C147.08 129.915 147.103 129.983 147.103 130.07C147.103 130.156 147.08 130.225 147.031 130.276C146.984 130.326 146.918 130.352 146.828 130.352C146.74 130.352 146.674 130.327 146.627 130.277C146.58 130.227 146.557 130.158 146.557 130.07ZM146.557 131.634C146.557 131.545 146.58 131.476 146.627 131.429C146.674 131.381 146.74 131.358 146.828 131.358C146.918 131.358 146.986 131.382 147.033 131.432C147.08 131.481 147.103 131.549 147.103 131.634C147.103 131.721 147.08 131.789 147.031 131.84C146.984 131.891 146.918 131.916 146.828 131.916C146.74 131.916 146.674 131.891 146.627 131.841C146.58 131.791 146.557 131.722 146.557 131.634Z" fill="black"/>
<path d="M149.432 131.278H149.071V131.862H148.649V131.278H147.42V130.946L148.649 129.177H149.071V130.921H149.432V131.278ZM148.648 130.921V130.249C148.648 130.01 148.654 129.814 148.666 129.661H148.652C148.617 129.742 148.564 129.839 148.49 129.954L147.822 130.921H148.648Z" fill="black"/>
<path d="M150.932 131.863H150.5V130.134C150.5 129.927 150.504 129.764 150.514 129.643C150.487 129.672 150.452 129.705 150.41 129.74C150.369 129.776 150.232 129.888 149.998 130.077L149.781 129.804L150.572 129.185H150.931V131.863H150.932Z" fill="black"/>
<path d="M187.342 217.151C183.621 217.151 180.106 216.436 176.809 215.007C173.508 213.577 170.627 211.636 168.16 209.176C165.692 206.719 163.741 203.863 162.306 200.601C160.87 197.341 160.153 193.833 160.153 190.071C160.153 186.308 160.871 182.785 162.306 179.501C163.742 176.217 165.693 173.357 168.16 170.926C170.627 168.495 173.499 166.561 176.77 165.135C180.042 163.705 183.567 162.988 187.342 162.988C191.119 162.988 194.655 163.705 197.955 165.135C201.253 166.561 204.122 168.495 206.566 170.926C209.005 173.357 210.947 176.217 212.381 179.501C213.817 182.786 214.534 186.309 214.534 190.071C214.534 193.782 213.816 197.28 212.381 200.565C210.946 203.847 209.005 206.719 206.566 209.176C204.122 211.636 201.253 213.577 197.955 215.007C194.655 216.437 191.119 217.151 187.342 217.151Z" fill="white"/>
<path d="M187.342 217.151C183.621 217.151 180.106 216.436 176.809 215.007C173.508 213.577 170.625 211.634 168.16 209.176C165.692 206.719 163.741 203.863 162.306 200.601C160.87 197.341 160.155 193.833 160.155 190.071C160.155 186.308 160.871 182.785 162.306 179.501C163.742 176.217 165.693 173.357 168.16 170.926C170.626 168.495 173.499 166.561 176.772 165.135C180.043 163.705 183.569 162.988 187.342 162.988C191.117 162.988 194.655 163.705 197.955 165.135C201.253 166.561 204.122 168.495 206.566 170.926C209.005 173.357 210.947 176.217 212.381 179.501C213.817 182.786 214.534 186.309 214.534 190.071C214.534 193.78 213.816 197.28 212.381 200.565C210.946 203.846 209.005 206.719 206.566 209.176C204.122 211.634 201.253 213.577 197.955 215.007C194.655 216.437 191.117 217.151 187.342 217.151Z" fill="#00973A"/>
<path d="M184.012 199.189L174.729 189.943L176.51 188.168L184.012 195.64L199.926 179.787L201.712 181.564L184.012 199.189Z" fill="white"/>
<path d="M208.65 313.152C208.507 312.82 208.306 312.524 208.053 312.276C207.796 312.023 207.5 311.823 207.171 311.683C206.838 311.539 206.475 311.466 206.092 311.466C205.699 311.466 205.322 311.548 204.97 311.713C204.696 311.841 204.47 312.019 204.292 312.234C204.239 312.28 204.183 312.324 204.132 312.375L204.081 311.51L203.765 311.564L203.82 312.906L205.153 312.852L205.099 312.536L204.64 312.59H204.369C204.592 312.367 204.846 312.183 205.132 312.05C205.433 311.91 205.756 311.838 206.093 311.838C206.758 311.838 207.333 312.07 207.8 312.527C208.267 312.982 208.505 313.548 208.505 314.209C208.505 314.88 208.268 315.458 207.804 315.926C207.337 316.392 206.762 316.63 206.093 316.63C205.465 316.63 204.919 316.414 204.471 315.988C204.023 315.561 203.771 315.029 203.667 314.359L203.351 314.416C203.397 315.144 203.684 315.763 204.206 316.257C204.727 316.751 205.362 317.001 206.093 317.001C206.477 317.001 206.84 316.927 207.174 316.78C207.502 316.636 207.799 316.438 208.054 316.19C208.309 315.939 208.509 315.642 208.651 315.306C208.795 314.967 208.867 314.603 208.867 314.224C208.866 313.846 208.794 313.486 208.65 313.152Z" fill="white"/>
<path d="M207.282 315.551L207.469 315.287L206.308 314.174L206.254 312.476L205.943 312.529L205.96 314.322L207.244 315.589L207.282 315.551Z" fill="white"/>
</g>
<defs>
<clipPath id="clip0_4444_7649">
<rect width="375" height="406" fill="white"/>
</clipPath>
</defs>
</svg>
