<svg width="286" height="286" viewBox="0 0 286 286" fill="none" xmlns="http://www.w3.org/2000/svg">
<g clip-path="url(#clip0_5858_24371)">
<path d="M142.7 285.4C221.51 285.4 285.4 221.51 285.4 142.7C285.4 63.89 221.51 0 142.7 0C63.89 0 0 63.89 0 142.7C0 221.51 63.89 285.4 142.7 285.4Z" fill="#CCE1EC"/>
<path d="M244.13 243.06L192.68 117.61C192.68 117.61 181.77 94.6301 165.46 93.3801L157.85 127.85L119.85 219.74C128.78 240.74 148.7 249.19 158.93 249.19L173.42 249.02L180.47 280.33C204.95 273.63 226.79 260.58 244.14 243.06H244.13Z" fill="#EE9A80"/>
<path d="M79.08 109.58C79.08 109.58 67.08 162.3 68.29 172.56C68.29 172.56 66.48 183.72 83.38 193.38L98.16 136.48L79.09 109.59L79.08 109.58Z" fill="#EE9A80"/>
<path d="M171.99 231.26L97.4 235.62C89.69 236.07 83.07 230.19 82.62 222.48L72.41 54.1701C71.96 46.4601 77.84 39.8401 85.55 39.3901L160.14 35.0301C167.85 34.5801 174.47 40.4601 174.92 48.1701L185.13 216.48C185.58 224.19 179.7 230.81 171.99 231.26Z" fill="#484747"/>
<path d="M96.57 228.15C93.14 228.15 90.3 225.46 90.1 222.03L79.89 53.7C79.79 51.98 80.37 50.31 81.52 49.02C82.67 47.72 84.26 46.95 85.99 46.85L160.58 42.49C160.71 42.49 160.85 42.48 160.97 42.48C164.4 42.48 167.24 45.17 167.44 48.6L177.66 216.93C177.87 220.49 175.13 223.57 171.55 223.78L96.96 228.14C96.83 228.14 96.69 228.15 96.57 228.15Z" fill="white"/>
<path d="M141.8 196.87C149.16 196.87 155.12 190.91 155.12 183.55C155.12 176.19 149.16 170.23 141.8 170.23C134.44 170.23 128.48 176.2 128.48 183.55C128.48 190.9 134.45 196.87 141.8 196.87Z" fill="#EE9A80"/>
<path d="M154.61 161.26L194.21 196.26L208.03 161.3L172.28 138.56L154.61 161.26Z" fill="#EE9A80"/>
<path d="M128.48 161.64C146.468 161.64 161.05 147.058 161.05 129.07C161.05 111.082 146.468 96.5 128.48 96.5C110.492 96.5 95.91 111.082 95.91 129.07C95.91 147.058 110.492 161.64 128.48 161.64Z" fill="#80B276"/>
<path d="M175.94 157.09L153.22 190.44L130.4 176.68L151.27 142.09L175.94 157.1V157.09Z" fill="#EE9A80"/>
<path d="M163.56 164.09C171.54 164.09 178 157.62 178 149.65C178 141.68 171.53 135.21 163.56 135.21C155.59 135.21 149.12 141.68 149.12 149.65C149.12 157.62 155.59 164.09 163.56 164.09Z" fill="#EE9A80"/>
<path d="M113.74 129.64L125.02 142.99L141.06 115.16" stroke="white" stroke-width="6" stroke-linecap="round" stroke-linejoin="round"/>
</g>
<defs>
<clipPath id="clip0_5858_24371">
<rect width="285.4" height="285.4" fill="white"/>
</clipPath>
</defs>
</svg>
