<svg width="375" height="406" viewBox="0 0 375 406" fill="none" xmlns="http://www.w3.org/2000/svg">
<g clip-path="url(#clip0_4444_8081)">
<path d="M375 395.979H0V405.979H375V395.979Z" fill="#C1BEBE"/>
<path d="M374.324 204.875C374.324 204.875 369.232 198.289 368.42 197.879C367.609 197.473 363.941 193.732 363.227 192.708C362.516 191.699 356.114 188.161 355.813 188.161C355.501 188.161 353.471 185.013 352.961 185.013C352.455 185.013 348.887 185.116 347.77 185.324C346.655 185.521 340.651 184.816 337.709 184.816C334.748 184.816 335.051 186.834 333.322 187.448C331.592 188.055 329.965 186.633 329.965 186.633C329.965 186.633 331.699 186.125 332.315 185.218C332.92 184.308 331.903 184.308 329.669 183.898C327.429 183.498 325.491 182.885 322.44 182.176C321.878 182.043 321.397 181.968 320.944 181.922C321.1 179.798 321.061 177.116 320.673 175.151C321.321 175.891 323.107 175.109 323.237 174.116C323.366 173.111 323.643 171.294 323.544 169.47C323.442 167.642 323.937 166.559 323.937 165.882C323.937 165.195 324.265 162.453 322.882 161.73C322.314 161.426 321.915 161.495 321.618 161.656C321.645 161.559 321.698 161.49 321.698 161.37C321.702 160.896 321.96 159.992 321.915 159.638C321.878 159.275 321.511 157.795 321.345 157.393C321.45 157.518 321.585 157.841 321.585 157.841C321.585 157.841 321.378 156.882 321.138 156.458C320.898 156.034 320.693 155.472 320.472 155.177C320.583 155.209 320.74 155.472 320.732 155.407C320.712 155.357 320.294 154.49 319.955 154.094C319.611 153.693 319.232 152.955 319.057 152.739C318.889 152.523 318.776 152.265 318.776 152.265L318.954 152.371C318.954 152.371 318.929 152.076 318.497 151.73C318.071 151.389 317.567 150.107 317.226 149.813C316.884 149.523 316.486 149.233 316.486 149.233L316.644 149.21C316.585 149.214 316.431 149.214 316.283 148.961C316.107 148.653 315.76 148.021 315.525 147.828C315.293 147.64 314.787 146.971 314.541 146.897C314.303 146.837 313.939 146.523 313.939 146.523C313.939 146.523 314.168 146.523 314.263 146.616C314.255 146.389 313.867 146.283 313.548 146.233C313.523 146.202 313.501 146.176 313.478 146.146C318.931 145.061 324.371 143.907 329.808 142.816C336.048 147.388 358.619 151.52 359.445 143.414C360.664 143.285 361.925 143.329 362.937 142.617C363.814 142.019 364.14 141.006 363.984 140.04C365.158 139.426 366.242 138.628 366.89 137.476C367.603 136.149 366.945 135.14 365.915 134.37C367.591 133.188 369.134 131.692 366.874 130.353C364.255 128.787 358.759 130.381 355.667 129.996C351.188 129.428 347.138 127.818 343.401 125.382C344.917 123.159 346.463 120.867 347.409 118.459C347.841 117.348 348.44 114.957 346.979 114.187C345.249 113.288 342.959 116.253 342.084 117.219C339.65 119.885 337.35 122.677 335 125.426C332.156 127.176 329.32 129.584 327.791 132.448C317.113 133.772 307.08 131.934 296.33 130.323C290.992 129.527 282.85 127.662 277.412 129.868C273.017 129.284 268.836 128.118 264.6 126.649C263.098 126.122 260.022 124.329 257.76 123.829C257.643 123.387 257.457 122.961 257.127 122.532C255.643 120.596 251.732 119.428 249.689 118.445C244.119 115.74 237.648 112.021 231.328 110.754C229.937 109.484 228.32 108.974 226.461 108.66C224.268 108.133 221.879 107.947 219.658 107.79C219.633 107.79 219.603 107.79 219.576 107.79C214.523 107.121 209.455 106.437 204.433 107.107C203.829 105.726 202.703 103.875 202.585 102.493C202.501 101.267 202.515 100.055 202.458 98.845C204.202 96.438 205.22 93.66 205.376 90.656C206.396 90.399 207.241 89.973 207.667 88.69C208.085 87.406 208.155 86.224 208.841 84.984C209.298 84.13 209.614 83.289 209.64 82.306C209.669 81.323 209.411 80.056 208.328 79.729C208.025 79.645 207.695 79.658 207.367 79.759C208.842 72.593 207.166 63.592 200.697 59.431C197.394 57.31 188.56 55.999 183.74 58.349C179.502 58.633 175.625 60.342 173.949 64.645C172.144 69.275 171.861 74.501 172.99 79.33C171.703 79.999 170.97 81.738 171.703 83.39C172.289 84.744 173.449 85.683 173.933 87.108C174.277 88.132 174.363 89.131 175.023 90.027C175.582 90.811 176.351 91.297 177.211 91.367C177.342 93.147 177.955 94.785 178.701 96.41C178.972 97.007 179.303 97.505 179.705 97.977C179.273 100.496 178.301 103.944 178.344 106.934C174.207 107.319 170.112 107.917 166.049 108.758C166.049 108.758 166.035 108.758 166.022 108.758H166.006C160.195 108.345 153.725 108.973 149.158 112.206C143.435 113.159 137.642 116.692 132.73 119.583C132.701 119.599 132.689 119.613 132.662 119.626C131.185 120.339 129.512 121.207 128.037 122.204C124.873 123.912 122.625 125.338 124.057 128.03C121.51 128.132 117.703 129.941 115.772 130.495C113.752 131.066 111.768 131.691 109.792 132.376H109.778C106.712 132.376 102.846 133.128 99.9709 133.044C95.1509 132.929 90.4869 133.5 85.7169 134.239C82.6329 134.718 79.5569 135.142 76.4849 135.495C73.1859 134.261 69.9009 133.009 66.8539 131.265C66.4689 129.969 65.8329 128.689 65.2639 127.389C65.3579 127.218 65.4479 127.048 65.5259 126.872C71.7859 124.09 73.6819 116.553 73.6039 110.163C74.5359 106.693 74.2059 103.014 72.5039 99.757C71.6489 98.119 70.4769 96.738 69.0899 95.539C67.7329 89.808 62.8519 85.554 57.4669 83.058C50.7229 79.939 43.7699 82.658 37.7189 86.081C30.1549 90.296 23.9319 97.467 23.5199 106.293C19.5879 115.676 17.1099 125.743 18.5339 135.794C15.7609 136.271 10.6359 137.217 10.3479 139.739C10.0749 142.214 13.8889 142.274 18.0359 141.675C18.0029 141.774 17.9719 141.872 17.9359 141.972C17.4929 142.111 17.0429 142.246 16.6039 142.39C14.7719 142.988 12.0379 143.457 10.9969 145.322C9.42093 148.142 12.8719 148.072 15.3059 147.703C14.6399 148.623 14.5639 149.535 15.4129 150.177C13.5029 157.421 12.6509 164.905 15.4419 171.914C15.2189 176.12 15.8799 180.391 16.5359 184.548C13.4439 192.71 9.92493 200.736 6.85793 208.882C6.86193 208.876 6.82893 208.886 6.82493 208.886C4.78793 206.567 2.46793 204.692 0.00292969 203.242V261.935C0.91893 262.834 1.77293 263.695 2.53993 264.507C1.52593 265.913 0.80793 268.637 2.67893 269.521C2.90393 270.34 3.39393 271.216 4.22593 271.546C4.70593 272.688 5.91193 273.412 6.96993 274.151C8.04193 274.902 8.87593 275.748 9.88593 275.467C10.6589 276.779 11.7139 278.076 12.7359 279.085C13.5539 279.889 14.2499 279.316 14.7849 278.614C15.7969 279.79 17.2749 279.847 18.3179 278.06C21.4179 281.682 24.6579 285.187 28.0599 288.563C28.8429 304.462 30.3719 320.475 33.9799 336.007C36.6419 354.971 39.7749 373.87 43.3799 392.691C43.3859 392.74 43.4349 392.774 43.4739 392.786C44.6499 393.058 45.8309 393.279 47.0149 393.449C46.9109 394.325 46.7059 395.167 46.4169 395.978H63.7859C63.7019 394.885 63.6399 393.794 63.6299 392.706C63.5379 392.729 63.4419 392.752 63.3489 392.774C63.8629 392.573 64.6299 392.627 65.0109 392.254C66.9559 374.909 64.7259 357.55 61.6869 340.422C61.3879 328.948 60.6709 317.49 59.5329 306.067C65.0899 304.553 69.7619 300.207 72.6889 295.006C72.6279 295.12 72.5599 295.237 72.4939 295.348C74.8299 304.535 77.1719 313.72 79.5139 322.903C81.2659 329.988 82.5979 337.548 87.4159 343.328C90.2869 356.864 92.3259 370.557 93.4589 384.336C93.7829 388.299 93.9379 392.899 98.3729 394.416C98.0879 394.928 97.8519 395.451 97.6389 395.978H115.922C115.899 395.406 115.865 394.832 115.846 394.256C116.586 394.104 117.309 393.938 118.01 393.768C113.961 374.136 116.858 353.242 109.932 333.986C109.932 333.986 109.932 333.986 109.932 333.982C108.114 314.002 103.588 294.29 100.674 274.434C104.488 270.33 102.799 263.374 102.444 258.402C102.229 255.626 102.03 252.831 102.167 250.036C102.255 248.253 102.694 246.531 102.886 244.764C102.904 244.635 102.919 244.51 102.935 244.381C108.072 244.73 109.736 240.827 110.656 236.598C111.578 233.435 111.959 230.161 112.127 226.866C116.207 215.564 115.772 203.154 114.068 191.354C111.914 178.322 109.203 164.892 103.373 152.958C103.219 152.635 103.064 152.305 102.908 151.97C106.316 151.258 109.685 150.294 112.988 148.955L113.029 148.942C115.232 148.513 117.451 148.071 119.715 147.743C122.889 147.287 126.051 146.989 129.201 146.561C129.457 146.534 129.728 146.49 129.986 146.446C131.834 146.219 133.664 145.92 135.496 145.52C136.068 146.348 136.943 146.719 138.445 146.631C140.777 146.503 143.209 145.976 145.59 145.307C147.145 146.246 148.949 146.546 150.84 146.631C153.231 156.189 153.317 165.933 155.149 175.561C155.85 179.206 156.52 183.139 157.782 186.716C157.925 188.451 158.053 190.177 158.137 191.912C158.155 191.969 158.155 192.041 158.155 192.113C158.155 192.214 158.167 192.329 158.167 192.426C158.483 199.704 158.341 206.944 157.808 214.222C157.808 214.248 157.808 214.291 157.796 214.321C157.239 219.532 156.292 224.773 155.978 230.004C155.978 230.03 155.978 230.046 155.966 230.076C155.782 231.411 155.693 232.765 155.88 234.006C155.894 235.06 155.935 236.114 156.048 237.153C152.245 254.858 152.474 272.934 156.708 290.484C156.81 298.104 157.396 305.682 158.456 313.218C156.581 323.599 156.624 333.968 158.554 344.167C158.728 350.535 158.697 356.888 158.111 363.241C157.925 365.277 157.711 367.254 157.683 369.191C156.408 374.494 155.519 380.703 156.779 385.485C154.384 388.14 150.437 391.831 146.48 395.979H176.814C177.316 392.862 176.779 389.35 176.3 386.229C176.558 385.546 176.804 384.734 177.046 383.809C178.263 381.127 178.919 377.839 179.267 374.391C179.267 374.376 179.267 374.376 179.267 374.376C182.341 366.601 184.287 358.465 184.716 350.075C185.12 342.046 183.517 334.236 182.585 326.374C184.128 320.149 185.415 313.853 185.903 307.444C186.276 302.445 186.075 297.446 185.69 292.462C187.178 286.621 188.481 280.738 189.539 274.795C190.613 268.815 191.312 262.833 193.031 257.091C198.842 269.785 200.045 284.27 205.396 297.018C206.972 306.618 209.361 316.035 212.568 325.247C211.736 337.301 212.595 349.294 213.683 361.317C214.355 368.751 214.755 376.287 215.745 383.679C215.813 384.217 215.886 384.76 215.954 385.317C215.999 385.715 216.059 386.114 216.13 386.512C216.13 386.527 216.13 386.527 216.14 386.542C216.472 388.404 217.062 390.202 218.548 391.484C219.234 392.068 219.98 392.451 220.767 392.678C220.537 393.778 220.363 394.873 220.275 395.977H238.058C237.271 393.816 236.636 391.62 236.296 389.348C236.466 389.189 236.622 389.034 236.753 388.874C238.056 387.224 237.884 383.848 237.698 381.212C237.698 381.212 237.698 381.212 237.698 381.197C237.798 379.631 237.698 377.863 237.553 376.168C237.541 374.734 237.483 373.308 237.41 371.882C239.226 359.119 239.226 346.284 237.437 333.609C237.464 320.319 236.378 307.131 234.189 294.069C234.978 275.337 232.728 256.808 228.162 238.618C228.308 238.501 228.435 238.39 228.551 238.247C229.967 236.464 227.947 232.364 227.592 230.684C225.977 222.993 224.674 215.203 223.885 207.397C222.713 195.616 225.317 184.336 226.076 172.742C229.381 164.608 232.328 156.33 231.496 147.928C233.086 147.428 234.646 146.844 236.15 146.118H236.166C236.182 146.118 236.193 146.118 236.221 146.118C238.797 146.276 241.805 146.361 244.44 145.948C244.608 145.935 244.78 145.891 244.956 145.861C245.294 145.82 245.624 145.763 245.954 145.706C247.571 145.408 248.989 144.824 249.948 143.754C250.766 144.224 251.878 144.51 253.311 144.723C258.549 145.507 263.856 145.578 269.11 146.476C271.917 146.958 274.649 147.374 277.424 147.587C280.506 148.699 283.629 149.256 286.787 149.46C286.709 149.556 286.639 149.645 286.607 149.711C286.502 149.909 286.31 150.324 286.164 150.494C286.016 150.661 285.422 151.125 285.217 151.467C285.008 151.803 284.84 151.997 284.822 152.209C284.802 152.417 284.691 153.039 284.619 153.163C284.545 153.283 284.119 153.749 284.072 154.255C284.027 154.762 283.804 155.384 283.804 155.384L283.97 155.25C283.97 155.25 283.642 155.789 283.589 156.195C283.544 156.614 283.368 157.54 283.368 157.54L283.647 157.079C283.647 157.079 283.489 157.835 283.516 157.991C283.543 158.144 283.09 159.254 283.09 159.254L283.395 158.903C283.395 158.903 282.831 160.254 282.838 160.549C282.961 160.356 283.035 160.184 283.035 160.184C283.035 160.184 282.857 161.821 283.062 162.438C283.257 163.047 283.021 165.014 283.021 165.014L283.177 164.709C283.177 164.709 283.257 165.411 283.177 165.71C283.292 165.498 283.366 165.253 283.366 165.253C283.366 165.253 283.257 166.078 283.292 166.438C283.31 166.802 283.366 167.47 283.417 167.712C283.468 167.953 283.587 168.723 283.587 168.723L283.646 168.346C283.646 168.346 283.957 169.29 284.3 169.617C284.316 169.492 284.364 169.382 284.364 169.382C284.393 169.469 284.458 169.533 284.509 169.61C284.228 170.02 284.052 170.397 284.116 170.687C284.194 171.055 284.764 171.415 285.106 171.882C285.458 172.337 286.385 174.622 286.549 175.363C286.715 176.111 287.194 177.857 287.604 178.838C288 179.817 288.909 181.718 289.473 182.278C290.028 182.839 290.555 182.536 290.934 181.69C291.032 181.857 292.491 185.741 293.723 187.829C293.569 187.871 293.397 187.912 293.252 187.954C287.76 189.469 285.826 193.93 285.826 193.93C285.826 193.93 280.738 195.754 279.816 195.857C278.906 195.954 278.095 197.987 277.078 198.186C276.06 198.387 274.736 198.895 273.514 198.696C272.303 198.493 271.485 201.023 270.061 202.54C268.635 204.061 267.922 207.406 266.803 210.043C265.694 212.673 262.129 222.908 262.229 224.421C262.288 225.226 262.713 225.661 263.362 226.136C261.946 228.699 260.313 231.468 258.983 233.831C257.254 236.919 255.592 247.307 255.01 252.56C254.44 257.81 255.256 267.159 255.588 272.544C255.922 277.923 256.188 285.334 256.024 287.257C255.858 289.18 256.079 291.618 255.93 293.337C255.774 295.055 254.459 297.547 254.651 298.362C254.821 299.177 253.997 302.598 254.172 303.615C254.334 304.636 255.045 307.597 255.045 307.597C255.045 307.597 255.893 309.914 255.815 310.718C255.747 311.523 255.198 314.094 255.727 315.121C255.942 315.539 256.873 316.54 257.938 317.625C258.127 318.725 258.428 320.033 258.405 320.583C258.382 321.273 259.889 321.672 260.739 320.367C261.173 320.792 261.493 321.098 261.585 321.186C261.974 321.611 262.575 321.883 263.112 321.186C263.565 320.594 262.973 318.637 261.368 317.15C261.325 316.293 261.177 315.595 261.102 315.303C262.028 315.174 263.204 314.95 263.957 314.624C264.018 314.097 264.072 313.577 264.127 313.058C263.815 312.849 263.412 312.708 263.072 312.678C262.781 312.652 262.287 312.565 261.76 312.466C261.957 311.685 262.141 310.938 262.213 310.55C262.393 309.53 263.047 308.146 263.305 307.357C263.545 306.602 263.389 305.499 264.916 303.33C265.117 303.159 265.324 302.992 265.518 302.848C265.758 301.267 266.016 299.731 266.276 298.312C267.03 294.257 267.905 291.917 268.774 290.693C268.424 290.166 268.169 289.669 268.169 289.221C268.169 287.696 268.011 280.091 269.052 274.701C270.093 269.319 274.372 259.675 274.835 255.02C275.284 250.371 275.481 247.586 275.708 246.683C275.88 246.046 279.128 241.889 280.776 238.283C280.835 239.425 280.969 241.366 281.044 242.765C279.817 243.876 281.552 245.799 281.552 245.799C281.552 245.799 278.501 250.366 277.685 253.598C277.208 255.501 278.619 257.921 279.871 259.602C279.871 263.959 279.871 270.009 279.871 274.041C280.041 273.722 280.183 273.365 280.392 273.103C280.535 272.99 280.708 272.879 280.88 272.773C280.937 273.035 281.056 273.258 281.22 273.463C279.769 274.616 278.722 275.526 278.722 275.526C278.722 275.526 276.12 278.826 276.009 280.002C275.954 280.453 275.831 281.675 275.687 283.093C275.679 283.177 275.669 283.264 275.66 283.351C274.353 284.796 273.607 287.83 272.896 292.564C272.203 290.361 270.527 288.457 268.826 290.846C267.967 292.067 267.103 294.4 266.346 298.435C266.082 299.862 265.823 301.386 265.58 302.956C265.094 306.138 264.629 309.574 264.203 313.125C264.16 313.647 264.099 314.156 264.037 314.687C262.746 326.012 261.848 337.883 261.449 344.237C260.851 353.897 259.455 376.244 260.265 390.285C260.402 392.675 260.656 394.483 260.984 395.852H275.511C275.525 395.776 275.544 395.693 275.556 395.602H277.654C278.015 395.602 278.15 395.405 278.201 395.196C278.59 395.309 278.955 395.56 279.285 395.852H282.5C281.746 393.376 279.689 392.416 278.201 392.205V390.482C278.201 390.482 278.201 390.035 278.201 389.807C278.201 389.746 278.15 389.666 278.074 389.587L281.72 389.549L281.724 380.624H281.109L280.441 380.185L283.367 375.66C285.115 374.018 287.008 372.766 288.771 371.803V383.254H289.839V393.536C289.839 394.328 289.933 395.098 290.068 395.852H294.507C294.302 395.116 294.179 394.346 294.179 393.536V383.254H295.255V366.27C295.275 366.278 295.294 366.289 295.312 366.296C296.423 366.781 297.701 367.066 299.179 367.089C300.243 369.054 301.23 371.068 301.79 372.702C302.974 376.123 303.796 382.354 303.796 382.354C303.796 382.354 300.364 385.537 300.128 386.83C299.898 388.131 299.425 390.836 299.425 390.836C299.425 390.836 295.751 393.551 295.636 394.608C295.601 394.93 295.542 395.439 295.48 395.977H323.1C323.227 394.922 323.678 390.645 322.989 388.718C322.178 386.507 320.583 384.03 320.583 384.03C320.583 384.03 320.411 380.942 320.757 379.001C321.12 377.056 319.693 375.2 317.308 370.167C315.872 367.152 315.37 364.354 315.187 362.57C315.873 362.115 316.273 361.713 316.335 361.394C316.567 360.093 314.433 350.437 314.317 348.559C314.313 348.464 314.309 348.279 314.299 348.078C314.299 348.059 314.297 348.028 314.295 348.01H337.789C337.785 348.032 337.783 348.056 337.781 348.078C336.978 356.005 336.385 362.528 336.312 363.496C336.255 364.213 336.83 364.952 337.804 365.646C337.431 367.595 336.941 369.715 336.255 370.873C335.021 372.993 333.95 375.117 334.126 376.702C334.312 378.292 334.933 384.387 334.933 384.387C334.933 384.387 332.98 386.155 332.628 388.718C332.37 390.55 333.345 394.107 333.919 395.977H362.585C362.575 395.939 362.552 395.894 362.54 395.852H364.185C364.318 395.101 364.394 394.328 364.394 393.536V383.254H365.466V371.803C367.224 372.767 369.122 374.019 370.864 375.66L373.794 380.185L373.126 380.624H372.509L372.515 389.549L374.962 389.571V372.033L365.466 357.333V348.01H373.956C374.046 350.172 374.468 359.711 374.962 365.268V306.995C374.974 306.866 374.989 306.723 374.999 306.597V274.973C374.835 274.56 374.653 274.165 374.452 273.801C374.323 273.577 374.206 273.334 374.075 273.111C374.075 266.034 374.075 254.23 374.075 254.23C374.075 250.278 370.38 247.851 364.511 247.672C364.511 246.955 362.351 245.605 359.183 245.605H356.046C355.968 245.492 355.89 245.363 355.816 245.264C355.484 244.805 355.195 244.487 355.095 244.487C354.788 244.487 356.322 223.816 356.322 223.816L356.898 224.054C357.365 224.259 357.994 224.577 358.353 224.927C358.464 225.032 358.71 225.018 359.041 224.931L375 231.474V213.147V205.113C374.627 204.897 374.324 204.875 374.324 204.875ZM264.021 389.319C263.728 387.624 263.431 381.98 263.638 371.762C264.32 370.544 265.566 370.643 266.544 370.977C265.76 378.104 264.639 386.638 264.021 389.319ZM268.529 340.711C268.162 340.84 267.478 341.279 267.375 343.032L267.275 344.386C267.175 346.105 267.785 346.635 268.162 346.802C267.986 349.89 267.664 356.019 267.35 362.929C267.262 364.223 267.102 365.91 266.905 367.781C264.958 367.83 264.11 367.113 263.76 366.503C263.948 360.673 264.502 352.697 265.033 344.471C265.525 336.259 266.314 328.264 266.869 322.48C267.275 321.93 268.174 321.331 270.015 321.57C269.404 329.268 268.844 336.6 268.529 340.711ZM270.176 318.39C269.16 318.587 267.905 318.527 267.389 317.241C267.686 314.367 267.987 311.909 268.26 309.743C268.963 304.285 269.576 301.043 269.949 299.863C270.094 301.285 270.176 304.304 270.207 307.858C270.219 311.161 270.207 314.931 270.176 318.39ZM281.246 327.576C281.271 327.671 281.297 327.762 281.32 327.856C281.32 327.864 281.32 327.872 281.32 327.886C281.588 328.862 281.851 329.859 282.121 330.853C283.062 334.349 284.047 337.908 285.012 341.351C282.963 341.351 281.412 341.351 280.606 341.355L280.442 341.343C280.492 340.142 280.895 333.417 281.246 327.576ZM312.693 326.086C312.683 326.014 312.677 325.934 312.668 325.858C312.34 323.051 311.963 320.662 311.539 319.068H315.01C317.713 319.068 317.59 320.555 320.03 321.5C322.47 322.445 324.087 319.752 324.087 319.752C324.087 319.752 325.587 319.69 326.974 319.656C328.359 319.69 329.857 319.752 329.857 319.752C329.857 319.752 331.48 322.444 333.918 321.5C336.361 320.556 336.232 319.068 338.936 319.068H341.348C341.348 319.076 341.348 319.08 341.346 319.084C341.014 320.89 340.653 323.302 340.282 326.074C340.282 326.078 340.28 326.082 340.28 326.086H312.693ZM276.713 296.023C276.744 296.099 276.758 296.21 276.781 296.296C276.767 296.254 276.758 296.209 276.742 296.171C276.375 295.264 275.982 293.918 275.687 292.602C275.982 293.869 276.365 295.151 276.713 296.023ZM273.812 363.536L273.615 366.282C273.15 372.449 272.672 377.823 272.342 379.208C272.227 377.228 272.317 373.261 272.51 368.652L272.594 366.836C272.633 365.854 272.696 364.833 272.742 363.813L272.816 362.334C273.115 356.694 273.461 350.968 273.718 347.201L274.902 347.288C274.637 351.277 274.242 357.565 273.812 363.536ZM276.5 319.145L276.436 320.371C276.424 320.613 276.424 320.852 276.407 321.099L276.317 322.822C276.051 328.53 275.645 335.008 275.358 339.757L275.337 340.303C275.308 340.565 275.3 340.83 275.275 341.092L274.087 341.016C274.114 340.705 274.14 340.394 274.153 340.065L274.192 339.526C274.422 335.676 274.743 330.757 275.088 325.99L275.24 324.124C275.381 322.212 275.545 320.357 275.679 318.654L275.79 317.528C276.079 314.414 276.366 311.835 276.626 310.382C276.76 311.472 276.672 314.855 276.5 319.145ZM279.154 372.21C278.783 372.574 278.431 372.973 278.072 373.356C278.236 371.838 278.412 370.302 278.554 368.77C279.212 365.675 279.868 350.781 279.988 348.012H286.91C287.562 350.257 288.183 352.385 288.769 354.293V357.335L279.154 372.21ZM313.93 341.344C313.752 338.394 313.524 334.907 313.235 331.483H339.592C339.592 331.487 339.592 331.487 339.592 331.491C339.215 334.65 338.84 338.022 338.483 341.348C332.811 341.348 328.333 341.348 326.973 341.352C325.494 341.348 320.32 341.348 313.93 341.344ZM358.527 389.688C355.418 387.127 355.589 384.033 351.869 382.189C351.32 380.957 351.015 375.104 353.078 368.035C355.939 367.826 357.787 367.496 358.971 367.117V383.256H360.059V391.229C359.598 390.677 359.092 390.153 358.527 389.688ZM373.34 341.355C372.276 341.351 369.944 341.351 366.861 341.347C367.205 339.921 367.502 338.54 367.672 337.475C367.979 335.556 370.404 326.206 372.209 319.531C372.463 323.704 373.426 339.44 373.502 341.343L373.34 341.355Z" fill="#D6D1CC"/>
<path d="M261.037 180.664C261.037 180.664 264.111 192.873 262.32 202.037C262.32 202.037 272.537 220.354 273.302 222.643C274.07 224.932 285.054 258.778 285.827 260.304C286.585 261.83 291.188 271.248 291.44 287.786C291.7 304.321 291.44 321.37 291.44 321.37C291.44 321.37 294.249 334.347 297.055 340.711C299.873 347.073 308.811 368.954 310.856 371.245C311.477 371.943 321.35 390.786 329.127 405.873L229.422 406.02C228.336 401.51 226.174 386.596 218.641 382.824C203.215 375.091 199.981 367.426 196.912 363.872C193.846 360.301 177.504 341.977 173.668 339.949C169.836 337.91 134.072 314.757 133.047 313.989C132.029 313.23 124.619 310.681 124.619 310.681C124.619 310.681 119.258 306.107 120.275 301.017C120.275 301.017 116.959 293.634 125.13 292.36C125.13 292.36 131.007 290.325 133.046 290.583C135.087 290.838 157.835 288.293 157.835 288.293L157.575 278.981H133.813C133.813 278.981 132.54 283.199 125.893 282.186C119.256 281.167 119.77 277.604 120.786 276.076C120.786 276.076 115.848 274.858 119.61 262.084C120.965 257.475 126.149 255.468 126.149 255.468C126.149 255.468 118.848 254.958 118.536 249.871C118.227 244.789 118.536 248.595 118.536 248.595C118.536 248.595 113.891 245.29 119.77 237.655C119.77 237.655 124.108 225.953 132.793 226.973L144.289 227.225L133.812 224.173C133.812 224.173 120.203 220.868 116.787 218.323C113.381 215.776 111.33 209.668 112.609 205.855C113.89 202.036 124.107 199.745 124.107 199.745C124.107 199.745 133.562 198.723 135.857 199.745C138.154 200.762 241.433 244.269 241.433 244.269C241.433 244.269 249.031 247.33 249.796 248.594C249.796 248.594 247.235 236.634 247.495 234.855C247.755 233.079 246.985 231.551 246.985 230.532C246.985 229.511 241.432 223.409 241.432 223.409V192.617C241.432 192.617 246.729 180.664 253.881 180.664C261.031 180.664 259.756 181.935 259.756 181.935L261.037 180.664Z" fill="#F7B1A1"/>
<path d="M242.051 244.527L249.793 248.161V254.533C249.793 254.533 252.467 262.502 252.467 264.627C252.467 266.749 246.571 276.838 242.051 283.218V244.527Z" fill="#BA8A80"/>
<path d="M239.824 333.901C239.824 333.901 237.504 336.224 234.39 336.224C231.3 336.224 189.824 336.224 189.824 336.224C189.824 336.224 209.203 348.188 222.383 345.87C235.559 343.554 239.824 333.901 239.824 333.901Z" fill="#C6978F"/>
<path d="M234.391 336.225H139.686C135.473 336.225 132.032 332.792 132.032 328.599V124.182C132.032 119.987 135.473 116.561 139.686 116.561H234.391C238.606 116.561 242.051 119.987 242.051 124.182V328.599C242.051 332.792 238.605 336.225 234.391 336.225Z" fill="#1D1D1B"/>
<path d="M234.34 125.021H139.692V328.701H234.34V125.021Z" fill="white"/>
<path d="M214.391 130.819H213.676V131.874H214.391V130.819Z" fill="#1A1A1A"/>
<path d="M215.543 130.263H214.84V131.874H215.543V130.263Z" fill="#1A1A1A"/>
<path d="M216.705 129.724H215.992V131.874H216.705V129.724Z" fill="#1A1A1A"/>
<path d="M217.859 129.275H217.146V131.874H217.859V129.275Z" fill="#1A1A1A"/>
<path d="M221.221 129.628C221.83 129.628 222.389 129.834 222.848 130.17L223.182 129.813C222.639 129.399 221.961 129.142 221.221 129.142C220.494 129.142 219.828 129.393 219.291 129.795L219.617 130.155C220.07 129.825 220.623 129.628 221.221 129.628Z" fill="#1A1A1A"/>
<path d="M221.221 130.632C221.565 130.632 221.86 130.752 222.129 130.92L222.484 130.554C222.117 130.302 221.697 130.12 221.22 130.12C220.751 130.12 220.341 130.298 219.984 130.543L220.326 130.916C220.594 130.751 220.887 130.632 221.221 130.632Z" fill="#1A1A1A"/>
<path d="M221.752 131.317C221.59 131.236 221.416 131.18 221.221 131.18C221.035 131.18 220.862 131.234 220.7 131.315L221.221 131.874L221.752 131.317Z" fill="#1A1A1A"/>
<path d="M228.964 129.786H225.189V131.206H228.964V129.786Z" fill="#1A1A1A"/>
<path d="M229.424 129.236H224.779V131.753H229.424V129.236Z" stroke="#1A1A1A" stroke-width="0.2191" stroke-miterlimit="10"/>
<path d="M230.006 130.011H229.68V130.984H230.006V130.011Z" fill="#1A1A1A"/>
<path d="M145.447 129.243C145.559 129.244 145.671 129.265 145.783 129.307C145.895 129.349 145.997 129.418 146.089 129.515C146.181 129.611 146.256 129.742 146.311 129.908C146.367 130.074 146.395 130.282 146.395 130.533C146.395 130.775 146.372 130.991 146.326 131.179C146.281 131.366 146.215 131.524 146.129 131.653C146.044 131.782 145.94 131.88 145.817 131.946C145.696 132.013 145.558 132.046 145.404 132.046C145.252 132.046 145.115 132.016 144.995 131.956C144.876 131.894 144.779 131.809 144.702 131.701C144.627 131.592 144.578 131.465 144.557 131.321H144.882C144.911 131.447 144.97 131.55 145.057 131.632C145.144 131.713 145.26 131.753 145.404 131.753C145.615 131.753 145.781 131.661 145.902 131.477C146.025 131.294 146.086 131.034 146.086 130.698H146.065C146.015 130.773 145.956 130.837 145.888 130.891C145.819 130.945 145.744 130.987 145.66 131.016C145.577 131.046 145.488 131.06 145.394 131.06C145.237 131.06 145.094 131.022 144.963 130.944C144.834 130.866 144.73 130.759 144.652 130.623C144.574 130.487 144.536 130.33 144.536 130.154C144.536 129.988 144.573 129.835 144.648 129.696C144.723 129.557 144.829 129.446 144.965 129.363C145.101 129.281 145.262 129.241 145.447 129.243ZM145.447 129.536C145.335 129.536 145.234 129.564 145.144 129.62C145.056 129.675 144.985 129.75 144.933 129.844C144.881 129.937 144.855 130.041 144.855 130.154C144.855 130.268 144.88 130.372 144.93 130.465C144.981 130.557 145.049 130.631 145.136 130.686C145.224 130.74 145.324 130.767 145.436 130.767C145.521 130.767 145.599 130.751 145.672 130.718C145.745 130.684 145.808 130.639 145.863 130.581C145.918 130.522 145.961 130.456 145.992 130.382C146.023 130.308 146.038 130.23 146.038 130.149C146.038 130.043 146.013 129.943 145.961 129.849C145.91 129.756 145.84 129.681 145.751 129.623C145.662 129.565 145.561 129.536 145.447 129.536ZM147.154 131.66C147.088 131.66 147.032 131.636 146.985 131.589C146.937 131.542 146.914 131.486 146.914 131.42C146.914 131.354 146.937 131.298 146.985 131.251C147.032 131.204 147.088 131.18 147.154 131.18C147.219 131.18 147.276 131.204 147.323 131.251C147.37 131.298 147.394 131.354 147.394 131.42C147.394 131.464 147.382 131.504 147.36 131.54C147.339 131.576 147.31 131.606 147.274 131.628C147.238 131.649 147.198 131.66 147.154 131.66ZM147.154 130.28C147.088 130.28 147.032 130.256 146.985 130.209C146.937 130.162 146.914 130.106 146.914 130.04C146.914 129.974 146.937 129.918 146.985 129.871C147.032 129.824 147.088 129.8 147.154 129.8C147.219 129.8 147.276 129.824 147.323 129.871C147.37 129.918 147.394 129.974 147.394 130.04C147.394 130.083 147.382 130.123 147.36 130.16C147.339 130.196 147.31 130.226 147.274 130.248C147.238 130.269 147.198 130.28 147.154 130.28ZM147.888 131.449V131.178L149.087 129.281H149.285V129.702H149.151L148.245 131.135V131.156H149.86V131.449H147.888ZM149.173 132.009V131.367V131.24V129.281H149.487V132.009H149.173ZM151.282 129.281V132.009H150.951V129.627H150.935L150.269 130.069V129.734L150.951 129.281H151.282Z" fill="black"/>
<path d="M234.34 156.546H139.692V181.894H234.34V156.546Z" fill="#EAE5E2"/>
<path d="M180.217 192.911H148.772V195.226H180.217V192.911Z" fill="#EAE5E2"/>
<path d="M158.846 161.021H148.772V163.335H158.846V161.021Z" fill="white"/>
<path d="M213.715 141.548H195.807V142.786H213.715V141.548Z" fill="#EAE5E2"/>
<path d="M223.182 197.371H148.772V199.687H223.182V197.371Z" fill="#EAE5E2"/>
<path d="M221.236 201.833H148.772V204.149H221.236V201.833Z" fill="#EAE5E2"/>
<path d="M221.285 210.724H148.821V213.039H221.285V210.724Z" fill="#EAE5E2"/>
<path d="M199.768 206.292H148.772V208.609H199.768V206.292Z" fill="#EAE5E2"/>
<path d="M180.217 225.4H148.772V227.717H180.217V225.4Z" fill="#EAE5E2"/>
<path d="M223.182 229.86H148.772V232.173H223.182V229.86Z" fill="#EAE5E2"/>
<path d="M221.236 234.323H148.772V236.638H221.236V234.323Z" fill="#EAE5E2"/>
<path d="M221.285 243.215H148.821V245.528H221.285V243.215Z" fill="#EAE5E2"/>
<path d="M199.768 238.783H148.772V241.098H199.768V238.783Z" fill="#EAE5E2"/>
<path d="M180.217 258.522H148.772V260.837H180.217V258.522Z" fill="#EAE5E2"/>
<path d="M223.182 262.983H148.772V265.298H223.182V262.983Z" fill="#EAE5E2"/>
<path d="M221.236 267.443H148.772V269.76H221.236V267.443Z" fill="#EAE5E2"/>
<path d="M221.285 276.334H148.821V278.649H221.285V276.334Z" fill="#EAE5E2"/>
<path d="M199.768 271.904H148.772V274.219H199.768V271.904Z" fill="#EAE5E2"/>
<path d="M194.026 132.407H180.903V151.929H194.026V132.407Z" fill="#EAE5E2"/>
<path d="M225.908 170.573H148.979V177.793H225.908V170.573Z" fill="white"/>
<path d="M225.84 159.273H220.947V159.965H225.84V159.273Z" fill="white"/>
<path d="M225.84 160.913H220.947V161.605H225.84V160.913Z" fill="white"/>
<path d="M225.84 162.551H220.947V163.243H225.84V162.551Z" fill="white"/>
<path d="M158.744 172.912H150.709V175.227H158.744V172.912Z" fill="#EAE5E2"/>
</g>
<defs>
<clipPath id="clip0_4444_8081">
<rect width="375" height="406" fill="white"/>
</clipPath>
</defs>
</svg>
