<svg width="336" height="300" viewBox="0 0 336 300" fill="none" xmlns="http://www.w3.org/2000/svg">
<g clip-path="url(#clip0_6093_14992)">
<path d="M309.48 157.06C309.48 78.25 245.59 14.36 166.78 14.36C87.9701 14.36 24.0801 78.25 24.0801 157.06C24.0801 191.14 36.0401 222.43 55.9701 246.97C60.6101 220.4 66.7001 194.08 66.7001 194.08L193.97 212.33C202.98 225.35 198.73 239.86 198.73 239.86C216.08 255.2 216.11 279.44 214.85 291.45C270.01 271.72 309.48 219 309.48 157.06Z" fill="#CADFEA"/>
<path d="M198.73 239.86C198.73 239.86 202.99 225.34 193.97 212.33L66.7 194.08C66.7 194.08 60.61 220.4 55.97 246.97C82.13 279.18 122.05 299.76 166.78 299.76C183.65 299.76 199.83 296.82 214.85 291.45C216.1 279.44 216.07 255.2 198.73 239.86Z" fill="#4FA3D9"/>
<path d="M191.98 161.82C191.98 161.82 162.5 153.54 134.62 153.71C106.74 153.88 79.11 164.73 79.11 164.73L66.71 195.95L79.11 234.79H184.45L193.97 213.36L194.6 177.85L191.98 161.82Z" fill="#4FA3D9"/>
<path d="M120.52 147.29L153.31 148.09C160.77 148.05 163.86 144.55 165.38 142.29C168.45 137.75 167.98 130.94 167.98 130.94L165.93 90.67C165.93 90.67 160.53 74.42 127.52 83.09C127.52 83.09 102.75 74.64 103.54 95.91L115.16 128.1L120.51 147.29H120.52Z" fill="#EC9880"/>
<path d="M164.51 156.12C160.95 181.58 136.69 191.41 136.69 191.41C101.07 179.99 99.55 158.49 99.55 158.49C99.55 158.49 113.87 154.17 132.35 153.9C150.83 153.63 164.5 156.12 164.5 156.12H164.51Z" fill="#F0F0F0"/>
<path d="M151.78 161.62L147.86 126.14L111.26 123.58L110.71 162.25C110.68 164.28 111.28 166.27 112.43 167.95C118.81 177.29 137.77 181.15 146.07 173.02C149.17 169.98 152.42 165.91 151.78 161.61V161.62Z" fill="#EC9880"/>
<path d="M193.97 213.36L240.41 120.9C245.86 108.76 246.23 92.73 246.23 92.73L251.51 55.12L224.95 52.04L218.46 99.2L166.78 157.06" fill="#4FA3D9"/>
<path d="M97.45 159.02L48.42 106.61L37.55 59.46L12.25 65.13L20.61 102.5C20.61 102.5 22.26 118.22 28.6 129.7L64.83 198.6" fill="#4FA3D9"/>
<path d="M30.9099 50.72L34.2099 24.87C34.2099 24.87 34.7199 21.05 30.8099 20.12C30.8099 20.12 27.1699 19.38 26.1999 24.14L24.8099 35.99L17.0499 11.83C16.6699 10.64 15.3999 9.97003 14.2099 10.34C7.14993 12.53 -13.1501 22.04 12.8999 54.82L30.9199 50.72H30.9099Z" fill="#EC9880"/>
<path d="M230.61 42.76L225.06 16.59C225.06 16.59 224.22 12.72 228.14 11.45C228.14 11.45 231.81 10.38 233.19 15.17L235.61 27.18L241.51 1.82C241.8 0.570003 243.04 -0.219997 244.29 0.0600034C251.7 1.7 273.26 9.73 249.37 45.45L230.6 42.77L230.61 42.76Z" fill="#EC9880"/>
<path d="M153.18 117.71C153.18 117.71 134.44 117.47 134.6 129.03C134.6 129.03 143.03 132.8 154.43 132.71C165.83 132.63 172.78 127.69 172.78 127.69C172.78 127.69 175.2 116.46 153.18 117.71Z" fill="#F0F0F0"/>
<path d="M100.5 100.73C101.2 112.51 105.48 120.24 105.48 120.24L115.32 123.19L114.69 120.5L121.86 118.77L116.04 99.4C116.04 99.4 99.8 88.95 100.5 100.73Z" fill="#F0F0F0"/>
<path d="M110.26 135.98C115.01 135.98 118.86 132.13 118.86 127.38C118.86 122.63 115.01 118.78 110.26 118.78C105.51 118.78 101.66 122.63 101.66 127.38C101.66 132.13 105.51 135.98 110.26 135.98Z" fill="#EC9880"/>
<path d="M150.29 148.08L127.32 144.14L150.92 153.85L150.29 148.08Z" fill="#DB816D"/>
<path d="M9.8501 55.25L35.1201 49.71L37.5601 59.46L11.8401 65.22L9.8501 55.25Z" fill="#F0F0F0"/>
<path d="M226.37 41.83L252.43 44.97L251.51 55.13L224.95 52.05L226.37 41.83Z" fill="#F0F0F0"/>
<path d="M138.54 134.13C142.11 135.32 148.41 136.79 157.26 136.45" stroke="#4C3938" stroke-width="2" stroke-miterlimit="10" stroke-linecap="round"/>
<path d="M189.35 77.42L164.33 71.68L164 71.6L161.62 64.85L155.26 46.82C155.26 46.82 145.45 39.72 122.97 44.06C100.49 48.4 95.6099 58.25 95.6099 58.25L97.5199 79.65L98.2599 87.94L79.9599 97.35C78.3999 98.13 78.3399 100.35 79.8799 101.17C85.4099 104.15 100.09 108.34 135.86 102.44C173.4 96.24 186.34 85.88 190.53 80.93C191.58 79.69 190.94 77.79 189.36 77.43L189.35 77.42Z" fill="#6E2F4C"/>
<path d="M334.26 129.69C339.71 150.38 327.35 171.57 306.66 177.02C285.97 182.47 264.78 170.11 259.33 149.42C259.13 148.66 258.96 147.91 258.81 147.15L246.49 141.57C245.49 141.12 245.42 139.72 246.38 139.17L258.78 132.05C261.57 117.97 272.11 105.99 286.93 102.09C307.62 96.64 328.81 109 334.26 129.69Z" fill="#80B076"/>
<path d="M280.89 138.74L293.93 154.18L312.48 122" stroke="white" stroke-width="7" stroke-linecap="round" stroke-linejoin="round"/>
<path d="M98.2499 87.94C98.2499 87.94 112.75 89.2 134.89 84.53C157.03 79.86 163.99 71.6 163.99 71.6L161.24 63.81C161.24 63.81 144.56 72.38 132.52 75.09C120.48 77.8 97.4399 78.96 97.4399 78.96L98.2399 87.93L98.2499 87.94Z" fill="#8C4167"/>
</g>
<defs>
<clipPath id="clip0_6093_14992">
<rect width="335.54" height="299.76" fill="white"/>
</clipPath>
</defs>
</svg>
