<svg width="299" height="307" viewBox="0 0 299 307" fill="none" xmlns="http://www.w3.org/2000/svg">
<g clip-path="url(#clip0_6093_14963)">
<path d="M197.19 207.38L203.47 295.98C218.3 289.94 231.88 281.49 243.72 271.1L206.21 220.57L197.19 207.38Z" fill="#CADFEA"/>
<path d="M79.05 287.77C86.95 292.28 95.32 296.06 104.07 299.01L103.31 288.11C94.08 289.31 86.04 289.03 79.05 287.77Z" fill="#CADFEA"/>
<path d="M35.74 217.62C40.53 198.82 51.58 186.25 51.58 186.25C56.19 179.4 72.48 163.79 74.79 150.82C77.52 135.52 71.17 122.29 71.17 122.29C66.53 111.4 63.27 99.61 67.77 88.54C75.81 68.73 97.03 70.14 97.03 70.14C111.3 9.47999 168.4 26 168.4 26C207.65 37.37 213.2 73.31 213.2 73.31C218.35 111.37 202.49 135.84 202.49 135.84L194.96 155.38C194.96 155.38 194.7 158.07 194.22 162.55C206.23 164.11 216.91 171.01 223.23 181.37L257.03 236.78L269.51 185.9C276.17 188.1 282.83 190.31 289.49 192.48C291.39 183.2 292.38 173.59 292.38 163.75C292.38 84.94 228.49 21.05 149.68 21.05C70.87 21.05 7 84.96 7 163.77C7 173.4 7.96 182.81 9.78 191.91C15.85 189.93 21.91 187.93 27.97 185.92L35.74 217.62Z" fill="#CADFEA"/>
<path d="M103.31 288.11L97.83 209.76L91.27 220.57L54.52 270.08C62.02 276.8 70.24 282.75 79.05 287.78C86.04 289.04 94.08 289.31 103.31 288.12V288.11Z" fill="#6E2F4C"/>
<path d="M202.49 135.85C202.49 135.85 218.35 111.38 213.2 73.32C213.2 73.32 207.65 37.38 168.4 26.01C168.4 26.01 111.3 9.48002 97.03 70.15C97.03 70.15 75.81 68.73 67.77 88.55C63.28 99.62 66.53 111.4 71.17 122.3C71.17 122.3 77.52 135.53 74.79 150.83C72.48 163.79 56.19 179.41 51.58 186.26C51.58 186.26 40.52 198.84 35.74 217.63L40.44 236.81L71.48 185.12C77.24 175.53 86.75 168.79 97.71 166.53L126.36 160.64C135.5 157.86 145.12 156.98 154.62 158.06L193.6 162.49C193.81 162.51 194.01 162.55 194.22 162.58C194.69 158.09 194.96 155.41 194.96 155.41L202.49 135.87V135.85Z" fill="#6E2F4C"/>
<path d="M36.8401 254.54C36.2201 252.7 35.7101 250.87 35.2801 249.06C22.8701 232.43 14.0001 213.01 9.78007 191.91C8.79007 192.23 7.81007 192.56 6.82007 192.88L19.3101 264.14C19.3101 264.14 23.4701 281.4 33.3101 282.67C33.3101 282.67 40.9701 286.58 51.1401 274.48C40.5401 265.08 36.8401 254.54 36.8401 254.54Z" fill="#4FA3D9"/>
<path d="M243.72 271.1L243.97 271.43C255.3 287.21 264.17 282.67 264.17 282.67C274.02 281.4 278.17 264.14 278.17 264.14L290.66 192.88C290.27 192.75 289.89 192.63 289.5 192.5C283.15 223.57 266.69 250.97 243.72 271.11V271.1Z" fill="#4FA3D9"/>
<path d="M289.5 192.5C282.83 190.33 276.17 188.13 269.52 185.92L257.04 236.8L223.24 181.39C216.92 171.03 206.24 164.12 194.23 162.57C191.85 185.12 184.12 253.46 177.34 258.54C147.24 281.12 103.58 288.08 103.58 288.08C103.49 288.09 103.4 288.1 103.31 288.11L104.07 299.01C118.4 303.84 133.74 306.46 149.7 306.46C168.72 306.46 186.87 302.73 203.47 295.97L207.92 247.92C208.68 239.68 207.39 231.38 204.15 223.76L197.19 207.37L206.21 220.56L243.72 271.09C266.69 250.95 283.15 223.56 289.5 192.48V192.5Z" fill="#4FA3D9"/>
<path d="M35.74 217.62L27.97 185.92C21.91 187.93 15.85 189.93 9.78003 191.91C14 213.01 22.87 232.44 35.28 249.06C32.55 237.58 33.39 226.85 35.74 217.62Z" fill="#4FA3D9"/>
<path d="M54.52 270.08C47.44 263.73 40.98 256.69 35.28 249.06C35.71 250.87 36.23 252.7 36.84 254.54C36.84 254.54 40.54 265.08 51.14 274.48C51.92 273.56 52.71 272.55 53.51 271.43L54.52 270.07V270.08Z" fill="#4FA3D9"/>
<path d="M154.62 158.05C145.12 156.97 135.51 157.85 126.36 160.63L97.7101 166.52C86.7501 168.77 77.2401 175.52 71.4801 185.11L40.4401 236.8L35.7401 217.62C33.3901 226.85 32.5501 237.58 35.2801 249.06C40.9801 256.69 47.4301 263.73 54.5201 270.08L91.2701 220.57L97.8301 209.76L103.31 288.11C103.4 288.1 103.49 288.09 103.58 288.08C103.58 288.08 147.24 281.13 177.34 258.54C184.12 253.46 191.85 185.12 194.23 162.57C194.02 162.54 193.82 162.5 193.61 162.48L154.63 158.05H154.62Z" fill="#4FA3D9"/>
<path d="M10.32 166.38C10.32 166.38 17.75 157.98 14.6 136.85L11.7 113.06C11.7 113.06 10.66 106.08 4.40997 106.85C4.40997 106.85 -0.780025 107.97 0.109975 115.28L3.28997 141.39C3.28997 141.39 7.02997 160.05 10.32 166.38Z" fill="#EC9880"/>
<path d="M14.09 131.56L28.39 126.78C28.39 126.78 40.26 121.34 41.5 134.93C41.5 134.93 47.58 172.41 17.88 178.53L6.24997 173.89C6.24997 173.89 4.82997 161.84 2.71997 134.74L14.08 131.56H14.09Z" fill="#EC9880"/>
<path d="M28.2899 187.26L25.2299 174.8L3.3999 173.39L6.8399 193.01C13.9399 190.92 21.1099 189.06 28.2899 187.26Z" fill="#EC9880"/>
<path d="M3.53005 125.71C3.53005 125.71 -1.21995 147.01 3.40005 173.39L12.94 175.11" fill="#EC9880"/>
<path d="M288.16 166.98C288.16 166.98 280.96 158.84 284.01 138.35L286.82 115.28C286.82 115.28 287.83 108.52 293.89 109.25C293.89 109.25 298.92 110.34 298.06 117.43L294.97 142.75C294.97 142.75 291.34 160.84 288.15 166.98H288.16Z" fill="#EC9880"/>
<path d="M284.5 133.22L270.64 128.59C270.64 128.59 259.13 123.31 257.92 136.49C257.92 136.49 252.02 172.83 280.82 178.77L292.1 174.27C292.1 174.27 293.48 162.59 295.52 136.31L284.5 133.22Z" fill="#EC9880"/>
<path d="M290.63 193.05L294.08 173.39L272.25 174.8L269.16 187.41C276.48 188.7 283.58 190.81 290.64 193.06L290.63 193.05Z" fill="#EC9880"/>
<path d="M294.74 127.54C294.74 127.54 298.56 147.81 294.07 173.39L285.61 175.44" fill="#EC9880"/>
<path d="M279.8 5.79998C298 17.06 303.63 40.93 292.37 59.13C281.11 77.33 257.24 82.96 239.04 71.7C238.37 71.29 237.73 70.85 237.1 70.41L224.33 74.84C223.29 75.2 222.28 74.23 222.59 73.18L226.68 59.48C219.01 47.34 218.41 31.4 226.47 18.37C237.73 0.169979 261.6 -5.46002 279.8 5.79998Z" fill="#80B076"/>
<path d="M243.23 39.85L256.28 55.28L274.82 23.1" stroke="white" stroke-width="7" stroke-linecap="round" stroke-linejoin="round"/>
<path d="M123.1 118.83L125.5 163.77C133.54 170.16 149.42 168.28 157.17 161.54L154.08 116.93L123.1 118.83Z" fill="#EC9880"/>
<path d="M112.32 129.58C117.948 129.58 122.51 125.018 122.51 119.39C122.51 113.762 117.948 109.2 112.32 109.2C106.692 109.2 102.13 113.762 102.13 119.39C102.13 125.018 106.692 129.58 112.32 129.58Z" fill="#EC9880"/>
<path d="M129.67 139.45L167.64 131.24C176.21 129.12 178.8 124.23 179.92 121.21C182.19 115.13 179.75 107.42 179.75 107.42L171.22 77.17C171.22 77.17 155.46 44.43 119.88 63.59C119.88 63.59 107.56 66.33 111.33 99.51L118.17 118.84L129.67 139.44V139.45Z" fill="#EC9880"/>
<path d="M129.67 111.97C129.67 111.97 135.36 127.12 156.05 122.35L155.42 110.59L129.67 111.97Z" fill="white"/>
<path d="M118.41 125.35L124.22 135.52L131.5 126.95L124.95 114.1L118.41 125.35Z" fill="#EC9880"/>
<path d="M134.97 138.12L155.25 133.93L155.83 142.31L134.97 138.12Z" fill="#DB816D"/>
</g>
<defs>
<clipPath id="clip0_6093_14963">
<rect width="298.16" height="306.47" fill="white"/>
</clipPath>
</defs>
</svg>
