<svg xmlns="http://www.w3.org/2000/svg" xmlns:xlink="http://www.w3.org/1999/xlink"
  viewBox="0 0 24 24">
  <defs>
    <mask id="a" x="-1" y="-0.05" width="26" height="26" maskUnits="userSpaceOnUse">
      <path
        d="M12,0A12,12,0,1,1,0,12,12,12,0,0,1,12,0Zm-.75,9.75H10.4a.75.75,0,0,0-.65.74.76.76,0,0,0,.75.75h.75v3.9a2.24,2.24,0,0,0,2.24,2.1h.85A.75.75,0,0,0,15,16.5a.76.76,0,0,0-.75-.75H13.4a.75.75,0,0,1-.65-.74h0V11.11a1.49,1.49,0,0,0-1.49-1.36ZM11.62,6H11.5a1.1,1.1,0,1,0,.12,0Z"
        style="fill:#fff;fill-rule:evenodd" />
    </mask>
  </defs>
  <path
    d="M12,0A12,12,0,1,1,0,12,12,12,0,0,1,12,0Zm-.75,9.75H10.4a.75.75,0,0,0-.65.74.76.76,0,0,0,.75.75h.75v3.9a2.24,2.24,0,0,0,2.24,2.1h.85A.75.75,0,0,0,15,16.5a.76.76,0,0,0-.75-.75H13.4a.75.75,0,0,1-.65-.74h0V11.11a1.49,1.49,0,0,0-1.49-1.36ZM11.62,6H11.5a1.1,1.1,0,1,0,.12,0Z" />
  <g style="mask:url(#a)">
    <rect x="-1" y="-0.05" width="26" height="26" rx="1.67" style="fill:#004c92" />
  </g>
</svg>
