<svg xmlns="http://www.w3.org/2000/svg" xmlns:xlink="http://www.w3.org/1999/xlink"
  viewBox="0 0 24 24">
  <defs>
    <mask id="a" x="-1" y="-1" width="26" height="26" maskUnits="userSpaceOnUse">
      <path
        d="M12,.75a2.27,2.27,0,0,1,2,1.16h0l9.75,18a2.25,2.25,0,0,1-2,3.34H2.25a2.25,2.25,0,0,1-2-3.33h0L10,1.91A2.27,2.27,0,0,1,12,.75Zm0,16.5h-.12a1.11,1.11,0,0,0-1,1.08h0v.16a1.12,1.12,0,1,0,1.24-1.24H12ZM12,7.5a.76.76,0,0,0-.75.75h0V15.1a.75.75,0,0,0,.74.65.76.76,0,0,0,.75-.75h0V8.15A.75.75,0,0,0,12,7.5Z"
        style="fill:#fff;fill-rule:evenodd" />
    </mask>
  </defs>
  <path
    d="M12,.75a2.27,2.27,0,0,1,2,1.16h0l9.75,18a2.25,2.25,0,0,1-2,3.34H2.25a2.25,2.25,0,0,1-2-3.33h0L10,1.91A2.27,2.27,0,0,1,12,.75Zm0,16.5h-.12a1.11,1.11,0,0,0-1,1.08h0v.16a1.12,1.12,0,1,0,1.24-1.24H12ZM12,7.5a.76.76,0,0,0-.75.75h0V15.1a.75.75,0,0,0,.74.65.76.76,0,0,0,.75-.75h0V8.15A.75.75,0,0,0,12,7.5Z" />
  <g style="mask:url(#a)">
    <rect x="-1" y="-1" width="26" height="26" rx="1.67" style="fill:#c8192c" />
  </g>
</svg>
