<svg xmlns="http://www.w3.org/2000/svg" xmlns:xlink="http://www.w3.org/1999/xlink" width="416" height="416" viewBox="0 0 416 416">
  <g fill="#000" fill-rule="evenodd" transform="translate(-5.333 -5.333)">
    <path d="M213.333333,5.33333333 C222.169889,5.33333333 229.333333,12.4967773 229.333333,21.3333333 L229.333333,21.3333333 L229.333333,197.333333 L405.333333,197.333333 C414.064692,197.333333 421.162538,204.327234 421.330297,213.018463 L421.333333,213.333333 C421.333333,222.169889 414.169889,229.333333 405.333333,229.333333 L405.333333,229.333333 L229.333333,229.333333 L229.333333,405.333333 C229.333333,414.064692 222.339432,421.162538 213.648204,421.330297 L213.333333,421.333333 C204.496777,421.333333 197.333333,414.169889 197.333333,405.333333 L197.333333,405.333333 L197.333333,229.333333 L21.3333333,229.333333 C12.6019744,229.333333 5.50412864,222.339432 5.33636975,213.648204 L5.33333333,213.333333 C5.33333333,204.496777 12.4967773,197.333333 21.3333333,197.333333 L21.3333333,197.333333 L197.333333,197.333333 L197.333333,21.3333333 C197.333333,12.6019744 204.327234,5.50412864 213.018463,5.33636975 Z"/>
  </g>
</svg>
