<svg xmlns="http://www.w3.org/2000/svg" viewBox="0 0 512 512"><defs><style>.a{fill-rule:evenodd;}</style></defs><title>add_alert</title><path class="a" d="M256,342.86a24,24,0,0,1,24,23.67v.33a24,24,0,0,1-23.6,24H256a24,24,0,0,1-24-24v-.4A24,24,0,0,1,256,342.86Zm0-208a16,16,0,0,1,16,16h0v144a16,16,0,0,1-32,0h0v-144A16,16,0,0,1,256,134.86Z"/><path class="a" d="M256,0C397.38,0,512,114.62,512,256S397.38,512,256,512,0,397.38,0,256,114.62,0,256,0Zm0,32C132.29,32,32,132.29,32,256S132.29,480,256,480,480,379.71,480,256,379.71,32,256,32Z"/></svg>