<svg xmlns="http://www.w3.org/2000/svg" viewBox="0 0 512 512">
    <title>
        arrow front
    </title>
    <path d="M260.68,20.69a16,16,0,0,1,22.63,0h0l224,224,.23.23.12.12a.52.52,0,0,0,.1.11l.1.12.11.11a16,16,0,0,1,2.62,4.05l.07.15.06.14.06.16.06.13a16,16,0,0,1,1.1,4.59v.08c0,.07,0,.13,0,.19V255a1,1,0,0,0,0,.17q0,.81,0,1.62a1,1,0,0,0,0,.17v.15c0,.06,0,.12,0,.19v.08a16,16,0,0,1-1.1,4.59l-.06.13-.06.16-.06.14-.07.15a16,16,0,0,1-2.62,4.05l-.11.11-.1.12a.52.52,0,0,0-.1.11l-.35.35.23-.23,0,0-.21.2-224,224a16,16,0,0,1-22.63-22.62h0L457.37,272H16A16,16,0,0,1,0,256.31V256a16,16,0,0,1,16-16H457.37L260.68,43.31A16,16,0,0,1,260.43,21Z" style="fill-rule:evenodd"/>
</svg>
