<svg xmlns="http://www.w3.org/2000/svg" xmlns:xlink="http://www.w3.org/1999/xlink" width="481" height="494" viewBox="0 0 481 494">
  <g fill="#000" fill-rule="evenodd" transform="translate(-15 -20.333)">
    <path d="M479.424,481.493333 C488.260556,481.493333 495.424,488.656777 495.424,497.493333 C495.424,506.224692 488.430099,513.322538 479.738871,513.490297 L479.424,513.493333 L31.424,513.493333 C22.587444,513.493333 15.424,506.329889 15.424,497.493333 C15.424,488.761974 22.417901,481.664129 31.1091293,481.49637 L31.424,481.493333 L479.424,481.493333 Z M383.424,158.933333 C392.155359,158.933333 399.253205,165.927234 399.420964,174.618463 L399.424,174.933333 L399.424,205.013333 L415.424,205.013333 C441.933668,205.013333 463.424,226.503665 463.424,253.013333 L463.424,404.053333 C463.424,430.563001 441.933668,452.053333 415.424,452.053333 L95.424,452.053333 C68.914332,452.053333 47.424,430.563001 47.424,404.053333 L47.424,290.283333 L47.4238143,290.112751 C47.4238486,290.086368 47.4239467,290.06 47.4241085,290.033648 L47.424,253.013333 C47.424,226.503665 68.914332,205.013333 95.424,205.013333 L111.424,205.013333 L111.424,174.933333 C111.424,166.201974 118.417901,159.104129 127.109129,158.93637 L127.424,158.933333 C136.155359,158.933333 143.253205,165.927234 143.420964,174.618463 L143.424,174.933333 L143.424,205.013333 L239.424,205.013333 L239.424,174.933333 C239.424,166.308454 246.248358,159.27749 254.791924,158.94559 L255.109129,158.93637 L255.424,158.933333 C264.155359,158.933333 271.253205,165.927234 271.420964,174.618463 L271.424,174.933333 L271.424,205.013333 L367.424,205.013333 L367.424,174.933333 C367.424,166.308454 374.248358,159.27749 382.791924,158.94559 L383.109129,158.93637 L383.424,158.933333 Z M79.424,404.053333 C79.424,412.889889 86.587444,420.053333 95.424,420.053333 L415.424,420.053333 C424.260556,420.053333 431.424,412.889889 431.424,404.053333 L431.425402,348.199196 C425.090426,352.291273 418.010109,355.452009 410.366661,357.458403 C386.375541,363.756035 361.254499,357.526682 343.449784,341.972513 C330.456776,353.361806 313.399123,359.896796 295.424,359.896796 C277.454642,359.896796 260.402166,353.365998 247.410719,341.98347 C236.533595,351.498774 222.777431,357.662507 207.917995,359.391605 C190.736004,361.390964 173.544897,357.291357 159.414414,348.101094 C139.86663,360.798274 114.792337,363.576052 92.4317961,354.832186 C87.8135667,353.026274 83.4634903,350.788171 79.4240852,348.176796 L79.424,404.053333 Z M415.424,237.013333 L95.424,237.013333 C86.587444,237.013333 79.424,244.176777 79.424,253.013333 L79.4240288,290.306057 C79.4690133,305.431521 89.1214496,319.178107 104.085743,325.029744 C119.321644,330.987591 136.823161,327.480204 148.194167,316.276121 C154.430148,310.131683 164.446452,310.1399 170.672344,316.294561 C179.317028,324.840342 191.746574,329.057451 204.219315,327.606077 C216.638866,326.160893 227.561606,319.27645 233.762431,309.104816 C240.00301,298.867971 254.869736,298.877882 261.096661,309.123038 C268.127523,320.690912 281.197633,327.896796 295.424,327.896796 C309.650367,327.896796 322.720477,320.690912 329.751339,309.123038 C335.971271,298.889388 350.816377,298.865247 357.06956,309.078613 C366.129975,323.87705 384.676475,331.117914 402.241965,326.507 C419.615253,321.946539 431.467078,307.002212 431.424389,290.173921 C431.424337,290.15355 431.424324,290.133187 431.424348,290.112833 L431.424,253.013333 C431.424,244.176777 424.260556,237.013333 415.424,237.013333 Z M394.193171,24.8601195 C395.366041,25.9275245 397.292389,27.7535702 399.728647,30.1859303 C403.765175,34.2160001 407.803318,38.533001 411.608804,43.0046 C415.65188,47.7553755 419.208191,52.4212044 422.157248,56.9756629 C428.016091,66.0239332 431.424,74.3516231 431.424,82.7733333 C431.424,108.725502 409.790843,129.493333 383.424,129.493333 C357.057157,129.493333 335.424,108.725502 335.424,82.7733333 C335.424,74.3516231 338.831909,66.0239332 344.690752,56.9756629 C347.639809,52.4212044 351.19612,47.7553755 355.239196,43.0046 C359.044682,38.533001 363.082825,34.2160001 367.119353,30.1859303 C369.555611,27.7535702 371.481959,25.9275245 372.654829,24.8601195 C378.759473,19.3044046 388.088527,19.3044046 394.193171,24.8601195 Z M266.193171,24.8601195 C267.366041,25.9275245 269.292389,27.7535702 271.728647,30.1859303 C275.765175,34.2160001 279.803318,38.533001 283.608804,43.0046 C287.65188,47.7553755 291.208191,52.4212044 294.157248,56.9756629 C300.016091,66.0239332 303.424,74.3516231 303.424,82.7733333 C303.424,108.725502 281.790842,129.493332 255.424,129.493332 C229.057158,129.493332 207.424,108.725502 207.424,82.7733333 C207.424,74.3516231 210.831909,66.0239332 216.690752,56.9756629 C219.639809,52.4212044 223.19612,47.7553755 227.239196,43.0046 C231.044682,38.533001 235.082825,34.2160001 239.119353,30.1859303 C241.555611,27.7535702 243.481959,25.9275245 244.654829,24.8601195 C250.759473,19.3044046 260.088527,19.3044046 266.193171,24.8601195 Z M138.193171,24.8601195 C139.366041,25.9275245 141.292389,27.7535702 143.728647,30.1859303 C147.765175,34.2160001 151.803318,38.533001 155.608804,43.0046 C159.65188,47.7553755 163.208191,52.4212044 166.157248,56.9756629 C172.016091,66.0239332 175.424,74.3516231 175.424,82.7733333 C175.424,108.725502 153.790842,129.493333 127.424,129.493333 C101.057158,129.493333 79.424,108.725502 79.424,82.7733333 C79.424,74.3516231 82.8319088,66.0239332 88.6907525,56.9756629 C91.639809,52.4212044 95.19612,47.7553755 99.2391955,43.0046 C103.044682,38.533001 107.082825,34.2160001 111.119353,30.1859303 C113.555611,27.7535702 115.481959,25.9275245 116.654829,24.8601195 C122.759473,19.3044046 132.088527,19.3044046 138.193171,24.8601195 Z M383.424,59.4188889 C382.122475,60.8453196 380.845603,62.2906988 379.608804,63.7439867 C376.405707,67.5077548 373.667716,71.0999586 371.551471,74.3682414 C368.753678,78.6890926 367.424,81.9383415 367.424,82.7733333 C367.424,90.7535395 374.444619,97.4933333 383.424,97.4933333 C392.403381,97.4933333 399.424,90.7535395 399.424,82.7733333 C399.424,81.9383415 398.094322,78.6890926 395.296529,74.3682414 C393.180284,71.0999586 390.442293,67.5077548 387.239196,63.7439867 C386.002397,62.2906988 384.725525,60.8453196 383.424,59.4188889 Z M255.424,59.4188889 C254.122475,60.8453196 252.845603,62.2906988 251.608804,63.7439867 C248.405707,67.5077548 245.667716,71.0999586 243.551471,74.3682414 C240.753678,78.6890926 239.424,81.9383415 239.424,82.7733333 C239.424,90.7535388 246.444619,97.4933324 255.424,97.4933324 C264.403381,97.4933324 271.424,90.7535388 271.424,82.7733333 C271.424,81.9383415 270.094322,78.6890926 267.296529,74.3682414 C265.180284,71.0999586 262.442293,67.5077548 259.239196,63.7439867 C258.002397,62.2906988 256.725525,60.8453196 255.424,59.4188889 Z M127.424,59.4188889 C126.122475,60.8453196 124.845603,62.2906988 123.608804,63.7439867 C120.405707,67.5077548 117.667716,71.0999586 115.551471,74.3682414 C112.753678,78.6890926 111.424,81.9383415 111.424,82.7733333 C111.424,90.753539 118.444619,97.4933327 127.424,97.4933327 C136.403381,97.4933327 143.424,90.753539 143.424,82.7733333 C143.424,81.9383415 142.094322,78.6890926 139.296529,74.3682414 C137.180284,71.0999586 134.442293,67.5077548 131.239196,63.7439867 C130.002397,62.2906988 128.725525,60.8453196 127.424,59.4188889 Z"/>
  </g>
</svg>
