<svg xmlns="http://www.w3.org/2000/svg" xmlns:xlink="http://www.w3.org/1999/xlink" width="480" height="480" viewBox="0 0 480 480">
  <g fill="#000" fill-rule="evenodd" transform="translate(-16 -16)">
    <path d="M480,80 C488.731359,80 495.829205,86.993901 495.996964,95.6851293 L496,96 C496,104.731359 489.006099,111.829205 480.314871,111.996964 L480,112 L446.722,112 L418.398092,451.973744 C416.334198,476.854758 395.532491,496 370.56,496 L141.461333,496 C116.488842,496 95.6871349,476.854758 93.6233208,451.974696 L65.278,112 L32,112 C23.163444,112 16,104.836556 16,96 C16,87.2686411 22.993901,80.1707953 31.6851293,80.0030364 L32,80 L160,80 L160,64 C160,37.7554287 181.062674,16.4303086 207.206232,16.0064306 L208,16 L304,16 C330.244571,16 351.569691,37.0626744 351.993569,63.2062322 L352,64 L352,80 L432,80 L480,80 Z M414.611555,112 L97.3894876,112 L125.513236,449.322667 C126.201341,457.618032 133.135483,464 141.461333,464 L370.56,464 C378.88585,464 385.819992,457.618032 386.508097,449.322667 L414.611555,112 Z M208,192 C216.731359,192 223.829205,198.993901 223.996964,207.685129 L224,208 L224,368 C224,376.836556 216.836556,384 208,384 C199.268641,384 192.170795,377.006099 192.003036,368.314871 L192,368 L192,208 C192,199.163444 199.163444,192 208,192 Z M304,192 C312.731359,192 319.829205,198.993901 319.996964,207.685129 L320,208 L320,368 C320,376.836556 312.836556,384 304,384 C295.268641,384 288.170795,377.006099 288.003036,368.314871 L288,368 L288,208 C288,199.163444 295.163444,192 304,192 Z M304,48 L208,48 C199.268641,48 192.170795,54.993901 192.003036,63.6851293 L192,64 L192,80 L320,80 L320,64 C320,55.163444 312.836556,48 304,48 Z"/>
  </g>
</svg>
