<svg xmlns="http://www.w3.org/2000/svg" xmlns:xlink="http://www.w3.org/1999/xlink" width="512" height="512" viewBox="0 0 512 512">
  <g fill="#000" fill-rule="evenodd" transform="translate(-21.333 -21.333)">
    <path d="M506.056927,48.6562244 C523.683576,66.3554456 533.505649,90.3657805 533.342778,115.348051 C533.169105,140.077765 523.222971,163.725074 505.816783,181.010526 L505.287042,181.532375 L196.10792,490.709877 L196.071388,490.748018 C196.054181,490.765259 196.036944,490.782452 196.019678,490.799598 L195.953708,490.865708 C194.033247,492.78617 191.65737,494.184381 189.051444,494.931831 L188.615032,495.050359 L41.308365,532.831692 C29.6429272,535.823653 19.027145,525.354445 21.7484168,513.711466 L21.8349746,513.358302 L59.5485773,366.315986 C60.1397044,363.825749 61.3348488,361.449574 63.1342377,359.420762 C63.1651233,359.386617 63.1957826,359.352284 63.2265969,359.318076 C63.2935552,359.243313 63.3615121,359.169388 63.4302913,359.095953 C63.4490234,359.076163 63.4673554,359.056666 63.4857389,359.037213 L63.4976869,359.024429 C63.593534,358.923326 63.6909534,358.823167 63.7899451,358.723982 C63.7972252,358.716688 63.8045105,358.709402 63.8118011,358.702125 L319.56492,102.949877 L319.608958,102.904958 C319.623864,102.890053 319.638791,102.875183 319.653741,102.860348 L364.23092,58.2838774 L364.280958,58.2329582 C364.297851,58.2160653 364.314772,58.199218 364.331722,58.1824165 L373.005072,49.5103371 C390.463979,31.6456247 414.339107,21.499316 439.321368,21.3238707 C464.300886,21.161018 488.311221,30.9830905 506.056927,48.6562244 Z M83.6499199,401.149877 L59.5491394,495.117527 L153.62392,470.988877 L83.6499199,401.149877 Z M330.92292,136.845877 L97.7529199,370.014877 L184.73492,456.828877 L417.82092,223.743877 L330.92292,136.845877 Z M375.59492,92.1738774 L353.54992,114.218877 L440.44792,201.116877 L462.49292,179.071877 L375.59492,92.1738774 Z M440.186175,53.3237302 L439.53804,53.3245523 C424.247758,53.4319324 409.586439,59.2150818 398.262063,69.5864649 L485.084962,156.410109 C495.413885,145.175656 501.234384,130.468851 501.342097,115.13138 C501.449214,98.7006546 494.993087,82.9073384 483.406261,71.2604048 C472.065826,59.9784965 456.79437,53.5608019 440.833603,53.3297064 L440.186175,53.3237302 Z"/>
  </g>
</svg>
