<svg xmlns="http://www.w3.org/2000/svg" viewBox="0 0 512 512">
    <title>
        email
    </title>
    <path d="M460.8,68.27A51.1,51.1,0,0,1,500.23,86.8c.17.21.35.42.52.64l-.14-.17A51,51,0,0,1,512,119.47V392.53a51.2,51.2,0,0,1-51.2,51.2H51.2A51.2,51.2,0,0,1,0,392.53V119.47a51,51,0,0,1,11.39-32.2c.13-.16.25-.32.38-.47A51.1,51.1,0,0,1,51.2,68.27Zm17.07,58.3L312.3,253.92a92.34,92.34,0,0,1-112.6,0h0L34.13,126.57v266A17.07,17.07,0,0,0,51.2,409.6H460.8a17.07,17.07,0,0,0,17.07-17.07ZM453.31,102.4H58.69L220.51,226.86a58.19,58.19,0,0,0,70.35.48l.63-.48Z" style="fill-rule:evenodd"/>
</svg>
