<svg xmlns="http://www.w3.org/2000/svg" xmlns:xlink="http://www.w3.org/1999/xlink" width="512" height="512" viewBox="0 0 512 512">
  <g fill="#000" fill-rule="evenodd">
    <path d="M256,0 C397.384896,0 512,114.615104 512,256 C512,397.384896 397.384896,512 256,512 C114.615104,512 0,397.384896 0,256 C0,114.615104 114.615104,0 256,0 Z M256,32 C132.288216,32 32,132.288216 32,256 C32,379.711784 132.288216,480 256,480 C379.711784,480 480,379.711784 480,256 C480,132.288216 379.711784,32 256,32 Z M224,208 L240,208 C257.496381,208 271.713128,222.041783 271.995713,239.470821 L272,240 L272,320 C272,328.731359 278.993901,335.829205 287.685129,335.996964 L288,336 L304,336 C312.836556,336 320,343.163444 320,352 C320,360.731359 313.006099,367.829205 304.314871,367.996964 L304,368 L288,368 C261.755429,368 240.430309,346.937326 240.006431,320.793768 L240,320 L240,240 L224,240 C215.163444,240 208,232.836556 208,224 C208,215.268641 214.993901,208.170795 223.685129,208.003036 L224,208 L240,208 Z M247.990553,128 L248,128 C261.254834,128 272,138.745166 272,152 C272,165.254834 261.254834,176 248,176 C234.745166,176 224,165.254834 224,152 C224,138.880832 234.526334,128.220221 247.5938,128.003366 L247.990553,128 L248,128 Z"/>
  </g>
</svg>
