<svg xmlns="http://www.w3.org/2000/svg" xmlns:xlink="http://www.w3.org/1999/xlink" width="321" height="512" viewBox="0 0 321 512">
  <g fill="#000" fill-rule="evenodd" transform="translate(-10.667)">
    <path d="M250.688,0 C294.87078,0 330.688,35.81722 330.688,80 L330.688,432 C330.688,476.18278 294.87078,512 250.688,512 L90.688,512 C46.50522,512 10.688,476.18278 10.688,432 L10.688,80 C10.688,35.81722 46.50522,0 90.688,0 L250.688,0 Z M298.688,416 L42.688,416 L42.688,432 C42.688,458.509668 64.178332,480 90.688,480 L250.688,480 C277.197668,480 298.688,458.509668 298.688,432 L298.688,416 Z M250.688,32 L90.688,32 C64.178332,32 42.688,53.490332 42.688,80 L42.688,384 L298.688,384 L298.688,80 C298.688,53.490332 277.197668,32 250.688,32 Z"/>
  </g>
</svg>
