<svg xmlns="http://www.w3.org/2000/svg" xmlns:xlink="http://www.w3.org/1999/xlink" width="512" height="512" viewBox="0 0 512 512">
  <g fill="#000" fill-rule="evenodd">
    <path id="scan_qrcode-a" d="M496,368 C504.731359,368 511.829205,374.993901 511.996964,383.685129 L512,384 L512,464 C512,490.244571 490.937326,511.569691 464.793768,511.993569 L464,512 L384,512 C375.163444,512 368,504.836556 368,496 C368,487.268641 374.993901,480.170795 383.685129,480.003036 L384,480 L464,480 C472.731359,480 479.829205,473.006099 479.996964,464.314871 L480,464 L480,384 C480,375.163444 487.163444,368 496,368 Z M16,368 C24.836556,368 32,375.163444 32,384 L32,384 L32,464 C32,472.836556 39.163444,480 48,480 L48,480 L128,480 C136.836556,480 144,487.163444 144,496 C144,504.836556 136.836556,512 128,512 L128,512 L48,512 C21.490332,512 0,490.509668 0,464 L0,464 L0,384 C0,375.163444 7.163444,368 16,368 Z M400,288 C408.731359,288 415.829205,294.993901 415.996964,303.685129 L416,304 L416,400 C416,408.731359 409.006099,415.829205 400.314871,415.996964 L400,416 L304,416 C295.163444,416 288,408.836556 288,400 C288,391.268641 294.993901,384.170795 303.685129,384.003036 L304,384 L384,384 L384,304 C384,295.163444 391.163444,288 400,288 Z M205.866667,288 C214.703223,288 221.866667,295.163444 221.866667,304 L221.866667,397.866667 C221.866667,406.703223 214.703223,413.866667 205.866667,413.866667 L112,413.866667 C103.163444,413.866667 96,406.703223 96,397.866667 L96,304 C96,295.163444 103.163444,288 112,288 L205.866667,288 Z M189.866667,320 L128,320 L128,381.866667 L189.866667,381.866667 L189.866667,320 Z M208,96 C216.836556,96 224,103.163444 224,112 L224,208 C224,216.836556 216.836556,224 208,224 L112,224 C103.163444,224 96,216.836556 96,208 L96,112 C96,103.163444 103.163444,96 112,96 L208,96 Z M400,96 C408.836556,96 416,103.163444 416,112 L416,208 C416,216.836556 408.836556,224 400,224 L304,224 C295.163444,224 288,216.836556 288,208 L288,112 C288,103.163444 295.163444,96 304,96 L400,96 Z M192,128 L128,128 L128,192 L192,192 L192,128 Z M384,128 L320,128 L320,192 L384,192 L384,128 Z M128,0 C136.836556,0 144,7.163444 144,16 C144,24.7313589 137.006099,31.8292047 128.314871,31.9969636 L128,32 L48,32 C39.2686411,32 32.1707953,38.993901 32.0030364,47.6851293 L32,48 L32,128 C32,136.836556 24.836556,144 16,144 C7.2686411,144 0.17079531,137.006099 0.00303641878,128.314871 L0,128 L0,48 C0,21.7554287 21.0626744,0.430308574 47.2062322,0.00643062861 L48,0 L128,0 Z M464,0 C490.244571,0 511.569691,21.0626744 511.993569,47.2062322 L512,48 L512,128 C512,136.836556 504.836556,144 496,144 C487.268641,144 480.170795,137.006099 480.003036,128.314871 L480,128 L480,48 C480,39.2686411 473.006099,32.1707953 464.314871,32.0030364 L464,32 L384,32 C375.163444,32 368,24.836556 368,16 C368,7.2686411 374.993901,0.17079531 383.685129,0.00303641878 L384,0 L464,0 Z"/>
  </g>
</svg>
