<svg xmlns="http://www.w3.org/2000/svg" xmlns:xlink="http://www.w3.org/1999/xlink" width="457" height="457" viewBox="0 0 457 457">
  <g fill="#000" fill-rule="evenodd" transform="translate(-12.333 -12.333)">
    <path d="M200.303656,12.4143656 C304.056605,12.4143656 388.164989,96.5227494 388.164989,200.275699 C388.164989,246.509048 371.463734,288.841611 343.765241,321.56937 L464.737347,442.545226 C470.865945,448.673992 470.865238,458.60998 464.735769,464.737875 C458.606299,470.865769 448.669172,470.865063 442.540574,464.736296 L442.540574,464.736296 L321.568346,343.761806 C288.844579,371.445635 246.523359,388.137032 200.303656,388.137032 C96.550706,388.137032 12.4423222,304.028648 12.4423222,200.275699 C12.4423222,96.5227494 96.550706,12.4143656 200.303656,12.4143656 Z M200.303656,44.4143656 C114.223818,44.4143656 44.4423222,114.195861 44.4423222,200.275699 C44.4423222,286.355536 114.223818,356.137032 200.303656,356.137032 C286.383493,356.137032 356.164989,286.355536 356.164989,200.275699 C356.164989,114.195861 286.383493,44.4143656 200.303656,44.4143656 Z"/>
  </g>
</svg>
