<svg xmlns="http://www.w3.org/2000/svg" viewBox="0 0 512 512">
    <path d="M256,176.34a79.74,79.74,0,1,0,79.72,79.73A79.73,79.73,0,0,0,256,176.34Zm0-31.89A111.63,111.63,0,1,1,144.37,256.07,111.62,111.62,0,0,1,256,144.45Zm62.81-103-20.05,22a57.55,57.55,0,0,1-85.49,0l-20-22a25.69,25.69,0,0,0-44.68,18.48L150,89.59a57.58,57.58,0,0,1-60.48,60.58l-29.72-1.51a25.68,25.68,0,0,0-18.48,44.68l22.11,20.07a57.63,57.63,0,0,1,0,85.52l-22.11,20a25.68,25.68,0,0,0,18.59,44.69l29.75-1.5a57.55,57.55,0,0,1,60.45,60.45l-1.52,29.68a25.7,25.7,0,0,0,44.67,18.49l20.06-22.1a57.59,57.59,0,0,1,85.49,0l19.93,22.06a25.7,25.7,0,0,0,44.64-18.4l-1.51-29.76A57.58,57.58,0,0,1,422.33,362l29.77,1.51a25.7,25.7,0,0,0,18.55-44.73l-22.16-20a57.61,57.61,0,0,1,0-85.52l22.14-20a25.71,25.71,0,0,0-18.48-44.75l-29.79,1.52a57.58,57.58,0,0,1-60.31-60.41l1.51-29.77A25.7,25.7,0,0,0,350.18,36l-2.44-1.16-2.77-1A25.72,25.72,0,0,0,318.79,41.42ZM356.17,4,360,5.39l3.67,1.67a57.6,57.6,0,0,1,31.8,54.47l-1.51,29.76a25.68,25.68,0,0,0,26.87,26.94l29.79-1.51A57.6,57.6,0,0,1,492,217l-22.15,20a25.73,25.73,0,0,0,0,38.18l22.16,20A57.6,57.6,0,0,1,450.48,395.4l-29.77-1.51a25.69,25.69,0,0,0-27,27l1.52,29.86a57.59,57.59,0,0,1-100.08,41.38l-20-22.14A25.71,25.71,0,0,0,237,470l-20.1,22.15a57.59,57.59,0,0,1-100.12-41.49l1.53-29.76a25.69,25.69,0,0,0-27-27l-29.74,1.51A57.58,57.58,0,0,1,20,295.25l22.13-20a25.73,25.73,0,0,0,0-38.21L19.93,217A57.57,57.57,0,0,1,61.4,116.81l29.79,1.51a25.69,25.69,0,0,0,27-27.11L116.75,61.4A57.6,57.6,0,0,1,216.91,20l20,22.1A25.65,25.65,0,0,0,275.11,42l20.06-22A57.57,57.57,0,0,1,356.17,4Z"/>
</svg>
