<svg xmlns="http://www.w3.org/2000/svg" viewBox="0 0 512 512">
    <title>
        synchronize
    </title>
    <path d="M432,208.25h0l.66,0h.45l.56.05h.06c.33,0,.65.08,1,.13h0a16,16,0,0,1,2.93.79l0,0,.24.1c.38.15.75.31,1.12.5l.09,0a17,17,0,0,1,1.74,1l.06,0c.38.26.75.53,1.11.83l.09.07.14.12.09.08a12.18,12.18,0,0,1,.92.85l-.15-.16.1.11.05.05,64,64a16,16,0,0,1-22.62,22.63h0l-36.8-36.8A192,192,0,0,1,116.36,388a16,16,0,0,1,23.28-22A160,160,0,0,0,415.86,263l-36.55,36.54a16,16,0,0,1-22.62-22.63h0l64-64,.1-.1a1.59,1.59,0,0,1,.13-.13l.12-.12.1-.09.15-.14.07-.06a15.61,15.61,0,0,1,2.55-1.85l0,0c.31-.19.63-.36,1-.52l.06,0,.19-.09.09,0,.17-.08.15-.07.14-.06.16-.06.13-.06a15.72,15.72,0,0,1,4.23-1.06h.1l.57-.05h.44Zm-27.94-74.12a16,16,0,1,1-24.68,20.37A160,160,0,0,0,96,254.23v11.4l36.69-36.69a16,16,0,0,1,22.36-.26l.26.26a16,16,0,0,1,.26,22.36l-.26.27L92.13,314.75a16,16,0,0,1-24.26,0L4.69,251.57a16,16,0,0,1,22.36-22.89l.26.26L64,265.63v-9.39A192,192,0,0,1,404.06,134.13Z" style="fill-rule:evenodd"/>
</svg>
